<svg width="87" height="54" viewBox="0 0 87 54" fill="none" xmlns="http://www.w3.org/2000/svg">
<path fill-rule="evenodd" clip-rule="evenodd" d="M17.4293 49.0279C17.4293 48.5836 17.3384 48.2559 17.1511 48.0523C16.9674 47.8468 16.5557 47.745 15.9158 47.745H14.5544C13.9628 47.745 13.5677 47.8579 13.3692 48.0801C13.1689 48.3004 13.0725 48.6188 13.0725 49.0279V50.8716C13.0725 51.2826 13.1708 51.5973 13.3692 51.8231C13.5677 52.0471 13.9628 52.1582 14.5544 52.1582H15.9158C16.5538 52.1582 16.96 52.0545 17.1381 51.8509C17.3106 51.6454 17.407 51.327 17.4274 50.8883V49.0279H17.4293ZM19.2617 53.3966C18.863 53.8001 18.1229 53.9964 17.0398 53.9964H13.4898C12.414 53.9964 11.6703 53.8057 11.2585 53.417C10.8375 53.0319 10.6279 52.4506 10.6279 51.6658V48.23C10.6279 47.447 10.8375 46.8676 11.2585 46.477C11.6703 46.0919 12.414 45.8994 13.4898 45.8994H17.0398C18.1229 45.8994 18.863 46.0993 19.2617 46.4992C19.6624 46.899 19.8571 47.4766 19.8571 48.23V51.6658C19.8571 52.4247 19.6605 52.9967 19.2617 53.3966Z" fill="black"/>
<path fill-rule="evenodd" clip-rule="evenodd" d="M29.8987 53.3965C29.5037 53.8 28.7618 53.9963 27.6805 53.9963H24.1305C23.0548 53.9963 22.311 53.8037 21.8956 53.415C21.4764 53.03 21.2705 52.4487 21.2705 51.6638V48.2281C21.2705 47.445 21.4764 46.8656 21.8956 46.475C22.311 46.09 23.0566 45.8975 24.1305 45.8975H27.6805C28.7618 45.8975 29.5037 46.0955 29.8987 46.4972C30.2994 46.8989 30.4978 47.4746 30.4978 48.2281V49.0241H28.0663C28.0663 48.5798 27.9754 48.2521 27.7881 48.0522C27.6044 47.8449 27.1927 47.7431 26.5547 47.7431H25.1951C24.6035 47.7431 24.2084 47.856 24.0081 48.0781C23.8134 48.3003 23.7113 48.6187 23.7113 49.0259V50.8697C23.7113 51.2806 23.8134 51.5953 24.0081 51.8212C24.2084 52.0433 24.6035 52.1562 25.1951 52.1562H26.5547C27.1927 52.1562 27.6026 52.0525 27.7881 51.8471C27.9735 51.6434 28.0663 51.3176 28.0663 50.8697H30.4978V51.6657C30.4997 52.4246 30.2994 52.9966 29.8987 53.3965Z" fill="black"/>
<path fill-rule="evenodd" clip-rule="evenodd" d="M38.6992 45.9014V49.0002H34.3406V45.9014H31.9275L31.9146 48.232V51.6677L31.9275 53.9983H34.3406V50.8439H38.6992V53.9983H41.14V51.6677V48.232V45.9014H38.6992Z" fill="black"/>
<path fill-rule="evenodd" clip-rule="evenodd" d="M45.6767 50.8438H44.983C44.9904 51.2715 45.0943 51.5973 45.2946 51.8231C45.4949 52.0452 45.8881 52.1582 46.4816 52.1582H47.8412H51.7843V53.9982H48.967H45.4152C44.3394 53.9982 43.592 53.8057 43.1802 53.417C42.7647 53.0319 42.557 52.4488 42.557 51.6639V48.23C42.557 47.4488 42.7647 46.8676 43.1802 46.477C43.5938 46.0919 44.3413 45.8994 45.4152 45.8994H48.967H51.7843V47.7413H47.843H46.4835C45.89 47.7413 45.4968 47.8579 45.2965 48.0782C45.0961 48.2985 44.9923 48.6039 44.9849 48.9945H45.6785H51.7843V50.8401H45.6767V50.8438Z" fill="black"/>
<path fill-rule="evenodd" clip-rule="evenodd" d="M73.4664 45.9014H69.9146H67.1121V47.747H70.445V53.9983H72.858V47.747H76.3264V45.9014H73.4664Z" fill="black"/>
<path fill-rule="evenodd" clip-rule="evenodd" d="M55.5289 49.9641C55.5289 48.9552 56.3728 49.0607 56.3728 49.0607H58.8229V50.7731H56.3561C56.3543 50.7731 55.5289 50.8064 55.5289 49.9641ZM63.6898 50.7731H61.223V49.0607H63.6731C63.6731 49.0607 64.5152 48.9552 64.5152 49.9641C64.5133 50.8064 63.6898 50.7731 63.6898 50.7731ZM64.9752 47.3521H61.223V45.873H58.8304V47.3521H54.991C54.991 47.3521 52.8098 47.4169 52.8098 49.8919C52.8098 52.3687 55.0522 52.3873 55.0522 52.3873H58.8322V53.9904H61.2248V52.3873H64.9158C64.9158 52.3873 67.1564 52.3687 67.1564 49.8919C67.1564 47.4169 64.9752 47.3521 64.9752 47.3521Z" fill="black"/>
<path fill-rule="evenodd" clip-rule="evenodd" d="M5.99452 49.363H2.41673V47.7451H5.99452C6.44151 47.7451 6.80319 48.1079 6.80319 48.5541C6.80319 49.0002 6.44151 49.363 5.99452 49.363ZM8.61898 46.5011C8.22021 46.1013 7.48017 45.9014 6.39885 45.9014H0V54.0002H2.41673V51.2068H6.39885C7.48017 51.2068 8.21835 51.0068 8.61898 50.6089C9.01589 50.209 9.21435 49.6277 9.21435 48.8762V48.232C9.21435 47.4804 9.01589 46.901 8.61898 46.5011Z" fill="black"/>
<path fill-rule="evenodd" clip-rule="evenodd" d="M84.211 51.3474C84.211 51.7916 83.8475 52.1545 83.4023 52.1545H79.8245V50.5366H83.4023C83.8475 50.5366 84.211 50.8975 84.211 51.3474ZM86.624 51.6676V51.0234C86.624 50.27 86.4237 49.6924 86.0286 49.2889C85.628 48.8927 84.8898 48.6928 83.8048 48.6928H79.8245L79.8227 45.8994H77.4097V53.9964H83.8048C84.8898 53.9964 85.628 53.7983 86.0286 53.3984C86.4237 52.9967 86.624 52.421 86.624 51.6676Z" fill="black"/>
<path fill-rule="evenodd" clip-rule="evenodd" d="M38.9048 0V3.52645H35.1897V7.0566H31.4413V10.6682H27.6929V22.6878C27.6929 22.6878 34.292 28.7133 35.2398 29.5796V42.3766H51.4317V29.6499C52.3665 28.7799 58.9267 22.6729 58.9267 22.6729V10.6701H55.2024V7.08252H51.4298V3.53015H47.6592V0H38.9048Z" fill="white"/>
<path d="M41.1122 23.7412H37.9387V39.5723H41.1122V23.7412Z" fill="#FFD300"/>
<path d="M44.8771 20.4756H41.7V39.5739H44.8771V20.4756Z" fill="#FFD300"/>
<path d="M48.635 23.7412H45.4634V39.5723H48.635V23.7412Z" fill="#FFD300"/>
<path fill-rule="evenodd" clip-rule="evenodd" d="M33.5857 24.3643L30.4141 21.5412V13.4258H33.5857V24.3643Z" fill="black"/>
<path fill-rule="evenodd" clip-rule="evenodd" d="M37.351 27.8951L34.1738 24.7759V9.84082H37.351V27.8951Z" fill="black"/>
<path d="M41.1122 6.3125H37.9387V23.2487H41.1122V6.3125Z" fill="black"/>
<path d="M44.8771 2.78418H41.7V19.7796H44.8771V2.78418Z" fill="black"/>
<path fill-rule="evenodd" clip-rule="evenodd" d="M52.988 24.3643L56.1598 21.5412V13.4258H52.988V24.3643Z" fill="black"/>
<path fill-rule="evenodd" clip-rule="evenodd" d="M49.2227 27.8951L52.3961 24.7759V9.84082H49.2227V27.8951Z" fill="black"/>
<path d="M48.635 6.3125H45.4634V23.2487H48.635V6.3125Z" fill="black"/>
</svg>
