<svg width="97" height="47" viewBox="0 0 97 47" fill="none" xmlns="http://www.w3.org/2000/svg">
<path fill-rule="evenodd" clip-rule="evenodd" d="M29.969 30.7139H36.1111V32.7448H33.1827V47H29.969V30.7139Z" fill="#0079C2"/>
<path fill-rule="evenodd" clip-rule="evenodd" d="M39.7622 40.8883L40.3137 32.7452H40.5039L41.0553 40.8883H39.7622ZM36.1873 47.0004H39.3629L39.6672 42.6894H41.1884L41.4927 47.0004H44.6493L42.9569 30.7334H37.8797L36.1873 47.0004Z" fill="#0079C2"/>
<path fill-rule="evenodd" clip-rule="evenodd" d="M49.2513 41.2903V44.3559C49.2513 44.7775 49.5745 44.8924 49.7457 44.8924C50.0499 44.8924 50.2591 44.6433 50.2591 44.3559V40.5622C50.2591 40.064 50.164 39.4892 48.966 39.4892H47.6539V37.7073H49.0231C49.9358 37.7073 50.2591 37.4966 50.2591 36.5003V33.2813C50.2591 32.9939 50.0499 32.7448 49.7457 32.7448C49.5555 32.7448 49.2513 32.8598 49.2513 33.2813V35.9254H46.0186V33.6262C46.0186 32.4958 46.1517 30.7139 48.4146 30.7139H51.0958C53.3587 30.7139 53.5108 32.4958 53.5108 33.6262V36.232C53.5108 38.0139 52.2748 38.4929 51.305 38.4546V38.6079C53.4728 38.5504 53.5108 40.2365 53.5108 40.8113V44.0877C53.5108 45.2373 53.3587 47 51.0958 47H48.4146C46.1517 47 46.0186 45.2373 46.0186 44.0877V41.3095H49.2513V41.2903Z" fill="#0079C2"/>
<path fill-rule="evenodd" clip-rule="evenodd" d="M55.6216 30.7139H63.0948V47H59.8811V32.7448H58.8543V47H55.6216V30.7139Z" fill="#0079C2"/>
<path fill-rule="evenodd" clip-rule="evenodd" d="M68.4573 39.6617V32.7448H68.8757C69.2179 32.7448 69.4651 33.0323 69.4651 33.5496V38.8378C69.4651 39.3551 69.2179 39.6425 68.8757 39.6425H68.4573V39.6617ZM65.2246 47H68.4573V41.4627H70.3018C72.5457 41.4627 72.6978 39.7 72.6978 38.5504V33.6262C72.6978 32.4958 72.5457 30.7139 70.3018 30.7139H65.2246V47Z" fill="#0079C2"/>
<path fill-rule="evenodd" clip-rule="evenodd" d="M79.0681 44.3559C79.0681 44.6433 78.859 44.8924 78.5547 44.8924C78.3646 44.8924 78.0603 44.7775 78.0603 44.3559V33.2813C78.0603 32.8598 78.3836 32.7448 78.5547 32.7448C78.859 32.7448 79.0681 32.9939 79.0681 33.2813V44.3559ZM74.8086 44.0877C74.8086 45.2373 74.9607 47 77.2046 47H79.8858C82.1297 47 82.2818 45.2373 82.2818 44.0877V33.6262C82.2818 32.4958 82.1297 30.7139 79.8858 30.7139H77.2046C74.9607 30.7139 74.8086 32.4958 74.8086 33.6262V44.0877Z" fill="#0079C2"/>
<path fill-rule="evenodd" clip-rule="evenodd" d="M92.7976 30.7139H97.0001V47H93.7865V36.7877H93.6533L91.999 47H89.4128L87.7584 36.7877H87.6443V47H84.4116V30.7139H88.5951L90.7059 42.1717L92.7976 30.7139Z" fill="#0079C2"/>
<path fill-rule="evenodd" clip-rule="evenodd" d="M25.7855 8.48797C24.7967 4.11945 22.3056 0.574806 21.9633 0C21.4309 0.804729 19.4532 3.947 18.4454 7.415C17.3425 11.3045 17.1903 14.7342 17.5707 18.1064C17.951 21.4978 19.3581 24.9658 19.3581 24.9658C20.1188 26.786 21.2407 28.7403 21.9823 29.6983C23.0662 28.2805 25.5383 24.0652 26.318 18.5854C26.7553 15.5198 26.7743 12.8373 25.7855 8.48797ZM21.9633 28.6254C21.4689 27.7057 20.7273 25.9621 20.6512 23.2413C20.6322 20.6355 21.6781 18.3746 21.9823 17.9148C22.2486 18.3746 23.1423 20.3481 23.2564 23.0306C23.3325 25.6172 22.4767 27.6865 21.9633 28.6254ZM25.4813 15.8838C25.4432 17.5508 25.2531 19.3135 24.9868 20.3673C25.0819 18.5471 24.8537 15.9988 24.4544 14.0061C24.0361 12.0135 22.8761 8.67958 21.9443 7.14676C21.0886 8.6221 20.0237 11.4961 19.4722 13.987C18.9208 16.4778 18.9018 19.5051 18.9018 20.4056C18.7496 19.6392 18.3883 16.9185 18.4834 14.1786C18.5785 11.9177 19.0919 9.59927 19.3772 8.52629C20.4801 4.96249 21.7161 2.68243 21.9443 2.31839C22.1725 2.68243 23.7318 5.49898 24.5495 8.43049C25.3672 11.4003 25.5193 14.236 25.4813 15.8838Z" fill="#0079C2"/>
<path fill-rule="evenodd" clip-rule="evenodd" d="M23.6558 30.7141H16.1255V35.7915L16.1445 35.7723C17.913 33.9904 20.7844 33.9904 22.5528 35.7723C24.3213 37.5542 24.3213 40.4474 22.5528 42.2293C22.5528 42.2485 22.5338 42.2485 22.5338 42.2485L22.5148 42.2677C20.7463 44.0304 18.4454 44.9118 16.1255 44.9118C13.8055 44.9118 11.4856 44.0304 9.71711 42.2485C6.59851 39.1062 6.23721 34.2395 8.61419 30.6949C8.93746 30.2159 9.29876 29.756 9.71711 29.3345C11.4856 27.5526 13.8055 26.6712 16.1255 26.6712V14.4854C7.22603 14.4854 0 21.7471 0 30.7141C0 39.681 7.22603 46.9619 16.1255 46.9619C20.7653 46.9619 24.9488 44.9692 27.8963 41.8078V30.6949H23.6558V30.7141Z" fill="#0079C2"/>
</svg>
