<svg width="115" height="111" viewBox="0 0 115 111" fill="none" xmlns="http://www.w3.org/2000/svg">
<path d="M114.467 36.2449C114.469 36.2613 114.47 36.2754 114.472 36.2918C114.527 37.0706 113.942 37.7481 113.163 37.8034C113.138 37.8061 110.555 37.9906 107.209 38.1245C106.386 38.1584 105.788 38.2139 105.21 38.2671C104.185 38.3624 103.216 38.4542 101.319 38.394C97.7388 38.2822 89.0309 37.5756 85.3423 33.4312C83.969 32.0126 82.7849 30.7259 82.1918 29.3348C81.7521 28.3023 81.4726 27.3051 81.2683 26.575C81.1656 26.2041 81.0372 25.7458 80.9712 25.6129C80.7139 25.1467 79.9264 24.5036 78.9141 23.9315C78.7772 23.8913 78.4433 23.8242 78.1698 23.7698C76.3333 23.4047 72.51 22.6428 69.5565 19.6376C68.8672 18.9368 68.4534 18.1291 68.1204 17.4812C68.0934 17.4272 68.064 17.3733 68.0324 17.3197C67.868 17.0169 67.642 16.5996 67.561 16.0961C67.3285 14.6199 68.0326 12.9914 68.7905 12.1039C70.0175 10.6719 71.8571 10.9751 72.9541 11.1567C73.0722 11.1752 73.1855 11.1942 73.2986 11.2108C74.6706 11.4159 76.2991 11.6724 77.9671 12.0125C78.1535 12.0499 78.3516 12.0861 78.559 12.1213C79.5681 12.3003 80.8258 12.5221 81.7907 13.2082C82.1822 13.4849 82.6565 13.8976 83.2064 14.3758C83.9517 15.0233 84.8798 15.8318 85.5592 16.2349C86.0495 16.5274 87.4882 16.9625 88.643 17.3112C90.5146 17.8765 91.5999 18.2182 92.1739 18.6773C92.9752 19.3166 94.3409 20.5724 94.3986 20.6256C94.9729 21.1558 95.0119 22.0502 94.4819 22.6247C93.9543 23.1989 93.0581 23.238 92.4837 22.7078C92.4706 22.695 91.1602 21.4926 90.4307 20.9051C90.0921 20.7035 88.7318 20.2933 87.8264 20.0182C86.3217 19.5638 84.9002 19.134 84.1142 18.6638C83.2172 18.1294 82.2268 17.2682 81.3537 16.5084C80.8819 16.0979 80.4337 15.7086 80.1573 15.5123C79.7094 15.194 78.7993 15.0331 78.0678 14.9033C77.8362 14.8635 77.614 14.8227 77.4058 14.7805C75.8009 14.4552 74.2181 14.2057 72.8797 14.0043C72.7546 13.9865 72.6244 13.9646 72.4941 13.9426C71.9178 13.8464 71.1293 13.7155 70.9392 13.9368C70.5676 14.3715 70.2871 15.202 70.3519 15.6409C70.3662 15.6868 70.457 15.8527 70.5159 15.9627C70.5568 16.0367 70.5951 16.1085 70.6334 16.1804C70.9575 16.8102 71.2129 17.2813 71.5735 17.649C73.9148 20.0331 77.0411 20.6546 78.7206 20.9911C79.4343 21.1322 79.8626 21.2178 80.2249 21.4194C81.3192 22.028 82.7655 23.0123 83.4487 24.2446C83.665 24.6368 83.8016 25.1274 83.9911 25.8069C84.1841 26.4979 84.4232 27.357 84.7926 28.2168C85.1976 29.1677 86.2544 30.3017 87.394 31.4793C87.4097 31.4942 87.4257 31.5115 87.4394 31.529C89.4501 33.8102 94.803 35.3558 101.404 35.5619C103.126 35.6167 103.968 35.5358 104.944 35.4457C105.531 35.3915 106.192 35.3295 107.091 35.2924C110.392 35.1584 112.932 34.9783 112.956 34.9759C113.723 34.9265 114.388 35.4899 114.467 36.2449Z" fill="#1F1111"/>
<path d="M81.2991 9.71582C81.3763 10.4544 80.8668 11.1335 80.1238 11.2561C78.3467 11.5509 74.7326 11.362 74.0747 11.3241L72.0672 11.3869C71.9491 11.3898 69.4552 11.4465 68.3075 11.3697C67.9956 11.4 67.1478 11.9034 66.5091 12.4347L58.8053 21.3822C58.5315 21.7331 58.2642 22.0313 58.005 22.3168C57.6629 22.6938 57.3677 23.021 57.113 23.4174C57.1009 23.4376 57.1226 23.4875 57.1316 23.5055C57.1524 23.546 57.2115 23.6347 57.3386 23.6498C58.1885 23.6203 58.5859 23.3867 59.61 22.7796L59.9603 22.5723C61.5745 21.6261 62.6575 20.4486 62.856 19.4228C63.0774 18.2761 64.2321 17.9445 64.8511 17.7684C64.9246 17.7465 64.9916 17.73 65.042 17.7129C65.9444 17.3697 67.0046 16.3605 67.3045 16.0329C67.8321 15.4586 68.7284 15.4195 69.3027 15.9497C69.8768 16.4776 69.916 17.3742 69.386 17.9487C69.2222 18.127 67.7298 19.7171 66.0434 20.3579C65.909 20.4099 65.7732 20.4478 65.6283 20.489C65.5891 20.5002 65.5385 20.515 65.4879 20.5297C64.7829 22.7392 62.6611 24.2693 61.3907 25.0137L61.0516 25.2151C59.8488 25.9262 58.9786 26.4415 57.3526 26.481C57.3242 26.4816 57.2981 26.482 57.2695 26.4802C56.1541 26.4403 55.1397 25.802 54.6264 24.8127C54.1282 23.8549 54.1723 22.7576 54.7436 21.8754C55.1234 21.2928 55.5224 20.8481 55.909 20.4214C56.1489 20.1545 56.3785 19.903 56.5932 19.6222C56.6076 19.6017 56.6247 19.5833 56.6417 19.565L64.4404 10.5057C64.4871 10.4534 64.5363 10.4032 64.5884 10.3575C65.1124 9.90688 66.9376 8.44085 68.4864 8.54686C69.3241 8.60392 71.3021 8.57736 71.9921 8.55977L74.0516 8.49627C74.094 8.4942 74.137 8.49681 74.1796 8.49709C75.2645 8.56151 78.3619 8.6811 79.6638 8.46447C80.4346 8.3365 81.1621 8.85783 81.29 9.62907C81.2932 9.65955 81.2962 9.68768 81.2991 9.71582Z" fill="#1F1111"/>
<path d="M79.976 5.65974C80.0532 6.39836 79.5437 7.07738 78.8007 7.20007C77.0236 7.49481 73.4119 7.30571 72.7516 7.26804L70.7442 7.33085C70.7275 7.33022 70.7088 7.33217 70.6921 7.33154C70.6684 7.33165 68.3926 7.32057 67.3607 7.37626C66.2912 7.43587 65.5431 7.82695 65.2735 7.99024L57.4304 17.533C57.1486 17.8966 56.8109 18.2709 56.4836 18.6298C56.1457 19.0017 55.7994 19.384 55.5458 19.7234C55.5508 19.7252 55.5557 19.7271 55.5627 19.7264C56.3244 19.8957 56.804 20.6539 56.6349 21.4158C56.4657 22.1778 55.7079 22.6576 54.9463 22.4883C53.9177 22.2592 53.0969 21.6149 52.75 20.767C52.4406 20.0052 52.5359 19.1491 53.0112 18.4143C53.3887 17.8321 53.8964 17.2717 54.3895 16.7295C54.6975 16.3892 54.9907 16.067 55.2078 15.7859C55.2162 15.7756 55.2267 15.7626 55.2351 15.7523L63.2232 6.03319C63.2903 5.95032 63.3658 5.87845 63.4513 5.81262C63.6004 5.69748 64.9837 4.6735 67.2078 4.55249C68.2749 4.49312 70.4083 4.5025 70.6831 4.50222L72.7283 4.43784C72.7707 4.43578 72.8137 4.43839 72.8563 4.43867C73.9411 4.50309 77.0386 4.62268 78.3405 4.40604C79.1114 4.27807 79.8387 4.79941 79.9667 5.57064C79.9702 5.60347 79.9731 5.6316 79.976 5.65974Z" fill="#1F1111"/>
<path d="M111.464 20.8395C111.465 20.8559 111.467 20.8724 111.469 20.8888C111.524 21.6676 110.936 22.3453 110.158 22.4006C104.885 22.7739 103.432 22.5417 102.646 22.2374C99.9196 21.1759 91.597 12.8651 88.3041 8.33561C87.1227 7.2786 85.9214 6.71198 85.07 6.81755C83.8818 6.96542 82.649 7.0492 81.4023 7.06807C80.6217 7.08089 79.9808 6.45807 79.9654 5.67509C79.9525 4.8942 80.5771 4.25056 81.3576 4.23773C82.5026 4.22001 83.6341 4.14207 84.7218 4.00707C87.068 3.71686 89.2357 5.34636 90.3209 6.34467C90.3918 6.41074 90.4561 6.48225 90.5118 6.56176C93.7595 11.0888 101.807 18.8738 103.669 19.5989C103.946 19.7052 105.112 19.9198 109.958 19.577C110.722 19.5232 111.385 20.0845 111.464 20.8395Z" fill="#1F1111"/>
<path d="M86.4391 14.2802C86.4609 14.4888 86.4361 14.7048 86.3606 14.9118C86.0785 15.6808 85.3107 16.0882 84.5677 16.4835C84.4061 16.5691 84.2535 16.6514 84.1555 16.7114C83.4898 17.12 82.6198 16.9122 82.2114 16.2461C81.8029 15.5801 82.0106 14.7098 82.6763 14.3012C82.8477 14.1956 83.0386 14.095 83.2405 13.9862C83.411 13.8949 83.7095 13.7358 83.8578 13.6349C84.2125 13.1072 84.8936 12.8677 85.5169 13.0965C86.0419 13.2905 86.3847 13.7596 86.4391 14.2802Z" fill="#1F1111"/>
<path d="M0.0615339 73.6335C0.0931187 74.3919 0.72208 74.9958 1.48828 74.9874C1.51418 74.9864 4.06058 74.9653 7.36093 75.0379C8.26036 75.057 8.92701 75.0363 9.51358 75.019C10.4935 74.9876 11.3415 74.9618 13.0535 75.1241C19.6315 75.7421 24.8749 77.6167 26.7416 80.0213C26.7541 80.0396 26.7689 80.0555 26.7839 80.0738C27.8475 81.3179 28.8315 82.518 29.1763 83.4924C29.489 84.3736 29.6763 85.246 29.8258 85.9476C29.9725 86.6376 30.0805 87.1357 30.2695 87.5408C30.8721 88.8134 32.254 89.8862 33.3082 90.5619C33.6571 90.7857 34.0816 90.8978 34.7851 91.0833C36.4403 91.5217 39.5217 92.3396 41.7094 94.8629C42.0464 95.2524 42.2718 95.7385 42.5559 96.3874C42.5898 96.4638 42.6235 96.5379 42.6597 96.6143C42.7116 96.7277 42.7919 96.899 42.8064 96.9645C42.8457 97.397 42.5111 98.199 42.1108 98.6121C41.9096 98.8211 41.1285 98.6412 40.5593 98.5092C40.4307 98.4792 40.302 98.4491 40.1783 98.4236C38.8551 98.1389 37.2887 97.7912 35.7096 97.3662C35.5044 97.311 35.2852 97.2564 35.0565 97.2022C34.3345 97.027 33.4363 96.8096 33.0091 96.464C32.7455 96.2508 32.3249 95.8341 31.8773 95.395C31.0533 94.5822 30.1187 93.6608 29.2568 93.0714C28.4994 92.5531 27.1098 92.0353 25.6365 91.4878C24.7501 91.159 23.418 90.6623 23.0927 90.4399C22.3989 89.8081 21.1686 88.5262 21.1562 88.5125C20.6163 87.9498 19.7215 87.9304 19.1567 88.4707C18.5943 89.0109 18.575 89.906 19.115 90.471C19.1693 90.5278 20.4539 91.8665 21.2137 92.5545C21.7555 93.0487 22.8198 93.4574 24.6501 94.1386C25.7809 94.5588 27.1895 95.0829 27.6605 95.4055C28.3136 95.8525 29.1892 96.7151 29.8926 97.4078C30.4116 97.9195 30.8593 98.3633 31.2327 98.664C32.1529 99.409 33.3942 99.7089 34.3926 99.9505C34.595 99.9987 34.7929 100.047 34.9742 100.096C36.6153 100.538 38.2246 100.895 39.5835 101.188C39.693 101.212 39.8073 101.238 39.9216 101.263C41.0075 101.513 42.8246 101.933 44.1362 100.578C44.9503 99.7374 45.7641 98.1532 45.615 96.6682C45.5655 96.1606 45.366 95.73 45.2209 95.4175C45.1949 95.3596 45.169 95.304 45.1431 95.2485C44.8511 94.5811 44.4887 93.7514 43.8446 93.009C41.0868 89.8251 37.3186 88.8258 35.5061 88.3468C35.2366 88.2754 34.9075 88.1876 34.7734 88.139C33.799 87.507 33.0531 86.8161 32.8229 86.3278C32.7679 86.1979 32.6683 85.7301 32.589 85.3559C32.4308 84.6145 32.2141 83.6018 31.8398 82.5438C31.3347 81.1184 30.2332 79.7603 28.9513 78.2587C25.5311 73.8919 16.882 72.6428 13.3159 72.3076C11.4263 72.129 10.4535 72.1601 9.4241 72.1912C8.84459 72.2083 8.244 72.2285 7.42001 72.2086C4.07246 72.1356 1.48366 72.1585 1.45766 72.1572C0.677233 72.1637 0.0505499 72.8033 0.0571152 73.5841C0.0602554 73.6028 0.0608473 73.617 0.0615339 73.6335Z" fill="#1F1111"/>
<path d="M31.5072 102.188C31.5084 102.216 31.5097 102.246 31.5132 102.275C31.5928 103.052 32.2862 103.618 33.0635 103.538C34.3764 103.404 37.4603 103.716 38.5367 103.849C38.5793 103.854 38.6219 103.857 38.6644 103.857L40.7356 103.922C41.416 103.948 43.3918 104.045 44.2242 104.154C45.761 104.357 47.6767 103.01 48.2277 102.591C48.2825 102.548 48.3348 102.501 48.3846 102.452L56.734 93.8977C56.7521 93.8804 56.7678 93.8609 56.786 93.8436C57.0179 93.5791 57.2627 93.3401 57.5187 93.0887C57.9312 92.6846 58.3573 92.2681 58.7727 91.7104C59.3981 90.8679 59.5106 89.7755 59.0733 88.7885C58.6204 87.7691 57.6501 87.0662 56.5394 86.9591C56.511 86.9556 56.485 86.9543 56.4566 86.9531C54.8313 86.891 53.9305 87.3485 52.6858 87.9856L52.3347 88.1653C51.0203 88.8289 48.8047 90.2236 47.9654 92.3846C47.9116 92.3963 47.8626 92.4078 47.8228 92.4165C47.6756 92.4486 47.5377 92.4779 47.4003 92.5214C45.6773 93.058 44.0884 94.5494 43.9137 94.7171C43.3513 95.2573 43.332 96.1547 43.872 96.7174C44.412 97.2801 45.3067 97.2995 45.8692 96.7593C46.2163 96.4287 47.3171 95.5074 48.2368 95.2214C48.2834 95.2076 48.3513 95.1954 48.4261 95.1781C49.0572 95.0409 50.2305 94.7844 50.5229 93.649C50.7851 92.64 51.9395 91.5325 53.6097 90.689L53.9723 90.504C55.0323 89.9619 55.4435 89.7537 56.2936 89.7773C56.4195 89.8004 56.473 89.8949 56.4911 89.9342C56.499 89.9528 56.5176 90.0039 56.5042 90.0233C56.2228 90.4008 55.9078 90.7089 55.5453 91.0661C55.2687 91.3348 54.9833 91.6157 54.6882 91.9489L46.4405 100.398C45.7722 100.888 44.8923 101.338 44.5791 101.348C43.4384 101.2 40.9459 101.101 40.8396 101.096L38.8203 101.031C38.1637 100.952 34.5708 100.538 32.7788 100.721C32.0273 100.8 31.4764 101.448 31.5072 102.188Z" fill="#1F1111"/>
<path d="M32.5755 106.319C32.5767 106.348 32.5779 106.376 32.5815 106.406C32.6611 107.184 33.3544 107.75 34.1318 107.67C35.4447 107.535 38.5287 107.851 39.6073 107.98C39.65 107.986 39.6925 107.988 39.735 107.989L41.7802 108.053C42.0546 108.072 44.1832 108.212 45.2521 108.222C47.4793 108.24 48.9239 107.304 49.0799 107.199C49.167 107.139 49.2492 107.071 49.3214 106.993L57.9009 97.7918C57.91 97.7819 57.9213 97.7697 57.9303 97.7599C58.1645 97.4929 58.4749 97.1898 58.8036 96.8693C59.3272 96.3591 59.8713 95.8315 60.2844 95.2739C60.807 94.5702 60.9556 93.7216 60.6944 92.9421C60.4012 92.0741 59.6222 91.3798 58.6099 91.0845C57.8601 90.8656 57.0762 91.2971 56.8575 92.0494C56.6411 92.7994 57.07 93.5838 57.8221 93.8026C57.8269 93.8047 57.8316 93.8046 57.8364 93.8067C57.5576 94.1345 57.1904 94.492 56.8323 94.8419C56.4832 95.1821 56.1228 95.5322 55.8188 95.8775L47.3926 104.912C47.1271 105.05 46.3517 105.401 45.2734 105.392C44.2399 105.383 41.9669 105.23 41.9456 105.228C41.9291 105.227 41.9102 105.227 41.8936 105.226L39.8862 105.163C39.2296 105.084 35.6367 104.67 33.8447 104.853C33.0956 104.931 32.5447 105.58 32.5755 106.319Z" fill="#1F1111"/>
<path d="M1.61714 88.9772C1.64873 89.7357 2.27753 90.3372 3.04148 90.3313C7.89858 90.2919 9.05201 90.5766 9.32141 90.7022C11.0843 91.5184 19.0371 99.8352 22.1194 104.752C22.17 104.835 22.2297 104.91 22.2963 104.98C23.3148 106.045 25.3788 107.806 27.7385 107.663C28.8349 107.596 29.9691 107.589 31.1105 107.643C31.8904 107.679 32.5516 107.078 32.5898 106.295C32.6233 105.513 32.025 104.854 31.2427 104.815C29.9996 104.756 28.764 104.763 27.5666 104.836C26.7102 104.888 25.5467 104.248 24.4336 103.119C21.529 98.561 13.239 89.397 10.5069 88.1328C9.7422 87.78 8.30655 87.4575 3.01799 87.5008C2.23756 87.5073 1.60842 88.1447 1.61508 88.9278C1.61577 88.9443 1.61646 88.9608 1.61714 88.9772Z" fill="#1F1111"/>
<path d="M26.662 97.3066C26.6838 97.8295 26.9943 98.3192 27.506 98.5433C28.1139 98.8105 28.8086 98.6164 29.1956 98.1095C29.3498 98.0182 29.6577 97.8803 29.8336 97.7998C30.042 97.7062 30.2387 97.6154 30.4164 97.5207C31.1064 97.1545 31.3679 96.2989 31.0019 95.6086C30.6359 94.9183 29.7806 94.6566 29.0906 95.0228C28.9891 95.0766 28.8316 95.1469 28.665 95.2246C27.8988 95.5727 27.1071 95.9313 26.7798 96.6811C26.6915 96.883 26.6533 97.0969 26.662 97.3066Z" fill="#1F1111"/>
<path fill-rule="evenodd" clip-rule="evenodd" d="M27.8418 55.6434C27.8418 42.8557 38.2082 32.4893 50.9959 32.4893C63.7835 32.4893 74.15 42.8557 74.15 55.6434C74.15 68.431 63.7835 78.7974 50.9959 78.7974C38.2082 78.7974 27.8418 68.431 27.8418 55.6434ZM50.9959 29.4893C36.5514 29.4893 24.8418 41.1988 24.8418 55.6434C24.8418 70.0879 36.5514 81.7974 50.9959 81.7974C65.4404 81.7974 77.15 70.0879 77.15 55.6434C77.15 41.1988 65.4404 29.4893 50.9959 29.4893ZM35.5414 56.0298C35.5414 47.2845 42.6309 40.1949 51.3763 40.1949C60.1217 40.1949 67.2112 47.2845 67.2112 56.0298C67.2112 64.7752 60.1217 71.8647 51.3763 71.8647C42.6309 71.8647 35.5414 64.7752 35.5414 56.0298ZM51.3763 37.1949C40.9741 37.1949 32.5414 45.6276 32.5414 56.0298C32.5414 66.4321 40.9741 74.8647 51.3763 74.8647C61.7786 74.8647 70.2112 66.4321 70.2112 56.0298C70.2112 45.6276 61.7786 37.1949 51.3763 37.1949Z" fill="#AB2421"/>
<path d="M50.9959 31.9893C37.9321 31.9893 27.3418 42.5796 27.3418 55.6434H28.3418C28.3418 43.1318 38.4844 32.9893 50.9959 32.9893V31.9893ZM74.65 55.6434C74.65 42.5796 64.0597 31.9893 50.9959 31.9893V32.9893C63.5074 32.9893 73.65 43.1318 73.65 55.6434H74.65ZM50.9959 79.2974C64.0597 79.2974 74.65 68.7071 74.65 55.6434H73.65C73.65 68.1549 63.5074 78.2974 50.9959 78.2974V79.2974ZM27.3418 55.6434C27.3418 68.7071 37.9321 79.2974 50.9959 79.2974V78.2974C38.4844 78.2974 28.3418 68.1549 28.3418 55.6434H27.3418ZM25.3418 55.6434C25.3418 41.475 36.8275 29.9893 50.9959 29.9893V28.9893C36.2752 28.9893 24.3418 40.9227 24.3418 55.6434H25.3418ZM50.9959 81.2974C36.8275 81.2974 25.3418 69.8117 25.3418 55.6434H24.3418C24.3418 70.364 36.2752 82.2974 50.9959 82.2974V81.2974ZM76.65 55.6434C76.65 69.8117 65.1643 81.2974 50.9959 81.2974V82.2974C65.7165 82.2974 77.65 70.364 77.65 55.6434H76.65ZM50.9959 29.9893C65.1643 29.9893 76.65 41.475 76.65 55.6434H77.65C77.65 40.9227 65.7165 28.9893 50.9959 28.9893V29.9893ZM51.3763 39.6949C42.3548 39.6949 35.0414 47.0083 35.0414 56.0298H36.0414C36.0414 47.5606 42.9071 40.6949 51.3763 40.6949V39.6949ZM67.7112 56.0298C67.7112 47.0083 60.3978 39.6949 51.3763 39.6949V40.6949C59.8456 40.6949 66.7112 47.5606 66.7112 56.0298H67.7112ZM51.3763 72.3647C60.3978 72.3647 67.7112 65.0514 67.7112 56.0298H66.7112C66.7112 64.4991 59.8456 71.3647 51.3763 71.3647V72.3647ZM35.0414 56.0298C35.0414 65.0514 42.3548 72.3647 51.3763 72.3647V71.3647C42.9071 71.3647 36.0414 64.4991 36.0414 56.0298H35.0414ZM33.0414 56.0298C33.0414 45.9037 41.2502 37.6949 51.3763 37.6949V36.6949C40.6979 36.6949 32.0414 45.3515 32.0414 56.0298H33.0414ZM51.3763 74.3647C41.2502 74.3647 33.0414 66.1559 33.0414 56.0298H32.0414C32.0414 66.7082 40.6979 75.3647 51.3763 75.3647V74.3647ZM69.7112 56.0298C69.7112 66.1559 61.5024 74.3647 51.3763 74.3647V75.3647C62.0547 75.3647 70.7112 66.7082 70.7112 56.0298H69.7112ZM51.3763 37.6949C61.5024 37.6949 69.7112 45.9037 69.7112 56.0298H70.7112C70.7112 45.3515 62.0547 36.6949 51.3763 36.6949V37.6949Z" fill="#AB2421"/>
<circle cx="32.5683" cy="44.7763" r="2.94087" fill="#AB2421" stroke="#AB2421"/>
<circle cx="68.7937" cy="66.4687" r="2.94087" fill="#AB2421" stroke="#AB2421"/>
<circle cx="61.0463" cy="74.2163" r="2.94087" fill="#AB2421" stroke="#AB2421"/>
<circle cx="50.975" cy="34.705" r="2.94087" fill="#AB2421" stroke="#AB2421"/>
<circle cx="61.0463" cy="37.0292" r="2.94087" fill="#AB2421" stroke="#AB2421"/>
<circle cx="40.7829" cy="37.5507" r="2.94087" fill="#AB2421" stroke="#AB2421"/>
<circle cx="30.0573" cy="55.6225" r="2.94087" fill="#AB2421" stroke="#AB2421"/>
<circle cx="71.8925" cy="55.6225" r="2.94087" fill="#AB2421" stroke="#AB2421"/>
<circle cx="68.7937" cy="44.7763" r="2.94087" fill="#AB2421" stroke="#AB2421"/>
<circle cx="32.5219" cy="66.3017" r="2.94087" fill="#AB2421" stroke="#AB2421"/>
<circle cx="39.9147" cy="73.6948" r="2.94087" fill="#AB2421" stroke="#AB2421"/>
<circle cx="50.6406" cy="76.9809" r="2.94087" fill="#AB2421" stroke="#AB2421"/>
</svg>
