<svg width="41" height="31" viewBox="0 0 41 31" fill="none" xmlns="http://www.w3.org/2000/svg">
<path d="M0 30.25L1.125 22.75C1.58333 19.7083 2.4375 16.8125 3.6875 14.0625C4.97917 11.3125 6.5625 8.75 8.4375 6.375C10.3542 4 12.5 1.875 14.875 0L21.3125 4.75C19.1875 7.41667 17.3333 10.2083 15.75 13.125C14.2083 16 13.125 19.125 12.5 22.5L11.125 30.25H0ZM19.0625 30.25L20.1875 22.75C20.6458 19.7083 21.5 16.8125 22.75 14.0625C24.0417 11.3125 25.625 8.75 27.5 6.375C29.4167 4 31.5625 1.875 33.9375 0L40.375 4.75C38.25 7.41667 36.3958 10.2083 34.8125 13.125C33.2708 16 32.1875 19.125 31.5625 22.5L30.1875 30.25H19.0625Z" fill="#AB2421"/>
</svg>
