<svg width="193" height="232" viewBox="0 0 193 232" fill="none" xmlns="http://www.w3.org/2000/svg">
<circle cx="94.7821" cy="114.287" r="90.7821" stroke="#888888" stroke-width="7"/>
<circle cx="94.7822" cy="114.287" r="54.6455" stroke="#888888" stroke-width="3"/>
<rect y="95.8135" width="193" height="43" fill="#EEEEEE"/>
<path d="M24.7861 108.633V112.073H18.4004V127.117H14.0586V108.633H24.7861ZM39.3857 116.491V119.284C39.3857 120.613 39.2207 121.781 38.8906 122.788C38.5605 123.795 38.0908 124.642 37.4814 125.327C36.8721 126.004 36.1484 126.516 35.3105 126.863C34.4811 127.202 33.5586 127.371 32.543 127.371C31.5189 127.371 30.5879 127.202 29.75 126.863C28.9121 126.516 28.1885 126.004 27.5791 125.327C26.9697 124.642 26.5 123.795 26.1699 122.788C25.8398 121.781 25.6748 120.613 25.6748 119.284V116.491C25.6748 115.162 25.8398 113.99 26.1699 112.975C26.5 111.959 26.9655 111.113 27.5664 110.436C28.1758 109.758 28.8994 109.246 29.7373 108.899C30.5752 108.552 31.5062 108.379 32.5303 108.379C33.5459 108.379 34.4727 108.552 35.3105 108.899C36.1569 109.246 36.8805 109.758 37.4814 110.436C38.0824 111.113 38.5479 111.959 38.8779 112.975C39.2165 113.99 39.3857 115.162 39.3857 116.491ZM34.9805 119.284V116.466C34.9805 115.636 34.9297 114.93 34.8281 114.346C34.7266 113.762 34.5742 113.288 34.3711 112.924C34.168 112.56 33.9141 112.293 33.6094 112.124C33.3047 111.955 32.945 111.87 32.5303 111.87C32.0986 111.87 31.7305 111.955 31.4258 112.124C31.1211 112.293 30.8672 112.56 30.6641 112.924C30.4694 113.288 30.3255 113.762 30.2324 114.346C30.1393 114.93 30.0928 115.636 30.0928 116.466V119.284C30.0928 120.105 30.1393 120.808 30.2324 121.392C30.3255 121.967 30.4694 122.441 30.6641 122.813C30.8672 123.186 31.1253 123.461 31.4385 123.639C31.7516 123.808 32.1198 123.893 32.543 123.893C32.9492 123.893 33.3047 123.808 33.6094 123.639C33.9225 123.461 34.1764 123.186 34.3711 122.813C34.5742 122.441 34.7266 121.967 34.8281 121.392C34.9297 120.808 34.9805 120.105 34.9805 119.284ZM50.2529 120.858H54.5947C54.6032 122.246 54.3324 123.431 53.7822 124.413C53.2406 125.386 52.4746 126.123 51.4844 126.622C50.4941 127.121 49.3346 127.371 48.0059 127.371C46.931 127.371 45.9788 127.185 45.1494 126.812C44.32 126.44 43.6217 125.898 43.0547 125.188C42.4876 124.477 42.0602 123.618 41.7725 122.61C41.4847 121.595 41.3408 120.444 41.3408 119.157V116.58C41.3408 115.302 41.4932 114.155 41.7979 113.14C42.111 112.124 42.5511 111.261 43.1182 110.55C43.6937 109.839 44.3877 109.297 45.2002 108.925C46.0212 108.552 46.9352 108.366 47.9424 108.366C49.3558 108.366 50.5492 108.633 51.5225 109.166C52.5042 109.691 53.2575 110.452 53.7822 111.451C54.307 112.441 54.5863 113.631 54.6201 115.019H50.2783C50.3206 114.215 50.2699 113.584 50.126 113.127C49.9821 112.661 49.7282 112.336 49.3643 112.149C49.0088 111.955 48.5348 111.857 47.9424 111.857C47.5361 111.857 47.1934 111.938 46.9141 112.099C46.6348 112.259 46.4105 112.526 46.2412 112.898C46.0719 113.262 45.9492 113.745 45.873 114.346C45.7969 114.947 45.7588 115.683 45.7588 116.555V119.157C45.7588 120.046 45.7884 120.791 45.8477 121.392C45.9069 121.993 46.0169 122.479 46.1777 122.852C46.347 123.215 46.5755 123.478 46.8633 123.639C47.1595 123.799 47.5404 123.88 48.0059 123.88C48.4967 123.88 48.9157 123.799 49.2627 123.639C49.6097 123.469 49.8721 123.169 50.0498 122.737C50.2275 122.297 50.2952 121.671 50.2529 120.858ZM64.2051 108.633V127.117H59.8506V108.633H64.2051ZM68.6865 108.633V112.073H55.4961V108.633H68.6865ZM79.0332 118.878L75.7197 118.078L76.6973 108.633H86.0664V111.959H80.0869L79.7949 115.628C79.9473 115.509 80.2096 115.37 80.582 115.209C80.9544 115.04 81.3691 114.955 81.8262 114.955C82.6133 114.955 83.3073 115.095 83.9082 115.374C84.5091 115.645 85.0127 116.047 85.4189 116.58C85.8337 117.105 86.1426 117.752 86.3457 118.522C86.5573 119.293 86.6631 120.173 86.6631 121.163C86.6631 121.959 86.5488 122.729 86.3203 123.474C86.1003 124.21 85.7575 124.874 85.292 125.467C84.8265 126.051 84.2425 126.516 83.54 126.863C82.8376 127.202 82.0124 127.371 81.0645 127.371C80.362 127.371 79.6722 127.244 78.9951 126.99C78.3265 126.736 77.7171 126.372 77.167 125.898C76.6253 125.416 76.1979 124.836 75.8848 124.159C75.5716 123.474 75.4277 122.708 75.4531 121.861H79.6426C79.651 122.31 79.7145 122.699 79.833 123.029C79.96 123.359 80.125 123.618 80.3281 123.804C80.5397 123.981 80.7767 124.07 81.0391 124.07C81.3353 124.07 81.5807 123.986 81.7754 123.816C81.9701 123.647 82.1182 123.414 82.2197 123.118C82.3213 122.822 82.389 122.483 82.4229 122.103C82.4652 121.713 82.4863 121.303 82.4863 120.871C82.4863 120.414 82.4525 120.004 82.3848 119.64C82.3255 119.276 82.2197 118.967 82.0674 118.713C81.9235 118.451 81.7331 118.252 81.4961 118.116C81.2591 117.981 80.9671 117.913 80.6201 117.913C80.1546 117.913 79.7949 118.019 79.541 118.23C79.2871 118.442 79.1178 118.658 79.0332 118.878ZM100.057 123.816V127.117H88.9229V124.324L93.8994 118.078C94.3057 117.477 94.6273 116.94 94.8643 116.466C95.1097 115.983 95.2874 115.548 95.3975 115.158C95.5075 114.769 95.5625 114.418 95.5625 114.104C95.5625 113.571 95.5117 113.127 95.4102 112.771C95.3086 112.408 95.1605 112.132 94.9658 111.946C94.7796 111.76 94.5469 111.667 94.2676 111.667C93.9629 111.667 93.7005 111.794 93.4805 112.048C93.2604 112.302 93.0911 112.649 92.9727 113.089C92.8626 113.529 92.8076 114.024 92.8076 114.574H88.6182C88.6182 113.44 88.8594 112.403 89.3418 111.464C89.8242 110.524 90.4971 109.775 91.3604 109.217C92.2236 108.65 93.2266 108.366 94.3691 108.366C95.554 108.366 96.5443 108.578 97.3398 109.001C98.1439 109.424 98.7448 110.038 99.1426 110.842C99.5488 111.637 99.752 112.598 99.752 113.724C99.752 114.367 99.6673 114.985 99.498 115.577C99.3288 116.17 99.0833 116.758 98.7617 117.342C98.4401 117.917 98.0423 118.51 97.5684 119.119C97.0944 119.729 96.5485 120.376 95.9307 121.062L94.3945 123.816H100.057ZM113.349 116.187V119.563C113.349 120.892 113.213 122.048 112.942 123.029C112.672 124.011 112.286 124.824 111.787 125.467C111.296 126.11 110.712 126.588 110.035 126.901C109.358 127.215 108.618 127.371 107.813 127.371C107.17 127.371 106.561 127.274 105.985 127.079C105.418 126.876 104.906 126.571 104.449 126.165C103.992 125.75 103.599 125.234 103.269 124.616C102.938 123.998 102.685 123.271 102.507 122.433C102.329 121.586 102.24 120.63 102.24 119.563V116.187C102.24 114.849 102.376 113.694 102.646 112.721C102.917 111.739 103.302 110.926 103.802 110.283C104.31 109.64 104.902 109.162 105.579 108.849C106.256 108.535 106.997 108.379 107.801 108.379C108.444 108.379 109.045 108.48 109.604 108.684C110.171 108.878 110.683 109.183 111.14 109.598C111.605 110.004 112.003 110.516 112.333 111.134C112.663 111.752 112.913 112.484 113.082 113.33C113.26 114.168 113.349 115.12 113.349 116.187ZM109.197 120.084V115.641C109.197 115.048 109.176 114.532 109.134 114.092C109.091 113.652 109.028 113.279 108.943 112.975C108.867 112.67 108.77 112.424 108.651 112.238C108.533 112.044 108.402 111.904 108.258 111.819C108.114 111.726 107.962 111.68 107.801 111.68C107.589 111.68 107.399 111.752 107.229 111.896C107.06 112.031 106.912 112.251 106.785 112.556C106.658 112.86 106.561 113.267 106.493 113.774C106.434 114.282 106.404 114.904 106.404 115.641V120.084C106.404 120.685 106.425 121.21 106.468 121.658C106.519 122.098 106.582 122.475 106.658 122.788C106.734 123.093 106.832 123.342 106.95 123.537C107.069 123.723 107.2 123.859 107.344 123.943C107.496 124.028 107.653 124.07 107.813 124.07C108.017 124.07 108.199 124.003 108.359 123.867C108.529 123.732 108.677 123.512 108.804 123.207C108.931 122.894 109.028 122.483 109.096 121.976C109.163 121.459 109.197 120.829 109.197 120.084ZM123.188 117.494V120.808H116.51V117.494H123.188ZM137.635 123.816V127.117H126.501V124.324L131.478 118.078C131.884 117.477 132.205 116.94 132.442 116.466C132.688 115.983 132.866 115.548 132.976 115.158C133.086 114.769 133.141 114.418 133.141 114.104C133.141 113.571 133.09 113.127 132.988 112.771C132.887 112.408 132.739 112.132 132.544 111.946C132.358 111.76 132.125 111.667 131.846 111.667C131.541 111.667 131.279 111.794 131.059 112.048C130.839 112.302 130.669 112.649 130.551 113.089C130.441 113.529 130.386 114.024 130.386 114.574H126.196C126.196 113.44 126.438 112.403 126.92 111.464C127.402 110.524 128.075 109.775 128.938 109.217C129.802 108.65 130.805 108.366 131.947 108.366C133.132 108.366 134.122 108.578 134.918 109.001C135.722 109.424 136.323 110.038 136.721 110.842C137.127 111.637 137.33 112.598 137.33 113.724C137.33 114.367 137.245 114.985 137.076 115.577C136.907 116.17 136.661 116.758 136.34 117.342C136.018 117.917 135.62 118.51 135.146 119.119C134.673 119.729 134.127 120.376 133.509 121.062L131.973 123.816H137.635ZM150.927 116.187V119.563C150.927 120.892 150.791 122.048 150.521 123.029C150.25 124.011 149.865 124.824 149.365 125.467C148.874 126.11 148.29 126.588 147.613 126.901C146.936 127.215 146.196 127.371 145.392 127.371C144.748 127.371 144.139 127.274 143.563 127.079C142.996 126.876 142.484 126.571 142.027 126.165C141.57 125.75 141.177 125.234 140.847 124.616C140.517 123.998 140.263 123.271 140.085 122.433C139.907 121.586 139.818 120.63 139.818 119.563V116.187C139.818 114.849 139.954 113.694 140.225 112.721C140.495 111.739 140.881 110.926 141.38 110.283C141.888 109.64 142.48 109.162 143.157 108.849C143.834 108.535 144.575 108.379 145.379 108.379C146.022 108.379 146.623 108.48 147.182 108.684C147.749 108.878 148.261 109.183 148.718 109.598C149.183 110.004 149.581 110.516 149.911 111.134C150.241 111.752 150.491 112.484 150.66 113.33C150.838 114.168 150.927 115.12 150.927 116.187ZM146.775 120.084V115.641C146.775 115.048 146.754 114.532 146.712 114.092C146.67 113.652 146.606 113.279 146.521 112.975C146.445 112.67 146.348 112.424 146.229 112.238C146.111 112.044 145.98 111.904 145.836 111.819C145.692 111.726 145.54 111.68 145.379 111.68C145.167 111.68 144.977 111.752 144.808 111.896C144.638 112.031 144.49 112.251 144.363 112.556C144.236 112.86 144.139 113.267 144.071 113.774C144.012 114.282 143.982 114.904 143.982 115.641V120.084C143.982 120.685 144.004 121.21 144.046 121.658C144.097 122.098 144.16 122.475 144.236 122.788C144.312 123.093 144.41 123.342 144.528 123.537C144.647 123.723 144.778 123.859 144.922 123.943C145.074 124.028 145.231 124.07 145.392 124.07C145.595 124.07 145.777 124.003 145.938 123.867C146.107 123.732 146.255 123.512 146.382 123.207C146.509 122.894 146.606 122.483 146.674 121.976C146.742 121.459 146.775 120.829 146.775 120.084ZM161.565 108.633V127.117H157.389V113.457L154.024 114.688V111.438L161.197 108.633H161.565ZM174.87 108.633V127.117H170.693V113.457L167.329 114.688V111.438L174.502 108.633H174.87Z" fill="black"/>
<g opacity="0.5">
<path d="M56.0403 60.9795C55.8445 60.6858 55.5847 60.4844 55.261 60.3755C54.9403 60.2521 54.5181 60.2023 53.9944 60.2263C53.4708 60.2503 52.8095 60.3408 52.0106 60.4978C51.1799 60.6635 50.4231 60.7802 49.7403 60.8476C49.0574 60.9151 48.4355 60.9046 47.8745 60.8163C47.3078 60.7192 46.792 60.5198 46.3271 60.2179C45.8623 59.916 45.4426 59.4843 45.0681 58.9228C44.6822 58.3441 44.4337 57.7363 44.3227 57.0994C44.2117 56.4625 44.2367 55.8225 44.3976 55.1794C44.5528 54.5277 44.8482 53.9074 45.2838 53.3186C45.7136 52.7211 46.2894 52.1825 47.011 51.7027C48.0283 51.0264 49.0217 50.6341 49.9911 50.5258C50.9634 50.403 51.8597 50.5427 52.6801 50.9449C53.5035 51.3327 54.1974 51.9498 54.762 52.7963L51.7231 54.8165C51.4869 54.4624 51.2086 54.1861 50.888 53.9878C50.5618 53.7808 50.2062 53.6805 49.8215 53.6869C49.431 53.6847 49.027 53.8223 48.6097 54.0998C48.2271 54.3541 47.9544 54.6414 47.7914 54.9617C47.6315 55.2675 47.5669 55.5847 47.5978 55.9133C47.6316 56.2275 47.7465 56.5314 47.9423 56.8251C48.0863 57.041 48.2522 57.2051 48.4399 57.3172C48.6276 57.4293 48.8646 57.5024 49.1509 57.5365C49.4314 57.5619 49.7757 57.5512 50.1837 57.5044C50.6004 57.4518 51.1142 57.3659 51.7249 57.2466C52.9146 56.9794 53.952 56.832 54.8373 56.8045C55.7226 56.7771 56.4945 56.9184 57.1532 57.2286C57.8119 57.5388 58.3976 58.0783 58.9103 58.8471C59.3251 59.4691 59.5821 60.1086 59.6815 60.7656C59.7896 61.4169 59.7472 62.0685 59.5544 62.7203C59.3703 63.3664 59.0402 63.991 58.5641 64.5943C58.0909 65.1832 57.4847 65.7233 56.7457 66.2146C55.6414 66.9487 54.5627 67.3542 53.5095 67.4309C52.4593 67.4933 51.5081 67.309 50.6559 66.878C49.8038 66.4471 49.1214 65.8473 48.6087 65.0785L51.5432 63.1276C51.938 63.6631 52.3434 64.017 52.7594 64.1892C53.1842 64.3557 53.6021 64.3896 54.0132 64.2908C54.4185 64.1835 54.7994 64.0113 55.1558 63.7743C55.5819 63.4911 55.8966 63.2008 56.0999 62.9036C56.2975 62.5977 56.3881 62.2818 56.3717 61.9561C56.3639 61.6246 56.2535 61.2991 56.0403 60.9795Z" fill="black"/>
<path d="M68.4815 59.8431C67.4655 60.2711 66.4983 60.5048 65.5798 60.5444C64.6573 60.5744 63.7952 60.4109 62.9935 60.0539C62.1877 59.6873 61.4561 59.1327 60.7985 58.3899C60.137 57.6377 59.562 56.6864 59.0737 55.5362L58.4441 54.0533C57.8912 52.751 57.5649 51.5662 57.4653 50.4987C57.3713 49.4177 57.4661 48.4589 57.7496 47.6223C58.0331 46.7857 58.48 46.0651 59.0902 45.4607C59.7101 44.8521 60.4554 44.3645 61.3262 43.9976C62.3131 43.5819 63.236 43.378 64.0948 43.386C64.9536 43.394 65.7485 43.6139 66.4792 44.0456C67.2197 44.4733 67.8969 45.1013 68.511 45.9296C69.1347 46.7539 69.7008 47.7648 70.2093 48.9626L70.9176 50.6309L60.7294 54.9228L59.6639 52.4132L66.5141 49.5275L66.3628 49.171C66.0447 48.4758 65.7014 47.9088 65.3327 47.4702C64.9599 47.0221 64.5429 46.7384 64.0816 46.6189C63.6259 46.4859 63.0981 46.5458 62.4983 46.7985C62.0629 46.9819 61.7102 47.2257 61.4401 47.53C61.1701 47.8342 61.0005 48.2138 60.9313 48.6688C60.8718 49.1197 60.9132 49.6738 61.0554 50.3311C61.1935 50.9788 61.4503 51.7448 61.8256 52.6288L62.4552 54.1117C62.7821 54.8817 63.1263 55.5043 63.4878 55.9796C63.8589 56.4508 64.2574 56.7984 64.6833 57.0224C65.1052 57.2369 65.5487 57.3414 66.014 57.3358C66.485 57.3168 66.9865 57.1951 67.5187 56.9709C68.3024 56.6408 68.9143 56.2149 69.3544 55.6934C69.8001 55.1582 70.1321 54.5701 70.3504 53.929L72.7109 55.3383C72.5877 55.8272 72.3658 56.3522 72.0451 56.9131C71.7203 57.4646 71.2677 57.997 70.6873 58.5105C70.1165 59.0198 69.3813 59.464 68.4815 59.8431Z" fill="black"/>
<path d="M75.3573 43.1049L78.5693 56.1895L74.9883 57.053L71.0073 40.836L74.4193 40.0132L75.3573 43.1049ZM78.5739 38.9002L79.4048 42.3512C79.1876 42.3506 78.96 42.3738 78.7218 42.4206C78.4915 42.455 78.2636 42.4994 78.0382 42.5537C77.5464 42.6723 77.1421 42.8598 76.8251 43.1161C76.5082 43.3725 76.2661 43.6901 76.0986 44.0692C75.9312 44.4482 75.831 44.8799 75.7979 45.3641C75.7751 45.8459 75.8182 46.3752 75.9273 46.9522L75.1662 47.1675C74.916 46.1483 74.7662 45.1843 74.7167 44.2754C74.6648 43.3566 74.7231 42.5329 74.8915 41.8044C75.0677 41.0634 75.3615 40.4475 75.7728 39.9567C76.1841 39.4659 76.7228 39.1402 77.3888 38.9796C77.5732 38.9352 77.7881 38.9045 78.0336 38.8876C78.2791 38.8708 78.4592 38.875 78.5739 38.9002Z" fill="black"/>
<path d="M89.1325 37.6957L89.4425 40.4503L81.0767 41.3465L80.7667 38.5918L89.1325 37.6957ZM82.5948 34.2916L86.2499 33.9001L88.0496 49.8925C88.107 50.4026 88.2084 50.7841 88.3538 51.037C88.4991 51.2899 88.682 51.451 88.9024 51.5203C89.1228 51.5896 89.3748 51.6091 89.6584 51.5787C89.8685 51.5562 90.0716 51.519 90.2677 51.467C90.4731 51.4037 90.6214 51.3516 90.7125 51.3109L91.0363 54.188C90.7747 54.3193 90.4693 54.4398 90.1203 54.5494C89.7712 54.6591 89.3446 54.7409 88.8404 54.795C88.0947 54.8748 87.4105 54.7932 86.7879 54.5502C86.1653 54.3071 85.6475 53.8618 85.2344 53.2142C84.8214 52.5667 84.5506 51.6716 84.422 50.5289L82.5948 34.2916Z" fill="black"/>
<path d="M96.3429 37.6L96.4544 54.2452L92.7585 54.2451L92.647 37.5999L96.3429 37.6ZM92.4274 33.2463C92.4236 32.672 92.6002 32.1951 92.9572 31.8157C93.3141 31.4259 93.8151 31.2311 94.4602 31.2311C95.1052 31.2311 95.6088 31.4209 95.9709 31.8004C96.333 32.1798 96.516 32.6567 96.5198 33.2311C96.5236 33.7951 96.347 34.2669 95.99 34.6463C95.633 35.0258 95.1319 35.2155 94.4869 35.2155C93.8418 35.2155 93.3382 35.0257 92.9761 34.6463C92.614 34.2668 92.4311 33.8001 92.4274 33.2463Z" fill="black"/>
<path d="M103.785 54.8633L100.111 54.4508L102.047 36.3312C102.179 35.0978 102.499 34.0867 103.009 33.298C103.531 32.5003 104.204 31.926 105.029 31.575C105.864 31.2252 106.818 31.1104 107.89 31.2308C108.216 31.2674 108.534 31.3289 108.844 31.4153C109.155 31.4914 109.447 31.5913 109.721 31.7149L109.332 34.6113C109.189 34.554 109.009 34.5028 108.79 34.4576C108.582 34.4136 108.378 34.3804 108.178 34.358C107.716 34.3061 107.311 34.3638 106.963 34.5311C106.615 34.6983 106.337 34.9662 106.127 35.3347C105.917 35.7032 105.782 36.1729 105.721 36.7437L103.785 54.8633ZM108.328 38.6302L108.034 41.3826L99.4398 40.4178L99.7339 37.6654L108.328 38.6302Z" fill="black"/>
<path d="M115.817 40.2509L112.127 56.4822L108.527 55.6487L112.217 39.4175L115.817 40.2509ZM112.996 35.1292C113.124 34.5692 113.405 34.1447 113.839 33.8557C114.276 33.5568 114.808 33.48 115.437 33.6255C116.065 33.771 116.512 34.0693 116.778 34.5204C117.044 34.9715 117.114 35.4771 116.987 36.0371C116.862 36.5872 116.582 37.0067 116.147 37.2956C115.713 37.5845 115.182 37.6563 114.553 37.5108C113.925 37.3653 113.478 37.0671 113.211 36.6159C112.945 36.1648 112.874 35.6693 112.996 35.1292Z" fill="black"/>
<path d="M120.333 59.5635C119.3 59.1628 118.437 58.6574 117.744 58.0472C117.055 57.4274 116.544 56.7116 116.211 55.8995C115.883 55.0779 115.738 54.1736 115.778 53.1865C115.822 52.1899 116.067 51.1114 116.512 49.9512L117.087 48.4553C117.592 47.1416 118.179 46.0693 118.849 45.2383C119.532 44.4015 120.268 43.7832 121.055 43.3832C121.841 42.9832 122.666 42.7796 123.528 42.7724C124.4 42.7689 125.279 42.9389 126.165 43.2824C127.169 43.6716 127.979 44.1676 128.596 44.7702C129.212 45.3728 129.635 46.0822 129.865 46.8982C130.104 47.718 130.158 48.6369 130.027 49.6548C129.906 50.6765 129.613 51.7914 129.149 52.9996L128.502 54.6825L118.138 50.6642L119.111 48.1327L126.079 50.8345L126.217 50.4749C126.47 49.7577 126.616 49.1145 126.653 48.5452C126.695 47.9664 126.59 47.474 126.339 47.0681C126.101 46.6565 125.677 46.3324 125.067 46.0958C124.624 45.9241 124.199 45.8529 123.792 45.8824C123.385 45.9118 122.998 46.0648 122.632 46.3415C122.275 46.6219 121.92 47.046 121.566 47.6139C121.216 48.1722 120.87 48.8973 120.527 49.789L119.952 51.2849C119.654 52.0616 119.47 52.7451 119.402 53.3355C119.343 53.9297 119.39 54.4548 119.543 54.9106C119.699 55.3569 119.948 55.7398 120.289 56.0592C120.643 56.3729 121.091 56.6347 121.633 56.8446C122.43 57.1537 123.169 57.2751 123.85 57.2088C124.545 57.1367 125.195 56.9477 125.798 56.642L126.529 59.2883C126.1 59.5516 125.574 59.772 124.952 59.9494C124.333 60.1172 123.635 60.1826 122.858 60.1456C122.09 60.1124 121.249 59.9184 120.333 59.5635Z" fill="black"/>
<path d="M135.806 63.5749L146.589 46.4191L149.697 48.3795L137.054 68.495L134.231 66.7328L135.806 63.5749ZM130.288 55.1375L130.987 54.0243C131.717 52.8632 132.455 51.9264 133.201 51.2142C133.952 50.4932 134.71 49.978 135.476 49.6685C136.251 49.3646 137.016 49.2625 137.773 49.362C138.53 49.4616 139.278 49.7441 140.016 50.2097C140.736 50.6641 141.257 51.2182 141.579 51.8722C141.906 52.5174 142.068 53.2475 142.065 54.0625C142.062 54.8774 141.912 55.7581 141.615 56.7047C141.332 57.6482 140.918 58.6428 140.373 59.6886L139.401 61.2339C138.7 62.1326 137.99 62.9162 137.272 63.5848C136.559 64.2447 135.839 64.7477 135.112 65.094C134.386 65.4402 133.654 65.6066 132.917 65.5931C132.195 65.5765 131.478 65.3438 130.767 64.895C130.029 64.4295 129.457 63.8675 129.051 63.2092C128.654 62.5565 128.425 61.8146 128.364 60.9835C128.312 60.158 128.442 59.2588 128.756 58.286C129.075 57.3046 129.585 56.255 130.288 55.1375ZM134.095 55.9848L133.395 57.0979C132.94 57.8226 132.592 58.4749 132.352 59.0548C132.111 59.6347 131.982 60.1566 131.964 60.6205C131.951 61.0757 132.052 61.4872 132.268 61.855C132.489 62.2141 132.827 62.5367 133.28 62.8227C133.849 63.1817 134.4 63.3337 134.931 63.2787C135.471 63.2293 135.987 63.0306 136.479 62.6825C136.985 62.3313 137.463 61.8885 137.91 61.354L139.828 58.3026C140.074 57.8119 140.254 57.328 140.368 56.851C140.487 56.3652 140.533 55.9066 140.506 55.4751C140.479 55.0437 140.363 54.6468 140.156 54.2846C139.963 53.9193 139.662 53.6076 139.253 53.3496C138.8 53.0636 138.358 52.9069 137.928 52.8795C137.504 52.8435 137.084 52.9384 136.669 53.1642C136.259 53.3813 135.838 53.7253 135.406 54.1962C134.987 54.6639 134.551 55.2601 134.095 55.9848Z" fill="black"/>
</g>
<g opacity="0.5">
<path d="M134.827 171.197C135.018 171.493 135.274 171.699 135.596 171.813C135.915 171.941 136.337 171.998 136.861 171.982C137.385 171.967 138.047 171.887 138.849 171.742C139.682 171.59 140.441 171.485 141.125 171.429C141.809 171.372 142.43 171.393 142.99 171.49C143.555 171.596 144.068 171.804 144.528 172.113C144.988 172.422 145.401 172.86 145.767 173.428C146.143 174.012 146.382 174.624 146.483 175.262C146.584 175.901 146.549 176.54 146.378 177.181C146.213 177.83 145.907 178.445 145.463 179.027C145.023 179.618 144.439 180.147 143.71 180.615C142.682 181.275 141.682 181.651 140.711 181.744C139.737 181.851 138.843 181.697 138.029 181.282C137.211 180.882 136.527 180.253 135.976 179.398L139.047 177.427C139.277 177.785 139.551 178.065 139.869 178.269C140.192 178.481 140.546 178.587 140.931 178.586C141.321 178.595 141.727 178.464 142.149 178.193C142.536 177.945 142.813 177.662 142.981 177.344C143.146 177.041 143.215 176.725 143.189 176.396C143.161 176.081 143.051 175.776 142.859 175.479C142.719 175.261 142.555 175.094 142.369 174.979C142.183 174.864 141.948 174.787 141.662 174.749C141.382 174.719 141.037 174.724 140.629 174.764C140.211 174.81 139.696 174.888 139.083 174.997C137.889 175.246 136.85 175.376 135.964 175.39C135.078 175.403 134.308 175.249 133.655 174.929C133.001 174.608 132.424 174.06 131.923 173.283C131.518 172.654 131.271 172.011 131.182 171.352C131.084 170.7 131.137 170.049 131.34 169.4C131.534 168.757 131.874 168.138 132.36 167.542C132.842 166.961 133.457 166.431 134.204 165.952C135.32 165.235 136.405 164.847 137.459 164.787C138.511 164.741 139.459 164.941 140.304 165.385C141.15 165.83 141.823 166.44 142.323 167.217L139.358 169.121C138.971 168.579 138.572 168.219 138.158 168.04C137.736 167.867 137.319 167.826 136.906 167.918C136.499 168.019 136.115 168.185 135.755 168.417C135.325 168.693 135.005 168.978 134.797 169.272C134.595 169.575 134.499 169.889 134.511 170.215C134.513 170.546 134.619 170.874 134.827 171.197Z" fill="black"/>
<path d="M122.366 172.137C123.389 171.725 124.359 171.507 125.279 171.482C126.202 171.467 127.061 171.644 127.857 172.014C128.657 172.394 129.38 172.96 130.026 173.713C130.676 174.476 131.236 175.436 131.707 176.594L132.313 178.086C132.846 179.397 133.154 180.587 133.236 181.656C133.314 182.738 133.204 183.695 132.907 184.527C132.611 185.359 132.152 186.072 131.533 186.666C130.903 187.265 130.15 187.74 129.274 188.093C128.28 188.493 127.354 188.682 126.496 188.66C125.637 188.638 124.845 188.406 124.121 187.962C123.388 187.523 122.72 186.884 122.119 186.046C121.508 185.212 120.958 184.192 120.468 182.987L119.786 181.307L130.041 177.18L131.068 179.706L124.172 182.481L124.318 182.84C124.625 183.54 124.96 184.113 125.321 184.557C125.687 185.011 126.1 185.301 126.559 185.428C127.013 185.569 127.542 185.517 128.146 185.274C128.584 185.098 128.94 184.86 129.215 184.56C129.49 184.26 129.665 183.883 129.742 183.43C129.808 182.98 129.776 182.425 129.644 181.766C129.516 181.116 129.271 180.346 128.909 179.456L128.303 177.964C127.988 177.188 127.653 176.56 127.299 176.08C126.936 175.602 126.543 175.249 126.12 175.018C125.702 174.797 125.26 174.685 124.794 174.683C124.323 174.694 123.82 174.808 123.284 175.024C122.495 175.341 121.876 175.757 121.428 176.271C120.974 176.799 120.633 177.382 120.405 178.019L118.066 176.572C118.197 176.085 118.427 175.564 118.756 175.009C119.09 174.462 119.551 173.937 120.139 173.433C120.718 172.933 121.46 172.501 122.366 172.137Z" fill="black"/>
<path d="M115.229 188.763L112.22 175.629L115.815 174.824L119.544 191.102L116.119 191.87L115.229 188.763ZM111.948 192.915L111.17 189.451C111.388 189.455 111.616 189.436 111.854 189.393C112.085 189.362 112.314 189.322 112.54 189.271C113.034 189.16 113.441 188.979 113.762 188.728C114.083 188.477 114.33 188.163 114.503 187.787C114.676 187.411 114.783 186.981 114.824 186.497C114.854 186.016 114.819 185.486 114.719 184.907L115.484 184.705C115.718 185.728 115.853 186.694 115.888 187.603C115.926 188.523 115.855 189.345 115.675 190.071C115.487 190.809 115.184 191.42 114.765 191.904C114.346 192.388 113.803 192.705 113.134 192.855C112.949 192.896 112.734 192.923 112.488 192.936C112.242 192.949 112.062 192.942 111.948 192.915Z" fill="black"/>
<path d="M101.372 193.951L101.105 191.192L109.483 190.433L109.751 193.192L101.372 193.951ZM107.857 197.462L104.196 197.794L102.643 181.774C102.593 181.263 102.498 180.879 102.356 180.624C102.215 180.369 102.034 180.205 101.815 180.132C101.596 180.059 101.344 180.036 101.06 180.061C100.85 180.08 100.646 180.114 100.449 180.163C100.243 180.223 100.094 180.273 100.002 180.312L99.7226 177.43C99.9862 177.303 100.293 177.187 100.644 177.083C100.995 176.979 101.423 176.904 101.927 176.859C102.674 176.791 103.357 176.884 103.976 177.137C104.595 177.39 105.106 177.844 105.509 178.498C105.912 179.152 106.169 180.052 106.28 181.197L107.857 197.462Z" fill="black"/>
<path d="M94.2262 193.901L94.3662 177.254L98.0612 177.313L97.9213 193.96L94.2262 193.901ZM98.075 198.317C98.0701 198.891 97.8864 199.365 97.5237 199.739C97.161 200.123 96.6572 200.31 96.0123 200.3C95.3674 200.289 94.8668 200.092 94.5105 199.707C94.1542 199.321 93.9785 198.842 93.9833 198.267C93.9881 197.703 94.1718 197.234 94.5344 196.86C94.8971 196.486 95.4009 196.305 96.0458 196.315C96.6907 196.325 97.1913 196.523 97.5475 196.908C97.9038 197.293 98.0796 197.763 98.075 198.317Z" fill="black"/>
<path d="M86.9959 176.548L90.6626 177.02L88.4444 195.109C88.2934 196.341 87.9569 197.347 87.435 198.127C86.9012 198.917 86.2194 199.48 85.3894 199.818C84.5488 200.155 83.5935 200.254 82.5234 200.116C82.1982 200.075 81.8813 200.008 81.5728 199.917C81.2631 199.835 80.9722 199.731 80.7002 199.603L81.1345 196.713C81.2764 196.772 81.4562 196.826 81.6741 196.875C81.8814 196.922 82.0847 196.959 82.2841 196.984C82.7457 197.044 83.1516 196.993 83.5018 196.831C83.852 196.669 84.1347 196.406 84.35 196.041C84.5653 195.675 84.7078 195.208 84.7777 194.638L86.9959 176.548ZM82.2008 192.71L82.5378 189.962L91.1144 191.064L90.7775 193.812L82.2008 192.71Z" fill="black"/>
<path d="M74.7363 190.972L78.6804 174.799L82.2666 175.69L78.3225 191.863L74.7363 190.972ZM77.4756 196.139C77.3396 196.697 77.0521 197.117 76.6133 197.399C76.1721 197.691 75.6385 197.76 75.0126 197.604C74.3867 197.449 73.9443 197.143 73.6853 196.688C73.4263 196.232 73.3649 195.726 73.501 195.168C73.6346 194.62 73.9209 194.205 74.3597 193.923C74.7984 193.64 75.3308 193.577 75.9567 193.733C76.5826 193.888 77.0251 194.194 77.284 194.649C77.543 195.104 77.6069 195.601 77.4756 196.139Z" fill="black"/>
<path d="M70.5266 171.589C71.5534 172.006 72.4083 172.525 73.0913 173.146C73.7705 173.777 74.2699 174.501 74.5895 175.318C74.9054 176.145 75.0355 177.052 74.9799 178.038C74.9205 179.034 74.6587 180.109 74.1947 181.262L73.5965 182.749C73.0712 184.055 72.4671 185.118 71.7843 185.938C71.0879 186.764 70.3432 187.371 69.5501 187.759C68.7571 188.146 67.9295 188.337 67.0674 188.33C66.1955 188.32 65.3195 188.136 64.4394 187.778C63.442 187.373 62.6398 186.864 62.0329 186.252C61.426 185.639 61.0144 184.923 60.7981 184.104C60.5721 183.28 60.5325 182.36 60.6796 181.344C60.8169 180.325 61.1271 179.214 61.6103 178.013L62.2833 176.341L72.5806 180.523L71.5682 183.04L64.6447 180.227L64.5009 180.585C64.2367 181.298 64.0812 181.939 64.0344 182.507C63.9838 183.086 64.0808 183.58 64.3255 183.99C64.5565 184.405 64.9752 184.736 65.5815 184.982C66.0216 185.161 66.4453 185.239 66.8528 185.216C67.2602 185.193 67.6493 185.046 68.0199 184.775C68.3808 184.5 68.7426 184.082 69.1054 183.519C69.4643 182.967 69.8221 182.247 70.1787 181.361L70.777 179.874C71.0876 179.102 71.2818 178.421 71.3596 177.832C71.4277 177.239 71.389 176.713 71.2434 176.255C71.094 175.806 70.8515 175.419 70.5157 175.094C70.1664 174.775 69.7228 174.506 69.1849 174.287C68.3928 173.966 67.6556 173.832 66.9734 173.888C66.2776 173.949 65.6254 174.128 65.017 174.424L64.3287 171.766C64.7619 171.509 65.2909 171.297 65.9158 171.13C66.5369 170.972 67.2357 170.917 68.0122 170.967C68.779 171.012 69.6171 171.22 70.5266 171.589Z" fill="black"/>
<path d="M55.1209 167.336L44.0673 184.32L40.9912 182.311L53.9518 162.396L56.7459 164.203L55.1209 167.336ZM60.5048 175.86L59.7875 176.962C59.0394 178.111 58.2869 179.036 57.53 179.737C56.7675 180.446 56.001 180.949 55.2305 181.246C54.4511 181.538 53.6838 181.628 52.9286 181.517C52.1733 181.405 51.4304 181.111 50.6999 180.634C49.9869 180.168 49.4749 179.606 49.1637 178.947C48.847 178.296 48.6966 177.564 48.7126 176.749C48.7286 175.934 48.8926 175.056 49.2045 174.114C49.502 173.175 49.9318 172.187 50.4939 171.15L51.4895 169.62C52.2051 168.732 52.9273 167.96 53.6561 167.303C54.3792 166.654 55.1068 166.162 55.839 165.828C56.5711 165.493 57.3053 165.338 58.0415 165.363C58.7633 165.391 59.4762 165.635 60.1804 166.095C60.9109 166.572 61.4738 167.143 61.869 167.808C62.2555 168.467 62.4727 169.212 62.5208 170.044C62.56 170.871 62.4152 171.768 62.0864 172.736C61.752 173.712 61.2248 174.753 60.5048 175.86ZM56.7114 174.952L57.4286 173.85C57.8955 173.133 58.2537 172.486 58.5032 171.91C58.7527 171.334 58.8904 170.814 58.9161 170.351C58.9362 169.896 58.8413 169.483 58.6313 169.111C58.4157 168.749 58.0835 168.421 57.6346 168.128C57.0713 167.76 56.5237 167.599 55.9916 167.646C55.4507 167.687 54.9316 167.877 54.4342 168.217C53.9224 168.561 53.4384 168.996 52.9823 169.523L51.0163 172.544C50.7621 173.031 50.5745 173.512 50.4534 173.987C50.3267 174.471 50.2733 174.929 50.2933 175.361C50.3132 175.793 50.4238 176.191 50.625 176.557C50.8117 176.925 51.1075 177.242 51.5124 177.506C51.9613 177.799 52.4004 177.963 52.8298 177.997C53.2535 178.04 53.6747 177.951 54.0933 177.732C54.5063 177.522 54.9328 177.184 55.3728 176.72C55.7983 176.259 56.2445 175.67 56.7114 174.952Z" fill="black"/>
</g>
</svg>
