<svg width="197" height="232" viewBox="0 0 197 232" fill="none" xmlns="http://www.w3.org/2000/svg">
<circle cx="98.7821" cy="114.287" r="90.7821" stroke="#888888" stroke-width="7"/>
<circle cx="98.7822" cy="114.287" r="54.6455" stroke="#888888" stroke-width="3"/>
<rect y="95.8135" width="197" height="43" fill="#EEEEEE"/>
<path d="M22.6162 108.633V127.117H18.2871V108.633H22.6162ZM33.1152 122.204C33.1152 121.916 33.0856 121.658 33.0264 121.43C32.9756 121.193 32.8698 120.973 32.709 120.77C32.5566 120.566 32.3239 120.363 32.0107 120.16C31.6976 119.949 31.2786 119.729 30.7539 119.5C30.0938 119.229 29.4463 118.924 28.8115 118.586C28.1768 118.239 27.6055 117.837 27.0977 117.38C26.5983 116.914 26.1963 116.373 25.8916 115.755C25.5869 115.129 25.4346 114.401 25.4346 113.571C25.4346 112.776 25.5869 112.061 25.8916 111.426C26.2048 110.783 26.6322 110.237 27.1738 109.788C27.724 109.331 28.3714 108.984 29.1162 108.747C29.861 108.502 30.6735 108.379 31.5537 108.379C32.7217 108.379 33.75 108.616 34.6387 109.09C35.5358 109.555 36.234 110.22 36.7334 111.083C37.2412 111.938 37.4951 112.949 37.4951 114.117H33.166C33.166 113.652 33.1068 113.241 32.9883 112.886C32.8698 112.53 32.6836 112.251 32.4297 112.048C32.1842 111.845 31.8584 111.743 31.4521 111.743C31.0882 111.743 30.7793 111.828 30.5254 111.997C30.2799 112.166 30.0938 112.395 29.9668 112.683C29.8398 112.962 29.7764 113.271 29.7764 113.609C29.7764 113.889 29.8398 114.143 29.9668 114.371C30.0938 114.591 30.2673 114.799 30.4873 114.993C30.7158 115.188 30.9782 115.374 31.2744 115.552C31.5791 115.729 31.9049 115.903 32.252 116.072C33.0898 116.385 33.8304 116.737 34.4736 117.126C35.1253 117.507 35.6712 117.943 36.1113 118.434C36.5514 118.916 36.8815 119.466 37.1016 120.084C37.3301 120.702 37.4443 121.4 37.4443 122.179C37.4443 123.008 37.3089 123.744 37.0381 124.388C36.7757 125.031 36.3906 125.577 35.8828 126.025C35.375 126.465 34.7614 126.8 34.042 127.028C33.3311 127.257 32.527 127.371 31.6299 127.371C30.8089 127.371 30.0007 127.253 29.2051 127.016C28.418 126.77 27.7028 126.398 27.0596 125.898C26.4248 125.391 25.917 124.743 25.5361 123.956C25.1553 123.16 24.9648 122.217 24.9648 121.125H29.332C29.332 121.667 29.3743 122.124 29.459 122.496C29.5436 122.868 29.6748 123.169 29.8525 123.397C30.0387 123.618 30.2757 123.778 30.5635 123.88C30.8512 123.973 31.2067 124.02 31.6299 124.02C32.0192 124.02 32.3197 123.939 32.5312 123.778C32.7513 123.609 32.9036 123.389 32.9883 123.118C33.0729 122.839 33.1152 122.534 33.1152 122.204ZM53.1104 116.491V119.284C53.1104 120.613 52.9453 121.781 52.6152 122.788C52.2852 123.795 51.8154 124.642 51.2061 125.327C50.5967 126.004 49.873 126.516 49.0352 126.863C48.2057 127.202 47.2832 127.371 46.2676 127.371C45.2435 127.371 44.3125 127.202 43.4746 126.863C42.6367 126.516 41.9131 126.004 41.3037 125.327C40.6943 124.642 40.2246 123.795 39.8945 122.788C39.5645 121.781 39.3994 120.613 39.3994 119.284V116.491C39.3994 115.162 39.5645 113.99 39.8945 112.975C40.2246 111.959 40.6901 111.113 41.291 110.436C41.9004 109.758 42.624 109.246 43.4619 108.899C44.2998 108.552 45.2308 108.379 46.2549 108.379C47.2705 108.379 48.1973 108.552 49.0352 108.899C49.8815 109.246 50.6051 109.758 51.2061 110.436C51.807 111.113 52.2725 111.959 52.6025 112.975C52.9411 113.99 53.1104 115.162 53.1104 116.491ZM48.7051 119.284V116.466C48.7051 115.636 48.6543 114.93 48.5527 114.346C48.4512 113.762 48.2988 113.288 48.0957 112.924C47.8926 112.56 47.6387 112.293 47.334 112.124C47.0293 111.955 46.6696 111.87 46.2549 111.87C45.8232 111.87 45.4551 111.955 45.1504 112.124C44.8457 112.293 44.5918 112.56 44.3887 112.924C44.194 113.288 44.0501 113.762 43.957 114.346C43.8639 114.93 43.8174 115.636 43.8174 116.466V119.284C43.8174 120.105 43.8639 120.808 43.957 121.392C44.0501 121.967 44.194 122.441 44.3887 122.813C44.5918 123.186 44.8499 123.461 45.1631 123.639C45.4762 123.808 45.8444 123.893 46.2676 123.893C46.6738 123.893 47.0293 123.808 47.334 123.639C47.6471 123.461 47.901 123.186 48.0957 122.813C48.2988 122.441 48.4512 121.967 48.5527 121.392C48.6543 120.808 48.7051 120.105 48.7051 119.284ZM63.5967 123.943H63.7871C64.4219 123.943 65.0016 123.85 65.5264 123.664C66.0511 123.478 66.4997 123.19 66.8721 122.801C67.2529 122.403 67.5492 121.891 67.7607 121.265C67.9723 120.63 68.0781 119.864 68.0781 118.967V115.146C68.0781 114.553 68.0443 114.041 67.9766 113.609C67.9089 113.169 67.8158 112.805 67.6973 112.518C67.5788 112.23 67.4307 112.018 67.2529 111.883C67.0837 111.739 66.8975 111.667 66.6943 111.667C66.4658 111.667 66.2712 111.764 66.1104 111.959C65.9495 112.145 65.8099 112.399 65.6914 112.721C65.5814 113.034 65.4967 113.389 65.4375 113.787C65.3783 114.176 65.3486 114.57 65.3486 114.968C65.3486 115.416 65.3783 115.835 65.4375 116.225C65.5052 116.605 65.6025 116.94 65.7295 117.228C65.8564 117.507 66.0173 117.727 66.2119 117.888C66.415 118.049 66.652 118.129 66.9229 118.129C67.1598 118.129 67.363 118.061 67.5322 117.926C67.71 117.782 67.8538 117.596 67.9639 117.367C68.0824 117.13 68.1712 116.876 68.2305 116.605C68.2897 116.335 68.3151 116.068 68.3066 115.806L69.4873 116.783C69.4873 117.325 69.39 117.858 69.1953 118.383C69.0007 118.908 68.7256 119.386 68.3701 119.817C68.0231 120.241 67.6253 120.579 67.1768 120.833C66.7282 121.087 66.2542 121.214 65.7549 121.214C65.0439 121.214 64.4049 121.066 63.8379 120.77C63.2793 120.473 62.8011 120.05 62.4033 119.5C62.0055 118.95 61.7008 118.294 61.4893 117.532C61.2777 116.762 61.1719 115.907 61.1719 114.968C61.1719 114.062 61.3073 113.212 61.5781 112.416C61.849 111.62 62.2298 110.922 62.7207 110.321C63.2201 109.712 63.8083 109.234 64.4854 108.887C65.1709 108.54 65.9199 108.366 66.7324 108.366C67.4688 108.366 68.1712 108.535 68.8398 108.874C69.5085 109.204 70.0967 109.691 70.6045 110.334C71.1208 110.977 71.527 111.769 71.8232 112.708C72.1195 113.647 72.2676 114.722 72.2676 115.933V117.405C72.2676 118.717 72.1237 119.902 71.8359 120.96C71.5482 122.018 71.1419 122.949 70.6172 123.753C70.0924 124.549 69.4788 125.217 68.7764 125.759C68.0824 126.292 67.3164 126.694 66.4785 126.965C65.6491 127.236 64.7773 127.371 63.8633 127.371H63.6094L63.5967 123.943ZM85.6104 116.187V119.563C85.6104 120.892 85.4749 122.048 85.2041 123.029C84.9333 124.011 84.5482 124.824 84.0488 125.467C83.5579 126.11 82.974 126.588 82.2969 126.901C81.6198 127.215 80.8792 127.371 80.0752 127.371C79.432 127.371 78.8226 127.274 78.2471 127.079C77.68 126.876 77.168 126.571 76.7109 126.165C76.2539 125.75 75.8604 125.234 75.5303 124.616C75.2002 123.998 74.9463 123.271 74.7686 122.433C74.5908 121.586 74.502 120.63 74.502 119.563V116.187C74.502 114.849 74.6374 113.694 74.9082 112.721C75.179 111.739 75.5641 110.926 76.0635 110.283C76.5713 109.64 77.1637 109.162 77.8408 108.849C78.5179 108.535 79.2585 108.379 80.0625 108.379C80.7057 108.379 81.3066 108.48 81.8652 108.684C82.4323 108.878 82.9443 109.183 83.4014 109.598C83.8669 110.004 84.2646 110.516 84.5947 111.134C84.9248 111.752 85.1745 112.484 85.3438 113.33C85.5215 114.168 85.6104 115.12 85.6104 116.187ZM81.459 120.084V115.641C81.459 115.048 81.4378 114.532 81.3955 114.092C81.3532 113.652 81.2897 113.279 81.2051 112.975C81.1289 112.67 81.0316 112.424 80.9131 112.238C80.7946 112.044 80.6634 111.904 80.5195 111.819C80.3757 111.726 80.2233 111.68 80.0625 111.68C79.8509 111.68 79.6605 111.752 79.4912 111.896C79.3219 112.031 79.1738 112.251 79.0469 112.556C78.9199 112.86 78.8226 113.267 78.7549 113.774C78.6956 114.282 78.666 114.904 78.666 115.641V120.084C78.666 120.685 78.6872 121.21 78.7295 121.658C78.7803 122.098 78.8438 122.475 78.9199 122.788C78.9961 123.093 79.0934 123.342 79.2119 123.537C79.3304 123.723 79.4616 123.859 79.6055 123.943C79.7578 124.028 79.9144 124.07 80.0752 124.07C80.2783 124.07 80.4603 124.003 80.6211 123.867C80.7904 123.732 80.9385 123.512 81.0654 123.207C81.1924 122.894 81.2897 122.483 81.3574 121.976C81.4251 121.459 81.459 120.829 81.459 120.084ZM98.915 116.187V119.563C98.915 120.892 98.7796 122.048 98.5088 123.029C98.238 124.011 97.8529 124.824 97.3535 125.467C96.8626 126.11 96.2786 126.588 95.6016 126.901C94.9245 127.215 94.1839 127.371 93.3799 127.371C92.7367 127.371 92.1273 127.274 91.5518 127.079C90.9847 126.876 90.4727 126.571 90.0156 126.165C89.5586 125.75 89.165 125.234 88.835 124.616C88.5049 123.998 88.251 123.271 88.0732 122.433C87.8955 121.586 87.8066 120.63 87.8066 119.563V116.187C87.8066 114.849 87.9421 113.694 88.2129 112.721C88.4837 111.739 88.8688 110.926 89.3682 110.283C89.876 109.64 90.4684 109.162 91.1455 108.849C91.8226 108.535 92.5632 108.379 93.3672 108.379C94.0104 108.379 94.6113 108.48 95.1699 108.684C95.737 108.878 96.249 109.183 96.7061 109.598C97.1715 110.004 97.5693 110.516 97.8994 111.134C98.2295 111.752 98.4792 112.484 98.6484 113.33C98.8262 114.168 98.915 115.12 98.915 116.187ZM94.7637 120.084V115.641C94.7637 115.048 94.7425 114.532 94.7002 114.092C94.6579 113.652 94.5944 113.279 94.5098 112.975C94.4336 112.67 94.3363 112.424 94.2178 112.238C94.0993 112.044 93.9681 111.904 93.8242 111.819C93.6803 111.726 93.528 111.68 93.3672 111.68C93.1556 111.68 92.9652 111.752 92.7959 111.896C92.6266 112.031 92.4785 112.251 92.3516 112.556C92.2246 112.86 92.1273 113.267 92.0596 113.774C92.0003 114.282 91.9707 114.904 91.9707 115.641V120.084C91.9707 120.685 91.9919 121.21 92.0342 121.658C92.085 122.098 92.1484 122.475 92.2246 122.788C92.3008 123.093 92.3981 123.342 92.5166 123.537C92.6351 123.723 92.7663 123.859 92.9102 123.943C93.0625 124.028 93.2191 124.07 93.3799 124.07C93.583 124.07 93.765 124.003 93.9258 123.867C94.0951 123.732 94.2432 123.512 94.3701 123.207C94.4971 122.894 94.5944 122.483 94.6621 121.976C94.7298 121.459 94.7637 120.829 94.7637 120.084ZM109.554 108.633V127.117H105.377V113.457L102.013 114.688V111.438L109.186 108.633H109.554ZM122.059 117.494V120.808H115.381V117.494H122.059ZM136.506 123.816V127.117H125.372V124.324L130.349 118.078C130.755 117.477 131.076 116.94 131.313 116.466C131.559 115.983 131.737 115.548 131.847 115.158C131.957 114.769 132.012 114.418 132.012 114.104C132.012 113.571 131.961 113.127 131.859 112.771C131.758 112.408 131.61 112.132 131.415 111.946C131.229 111.76 130.996 111.667 130.717 111.667C130.412 111.667 130.15 111.794 129.93 112.048C129.71 112.302 129.54 112.649 129.422 113.089C129.312 113.529 129.257 114.024 129.257 114.574H125.067C125.067 113.44 125.309 112.403 125.791 111.464C126.273 110.524 126.946 109.775 127.81 109.217C128.673 108.65 129.676 108.366 130.818 108.366C132.003 108.366 132.993 108.578 133.789 109.001C134.593 109.424 135.194 110.038 135.592 110.842C135.998 111.637 136.201 112.598 136.201 113.724C136.201 114.367 136.117 114.985 135.947 115.577C135.778 116.17 135.533 116.758 135.211 117.342C134.889 117.917 134.492 118.51 134.018 119.119C133.544 119.729 132.998 120.376 132.38 121.062L130.844 123.816H136.506ZM149.798 116.187V119.563C149.798 120.892 149.662 122.048 149.392 123.029C149.121 124.011 148.736 124.824 148.236 125.467C147.745 126.11 147.161 126.588 146.484 126.901C145.807 127.215 145.067 127.371 144.263 127.371C143.619 127.371 143.01 127.274 142.435 127.079C141.868 126.876 141.355 126.571 140.898 126.165C140.441 125.75 140.048 125.234 139.718 124.616C139.388 123.998 139.134 123.271 138.956 122.433C138.778 121.586 138.689 120.63 138.689 119.563V116.187C138.689 114.849 138.825 113.694 139.096 112.721C139.367 111.739 139.752 110.926 140.251 110.283C140.759 109.64 141.351 109.162 142.028 108.849C142.705 108.535 143.446 108.379 144.25 108.379C144.893 108.379 145.494 108.48 146.053 108.684C146.62 108.878 147.132 109.183 147.589 109.598C148.054 110.004 148.452 110.516 148.782 111.134C149.112 111.752 149.362 112.484 149.531 113.33C149.709 114.168 149.798 115.12 149.798 116.187ZM145.646 120.084V115.641C145.646 115.048 145.625 114.532 145.583 114.092C145.541 113.652 145.477 113.279 145.393 112.975C145.316 112.67 145.219 112.424 145.101 112.238C144.982 112.044 144.851 111.904 144.707 111.819C144.563 111.726 144.411 111.68 144.25 111.68C144.038 111.68 143.848 111.752 143.679 111.896C143.509 112.031 143.361 112.251 143.234 112.556C143.107 112.86 143.01 113.267 142.942 113.774C142.883 114.282 142.854 114.904 142.854 115.641V120.084C142.854 120.685 142.875 121.21 142.917 121.658C142.968 122.098 143.031 122.475 143.107 122.788C143.184 123.093 143.281 123.342 143.399 123.537C143.518 123.723 143.649 123.859 143.793 123.943C143.945 124.028 144.102 124.07 144.263 124.07C144.466 124.07 144.648 124.003 144.809 123.867C144.978 123.732 145.126 123.512 145.253 123.207C145.38 122.894 145.477 122.483 145.545 121.976C145.613 121.459 145.646 120.829 145.646 120.084ZM163.103 116.187V119.563C163.103 120.892 162.967 122.048 162.696 123.029C162.425 124.011 162.04 124.824 161.541 125.467C161.05 126.11 160.466 126.588 159.789 126.901C159.112 127.215 158.371 127.371 157.567 127.371C156.924 127.371 156.315 127.274 155.739 127.079C155.172 126.876 154.66 126.571 154.203 126.165C153.746 125.75 153.353 125.234 153.022 124.616C152.692 123.998 152.438 123.271 152.261 122.433C152.083 121.586 151.994 120.63 151.994 119.563V116.187C151.994 114.849 152.13 113.694 152.4 112.721C152.671 111.739 153.056 110.926 153.556 110.283C154.063 109.64 154.656 109.162 155.333 108.849C156.01 108.535 156.751 108.379 157.555 108.379C158.198 108.379 158.799 108.48 159.357 108.684C159.924 108.878 160.437 109.183 160.894 109.598C161.359 110.004 161.757 110.516 162.087 111.134C162.417 111.752 162.667 112.484 162.836 113.33C163.014 114.168 163.103 115.12 163.103 116.187ZM158.951 120.084V115.641C158.951 115.048 158.93 114.532 158.888 114.092C158.845 113.652 158.782 113.279 158.697 112.975C158.621 112.67 158.524 112.424 158.405 112.238C158.287 112.044 158.156 111.904 158.012 111.819C157.868 111.726 157.715 111.68 157.555 111.68C157.343 111.68 157.153 111.752 156.983 111.896C156.814 112.031 156.666 112.251 156.539 112.556C156.412 112.86 156.315 113.267 156.247 113.774C156.188 114.282 156.158 114.904 156.158 115.641V120.084C156.158 120.685 156.179 121.21 156.222 121.658C156.272 122.098 156.336 122.475 156.412 122.788C156.488 123.093 156.586 123.342 156.704 123.537C156.823 123.723 156.954 123.859 157.098 123.943C157.25 124.028 157.407 124.07 157.567 124.07C157.771 124.07 157.952 124.003 158.113 123.867C158.283 123.732 158.431 123.512 158.558 123.207C158.685 122.894 158.782 122.483 158.85 121.976C158.917 121.459 158.951 120.829 158.951 120.084ZM176.344 122.026C176.344 123.203 176.111 124.189 175.646 124.984C175.18 125.78 174.533 126.377 173.703 126.774C172.874 127.172 171.926 127.371 170.859 127.371C169.81 127.371 168.866 127.172 168.028 126.774C167.199 126.377 166.543 125.78 166.061 124.984C165.578 124.189 165.337 123.203 165.337 122.026C165.337 121.222 165.477 120.503 165.756 119.868C166.035 119.225 166.424 118.679 166.924 118.23C167.423 117.782 168.007 117.439 168.676 117.202C169.344 116.965 170.068 116.847 170.847 116.847C171.905 116.847 172.848 117.058 173.678 117.481C174.507 117.896 175.159 118.489 175.633 119.259C176.107 120.029 176.344 120.951 176.344 122.026ZM172.167 121.684C172.167 121.176 172.112 120.748 172.002 120.401C171.9 120.046 171.752 119.775 171.558 119.589C171.363 119.403 171.126 119.31 170.847 119.31C170.584 119.31 170.352 119.403 170.148 119.589C169.945 119.775 169.789 120.046 169.679 120.401C169.569 120.748 169.514 121.176 169.514 121.684C169.514 122.174 169.569 122.602 169.679 122.966C169.797 123.321 169.954 123.596 170.148 123.791C170.352 123.977 170.593 124.07 170.872 124.07C171.143 124.07 171.376 123.977 171.57 123.791C171.765 123.596 171.913 123.321 172.015 122.966C172.116 122.602 172.167 122.174 172.167 121.684ZM176.052 113.571C176.052 114.536 175.832 115.382 175.392 116.11C174.96 116.83 174.355 117.393 173.576 117.799C172.798 118.197 171.896 118.396 170.872 118.396C169.856 118.396 168.955 118.197 168.168 117.799C167.381 117.393 166.763 116.83 166.314 116.11C165.874 115.382 165.654 114.536 165.654 113.571C165.654 112.437 165.874 111.485 166.314 110.715C166.763 109.945 167.381 109.361 168.168 108.963C168.955 108.565 169.852 108.366 170.859 108.366C171.883 108.366 172.785 108.565 173.563 108.963C174.342 109.361 174.951 109.945 175.392 110.715C175.832 111.485 176.052 112.437 176.052 113.571ZM171.875 113.8C171.875 113.36 171.841 112.983 171.773 112.67C171.714 112.348 171.608 112.103 171.456 111.934C171.312 111.756 171.113 111.667 170.859 111.667C170.622 111.667 170.428 111.752 170.275 111.921C170.123 112.09 170.009 112.336 169.933 112.657C169.865 112.97 169.831 113.351 169.831 113.8C169.831 114.24 169.865 114.625 169.933 114.955C170 115.285 170.11 115.543 170.263 115.729C170.424 115.916 170.627 116.009 170.872 116.009C171.126 116.009 171.325 115.916 171.469 115.729C171.621 115.543 171.727 115.285 171.786 114.955C171.845 114.625 171.875 114.24 171.875 113.8Z" fill="black"/>
<g opacity="0.5">
<path d="M60.0403 60.9795C59.8445 60.6858 59.5847 60.4844 59.261 60.3755C58.9403 60.2521 58.5181 60.2023 57.9944 60.2263C57.4708 60.2503 56.8095 60.3408 56.0106 60.4978C55.1799 60.6635 54.4231 60.7802 53.7403 60.8476C53.0574 60.9151 52.4355 60.9046 51.8745 60.8163C51.3078 60.7192 50.792 60.5198 50.3271 60.2179C49.8623 59.916 49.4426 59.4843 49.0681 58.9228C48.6822 58.3441 48.4337 57.7363 48.3227 57.0994C48.2117 56.4625 48.2367 55.8225 48.3976 55.1794C48.5528 54.5277 48.8482 53.9074 49.2838 53.3186C49.7136 52.7211 50.2894 52.1825 51.011 51.7027C52.0283 51.0264 53.0217 50.6341 53.9911 50.5258C54.9634 50.403 55.8597 50.5427 56.6801 50.9449C57.5035 51.3327 58.1974 51.9498 58.762 52.7963L55.7231 54.8165C55.4869 54.4624 55.2086 54.1861 54.888 53.9878C54.5618 53.7808 54.2062 53.6805 53.8215 53.6869C53.431 53.6847 53.027 53.8223 52.6097 54.0998C52.2271 54.3541 51.9544 54.6414 51.7914 54.9617C51.6315 55.2675 51.5669 55.5847 51.5978 55.9133C51.6316 56.2275 51.7465 56.5314 51.9423 56.8251C52.0863 57.041 52.2522 57.2051 52.4399 57.3172C52.6276 57.4293 52.8646 57.5024 53.1509 57.5365C53.4314 57.5619 53.7757 57.5512 54.1837 57.5044C54.6004 57.4518 55.1142 57.3659 55.7249 57.2466C56.9146 56.9794 57.952 56.832 58.8373 56.8045C59.7226 56.7771 60.4945 56.9184 61.1532 57.2286C61.8119 57.5388 62.3976 58.0783 62.9103 58.8471C63.3251 59.4691 63.5821 60.1086 63.6815 60.7656C63.7896 61.4169 63.7472 62.0685 63.5544 62.7203C63.3703 63.3664 63.0402 63.991 62.5641 64.5943C62.0909 65.1832 61.4847 65.7233 60.7457 66.2146C59.6414 66.9487 58.5627 67.3542 57.5095 67.4309C56.4593 67.4933 55.5081 67.309 54.6559 66.878C53.8038 66.4471 53.1214 65.8473 52.6087 65.0785L55.5432 63.1276C55.938 63.6631 56.3434 64.017 56.7594 64.1892C57.1842 64.3557 57.6021 64.3896 58.0132 64.2908C58.4185 64.1835 58.7994 64.0113 59.1558 63.7743C59.5819 63.4911 59.8966 63.2008 60.0999 62.9036C60.2975 62.5977 60.3881 62.2818 60.3717 61.9561C60.3639 61.6246 60.2535 61.2991 60.0403 60.9795Z" fill="black"/>
<path d="M72.4815 59.8431C71.4655 60.2711 70.4983 60.5048 69.5798 60.5444C68.6573 60.5744 67.7952 60.4109 66.9935 60.0539C66.1877 59.6873 65.4561 59.1327 64.7985 58.3899C64.137 57.6377 63.562 56.6864 63.0737 55.5362L62.4441 54.0533C61.8912 52.751 61.5649 51.5662 61.4653 50.4987C61.3713 49.4177 61.4661 48.4589 61.7496 47.6223C62.0331 46.7857 62.48 46.0651 63.0902 45.4607C63.7101 44.8521 64.4554 44.3645 65.3262 43.9976C66.3131 43.5819 67.236 43.378 68.0948 43.386C68.9536 43.394 69.7485 43.6139 70.4792 44.0456C71.2197 44.4733 71.8969 45.1013 72.511 45.9296C73.1347 46.7539 73.7008 47.7648 74.2093 48.9626L74.9176 50.6309L64.7294 54.9228L63.6639 52.4132L70.5141 49.5275L70.3628 49.171C70.0447 48.4758 69.7014 47.9088 69.3327 47.4702C68.9599 47.0221 68.5429 46.7384 68.0816 46.6189C67.6259 46.4859 67.0981 46.5458 66.4983 46.7985C66.0629 46.9819 65.7102 47.2257 65.4401 47.53C65.1701 47.8342 65.0005 48.2138 64.9313 48.6688C64.8718 49.1197 64.9132 49.6738 65.0554 50.3311C65.1935 50.9788 65.4503 51.7448 65.8256 52.6288L66.4552 54.1117C66.7821 54.8817 67.1263 55.5043 67.4878 55.9796C67.8589 56.4508 68.2574 56.7984 68.6833 57.0224C69.1052 57.2369 69.5487 57.3414 70.014 57.3358C70.485 57.3168 70.9865 57.1951 71.5187 56.9709C72.3024 56.6408 72.9143 56.2149 73.3544 55.6934C73.8001 55.1582 74.1321 54.5701 74.3504 53.929L76.7109 55.3383C76.5877 55.8272 76.3658 56.3522 76.0451 56.9131C75.7203 57.4646 75.2677 57.997 74.6873 58.5105C74.1165 59.0198 73.3813 59.464 72.4815 59.8431Z" fill="black"/>
<path d="M79.3573 43.1049L82.5693 56.1895L78.9883 57.053L75.0073 40.836L78.4193 40.0132L79.3573 43.1049ZM82.5739 38.9002L83.4048 42.3512C83.1876 42.3506 82.96 42.3738 82.7218 42.4206C82.4915 42.455 82.2636 42.4994 82.0382 42.5537C81.5464 42.6723 81.1421 42.8598 80.8251 43.1161C80.5082 43.3725 80.2661 43.6901 80.0986 44.0692C79.9312 44.4482 79.831 44.8799 79.7979 45.3641C79.7751 45.8459 79.8182 46.3752 79.9273 46.9522L79.1662 47.1675C78.916 46.1483 78.7662 45.1843 78.7167 44.2754C78.6648 43.3566 78.7231 42.5329 78.8915 41.8044C79.0677 41.0634 79.3615 40.4475 79.7728 39.9567C80.1841 39.4659 80.7228 39.1402 81.3888 38.9796C81.5732 38.9352 81.7881 38.9045 82.0336 38.8876C82.2791 38.8708 82.4592 38.875 82.5739 38.9002Z" fill="black"/>
<path d="M93.1325 37.6957L93.4425 40.4503L85.0767 41.3465L84.7667 38.5918L93.1325 37.6957ZM86.5948 34.2916L90.2499 33.9001L92.0496 49.8925C92.107 50.4026 92.2084 50.7841 92.3538 51.037C92.4991 51.2899 92.682 51.451 92.9024 51.5203C93.1228 51.5896 93.3748 51.6091 93.6584 51.5787C93.8685 51.5562 94.0716 51.519 94.2677 51.467C94.4731 51.4037 94.6214 51.3516 94.7125 51.3109L95.0363 54.188C94.7747 54.3193 94.4693 54.4398 94.1203 54.5494C93.7712 54.6591 93.3446 54.7409 92.8404 54.795C92.0947 54.8748 91.4105 54.7932 90.7879 54.5502C90.1653 54.3071 89.6475 53.8618 89.2344 53.2142C88.8214 52.5667 88.5506 51.6716 88.422 50.5289L86.5948 34.2916Z" fill="black"/>
<path d="M100.343 37.6L100.454 54.2452L96.7585 54.2451L96.647 37.5999L100.343 37.6ZM96.4274 33.2463C96.4236 32.672 96.6002 32.1951 96.9572 31.8157C97.3141 31.4259 97.8151 31.2311 98.4602 31.2311C99.1052 31.2311 99.6088 31.4209 99.9709 31.8004C100.333 32.1798 100.516 32.6567 100.52 33.2311C100.524 33.7951 100.347 34.2669 99.99 34.6463C99.633 35.0258 99.1319 35.2155 98.4869 35.2155C97.8418 35.2155 97.3382 35.0257 96.9761 34.6463C96.614 34.2668 96.4311 33.8001 96.4274 33.2463Z" fill="black"/>
<path d="M107.785 54.8633L104.111 54.4508L106.047 36.3312C106.179 35.0978 106.499 34.0867 107.009 33.298C107.531 32.5003 108.204 31.926 109.029 31.575C109.864 31.2252 110.818 31.1104 111.89 31.2308C112.216 31.2674 112.534 31.3289 112.844 31.4153C113.155 31.4914 113.447 31.5913 113.721 31.7149L113.332 34.6113C113.189 34.554 113.009 34.5028 112.79 34.4576C112.582 34.4136 112.378 34.3804 112.178 34.358C111.716 34.3061 111.311 34.3638 110.963 34.5311C110.615 34.6983 110.337 34.9662 110.127 35.3347C109.917 35.7032 109.782 36.1729 109.721 36.7437L107.785 54.8633ZM112.328 38.6302L112.034 41.3826L103.44 40.4178L103.734 37.6654L112.328 38.6302Z" fill="black"/>
<path d="M119.817 40.2509L116.127 56.4822L112.527 55.6487L116.217 39.4175L119.817 40.2509ZM116.996 35.1292C117.124 34.5692 117.405 34.1447 117.839 33.8557C118.276 33.5568 118.808 33.48 119.437 33.6255C120.065 33.771 120.512 34.0693 120.778 34.5204C121.044 34.9715 121.114 35.4771 120.987 36.0371C120.862 36.5872 120.582 37.0067 120.147 37.2956C119.713 37.5845 119.182 37.6563 118.553 37.5108C117.925 37.3653 117.478 37.0671 117.211 36.6159C116.945 36.1648 116.874 35.6693 116.996 35.1292Z" fill="black"/>
<path d="M124.333 59.5635C123.3 59.1628 122.437 58.6574 121.744 58.0472C121.055 57.4274 120.544 56.7116 120.211 55.8995C119.883 55.0779 119.738 54.1736 119.778 53.1865C119.822 52.1899 120.067 51.1114 120.512 49.9512L121.087 48.4553C121.592 47.1416 122.179 46.0693 122.849 45.2383C123.532 44.4015 124.268 43.7832 125.055 43.3832C125.841 42.9832 126.666 42.7796 127.528 42.7724C128.4 42.7689 129.279 42.9389 130.165 43.2824C131.169 43.6716 131.979 44.1676 132.596 44.7702C133.212 45.3728 133.635 46.0822 133.865 46.8982C134.104 47.718 134.158 48.6369 134.027 49.6548C133.906 50.6765 133.613 51.7914 133.149 52.9996L132.502 54.6825L122.138 50.6642L123.111 48.1327L130.079 50.8345L130.217 50.4749C130.47 49.7577 130.616 49.1145 130.653 48.5452C130.695 47.9664 130.59 47.474 130.339 47.0681C130.101 46.6565 129.677 46.3324 129.067 46.0958C128.624 45.9241 128.199 45.8529 127.792 45.8824C127.385 45.9118 126.998 46.0648 126.632 46.3415C126.275 46.6219 125.92 47.046 125.566 47.6139C125.216 48.1722 124.87 48.8973 124.527 49.789L123.952 51.2849C123.654 52.0616 123.47 52.7451 123.402 53.3355C123.343 53.9297 123.39 54.4548 123.543 54.9106C123.699 55.3569 123.948 55.7398 124.289 56.0592C124.643 56.3729 125.091 56.6347 125.633 56.8446C126.43 57.1537 127.169 57.2751 127.85 57.2088C128.545 57.1367 129.195 56.9477 129.798 56.642L130.529 59.2883C130.1 59.5516 129.574 59.772 128.952 59.9494C128.333 60.1172 127.635 60.1826 126.858 60.1456C126.09 60.1124 125.249 59.9184 124.333 59.5635Z" fill="black"/>
<path d="M139.806 63.5749L150.589 46.4191L153.697 48.3795L141.054 68.495L138.231 66.7328L139.806 63.5749ZM134.288 55.1375L134.987 54.0243C135.717 52.8632 136.455 51.9264 137.201 51.2142C137.952 50.4932 138.71 49.978 139.476 49.6685C140.251 49.3646 141.016 49.2625 141.773 49.362C142.53 49.4616 143.278 49.7441 144.016 50.2097C144.736 50.6641 145.257 51.2182 145.579 51.8722C145.906 52.5174 146.068 53.2475 146.065 54.0625C146.062 54.8774 145.912 55.7581 145.615 56.7047C145.332 57.6482 144.918 58.6428 144.373 59.6886L143.401 61.2339C142.7 62.1326 141.99 62.9162 141.272 63.5848C140.559 64.2447 139.839 64.7477 139.112 65.094C138.386 65.4402 137.654 65.6066 136.917 65.5931C136.195 65.5765 135.478 65.3438 134.767 64.895C134.029 64.4295 133.457 63.8675 133.051 63.2092C132.654 62.5565 132.425 61.8146 132.364 60.9835C132.312 60.158 132.442 59.2588 132.756 58.286C133.075 57.3046 133.585 56.255 134.288 55.1375ZM138.095 55.9848L137.395 57.0979C136.94 57.8226 136.592 58.4749 136.352 59.0548C136.111 59.6347 135.982 60.1566 135.964 60.6205C135.951 61.0757 136.052 61.4872 136.268 61.855C136.489 62.2141 136.827 62.5367 137.28 62.8227C137.849 63.1817 138.4 63.3337 138.931 63.2787C139.471 63.2293 139.987 63.0306 140.479 62.6825C140.985 62.3313 141.463 61.8885 141.91 61.354L143.828 58.3026C144.074 57.8119 144.254 57.328 144.368 56.851C144.487 56.3652 144.533 55.9066 144.506 55.4751C144.479 55.0437 144.363 54.6468 144.156 54.2846C143.963 53.9193 143.662 53.6076 143.253 53.3496C142.8 53.0636 142.358 52.9069 141.928 52.8795C141.504 52.8435 141.084 52.9384 140.669 53.1642C140.259 53.3813 139.838 53.7253 139.406 54.1962C138.987 54.6639 138.551 55.2601 138.095 55.9848Z" fill="black"/>
</g>
<g opacity="0.5">
<path d="M138.827 171.197C139.018 171.493 139.274 171.699 139.596 171.813C139.915 171.941 140.337 171.998 140.861 171.982C141.385 171.967 142.047 171.887 142.849 171.742C143.682 171.59 144.441 171.485 145.125 171.429C145.809 171.372 146.43 171.393 146.99 171.49C147.555 171.596 148.068 171.804 148.528 172.113C148.988 172.422 149.401 172.86 149.767 173.428C150.143 174.012 150.382 174.624 150.483 175.262C150.584 175.901 150.549 176.54 150.378 177.181C150.213 177.83 149.907 178.445 149.463 179.027C149.023 179.618 148.439 180.147 147.71 180.615C146.682 181.275 145.682 181.651 144.711 181.744C143.737 181.851 142.843 181.697 142.029 181.282C141.211 180.882 140.527 180.253 139.976 179.398L143.047 177.427C143.277 177.785 143.551 178.065 143.869 178.269C144.192 178.481 144.546 178.587 144.931 178.586C145.321 178.595 145.727 178.464 146.149 178.193C146.536 177.945 146.813 177.662 146.981 177.344C147.146 177.041 147.215 176.725 147.189 176.396C147.161 176.081 147.051 175.776 146.859 175.479C146.719 175.261 146.555 175.094 146.369 174.979C146.183 174.864 145.948 174.787 145.662 174.749C145.382 174.719 145.037 174.724 144.629 174.764C144.211 174.81 143.696 174.888 143.083 174.997C141.889 175.246 140.85 175.376 139.964 175.39C139.078 175.403 138.308 175.249 137.655 174.929C137.001 174.608 136.424 174.06 135.923 173.283C135.518 172.654 135.271 172.011 135.182 171.352C135.084 170.7 135.137 170.049 135.34 169.4C135.534 168.757 135.874 168.138 136.36 167.542C136.842 166.961 137.457 166.431 138.204 165.952C139.32 165.235 140.405 164.847 141.459 164.787C142.511 164.741 143.459 164.941 144.304 165.385C145.15 165.83 145.823 166.44 146.323 167.217L143.358 169.121C142.971 168.579 142.572 168.219 142.158 168.04C141.736 167.867 141.319 167.826 140.906 167.918C140.499 168.019 140.115 168.185 139.755 168.417C139.325 168.693 139.005 168.978 138.797 169.272C138.595 169.575 138.499 169.889 138.511 170.215C138.513 170.546 138.619 170.874 138.827 171.197Z" fill="black"/>
<path d="M126.366 172.137C127.389 171.725 128.359 171.507 129.279 171.482C130.202 171.467 131.061 171.644 131.857 172.014C132.657 172.394 133.38 172.96 134.026 173.713C134.676 174.476 135.236 175.436 135.707 176.594L136.313 178.086C136.846 179.397 137.154 180.587 137.236 181.656C137.314 182.738 137.204 183.695 136.907 184.527C136.611 185.359 136.152 186.072 135.533 186.666C134.903 187.265 134.15 187.74 133.274 188.093C132.28 188.493 131.354 188.682 130.496 188.66C129.637 188.638 128.845 188.406 128.121 187.962C127.388 187.523 126.72 186.884 126.119 186.046C125.508 185.212 124.958 184.192 124.468 182.987L123.786 181.307L134.041 177.18L135.068 179.706L128.172 182.481L128.318 182.84C128.625 183.54 128.96 184.113 129.321 184.557C129.687 185.011 130.1 185.301 130.559 185.428C131.013 185.569 131.542 185.517 132.146 185.274C132.584 185.098 132.94 184.86 133.215 184.56C133.49 184.26 133.665 183.883 133.742 183.43C133.808 182.98 133.776 182.425 133.644 181.766C133.516 181.116 133.271 180.346 132.909 179.456L132.303 177.964C131.988 177.188 131.653 176.56 131.299 176.08C130.936 175.602 130.543 175.249 130.12 175.018C129.702 174.797 129.26 174.685 128.794 174.683C128.323 174.694 127.82 174.808 127.284 175.024C126.495 175.341 125.876 175.757 125.428 176.271C124.974 176.799 124.633 177.382 124.405 178.019L122.066 176.572C122.197 176.085 122.427 175.564 122.756 175.009C123.09 174.462 123.551 173.937 124.139 173.433C124.718 172.933 125.46 172.501 126.366 172.137Z" fill="black"/>
<path d="M119.229 188.763L116.22 175.629L119.815 174.824L123.544 191.102L120.119 191.87L119.229 188.763ZM115.948 192.915L115.17 189.451C115.388 189.455 115.616 189.436 115.854 189.393C116.085 189.362 116.314 189.322 116.54 189.271C117.034 189.16 117.441 188.979 117.762 188.728C118.083 188.477 118.33 188.163 118.503 187.787C118.676 187.411 118.783 186.981 118.824 186.497C118.854 186.016 118.819 185.486 118.719 184.907L119.484 184.705C119.718 185.728 119.853 186.694 119.888 187.603C119.926 188.523 119.855 189.345 119.675 190.071C119.487 190.809 119.184 191.42 118.765 191.904C118.346 192.388 117.803 192.705 117.134 192.855C116.949 192.896 116.734 192.923 116.488 192.936C116.242 192.949 116.062 192.942 115.948 192.915Z" fill="black"/>
<path d="M105.372 193.951L105.105 191.192L113.483 190.433L113.751 193.192L105.372 193.951ZM111.857 197.462L108.196 197.794L106.643 181.774C106.593 181.263 106.498 180.879 106.356 180.624C106.215 180.369 106.034 180.205 105.815 180.132C105.596 180.059 105.344 180.036 105.06 180.061C104.85 180.08 104.646 180.114 104.449 180.163C104.243 180.223 104.094 180.273 104.002 180.312L103.723 177.43C103.986 177.303 104.293 177.187 104.644 177.083C104.995 176.979 105.423 176.904 105.927 176.859C106.674 176.791 107.357 176.884 107.976 177.137C108.595 177.39 109.106 177.844 109.509 178.498C109.912 179.152 110.169 180.052 110.28 181.197L111.857 197.462Z" fill="black"/>
<path d="M98.2262 193.901L98.3662 177.254L102.061 177.313L101.921 193.96L98.2262 193.901ZM102.075 198.317C102.07 198.891 101.886 199.365 101.524 199.739C101.161 200.123 100.657 200.31 100.012 200.3C99.3674 200.289 98.8668 200.092 98.5105 199.707C98.1542 199.321 97.9785 198.842 97.9833 198.267C97.9881 197.703 98.1718 197.234 98.5344 196.86C98.8971 196.486 99.4009 196.305 100.046 196.315C100.691 196.325 101.191 196.523 101.548 196.908C101.904 197.293 102.08 197.763 102.075 198.317Z" fill="black"/>
<path d="M90.9959 176.548L94.6626 177.02L92.4444 195.109C92.2934 196.341 91.9569 197.347 91.435 198.127C90.9012 198.917 90.2194 199.48 89.3894 199.818C88.5488 200.155 87.5935 200.254 86.5234 200.116C86.1982 200.075 85.8813 200.008 85.5728 199.917C85.2631 199.835 84.9722 199.731 84.7002 199.603L85.1345 196.713C85.2764 196.772 85.4562 196.826 85.6741 196.875C85.8814 196.922 86.0847 196.959 86.2841 196.984C86.7457 197.044 87.1516 196.993 87.5018 196.831C87.852 196.669 88.1347 196.406 88.35 196.041C88.5653 195.675 88.7078 195.208 88.7777 194.638L90.9959 176.548ZM86.2008 192.71L86.5378 189.962L95.1144 191.064L94.7775 193.812L86.2008 192.71Z" fill="black"/>
<path d="M78.7363 190.972L82.6804 174.799L86.2666 175.69L82.3225 191.863L78.7363 190.972ZM81.4756 196.139C81.3396 196.697 81.0521 197.117 80.6133 197.399C80.1721 197.691 79.6385 197.76 79.0126 197.604C78.3867 197.449 77.9443 197.143 77.6853 196.688C77.4263 196.232 77.3649 195.726 77.501 195.168C77.6346 194.62 77.9209 194.205 78.3597 193.923C78.7984 193.64 79.3308 193.577 79.9567 193.733C80.5826 193.888 81.0251 194.194 81.284 194.649C81.543 195.104 81.6069 195.601 81.4756 196.139Z" fill="black"/>
<path d="M74.5266 171.589C75.5534 172.006 76.4083 172.525 77.0913 173.146C77.7705 173.777 78.2699 174.501 78.5895 175.318C78.9054 176.145 79.0355 177.052 78.9799 178.038C78.9205 179.034 78.6587 180.109 78.1947 181.262L77.5965 182.749C77.0712 184.055 76.4671 185.118 75.7843 185.938C75.0879 186.764 74.3432 187.371 73.5501 187.759C72.7571 188.146 71.9295 188.337 71.0674 188.33C70.1955 188.32 69.3195 188.136 68.4394 187.778C67.442 187.373 66.6398 186.864 66.0329 186.252C65.426 185.639 65.0144 184.923 64.7981 184.104C64.5721 183.28 64.5325 182.36 64.6796 181.344C64.8169 180.325 65.1271 179.214 65.6103 178.013L66.2833 176.341L76.5806 180.523L75.5682 183.04L68.6447 180.227L68.5009 180.585C68.2367 181.298 68.0812 181.939 68.0344 182.507C67.9838 183.086 68.0808 183.58 68.3255 183.99C68.5565 184.405 68.9752 184.736 69.5815 184.982C70.0216 185.161 70.4453 185.239 70.8528 185.216C71.2602 185.193 71.6493 185.046 72.0199 184.775C72.3808 184.5 72.7426 184.082 73.1054 183.519C73.4643 182.967 73.8221 182.247 74.1787 181.361L74.777 179.874C75.0876 179.102 75.2818 178.421 75.3596 177.832C75.4277 177.239 75.389 176.713 75.2434 176.255C75.094 175.806 74.8515 175.419 74.5157 175.094C74.1664 174.775 73.7228 174.506 73.1849 174.287C72.3928 173.966 71.6556 173.832 70.9734 173.888C70.2776 173.949 69.6254 174.128 69.017 174.424L68.3287 171.766C68.7619 171.509 69.2909 171.297 69.9158 171.13C70.5369 170.972 71.2357 170.917 72.0122 170.967C72.779 171.012 73.6171 171.22 74.5266 171.589Z" fill="black"/>
<path d="M59.1209 167.336L48.0673 184.32L44.9912 182.311L57.9518 162.396L60.7459 164.203L59.1209 167.336ZM64.5048 175.86L63.7875 176.962C63.0394 178.111 62.2869 179.036 61.53 179.737C60.7675 180.446 60.001 180.949 59.2305 181.246C58.4511 181.538 57.6838 181.628 56.9286 181.517C56.1733 181.405 55.4304 181.111 54.6999 180.634C53.9869 180.168 53.4749 179.606 53.1637 178.947C52.847 178.296 52.6966 177.564 52.7126 176.749C52.7286 175.934 52.8926 175.056 53.2045 174.114C53.502 173.175 53.9318 172.187 54.4939 171.15L55.4895 169.62C56.2051 168.732 56.9273 167.96 57.6561 167.303C58.3792 166.654 59.1068 166.162 59.839 165.828C60.5711 165.493 61.3053 165.338 62.0415 165.363C62.7633 165.391 63.4762 165.635 64.1804 166.095C64.9109 166.572 65.4738 167.143 65.869 167.808C66.2555 168.467 66.4727 169.212 66.5208 170.044C66.56 170.871 66.4152 171.768 66.0864 172.736C65.752 173.712 65.2248 174.753 64.5048 175.86ZM60.7114 174.952L61.4286 173.85C61.8955 173.133 62.2537 172.486 62.5032 171.91C62.7527 171.334 62.8904 170.814 62.9161 170.351C62.9362 169.896 62.8413 169.483 62.6313 169.111C62.4157 168.749 62.0835 168.421 61.6346 168.128C61.0713 167.76 60.5237 167.599 59.9916 167.646C59.4507 167.687 58.9316 167.877 58.4342 168.217C57.9224 168.561 57.4384 168.996 56.9823 169.523L55.0163 172.544C54.7621 173.031 54.5745 173.512 54.4534 173.987C54.3267 174.471 54.2733 174.929 54.2933 175.361C54.3132 175.793 54.4238 176.191 54.625 176.557C54.8117 176.925 55.1075 177.242 55.5124 177.506C55.9613 177.799 56.4004 177.963 56.8298 177.997C57.2535 178.04 57.6747 177.951 58.0933 177.732C58.5063 177.522 58.9328 177.184 59.3728 176.72C59.7983 176.259 60.2445 175.67 60.7114 174.952Z" fill="black"/>
</g>
</svg>
