<svg width="254" height="151" viewBox="0 0 254 151" fill="none" xmlns="http://www.w3.org/2000/svg">
<path d="M92.6123 88.8658C58.1406 81.0433 34.3203 65.4886 34.3203 47.6158C34.3203 21.8706 83.0471 1 143.155 1C199.025 1 245.063 19.0321 251.276 42.25M235.478 55.9999C237.895 55.9999 239.86 56.5616 241.28 57.2127C242.856 57.9361 244.558 58.6123 246.288 58.4893L251.142 58.1442C252.188 58.0698 253 57.1988 253 56.1493V46.25C253 44.0408 251.209 42.25 249 42.25H226.968C222.55 42.25 218.968 45.8317 218.968 50.25V56.689C218.968 58.3458 220.311 59.689 221.968 59.689H223.904C225.49 59.689 226.995 59.0246 228.339 58.1807C230.076 57.0894 232.608 55.9999 235.478 55.9999Z" stroke="#1F1111" stroke-linecap="round" stroke-linejoin="round"/>
<path d="M235.816 123.583C216.495 138.567 181.77 148.561 142.144 148.561C81.4782 148.561 32.2988 125.137 32.2988 96.2435V85.5118C32.2988 80.4813 33.3097 79.1399 33.9836 78.1338" stroke="#1F1111" stroke-linecap="round" stroke-linejoin="round"/>
<path d="M32.2988 85.5122C32.2988 111.443 81.4782 132.463 142.144 132.463C180.71 132.463 214.634 123.968 234.232 111.117C234.908 110.674 235.816 111.154 235.816 111.962V123.744" stroke="#1F1111" stroke-linecap="round" stroke-linejoin="round"/>
<path d="M105.417 75.581C80.3542 69.9935 63.2988 58.9653 63.2988 46.274C63.2988 27.9374 98.901 13.0728 142.819 13.0728C182.919 13.0728 216.61 24.8106 222.223 42.9203" stroke="#1F1111" stroke-linecap="round" stroke-linejoin="round"/>
<path d="M218.969 45.0509C210.882 27.8297 181.626 16.4272 142.863 16.4272C100.409 16.4272 65.9941 30.9747 65.9941 48.0925C65.9941 54.6015 70.9702 60.6418 79.4721 65.6288" stroke="#1F1111" stroke-linecap="round" stroke-linejoin="round"/>
<path d="M218.968 57.3752C210.881 40.0027 181.625 28.5 142.862 28.5C105.535 28.5 74.4214 39.8454 67.4521 54.3232" stroke="#1F1111" stroke-linecap="round" stroke-linejoin="round"/>
<path d="M68.9131 56.3355C78.2014 43.1653 107.768 33.1953 142.806 33.1953C180.334 33.1953 208.957 43.9482 218.11 60.3599" stroke="#1F1111" stroke-linecap="round" stroke-linejoin="round"/>
<path d="M219.642 78.4693C211.646 61.117 182.046 49.2925 143.719 49.2925C116.227 49.2925 92.1441 55.5802 78.7979 64.7652" stroke="#1F1111" stroke-linecap="round" stroke-linejoin="round"/>
<path d="M220.989 72.768C219.68 69.8513 217.505 67.0035 214.587 64.299M74.7539 61.3656C75.9832 60.4324 77.2183 59.5454 78.4603 58.7024M87.221 53.5236C90.3067 51.9552 93.4467 50.6139 96.6555 49.4697M107.775 46.312C111.801 45.4329 115.949 44.7852 120.242 44.3183M132.035 43.467C135.713 43.3174 139.5 43.2559 143.408 43.2559C144.338 43.2559 145.264 43.264 146.187 43.2802M157.306 43.8689C161.705 44.2595 165.985 44.8295 170.11 45.5584M180.893 47.9084C184.182 48.769 187.334 49.7335 190.327 50.7888" stroke="#1F1111" stroke-linecap="round" stroke-linejoin="round"/>
<path d="M217.284 80.1461C209.442 62.7939 181.409 51.3047 143.819 51.3047C116.856 51.3047 93.2361 57.5924 80.1465 66.7774" stroke="#1F1111" stroke-linecap="round" stroke-linejoin="round"/>
<path d="M216.946 92.2194C209.06 74.8671 180.527 63.3779 142.723 63.3779C123.131 63.3779 105.294 66.6602 91.9385 71.946" stroke="#1F1111" stroke-linecap="round" stroke-linejoin="round"/>
<path d="M252.326 88.2139V77.4633L251.652 77.1279L243.228 77.4633C242.442 78.5812 239.791 80.884 235.478 81.1523C231.165 81.4206 226.942 79.6991 225.37 78.8048H221.283C219.074 78.8048 217.283 80.5956 217.283 82.8048V89.8915C217.283 92.7845 219.731 95.0737 222.617 94.8803L247.66 93.2027C250.286 93.0268 252.326 90.8456 252.326 88.2139Z" stroke="#1F1111" stroke-linecap="round" stroke-linejoin="round"/>
<path d="M245.924 71.4268L251.989 76.7926" stroke="black" stroke-linecap="round" stroke-linejoin="round"/>
<path d="M244.575 59.3535H244.84C247.641 59.3535 249.574 62.1572 248.579 64.7749L245.923 71.762" stroke="#1F1111" stroke-linecap="round" stroke-linejoin="round"/>
<path d="M221.664 60.0244H221.568C218.721 60.0244 216.786 62.9127 217.868 65.5451L221.664 74.7805L224.359 78.8049" stroke="#1F1111" stroke-linecap="round" stroke-linejoin="round"/>
<path d="M221.647 59.6887C220.376 61.7357 219.643 64.1483 219.643 66.7314C219.643 74.1401 225.677 80.146 233.12 80.146C240.564 80.146 246.598 74.1401 246.598 66.7314C246.598 63.7115 245.596 60.9246 243.904 58.6826" stroke="#1F1111" stroke-linecap="round" stroke-linejoin="round"/>
<path d="M73.4062 60.6953C73.8555 59.801 75.091 58.0123 76.4388 58.0123C78.1235 58.0123 80.1452 59.0184 82.8408 57.3416C85.5364 55.6648 89.2428 49.6281 92.9492 48.9575C95.0459 48.5781 98.6774 50.9696 102.384 49.6281C106.09 48.2867 110.134 42.9818 114.514 42.5855C120.242 42.0672 119.231 45.9391 124.959 45.9391C130.687 45.9391 132.372 40.9087 138.774 40.9087C145.176 40.9087 146.524 45.2684 152.926 44.5977C159.328 43.927 158.317 41.0577 163.034 41.5794C167.752 42.1011 172.469 48.2867 176.512 48.6221C180.556 48.9575 182.577 45.6038 186.284 47.616C189.99 49.6282 193.36 54.994 198.077 55.3294C202.794 55.6648 202.457 51.9758 204.479 53.6526C206.501 55.3294 207.175 60.0245 210.207 62.0367C212.633 63.6465 215.935 64.9432 217.283 65.3904" stroke="#1F1111" stroke-linecap="round" stroke-linejoin="round"/>
<path d="M91.602 92.2195C82.9537 90.5427 63.2984 84.8415 50.1574 76.4573C37.8108 68.58 33.5346 58.7947 32.2991 55.3293C30.6147 44.933 34.6578 40.5732 37.3536 36.5488" stroke="#1F1111" stroke-linecap="round" stroke-linejoin="round"/>
<path d="M91.9996 106.305C83.3513 104.628 63.696 98.927 50.555 90.5429C38.2084 82.6656 33.9322 72.8803 32.6968 69.4148C31.625 64.049 31.6251 57.0063 31.625 52.9819" stroke="#1F1111" stroke-linecap="round" stroke-linejoin="round"/>
<path d="M104.065 95.2783L103.732 95.5733C103.507 94.9026 104.082 90.7422 100.699 93.2258C96.6956 96.1653 96.0942 100.939 96.3188 102.616L93.2803 105.424C92.6399 106.016 91.6016 105.562 91.6016 104.69V95.0423C91.6016 91.9403 92.8028 88.9587 94.9534 86.7231L105.044 76.234C105.668 75.5852 106.764 76.027 106.764 76.9273V89.2866C106.764 91.5783 105.781 93.7599 104.065 95.2783Z" stroke="#1F1111" stroke-linecap="round" stroke-linejoin="round"/>
<path d="M203.469 109.658C179.658 115.024 124.425 118.562 87.8961 109.658C38.3647 97.5852 33.9844 82.1584 33.9844 75.7864V73.1035" stroke="#1F1111" stroke-linecap="round" stroke-linejoin="round"/>
<path d="M103.732 95.2378C105.534 96.0062 109.807 97.4788 114.515 98.2561M142.481 99.9329C135.843 99.9329 129.194 99.5229 123.275 98.9033M203.132 109.994C203.244 109.547 203.402 108.988 203.132 107.646C202.863 106.305 200.774 104.963 197.741 102.951L186.285 96.2439C185.776 96.3422 185.213 96.4441 184.6 96.5487M155.285 99.5687C160.842 99.2724 166.277 98.8218 171.122 98.3174" stroke="#1F1111" stroke-linecap="round" stroke-linejoin="round"/>
<path d="M33.9844 79.8105C33.7598 82.8288 33.3105 84.7572 35.6692 88.8654C38.3649 93.5605 39.0854 88.462 42.0712 90.5422C45.057 92.6225 45.1037 93.2252 48.1362 97.9203C51.1687 102.615 51.8426 108.317 57.2338 108.317C62.625 108.317 62.9619 104.292 68.69 108.987C74.4181 113.682 75.092 118.713 84.1896 118.713C93.2872 118.713 95.3089 114.353 100.363 117.036C105.417 119.719 107.439 124.75 113.841 124.75C120.243 124.75 121.254 120.39 129.678 120.39C138.101 120.39 138.438 127.097 149.895 126.762C161.351 126.426 160.34 120.725 168.09 121.061C175.84 121.396 175.166 124.414 183.252 123.743C191.339 123.073 191.676 118.378 195.719 117.707C198.954 117.17 200.661 118.154 201.111 118.713C202.009 117.595 203.806 114.957 203.806 113.347C203.806 111.737 203.806 109.77 203.806 108.987" stroke="#1F1111" stroke-linecap="round" stroke-linejoin="round"/>
<path d="M136.431 108.317C137.8 102.548 143.006 98.2559 149.22 98.2559C154.942 98.2559 159.809 101.895 161.613 106.975" stroke="#1F1111" stroke-linecap="round" stroke-linejoin="round"/>
<path d="M105.754 107.646C107.036 101.878 111.913 97.5854 117.733 97.5854C123.092 97.5854 127.651 101.225 129.34 106.305" stroke="#1F1111" stroke-linecap="round" stroke-linejoin="round"/>
<path d="M166.404 105.634C167.796 99.8654 173.091 95.5728 179.41 95.5728C185.228 95.5728 190.178 99.2123 192.012 104.292" stroke="#1F1111" stroke-linecap="round" stroke-linejoin="round"/>
<path d="M111.818 99.2021C106.336 99.9136 102.384 101.924 102.384 104.293C102.384 107.256 108.569 109.659 116.199 109.659C123.828 109.659 130.013 107.256 130.013 104.293C130.013 102.561 127.901 101.021 124.622 100.039" stroke="#1F1111" stroke-linecap="round" stroke-linejoin="round"/>
<path d="M141.133 101.105C137.285 102.058 134.731 103.73 134.731 105.634C134.731 108.598 140.917 111 148.546 111C156.176 111 162.361 108.598 162.361 105.634C162.361 103.962 160.393 102.469 157.307 101.485" stroke="#1F1111" stroke-linecap="round" stroke-linejoin="round"/>
<path d="M168.763 100.811C166.866 101.673 165.73 102.766 165.73 103.956C165.73 106.735 171.916 108.987 179.545 108.987C187.175 108.987 193.36 106.735 193.36 103.956C193.36 102.697 192.09 101.546 189.991 100.664M224.696 108.987C218.631 111.893 204.951 118.176 198.751 120.054C192.552 121.932 186.509 123.296 184.263 123.743M224.696 108.987L235.479 109.993M224.696 108.987C223.461 108.987 220.81 108.724 218.968 108.316C215.936 107.646 213.353 105.186 211.892 103.286L207.162 101.549C205.879 101.078 204.46 101.152 203.233 101.755L198.751 103.956" stroke="#1F1111" stroke-linecap="round" stroke-linejoin="round"/>
<path d="M203.131 107.982L211.891 103.622" stroke="#1F1111" stroke-linecap="round" stroke-linejoin="round"/>
<path d="M184.263 123.744L150.905 126.762L114.178 125.085C101.494 123.841 70.7115 118.043 54.538 107.982C46.9928 101.976 42.8141 98.2667 35.6689 89.5366" stroke="#1F1111" stroke-linecap="round" stroke-linejoin="round"/>
<line x1="216.447" y1="91.0488" x2="216.447" y2="79.3049" stroke="black" stroke-linecap="round"/>
<line x1="214.928" y1="88.083" x2="214.928" y2="76.3391" stroke="black" stroke-linecap="round"/>
<line x1="212.541" y1="84.5186" x2="212.541" y2="72.7747" stroke="black" stroke-linecap="round"/>
<line x1="210.154" y1="82.1431" x2="210.154" y2="70.3992" stroke="black" stroke-linecap="round"/>
<line x1="207.687" y1="80.3174" x2="207.687" y2="68.5735" stroke="black" stroke-linecap="round"/>
<line x1="204.991" y1="78.3047" x2="204.991" y2="66.5608" stroke="black" stroke-linecap="round"/>
<line x1="202.295" y1="76.293" x2="202.295" y2="65.2198" stroke="black" stroke-linecap="round"/>
<line x1="199.599" y1="74.9512" x2="199.599" y2="63.2073" stroke="black" stroke-linecap="round"/>
<line x1="194.208" y1="72.2686" x2="194.208" y2="60.5247" stroke="black" stroke-linecap="round"/>
<line x1="188.818" y1="70.2559" x2="188.818" y2="58.512" stroke="black" stroke-linecap="round"/>
<line x1="183.426" y1="68.2441" x2="183.426" y2="57.171" stroke="black" stroke-linecap="round"/>
<line x1="178.035" y1="66.9028" x2="178.035" y2="55.159" stroke="black" stroke-linecap="round"/>
<line x1="85.7109" y1="68.915" x2="85.7109" y2="63.8784" stroke="black" stroke-linecap="round"/>
<line x1="83.6895" y1="68.2441" x2="83.6895" y2="65.2197" stroke="black" stroke-linecap="round"/>
<line x1="172.644" y1="65.5615" x2="172.644" y2="54.4884" stroke="black" stroke-linecap="round"/>
<line x1="167.927" y1="64.8906" x2="167.927" y2="53.8175" stroke="black" stroke-linecap="round"/>
<line x1="161.861" y1="64.2197" x2="161.861" y2="52.4758" stroke="black" stroke-linecap="round"/>
<line x1="149.731" y1="62.8784" x2="149.731" y2="51.8053" stroke="black" stroke-linecap="round"/>
<line x1="129.515" y1="63.5488" x2="129.515" y2="52.4757" stroke="black" stroke-linecap="round"/>
<line x1="109.298" y1="66.2319" x2="109.298" y2="55.8295" stroke="black" stroke-linecap="round"/>
<path d="M105.417 68.0737L105.417 56.0006" stroke="black" stroke-linecap="round"/>
<line x1="101.885" y1="68.2441" x2="101.885" y2="57.171" stroke="black" stroke-linecap="round"/>
<line x1="98.5146" y1="68.915" x2="98.5146" y2="58.5126" stroke="black" stroke-linecap="round"/>
<line x1="95.8193" y1="69.5854" x2="95.8193" y2="59.183" stroke="black" stroke-linecap="round"/>
<line x1="93.124" y1="70.9268" x2="93.124" y2="60.5243" stroke="black" stroke-linecap="round"/>
<line x1="90.4277" y1="70.9268" x2="90.4277" y2="61.8658" stroke="black" stroke-linecap="round"/>
<line x1="87.7334" y1="69.5854" x2="87.7334" y2="62.5367" stroke="black" stroke-linecap="round"/>
<line x1="214.928" y1="50.3926" x2="214.928" y2="39.5134" stroke="black" stroke-linecap="round"/>
<line x1="217.315" y1="52.9624" x2="217.315" y2="41.8892" stroke="black" stroke-linecap="round"/>
<line x1="212.401" y1="48.1216" x2="212.401" y2="36.3777" stroke="black" stroke-linecap="round"/>
<line x1="210.154" y1="46.5054" x2="210.154" y2="34.7615" stroke="black" stroke-linecap="round"/>
<line x1="207.686" y1="44.0972" x2="207.686" y2="33.024" stroke="black" stroke-linecap="round"/>
<line x1="204.989" y1="42.0854" x2="204.989" y2="31.0123" stroke="black" stroke-linecap="round"/>
<line x1="202.294" y1="40.7441" x2="202.294" y2="29.671" stroke="black" stroke-linecap="round"/>
<line x1="199.599" y1="39.4023" x2="199.599" y2="27.6585" stroke="black" stroke-linecap="round"/>
<line x1="194.206" y1="36.7192" x2="194.206" y2="25.6461" stroke="black" stroke-linecap="round"/>
<line x1="188.816" y1="34.7075" x2="188.816" y2="23.6344" stroke="black" stroke-linecap="round"/>
<line x1="183.425" y1="32.6953" x2="183.425" y2="21.6222" stroke="black" stroke-linecap="round"/>
<line x1="178.033" y1="31.3535" x2="178.033" y2="20.2804" stroke="black" stroke-linecap="round"/>
<line x1="84.834" y1="38.7075" x2="84.834" y2="27.6344" stroke="black" stroke-linecap="round"/>
<line x1="82.4463" y1="39.895" x2="82.4463" y2="28.8219" stroke="black" stroke-linecap="round"/>
<line x1="80.0596" y1="41.0835" x2="80.0596" y2="30.0103" stroke="black" stroke-linecap="round"/>
<line x1="77.6719" y1="43.459" x2="77.6719" y2="32.3858" stroke="black" stroke-linecap="round"/>
<line x1="75.2852" y1="44.647" x2="75.2852" y2="33.5738" stroke="black" stroke-linecap="round"/>
<line x1="72.8984" y1="47.0229" x2="72.8984" y2="35.9498" stroke="black" stroke-linecap="round"/>
<line x1="70.5107" y1="49.3984" x2="70.5107" y2="38.3253" stroke="black" stroke-linecap="round"/>
<line x1="68.124" y1="51.5806" x2="68.124" y2="41.8893" stroke="black" stroke-linecap="round"/>
<line x1="172.643" y1="30.6831" x2="172.643" y2="19.6099" stroke="black" stroke-linecap="round"/>
<line x1="167.925" y1="30.0122" x2="167.925" y2="18.939" stroke="black" stroke-linecap="round"/>
<line x1="161.86" y1="28.6709" x2="161.86" y2="17.5977" stroke="black" stroke-linecap="round"/>
<line x1="149.729" y1="28" x2="149.729" y2="16.9268" stroke="black" stroke-linecap="round"/>
<line x1="129.513" y1="28.6709" x2="129.513" y2="17.5977" stroke="black" stroke-linecap="round"/>
<line x1="109.296" y1="31.3535" x2="109.296" y2="20.2804" stroke="black" stroke-linecap="round"/>
<path d="M105.416 32.5244L105.416 20.4513" stroke="black" stroke-linecap="round"/>
<line x1="101.883" y1="32.6953" x2="101.883" y2="21.6222" stroke="black" stroke-linecap="round"/>
<line x1="98.5137" y1="34.0366" x2="98.5137" y2="22.9635" stroke="black" stroke-linecap="round"/>
<line x1="95.8184" y1="34.7075" x2="95.8184" y2="23.6344" stroke="black" stroke-linecap="round"/>
<line x1="93.1221" y1="35.3779" x2="93.1221" y2="24.3048" stroke="black" stroke-linecap="round"/>
<line x1="90.4268" y1="36.7192" x2="90.4268" y2="25.6461" stroke="black" stroke-linecap="round"/>
<line x1="87.7314" y1="38.061" x2="87.7314" y2="26.3171" stroke="black" stroke-linecap="round"/>
<line x1="231.444" y1="112.841" x2="231.444" y2="125.927" stroke="black" stroke-linecap="round"/>
<line x1="0.5" y1="-0.5" x2="12.9146" y2="-0.5" transform="matrix(4.33124e-08 1 1 -4.41141e-08 234.524 111.477)" stroke="black" stroke-linecap="round"/>
<line x1="229.576" y1="114.854" x2="229.576" y2="127.268" stroke="black" stroke-linecap="round"/>
<line x1="227.555" y1="115.524" x2="227.555" y2="128.61" stroke="black" stroke-linecap="round"/>
<line x1="225.533" y1="116.866" x2="225.533" y2="129.951" stroke="black" stroke-linecap="round"/>
<line x1="222.838" y1="118.207" x2="222.838" y2="131.292" stroke="black" stroke-linecap="round"/>
<line x1="218.794" y1="119.548" x2="218.794" y2="133.304" stroke="black" stroke-linecap="round"/>
<line x1="214.751" y1="121.561" x2="214.751" y2="135.317" stroke="black" stroke-linecap="round"/>
<line x1="209.359" y1="122.903" x2="209.359" y2="137.33" stroke="black" stroke-linecap="round"/>
<line x1="203.295" y1="124.915" x2="203.295" y2="139.341" stroke="black" stroke-linecap="round"/>
<line x1="197.229" y1="126.927" x2="197.229" y2="141.354" stroke="black" stroke-linecap="round"/>
<line x1="189.816" y1="128.269" x2="189.816" y2="142.695" stroke="black" stroke-linecap="round"/>
<line x1="182.404" y1="129.61" x2="182.404" y2="144.707" stroke="black" stroke-linecap="round"/>
<line x1="55.0371" y1="114.183" x2="55.0371" y2="127.268" stroke="black" stroke-linecap="round"/>
<line x1="54.3633" y1="79.3047" x2="54.3633" y2="92.39" stroke="black" stroke-linecap="round"/>
<line x1="50.9941" y1="112.171" x2="50.9941" y2="124.586" stroke="black" stroke-linecap="round"/>
<line x1="50.3203" y1="77.2925" x2="50.3203" y2="89.7071" stroke="black" stroke-linecap="round"/>
<line x1="47.625" y1="109.488" x2="47.625" y2="122.574" stroke="black" stroke-linecap="round"/>
<line x1="46.9502" y1="74.6099" x2="46.9502" y2="87.6952" stroke="black" stroke-linecap="round"/>
<line x1="44.0596" y1="107.225" x2="44.0596" y2="119.639" stroke="black" stroke-linecap="round"/>
<line x1="44.2549" y1="72.5977" x2="44.2549" y2="85.0123" stroke="black" stroke-linecap="round"/>
<line x1="41.6729" y1="104.849" x2="41.6729" y2="116.593" stroke="black" stroke-linecap="round"/>
<line x1="41.6729" y1="70.3994" x2="41.6729" y2="82.1433" stroke="black" stroke-linecap="round"/>
<line x1="39.2861" y1="102.473" x2="39.2861" y2="113.546" stroke="black" stroke-linecap="round"/>
<line x1="39.5371" y1="68.5728" x2="39.5371" y2="79.6459" stroke="black" stroke-linecap="round"/>
<line x1="0.5" y1="-0.5" x2="11.5732" y2="-0.5" transform="matrix(4.76435e-08 1 1 -4.01038e-08 37.5928 65.1475)" stroke="black" stroke-linecap="round"/>
<line x1="0.5" y1="-0.5" x2="11.5731" y2="-0.5" transform="matrix(4.76436e-08 1 1 -4.01037e-08 37.5928 99.5977)" stroke="black" stroke-linecap="round"/>
<line x1="0.5" y1="-0.5" x2="11.5732" y2="-0.5" transform="matrix(5.65906e-08 1 1 -3.37633e-08 35.2051 61.584)" stroke="black" stroke-linecap="round"/>
<line x1="0.5" y1="-0.5" x2="11.5732" y2="-0.5" transform="matrix(4.76435e-08 1 1 -4.01037e-08 35.2051 94.8457)" stroke="black" stroke-linecap="round"/>
<line x1="59.7539" y1="116.866" x2="59.7539" y2="129.951" stroke="black" stroke-linecap="round"/>
<line x1="59.0801" y1="81.9878" x2="59.0801" y2="95.0731" stroke="black" stroke-linecap="round"/>
<line x1="174.317" y1="130.951" x2="174.317" y2="146.049" stroke="black" stroke-linecap="round"/>
<line x1="166.23" y1="131.622" x2="166.23" y2="146.72" stroke="black" stroke-linecap="round"/>
<line x1="141.97" y1="132.963" x2="141.97" y2="148.061" stroke="black" stroke-linecap="round"/>
<line x1="112.992" y1="130.951" x2="112.992" y2="146.049" stroke="black" stroke-linecap="round"/>
<line x1="90.7539" y1="127.598" x2="90.7539" y2="142.024" stroke="black" stroke-linecap="round"/>
<line x1="80.6455" y1="124.915" x2="80.6455" y2="139.341" stroke="black" stroke-linecap="round"/>
<line x1="79.9717" y1="89.3657" x2="79.9717" y2="103.122" stroke="black" stroke-linecap="round"/>
<line x1="71.8848" y1="122.231" x2="71.8848" y2="135.988" stroke="black" stroke-linecap="round"/>
<line x1="71.21" y1="86.6831" x2="71.21" y2="99.7685" stroke="black" stroke-linecap="round"/>
<line x1="65.1465" y1="119.548" x2="65.1465" y2="132.634" stroke="black" stroke-linecap="round"/>
<line x1="64.4717" y1="84" x2="64.4717" y2="97.0854" stroke="black" stroke-linecap="round"/>
<line x1="10.125" y1="113.549" x2="38" y2="113.549" stroke="#1F1111" stroke-linecap="round" stroke-dasharray="2 2"/>
<line x1="198.5" y1="93.0215" x2="215.375" y2="93.0215" stroke="#1F1111" stroke-linecap="round" stroke-dasharray="2 2"/>
<line x1="4.625" y1="109.444" x2="35.25" y2="109.444" stroke="#1F1111" stroke-linecap="round" stroke-dasharray="2 2"/>
<line x1="194.375" y1="88.9155" x2="212.625" y2="88.9155" stroke="#1F1111" stroke-linecap="round" stroke-dasharray="2 2"/>
<line x1="3.25" y1="105.338" x2="32.5" y2="105.338" stroke="#1F1111" stroke-linecap="round" stroke-dasharray="2 2"/>
<line x1="190.25" y1="84.8101" x2="209.875" y2="84.8101" stroke="#1F1111" stroke-linecap="round" stroke-dasharray="2 2"/>
<line x1="0.5" y1="101.233" x2="32.5" y2="101.233" stroke="#1F1111" stroke-linecap="round" stroke-dasharray="2 2"/>
<line x1="187.5" y1="80.7046" x2="209.875" y2="80.7046" stroke="#1F1111" stroke-linecap="round" stroke-dasharray="2 2"/>
<line x1="179.25" y1="76.5986" x2="201.625" y2="76.5986" stroke="#1F1111" stroke-linecap="round" stroke-dasharray="2 2"/>
<line x1="171" y1="72.4932" x2="193.375" y2="72.4932" stroke="#1F1111" stroke-linecap="round" stroke-dasharray="2 2"/>
<line x1="160" y1="68.3872" x2="182.375" y2="68.3872" stroke="#1F1111" stroke-linecap="round" stroke-dasharray="2 2"/>
<line x1="146.25" y1="65.6504" x2="168.625" y2="65.6504" stroke="#1F1111" stroke-linecap="round" stroke-dasharray="2 2"/>
<line x1="14.25" y1="117.655" x2="42.125" y2="117.655" stroke="#1F1111" stroke-linecap="round" stroke-dasharray="2 2"/>
<line x1="18.375" y1="121.761" x2="46.25" y2="121.761" stroke="#1F1111" stroke-linecap="round" stroke-dasharray="2 2"/>
<line x1="22.5" y1="125.866" x2="50.375" y2="125.866" stroke="#1F1111" stroke-linecap="round" stroke-dasharray="2 2"/>
<line x1="28" y1="129.972" x2="55.875" y2="129.972" stroke="#1F1111" stroke-linecap="round" stroke-dasharray="2 2"/>
<line x1="34.875" y1="134.078" x2="62.75" y2="134.078" stroke="#1F1111" stroke-linecap="round" stroke-dasharray="2 2"/>
<line x1="44.5" y1="138.183" x2="72.375" y2="138.183" stroke="#1F1111" stroke-linecap="round" stroke-dasharray="2 2"/>
<line x1="56.875" y1="142.289" x2="87.5" y2="142.289" stroke="#1F1111" stroke-linecap="round" stroke-dasharray="2 2"/>
<line x1="70.625" y1="146.395" x2="105.375" y2="146.395" stroke="#1F1111" stroke-linecap="round" stroke-dasharray="2 2"/>
<line x1="80.25" y1="150.5" x2="142.5" y2="150.5" stroke="#1F1111" stroke-linecap="round" stroke-dasharray="2 2"/>
</svg>
