<svg width="189" height="159" viewBox="0 0 189 159" fill="none" xmlns="http://www.w3.org/2000/svg">
  <g opacity="0.8">
    <line x1="35.0719" y1="137.145" x2="69.4698" y2="137.145" stroke="#1F1111" stroke-width="1.08904" stroke-linecap="round" stroke-dasharray="2.54 2.54"/>
    <path d="M38.7169 86.3002L46.9873 85.2399L48.6131 92.8034L51.6527 100.932L44.3719 105.951L40.06 112.384L44.3719 120.089L49.7441 126.875L55.4698 122.704L60.7713 114.363L66.8504 119.523L73.6364 123.057L71.233 133.943L72.0812 143.557L80.2103 146.101L88.622 147.02L90.1065 137.902L88.622 125.814L96.0442 124.542L103.608 121.361L109.192 132.459L116.119 139.669L123.895 134.085L130.398 127.228L125.097 117.968L116.119 109.839L120.573 101.639L123.471 92.8741L134.781 96.5498L144.677 96.055L145.949 85.2399L145.596 74.6368L135.982 72.0214L124.39 73.93L122.269 64.2458L118.381 55.4806L128.419 48.5533L134.215 40.495L128.136 32.578L121.209 25.6507L113.433 31.7298L107.001 41.9087L99.7906 37.3847L92.3685 34.6986L94.9132 22.8939L94.2063 13.4925L85.6532 13.0684L77.2414 14.1994L75.8277 23.5301L77.2414 34.6986L70.3141 37.1727L63.7402 41.5553L59.1455 32.0125L53.5612 26.7817L47.6235 32.7901L42.8875 39.6467L46.4925 46.7154L53.5612 53.1479L50.0976 60.358L47.9063 68.275L40.5548 65.7302L33.2033 66.3664L32.4258 74.9903V84.321L38.7169 86.3002Z" stroke="#1F1111" stroke-width="1.08904" stroke-linecap="round" stroke-linejoin="round"/>
    <path d="M112.536 80.0079C112.536 98.5365 99.8797 113.393 84.4525 113.393C69.0253 113.393 56.3687 98.5365 56.3687 80.0079C56.3687 61.4794 69.0253 46.6226 84.4525 46.6226C99.8797 46.6226 112.536 61.4794 112.536 80.0079Z" stroke="#1F1111" stroke-width="1.08904" stroke-linecap="round" stroke-linejoin="round"/>
    <path d="M102.957 104.381C98.6077 103.182 94.63 100.168 91.6309 95.7351C88.6313 91.3018 86.7825 85.7007 86.3747 79.754C85.9669 73.8077 87.0232 67.8538 89.3778 62.7722C91.7328 57.6898 94.8076 54.0172 98.9421 51.8047" stroke="#1F1111" stroke-width="1.08904" stroke-linecap="round" stroke-linejoin="round"/>
    <path d="M40.6953 65.7305H48.4002" stroke="#1F1111" stroke-width="1.08904" stroke-linecap="round" stroke-linejoin="round"/>
    <path d="M53.7734 26.5703L76.6761 30.4581" stroke="#1F1111" stroke-width="1.08904" stroke-linecap="round" stroke-linejoin="round"/>
    <path d="M94.2773 13.4922L120.078 20.2781L120.714 26.0038" stroke="#1F1111" stroke-width="1.08904" stroke-linecap="round" stroke-linejoin="round"/>
    <path d="M121.142 25.6504L144.468 31.0933L150.83 37.031L155.99 44.029L150.83 51.0271L142.136 56.8941L118.738 55.6924" stroke="#1F1111" stroke-width="1.08904" stroke-linecap="round" stroke-linejoin="round"/>
    <path d="M134.145 40.4238L155.492 43.8875" stroke="#1F1111" stroke-width="1.08904" stroke-linecap="round" stroke-linejoin="round"/>
    <path d="M142.344 57.1074L145.313 64.3175L147.08 71.1742" stroke="#1F1111" stroke-width="1.08904" stroke-linecap="round" stroke-linejoin="round"/>
    <path d="M136.121 72.0224L158.175 70.75L166.163 72.7292L166.517 82.6961L165.598 91.6027L144.321 96.1267" stroke="#1F1111" stroke-width="1.08904" stroke-linecap="round" stroke-linejoin="round"/>
    <path d="M145.523 74.566L166.023 72.7988" stroke="#1F1111" stroke-width="1.08904" stroke-linecap="round" stroke-linejoin="round"/>
    <path d="M144.324 95.9844L140.012 103.407" stroke="#1F1111" stroke-width="1.08904" stroke-linecap="round" stroke-linejoin="round"/>
    <path d="M116.332 109.699L139.942 103.549L148.141 110.476L152.736 118.04L146.586 124.543L139.942 129.279L116.403 139.67" stroke="#1F1111" stroke-width="1.08904" stroke-linecap="round" stroke-linejoin="round"/>
    <path d="M130.258 127.44L152.312 118.109" stroke="#1F1111" stroke-width="1.08904" stroke-linecap="round" stroke-linejoin="round"/>
    <path d="M88.5508 147.02L113.009 136.912" stroke="#1F1111" stroke-width="1.08904" stroke-linecap="round" stroke-linejoin="round"/>
    <path d="M50.0977 126.733L70.1728 121.502" stroke="#1F1111" stroke-width="1.08904" stroke-linecap="round" stroke-linejoin="round"/>
    <line x1="56.725" y1="29.5056" x2="76.2888" y2="32.4535" stroke="#1F1111" stroke-width="1.08904" stroke-linecap="round"/>
    <line x1="94.9258" y1="17.8132" x2="120.299" y2="23.3764" stroke="#1F1111" stroke-width="1.08904" stroke-linecap="round"/>
    <line x1="95.0501" y1="23.2969" x2="118.858" y2="27.3551" stroke="#1F1111" stroke-width="1.08904" stroke-linecap="round"/>
    <line x1="93.8989" y1="28.9263" x2="113.601" y2="31.4728" stroke="#1F1111" stroke-width="1.08904" stroke-linecap="round"/>
    <line x1="93.0321" y1="33.8563" x2="110.892" y2="35.589" stroke="#1F1111" stroke-width="1.08904" stroke-linecap="round"/>
    <line x1="120.289" y1="59.4121" x2="143.093" y2="60.3566" stroke="#1F1111" stroke-width="1.08904" stroke-linecap="round"/>
    <line x1="122.68" y1="64.7687" x2="145.059" y2="65.0383" stroke="#1F1111" stroke-width="1.08904" stroke-linecap="round"/>
    <line x1="124.201" y1="70.533" x2="146.157" y2="69.4553" stroke="#1F1111" stroke-width="1.08904" stroke-linecap="round"/>
    <line x1="121.414" y1="99.1301" x2="141.814" y2="99.667" stroke="#1F1111" stroke-width="1.08904" stroke-linecap="round"/>
    <line x1="118.521" y1="105.29" x2="139.491" y2="103.408" stroke="#1F1111" stroke-width="1.08904" stroke-linecap="round"/>
    <line x1="89.6009" y1="129.688" x2="105.079" y2="126.249" stroke="#1F1111" stroke-width="1.08904" stroke-linecap="round"/>
    <line x1="55.8187" y1="122.624" x2="67.4769" y2="120.163" stroke="#1F1111" stroke-width="1.08904" stroke-linecap="round"/>
    <line x1="76.8477" y1="48.3758" x2="96.4344" y2="53.4737" stroke="#1F1111" stroke-width="1.08904" stroke-linecap="round"/>
    <line x1="68.9182" y1="52.4627" x2="92.0342" y2="58.0051" stroke="#1F1111" stroke-width="1.08904" stroke-linecap="round"/>
    <line x1="61.8283" y1="61.3329" x2="88.0419" y2="66.0866" stroke="#1F1111" stroke-width="1.08904" stroke-linecap="round"/>
    <line x1="57.127" y1="74.9965" x2="85.8733" y2="77.8575" stroke="#1F1111" stroke-width="1.08904" stroke-linecap="round"/>
    <line x1="58.0831" y1="89.5221" x2="88.6626" y2="90.6143" stroke="#1F1111" stroke-width="1.08904" stroke-linecap="round"/>
    <line x1="61.7229" y1="98.9566" x2="92.8677" y2="98.0004" stroke="#1F1111" stroke-width="1.08904" stroke-linecap="round"/>
    <line x1="65.3691" y1="104.303" x2="96.9412" y2="101.706" stroke="#1F1111" stroke-width="1.08904" stroke-linecap="round"/>
    <line x1="70.008" y1="108.663" x2="102.293" y2="104.422" stroke="#1F1111" stroke-width="1.08904" stroke-linecap="round"/>
    <line x1="77.1704" y1="112.166" x2="100.278" y2="107.436" stroke="#1F1111" stroke-width="1.08904" stroke-linecap="round"/>
    <line x1="57.9514" y1="119.097" x2="64.2334" y2="117.889" stroke="#1F1111" stroke-width="1.08904" stroke-linecap="round"/>
    <line x1="90.4058" y1="136.874" x2="108.304" y2="131.665" stroke="#1F1111" stroke-width="1.08904" stroke-linecap="round"/>
    <line x1="89.5155" y1="143.78" x2="111.676" y2="135.807" stroke="#1F1111" stroke-width="1.08904" stroke-linecap="round"/>
    <line x1="101.221" y1="38.3634" x2="108.335" y2="38.8539" stroke="#1F1111" stroke-width="1.08904" stroke-linecap="round"/>
    <line x1="59.8086" y1="33.1436" x2="76.5368" y2="34.604" stroke="#1F1111" stroke-width="1.08904" stroke-linecap="round"/>
    <line x1="61.7321" y1="37.1861" x2="70.6807" y2="37.0601" stroke="#1F1111" stroke-width="1.08904" stroke-linecap="round"/>
    <line x1="31.7672" y1="133.329" x2="68.8492" y2="133.329" stroke="#1F1111" stroke-width="1.08904" stroke-linecap="round" stroke-dasharray="2.54 2.54"/>
    <line x1="28.5172" y1="129.51" x2="70.5473" y2="129.51" stroke="#1F1111" stroke-width="1.08904" stroke-linecap="round" stroke-dasharray="2.54 2.54"/>
    <line x1="69.7016" y1="125.511" x2="60.753" y2="125.511" stroke="#1F1111" stroke-width="1.08904" stroke-linecap="round" stroke-dasharray="2.54 2.54"/>
    <line x1="26.6812" y1="125.834" x2="45.1018" y2="125.834" stroke="#1F1111" stroke-width="1.08904" stroke-linecap="round" stroke-dasharray="2.54 2.54"/>
    <line x1="40.818" y1="140.963" x2="69.5589" y2="140.963" stroke="#1F1111" stroke-width="1.08904" stroke-linecap="round" stroke-dasharray="2.54 2.54"/>
    <line x1="44.107" y1="144.297" x2="74.6002" y2="144.297" stroke="#1F1111" stroke-width="1.08904" stroke-linecap="round" stroke-dasharray="2.54 2.54"/>
  </g>
</svg>
