<svg width="103" height="158" viewBox="0 0 103 158" fill="none" xmlns="http://www.w3.org/2000/svg">
<g opacity="0.8">
<circle cx="61.4117" cy="24.6078" r="14.1183" transform="rotate(0.23552 61.4117 24.6078)" stroke="#1F1111" stroke-width="1.25434"/>
<path d="M75.0552 28.7635L79.6094 28.7822L79.557 41.534C79.5421 45.1774 74.9778 47.5876 72.7013 47.4265L47.1976 47.3216C43.9186 47.3081 41.5882 45.4768 40.8329 44.5629L40.8573 38.6424L57.7079 38.7116C66.8848 38.6021 71.8373 36.0371 75.0552 28.7635Z" stroke="#1F1111" stroke-width="1.25434" stroke-linejoin="round"/>
<path d="M47.3095 20.0018L40.9335 19.9756L40.9859 7.22378C41.0009 3.58039 45.5651 1.17018 47.8416 1.33135L75.167 1.44367C78.4461 1.45715 79.7213 1.46239 79.7101 4.19494L79.699 6.88331C79.6936 8.19066 78.6851 9.27471 77.3816 9.37437L68.3001 10.0686L63.7459 10.0499C54.569 10.1594 50.5274 12.7282 47.3095 20.0018Z" stroke="#1F1111" stroke-width="1.25434" stroke-linejoin="round"/>
<path d="M41.2139 44.4976C34.0065 43.1681 28.6537 60.4527 29.2228 79.736C29.7918 99.0192 35.2674 114.503 41.4529 114.321C47.6383 114.138 52.1913 98.3582 51.6223 79.075C51.501 74.9638 51.1567 71.0252 50.63 67.3744" stroke="#1F1111" stroke-width="1.25434"/>
<path d="M40.8582 38.6418C32.2051 38.6064 26.6285 57.3288 27.2912 79.7862C27.9539 102.244 34.5097 120.271 41.9341 120.052C49.3585 119.833 54.8399 101.45 54.1772 78.9928C54.0279 73.9349 53.5797 69.1016 52.89 64.6509L50.3047 67.2151" stroke="#1F1111" stroke-width="1.25434" stroke-linejoin="round"/>
<path d="M41.9062 4.84497C40.928 4.49631 38.075 4.8289 35.065 7.19206C24.0992 15.8001 16.3507 41.7277 17.4579 79.2501C18.667 120.225 30.244 153.129 43.3158 152.743C50.5262 152.53 56.6854 142.233 60.5562 126.164" stroke="#1F1111" stroke-width="1.25434"/>
<path d="M40.9336 19.9688C31.7727 32.6833 26.7854 54.4432 27.4938 78.452C28.2078 102.648 33.6501 130.186 47.7354 137.953" stroke="#1F1111" stroke-width="1.25434"/>
<path d="M40.9382 18.6029C27.7422 15.8168 20.888 51.7677 21.6709 78.2964C22.3878 102.59 27.265 131.95 39.9866 139.289C42.1069 140.512 46.8105 141.139 50.9355 134.78C54.9258 128.628 56.3018 121.898 56.9197 119.32" stroke="#1F1111" stroke-width="1.25434"/>
<path d="M49.9386 156.18C58.5917 156.215 63.4096 156.461 68.1556 156.255C77.7213 155.838 84.8644 153.894 85.4729 153.593C87.4508 152.539 91.9564 149.612 94.1559 146.342C98.7382 139.529 99.9801 132.855 101.518 128.155" stroke="#1F1111" stroke-width="1.25434" stroke-linejoin="round"/>
<path d="M45.1779 47.3121C39.9011 49.1121 35.9951 62.124 36.491 78.9293C36.9869 95.7346 40.7624 109.258 44.9237 109.136C46.9412 109.144 47.8591 107.44 49.2422 103.347" stroke="#1F1111" stroke-width="1.25434"/>
<path d="M72.5726 47.205C67.6859 48.7713 64.468 56.045 64.4343 64.2426" stroke="#1F1111" stroke-width="1.25434"/>
<path d="M75.0856 47.217C71.985 47.2057 69.2784 54.1543 67.9617 64.2584" stroke="#1F1111" stroke-width="1.25434"/>
<circle cx="79.3101" cy="101.196" r="13.4911" transform="rotate(0.23552 79.3101 101.196)" stroke="#1F1111" stroke-width="1.25434"/>
<path d="M93.7153 100.798C93.6838 108.465 87.0426 114.717 78.8008 114.683C70.559 114.649 63.9693 108.343 64.0008 100.676C64.0324 93.0086 70.6736 86.7565 78.9154 86.7904C87.1572 86.8243 93.7469 93.1308 93.7153 100.798Z" stroke="#1F1111" stroke-width="1.25434"/>
<path d="M85.1377 124.001C82.3099 120.92 78.0674 118.952 73.3173 118.932C71.0444 118.923 68.884 119.361 66.9363 120.155" stroke="#1F1111" stroke-width="1.25434"/>
<path d="M64.2142 118.44L57.3791 119.323C57.3766 119.93 57.914 122.149 60.0835 126.166C62.2531 130.182 66.7437 130.899 68.7179 130.755C76.3101 130.331 92.6791 129.396 97.417 129.052C103.339 128.621 101.523 127.247 100.62 125.421C99.8973 123.961 97.2864 123.89 96.0714 124.036L76.9436 123.958C71.4785 123.935 66.1814 119.966 64.2142 118.44Z" stroke="#1F1111" stroke-width="1.25434" stroke-linejoin="round"/>
<path d="M34.0073 43.1681C35.3526 37.8792 38.1633 32.252 44.0772 30.9129L44.094 26.8141C42.5759 26.8078 38.5292 28.8862 36.3312 31.7919C34.0416 34.8187 32.2062 38.151 30.8193 43.155" stroke="#1F1111" stroke-width="1.25434" stroke-linejoin="round"/>
<path d="M46.3392 34.1116L44.0752 30.9143L44.092 26.8155L46.3748 25.4586C46.9277 29.3297 47.8755 31.7966 50.8934 34.1303L46.3392 34.1116Z" stroke="#1F1111" stroke-width="1.25434" stroke-linejoin="round"/>
<path d="M45.8962 33.9659C43.3093 34.7845 41.4979 36.6055 40.8583 38.9626" stroke="#1F1111" stroke-width="1.25434" stroke-linejoin="round"/>
<path d="M47.1895 24.5646C42.7968 25.1737 38.3912 28.9187 35.2373 33.2959" stroke="#1F1111" stroke-width="1.25434" stroke-linejoin="round"/>
<path d="M49.9846 34.126C47.3968 35.1519 46.2651 36.2652 44.5008 38.6578" stroke="#1F1111" stroke-width="1.25434" stroke-linejoin="round"/>
<path d="M76.9096 21.0281C76.9156 19.5708 75.7014 19.5051 75.0935 19.6544C75.4656 23.8295 75.3374 24.3995 75.0636 26.9411L76.889 26.0378L76.9096 21.0281Z" stroke="#1F1111" stroke-width="1.25434" stroke-linejoin="round"/>
<path d="M53.0457 64.6515L72.6289 64.732C73.8433 64.737 77.0928 64.5682 80.3748 63.853C83.6569 63.1378 87.5198 61.4534 89.041 60.7006M89.041 60.7006C89.3358 62.8272 89.9234 67.6268 89.9144 69.8128C89.9054 71.9989 89.8757 79.2249 89.862 82.5647M89.041 60.7006L95.8723 60.7287C96.3128 64.374 97.6453 72.5772 97.5817 88.0616C97.5233 102.271 92.4472 118.403 90.147 124.01" stroke="#1F1111" stroke-width="1.25434" stroke-linejoin="round"/>
<path d="M97.6012 83.5077L61.6209 83.8152C61.4491 88.6725 60.8256 100.025 59.7056 106.579C58.3056 114.771 53.6784 132.514 44.122 130.653C37.6131 129.385 35.0565 120.141 33.2536 115.579C31.8112 111.929 31.157 108.587 31.0102 107.372" stroke="#1F1111" stroke-width="1.25434" stroke-linejoin="round"/>
<path d="M35.9844 116.047C37.7918 119.546 40.4975 126.085 45.5071 126.105C50.1516 126.124 55.0954 120.224 57.4156 109.759C59.2717 101.386 60.0843 88.3645 60.2585 82.9L93.5045 83.0367L97.1479 83.0516" stroke="#1F1111" stroke-width="1.25434" stroke-linejoin="round"/>
<path d="M41.8848 120.168L53.7277 119.762" stroke="#1F1111" stroke-width="1.25434" stroke-linejoin="round"/>
<line x1="41.3203" y1="50.324" x2="68.9157" y2="50.324" stroke="#1F1111" stroke-width="1.25434"/>
<line x1="40.0664" y1="52.8338" x2="66.4074" y2="52.8338" stroke="#1F1111" stroke-width="1.25434"/>
<line x1="38.8125" y1="56.5955" x2="65.1535" y2="56.5955" stroke="#1F1111" stroke-width="1.25434"/>
<line x1="37.5586" y1="60.3592" x2="65.154" y2="60.3592" stroke="#1F1111" stroke-width="1.25434"/>
<line x1="36.3008" y1="70.3943" x2="51.3528" y2="70.3943" stroke="#1F1111" stroke-width="1.25434"/>
<line x1="36.3008" y1="79.1736" x2="51.3528" y2="79.1736" stroke="#1F1111" stroke-width="1.25434"/>
<line x1="36.3008" y1="86.701" x2="51.3528" y2="86.701" stroke="#1F1111" stroke-width="1.25434"/>
<line x1="37.5586" y1="90.4627" x2="51.3563" y2="90.4627" stroke="#1F1111" stroke-width="1.25434"/>
<line x1="37.5586" y1="94.2263" x2="51.3563" y2="94.2263" stroke="#1F1111" stroke-width="1.25434"/>
<line x1="38.8125" y1="97.99" x2="50.1015" y2="97.99" stroke="#1F1111" stroke-width="1.25434"/>
<line x1="40.0664" y1="101.752" x2="50.1011" y2="101.752" stroke="#1F1111" stroke-width="1.25434"/>
<line x1="41.3203" y1="105.515" x2="48.8463" y2="105.515" stroke="#1F1111" stroke-width="1.25434"/>
<line x1="53.8633" y1="154.433" x2="82.713" y2="154.433" stroke="#1F1111" stroke-width="1.25434"/>
<line x1="11.5256" y1="153.002" x2="39.121" y2="153.002" stroke="#1F1111" stroke-width="1.25434" stroke-linecap="round" stroke-dasharray="2.51 2.51"/>
<line x1="7.75998" y1="149.238" x2="35.3554" y2="149.238" stroke="#1F1111" stroke-width="1.25434" stroke-linecap="round" stroke-dasharray="2.51 2.51"/>
<line x1="3.99826" y1="145.474" x2="31.5936" y2="145.474" stroke="#1F1111" stroke-width="1.25434" stroke-linecap="round" stroke-dasharray="2.51 2.51"/>
<line x1="1.49045" y1="141.713" x2="29.0858" y2="141.713" stroke="#1F1111" stroke-width="1.25434" stroke-linecap="round" stroke-dasharray="2.51 2.51"/>
<line x1="57.625" y1="151.926" x2="87.729" y2="151.926" stroke="#1F1111" stroke-width="1.25434"/>
<line x1="17.7951" y1="156.763" x2="46.6448" y2="156.763" stroke="#1F1111" stroke-width="1.25434" stroke-linecap="round" stroke-dasharray="2.51 2.51"/>
<line x1="58.8789" y1="149.418" x2="91.4916" y2="149.418" stroke="#1F1111" stroke-width="1.25434"/>
<line x1="61.3906" y1="146.908" x2="94.0033" y2="146.908" stroke="#1F1111" stroke-width="1.25434"/>
<line x1="63.8984" y1="143.146" x2="96.5112" y2="143.146" stroke="#1F1111" stroke-width="1.25434"/>
<line x1="64.8088" y1="139.203" x2="98.6759" y2="137.949" stroke="#1F1111" stroke-width="1.25434"/>
<line x1="67.6361" y1="134.365" x2="100.249" y2="133.111" stroke="#1F1111" stroke-width="1.25434"/>
<path d="M47.3872 1.32346C37.8232 1.28418 30.9636 8.08743 25.4444 21.272M68.4638 130.297C63.704 146.128 56.4464 156.199 48.0517 156.447C43.1188 156.592 38.3778 153.329 34.1531 147.463" stroke="#1F1111" stroke-width="1.25434"/>
</g>
</svg>
