<svg width="189" height="159" viewBox="0 0 189 159" fill="none" xmlns="http://www.w3.org/2000/svg">
<g opacity="0.8">
<line x1="10.6578" y1="134.58" x2="23.2691" y2="134.58" stroke="#1F1111" stroke-width="1.08904" stroke-linecap="round" stroke-dasharray="2.18 2.18"/>
<line x1="8.16561" y1="130.844" x2="23.2679" y2="130.844" stroke="#1F1111" stroke-width="1.08904" stroke-linecap="round" stroke-dasharray="2.18 2.18"/>
<line x1="14.3922" y1="138.317" x2="27.0034" y2="138.317" stroke="#1F1111" stroke-width="1.08904" stroke-linecap="round" stroke-dasharray="2.18 2.18"/>
<line x1="50.5094" y1="130.844" x2="104.222" y2="130.844" stroke="#1F1111" stroke-width="1.08904" stroke-linecap="round" stroke-dasharray="2.18 2.18"/>
<line x1="57.9859" y1="134.58" x2="111.698" y2="134.58" stroke="#1F1111" stroke-width="1.08904" stroke-linecap="round" stroke-dasharray="2.18 2.18"/>
<line x1="72.9312" y1="138.317" x2="139.098" y2="138.317" stroke="#1F1111" stroke-width="1.08904" stroke-linecap="round" stroke-dasharray="2.18 2.18"/>
<line x1="44.2828" y1="127.108" x2="70.5944" y2="127.108" stroke="#1F1111" stroke-width="1.08904" stroke-linecap="round" stroke-dasharray="2.18 2.18"/>
<line x1="43.0406" y1="123.371" x2="54.4064" y2="123.371" stroke="#1F1111" stroke-width="1.08904" stroke-linecap="round" stroke-dasharray="2.18 2.18"/>
<line x1="41.7945" y1="119.635" x2="49.4239" y2="119.635" stroke="#1F1111" stroke-width="1.08904" stroke-linecap="round" stroke-dasharray="2.18 2.18"/>
<line x1="41.7945" y1="115.899" x2="46.9329" y2="115.899" stroke="#1F1111" stroke-width="1.08904" stroke-linecap="round" stroke-dasharray="2.18 2.18"/>
<line x1="41.7945" y1="112.163" x2="49.4239" y2="112.163" stroke="#1F1111" stroke-width="1.08904" stroke-linecap="round" stroke-dasharray="2.18 2.18"/>
<line x1="56.7398" y1="26.068" x2="56.7398" y2="119.636" stroke="#1F1111" stroke-width="1.08904" stroke-linecap="round" stroke-linejoin="round"/>
<line x1="59.232" y1="26.068" x2="59.232" y2="120.881" stroke="#1F1111" stroke-width="1.08904" stroke-linecap="round" stroke-linejoin="round"/>
<line x1="54.2516" y1="24.8219" x2="54.2515" y2="118.39" stroke="#1F1111" stroke-width="1.08904" stroke-linecap="round" stroke-linejoin="round"/>
<line x1="51.7555" y1="24.8219" x2="51.7555" y2="115.899" stroke="#1F1111" stroke-width="1.08904" stroke-linecap="round" stroke-linejoin="round"/>
<line x1="50.5094" y1="23.5758" x2="50.5094" y2="115.898" stroke="#1F1111" stroke-width="1.08904" stroke-linecap="round" stroke-linejoin="round"/>
<line x1="65.4586" y1="27.3141" x2="65.4586" y2="122.127" stroke="#1F1111" stroke-width="1.08904" stroke-linecap="round" stroke-linejoin="round"/>
<line x1="91.6148" y1="28.5582" x2="91.6148" y2="124.617" stroke="#1F1111" stroke-width="1.08904" stroke-linecap="round" stroke-linejoin="round"/>
<line x1="94.1031" y1="28.5582" x2="94.1031" y2="124.617" stroke="#1F1111" stroke-width="1.08904" stroke-linecap="round" stroke-linejoin="round"/>
<line x1="96.5953" y1="28.5582" x2="96.5953" y2="124.617" stroke="#1F1111" stroke-width="1.08904" stroke-linecap="round" stroke-linejoin="round"/>
<line x1="99.0875" y1="28.5582" x2="99.0875" y2="124.617" stroke="#1F1111" stroke-width="1.08904" stroke-linecap="round" stroke-linejoin="round"/>
<line x1="101.576" y1="27.3141" x2="101.576" y2="123.373" stroke="#1F1111" stroke-width="1.08904" stroke-linecap="round" stroke-linejoin="round"/>
<line x1="104.068" y1="27.3141" x2="104.068" y2="59.853" stroke="#1F1111" stroke-width="1.08904" stroke-linecap="round" stroke-linejoin="round"/>
<line x1="106.556" y1="27.3141" x2="106.556" y2="53.6256" stroke="#1F1111" stroke-width="1.08904" stroke-linecap="round" stroke-linejoin="round"/>
<line x1="109.052" y1="27.3141" x2="109.052" y2="52.3801" stroke="#1F1111" stroke-width="1.08904" stroke-linecap="round" stroke-linejoin="round"/>
<line x1="121.502" y1="24.8219" x2="121.502" y2="51.1334" stroke="#1F1111" stroke-width="1.08904" stroke-linecap="round" stroke-linejoin="round"/>
<line x1="122.748" y1="23.5758" x2="122.748" y2="49.8874" stroke="#1F1111" stroke-width="1.08904" stroke-linecap="round" stroke-linejoin="round"/>
<line x1="119.013" y1="24.8219" x2="119.013" y2="51.1334" stroke="#1F1111" stroke-width="1.08904" stroke-linecap="round" stroke-linejoin="round"/>
<line x1="116.521" y1="26.068" x2="116.521" y2="51.1341" stroke="#1F1111" stroke-width="1.08904" stroke-linecap="round" stroke-linejoin="round"/>
<line x1="104.068" y1="67.1695" x2="104.068" y2="122.127" stroke="#1F1111" stroke-width="1.08904" stroke-linecap="round" stroke-linejoin="round"/>
<path d="M45.6098 29.8828H43.7236C43.0707 29.8828 42.5646 30.4534 42.6423 31.1016L44.2821 44.7662C44.3323 45.1845 44.6193 45.5363 45.019 45.6696L49.969 47.3196" stroke="#1F1111" stroke-width="1.08904" stroke-linecap="round" stroke-linejoin="round"/>
<path d="M127.812 29.8828H129.698C130.351 29.8828 130.857 30.4534 130.78 31.1016L129.136 44.7939C129.088 45.1978 128.818 45.541 128.438 45.6839L124.076 47.3196" stroke="#1F1111" stroke-width="1.08904" stroke-linecap="round" stroke-linejoin="round"/>
<path d="M48.9856 112.707C48.0031 113.739 47.4766 114.829 47.4766 115.956C47.4766 122.416 64.7628 127.653 86.0865 127.653C93.6395 127.653 100.686 126.996 106.637 125.86" stroke="#1F1111" stroke-width="1.08904" stroke-linecap="round" stroke-linejoin="round"/>
<ellipse cx="86.7093" cy="19.2958" rx="39.2327" ry="6.22741" stroke="#1F1111" stroke-width="1.08904" stroke-linecap="round" stroke-linejoin="round"/>
<path d="M125.942 20.541C125.942 24.6682 108.377 28.0139 86.7093 28.0139C65.0416 28.0139 47.4766 24.6682 47.4766 20.541" stroke="#1F1111" stroke-width="1.08904" stroke-linecap="round" stroke-linejoin="round"/>
<path d="M48.7227 112.707C48.7227 119.586 65.4513 125.162 86.0871 125.162C93.4135 125.162 100.247 124.459 106.015 123.245" stroke="#1F1111" stroke-width="1.08904" stroke-linecap="round" stroke-linejoin="round"/>
<path d="M48.7227 56.6602C48.7227 60.7873 65.7301 64.1331 86.7099 64.1331C91.5403 64.1331 96.1601 63.9557 100.41 63.6323" stroke="#1F1111" stroke-width="1.08904" stroke-linecap="round" stroke-linejoin="round"/>
<path d="M124.697 37.9785C124.697 41.4178 107.69 44.2059 86.7099 44.2059C65.7301 44.2059 48.7227 41.4178 48.7227 37.9785" stroke="#1F1111" stroke-width="1.08904" stroke-linecap="round" stroke-linejoin="round"/>
<path d="M121.583 18.674C121.583 20.3936 106.035 22.4104 86.0867 22.4104C66.1387 22.4104 51.8359 20.3936 51.8359 18.674C58.6861 13.692 114.733 13.692 121.583 18.674Z" stroke="#1F1111" stroke-width="1.08904" stroke-linecap="round" stroke-linejoin="round"/>
<line x1="49.4203" y1="113.409" x2="49.4203" y2="23.5774" stroke="#1F1111" stroke-width="1.08904" stroke-linecap="round" stroke-linejoin="round"/>
<line x1="124.151" y1="49.8891" x2="124.151" y2="23.5775" stroke="#1F1111" stroke-width="1.08904" stroke-linecap="round" stroke-linejoin="round"/>
<path d="M124.695 26.7695H127.186C128.494 29.6882 128.381 31.3224 127.186 34.2424H124.695V26.7695Z" stroke="#1F1111" stroke-width="1.08904" stroke-linecap="round" stroke-linejoin="round"/>
<path d="M48.4141 26.7695H45.9231C44.6154 29.6882 44.7289 31.3224 45.9231 34.2424H48.4141V26.7695Z" stroke="#1F1111" stroke-width="1.08904" stroke-linecap="round" stroke-linejoin="round"/>
<line x1="113.337" y1="60.4547" x2="113.337" y2="131.387" stroke="#1F1111" stroke-width="1.08904" stroke-linecap="round" stroke-linejoin="round"/>
<line x1="115.478" y1="60.4547" x2="115.478" y2="132.335" stroke="#1F1111" stroke-width="1.08904" stroke-linecap="round" stroke-linejoin="round"/>
<line x1="111.201" y1="59.5074" x2="111.201" y2="130.44" stroke="#1F1111" stroke-width="1.08904" stroke-linecap="round" stroke-linejoin="round"/>
<line x1="119.584" y1="61.4019" x2="119.584" y2="133.282" stroke="#1F1111" stroke-width="1.08904" stroke-linecap="round" stroke-linejoin="round"/>
<line x1="126.173" y1="62.3492" x2="126.173" y2="134.229" stroke="#1F1111" stroke-width="1.08904" stroke-linecap="round" stroke-linejoin="round"/>
<line x1="161.357" y1="60.943" x2="161.357" y2="132.092" stroke="#1F1111" stroke-width="1.08904" stroke-linecap="round" stroke-linejoin="round"/>
<line x1="163.849" y1="60.943" x2="163.849" y2="130.846" stroke="#1F1111" stroke-width="1.08904" stroke-linecap="round" stroke-linejoin="round"/>
<line x1="166.341" y1="59.6969" x2="166.341" y2="129.6" stroke="#1F1111" stroke-width="1.08904" stroke-linecap="round" stroke-linejoin="round"/>
<line x1="168.834" y1="59.6969" x2="168.834" y2="128.355" stroke="#1F1111" stroke-width="1.08904" stroke-linecap="round" stroke-linejoin="round"/>
<path d="M103.705 63.2266H102.278C101.618 63.2266 101.11 63.8082 101.199 64.4618L102.541 74.3736C102.598 74.7987 102.9 75.1504 103.312 75.2719L107.448 76.4937" stroke="#1F1111" stroke-width="1.08904" stroke-linecap="round" stroke-linejoin="round"/>
<path d="M174.291 63.2266H175.718C176.378 63.2266 176.886 63.8082 176.798 64.4618L175.452 74.3991C175.396 74.811 175.111 75.1553 174.716 75.2864L171.083 76.4937" stroke="#1F1111" stroke-width="1.08904" stroke-linecap="round" stroke-linejoin="round"/>
<path d="M106.608 126.246C105.765 127.031 105.312 127.86 105.312 128.718C105.312 133.633 120.156 137.618 138.467 137.618C156.777 137.618 171.621 133.633 171.621 128.718C171.621 128.039 171.338 127.378 170.802 126.743" stroke="#1F1111" stroke-width="1.08904" stroke-linecap="round" stroke-linejoin="round"/>
<ellipse cx="139.001" cy="55.1718" rx="33.689" ry="4.73825" stroke="#1F1111" stroke-width="1.08904" stroke-linecap="round" stroke-linejoin="round"/>
<path d="M172.69 56.1191C172.69 59.2594 157.607 61.805 139.001 61.805C120.396 61.805 105.312 59.2594 105.312 56.1191" stroke="#1F1111" stroke-width="1.08904" stroke-linecap="round" stroke-linejoin="round"/>
<path d="M170.548 126.246C170.548 131.48 156.184 135.723 138.464 135.723C120.744 135.723 106.379 131.48 106.379 126.246" stroke="#1F1111" stroke-width="1.08904" stroke-linecap="round" stroke-linejoin="round"/>
<path d="M171.618 83.6016C171.618 86.7418 157.014 89.2875 138.998 89.2875C120.983 89.2875 106.379 86.7418 106.379 83.6016" stroke="#1F1111" stroke-width="1.08904" stroke-linecap="round" stroke-linejoin="round"/>
<path d="M171.618 69.3867C171.618 72.0036 157.014 74.125 138.998 74.125C120.983 74.125 106.379 72.0036 106.379 69.3867" stroke="#1F1111" stroke-width="1.08904" stroke-linecap="round" stroke-linejoin="round"/>
<path d="M168.946 54.6984C168.946 56.0069 155.595 57.5414 138.466 57.5414C121.336 57.5414 109.055 56.0069 109.055 54.6984C114.937 50.9078 163.064 50.9078 168.946 54.6984Z" stroke="#1F1111" stroke-width="1.08904" stroke-linecap="round" stroke-linejoin="round"/>
<line x1="106.901" y1="126.649" x2="106.901" y2="58.5594" stroke="#1F1111" stroke-width="1.08904" stroke-linecap="round" stroke-linejoin="round"/>
<line x1="171.073" y1="126.649" x2="171.073" y2="58.5594" stroke="#1F1111" stroke-width="1.08904" stroke-linecap="round" stroke-linejoin="round"/>
<path d="M171.617 60.8574H173.756C174.879 63.0782 174.782 64.3215 173.756 66.5433H171.617V60.8574Z" stroke="#1F1111" stroke-width="1.08904" stroke-linecap="round" stroke-linejoin="round"/>
<path d="M106.113 60.8574H103.974C102.851 63.0782 102.949 64.3215 103.974 66.5433H106.113V60.8574Z" stroke="#1F1111" stroke-width="1.08904" stroke-linecap="round" stroke-linejoin="round"/>
<line x1="39.3062" y1="107.025" x2="39.3062" y2="137.073" stroke="#1F1111" stroke-width="1.08904" stroke-linecap="round" stroke-linejoin="round"/>
<line x1="36.8141" y1="108.271" x2="36.8141" y2="138.319" stroke="#1F1111" stroke-width="1.08904" stroke-linecap="round" stroke-linejoin="round"/>
<line x1="25.607" y1="107.025" x2="25.607" y2="137.073" stroke="#1F1111" stroke-width="1.08904" stroke-linecap="round" stroke-linejoin="round"/>
<line x1="34.3219" y1="108.271" x2="34.3219" y2="138.319" stroke="#1F1111" stroke-width="1.08904" stroke-linecap="round" stroke-linejoin="round"/>
<ellipse cx="32.5342" cy="100.253" rx="9.96386" ry="2.49097" stroke="#1F1111" stroke-width="1.08904"/>
<ellipse cx="32.5354" cy="100.253" rx="7.4729" ry="1.24548" stroke="#1F1111" stroke-width="1.08904"/>
<path d="M42.498 100.252V105.234C42.498 106.61 38.0371 107.725 32.5342 107.725C27.0313 107.725 22.5703 106.61 22.5703 105.234V100.875" stroke="#1F1111" stroke-width="1.08904"/>
<path d="M41.2532 106.48V135.957C41.2532 137.562 37.3498 138.863 32.5348 138.863C27.7198 138.863 23.8164 137.562 23.8164 135.957V106.48" stroke="#1F1111" stroke-width="1.08904"/>
<line x1="26.4612" y1="98.4863" x2="38.916" y2="102.223" stroke="#1F1111" stroke-width="1.08904"/>
<path d="M23.8164 112.086C31.4433 114.116 35.2897 114.207 41.2532 112.086" stroke="#1F1111" stroke-width="1.08904"/>
<path d="M23.8164 120.18C31.4433 122.21 35.2897 122.301 41.2532 120.18" stroke="#1F1111" stroke-width="1.08904"/>
<path d="M23.8164 131.391C31.4433 133.421 35.2897 133.512 41.2532 131.391" stroke="#1F1111" stroke-width="1.08904"/>
</g>
</svg>
