<svg width="189" height="159" viewBox="0 0 189 159" fill="none" xmlns="http://www.w3.org/2000/svg">
<g opacity="0.8">
<line x1="32.9547" y1="141.038" x2="60.8512" y2="141.038" stroke="#1F1111" stroke-width="1.08904" stroke-linecap="round" stroke-dasharray="2.17 2.17"/>
<line x1="29.2086" y1="137.776" x2="57.1051" y2="137.776" stroke="#1F1111" stroke-width="1.08904" stroke-linecap="round" stroke-dasharray="2.17 2.17"/>
<line x1="25.4664" y1="134.516" x2="53.3629" y2="134.516" stroke="#1F1111" stroke-width="1.08904" stroke-linecap="round" stroke-dasharray="2.17 2.17"/>
<line x1="23.4117" y1="131.254" x2="51.3082" y2="131.254" stroke="#1F1111" stroke-width="1.08904" stroke-linecap="round" stroke-dasharray="2.17 2.17"/>
<line x1="39.357" y1="144.297" x2="68.4613" y2="144.297" stroke="#1F1111" stroke-width="1.08904" stroke-linecap="round" stroke-dasharray="2.17 2.17"/>
<line x1="81.8687" y1="28.5981" x2="127.519" y2="28.5981" stroke="#1F1111" stroke-width="1.08904" stroke-linecap="round"/>
<line x1="81.5055" y1="32.7035" x2="123.895" y2="32.7035" stroke="#1F1111" stroke-width="1.08904" stroke-linecap="round"/>
<line x1="115.085" y1="90.3181" x2="67.6227" y2="90.6723" stroke="#1F1111" stroke-width="1.08904" stroke-linecap="round"/>
<line x1="149.284" y1="138.046" x2="78.0284" y2="141.608" stroke="#1F1111" stroke-width="1.08904" stroke-linecap="round"/>
<line x1="153.384" y1="134.417" x2="81.7665" y2="137.267" stroke="#1F1111" stroke-width="1.08904" stroke-linecap="round"/>
<line x1="158.459" y1="126.206" x2="85.0303" y2="129.294" stroke="#1F1111" stroke-width="1.08904" stroke-linecap="round"/>
<line x1="75.8286" y1="37.6576" x2="120.875" y2="37.8934" stroke="#1F1111" stroke-width="1.08904" stroke-linecap="round"/>
<line x1="83.8074" y1="97.3279" x2="68.5919" y2="97.5533" stroke="#1F1111" stroke-width="1.08904" stroke-linecap="round"/>
<line x1="116.058" y1="96.848" x2="96.253" y2="97.3059" stroke="#1F1111" stroke-width="1.08904" stroke-linecap="round"/>
<line x1="72.0864" y1="45.5091" x2="117.978" y2="45.745" stroke="#1F1111" stroke-width="1.08904" stroke-linecap="round"/>
<line x1="79.5901" y1="101.442" x2="69.2052" y2="101.77" stroke="#1F1111" stroke-width="1.08904" stroke-linecap="round"/>
<line x1="74.0406" y1="106.523" x2="70.0559" y2="106.713" stroke="#1F1111" stroke-width="1.08904" stroke-linecap="round"/>
<line x1="117.017" y1="101.795" x2="98.9031" y2="102.023" stroke="#1F1111" stroke-width="1.08904" stroke-linecap="round"/>
<line x1="118.106" y1="106.749" x2="98.0591" y2="107.093" stroke="#1F1111" stroke-width="1.08904" stroke-linecap="round"/>
<line x1="71.558" y1="111.164" x2="73.4917" y2="111.009" stroke="#1F1111" stroke-width="1.08904" stroke-linecap="round"/>
<line x1="97.5492" y1="111.312" x2="118.924" y2="110.738" stroke="#1F1111" stroke-width="1.08904" stroke-linecap="round"/>
<line x1="96.7051" y1="114.931" x2="120.134" y2="114.123" stroke="#1F1111" stroke-width="1.08904" stroke-linecap="round"/>
<line x1="67.6187" y1="62.1723" x2="115.081" y2="62.1723" stroke="#1F1111" stroke-width="1.08904" stroke-linecap="round"/>
<line x1="67.0133" y1="77.6313" x2="113.871" y2="77.6313" stroke="#1F1111" stroke-width="1.08904" stroke-linecap="round"/>
<path d="M135.668 79.8672H141.586" stroke="#1F1111" stroke-width="1.08904" stroke-linecap="round" stroke-linejoin="round"/>
<path d="M133.374 64.0449C131.482 64.9306 127.685 68.9121 127.637 77.7527C127.577 88.8034 133.555 102.028 137.963 89.7092" stroke="#1F1111" stroke-width="1.08904" stroke-linecap="round" stroke-linejoin="round"/>
<path d="M135.007 66.3398C133.639 67.5677 131.082 70.8447 130.599 75.8205C129.995 82.0404 131.867 92.3061 135.974 93.2119" stroke="#1F1111" stroke-width="1.08904" stroke-linecap="round" stroke-linejoin="round"/>
<mask id="mask0_505_44168" style="mask-type:alpha" maskUnits="userSpaceOnUse" x="82" y="91" width="12" height="25">
<path d="M82.4062 110.965L84.6406 115.071L86.3885 101.029C86.4252 100.735 86.6705 100.511 86.9673 100.501L90.015 100.397L93.2155 92.4865L84.2782 91.0977L82.4062 110.965Z" fill="#C4C4C4"/>
</mask>
<g mask="url(#mask0_505_44168)">
<path d="M89.2247 111.84C89.1547 112.66 88.0481 113.235 86.7531 113.125C85.4581 113.014 84.4651 112.26 84.5352 111.439" stroke="#1F1111" stroke-width="1.08904" stroke-linecap="round" stroke-linejoin="round"/>
<path d="M90.1153 101.445C90.0453 102.266 88.9387 102.841 87.6437 102.73C86.3488 102.62 85.3557 101.865 85.4258 101.045" stroke="#1F1111" stroke-width="1.08904" stroke-linecap="round" stroke-linejoin="round"/>
<path d="M89.3536 110.356C89.2836 111.176 88.177 111.751 86.882 111.64C85.587 111.53 84.594 110.775 84.6641 109.955" stroke="#1F1111" stroke-width="1.08904" stroke-linecap="round" stroke-linejoin="round"/>
<path d="M90.2442 99.9591C90.1742 100.779 89.0676 101.354 87.7727 101.244C86.4777 101.133 85.4846 100.379 85.5547 99.5586" stroke="#1F1111" stroke-width="1.08904" stroke-linecap="round" stroke-linejoin="round"/>
<path d="M89.4825 108.869C89.4125 109.689 88.3059 110.265 87.0109 110.154C85.7159 110.043 84.7229 109.289 84.793 108.469" stroke="#1F1111" stroke-width="1.08904" stroke-linecap="round" stroke-linejoin="round"/>
<path d="M90.3653 98.4747C90.2953 99.2948 89.1887 99.87 87.8937 99.7595C86.5988 99.6489 85.6057 98.8944 85.6758 98.0742" stroke="#1F1111" stroke-width="1.08904" stroke-linecap="round" stroke-linejoin="round"/>
<path d="M89.6036 107.385C89.5336 108.205 88.427 108.78 87.132 108.67C85.837 108.559 84.844 107.805 84.9141 106.984" stroke="#1F1111" stroke-width="1.08904" stroke-linecap="round" stroke-linejoin="round"/>
<path d="M90.4942 96.9903C90.4242 97.8105 89.3176 98.3857 88.0227 98.2751C86.7277 98.1645 85.7346 97.41 85.8047 96.5898" stroke="#1F1111" stroke-width="1.08904" stroke-linecap="round" stroke-linejoin="round"/>
<path d="M89.7325 105.9C89.6625 106.721 88.5559 107.296 87.2609 107.185C85.9659 107.075 84.9729 106.32 85.043 105.5" stroke="#1F1111" stroke-width="1.08904" stroke-linecap="round" stroke-linejoin="round"/>
<path d="M90.6192 95.506C90.5492 96.3261 89.4426 96.9013 88.1477 96.7907C86.8527 96.6801 85.8596 95.9256 85.9297 95.1055" stroke="#1F1111" stroke-width="1.08904" stroke-linecap="round" stroke-linejoin="round"/>
<path d="M89.8614 104.416C89.7914 105.236 88.6848 105.811 87.3898 105.701C86.0949 105.59 85.1018 104.836 85.1719 104.016" stroke="#1F1111" stroke-width="1.08904" stroke-linecap="round" stroke-linejoin="round"/>
<path d="M89.9864 102.93C89.9164 103.75 88.8098 104.325 87.5148 104.215C86.2199 104.104 85.2268 103.349 85.2969 102.529" stroke="#1F1111" stroke-width="1.08904" stroke-linecap="round" stroke-linejoin="round"/>
<path d="M90.6511 94.7823C90.6508 94.7852 90.6498 94.7936 90.6402 94.8102C90.6297 94.8283 90.6081 94.8573 90.5661 94.894C90.479 94.9699 90.3296 95.0563 90.1063 95.1314C89.6612 95.2811 89.0209 95.3526 88.2988 95.2833C87.5767 95.2139 86.9617 95.0217 86.5532 94.79C86.3483 94.6738 86.2181 94.5606 86.147 94.4695C86.1128 94.4255 86.0971 94.3929 86.0902 94.3732C86.084 94.355 86.0846 94.3466 86.0848 94.3437C86.0851 94.3408 86.0861 94.3323 86.0958 94.3158C86.1062 94.2977 86.1278 94.2686 86.1699 94.232C86.2569 94.1561 86.4064 94.0697 86.6296 93.9946C87.0747 93.8449 87.715 93.7733 88.4372 93.8427C89.1593 93.9121 89.7743 94.1042 90.1828 94.3359C90.3876 94.4521 90.5179 94.5654 90.5889 94.6565C90.6232 94.7005 90.6388 94.7331 90.6457 94.7528C90.652 94.7709 90.6514 94.7794 90.6511 94.7823Z" stroke="#1F1111" stroke-width="1.08904" stroke-linecap="round" stroke-linejoin="round"/>
</g>
<path d="M80.0547 106.678H81.3832L80.417 108.187L82.289 108.731L80.2358 110.059L81.5644 112.354" stroke="#1F1111" stroke-width="1.08904" stroke-linecap="round" stroke-linejoin="round"/>
<path d="M82.2866 108.73L82.1055 112.414" stroke="#1F1111" stroke-width="1.08904" stroke-linecap="round" stroke-linejoin="round"/>
<path d="M65.0173 21.8342V20.4453H61.0428C60.7365 20.4453 60.4883 20.6936 60.4883 20.9998V34.0213C60.4883 34.3275 60.7365 34.5758 61.0428 34.5758H65.0173V33.2473H61.8168V21.8342H65.0173Z" stroke="#1F1111" stroke-width="1.08904" stroke-linecap="round" stroke-linejoin="round"/>
<path d="M60.3671 32.5234C56.3011 32.5436 47.7946 40.0476 46.297 69.9027C44.425 107.222 55.4154 131.557 63.0241 130.772C70.6328 129.987 73.5314 112.596 74.4975 106.557" stroke="#1F1111" stroke-width="1.08904" stroke-linecap="round" stroke-linejoin="round"/>
<path d="M60.5523 20.5664C56.3655 21.0696 46.8204 31.9916 43.8252 61.0254C40.0813 97.3178 48.4966 126.183 54.5137 134.395C58.9822 140.494 64.6563 145.485 71.6635 135.301C76.1925 128.719 78.2456 116.903 79.091 113.381" stroke="#1F1111" stroke-width="1.08904" stroke-linecap="round" stroke-linejoin="round"/>
<path d="M74.3183 26.4243L133.376 25.8808V64.2263L135.309 66.1587V79.8061L139.294 88.2602L137.966 89.7095L150.043 115.072L96.5406 117.004L89.5357 117.668L84.0405 119.359L83.7386 122.862H87.0599L160.973 119.661L141.891 79.8061V18.5137L69.7893 19.1175L67.3135 19.963V22.4388L66.2265 22.9823L64.9584 22.0161L63.9922 22.9823V25.2166L65.1999 25.8808H68.9439" stroke="#1F1111" stroke-width="1.08904" stroke-linecap="round" stroke-linejoin="round"/>
<path d="M69.2461 25.1562V26.6055H72.8693V28.5983C72.8693 28.9318 73.1397 29.2022 73.4732 29.2022H78.8476V33.8519H80.1157V28.4171C80.1157 28.0836 79.8453 27.8133 79.5118 27.8133H74.1978V25.7601C74.1978 25.4266 73.9274 25.1562 73.5939 25.1562H69.2461Z" fill="#1F1111" stroke="#1F1111" stroke-width="1.08904" stroke-linecap="round" stroke-linejoin="round"/>
<path d="M64.1719 25.459V27.2102L66.527 29.0218L65.2588 30.4711L66.8893 33.1281C67.5133 33.0878 69.1719 33.273 70.8144 34.3358" stroke="#1F1111" stroke-width="1.08904" stroke-linecap="round" stroke-linejoin="round"/>
<circle cx="72.3241" cy="34.7577" r="0.544521" stroke="#1F1111" stroke-width="0.481011" stroke-linecap="round" stroke-linejoin="round"/>
<circle cx="72.3248" cy="34.7584" r="1.44824" stroke="#1F1111" stroke-width="1.08904" stroke-linecap="round" stroke-linejoin="round"/>
<path d="M74.0738 34.5775L76.1873 32.7659L73.168 29.2031" stroke="#1F1111" stroke-width="1.08904" stroke-linecap="round" stroke-linejoin="round"/>
<path d="M60.6094 34.3355L62.6625 36.2075L68.52 36.0263L67.0104 33.3693L70.4524 36.8114V38.0191H71.8413L72.8075 38.9249L74.1964 37.5964L80.235 36.0263V35.0602H81.4428V32.7051H80.235" stroke="#1F1111" stroke-width="1.08904" stroke-linecap="round" stroke-linejoin="round"/>
<path d="M66.1686 36.207C62.7668 38.4212 56.0116 48.1877 55.2386 70.2651C54.2724 97.8617 59.7676 118.574 68.5841 126.485" stroke="#1F1111" stroke-width="1.08904" stroke-linecap="round" stroke-linejoin="round"/>
<path d="M70.0901 36.8711C68.1979 37.3944 65.0772 40.2189 62.4813 45.8687C58.375 54.8059 56.0667 75.5789 58.5562 94.6007C60.9112 112.596 66.3461 121.593 69.607 124.009" stroke="#1F1111" stroke-width="1.08904" stroke-linecap="round" stroke-linejoin="round"/>
<path d="M72.6258 38.9844C70.6733 39.2461 65.2949 43.2839 62.7828 52.511C59.6427 64.0448 57.1667 103.236 70.6934 121.11" stroke="#1F1111" stroke-width="1.08904" stroke-linecap="round" stroke-linejoin="round"/>
<path d="M75.7695 37.2344C72.6696 41.703 66.5182 55.9301 66.7115 77.0895C66.9047 98.249 70.5762 110.785 72.569 115.012" stroke="#1F1111" stroke-width="1.08904" stroke-linecap="round" stroke-linejoin="round"/>
<path d="M79.5694 105.592L79.8109 106.92L76.3689 107.101L79.5694 112.597L85.1854 112.295L84.9438 113.684L78.9053 113.855C78.6822 113.861 78.4738 113.744 78.3634 113.55L74.5454 106.842C74.3263 106.457 74.5823 105.975 75.0239 105.941L79.5694 105.592Z" fill="#1F1111" stroke="#1F1111" stroke-width="1.08904" stroke-linecap="round" stroke-linejoin="round"/>
<path d="M82.4701 113.803C80.5176 125.035 73.1102 148.948 61.6367 140.796" stroke="#1F1111" stroke-width="1.08904" stroke-linecap="round" stroke-linejoin="round"/>
<path d="M83.7994 122.379C82.2898 130.269 75.8888 147.983 64.8984 142.306" stroke="#1F1111" stroke-width="1.08904" stroke-linecap="round" stroke-linejoin="round"/>
<path d="M87.1226 122.922C85.9148 127.129 83.5598 134.093 80.5404 138.864C78.1616 142.623 72.7506 145.325 67.0742 143.151" stroke="#1F1111" stroke-width="1.08904" stroke-linecap="round" stroke-linejoin="round"/>
<path d="M80.2344 29.5639H81.2609V26.4238" stroke="#1F1111" stroke-width="1.08904" stroke-linecap="round" stroke-linejoin="round"/>
<path d="M132.77 25.8809C128.805 26.2633 119.884 32.8253 115.923 56.0138C110.971 84.9993 120.089 113.502 121.297 115.857" stroke="#1F1111" stroke-width="1.08904" stroke-linecap="round" stroke-linejoin="round"/>
<path d="M79.7539 105.773L80.4785 98.5871C81.6661 98.567 84.1259 98.1886 84.4641 96.8359H85.7926" stroke="#1F1111" stroke-width="1.08904" stroke-linecap="round" stroke-linejoin="round"/>
<path d="M90.6855 97.0762H95.8184L98.8981 100.518L86.9415 101.062L84.043 119.48" stroke="#1F1111" stroke-width="1.08904" stroke-linecap="round" stroke-linejoin="round"/>
<path d="M91.8289 100.881C91.1646 105.329 89.7033 114.927 89.1719 117.729" stroke="#1F1111" stroke-width="1.08904" stroke-linecap="round" stroke-linejoin="round"/>
<path d="M98.8367 100.518C98.253 104.402 96.856 113.138 96.1797 117.003" stroke="#1F1111" stroke-width="1.08904" stroke-linecap="round" stroke-linejoin="round"/>
<path d="M90.5 99.4307H95.6932L94.6063 98.3438H96.5387" stroke="#1F1111" stroke-width="1.08904" stroke-linecap="round" stroke-linejoin="round"/>
<path d="M160.972 119.721C160.227 122.861 157.81 129.61 154.873 133.127C149.982 138.984 146.057 140.011 141.165 140.313C136.274 140.614 77.0951 144.238 70.9961 143.936" stroke="#1F1111" stroke-width="1.08904" stroke-linecap="round" stroke-linejoin="round"/>
</g>
</svg>
