<svg width="196" height="165" viewBox="0 0 196 165" fill="none" xmlns="http://www.w3.org/2000/svg">
<g opacity="0.8">
<line x1="23.4166" y1="98.7689" x2="39.1253" y2="98.7689" stroke="#1F1111" stroke-width="1.13014" stroke-linecap="round" stroke-dasharray="2.26 2.26"/>
<line x1="12.5885" y1="102.378" x2="29.5" y2="102.378" stroke="#1F1111" stroke-width="1.13014" stroke-linecap="round" stroke-dasharray="2.26 2.26"/>
<line x1="7.77991" y1="105.986" x2="25.8941" y2="105.986" stroke="#1F1111" stroke-width="1.13014" stroke-linecap="round" stroke-dasharray="2.26 2.26"/>
<line x1="2.96741" y1="109.595" x2="16.2705" y2="109.595" stroke="#1F1111" stroke-width="1.13014" stroke-linecap="round" stroke-dasharray="2.26 2.26"/>
<line x1="55.9401" y1="102.277" x2="60.4606" y2="102.277" stroke="#1F1111" stroke-width="1.13014" stroke-linecap="round" stroke-dasharray="2.26 2.26"/>
<line x1="1.76429" y1="113.203" x2="17.473" y2="113.203" stroke="#1F1111" stroke-width="1.13014" stroke-linecap="round" stroke-dasharray="2.26 2.26"/>
<line x1="53.6823" y1="105.667" x2="67.2439" y2="105.667" stroke="#1F1111" stroke-width="1.13014" stroke-linecap="round" stroke-dasharray="2.26 2.26"/>
<line x1="0.565069" y1="116.812" x2="16.2738" y2="116.812" stroke="#1F1111" stroke-width="1.13014" stroke-linecap="round" stroke-dasharray="2.26 2.26"/>
<line x1="43.5104" y1="109.058" x2="83.0652" y2="109.058" stroke="#1F1111" stroke-width="1.13014" stroke-linecap="round" stroke-dasharray="2.26 2.26"/>
<line x1="0.565068" y1="120.419" x2="16.2738" y2="120.419" stroke="#1F1111" stroke-width="1.13014" stroke-linecap="round" stroke-dasharray="2.26 2.26"/>
<line x1="142.964" y1="123.749" x2="148.614" y2="123.749" stroke="#1F1111" stroke-width="1.13014" stroke-linecap="round" stroke-dasharray="2.26 2.26"/>
<line x1="147.483" y1="120.359" x2="156.524" y2="120.359" stroke="#1F1111" stroke-width="1.13014" stroke-linecap="round" stroke-dasharray="2.26 2.26"/>
<line x1="152.12" y1="116.812" x2="165.423" y2="116.812" stroke="#1F1111" stroke-width="1.13014" stroke-linecap="round" stroke-dasharray="2.26 2.26"/>
<line x1="162.503" y1="129.4" x2="168.589" y2="129.4" stroke="#1F1111" stroke-width="1.13014" stroke-linecap="round" stroke-dasharray="2.26 2.26"/>
<line x1="150.467" y1="133.009" x2="166.176" y2="133.009" stroke="#1F1111" stroke-width="1.13014" stroke-linecap="round" stroke-dasharray="2.26 2.26"/>
<line x1="138.44" y1="136.617" x2="158.96" y2="136.617" stroke="#1F1111" stroke-width="1.13014" stroke-linecap="round" stroke-dasharray="2.26 2.26"/>
<line x1="1.76429" y1="124.029" x2="19.8785" y2="124.029" stroke="#1F1111" stroke-width="1.13014" stroke-linecap="round" stroke-dasharray="2.26 2.26"/>
<line x1="2.96741" y1="127.636" x2="18.6761" y2="127.636" stroke="#1F1111" stroke-width="1.13014" stroke-linecap="round" stroke-dasharray="2.26 2.26"/>
<line x1="5.37757" y1="131.245" x2="18.6807" y2="131.245" stroke="#1F1111" stroke-width="1.13014" stroke-linecap="round" stroke-dasharray="2.26 2.26"/>
<line x1="7.77991" y1="134.853" x2="18.6775" y2="134.853" stroke="#1F1111" stroke-width="1.13014" stroke-linecap="round" stroke-dasharray="2.26 2.26"/>
<line x1="11.3893" y1="138.46" x2="30.7063" y2="138.46" stroke="#1F1111" stroke-width="1.13014" stroke-linecap="round" stroke-dasharray="2.26 2.26"/>
<line x1="16.2018" y1="142.07" x2="34.316" y2="142.07" stroke="#1F1111" stroke-width="1.13014" stroke-linecap="round" stroke-dasharray="2.26 2.26"/>
<line x1="22.2135" y1="145.677" x2="45.1388" y2="145.677" stroke="#1F1111" stroke-width="1.13014" stroke-linecap="round" stroke-dasharray="2.26 2.26"/>
<line x1="121.491" y1="147.484" x2="132.388" y2="147.484" stroke="#1F1111" stroke-width="1.13014" stroke-linecap="round" stroke-dasharray="2.26 2.26"/>
<line x1="104.538" y1="140.703" x2="115.435" y2="140.703" stroke="#1F1111" stroke-width="1.13014" stroke-linecap="round" stroke-dasharray="2.26 2.26"/>
<line x1="100.397" y1="137.259" x2="111.295" y2="137.259" stroke="#1F1111" stroke-width="1.13014" stroke-linecap="round" stroke-dasharray="2.26 2.26"/>
<line x1="97.7565" y1="133.921" x2="101.147" y2="133.921" stroke="#1F1111" stroke-width="1.13014" stroke-linecap="round" stroke-dasharray="2.26 2.26"/>
<line x1="28.2252" y1="149.286" x2="47.5422" y2="149.286" stroke="#1F1111" stroke-width="1.13014" stroke-linecap="round" stroke-dasharray="2.26 2.26"/>
<line x1="34.2408" y1="152.894" x2="53.5579" y2="152.894" stroke="#1F1111" stroke-width="1.13014" stroke-linecap="round" stroke-dasharray="2.26 2.26"/>
<line x1="41.4635" y1="156.503" x2="77.6193" y2="156.503" stroke="#1F1111" stroke-width="1.13014" stroke-linecap="round" stroke-dasharray="2.26 2.26"/>
<path d="M77.6836 154.891C78.3652 156.316 81.2278 158.522 88.217 158.175C96.9536 157.741 100.238 158.67 105.504 160.405C110.771 162.14 115.728 162.946 119.322 160.157C121.119 159.104 121.119 154.519 120.437 152.412" stroke="#1F1111" stroke-width="1.13014" stroke-linecap="round" stroke-linejoin="round"/>
<path d="M53.457 103.4C54.3865 102.553 56.5427 100.81 57.7324 100.611" stroke="#1F1111" stroke-width="1.13014" stroke-linecap="round" stroke-linejoin="round"/>
<path d="M42.7383 105.446C43.4612 104.579 45.3159 102.645 46.9517 101.852C48.5874 101.059 51.6401 100.076 52.9619 99.6836" stroke="#1F1111" stroke-width="1.13014" stroke-linecap="round" stroke-linejoin="round"/>
<path d="M38.0234 101.231C38.6637 100.839 39.9442 99.7692 40.1921 98.877" stroke="#1F1111" stroke-width="1.13014" stroke-linecap="round" stroke-linejoin="round"/>
<path d="M52.8906 96.5214C53.345 96.2942 54.3405 95.8398 54.6875 95.8398" stroke="#1F1111" stroke-width="1.13014" stroke-linecap="round" stroke-linejoin="round"/>
<path d="M53.0173 97.0801C53.0173 97.679 53.0173 99.6701 53.0173 100.116C53.0173 100.674 51.9639 101.603 51.0345 101.851C50.1051 102.099 45.458 103.648 42.4219 106.87" stroke="#1F1111" stroke-width="1.13014" stroke-linecap="round" stroke-linejoin="round"/>
<path d="M42.4226 103.771C42.4226 104.639 42.4226 106.473 42.4226 106.87C42.4226 107.365 40.8116 109.41 34.8633 109.41" stroke="#1F1111" stroke-width="1.13014" stroke-linecap="round" stroke-linejoin="round"/>
<path d="M31.7617 111.642C33.0216 110.568 35.8388 108.345 37.0284 108.048C38.5155 107.676 41.3038 106.932 42.6669 106.127" stroke="#1F1111" stroke-width="1.13014" stroke-linecap="round" stroke-linejoin="round"/>
<path d="M42.1094 107.738V110.279" stroke="#1F1111" stroke-width="1.13014" stroke-linecap="round" stroke-linejoin="round"/>
<path d="M42.9219 112.693C43.1491 112.466 43.2317 112.272 43.2317 111.826C43.2317 111.268 42.798 108.604 45.5243 107.612C46.5569 107.571 49.2791 107.724 50.6671 107.426C52.055 107.129 52.9803 106.228 53.2694 105.815V103.213" stroke="#1F1111" stroke-width="1.13014" stroke-linecap="round" stroke-linejoin="round"/>
<path d="M46.0742 120.812V123.725" stroke="#1F1111" stroke-width="1.13014" stroke-linecap="round" stroke-linejoin="round"/>
<path d="M39.7617 128.123C40.7531 127.586 43.0694 126.584 44.161 126.14C46.1438 125.335 48.1265 124.467 47.5069 122.299" stroke="#1F1111" stroke-width="1.13014" stroke-linecap="round" stroke-linejoin="round"/>
<path d="M43.2344 127.813C44.0192 127.503 45.3411 127.143 45.8368 126.945C46.4564 126.697 48.1913 125.582 47.5717 124.219" stroke="#1F1111" stroke-width="1.13014" stroke-linecap="round" stroke-linejoin="round"/>
<path d="M50.295 89.2812C48.3123 89.3432 45.3393 89.9542 45.5871 91.4413C45.897 93.3002 45.1534 94.8492 42.7369 95.8406C40.3204 96.832 39.391 97.3896 40.0106 98.443C40.6302 99.4963 45.5252 100.178 48.2515 99.7441C50.9778 99.3104 53.2084 98.1951 52.8986 97.0178C52.5888 95.8406 52.7747 94.8492 53.6421 94.3535" stroke="#1F1111" stroke-width="1.13014" stroke-linecap="round" stroke-linejoin="round"/>
<path d="M16.7693 110.463C16.0258 112.099 17.8227 113.086 18.8141 113.376C22.5937 115.049 29.6573 113.19 30.4009 111.889C31.1444 110.587 32.3217 109.224 34.8621 107.613C37.4025 106.002 41.2441 105.878 42.1116 104.639C42.9791 103.4 41.8018 102.223 39.1374 101.541C36.4731 100.859 30.6487 101.417 29.9052 103.028C29.1616 104.639 26.7451 106.374 24.1428 107.427C21.5404 108.481 17.6988 108.419 16.7693 110.463Z" stroke="#1F1111" stroke-width="1.13014" stroke-linecap="round" stroke-linejoin="round"/>
<path d="M52.707 98.0098C52.7896 98.2989 53.7976 99.0879 56.6726 99.187" stroke="#1F1111" stroke-width="1.13014" stroke-linecap="round" stroke-linejoin="round"/>
<path d="M56.2978 99.1875C55.6369 99.5593 54.2159 100.414 53.8193 100.86C53.3236 101.418 52.9519 101.976 53.0758 102.471C53.1997 102.967 53.8193 103.773 51.2169 104.578C48.6146 105.384 46.0122 106.127 44.649 107.304C43.2859 108.482 43.2859 109.163 42.9761 109.783C42.6663 110.403 37.9572 113.067 32.1328 111.828" stroke="#1F1111" stroke-width="1.13014" stroke-linecap="round" stroke-linejoin="round"/>
<path d="M30.899 111.27C32.1796 111.849 34.9513 113.079 35.794 113.377C37.6115 112.881 41.8786 112.187 44.4066 113.377C47.5667 114.864 48.3102 116.723 44.4066 118.148C40.5031 119.573 37.7148 120.502 36.5375 122.671C35.3603 124.84 34.3069 128 28.0488 128.372C21.7907 128.743 18.135 127.008 19.0644 124.654C19.9938 122.299 24.9507 121.618 27.3053 120.379C29.1889 119.387 30.486 118.272 30.899 117.838C29.5772 117.198 25.9368 115.878 22.8635 115.531C19.0219 115.097 17.5154 114.554 16.5859 113.687V110.898" stroke="#1F1111" stroke-width="1.13014" stroke-linecap="round" stroke-linejoin="round"/>
<path d="M16.5859 113.686C16.7305 114.305 17.4906 116.065 19.1264 116.412C21.1711 116.846 26.6237 117.279 29.5978 118.89" stroke="#1F1111" stroke-width="1.13014" stroke-linecap="round" stroke-linejoin="round"/>
<path d="M17.2109 116.156C17.2109 116.693 17.2973 118.437 17.8387 118.667C18.6491 119.012 21.3115 119.269 23.2751 119.571C24.8861 119.819 25.8774 120.191 26.7449 120.438" stroke="#1F1111" stroke-width="1.13014" stroke-linecap="round" stroke-linejoin="round"/>
<path d="M17.3888 115.545C17.1823 115.628 16.9055 116.945 16.9551 117.837C17.017 118.953 17.3268 121.183 18.3182 121.679C19.1113 122.076 20.5488 122.443 21.2924 122.609" stroke="#1F1111" stroke-width="1.13014" stroke-linecap="round" stroke-linejoin="round"/>
<path d="M47.0683 115.854C47.0683 116.556 47.0683 118.629 47.0683 119.076C47.0683 119.633 46.6966 120.377 44.5899 121.12C42.9045 121.715 39.1373 122.545 35.6055 124.59" stroke="#1F1111" stroke-width="1.13014" stroke-linecap="round" stroke-linejoin="round"/>
<path d="M36.168 125.087C37.655 125.21 41.2364 125.31 43.6653 124.715C46.7014 123.971 47.383 122.732 47.445 122.05C47.5069 121.369 46.8253 120.501 46.5155 120.439" stroke="#1F1111" stroke-width="1.13014" stroke-linecap="round" stroke-linejoin="round"/>
<path d="M48.5856 96.8937C48.5856 96.9306 48.5686 96.9924 48.4815 97.0768C48.3936 97.1621 48.2516 97.2519 48.0531 97.3333C47.6575 97.4957 47.0914 97.6026 46.4517 97.6026C45.8119 97.6026 45.2458 97.4957 44.8502 97.3333C44.6517 97.2519 44.5097 97.1621 44.4218 97.0768C44.3347 96.9924 44.3177 96.9306 44.3177 96.8937C44.3177 96.8569 44.3347 96.7951 44.4218 96.7106C44.5097 96.6254 44.6517 96.5355 44.8502 96.4541C45.2458 96.2918 45.8119 96.1849 46.4517 96.1849C47.0914 96.1849 47.6575 96.2918 48.0531 96.4541C48.2516 96.5355 48.3936 96.6254 48.4815 96.7106C48.5686 96.7951 48.5856 96.8569 48.5856 96.8937Z" stroke="#1F1111" stroke-width="0.565068" stroke-linecap="round" stroke-linejoin="round"/>
<path d="M44.4062 96.8945V97.5715V98.0016C45.0384 98.2884 46.7414 98.6898 48.4957 98.0016V96.8945" stroke="#1F1111" stroke-width="0.565068" stroke-linecap="round" stroke-linejoin="round"/>
<mask id="mask0_512_36991" style="mask-type:alpha" maskUnits="userSpaceOnUse" x="47" y="89" width="7" height="5">
<path d="M53.0787 93.9191L50.8584 89.334L47.75 90.4199L48.0275 93.3762L53.0787 93.9191Z" fill="#C4C4C4"/>
</mask>
<g mask="url(#mask0_512_36991)">
<path d="M54.0426 90.9445C54.0426 90.9814 54.0256 91.0431 53.9386 91.1276C53.8506 91.2129 53.7087 91.3027 53.5102 91.3841C53.1145 91.5464 52.5485 91.6534 51.9087 91.6534C51.2689 91.6534 50.7028 91.5464 50.3072 91.3841C50.1087 91.3027 49.9667 91.2129 49.8788 91.1276C49.7917 91.0431 49.7747 90.9814 49.7747 90.9445C49.7747 90.9077 49.7917 90.8459 49.8788 90.7614C49.9667 90.6761 50.1087 90.5863 50.3072 90.5049C50.7028 90.3426 51.2689 90.2357 51.9087 90.2357C52.5485 90.2357 53.1145 90.3426 53.5102 90.5049C53.7087 90.5863 53.8506 90.6761 53.9386 90.7614C54.0256 90.8459 54.0426 90.9077 54.0426 90.9445Z" stroke="#1F1111" stroke-width="0.565068" stroke-linecap="round" stroke-linejoin="round"/>
<path d="M49.8633 90.9453V91.6223V92.0524C50.4955 92.3391 52.1984 92.7406 53.9527 92.0524V90.9453" stroke="#1F1111" stroke-width="0.565068" stroke-linecap="round" stroke-linejoin="round"/>
</g>
<path d="M37.8083 103.091C37.8083 103.128 37.7913 103.19 37.7042 103.274C37.6163 103.359 37.4743 103.449 37.2758 103.531C36.8802 103.693 36.3141 103.8 35.6743 103.8C35.0345 103.8 34.4685 103.693 34.0728 103.531C33.8743 103.449 33.7323 103.359 33.6444 103.274C33.5574 103.19 33.5403 103.128 33.5403 103.091C33.5403 103.054 33.5574 102.992 33.6444 102.908C33.7323 102.823 33.8743 102.733 34.0728 102.651C34.4685 102.489 35.0345 102.382 35.6743 102.382C36.3141 102.382 36.8802 102.489 37.2758 102.651C37.4743 102.733 37.6163 102.823 37.7042 102.908C37.7913 102.992 37.8083 103.054 37.8083 103.091Z" stroke="#1F1111" stroke-width="0.565068" stroke-linecap="round" stroke-linejoin="round"/>
<path d="M33.6289 103.092V103.769V104.199C34.2611 104.486 35.964 104.887 37.7184 104.199V103.092" stroke="#1F1111" stroke-width="0.565068" stroke-linecap="round" stroke-linejoin="round"/>
<path d="M25.902 110.03C25.902 110.067 25.885 110.129 25.7979 110.214C25.71 110.299 25.568 110.389 25.3695 110.47C24.9739 110.632 24.4079 110.739 23.7681 110.739C23.1283 110.739 22.5622 110.632 22.1666 110.47C21.9681 110.389 21.8261 110.299 21.7382 110.214C21.6511 110.129 21.6341 110.067 21.6341 110.03C21.6341 109.994 21.6511 109.932 21.7382 109.847C21.8261 109.762 21.9681 109.672 22.1666 109.591C22.5622 109.429 23.1283 109.322 23.7681 109.322C24.4079 109.322 24.9739 109.429 25.3695 109.591C25.568 109.672 25.71 109.762 25.7979 109.847C25.885 109.932 25.902 109.994 25.902 110.03Z" stroke="#1F1111" stroke-width="0.565068" stroke-linecap="round" stroke-linejoin="round"/>
<path d="M21.7227 110.031V110.708V111.138C22.3548 111.425 24.0578 111.827 25.8121 111.138V110.031" stroke="#1F1111" stroke-width="0.565068" stroke-linecap="round" stroke-linejoin="round"/>
<path d="M41.8814 115.087C41.8814 115.137 41.8576 115.212 41.7583 115.308C41.6582 115.405 41.4985 115.506 41.2782 115.596C40.8388 115.777 40.2123 115.895 39.5058 115.895C38.7993 115.895 38.1728 115.777 37.7334 115.596C37.5131 115.506 37.3534 115.405 37.2533 115.308C37.154 115.212 37.1302 115.137 37.1302 115.087C37.1302 115.036 37.154 114.961 37.2533 114.865C37.3534 114.768 37.5131 114.667 37.7334 114.577C38.1728 114.397 38.7993 114.279 39.5058 114.279C40.2123 114.279 40.8388 114.397 41.2782 114.577C41.4985 114.667 41.6582 114.768 41.7583 114.865C41.8576 114.961 41.8814 115.036 41.8814 115.087Z" stroke="#1F1111" stroke-width="0.565068" stroke-linecap="round" stroke-linejoin="round"/>
<path d="M37.2539 115.086V115.831V116.304C37.9493 116.619 39.8226 117.061 41.7523 116.304V115.086" stroke="#1F1111" stroke-width="0.565068" stroke-linecap="round" stroke-linejoin="round"/>
<path d="M63.9505 138.656C63.9505 138.936 63.716 139.266 63.163 139.542C62.6269 139.81 61.8664 139.984 61.0111 139.984C60.1557 139.984 59.3952 139.81 58.8591 139.542C58.3061 139.266 58.0716 138.936 58.0716 138.656C58.0716 138.376 58.3061 138.046 58.8591 137.769C59.3952 137.501 60.1557 137.327 61.0111 137.327C61.8664 137.327 62.6269 137.501 63.163 137.769C63.716 138.046 63.9505 138.376 63.9505 138.656Z" stroke="#1F1111" stroke-width="0.565068" stroke-linecap="round" stroke-linejoin="round"/>
<path d="M58.1875 138.93V139.877V140.48C59.0726 140.881 61.4567 141.443 63.9127 140.48V138.93" stroke="#1F1111" stroke-width="0.565068" stroke-linecap="round" stroke-linejoin="round"/>
<path d="M46.0282 130.997C46.0282 131.249 45.8163 131.554 45.2997 131.812C44.8 132.062 44.0899 132.224 43.2902 132.224C42.4904 132.224 41.7803 132.062 41.2806 131.812C40.764 131.554 40.5521 131.249 40.5521 130.997C40.5521 130.744 40.764 130.44 41.2806 130.181C41.7803 129.932 42.4904 129.769 43.2902 129.769C44.0899 129.769 44.8 129.932 45.2997 130.181C45.8163 130.44 46.0282 130.744 46.0282 130.997Z" stroke="#1F1111" stroke-width="0.565068" stroke-linecap="round" stroke-linejoin="round"/>
<path d="M40.6406 131.252V132.14V132.705C41.4704 133.081 43.7055 133.608 46.008 132.705V131.252" stroke="#1F1111" stroke-width="0.565068" stroke-linecap="round" stroke-linejoin="round"/>
<path d="M88.954 142.024C88.954 142.276 88.7421 142.581 88.2255 142.839C87.7258 143.089 87.0157 143.252 86.2159 143.252C85.4162 143.252 84.7061 143.089 84.2064 142.839C83.6898 142.581 83.4778 142.276 83.4778 142.024C83.4778 141.772 83.6898 141.467 84.2064 141.209C84.7061 140.959 85.4162 140.796 86.2159 140.796C87.0157 140.796 87.7258 140.959 88.2255 141.209C88.7421 141.467 88.954 141.772 88.954 142.024Z" stroke="#1F1111" stroke-width="0.565068" stroke-linecap="round" stroke-linejoin="round"/>
<path d="M83.5664 142.279V143.168V143.732C84.3962 144.109 86.6313 144.636 88.9338 143.732V142.279" stroke="#1F1111" stroke-width="0.565068" stroke-linecap="round" stroke-linejoin="round"/>
<path d="M115.277 145.275C115.277 145.569 115.031 145.911 114.46 146.197C113.906 146.474 113.12 146.653 112.237 146.653C111.354 146.653 110.568 146.474 110.014 146.197C109.442 145.911 109.197 145.569 109.197 145.275C109.197 144.981 109.442 144.638 110.014 144.353C110.568 144.075 111.354 143.896 112.237 143.896C113.12 143.896 113.906 144.075 114.46 144.353C115.031 144.638 115.277 144.981 115.277 145.275Z" stroke="#1F1111" stroke-width="0.565068" stroke-linecap="round" stroke-linejoin="round"/>
<path d="M109.32 145.557V146.534V147.155C110.233 147.569 112.692 148.149 115.224 147.155V145.557" stroke="#1F1111" stroke-width="0.565068" stroke-linecap="round" stroke-linejoin="round"/>
<path d="M30.2186 123.885C30.2186 123.97 30.1779 124.077 30.048 124.203C29.9173 124.33 29.7134 124.457 29.4384 124.57C28.8897 124.795 28.1122 124.941 27.2388 124.941C26.3655 124.941 25.588 124.795 25.0393 124.57C24.7643 124.457 24.5604 124.33 24.4296 124.203C24.2998 124.077 24.2591 123.97 24.2591 123.885C24.2591 123.8 24.2998 123.693 24.4296 123.567C24.5604 123.44 24.7643 123.313 25.0393 123.2C25.588 122.975 26.3655 122.829 27.2388 122.829C28.1122 122.829 28.8897 122.975 29.4384 123.2C29.7134 123.313 29.9173 123.44 30.048 123.567C30.1779 123.693 30.2186 123.8 30.2186 123.885Z" stroke="#1F1111" stroke-width="0.565068" stroke-linecap="round" stroke-linejoin="round"/>
<path d="M24.4805 123.885V124.799V125.379C25.3339 125.766 27.6329 126.308 30.0012 125.379V123.885" stroke="#1F1111" stroke-width="0.565068" stroke-linecap="round" stroke-linejoin="round"/>
<path d="M35.7274 124.9C36.1198 125.954 37.4251 128.098 39.507 128.246M39.507 128.246C42.1094 128.432 46.9424 126.14 50.2883 129.238C53.6343 132.336 53.2625 133.699 60.0163 134.938C66.7701 136.177 73.338 138.532 67.3277 142.745C61.3175 146.959 54.4398 143.427 51.4037 140.267C48.3675 137.107 42.0475 136.115 39.507 135.682C36.9666 135.248 33.9925 133.947 35.2317 131.097C36.2231 128.816 38.495 128.246 39.507 128.246Z" stroke="#1F1111" stroke-width="1.13014" stroke-linecap="round" stroke-linejoin="round"/>
<path d="M18.9424 125.211C18.8804 125.727 19.1577 127.521 19.4381 128.867C19.7478 130.354 25.8201 130.478 28.7323 128.371" stroke="#1F1111" stroke-width="1.13014" stroke-linecap="round" stroke-linejoin="round"/>
<path d="M19.5 129.051C19.6446 129.608 20.9127 131.244 25.0765 131.839C30.2813 132.583 34.1229 135.619 34.9904 136.858" stroke="#1F1111" stroke-width="1.13014" stroke-linecap="round" stroke-linejoin="round"/>
<path d="M24.1445 129.92C26.623 130.188 32.6952 132.584 34.8019 135.62" stroke="#1F1111" stroke-width="1.13014" stroke-linecap="round" stroke-linejoin="round"/>
<path d="M34.9844 132.521C35.0257 133.802 34.9844 136.276 34.9844 136.673C34.9844 137.169 37.0911 138.594 39.8793 138.965C42.6017 139.328 43.6111 138.983 45.3875 138.966C45.4737 138.965 45.5596 138.976 45.6425 139C46.8854 139.357 49.8648 140.535 51.8999 142.869C54.0065 145.286 57.4764 147.206 65.0357 145.967" stroke="#1F1111" stroke-width="1.13014" stroke-linecap="round" stroke-linejoin="round"/>
<path d="M52.3359 143.551C52.3359 143.881 52.3359 144.356 52.3359 144.852C52.3359 145.472 54.8144 147.145 57.3548 147.516C59.8952 147.888 63.6749 147.702 67.6404 147.516C71.606 147.33 75.8813 148.26 80.7143 150.305C85.5473 152.349 91.3717 151.606 94.098 149.189" stroke="#1F1111" stroke-width="1.13014" stroke-linecap="round" stroke-linejoin="round"/>
<path d="M19.8092 129.857C19.6233 130.353 19.425 131.915 20.119 133.203C20.9865 134.814 27.6164 135.248 29.785 136.116C31.9537 136.983 34.1843 138.532 35.6714 140.329C37.1584 142.126 42.0534 144.852 49.9225 141.134" stroke="#1F1111" stroke-width="1.13014" stroke-linecap="round" stroke-linejoin="round"/>
<path d="M19.7461 132.027C19.7667 132.585 19.8452 135.051 19.9939 135.745C20.1798 136.612 22.1626 138.162 25.7564 138.223C28.6314 138.273 29.9284 137.955 30.2176 137.79C31.4775 138.43 34.2699 140.181 35.3604 142.065C35.5463 142.561 35.918 143.056 36.042 143.614C36.1659 144.172 36.7235 145.411 41.4946 145.969C46.2656 146.526 49.7354 148.881 52.5857 151.359C55.4359 153.838 56.861 155.077 61.694 154.705C65.5604 154.408 67.6423 153.259 68.2 152.722" stroke="#1F1111" stroke-width="1.13014" stroke-linecap="round" stroke-linejoin="round"/>
<path d="M45.272 142.746C44.5284 143.097 43.599 143.799 41.0586 144.419C43.599 144.853 48.5683 145.373 52.8313 149.934C56.3011 153.503 60.1333 152.772 64.7279 152.66C69.8087 152.536 72.82 152.437 77.6778 154.767C82.5356 157.096 87.034 156.625 89.6364 156.254" stroke="#1F1111" stroke-width="1.13014" stroke-linecap="round" stroke-linejoin="round"/>
<path d="M52.7104 145.781C52.5658 145.905 52.3015 146.475 52.4006 147.764C52.5245 149.375 54.5073 150.862 58.1011 151.048C61.6949 151.234 66.8377 150.428 71.7946 151.234C76.7515 152.039 79.8496 154.27 84.8684 154.828C89.8873 155.385 94.7823 153.403 95.278 149.437" stroke="#1F1111" stroke-width="1.13014" stroke-linecap="round" stroke-linejoin="round"/>
<path d="M69.3125 138.531C70.3452 139.13 74.1827 140.663 78.7926 140.514" stroke="#1F1111" stroke-width="1.13014" stroke-linecap="round" stroke-linejoin="round"/>
<path d="M82.0786 139.091C77.8652 139.884 77.0597 142.561 77.1836 143.8C77.3282 144.647 78.5096 146.539 82.0786 147.332C86.5398 148.323 94.9666 146.154 102.092 148.633C109.218 151.111 116.591 152.413 119.875 149.686C123.159 146.96 120.061 142.003 114.299 141.941C108.536 141.879 102.402 142.685 96.6395 141.197C90.8771 139.71 87.3453 138.099 82.0786 139.091Z" stroke="#1F1111" stroke-width="1.13014" stroke-linecap="round" stroke-linejoin="round"/>
<path d="M91.6235 153.961C91.0246 154.643 89.7027 156.068 89.207 156.315C91.1485 156.13 95.7749 155.956 98.7491 156.749C102.467 157.741 108.415 160.405 112.443 160.281C116.47 160.157 119.94 158.856 120.745 157.369" stroke="#1F1111" stroke-width="1.13014" stroke-linecap="round" stroke-linejoin="round"/>
<path d="M88.0938 149.314C94.3519 148.508 99.7425 149.128 106.001 151.359" stroke="#1F1111" stroke-width="1.13014" stroke-linecap="round" stroke-linejoin="round"/>
<path d="M103.457 150.553C103.519 151.586 104.771 153.849 109.281 154.642C114.92 155.634 120.125 153.093 120.744 151.978C121.24 151.086 121.095 148.983 121.178 147.641" stroke="#1F1111" stroke-width="1.13014" stroke-linecap="round" stroke-linejoin="round"/>
<path d="M103.766 151.172C103.766 152.306 103.766 154.737 103.766 155.385" stroke="#1F1111" stroke-width="1.13014" stroke-linecap="round" stroke-linejoin="round"/>
<path d="M103.57 151.545C103.027 151.835 102.104 152.765 102.755 154.159C103.57 155.901 108.738 157.981 113.189 157.865C117.639 157.749 120.435 155.766 120.748 154.953" stroke="#1F1111" stroke-width="1.13014" stroke-linecap="round" stroke-linejoin="round"/>
<path d="M103.395 155.139C103.436 155.965 103.63 157.791 104.076 158.485" stroke="#1F1111" stroke-width="1.13014" stroke-linecap="round" stroke-linejoin="round"/>
<path d="M80.4844 9.72281C85.0489 9.66084 104.947 9.48732 110.102 11.2718C116.546 13.5024 137.055 23.3543 139.843 55.0166C141.764 76.8271 128.133 103.471 114.191 105.646L99.7234 107.471L85.2554 109.295" stroke="#1F1111" stroke-width="1.13014" stroke-linecap="round" stroke-linejoin="round"/>
<path d="M83.2724 50.1836C81.9092 53.4676 79.9265 61.1012 83.6441 67.3469" stroke="#1F1111" stroke-width="1.13014" stroke-linecap="round" stroke-linejoin="round"/>
<path d="M89.96 59.4776C89.96 73.2739 81.3737 84.1928 71.0692 84.1928C60.7647 84.1928 52.1783 73.2739 52.1783 59.4776C52.1783 45.6812 60.7647 34.7623 71.0692 34.7623C81.3737 34.7623 89.96 45.6812 89.96 59.4776Z" stroke="#1F1111" stroke-width="1.13014" stroke-linecap="round" stroke-linejoin="round"/>
<path d="M110.281 59.664C110.281 70.7232 106.834 80.7147 101.288 87.9297C95.7416 95.1441 88.1189 99.5597 79.7414 99.5597C71.3638 99.5597 63.7412 95.1441 58.1951 87.9297C52.6485 80.7147 49.2018 70.7232 49.2018 59.664C49.2018 48.6048 52.6485 38.6132 58.1951 31.3982C63.7412 24.1839 71.3638 19.7682 79.7414 19.7682C88.1189 19.7682 95.7416 24.1839 101.288 31.3982C106.834 38.6132 110.281 48.6048 110.281 59.664Z" stroke="#1F1111" stroke-width="1.13014" stroke-linecap="round" stroke-linejoin="round"/>
<path d="M73.5431 40.8528C73.4919 41.1395 73.6669 41.4181 73.9473 41.4965C77.2443 42.4174 80.2804 44.6386 82.3574 48.2189C84.4466 51.8203 85.4685 56.3041 85.204 60.8392C84.9394 65.375 83.4097 69.597 80.9426 72.7362C78.479 75.871 75.2751 77.6869 71.9508 77.9613C68.632 78.2353 65.2984 76.9648 62.5668 74.2838C59.8272 71.5948 57.8945 67.6765 57.182 63.2251C56.4697 58.7756 57.0351 54.1525 58.7569 50.2197C60.4794 46.2852 63.2163 43.3604 66.3989 41.903C66.6176 41.8028 66.749 41.5751 66.7262 41.3356L66.4135 38.0515L74.0439 38.0514L73.5431 40.8528Z" stroke="#1F1111" stroke-width="1.13014" stroke-linecap="round" stroke-linejoin="round"/>
<path d="M124.501 57.502C124.709 64.0517 123.848 70.5854 121.969 76.7293C120.091 82.8732 117.232 88.5035 113.56 93.3005C109.888 98.0973 105.476 101.965 100.581 104.689C95.6866 107.412 90.4021 108.939 85.0288 109.189C79.6556 109.438 74.2917 108.405 69.2418 106.145C64.1914 103.885 59.5508 100.439 55.588 95.9994C51.6251 91.5593 48.4191 86.2129 46.1573 80.2629C43.8955 74.3129 42.6235 67.8791 42.4157 61.3294C42.208 54.7797 43.0687 48.246 44.9475 42.1021C46.8263 35.9582 49.6853 30.3279 53.3572 25.5309C57.0291 20.7341 61.4404 16.8664 66.3356 14.1428C71.2303 11.4194 76.5147 9.89197 81.888 9.64252C87.2613 9.39308 92.6252 10.4261 97.675 12.6864C102.725 14.9469 107.366 18.3922 111.329 22.8321C115.292 27.2721 118.498 32.6185 120.76 38.5686C123.021 44.5186 124.293 50.9524 124.501 57.502L124.501 57.502Z" stroke="#1F1111" stroke-width="1.13014" stroke-linecap="round" stroke-linejoin="round"/>
<path d="M71.1905 34.5085C77.2627 33.3726 90.9438 34.2111 97.0904 46.653C104.774 62.2053 96.6566 90.6456 68.8359 84.1397" stroke="#1F1111" stroke-width="1.13014" stroke-linecap="round" stroke-linejoin="round"/>
<line x1="102.241" y1="15.0485" x2="117.717" y2="15.164" stroke="#1F1111" stroke-width="1.13014" stroke-linecap="round"/>
<line x1="94.8185" y1="11.4661" x2="111.905" y2="11.9311" stroke="#1F1111" stroke-width="1.13014" stroke-linecap="round"/>
<line x1="110.917" y1="22.2318" x2="126.02" y2="22.2318" stroke="#1F1111" stroke-width="1.13014" stroke-linecap="round"/>
<line x1="124.549" y1="52.2201" x2="139.405" y2="52.2201" stroke="#1F1111" stroke-width="1.13014" stroke-linecap="round"/>
<line x1="123.924" y1="71.3041" x2="138.78" y2="71.3041" stroke="#1F1111" stroke-width="1.13014" stroke-linecap="round"/>
<line x1="121.202" y1="80.2279" x2="136.058" y2="80.2279" stroke="#1F1111" stroke-width="1.13014" stroke-linecap="round"/>
<line x1="117.608" y1="88.0302" x2="132.587" y2="87.915" stroke="#1F1111" stroke-width="1.13014" stroke-linecap="round"/>
<line x1="113.256" y1="93.9756" x2="129.227" y2="93.7442" stroke="#1F1111" stroke-width="1.13014" stroke-linecap="round"/>
<line x1="107.55" y1="99.7836" x2="124.761" y2="99.0858" stroke="#1F1111" stroke-width="1.13014" stroke-linecap="round"/>
<line x1="99.9531" y1="105.081" x2="120.392" y2="102.967" stroke="#1F1111" stroke-width="1.13014" stroke-linecap="round"/>
<line x1="64.2022" y1="43.5447" x2="78.0687" y2="44.3469" stroke="#1F1111" stroke-width="1.13014" stroke-linecap="round"/>
<line x1="60.9792" y1="47.013" x2="81.5374" y2="48.1878" stroke="#1F1111" stroke-width="1.13014" stroke-linecap="round"/>
<line x1="58.2955" y1="52.1309" x2="81.8268" y2="52.9587" stroke="#1F1111" stroke-width="1.13014" stroke-linecap="round"/>
<line x1="57.0616" y1="64.6231" x2="81.0881" y2="64.1497" stroke="#1F1111" stroke-width="1.13014" stroke-linecap="round"/>
<line x1="59.559" y1="70.0006" x2="82.7192" y2="68.819" stroke="#1F1111" stroke-width="1.13014" stroke-linecap="round"/>
<path d="M61.3828 73.3594L81.1201 72.2757" stroke="#1F1111" stroke-width="1.13014" stroke-linecap="round"/>
<line x1="64.1205" y1="76.0569" x2="78.9805" y2="74.7898" stroke="#1F1111" stroke-width="1.13014" stroke-linecap="round"/>
<path d="M171.254 125.378C171.147 129.166 168.095 132.651 162.939 135.161C157.811 137.657 150.743 139.108 142.957 138.887C135.172 138.667 128.198 136.818 123.219 134.035C118.214 131.237 115.364 127.585 115.472 123.797C115.579 120.008 118.631 116.524 123.787 114.014C128.915 111.517 135.982 110.067 143.768 110.287C151.554 110.508 158.528 112.357 163.506 115.14C168.512 117.938 171.361 121.589 171.254 125.378Z" stroke="#1F1111" stroke-width="1.13014" stroke-linecap="round" stroke-linejoin="round"/>
<path d="M176.961 124.821C176.831 129.402 173.053 133.591 166.721 136.595C160.419 139.585 151.743 141.315 142.19 141.044C132.645 140.774 124.099 138.375 117.992 134.853C111.855 131.314 108.323 126.735 108.453 122.146C108.585 117.497 111.162 113.653 116.763 110.94C122.396 108.212 131.047 106.656 143.173 106.655C152.723 106.927 161.284 109.146 167.404 112.486C173.556 115.844 177.09 120.241 176.961 124.821Z" stroke="#1F1111" stroke-width="1.13014" stroke-linecap="round" stroke-linejoin="round"/>
<path d="M176.3 121.491C176.444 123.076 177.585 128.863 177.24 133.224C176.686 136.267 171.452 147.171 148.117 147.995C123.47 148.865 112.282 138.993 110.25 134.619C109.224 132.907 107.566 127.772 109.142 120.926" stroke="#1F1111" stroke-width="1.13014" stroke-linecap="round" stroke-linejoin="round"/>
<path d="M101.583 132.33L99.9102 123.965L100.654 125.638L102.636 127.745L107.469 128.612L116.02 129.17L126.244 128.612L137.583 126.939L148.488 123.965L163.111 118.512L175.565 111.821L181.513 106.864L182.877 103.766L184.673 109.59V112.874L183.31 115.167L177.114 120.247L169.555 125.018L159.455 129.789L143.779 133.941L133.245 136.11L124.261 137.101H119.056L110.629 136.481L105.982 135.366L103.256 133.941L101.583 132.33Z" fill="#EEEEEE" stroke="#1F1111" stroke-width="1.13014"/>
<path fill-rule="evenodd" clip-rule="evenodd" d="M183.411 103.216C183.389 101.16 181.97 99.1537 179.413 97.6623C176.138 95.7517 170.885 94.5861 163.763 95.0234C149.579 95.8944 135.5 98.8209 120.054 107.353C112.368 111.599 106.766 115.137 103.376 118.103C101.684 119.584 100.503 120.956 99.9056 122.236C99.4836 123.141 99.3482 124.014 99.5356 124.837C99.5305 124.882 99.5315 124.929 99.5394 124.976C99.6946 125.907 99.9429 127.356 100.184 128.679C100.421 129.986 100.659 131.211 100.792 131.665C100.984 132.317 101.564 133.569 103.668 134.756C105.749 135.93 109.318 137.04 115.489 137.476C127.849 138.35 144.836 135.17 158.876 130.325C172.973 125.459 182.028 117.163 184.308 114.567C184.862 113.935 185.09 113.024 185.153 112.069C185.217 111.1 185.117 110.004 184.94 108.924C184.587 106.761 183.914 104.575 183.54 103.424C183.514 103.342 183.469 103.272 183.411 103.216ZM183.019 105.135C182.508 106.338 181.448 107.68 179.878 109.111C178.211 110.629 175.935 112.279 173.034 114.002C167.232 117.45 158.893 121.212 147.839 124.814C130.102 130.593 112.389 129.882 105.717 128.798C103.339 128.411 101.836 127.684 100.884 126.885C100.977 127.416 101.075 127.968 101.171 128.499C101.414 129.832 101.641 130.992 101.755 131.381C101.873 131.782 102.284 132.823 104.162 133.882C106.061 134.954 109.464 136.044 115.56 136.475C127.737 137.336 144.582 134.196 158.548 129.376C172.458 124.575 181.372 116.389 183.553 113.905C183.891 113.52 184.094 112.878 184.151 112.002C184.208 111.141 184.12 110.129 183.949 109.086C183.72 107.683 183.35 106.262 183.019 105.135ZM163.824 96.0255C170.829 95.5954 175.862 96.7533 178.907 98.5294C181.959 100.31 182.905 102.612 182.16 104.579C181.767 105.618 180.812 106.901 179.201 108.369C177.599 109.828 175.383 111.439 172.522 113.139C166.799 116.539 158.533 120.274 147.528 123.859C129.971 129.58 112.424 128.87 105.878 127.807C102.763 127.3 101.425 126.21 100.826 125.361C100.352 124.592 100.32 123.722 100.815 122.661C101.325 121.568 102.383 120.306 104.037 118.859C107.339 115.97 112.858 112.475 120.539 108.232C135.826 99.7873 149.753 96.8895 163.824 96.0255Z" fill="#1F1111"/>
<path d="M175.316 112.006C181.657 106.347 187.436 95.1524 156.852 96.1438" stroke="#1F1111" stroke-width="1.13014" stroke-linecap="round" stroke-linejoin="round"/>
<path d="M179.014 107.763C180.501 101.753 153.628 100.109 139.996 106.491" stroke="#1F1111" stroke-width="1.13014" stroke-linecap="round" stroke-linejoin="round"/>
<path d="M108.646 121.053C107.097 121.796 105.152 124.052 108.027 128.364" stroke="#1F1111" stroke-width="1.13014" stroke-linecap="round" stroke-linejoin="round"/>
<line x1="102.669" y1="120.354" x2="106.035" y2="123.324" stroke="#1F1111" stroke-width="1.13014" stroke-linecap="round"/>
<line x1="106.517" y1="116.403" x2="108.785" y2="119.238" stroke="#1F1111" stroke-width="1.13014" stroke-linecap="round"/>
<line x1="110.731" y1="113.52" x2="111.602" y2="114.525" stroke="#1F1111" stroke-width="1.13014" stroke-linecap="round"/>
<line x1="121.38" y1="107.762" x2="122.075" y2="108.71" stroke="#1F1111" stroke-width="1.13014" stroke-linecap="round"/>
<line x1="126.042" y1="105.204" x2="126.95" y2="107.267" stroke="#1F1111" stroke-width="1.13014" stroke-linecap="round"/>
<line x1="133.592" y1="101.752" x2="135.395" y2="106.159" stroke="#1F1111" stroke-width="1.13014" stroke-linecap="round"/>
<line x1="157.542" y1="96.5835" x2="158.478" y2="102.407" stroke="#1F1111" stroke-width="1.13014" stroke-linecap="round"/>
<line x1="166.139" y1="96.3073" x2="166.139" y2="101.869" stroke="#1F1111" stroke-width="1.13014" stroke-linecap="round"/>
<line x1="172.73" y1="97.7557" x2="171.925" y2="102.589" stroke="#1F1111" stroke-width="1.13014" stroke-linecap="round"/>
<line x1="176.245" y1="98.9204" x2="174.948" y2="103.411" stroke="#1F1111" stroke-width="1.13014" stroke-linecap="round"/>
<line x1="179.154" y1="101.061" x2="177.71" y2="104.719" stroke="#1F1111" stroke-width="1.13014" stroke-linecap="round"/>
<path d="M114.334 129.016C110.844 125.897 105.784 116.871 121.088 109.25" stroke="#1F1111" stroke-width="1.13014" stroke-linecap="round"/>
<line x1="175.674" y1="130.139" x2="175.674" y2="136.568" stroke="#1F1111" stroke-width="1.13014" stroke-linecap="round"/>
<line x1="172.339" y1="133.485" x2="172.339" y2="139.666" stroke="#1F1111" stroke-width="1.13014" stroke-linecap="round"/>
<line x1="164.772" y1="138.194" x2="164.772" y2="144.375" stroke="#1F1111" stroke-width="1.13014" stroke-linecap="round"/>
<line x1="138.108" y1="141.268" x2="138.108" y2="147.45" stroke="#1F1111" stroke-width="1.13014" stroke-linecap="round"/>
<line x1="127.85" y1="139.061" x2="127.85" y2="145.242" stroke="#1F1111" stroke-width="1.13014" stroke-linecap="round"/>
<line x1="124.378" y1="137.45" x2="124.378" y2="144.375" stroke="#1F1111" stroke-width="1.13014" stroke-linecap="round"/>
<line x1="121.651" y1="137.327" x2="121.651" y2="143.26" stroke="#1F1111" stroke-width="1.13014" stroke-linecap="round"/>
<line x1="119.046" y1="137.45" x2="119.046" y2="141.896" stroke="#1F1111" stroke-width="1.13014" stroke-linecap="round"/>
<line x1="116.44" y1="137.327" x2="116.44" y2="140.658" stroke="#1F1111" stroke-width="1.13014" stroke-linecap="round"/>
<line x1="103.218" y1="128.045" x2="103.144" y2="133.637" stroke="#1F1111" stroke-width="1.13014" stroke-linecap="round"/>
<line x1="105.624" y1="129.241" x2="105.624" y2="135.327" stroke="#1F1111" stroke-width="1.13014" stroke-linecap="round"/>
<line x1="108.038" y1="129.241" x2="108.038" y2="135.327" stroke="#1F1111" stroke-width="1.13014" stroke-linecap="round"/>
<line x1="111.647" y1="129.241" x2="111.647" y2="136.53" stroke="#1F1111" stroke-width="1.13014" stroke-linecap="round"/>
<line x1="118.862" y1="129.241" x2="118.862" y2="136.53" stroke="#1F1111" stroke-width="1.13014" stroke-linecap="round"/>
<line x1="157.491" y1="121.828" x2="159.874" y2="129.302" stroke="#1F1111" stroke-width="1.13014" stroke-linecap="round"/>
<line x1="169.296" y1="115.611" x2="172.557" y2="123.004" stroke="#1F1111" stroke-width="1.13014" stroke-linecap="round"/>
<line x1="176.769" y1="110.942" x2="179.56" y2="117.704" stroke="#1F1111" stroke-width="1.13014" stroke-linecap="round"/>
<line x1="179.162" y1="109.751" x2="181.723" y2="116.258" stroke="#1F1111" stroke-width="1.13014" stroke-linecap="round"/>
<line x1="181.566" y1="107.36" x2="184.148" y2="114.355" stroke="#1F1111" stroke-width="1.13014" stroke-linecap="round"/>
</g>
</svg>
