<svg width="48" height="54" viewBox="0 0 48 54" fill="none" xmlns="http://www.w3.org/2000/svg">
<path d="M1 14.0454V1H2.86363C2.33743 3.80641 4.06951 4.61764 5.00132 4.67245V10.647C2.45802 10.6032 2.51648 12.8943 2.86363 14.0454H1Z" stroke="black"/>
<path d="M8.34766 14.0454V1H10.2113C9.68509 3.80641 11.4172 4.61764 12.349 4.67245V10.647C9.80567 10.6032 9.86414 12.8943 10.2113 14.0454H8.34766Z" stroke="black"/>
<path d="M12.3516 10.6465H17.8876V4.67188H12.3516" stroke="black" stroke-width="0.894013"/>
<path d="M5.05859 5.38477H8.34735" stroke="black"/>
<path d="M17.8828 5.38477H24.7892" stroke="black"/>
<path d="M5.05859 9.99023H8.34735" stroke="black"/>
<path d="M17.8828 9.99023H24.7892" stroke="black"/>
<path d="M18.1331 6.6136H21.0119C21.6142 6.6136 22.1026 7.10193 22.1026 7.7043C22.1026 8.30668 21.6142 8.795 21.0119 8.795H18.1331V6.6136Z" stroke="black" stroke-width="0.500647"/>
<circle cx="16.2374" cy="7.79597" r="1.092" stroke="black" stroke-width="0.447007"/>
<circle cx="16.2356" cy="7.79617" r="0.324623" stroke="black" stroke-width="0.447007"/>
<rect x="24.6406" y="5.07617" width="2.57605" height="5.25809" stroke="black"/>
<rect x="27.3203" y="5.07617" width="6.15211" height="5.25809" stroke="black"/>
<path d="M26.8228 10.3867L21.0117 15.7508" stroke="black"/>
<path d="M33.5281 10.3867L28.1641 15.7508" stroke="black"/>
<rect x="21.0664" y="15.8047" width="7.94013" height="1.68204" stroke="black"/>
<path d="M21.5158 17.6094L21.4609 21.8848H28.2029V17.6094" stroke="black"/>
<path d="M21.5153 21.8301L21.4725 34.2668C21.4661 36.1147 22.9624 37.6161 24.8103 37.6161V37.6161C26.6537 37.6161 28.1481 36.1217 28.1481 34.2783V21.8301" stroke="black"/>
<path d="M23.2794 37.0664L23.2534 51.042C23.2515 52.0413 24.0611 52.8525 25.0605 52.8525V52.8525C26.0586 52.8525 26.8676 52.0434 26.8676 51.0453V37.0664" stroke="black"/>
<path d="M27.6406 23.3496H29.3398" stroke="black"/>
<path d="M27.6406 24.666H29.3398" stroke="black"/>
<path d="M27.6406 25.9941H30.6005" stroke="black"/>
<path d="M27.6406 27.3105H30.7101" stroke="black"/>
<path d="M29.943 22.706C29.1099 22.7937 29.1939 24.4235 29.3401 25.2274C30.7431 25.0958 30.8384 26.5977 30.7106 27.3651C32.2454 29.5028 35.0408 35.0937 38.1651 39.972C41.2895 44.8503 44.7975 46.9332 45.0167 47.2621C45.236 47.591 45.0715 48.742 45.51 48.9613C47.3189 49.345 48.141 46.5495 45.8937 44.5215C43.6464 42.4934 41.2895 40.0816 38.1651 34.1071C35.6657 29.3274 33.1041 24.9899 32.1357 23.4186C30.9299 23.3638 30.9845 22.5964 29.943 22.706Z" stroke="black"/>
</svg>
