<svg width="61" height="62" viewBox="0 0 61 62" fill="none" xmlns="http://www.w3.org/2000/svg">
<path d="M2.86935 39.6242C2.4945 39.6242 2.19462 39.5126 1.96971 39.2893C1.7448 39.0661 1.63235 38.7685 1.63235 38.3964V37.5593C1.63235 37.1872 1.72606 36.8338 1.91348 36.4989C2.13839 36.1268 2.51324 35.699 3.03803 35.2153L17.6009 20.7608C19.0253 19.4586 20.1124 18.3239 20.8621 17.3565C21.6118 16.3892 22.1178 15.4404 22.3802 14.5103C22.6801 13.5429 22.83 12.4825 22.83 11.3292C22.83 8.83638 22.0991 6.88308 20.6372 5.46925C19.2127 4.05543 17.1698 3.34852 14.5084 3.34852C12.8216 3.34852 11.3597 3.68338 10.1227 4.35308C8.88567 5.02279 7.91106 5.97153 7.19885 7.19933C6.48664 8.38991 6.01808 9.78513 5.79317 11.385C5.75568 11.8314 5.587 12.1663 5.28712 12.3895C4.98724 12.5756 4.72485 12.6686 4.49994 12.6686H3.37539C3.00055 12.6686 2.70067 12.5756 2.47576 12.3895C2.28833 12.1663 2.19462 11.9059 2.19462 11.6082C2.23211 10.3432 2.4945 9.04101 2.9818 7.7016C3.46911 6.32499 4.20006 5.05999 5.17467 3.90661C6.18676 2.75323 7.46124 1.82309 8.99812 1.11617C10.535 0.372058 12.3718 0 14.5084 0C17.3572 0 19.6438 0.539484 21.3681 1.61845C23.1299 2.69742 24.4044 4.09264 25.1916 5.80411C25.9788 7.51558 26.3723 9.35726 26.3723 11.3292C26.3723 12.8546 26.1474 14.2684 25.6976 15.5706C25.2478 16.8356 24.5731 18.082 23.6734 19.3098C22.7738 20.5004 21.6305 21.7282 20.2436 22.9932L7.08639 36.2757H25.9225C26.3349 36.2757 26.6535 36.3873 26.8784 36.6105C27.1033 36.8338 27.2158 37.15 27.2158 37.5593V38.3964C27.2158 38.7685 27.1033 39.0661 26.8784 39.2893C26.6535 39.5126 26.3349 39.6242 25.9225 39.6242H2.86935Z" fill="#AB2421"/>
<path d="M52.341 39.6242C51.9662 39.6242 51.6663 39.5126 51.4414 39.2893C51.2165 39.0661 51.104 38.7685 51.104 38.3964V29.5786H32.549C32.1742 29.5786 31.8743 29.467 31.6494 29.2438C31.4245 29.0205 31.312 28.7229 31.312 28.3508V27.4579C31.312 27.3835 31.3495 27.1788 31.4245 26.844C31.4994 26.5091 31.6681 26.1557 31.9305 25.7836L49.0236 1.50684C49.4734 0.874336 50.1669 0.558087 51.104 0.558087H53.4093C53.7842 0.558087 54.084 0.669705 54.309 0.892941C54.5339 1.11618 54.6463 1.41382 54.6463 1.78588V26.2301H59.763C60.1378 26.2301 60.4377 26.3417 60.6626 26.5649C60.8875 26.7882 61 27.0858 61 27.4579V28.3508C61 28.7229 60.8875 29.0205 60.6626 29.2438C60.4377 29.467 60.1378 29.5786 59.763 29.5786H54.6463V38.3964C54.6463 38.7685 54.5339 39.0661 54.309 39.2893C54.084 39.5126 53.7842 39.6242 53.4093 39.6242H52.341ZM35.754 26.2301H51.104V4.52051L35.754 26.2301Z" fill="#AB2421"/>
<path d="M10.3892 61.7151C10.1978 61.7151 10.0448 61.6582 9.92997 61.5442C9.81517 61.4303 9.75778 61.2784 9.75778 61.0885V55.2774C9.22205 55.8091 8.57154 56.1984 7.80622 56.4453C7.0409 56.6732 6.16079 56.7871 5.16588 56.7871C3.53959 56.7871 2.26725 56.4548 1.34887 55.7901C0.449623 55.1254 0 54.043 0 52.5427V47.5293C0 47.3394 0.0573986 47.1874 0.172196 47.0735C0.286993 46.9595 0.440056 46.9026 0.631385 46.9026H1.11927C1.3106 46.9026 1.46367 46.9595 1.57846 47.0735C1.69326 47.1874 1.75066 47.3394 1.75066 47.5293V52.4003C1.75066 53.3308 2.03765 54.024 2.61164 54.4798C3.20476 54.9166 4.09444 55.1349 5.28068 55.1349C6.63911 55.1349 7.72012 54.9735 8.5237 54.6507C9.34642 54.3279 9.75778 53.7297 9.75778 52.8561V47.5293C9.75778 47.3394 9.81517 47.1874 9.92997 47.0735C10.0448 46.9595 10.1978 46.9026 10.3892 46.9026H10.877C11.0684 46.9026 11.2214 46.9595 11.3362 47.0735C11.451 47.1874 11.5084 47.3394 11.5084 47.5293V61.0885C11.5084 61.2784 11.451 61.4303 11.3362 61.5442C11.2214 61.6582 11.0684 61.7151 10.877 61.7151H10.3892Z" fill="#AB2421"/>
<path d="M20.1855 62C19.2671 62 18.4157 61.8101 17.6313 61.4303C16.8659 61.0505 16.2441 60.5472 15.7658 59.9205C15.2875 59.2749 15.0483 58.5532 15.0483 57.7556C15.0483 56.4643 15.5745 55.4293 16.6268 54.6507C17.6791 53.8721 19.0471 53.3688 20.7308 53.1409L25.2653 52.5143V51.5173C25.2653 50.5108 24.9496 49.7227 24.3182 49.1529C23.706 48.5642 22.7206 48.2699 21.3622 48.2699C20.3673 48.2699 19.5637 48.4693 18.9514 48.8681C18.3392 49.2479 17.9183 49.7511 17.6887 50.3778C17.593 50.6627 17.4112 50.8051 17.1434 50.8051H16.6842C16.4546 50.8051 16.292 50.7481 16.1963 50.6342C16.1006 50.5013 16.0528 50.3493 16.0528 50.1784C16.0528 49.9126 16.1485 49.5802 16.3398 49.1814C16.5503 48.7826 16.8659 48.3933 17.2869 48.0135C17.7078 47.6147 18.2531 47.2824 18.9227 47.0165C19.5924 46.7507 20.4055 46.6177 21.3622 46.6177C22.491 46.6177 23.419 46.7696 24.146 47.0735C24.8922 47.3773 25.4662 47.7761 25.868 48.2699C26.2889 48.7447 26.5854 49.2764 26.7576 49.8651C26.9298 50.4538 27.0159 51.033 27.0159 51.6027V61.0885C27.0159 61.2784 26.9585 61.4303 26.8437 61.5442C26.7289 61.6582 26.5759 61.7151 26.3846 61.7151H25.8967C25.7053 61.7151 25.5523 61.6582 25.4375 61.5442C25.3227 61.4303 25.2653 61.2784 25.2653 61.0885V59.7496C25.0357 60.0915 24.7104 60.4333 24.2895 60.7751C23.8686 61.1169 23.3233 61.4113 22.6536 61.6582C22.0031 61.8861 21.1804 62 20.1855 62ZM20.4725 60.3478C21.3526 60.3478 22.1562 60.1579 22.8832 59.7781C23.6103 59.3983 24.1843 58.8191 24.6052 58.0405C25.0453 57.2429 25.2653 56.2459 25.2653 55.0495V54.081L21.5631 54.5937C19.9942 54.8026 18.8079 55.1634 18.0043 55.6762C17.2008 56.1889 16.799 56.8346 16.799 57.6132C16.799 58.2399 16.9807 58.7526 17.3443 59.1514C17.7078 59.5502 18.167 59.8541 18.7218 60.063C19.2958 60.2529 19.8794 60.3478 20.4725 60.3478Z" fill="#AB2421"/>
<path d="M37.208 62C35.8687 62 34.7303 61.7436 33.7928 61.2309C32.8553 60.6992 32.1378 59.9395 31.6403 58.952C31.162 57.9645 30.9037 56.7966 30.8655 55.4483C30.8463 55.1634 30.8368 54.7836 30.8368 54.3089C30.8368 53.8341 30.8463 53.4543 30.8655 53.1694C30.9037 51.8021 31.162 50.6342 31.6403 49.6657C32.1378 48.6782 32.8553 47.9281 33.7928 47.4153C34.7303 46.8836 35.8687 46.6177 37.208 46.6177C38.2221 46.6177 39.0926 46.7601 39.8197 47.045C40.5658 47.3109 41.1781 47.6717 41.6564 48.1275C42.1347 48.5642 42.4983 49.0485 42.747 49.5802C42.9957 50.112 43.1296 50.6342 43.1488 51.1469C43.1679 51.3368 43.1105 51.4888 42.9766 51.6027C42.8427 51.7167 42.6896 51.7736 42.5174 51.7736H42.1156C41.9243 51.7736 41.7808 51.7357 41.6851 51.6597C41.6086 51.5647 41.5225 51.4033 41.4268 51.1754C41.025 50.093 40.4702 49.3429 39.7623 48.9251C39.0735 48.4883 38.2221 48.2699 37.208 48.2699C35.907 48.2699 34.826 48.6687 33.965 49.4663C33.1231 50.2449 32.6735 51.5268 32.6161 53.3119C32.5779 53.9765 32.5779 54.6412 32.6161 55.3059C32.6735 57.091 33.1231 58.3823 33.965 59.1799C34.826 59.9585 35.907 60.3478 37.208 60.3478C38.2221 60.3478 39.0735 60.1389 39.7623 59.7211C40.4702 59.2844 41.025 58.5247 41.4268 57.4423C41.5225 57.2144 41.6086 57.0625 41.6851 56.9865C41.7808 56.8916 41.9243 56.8441 42.1156 56.8441H42.5174C42.6896 56.8441 42.8427 56.9011 42.9766 57.015C43.1105 57.1289 43.1679 57.2809 43.1488 57.4708C43.1296 57.8886 43.0435 58.3064 42.8905 58.7241C42.7374 59.1419 42.4983 59.5502 42.173 59.949C41.8669 60.3478 41.4842 60.6992 41.025 61.003C40.5658 61.3068 40.011 61.5442 39.3605 61.7151C38.7291 61.905 38.0116 62 37.208 62Z" fill="#AB2421"/>
<path d="M50.9588 62C50.0404 62 49.189 61.8101 48.4046 61.4303C47.6393 61.0505 47.0174 60.5472 46.5391 59.9205C46.0608 59.2749 45.8216 58.5532 45.8216 57.7556C45.8216 56.4643 46.3478 55.4293 47.4001 54.6507C48.4524 53.8721 49.8204 53.3688 51.5041 53.1409L56.0386 52.5143V51.5173C56.0386 50.5108 55.7229 49.7227 55.0915 49.1529C54.4793 48.5642 53.4939 48.2699 52.1355 48.2699C51.1406 48.2699 50.337 48.4693 49.7247 48.8681C49.1125 49.2479 48.6916 49.7511 48.462 50.3778C48.3663 50.6627 48.1845 50.8051 47.9167 50.8051H47.4575C47.2279 50.8051 47.0653 50.7481 46.9696 50.6342C46.8739 50.5013 46.8261 50.3493 46.8261 50.1784C46.8261 49.9126 46.9218 49.5802 47.1131 49.1814C47.3236 48.7826 47.6393 48.3933 48.0602 48.0135C48.4811 47.6147 49.0264 47.2824 49.696 47.0165C50.3657 46.7507 51.1788 46.6177 52.1355 46.6177C53.2643 46.6177 54.1923 46.7696 54.9193 47.0735C55.6655 47.3773 56.2395 47.7761 56.6413 48.2699C57.0622 48.7447 57.3588 49.2764 57.531 49.8651C57.7032 50.4538 57.7892 51.033 57.7892 51.6027V61.0885C57.7892 61.2784 57.7319 61.4303 57.6171 61.5442C57.5023 61.6582 57.3492 61.7151 57.1579 61.7151H56.67C56.4786 61.7151 56.3256 61.6582 56.2108 61.5442C56.096 61.4303 56.0386 61.2784 56.0386 61.0885V59.7496C55.809 60.0915 55.4837 60.4333 55.0628 60.7751C54.6419 61.1169 54.0966 61.4113 53.427 61.6582C52.7764 61.8861 51.9537 62 50.9588 62ZM51.2458 60.3478C52.1259 60.3478 52.9295 60.1579 53.6565 59.7781C54.3836 59.3983 54.9576 58.8191 55.3785 58.0405C55.8186 57.2429 56.0386 56.2459 56.0386 55.0495V54.081L52.3364 54.5937C50.7675 54.8026 49.5812 55.1634 48.7777 55.6762C47.9741 56.1889 47.5723 56.8346 47.5723 57.6132C47.5723 58.2399 47.754 58.7526 48.1176 59.1514C48.4811 59.5502 48.9403 59.8541 49.4951 60.063C50.0691 60.2529 50.6527 60.3478 51.2458 60.3478Z" fill="#AB2421"/>
</svg>
