<svg width="122" height="33" viewBox="0 0 122 33" fill="none" xmlns="http://www.w3.org/2000/svg">
<path d="M12.7749 30.3407C19.8302 30.3407 25.5497 24.6212 25.5497 17.5659C25.5497 10.5105 19.8302 4.79102 12.7749 4.79102C5.7195 4.79102 0 10.5105 0 17.5659C0 24.6212 5.7195 30.3407 12.7749 30.3407Z" fill="#FF4644"/>
<path d="M43.8817 25.9325L42.7 22.9304H35.61L34.4283 25.9325H30.021L36.8236 9.86813C36.9514 9.54876 37.3027 9.3252 37.622 9.3252H40.688C41.0713 9.3252 41.3587 9.51682 41.4864 9.86813L48.321 25.9325H43.8817ZM39.187 13.9241L37.0472 19.3854H41.3267L39.187 13.9241Z" fill="#3B3B3B"/>
<path d="M72.0502 18.1086V25.9012H68.0581V18.9709C68.0581 17.5656 67.1319 16.6714 65.9502 16.6714C64.4811 16.6714 63.4911 17.7253 63.4911 19.8012V25.9012H59.467V18.9709C59.467 17.5656 58.5408 16.6714 57.3272 16.6714C55.89 16.6714 54.9319 17.7253 54.9319 19.8012V25.9012H50.9078V14.2442C50.9078 13.829 51.2911 13.4457 51.7063 13.4457H54.9319V14.5955C55.7623 13.6374 57.0078 13.0625 58.6366 13.0625C60.3612 13.0625 61.8942 13.829 62.7565 15.1704C63.7466 13.8929 65.2796 13.0625 67.1958 13.0625C69.9104 13.0944 72.0502 15.1065 72.0502 18.1086Z" fill="#3B3B3B"/>
<path d="M88.6256 25.9325H84.6334V24.9105C83.6753 25.7728 82.3659 26.2519 80.7371 26.2519C77.3837 26.2519 74.5732 23.6011 74.5732 19.6728C74.5732 15.7765 77.3837 13.0938 80.7371 13.0938C82.3659 13.0938 83.6753 13.6047 84.6334 14.4351V13.4451H88.6575V25.9325H88.6256ZM84.6334 19.7047C84.6334 17.7885 83.1963 16.4791 81.5675 16.4791C79.8429 16.4791 78.5334 17.7885 78.5334 19.7047C78.5334 21.621 79.8109 22.9304 81.5675 22.9304C83.1963 22.8985 84.6334 21.621 84.6334 19.7047Z" fill="#3B3B3B"/>
<path d="M105.425 25.933H101.401V24.911C100.442 25.7733 99.133 26.2523 97.5042 26.2523C94.1508 26.2523 91.3403 23.6015 91.3403 19.6733C91.3403 15.7769 94.1508 13.0942 97.5042 13.0942C99.133 13.0942 100.442 13.6052 101.401 14.4356V8.08008H105.425V25.933ZM101.401 19.7052C101.401 17.789 99.9634 16.4796 98.3346 16.4796C96.61 16.4796 95.3005 17.789 95.3005 19.7052C95.3005 21.6214 96.578 22.9309 98.3346 22.9309C99.9314 22.8989 101.401 21.6214 101.401 19.7052Z" fill="#3B3B3B"/>
<path d="M122 19.7053C122 23.6336 118.838 26.2844 115.101 26.2844C111.301 26.2844 108.139 23.6655 108.139 19.7053C108.139 15.809 111.269 13.1582 115.101 13.1582C118.838 13.1582 122 15.7771 122 19.7053ZM118.135 19.7053C118.135 17.7891 116.666 16.4797 115.101 16.4797C113.473 16.4797 112.004 17.7572 112.004 19.7053C112.004 21.6535 113.473 22.931 115.101 22.931C116.634 22.899 118.135 21.6535 118.135 19.7053Z" fill="#3B3B3B"/>
<path d="M5.36546 31.0746C5.33353 31.0427 5.30159 31.0427 5.26965 31.0107C5.33353 31.0427 5.36546 31.0427 5.36546 31.0746Z" fill="#5637E3"/>
<path d="M2.45918 27.2104C2.45918 27.1784 2.42725 27.1784 2.42725 27.1465C2.42725 27.1784 2.45918 27.1784 2.45918 27.2104Z" fill="#5637E3"/>
<path d="M36.7916 0C36.2486 0.287434 35.8973 0.798429 35.3544 1.08586C35.3544 1.05393 35.3544 1.02199 35.3544 0.990052C35.1947 1.08586 35.2266 1.14974 35.1628 1.24555C35.1308 1.30942 35.0031 1.3733 34.9392 1.3733C34.8434 1.3733 34.9073 1.3733 34.8753 1.30942C34.8753 1.34136 33.9172 2.01204 33.7895 2.10785C33.5978 2.26754 33.4382 2.39529 33.2465 2.55497C33.0868 2.68272 32.9272 2.93822 32.7675 3.03403C32.6717 3.09791 32.5439 3.09791 32.4162 3.19372C32.2565 3.28953 32.1287 3.41728 31.969 3.51309C31.8413 3.6089 31.6816 3.64084 31.5858 3.70471C31.3942 3.8644 31.3622 4.08796 31.2664 4.24764C31.1067 4.43927 30.8193 4.59895 30.6277 4.7267C30.4041 4.88639 30.2125 5.04607 30.0209 5.2377C29.6057 5.589 29.1586 5.94031 28.7434 6.29162C27.945 6.99424 27.1465 7.72879 26.38 8.46335C25.9329 8.87853 25.4858 9.32565 25.0067 9.74084C24.7832 9.93246 24.5916 10.1241 24.368 10.3476C24.2402 10.4754 24.1444 10.5712 24.0486 10.699C23.9848 10.8267 23.8889 10.9864 23.8251 11.1141C23.7612 9.4534 22.5156 7.79267 20.7591 7.72879C20.791 7.66492 20.791 7.63298 20.823 7.56911C19.2581 7.40942 17.757 7.63298 16.2879 8.27173C14.9465 8.84659 13.7329 9.7089 12.7109 10.7309C12.5193 10.0602 12.2638 9.32565 11.8806 8.71885C11.7848 8.5911 11.6889 8.43141 11.5931 8.30366C11.5612 8.27173 11.4015 7.98429 11.4334 8.17591C11.3376 7.66492 10.9225 7.05811 10.5711 6.70681C10.6031 6.70681 10.635 6.73874 10.667 6.77068C10.4753 6.41937 10.156 6.29162 9.86853 6.03612C9.74078 5.94031 9.64497 5.74869 9.51722 5.68482C9.38947 5.62094 9.22978 5.55707 9.10203 5.49319C8.91041 5.36544 8.71879 5.30157 8.49523 5.2377C8.39942 5.20576 8.30361 5.17382 8.20779 5.17382C8.14392 5.17382 7.98423 5.20576 7.92036 5.17382C7.85648 5.14188 7.82455 5.07801 7.79261 5.04607C7.6968 5.01414 7.56905 5.01414 7.47324 5.01414C7.24968 4.9822 7.02612 5.01414 6.80256 5.01414C5.97219 5.07801 5.10989 5.36544 4.40727 5.8445C4.05596 6.1 3.76853 6.45131 3.44916 6.77068C3.09785 7.12199 2.74654 7.50523 2.55492 7.98429C2.4591 8.20785 2.42717 8.36754 2.33136 8.55916C2.20361 8.75078 2.1078 8.94241 2.01198 9.13403C1.78842 9.61309 1.5968 10.1241 1.53293 10.6351C1.53293 10.6031 1.53293 10.5712 1.53293 10.5393C1.37324 11.1461 1.24549 11.7848 1.18162 12.3916C1.14968 12.6471 1.14968 12.9026 1.18162 13.1262C1.18162 13.1581 1.21355 13.2539 1.21355 13.2859C1.18162 13.3817 1.18162 13.3497 1.11774 13.4455C1.02193 13.5733 0.958057 13.6372 0.894183 13.7969C0.798371 14.0204 0.734497 14.2759 0.734497 14.4995C0.734497 14.7869 0.766434 15.0424 0.766434 15.3298C0.766434 15.9366 0.734497 16.5435 0.830309 17.1503C0.862246 17.3419 0.798371 17.4696 0.798371 17.6932C0.798371 17.8529 0.798371 18.0126 0.766434 18.1722C0.766434 18.2361 0.734497 18.1722 0.734497 18.2681C0.734497 18.3319 0.766434 18.4277 0.766434 18.4916C0.798371 18.6513 0.830309 18.811 0.862246 18.9707C0.92612 19.322 0.989994 19.6733 1.05387 20.0246C1.30937 21.4298 1.56486 22.8351 1.8523 24.2403C2.01198 25.0068 2.17167 25.7733 2.36329 26.5717C2.39523 26.7633 2.42717 26.955 2.49104 27.1466C2.55492 27.3063 2.65073 27.4021 2.81041 27.4979C3.09785 27.6895 3.60884 28.0728 3.5769 28.0089C3.89628 28.456 4.15177 29.5419 4.0879 29.478C4.47115 29.7654 4.59889 30.3084 5.01408 30.6277C5.10989 30.6916 5.23764 30.7236 5.30151 30.7874C5.33345 30.8194 5.26957 30.8513 5.33345 30.8832C5.42926 30.9471 5.58895 31.2026 5.4612 31.1387C7.08999 32.3523 9.16591 32.2885 10.8266 31.1387C12.3916 30.0529 13.4136 28.3602 14.4675 26.8272C15.1701 25.8052 15.9047 24.8152 16.6711 23.8251C16.6711 23.889 16.6711 23.9529 16.6392 24.0167C16.767 23.7293 16.8628 23.4419 16.9905 23.1225C17.0225 23.1544 17.0225 23.2183 17.0225 23.2822C17.8848 22.4838 18.2361 21.334 18.9387 20.4079C19.0026 20.4717 19.0026 20.5995 19.0984 20.5995C19.1942 20.5995 19.2261 20.3759 19.2581 20.2801C19.3539 20.0885 19.4816 19.9607 19.6413 19.833C19.9607 19.5775 20.1204 19.3539 19.8968 18.9707C19.9926 18.9707 20.0884 19.0665 20.1204 19.1623C20.9507 17.6293 21.813 16.1283 22.7711 14.6911C22.9947 14.3717 23.1863 14.0524 23.4099 13.733C23.5057 13.5733 23.6334 13.4136 23.7293 13.222C23.8251 13.0304 23.8251 12.8068 23.857 12.5832C23.8889 12.3277 23.8889 12.1681 24.0486 11.9764C24.1764 11.8168 24.3041 11.689 24.4319 11.5293C24.7193 11.2099 25.0067 10.8906 25.3261 10.5712C25.3261 10.6351 25.5497 10.4115 25.5497 10.4435C26.0287 10.3476 26.3162 9.86858 26.5717 9.51728C26.6994 9.35759 26.7952 9.1979 26.9549 9.10209C27.0188 9.07016 27.1465 9.03822 27.1785 9.00628C27.2743 8.87853 27.1785 8.75078 27.0507 8.71885C27.913 7.85654 28.7753 7.02618 29.6696 6.19581C30.1167 5.78063 30.5638 5.36544 30.979 4.95026C31.2026 4.75864 31.4261 4.53508 31.6177 4.34345C31.7455 4.21571 32.0649 3.76859 32.2565 3.99215C32.9272 3.22565 33.6936 2.55497 34.4921 1.94817C34.9073 1.6288 35.3224 1.34136 35.7057 1.05393C35.8334 0.958115 36.8874 0.159686 36.8874 0.159686C36.7916 0 36.7277 0.0638743 36.7277 0.0638743C36.7277 0.0319372 36.7596 0.0319372 36.7916 0C36.5999 0.127749 36.1847 0.287434 36.7916 0ZM19.9287 8.52722C20.8868 8.65497 21.7811 9.03822 22.5476 9.64502C22.7392 9.80471 22.8989 9.93246 23.0266 10.188C23.1224 10.4115 23.1863 10.6351 23.2183 10.8586C23.2502 11.0822 23.2502 11.3058 23.2183 11.5293C23.2183 11.6251 23.2183 11.7529 23.1544 11.8487C23.0905 11.9764 22.9308 12.0722 22.835 12.1681C22.4198 12.5194 21.9408 12.8387 21.5256 13.1581C21.302 13.3178 21.1104 13.5094 20.9188 13.6691C20.823 13.7649 20.7272 13.8607 20.6313 13.9885C20.5675 14.0524 20.5036 14.212 20.4397 14.0843C20.28 14.4356 20.0245 14.755 19.801 15.0424C19.6732 15.1702 19.5774 15.2979 19.4497 15.4257C19.3219 15.5215 19.1303 15.6492 19.0664 15.777C18.9706 15.9366 19.0026 16.1602 18.9387 16.3518C18.8748 16.4796 18.7471 16.5435 18.6193 16.6073C18.3957 16.767 18.2041 16.9267 18.0125 17.0864C16.5115 18.2681 15.2659 19.6733 13.8287 20.9508C12.5512 22.0686 10.7947 23.0906 9.13397 22.1644C8.84654 22.0047 8.5591 21.7492 8.39942 21.4298C8.23973 21.1424 8.27167 20.7911 8.30361 20.4717C8.39942 19.6094 8.87847 18.8429 9.26172 18.1084C10.1879 16.3838 12.5193 13.1581 12.4554 13.2859C12.6151 13.0623 12.8067 12.8707 13.0303 12.6791C13.0303 12.8068 13.0942 12.9026 13.0942 13.0304C13.0942 13.0623 13.0622 13.0623 13.0622 13.0623C13.0303 13.2539 13.1261 13.3817 13.0942 13.5414C13.0942 13.6691 12.9984 14.4995 12.9984 14.5314C12.9664 14.5633 12.9664 14.6272 12.9345 14.6592C12.9026 14.6592 12.7748 15.3618 12.9345 15.3618C13.0303 15.3618 12.9984 14.9785 13.0303 14.8827C13.0942 14.6272 13.1261 14.3398 13.19 14.0524C13.2539 13.733 13.19 13.4136 13.1581 13.0942C13.1581 12.9984 13.1581 12.9026 13.1581 12.8068C13.1581 12.7429 13.0942 12.5832 13.1261 12.5194C13.1581 12.4555 13.3177 12.3277 13.3816 12.2958C13.9565 11.7848 18.1083 8.27173 19.9287 8.52722ZM21.5256 15.0105C20.5036 16.7351 19.4177 18.4277 18.3638 20.1524C18.3319 20.1204 18.2999 20.1204 18.268 20.0885C17.4376 21.5895 16.3198 22.8989 15.202 24.1764C14.6591 24.8152 14.1162 25.4539 13.6052 26.0927C13.3497 26.444 13.0622 26.7953 12.8067 27.1466C12.5512 27.5298 12.2319 27.8811 11.9125 28.2325C10.8266 29.5099 9.48528 31.0429 7.63292 30.9471C6.77062 30.9152 5.97219 30.5 5.36539 29.8932C4.79052 29.3183 4.50308 28.5199 4.11984 27.8492C3.67272 27.0508 3.16172 26.2523 2.77848 25.422C2.39523 24.5916 2.20361 23.7932 2.13973 22.867C2.01198 20.9827 1.82036 19.0984 1.69261 17.2461C1.56486 15.4257 1.53293 13.5094 1.78842 11.689C1.91617 10.7948 2.26748 9.83665 2.61879 9.00628C2.93816 8.20785 3.38528 7.4733 3.96015 6.86649C5.2057 5.589 7.15387 4.82251 8.84654 5.71675C9.64497 6.16387 10.2837 6.64293 10.7947 7.44136C11.3696 8.27173 11.7848 9.16597 12.168 10.1241C12.168 10.0921 12.168 10.0602 12.168 10.0283C12.1999 10.188 12.2638 10.3157 12.2958 10.4754C12.3277 10.5712 12.4874 10.8267 12.4554 10.9225C12.4235 11.0183 12.2319 11.178 12.168 11.2419C12.0722 11.3377 11.9764 11.4654 11.8806 11.5613C11.6889 11.7848 11.4973 12.0084 11.2738 12.2319C11.0821 12.4236 11.1141 12.3916 10.9225 12.2319C10.2198 14.1801 7.31355 14.723 7.28162 17.0225C7.21774 16.9267 7.12193 16.8309 7.05806 16.7351C7.34549 17.2141 6.8345 18.1084 6.8345 18.2361C6.80256 18.3958 6.96224 18.6513 6.96224 18.8429C6.96224 19.1942 6.8345 19.5136 6.70675 19.8649C6.54706 20.2801 6.38738 20.6633 6.45125 21.1105C6.51512 21.4937 6.77062 21.877 7.12193 22.0366C7.12193 22.0366 7.02612 22.0366 6.96224 22.0366C7.28162 22.2602 7.79261 22.4199 8.01617 22.8031C7.9523 22.8031 7.88842 22.8989 7.79261 22.8989C8.14392 23.5696 8.91041 23.889 9.61303 23.8571C10.5073 23.8251 11.2738 23.4099 12.1041 23.0906C12.1041 23.2183 12.0722 23.3461 12.0722 23.5058C12.3277 23.0906 12.8706 22.867 13.2858 22.6115C13.7329 22.356 14.1481 22.0686 14.4675 21.6215C14.4994 21.6853 14.5314 21.7173 14.5633 21.7811C14.6272 21.6215 14.6591 21.4618 14.723 21.2702C14.7868 21.334 14.8507 21.3979 14.9146 21.4618C15.0423 21.5576 14.9785 21.5895 15.1382 21.4937C15.4575 21.3021 15.745 21.0785 16.0005 20.7911C16.5115 20.2482 16.8628 19.6414 17.3418 19.0984C17.4057 19.1942 17.4696 19.29 17.5334 19.3859C17.8528 18.2042 19.0664 17.7251 19.6732 16.7351C19.6732 16.767 19.7052 16.799 19.7052 16.8309C20.5036 16.0644 21.2382 15.2021 21.9727 14.3717C21.7811 14.5633 21.6533 14.7869 21.5256 15.0105C21.6533 14.7869 20.4717 16.767 21.5256 15.0105Z" fill="#5637E3"/>
</svg>
