<svg width="128" height="67" viewBox="0 0 128 67" fill="none" xmlns="http://www.w3.org/2000/svg">
<path d="M127.997 39.2726H124.719C123.687 39.2764 122.85 39.1112 122.204 38.7846C121.558 38.4542 121.085 37.9437 120.789 37.2492C120.488 36.5584 120.342 35.6687 120.346 34.5837C120.346 33.8141 120.432 33.1384 120.601 32.5527C120.77 31.9708 121.029 31.4828 121.374 31.0961C121.742 30.6794 122.212 30.3678 122.786 30.1614C123.357 29.9586 124.032 29.8535 124.809 29.8535H128V31.5354H125.05C124.618 31.5354 124.25 31.5842 123.946 31.6818C123.638 31.7794 123.39 31.9258 123.199 32.1135C122.775 32.5527 122.564 33.3148 122.564 34.3998C122.564 34.9854 122.613 35.4847 122.703 35.8939C122.797 36.3069 122.94 36.6297 123.128 36.87C123.511 37.3505 124.171 37.5908 125.117 37.5908H127.997V39.2726Z" fill="white"/>
<path d="M118.912 39.2726H117.005V32.3688L113.153 39.2726H110.694V29.8535H112.601V36.8737L116.356 29.8535H118.912V39.2726Z" fill="white"/>
<path d="M109.229 36.7724C109.229 37.1891 109.173 37.5495 109.057 37.8536C108.944 38.1577 108.771 38.4092 108.535 38.6082C108.28 38.8259 107.945 38.9911 107.529 39.1037C107.116 39.2126 106.62 39.2726 106.05 39.2726H100.839V29.8535H106.162C106.699 29.8535 107.165 29.9098 107.559 30.0262C107.953 30.1388 108.28 30.3153 108.535 30.548C108.768 30.7545 108.94 31.0023 109.057 31.2989C109.173 31.5954 109.229 31.9371 109.229 32.3275C109.226 32.6541 109.169 32.9694 109.053 33.266C108.937 33.5664 108.779 33.8291 108.572 34.0581C108.366 34.2834 108.129 34.4598 107.859 34.5725C108.317 34.7752 108.662 35.0605 108.888 35.4284C109.117 35.7963 109.229 36.2431 109.229 36.7724ZM107.011 32.564C107.011 32.3725 106.988 32.2149 106.943 32.0872C106.902 31.9558 106.834 31.8582 106.74 31.7869C106.635 31.7006 106.489 31.6367 106.301 31.5954C106.113 31.5541 105.884 31.5316 105.61 31.5316H102.844V33.7203H105.569C105.851 33.7203 106.091 33.694 106.286 33.6452C106.485 33.5926 106.635 33.5138 106.74 33.4087C106.83 33.3223 106.902 33.2097 106.943 33.0708C106.988 32.9319 107.011 32.763 107.011 32.564ZM107.026 36.4345C107.022 36.0891 106.902 35.8301 106.658 35.6612C106.414 35.4885 106.068 35.4059 105.614 35.4059H102.847V37.5945H105.573C106.083 37.5908 106.455 37.4932 106.688 37.2942C106.917 37.0952 107.029 36.8099 107.026 36.4345Z" fill="white"/>
<path d="M99.5551 32.9206C99.5551 33.3636 99.495 33.7653 99.3749 34.1182C99.2585 34.4749 99.0821 34.7827 98.8493 35.053C98.5752 35.3646 98.2299 35.5973 97.8207 35.7513C97.4077 35.9089 96.9272 35.984 96.3791 35.984H93.158V39.2764H91.1533V29.8535H95.8573C96.5555 29.8535 97.1562 29.9324 97.6592 30.0975C98.1623 30.259 98.564 30.4992 98.8681 30.8146C99.1008 31.0623 99.2735 31.3589 99.3899 31.7081C99.4988 32.0572 99.5551 32.4589 99.5551 32.9206ZM97.3514 32.8493C97.3514 32.6166 97.3289 32.4176 97.2838 32.2562C97.2425 32.0947 97.175 31.9671 97.0811 31.8732C96.976 31.7606 96.8258 31.6743 96.6306 31.618C96.4354 31.5616 96.1989 31.5316 95.9248 31.5316H93.158V34.2984H95.8835C96.2514 34.2984 96.5443 34.2496 96.7582 34.1482C96.976 34.0469 97.1262 33.8855 97.22 33.6715C97.3101 33.4612 97.3552 33.1872 97.3514 32.8493Z" fill="white"/>
<path d="M89.5724 39.2726H86.9595C86.1599 39.2726 85.4654 39.1938 84.876 39.0436C84.2828 38.886 83.791 38.6607 83.4044 38.3566C82.9388 37.9812 82.5897 37.4744 82.357 36.84C82.1242 36.2018 82.0078 35.4284 82.0078 34.5162C82.0078 33.724 82.1092 33.0333 82.3157 32.4364C82.5184 31.8432 82.8225 31.3439 83.2242 30.9422C83.5846 30.5818 84.0125 30.3115 84.5081 30.1276C85.0036 29.9474 85.563 29.8535 86.1899 29.8535H89.5799V31.5354H86.967C86.4227 31.5354 85.9722 31.5767 85.6193 31.6593C85.2627 31.7418 85.0036 31.8657 84.8347 32.0272C84.6995 32.1623 84.5869 32.3688 84.4968 32.6541C84.403 32.9394 84.3354 33.3036 84.2866 33.7503H89.5837V35.4322H84.2866C84.3204 35.8339 84.3992 36.1755 84.5156 36.457C84.6357 36.7386 84.7934 36.9638 84.9923 37.1253C85.1988 37.2792 85.4691 37.3956 85.8108 37.4744C86.1524 37.5532 86.5653 37.5908 87.0534 37.5908H89.5799V39.2726H89.5724Z" fill="white"/>
<path d="M81.0834 39.2726H77.806C76.7736 39.2764 75.9365 39.1112 75.2908 38.7846C74.645 38.4542 74.172 37.9437 73.8754 37.2492C73.5751 36.5584 73.4287 35.6687 73.4287 34.5837C73.4287 33.8141 73.5151 33.1384 73.684 32.5527C73.8529 31.9708 74.112 31.4828 74.4573 31.0961C74.8252 30.6794 75.2945 30.3678 75.8651 30.1614C76.4358 29.9586 77.1115 29.8535 77.8886 29.8535H81.0796V31.5354H78.1289C77.6972 31.5354 77.3293 31.5842 77.0252 31.6818C76.7173 31.7794 76.4696 31.9258 76.2781 32.1135C75.8539 32.5527 75.6436 33.3148 75.6436 34.3998C75.6436 34.9854 75.6925 35.4847 75.7825 35.8939C75.8764 36.3069 76.0191 36.6297 76.2105 36.87C76.5934 37.3505 77.2542 37.5908 78.2002 37.5908H81.0796V39.2726H81.0834Z" fill="white"/>
<path d="M73.5593 31.5354H70.5936V39.2726H68.5889V31.5354H65.7207V29.8535H73.5593V31.5354Z" fill="white"/>
<path d="M65.182 32.9206C65.182 33.3636 65.122 33.7653 65.0018 34.1182C64.8854 34.4749 64.709 34.7827 64.4763 35.053C64.2022 35.3646 63.8568 35.5973 63.4476 35.7513C63.0347 35.9089 62.5541 35.984 62.006 35.984H58.785V39.2764H56.7803V29.8535H61.4842C62.1825 29.8535 62.7831 29.9324 63.2862 30.0975C63.7892 30.259 64.1909 30.4992 64.495 30.8146C64.7278 31.0623 64.9005 31.3589 65.0131 31.7081C65.1257 32.0572 65.182 32.4589 65.182 32.9206ZM62.9821 32.8493C62.9821 32.6166 62.9596 32.4176 62.9145 32.2562C62.8732 32.0947 62.8057 31.9671 62.7118 31.8732C62.6067 31.7606 62.4565 31.6743 62.2613 31.618C62.0661 31.5616 61.8296 31.5316 61.5555 31.5316H58.7887V34.2984H61.5142C61.8821 34.2984 62.175 34.2496 62.389 34.1482C62.6067 34.0469 62.7606 33.8855 62.8507 33.6715C62.9371 33.4612 62.9821 33.1872 62.9821 32.8493Z" fill="white"/>
<path d="M55.3532 34.6954C55.3532 35.4387 55.2631 36.092 55.0792 36.6626C54.8952 37.2332 54.6212 37.7137 54.2533 38.1004C53.8666 38.5096 53.3861 38.8137 52.8229 39.0202C52.2561 39.2229 51.5991 39.328 50.852 39.328C49.7821 39.3243 48.8961 39.1441 48.1866 38.7799C47.477 38.4195 46.9477 37.8864 46.5948 37.1844C46.2419 36.4824 46.0655 35.6264 46.0655 34.6128C46.0617 33.5204 46.2269 32.6194 46.5535 31.9023C46.8801 31.1891 47.3907 30.656 48.074 30.3068C48.761 29.9577 49.6394 29.7812 50.7094 29.7812C51.7793 29.7812 52.6578 29.9614 53.3448 30.3181C54.028 30.6747 54.5386 31.2191 54.8652 31.9474C55.1955 32.6757 55.357 33.5917 55.3532 34.6954ZM53.1533 34.5715C53.1533 33.8395 53.067 33.2351 52.898 32.762C52.7253 32.2928 52.4588 31.9436 52.1021 31.7184C51.7417 31.4894 51.2837 31.3768 50.7244 31.3805C50.3077 31.3805 49.9473 31.4406 49.6357 31.5607C49.3278 31.6771 49.0763 31.8535 48.8886 32.0863C48.6821 32.3416 48.5282 32.6719 48.4231 33.0811C48.318 33.4903 48.2654 33.9784 48.2654 34.5415C48.2654 35.2735 48.348 35.878 48.5282 36.351C48.7009 36.824 48.9712 37.1769 49.3316 37.4059C49.6957 37.6349 50.1575 37.7513 50.7244 37.7475C51.2837 37.7513 51.7417 37.6387 52.1021 37.4097C52.4588 37.1844 52.7253 36.8353 52.898 36.366C53.067 35.8967 53.1533 35.2961 53.1533 34.5715Z" fill="white"/>
<path d="M44.6494 39.2726H42.6447V31.5354H39.0145V39.2726H37.0098V29.8535H44.6494V39.2726Z" fill="white"/>
<path d="M35.0928 39.2726H33.1857V32.1998L30.7155 39.2726H28.6507L26.3231 32.1998V39.2726H24.416V29.8535H27.3517L29.6981 37.2116L32.1683 29.8535H35.0928V39.2726Z" fill="white"/>
<path d="M22.5098 39.2726H20.6027V32.3688L16.7472 39.2726H14.292V29.8535H16.1991V36.8737L19.9532 29.8535H22.5098V39.2726Z" fill="white"/>
<path fill-rule="evenodd" clip-rule="evenodd" d="M6.55097 29.0382C6.81751 27.3339 7.24173 25.682 7.81236 24.0978C8.09016 24.1541 8.37923 24.1804 8.67205 24.1804C11.1197 24.1804 13.1057 22.1944 13.1057 19.7467C13.1057 18.5604 12.6402 17.4868 11.8856 16.6909C12.9368 15.3394 14.1118 14.0893 15.3957 12.9593C16.1728 13.6313 17.1864 14.0405 18.2977 14.0405C20.7454 14.0405 22.7313 12.0545 22.7313 9.60683C22.7313 9.19388 22.675 8.79594 22.5699 8.41677C24.1504 7.73727 25.8134 7.20419 27.5328 6.83253C28.141 8.55943 29.7853 9.79454 31.7187 9.79454C33.821 9.79454 35.5817 8.33418 36.0359 6.37077C46.8704 7.48574 55.8052 15.0053 58.9925 25.0814H54.2285C50.9624 16.6796 42.7971 10.7218 33.2391 10.7218C20.8054 10.7218 10.7256 20.8017 10.7256 33.2354C10.7256 45.6691 22.6975 55.7489 33.2391 55.7489C43.7807 55.7489 50.0764 50.8685 53.8493 43.7132H58.8198C55.1182 52.4978 46.2284 58.9136 36.4076 60.0587C35.9308 58.1215 34.1852 56.6837 32.1016 56.6837C30.1457 56.6837 28.4826 57.9526 27.8932 59.7133C26.14 59.3604 24.4469 58.8386 22.8327 58.1628C22.9228 57.8099 22.9716 57.442 22.9716 57.0591C22.9716 54.6114 20.9856 52.6255 18.5379 52.6255C17.4267 52.6255 16.4093 53.0347 15.6322 53.7104C14.322 52.5804 13.1207 51.3303 12.0433 49.9713C12.8091 49.1754 13.2821 48.0905 13.2821 46.8967C13.2821 44.449 11.2962 42.463 8.8485 42.463C8.51813 42.463 8.19903 42.5006 7.88744 42.5681C7.28678 40.9426 6.84379 39.2457 6.56598 37.4888C8.35671 36.9182 9.65188 35.2438 9.65188 33.2654C9.64813 31.287 8.34544 29.6089 6.55097 29.0382ZM0 33.2354C0 14.8814 14.8814 0 33.2354 0C48.7775 0 61.8269 10.6693 65.4609 25.0814H61.061C57.7912 13.9053 47.9741 5.52984 36.0397 4.38108C35.593 2.40265 33.8248 0.927271 31.7149 0.927271C29.4362 0.927271 27.5629 2.64291 27.3113 4.8541C25.3329 5.26705 23.4258 5.87898 21.6163 6.6711C20.8054 5.75134 19.6154 5.1732 18.2939 5.1732C15.8462 5.1732 13.8603 7.15914 13.8603 9.60683C13.8603 10.2263 13.9879 10.8194 14.2169 11.3525C12.749 12.6289 11.4126 14.0517 10.2263 15.5947C9.74198 15.4145 9.2164 15.3131 8.6683 15.3131C6.2206 15.3131 4.23466 17.2991 4.23466 19.7467C4.23466 21.1921 4.92543 22.4723 5.99535 23.2831C5.34213 25.0701 4.85785 26.9434 4.56878 28.8768C2.42517 29.1922 0.777106 31.0354 0.777106 33.2691C0.777106 35.5029 2.42893 37.3536 4.58005 37.6577C4.88413 39.6549 5.39845 41.5846 6.08921 43.4278C5.06808 44.2387 4.41111 45.4926 4.41111 46.9004C4.41111 49.3481 6.39705 51.334 8.84474 51.334C9.38158 51.334 9.89965 51.2364 10.3764 51.0637C11.589 52.618 12.9593 54.0408 14.4572 55.3209C14.2282 55.8578 14.1005 56.4472 14.1005 57.0666C14.1005 59.5143 16.0865 61.5002 18.5342 61.5002C19.8894 61.5002 21.102 60.8921 21.9166 59.9348C23.7562 60.7156 25.6895 61.3088 27.7018 61.6992C27.9833 63.8766 29.8454 65.5585 32.0979 65.5585C34.2265 65.5585 36.0059 64.0568 36.4339 62.0521C47.3509 60.8545 57.1229 53.5978 60.9521 43.7169H65.4646C61.076 56.939 49.7611 66.4745 33.2391 66.4745C16.7172 66.4745 0 51.5931 0 33.2354Z" fill="#E8E4E6"/>
<mask id="mask0_197_8972" style="mask-type:alpha" maskUnits="userSpaceOnUse" x="28" y="1" width="8" height="9">
<path fill-rule="evenodd" clip-rule="evenodd" d="M33.6563 8.44384C32.063 9.46815 29.9629 9.06797 28.8542 7.56271C28.8101 7.50397 28.7661 7.44156 28.7257 7.37547C28.3916 6.85781 28.208 6.28508 28.1676 5.70867C28.0759 4.4494 28.6559 3.17911 29.7904 2.44851C29.8344 2.42281 29.8748 2.39711 29.9189 2.37141C31.035 1.71424 32.375 1.73259 33.4434 2.32001C33.9464 2.59536 34.3869 2.99554 34.721 3.5132C35.7894 5.16898 35.3121 7.37547 33.6563 8.44384Z" fill="#C4C4C4"/>
</mask>
<g mask="url(#mask0_197_8972)">
<path d="M35.6514 1.87891H28.1582V9.37215H35.6514V1.87891Z" fill="white"/>
</g>
<mask id="mask1_197_8972" style="mask-type:alpha" maskUnits="userSpaceOnUse" x="14" y="6" width="8" height="8">
<path fill-rule="evenodd" clip-rule="evenodd" d="M20.1388 12.5728C18.5454 13.5971 16.4454 13.1969 15.3366 11.6916C15.2926 11.6329 15.2485 11.5705 15.2081 11.5044C14.874 10.9867 14.6905 10.414 14.6501 9.83759C14.5583 8.57831 15.1384 7.30802 16.2728 6.57742C16.3169 6.55172 16.3573 6.52602 16.4013 6.50032C17.5174 5.84314 18.8575 5.8615 19.9258 6.44892C20.4288 6.72427 20.8694 7.12445 21.2035 7.64211C22.2718 9.2979 21.7945 11.5044 20.1388 12.5728Z" fill="#C4C4C4"/>
</mask>
<g mask="url(#mask1_197_8972)">
<path d="M22.1339 6.00781H14.6406V13.5011H22.1339V6.00781Z" fill="white"/>
</g>
<mask id="mask2_197_8972" style="mask-type:alpha" maskUnits="userSpaceOnUse" x="4" y="16" width="9" height="8">
<path fill-rule="evenodd" clip-rule="evenodd" d="M10.6684 23.053C8.99114 24.1313 6.78059 23.71 5.61348 22.1255C5.5671 22.0637 5.52073 21.998 5.47822 21.9285C5.12654 21.3835 4.93331 20.7807 4.8908 20.1739C4.79418 18.8484 5.40479 17.5112 6.59895 16.7422C6.64533 16.7151 6.68784 16.6881 6.73421 16.661C7.90905 15.9692 9.31963 15.9886 10.4442 16.6069C10.9737 16.8967 11.4374 17.318 11.7891 17.8629C12.9137 19.6058 12.4113 21.9284 10.6684 23.053Z" fill="#C4C4C4"/>
</mask>
<g mask="url(#mask2_197_8972)">
<path d="M12.7685 16.1426H4.88086V24.0302H12.7685V16.1426Z" fill="white"/>
</g>
<mask id="mask3_197_8972" style="mask-type:alpha" maskUnits="userSpaceOnUse" x="1" y="29" width="9" height="9">
<path fill-rule="evenodd" clip-rule="evenodd" d="M7.28627 36.5684C5.60911 37.6465 3.39866 37.2253 2.23161 35.6409C2.18524 35.5791 2.13886 35.5134 2.09635 35.4438C1.74469 34.8989 1.55147 34.2961 1.50896 33.6894C1.41235 32.3639 2.02293 31.0268 3.21704 30.2578C3.26341 30.2307 3.30592 30.2037 3.35229 30.1766C4.52707 29.4849 5.93759 29.5042 7.06213 30.1225C7.59156 30.4123 8.05529 30.8336 8.40695 31.3784C9.5315 33.1213 9.02912 35.4438 7.28627 36.5684Z" fill="#C4C4C4"/>
</mask>
<g mask="url(#mask3_197_8972)">
<path d="M9.38631 29.6582H1.49902V37.5455H9.38631V29.6582Z" fill="white"/>
</g>
<mask id="mask4_197_8972" style="mask-type:alpha" maskUnits="userSpaceOnUse" x="5" y="43" width="8" height="8">
<path fill-rule="evenodd" clip-rule="evenodd" d="M10.7569 49.7388C9.16355 50.7631 7.06353 50.3629 5.95478 48.8576C5.91072 48.7989 5.86666 48.7365 5.82628 48.6704C5.49218 48.1527 5.30862 47.58 5.26823 47.0036C5.17645 45.7443 5.75652 44.474 6.89098 43.7434C6.93503 43.7177 6.97542 43.692 7.01947 43.6663C8.13557 43.0092 9.47562 43.0275 10.544 43.6149C11.047 43.8903 11.4875 44.2905 11.8216 44.8081C12.89 46.4639 12.4127 48.6704 10.7569 49.7388Z" fill="#C4C4C4"/>
</mask>
<g mask="url(#mask4_197_8972)">
<path d="M12.7521 43.1738H5.25879V50.6671H12.7521V43.1738Z" fill="white"/>
</g>
<mask id="mask5_197_8972" style="mask-type:alpha" maskUnits="userSpaceOnUse" x="28" y="57" width="8" height="8">
<path fill-rule="evenodd" clip-rule="evenodd" d="M34.0274 64.0024C32.4341 65.0268 30.334 64.6266 29.2253 63.1213C29.1812 63.0626 29.1372 63.0002 29.0968 62.9341C28.7627 62.4164 28.5791 61.8437 28.5387 61.2673C28.447 60.008 29.027 58.7377 30.1615 58.0071C30.2055 57.9814 30.2459 57.9557 30.29 57.93C31.4061 57.2728 32.7461 57.2912 33.8145 57.8786C34.3175 58.154 34.758 58.5541 35.0921 59.0718C36.1605 60.7276 35.6832 62.9341 34.0274 64.0024Z" fill="#C4C4C4"/>
</mask>
<g mask="url(#mask5_197_8972)">
<path d="M36.0226 57.4375H28.5293V64.9308H36.0226V57.4375Z" fill="white"/>
</g>
<mask id="mask6_197_8972" style="mask-type:alpha" maskUnits="userSpaceOnUse" x="15" y="53" width="8" height="8">
<path fill-rule="evenodd" clip-rule="evenodd" d="M20.5138 60.2485C18.9204 61.2729 16.8204 60.8727 15.7116 59.3674C15.6676 59.3087 15.6235 59.2463 15.5831 59.1802C15.249 58.6625 15.0655 58.0898 15.0251 57.5134C14.9333 56.2541 15.5134 54.9838 16.6478 54.2532C16.6919 54.2275 16.7323 54.2018 16.7763 54.1761C17.8924 53.5189 19.2325 53.5373 20.3008 54.1247C20.8038 54.4001 21.2444 54.8002 21.5785 55.3179C22.6468 56.9737 22.1695 59.1802 20.5138 60.2485Z" fill="#C4C4C4"/>
</mask>
<g mask="url(#mask6_197_8972)">
<path d="M22.5089 53.6836H15.0156V61.1769H22.5089V53.6836Z" fill="white"/>
</g>
</svg>
