<svg width="612" height="540" viewBox="0 0 612 540" fill="none" xmlns="http://www.w3.org/2000/svg">
<path d="M481.819 37.7751L355.432 2.31494L5.92969 203.732V330.412L258.699 476.357L608.201 274.941V148.26L481.819 37.7751Z" fill="white"/>
<path d="M608.202 148.26L481.82 37.7751L355.434 2.31494V128.995L608.202 274.941V148.26Z" fill="white"/>
<path d="M484.068 36.4602L357.681 1L355.432 2.31482L481.819 37.775L606.51 146.781L259.26 346.915L134.557 237.897L8.17027 202.437L5.92969 203.732V330.412L255.961 474.778L256.586 475.139L258.699 476.357L610.45 273.626V146.95L484.068 36.4602Z" fill="white" stroke="#57585A" stroke-width="1.42671"/>
<path d="M258.699 349.678L132.316 239.192L5.92969 203.732V330.412L258.699 476.358V349.678Z" fill="white" stroke="#57585A" stroke-width="1.42671"/>
<path d="M268.723 353.105V470.577L267.035 471.551V354.083L268.723 353.105Z" fill="#57585A"/>
<path d="M276.563 348.591V466.059L274.871 467.033V349.565L276.563 348.591Z" fill="#57585A"/>
<path d="M284.398 344.074V461.546L282.707 462.516V345.044L284.398 344.074Z" fill="#57585A"/>
<path d="M292.234 339.556V457.028L290.543 458.002V340.53L292.234 339.556Z" fill="#57585A"/>
<path d="M300.07 335.042V452.51L298.379 453.484V336.016L300.07 335.042Z" fill="#57585A"/>
<path d="M307.906 330.525V447.993L306.219 448.971V331.499L307.906 330.525Z" fill="#57585A"/>
<path d="M315.746 326.006V443.479L314.055 444.453V326.98L315.746 326.006Z" fill="#57585A"/>
<path d="M323.582 321.489V438.962L321.895 439.932V322.463L323.582 321.489Z" fill="#57585A"/>
<path d="M331.422 316.975V434.439L329.73 435.418V317.945L331.422 316.975Z" fill="#57585A"/>
<path d="M339.258 312.453V429.925L337.566 430.9V313.427L339.258 312.453Z" fill="#57585A"/>
<path d="M347.094 307.937V425.409L345.406 426.383V308.915L347.094 307.937Z" fill="#57585A"/>
<path d="M354.934 303.422V420.89L353.238 421.864V304.396L354.934 303.422Z" fill="#57585A"/>
<path d="M362.766 298.905V416.377L361.074 417.351V299.879L362.766 298.905Z" fill="#57585A"/>
<path d="M370.605 294.391V411.859L368.918 412.833V295.361L370.605 294.391Z" fill="#57585A"/>
<path d="M378.441 289.869V407.342L376.75 408.316V290.843L378.441 289.869Z" fill="#57585A"/>
<path d="M386.277 285.352V402.824L384.59 403.798V286.33L386.277 285.352Z" fill="#57585A"/>
<path d="M393.023 281.809V399.281L391.336 400.256V282.787L393.023 281.809Z" fill="#57585A"/>
<path d="M400.863 277.295V394.763L399.172 395.737V278.269L400.863 277.295Z" fill="#57585A"/>
<path d="M408.699 272.778V390.25L407.008 391.22V273.748L408.699 272.778Z" fill="#57585A"/>
<path d="M416.535 268.26V385.732L414.844 386.706V269.234L416.535 268.26Z" fill="#57585A"/>
<path d="M424.371 263.746V381.214L422.68 382.188V264.72L424.371 263.746Z" fill="#57585A"/>
<path d="M432.207 259.229V376.697L430.52 377.675V260.203L432.207 259.229Z" fill="#57585A"/>
<path d="M440.047 254.71V372.183L438.355 373.157V255.685L440.047 254.71Z" fill="#57585A"/>
<path d="M447.887 250.193V367.666L446.199 368.636V251.167L447.887 250.193Z" fill="#57585A"/>
<path d="M455.723 245.679V363.144L454.031 364.122V246.649L455.723 245.679Z" fill="#57585A"/>
<path d="M463.559 241.157V358.63L461.867 359.604V242.131L463.559 241.157Z" fill="#57585A"/>
<path d="M471.398 236.641V354.113L469.711 355.087V237.619L471.398 236.641Z" fill="#57585A"/>
<path d="M479.234 232.126V349.594L477.539 350.568V233.1L479.234 232.126Z" fill="#57585A"/>
<path d="M487.066 227.609V345.081L485.375 346.055V228.583L487.066 227.609Z" fill="#57585A"/>
<path d="M494.906 223.095V340.563L493.219 341.537V224.065L494.906 223.095Z" fill="#57585A"/>
<path d="M502.746 218.573V336.046L501.055 337.02V219.547L502.746 218.573Z" fill="#57585A"/>
<path d="M510.578 214.056V331.528L508.891 332.502V215.034L510.578 214.056Z" fill="#57585A"/>
<path d="M516.672 209.522V326.995L514.984 327.969V210.501L516.672 209.522Z" fill="#57585A"/>
<path d="M524.512 205.008V322.477L522.82 323.451V205.982L524.512 205.008Z" fill="#57585A"/>
<path d="M532.348 200.491V317.964L530.656 318.934V201.461L532.348 200.491Z" fill="#57585A"/>
<path d="M540.184 195.973V313.445L538.492 314.42V196.947L540.184 195.973Z" fill="#57585A"/>
<path d="M548.02 191.459V308.927L546.328 309.901V192.433L548.02 191.459Z" fill="#57585A"/>
<path d="M555.855 186.942V304.411L554.168 305.389V187.916L555.855 186.942Z" fill="#57585A"/>
<path d="M563.695 182.424V299.896L562.004 300.87V183.398L563.695 182.424Z" fill="#57585A"/>
<path d="M571.535 177.907V295.379L569.848 296.349V178.881L571.535 177.907Z" fill="#57585A"/>
<path d="M579.371 173.393V290.857L577.68 291.835V174.363L579.371 173.393Z" fill="#57585A"/>
<path d="M587.207 168.871V286.343L585.516 287.317V169.845L587.207 168.871Z" fill="#57585A"/>
<path d="M595.047 164.354V281.827L593.359 282.801V165.333L595.047 164.354Z" fill="#57585A"/>
<path d="M602.887 159.839V277.308L601.191 278.282V160.813L602.887 159.839Z" fill="#57585A"/>
<path d="M252.864 353.763V472.991L251.281 472.073V352.38L252.864 353.763Z" fill="#57585A"/>
<path d="M245.536 347.353V468.754L243.953 467.844V345.966L245.536 347.353Z" fill="#57585A"/>
<path d="M238.197 340.939V464.516L236.613 463.606V339.556L238.197 340.939Z" fill="#57585A"/>
<path d="M230.857 334.521V460.283L229.273 459.365V333.138L230.857 334.521Z" fill="#57585A"/>
<path d="M223.525 328.108V456.046L221.941 455.132V326.725L223.525 328.108Z" fill="#57585A"/>
<path d="M216.185 321.698V451.809L214.602 450.895V320.311L216.185 321.698Z" fill="#57585A"/>
<path d="M208.849 315.28V447.572L207.266 446.662V313.897L208.849 315.28Z" fill="#57585A"/>
<path d="M201.517 308.871V443.34L199.934 442.426V307.488L201.517 308.871Z" fill="#57585A"/>
<path d="M194.177 302.456V439.106L192.594 438.188V301.069L194.177 302.456Z" fill="#57585A"/>
<path d="M186.841 296.043V434.869L185.258 433.952V294.656L186.841 296.043Z" fill="#57585A"/>
<path d="M179.509 289.629V430.632L177.926 429.718V288.246L179.509 289.629Z" fill="#57585A"/>
<path d="M172.165 283.215V426.395L170.582 425.481V281.832L172.165 283.215Z" fill="#57585A"/>
<path d="M164.829 276.802V422.158L163.246 421.24V275.415L164.829 276.802Z" fill="#57585A"/>
<path d="M157.497 270.387V417.92L155.914 417.01V269.004L157.497 270.387Z" fill="#57585A"/>
<path d="M150.161 263.974V413.688L148.578 412.774V262.591L150.161 263.974Z" fill="#57585A"/>
<path d="M142.822 257.556V409.45L141.234 408.536V256.173L142.822 257.556Z" fill="#57585A"/>
<path d="M135.489 251.15V405.217L133.906 404.299V249.767L135.489 251.15Z" fill="#57585A"/>
<path d="M128.15 247.21V400.98L126.566 400.062V246.765L128.15 247.21Z" fill="#57585A"/>
<path d="M120.814 245.149V396.743L119.23 395.829V244.704L120.814 245.149Z" fill="#57585A"/>
<path d="M113.482 243.089V392.506L111.898 391.596V242.644L113.482 243.089Z" fill="#57585A"/>
<path d="M106.142 241.032V388.269L104.559 387.359V240.587L106.142 241.032Z" fill="#57585A"/>
<path d="M98.8098 238.972V384.036L97.2266 383.122V238.527L98.8098 238.972Z" fill="#57585A"/>
<path d="M91.47 236.916V379.799L89.8867 378.885V236.471L91.47 236.916Z" fill="#57585A"/>
<path d="M84.138 234.855V375.561L82.5508 374.651V234.414L84.138 234.855Z" fill="#57585A"/>
<path d="M76.7981 232.795V371.325L75.2148 370.415V232.354L76.7981 232.795Z" fill="#57585A"/>
<path d="M69.4621 230.742V367.095L67.8789 366.177V230.297L69.4621 230.742Z" fill="#57585A"/>
<path d="M62.1301 228.682V362.858L60.5469 361.94V228.237L62.1301 228.682Z" fill="#57585A"/>
<path d="M54.7864 226.626V358.621L53.2031 357.703V226.181L54.7864 226.626Z" fill="#57585A"/>
<path d="M47.4503 224.565V354.384L45.8711 353.474V224.12L47.4503 224.565Z" fill="#57585A"/>
<path d="M40.1184 222.508V350.146L38.5352 349.236V222.063L40.1184 222.508Z" fill="#57585A"/>
<path d="M32.7825 220.448V345.91L31.1992 345V220.003L32.7825 220.448Z" fill="#57585A"/>
<path d="M25.4425 218.387V341.676L23.8633 340.762V217.946L25.4425 218.387Z" fill="#57585A"/>
<path d="M18.1067 216.332V337.44L16.5234 336.526V215.887L18.1067 216.332Z" fill="#57585A"/>
<path d="M10.7707 214.271V333.202L9.1875 332.288V213.826L10.7707 214.271Z" fill="#57585A"/>
<path d="M484.448 36.4602L133.101 239.192L6.71484 203.732L358.466 1L484.448 36.4602Z" fill="white" stroke="#57585A" stroke-width="1.42671" stroke-linejoin="round"/>
<path d="M18.4445 196.231L16.9414 197.097L143.44 232.236L144.947 231.37L18.4445 196.231Z" fill="#57585A"/>
<path d="M31.6633 188.611L30.1562 189.481L156.659 224.621L158.158 223.759L31.6633 188.611Z" fill="#57585A"/>
<path d="M44.8741 180.994L43.375 181.86L169.87 217.008L171.377 216.138L44.8741 180.994Z" fill="#57585A"/>
<path d="M58.0929 173.377L56.5898 174.243L183.093 209.387L184.592 208.525L58.0929 173.377Z" fill="#57585A"/>
<path d="M71.3077 165.762L69.8086 166.628L196.307 201.768L197.814 200.902L71.3077 165.762Z" fill="#57585A"/>
<path d="M84.5305 158.146L83.0234 159.011L209.53 194.151L211.029 193.285L84.5305 158.146Z" fill="#57585A"/>
<path d="M97.7414 150.525L96.2383 151.395L222.737 186.538L224.244 185.668L97.7414 150.525Z" fill="#57585A"/>
<path d="M110.964 142.908L109.461 143.774L235.96 178.917L237.463 178.051L110.964 142.908Z" fill="#57585A"/>
<path d="M124.175 135.292L122.672 136.158L249.175 171.306L250.678 170.436L124.175 135.292Z" fill="#57585A"/>
<path d="M137.39 127.676L135.891 128.542L262.389 163.69L263.892 162.816L137.39 127.676Z" fill="#57585A"/>
<path d="M150.617 120.055L149.105 120.925L275.612 156.065L277.115 155.199L150.617 120.055Z" fill="#57585A"/>
<path d="M163.827 112.439L162.328 113.305L288.827 148.448L290.326 147.582L163.827 112.439Z" fill="#57585A"/>
<path d="M177.046 104.823L175.539 105.689L302.042 140.832L303.545 139.966L177.046 104.823Z" fill="#57585A"/>
<path d="M190.261 97.2065L188.758 98.0724L315.257 133.216L316.764 132.35L190.261 97.2065Z" fill="#57585A"/>
<path d="M203.476 89.5898L201.969 90.4557L328.471 125.599L329.975 124.733L203.476 89.5898Z" fill="#57585A"/>
<path d="M216.69 81.9727L215.191 82.8345L341.69 117.978L343.197 117.112L216.69 81.9727Z" fill="#57585A"/>
<path d="M229.913 74.3535L228.406 75.2194L354.909 110.363L356.412 109.497L229.913 74.3535Z" fill="#57585A"/>
<path d="M243.128 66.7363L241.625 67.6022L368.124 102.746L369.631 101.88L243.128 66.7363Z" fill="#57585A"/>
<path d="M256.343 59.1196L254.84 59.9855L381.343 95.129L382.842 94.2631L256.343 59.1196Z" fill="#57585A"/>
<path d="M269.562 51.5005L268.055 52.3704L394.553 87.5139L396.064 86.644L269.562 51.5005Z" fill="#57585A"/>
<path d="M282.776 43.8838L281.277 44.7497L407.776 79.8932L409.275 79.0273L282.776 43.8838Z" fill="#57585A"/>
<path d="M295.991 36.2671L294.488 37.133L420.987 72.2765L422.494 71.4106L295.991 36.2671Z" fill="#57585A"/>
<path d="M309.21 28.6514L307.703 29.5172L434.206 64.6607L435.709 63.7949L309.21 28.6514Z" fill="#57585A"/>
<path d="M322.425 21.0273L320.922 21.9012L447.421 57.0447L448.928 56.1789L322.425 21.0273Z" fill="#57585A"/>
<path d="M335.64 13.4106L334.141 14.2805L460.639 49.428L462.142 48.5622L335.64 13.4106Z" fill="#57585A"/>
<path d="M43.3477 277.661V334.315L86.099 359.002V302.348L43.3477 277.661Z" fill="white"/>
<path opacity="0.4" d="M86.099 302.348L43.3477 277.661V334.315L86.099 311.603V302.348Z" fill="#57585A"/>
<path d="M90.0458 384.454L33.6719 351.906V339.902L90.0458 372.451V384.454Z" fill="white"/>
<path d="M28.0229 246.827L19.3281 251.794V348.226L29.7248 354.228L33.6694 351.906V339.903L43.3474 334.316V277.661L86.0987 302.348V386.772L96.4954 392.774L105.186 387.811V291.379L28.0229 246.827Z" fill="white" stroke="#57585A" stroke-width="1.42671"/>
<path d="M96.4961 296.346V392.775L105.187 387.811V291.379L96.4961 296.346Z" fill="#57585A" stroke="#57585A" stroke-width="1.42671"/>
<path d="M19.3281 251.794V348.227L29.7248 354.229V269.8L33.6694 272.078L86.0988 302.348V386.773L96.4954 392.775V296.346L19.3281 251.794Z" fill="white" stroke="#57585A" stroke-width="1.42671"/>
<path d="M43.3499 334.316L33.6719 339.903V351.907L86.1012 382.177V370.169V359.002L43.3499 334.316Z" fill="#57585A"/>
<path opacity="0.6" d="M86.1012 370.172L33.6719 339.902V351.906L86.1012 382.176V370.172Z" fill="#57585A"/>
<path d="M37.9766 337.416L86.098 365.202V362.091L40.6695 335.86L37.9766 337.416Z" fill="white"/>
<path d="M47.2353 359.736L38.0667 354.445L38.0627 354.437L33.6719 346.836V339.902L36.8347 341.734H36.8426L47.2353 359.736Z" fill="white"/>
<path d="M65.159 370.085L55.9904 364.79H55.9865L45.5898 346.785L54.7585 352.08H54.7664L65.159 370.085Z" fill="white"/>
<path d="M83.0809 380.435L73.9162 375.14H73.9083L63.5117 357.13L72.6843 362.429L72.6882 362.433L83.0809 380.435Z" fill="white"/>
<path d="M86.1008 370.172V375.558L81.4336 367.483L86.1008 370.172Z" fill="white"/>
<path d="M86.0991 302.353L34.5977 272.62V339.383L86.0991 369.12V302.353Z" fill="#57585A"/>
<path opacity="0.4" d="M86.0991 302.353L34.5977 272.62V275.435L86.0991 305.168V302.353Z" fill="#57585A"/>
<path d="M47.4453 338.134L56.6337 294.34L64.2387 298.731L73.4033 353.123L64.9218 348.227L63.1725 336.717L57.6208 333.51L55.9664 343.058L47.4453 338.134ZM58.2171 327.741L62.6118 330.28L60.4599 310.818L58.2171 327.741Z" fill="white"/>
<path d="M153.586 341.253V397.907L196.337 422.594V365.939L153.586 341.253Z" fill="white"/>
<path opacity="0.4" d="M196.337 365.94L153.586 341.253V397.907L196.337 375.195V365.94Z" fill="#57585A"/>
<path d="M200.28 448.046L143.906 415.498V403.494L200.28 436.042V448.046Z" fill="white"/>
<path d="M138.261 310.419L129.566 315.386V411.819L139.963 417.821L143.908 415.499V403.495L153.586 397.908V341.253L196.337 365.94V450.365L206.734 456.367L215.424 451.403V354.971L138.261 310.419Z" fill="white" stroke="#57585A" stroke-width="1.42671"/>
<path d="M206.734 359.938V456.366L215.425 451.403V354.971L206.734 359.938Z" fill="#57585A"/>
<path d="M153.584 397.907L143.906 403.494V415.498L196.336 445.768V433.76V422.593L153.584 397.907Z" fill="#57585A"/>
<path opacity="0.6" d="M196.336 433.764L143.906 403.494V415.498L196.336 445.768V433.764Z" fill="#57585A"/>
<path d="M148.215 401.007L196.336 428.794V425.682L150.908 399.456L148.215 401.007Z" fill="white"/>
<path d="M144.836 324.2V351.263L196.337 380.996V353.933L144.836 324.2Z" fill="#57585A"/>
<path d="M157.474 423.328L148.305 418.037L148.301 418.029L143.91 410.428V403.494L147.073 405.326H147.081L157.474 423.328Z" fill="white"/>
<path d="M175.397 433.678L166.229 428.383H166.225L155.828 410.377L165.001 415.672H165.005L175.397 433.678Z" fill="white"/>
<path d="M193.319 444.027L184.155 438.732H184.151L173.75 420.723L182.923 426.022L182.927 426.026L193.319 444.027Z" fill="white"/>
<path d="M196.339 433.765V439.151L191.672 431.076L196.339 433.765Z" fill="white"/>
<g opacity="0.3">
<path opacity="0.3" d="M144.836 350.445V351.263L196.337 380.996V380.178L144.836 350.445Z" fill="#57585A"/>
<path opacity="0.3" d="M196.337 377.536L144.836 347.807V348.624L196.337 378.357V377.536Z" fill="#57585A"/>
<path opacity="0.3" d="M196.337 374.899L144.836 345.17V345.988L196.337 375.721V374.899Z" fill="#57585A"/>
<path opacity="0.3" d="M196.337 372.261L144.836 342.532V343.35L196.337 373.082V372.261Z" fill="#57585A"/>
<path opacity="0.3" d="M196.337 369.624L144.836 339.891V340.712L196.337 370.445V369.624Z" fill="#57585A"/>
<path opacity="0.3" d="M196.337 366.99L144.836 337.257V338.074L196.337 367.807V366.99Z" fill="#57585A"/>
<path opacity="0.3" d="M196.337 364.348L144.836 334.615V335.437L196.337 365.169V364.348Z" fill="#57585A"/>
<path opacity="0.3" d="M196.337 361.71L144.836 331.978V332.799L196.337 362.532V361.71Z" fill="#57585A"/>
<path opacity="0.3" d="M196.337 359.074L144.836 329.341V330.162L196.337 359.895V359.074Z" fill="#57585A"/>
<path opacity="0.3" d="M196.337 356.435L144.836 326.702V327.523L196.337 357.256V356.435Z" fill="#57585A"/>
<path opacity="0.3" d="M196.337 353.797L144.836 324.064V324.886L196.337 354.619V353.797Z" fill="#57585A"/>
</g>
<path d="M129.566 315.386V411.819L139.963 417.82V333.392L143.908 335.67L196.337 365.94V450.365L206.734 456.367V359.938L129.566 315.386Z" fill="white"/>
<path d="M129.566 315.386V411.819L139.963 417.82V333.392L143.908 335.67L196.337 365.94V450.365L206.734 456.367V359.938L129.566 315.386Z" fill="white" stroke="#57585A" stroke-width="1.42671"/>
<path d="M194.661 453.322C196.766 454.538 196.766 456.524 194.661 457.736L51.3277 538.722C49.2231 539.938 45.7839 539.938 43.6754 538.722L2.57845 514.995C0.473851 513.779 0.473851 511.793 2.57845 510.576L145.912 429.591C148.013 428.375 151.46 428.375 153.565 429.591L194.661 453.322Z" fill="#57585A"/>
<path d="M125.259 469.044L94.1367 485.226V481.447L125.259 465.266V469.044Z" fill="white"/>
<path d="M123.494 463.951L92.375 480.132L94.1361 481.447L125.259 465.266L123.494 463.951Z" fill="white"/>
<path d="M94.3841 485.171L64.2485 503.121L64.0273 499.35L94.1669 481.4L94.3841 485.171Z" fill="white"/>
<path d="M93.8232 480.081L63.6836 498.031L64.0232 499.35L94.1627 481.4L93.8232 480.081Z" fill="white"/>
<path d="M175.968 455.158L177.709 454.151L133.359 428.548L131.617 429.555L175.968 455.158Z" fill="white" stroke="#57585A" stroke-width="1.42671" stroke-linejoin="round"/>
<path d="M175.914 457.158L177.655 456.151V454.244L175.914 455.251V457.158Z" fill="white" stroke="#57585A" stroke-width="1.42671" stroke-linejoin="round"/>
<path d="M175.968 457.065V455.158L131.617 429.555V431.458L175.968 457.065Z" fill="white" stroke="#57585A" stroke-width="1.42671" stroke-linejoin="round"/>
<path d="M129.657 446.952C129.657 447.43 129.314 447.631 128.895 447.402L119.414 442.15C118.996 441.918 118.652 441.337 118.652 440.859V433.254C118.652 432.773 118.996 432.575 119.414 432.804L128.895 438.056C129.314 438.289 129.657 438.873 129.657 439.351V446.952Z" fill="white"/>
<path d="M114.504 432.141L130.184 441.195L128.612 436.536L119.491 430.759L114.504 432.141Z" fill="white"/>
<path d="M125.946 437.306L120.936 434.621C119.408 433.752 117.307 433.883 114.981 435.225C110.314 437.918 106.531 444.473 106.531 449.859C106.531 452.571 107.491 454.47 109.035 455.347L114.045 458.032C115.574 458.897 117.674 458.763 119.992 457.424C124.659 454.731 128.438 448.176 128.438 442.791C128.442 440.082 127.49 438.179 125.946 437.306Z" fill="white"/>
<path d="M128.443 442.785C128.443 448.175 124.66 454.726 119.997 457.419C117.679 458.757 115.578 458.892 114.05 458.027C112.506 457.154 111.547 455.251 111.547 452.542C111.547 447.153 115.33 440.602 119.997 437.909C122.319 436.57 124.423 436.436 125.951 437.305C127.491 438.177 128.443 440.081 128.443 442.785Z" fill="white"/>
<path d="M127.927 443.414C127.927 448.322 124.48 454.297 120.227 456.749C115.974 459.205 112.531 457.215 112.531 452.303C112.531 447.391 115.978 441.424 120.227 438.968C124.476 436.512 127.927 438.502 127.927 443.414Z" fill="white"/>
<path d="M125.4 444.729C125.4 448.03 123.086 452.042 120.223 453.693C117.365 455.339 115.047 454.005 115.051 450.704C115.051 447.403 117.365 443.391 120.223 441.74C123.086 440.094 125.4 441.428 125.4 444.729Z" fill="#57585A"/>
<path d="M124.937 444.998C124.937 447.999 122.832 451.651 120.23 453.152C117.632 454.652 115.523 453.436 115.523 450.435C115.523 447.434 117.632 443.786 120.23 442.285C122.828 440.781 124.937 442.001 124.937 444.998Z" fill="#57585A"/>
<path d="M122.477 441.645C121.806 441.61 121.04 441.811 120.222 442.281C117.624 443.781 115.516 447.43 115.516 450.431C115.516 451.382 115.729 452.156 116.1 452.717C116.771 452.752 117.537 452.547 118.351 452.077C120.949 450.577 123.057 446.928 123.057 443.927C123.061 442.98 122.848 442.206 122.477 441.645Z" fill="#57585A"/>
<path d="M121.865 441.676C121.356 441.751 120.803 441.949 120.222 442.284C117.624 443.785 115.516 447.433 115.516 450.434C115.516 451.109 115.622 451.698 115.82 452.18C116.534 452.361 117.407 452.207 118.351 451.662C120.748 450.276 122.694 446.908 122.694 444.136C122.698 443.039 122.386 442.201 121.865 441.676Z" fill="#57585A"/>
<path d="M115.523 450.435C115.523 450.68 115.539 450.913 115.567 451.134C116.049 451.114 116.582 450.953 117.146 450.625C119.243 449.417 120.941 446.471 120.941 444.054C120.941 443.261 120.755 442.625 120.439 442.171C120.368 442.206 120.301 442.242 120.23 442.281C117.628 443.786 115.523 447.434 115.523 450.435Z" fill="#57585A"/>
<path d="M120.112 445.965C120.112 447.09 119.322 448.457 118.351 449.021C117.376 449.582 116.586 449.128 116.586 448.002C116.586 446.877 117.372 445.511 118.351 444.95C119.322 444.382 120.112 444.836 120.112 445.965Z" fill="#57585A"/>
<path d="M108.434 460.563C108.434 461.041 108.091 461.242 107.672 461.013L98.1957 455.762C97.7771 455.529 97.4336 454.948 97.4336 454.47V446.865C97.4336 446.388 97.7732 446.186 98.1957 446.419L107.676 451.671C108.095 451.904 108.438 452.484 108.438 452.962V460.563H108.434Z" fill="white"/>
<path d="M98.4855 445.791L93.4748 443.106C91.9467 442.238 89.846 442.368 87.5203 443.71C82.857 446.403 79.0703 452.958 79.0703 458.344C79.0703 461.057 80.0298 462.956 81.5737 463.828L86.5845 466.513C88.1126 467.378 90.2132 467.244 92.531 465.905C97.1983 463.209 100.977 456.658 100.977 451.268C100.981 448.567 100.025 446.668 98.4855 445.791Z" fill="white"/>
<path d="M100.982 451.272C100.982 456.662 97.1992 463.212 92.5359 465.909C90.2141 467.244 88.1174 467.382 86.5893 466.517C85.0454 465.641 84.0859 463.741 84.0859 461.033C84.0859 455.647 87.8687 449.092 92.5359 446.395C94.8577 445.057 96.9623 444.922 98.4904 445.791C100.026 446.668 100.982 448.567 100.982 451.272Z" fill="white"/>
<path d="M100.462 451.9C100.462 456.812 97.0149 462.782 92.7622 465.234C88.5096 467.69 85.0625 465.7 85.0625 460.788C85.0625 455.876 88.5096 449.91 92.7622 447.454C97.0149 444.998 100.462 446.988 100.462 451.9Z" fill="white"/>
<path d="M93.5898 444.22L109.274 453.274L107.702 448.615L98.5809 442.834L93.5898 444.22Z" fill="white"/>
<path d="M127.545 434.277H127.549L127.493 434.245C127.403 434.19 127.316 434.139 127.225 434.087L117.176 428.299C115.32 427.414 112.848 427.647 110.135 429.211C104.367 432.543 99.6875 440.646 99.6875 447.311C99.6875 447.43 99.6915 447.544 99.6954 447.663L109.539 453.345L110.988 452.507C110.984 452.389 110.98 452.274 110.98 452.156C110.98 446.415 115.012 439.434 119.983 436.567C124.955 433.696 128.982 436.022 128.982 441.763C128.982 441.886 128.978 442.004 128.974 442.127L130.423 441.29C130.427 441.171 130.431 441.049 130.431 440.93C130.423 437.704 129.33 435.41 127.545 434.277Z" fill="white"/>
<path d="M110.984 452.508C110.98 452.39 110.976 452.275 110.976 452.157C110.976 446.415 115.008 439.434 119.979 436.568C124.951 433.697 128.978 436.023 128.978 441.764C128.978 441.886 128.974 442.005 128.97 442.127L130.419 441.29C130.423 441.172 130.427 441.049 130.427 440.931C130.427 434.266 125.748 431.565 119.979 434.897C114.206 438.23 109.527 446.332 109.527 452.998C109.527 453.116 109.531 453.231 109.535 453.349L110.984 452.508Z" fill="white"/>
<path d="M105.036 449.38L100.025 446.695C98.4974 445.826 96.3928 445.956 94.075 447.299C89.4078 449.992 85.625 456.546 85.625 461.936C85.625 464.645 86.5845 466.548 88.1284 467.425L93.1392 470.11C94.6673 470.975 96.7679 470.84 99.0857 469.502C103.749 466.809 107.532 460.258 107.532 454.868C107.532 452.156 106.58 450.26 105.036 449.38Z" fill="white"/>
<path d="M107.529 454.865C107.529 460.255 103.746 466.806 99.0828 469.499C96.765 470.837 94.6643 470.972 93.1362 470.107C91.5884 469.23 90.6328 467.335 90.6328 464.618C90.6328 459.232 94.4156 452.682 99.0828 449.985C101.405 448.642 103.509 448.512 105.037 449.381C106.577 450.261 107.529 452.157 107.529 454.865Z" fill="white"/>
<path d="M107.017 455.492C107.017 460.4 103.57 466.371 99.3169 468.827C95.0643 471.283 91.6172 469.292 91.6172 464.38C91.6172 459.472 95.0643 453.502 99.3169 451.046C103.57 448.594 107.017 450.58 107.017 455.492Z" fill="white"/>
<path d="M104.49 456.807C104.49 460.104 102.172 464.12 99.3133 465.771C96.4545 467.421 94.1367 466.082 94.1406 462.781C94.1406 459.48 96.4545 455.465 99.3133 453.818C102.172 452.168 104.49 453.506 104.49 456.807Z" fill="#57585A"/>
<path d="M104.023 457.076C104.023 460.081 101.914 463.725 99.3161 465.229C96.7179 466.73 94.6094 465.514 94.6094 462.513C94.6094 459.512 96.7179 455.859 99.3161 454.359C101.914 452.859 104.023 454.075 104.023 457.076Z" fill="#57585A"/>
<path d="M101.567 453.724C100.899 453.688 100.13 453.89 99.3161 454.363C96.7179 455.864 94.6094 459.512 94.6094 462.517C94.6094 463.469 94.8226 464.239 95.1977 464.803C95.865 464.835 96.631 464.638 97.4484 464.164C100.047 462.663 102.155 459.015 102.155 456.01C102.151 455.054 101.938 454.284 101.567 453.724Z" fill="#57585A"/>
<path d="M100.955 453.755C100.441 453.83 99.8887 454.028 99.3122 454.363C96.714 455.864 94.6055 459.512 94.6055 462.517C94.6055 463.192 94.7121 463.777 94.9095 464.263C95.6242 464.444 96.4968 464.294 97.4406 463.745C99.8413 462.363 101.784 458.991 101.784 456.219C101.788 455.118 101.476 454.281 100.955 453.755Z" fill="#57585A"/>
<path d="M94.6055 462.513C94.6055 462.758 94.6213 462.991 94.6489 463.212C95.1306 463.188 95.6637 463.026 96.2283 462.702C98.3211 461.494 100.019 458.553 100.019 456.132C100.019 455.342 99.8334 454.707 99.5175 454.249C99.4504 454.284 99.3793 454.324 99.3082 454.363C96.714 455.86 94.6055 459.512 94.6055 462.513Z" fill="#57585A"/>
<path d="M99.198 458.044C99.198 459.169 98.4082 460.535 97.4369 461.096C96.4616 461.657 95.6719 461.203 95.6719 460.077C95.6719 458.956 96.4616 457.586 97.4369 457.021C98.4082 456.46 99.198 456.918 99.198 458.044Z" fill="#57585A"/>
<path d="M106.631 446.352H106.635L106.579 446.32C106.489 446.265 106.402 446.213 106.307 446.166L96.2617 440.373C94.4019 439.489 91.9341 439.722 89.2214 441.286C83.4486 444.618 78.7734 452.721 78.7734 459.386C78.7734 459.508 78.7774 459.623 78.7774 459.737L88.6212 465.419L90.0703 464.582C90.0664 464.468 90.0624 464.353 90.0624 464.231C90.0624 458.49 94.094 451.508 99.0613 448.642C104.033 445.771 108.064 448.097 108.064 453.838C108.064 453.957 108.06 454.079 108.056 454.197L109.505 453.36C109.509 453.242 109.513 453.119 109.513 453.001C109.513 449.783 108.412 447.489 106.631 446.352Z" fill="white"/>
<path d="M90.0664 464.586C90.0625 464.472 90.0585 464.357 90.0585 464.235C90.0585 458.494 94.09 451.512 99.0573 448.646C104.029 445.775 108.06 448.101 108.06 453.842C108.06 453.961 108.056 454.083 108.052 454.201L109.501 453.364C109.505 453.246 109.509 453.123 109.509 453.005C109.509 446.34 104.83 443.639 99.0573 446.972C93.2885 450.304 88.6094 458.407 88.6094 465.072C88.6094 465.19 88.6133 465.305 88.6173 465.423L90.0664 464.586Z" fill="white"/>
<path d="M140.935 431.253L128.355 423.987L126.957 424.793L139.541 432.058L140.935 431.253Z" fill="white"/>
<path d="M139.541 432.058L126.957 424.792V431.726L139.541 438.992V432.058Z" fill="white"/>
<path d="M53.4468 487.173L147.506 432.868L145.548 431.734L51.4883 486.043L53.4468 487.173Z" fill="white"/>
<path d="M51.4883 486.052L145.548 431.743V427.167L51.4883 481.475V486.052Z" fill="white"/>
<path d="M152.703 435.384L143.586 430.12V433.318L152.703 438.582V435.384Z" fill="white"/>
<path d="M150.164 436.914L141.047 431.651V434.849L150.164 440.113V436.914Z" fill="white"/>
<path d="M86.4586 473.073L77.3413 467.809L75.3828 468.938L84.5001 474.206L86.4586 473.073Z" fill="white"/>
<path d="M84.5001 474.205L75.3828 468.938V472.136L84.5001 477.4V474.205Z" fill="white"/>
<path d="M106.552 461.776L97.4351 456.508L95.4766 457.638L104.594 462.905L106.552 461.776Z" fill="white"/>
<path d="M104.594 462.905L95.4766 457.637V460.836L104.594 466.103V462.905Z" fill="white"/>
<path d="M128.42 449.424L119.302 444.161L117.34 445.29L126.461 450.557L128.42 449.424Z" fill="white"/>
<path d="M126.461 450.558L117.34 445.291V448.489L126.461 453.756V450.558Z" fill="white"/>
<path d="M139.764 431.963C139.63 431.9 139.452 431.919 139.263 432.03L128.258 438.383C127.843 438.624 127.504 439.209 127.504 439.69V444.5C127.504 444.78 127.622 444.962 127.8 445.021L137.225 450.363C137.087 450.284 137.004 450.115 137.004 449.874V445.068C137.004 444.591 137.344 444.002 137.758 443.765L148.763 437.408C148.961 437.294 149.142 437.282 149.276 437.349L139.764 431.963Z" fill="#57585A"/>
<path d="M154.666 434.25L145.544 428.987L143.586 430.12L152.703 435.384L154.666 434.25Z" fill="white"/>
<path d="M66.521 486.564L160.58 432.259L158.622 431.126L64.5625 485.431L66.521 486.564Z" fill="white"/>
<path d="M66.5195 489.055L160.579 434.75V432.259L66.5195 486.564V489.055Z" fill="white"/>
<path d="M159.592 435.315L66.5195 489.056V496.941L111.214 471.133L117.243 470.703L147.505 453.23L149.171 452.571L159.592 446.553V435.315Z" fill="white"/>
<path d="M159.592 435.315L66.5195 489.056V490.916L159.592 437.179V435.315Z" fill="white"/>
<path d="M50.5132 477.281L144.573 422.972L142.61 421.843L48.5508 476.152L50.5132 477.281Z" fill="white"/>
<path d="M51.4897 481.475L145.549 427.166L143.591 426.037L49.5312 480.342L51.4897 481.475Z" fill="white"/>
<path d="M50.5156 479.774L144.575 425.469V422.973L50.5156 477.282V479.774Z" fill="white"/>
<path d="M152.123 435.786L143.005 430.522L141.047 431.652L150.164 436.915L152.123 435.786Z" fill="white"/>
<path d="M127.398 463.983L143.082 473.037L141.511 468.378L132.389 462.597L127.398 463.983Z" fill="white"/>
<path d="M161.353 454.036H161.357L161.302 454.004C161.215 453.949 161.124 453.898 161.034 453.846L150.984 448.054C149.125 447.169 146.657 447.402 143.944 448.97C138.171 452.303 133.496 460.405 133.496 467.066C133.496 467.185 133.5 467.299 133.504 467.418L143.348 473.1L144.797 472.267C144.793 472.148 144.789 472.034 144.789 471.915C144.789 466.174 148.821 459.197 153.792 456.322C158.763 453.452 162.795 455.781 162.795 461.519C162.795 461.637 162.791 461.755 162.787 461.878L164.236 461.045C164.24 460.922 164.244 460.804 164.244 460.681C164.236 457.467 163.138 455.173 161.353 454.036Z" fill="white"/>
<path d="M160.174 456.947L155.574 454.207C154.034 453.33 151.913 453.464 149.572 454.815C144.865 457.531 141.051 464.137 141.051 469.571C141.051 472.303 142.014 474.222 143.574 475.103L148.174 477.843C149.714 478.716 151.83 478.581 154.168 477.227C158.875 474.51 162.689 467.904 162.689 462.471C162.689 459.747 161.726 457.832 160.174 456.947Z" fill="white"/>
<path d="M162.691 462.476C162.691 467.909 158.876 474.515 154.169 477.232C151.832 478.582 149.715 478.716 148.175 477.848C146.616 476.963 145.652 475.048 145.652 472.316C145.652 466.883 149.467 460.277 154.173 457.56C156.515 456.21 158.635 456.075 160.175 456.952C161.727 457.832 162.691 459.747 162.691 462.476Z" fill="#57585A"/>
<path d="M159.707 464.232C159.707 467.612 157.334 471.723 154.404 473.413C151.479 475.103 149.105 473.733 149.105 470.353C149.105 466.973 151.479 462.862 154.404 461.172C157.334 459.478 159.707 460.848 159.707 464.232Z" fill="white"/>
<path d="M154.408 461.579C154.152 461.729 153.903 461.903 153.654 462.088C153.796 461.99 153.943 461.895 154.089 461.812C156.604 460.363 158.641 461.536 158.641 464.442C158.641 467.344 156.604 470.87 154.089 472.323C151.577 473.772 149.54 472.596 149.54 469.697C149.54 469.35 149.571 468.995 149.627 468.635C149.524 469.149 149.465 469.658 149.465 470.148C149.465 473.302 151.68 474.578 154.408 473.002C157.141 471.427 159.356 467.589 159.356 464.438C159.352 461.283 157.141 460.004 154.408 461.579Z" fill="#57585A"/>
<path d="M158.355 464.56C158.355 467.328 156.412 470.697 154.011 472.082C151.611 473.468 149.668 472.343 149.668 469.575C149.668 466.807 151.611 463.439 154.011 462.053C156.412 460.671 158.355 461.792 158.355 464.56Z" fill="#57585A"/>
<path d="M156.669 467.075C156.669 468.157 155.911 469.472 154.971 470.013C154.032 470.554 153.273 470.116 153.273 469.034C153.273 467.952 154.036 466.637 154.971 466.096C155.911 465.555 156.669 465.993 156.669 467.075Z" fill="#57585A"/>
<path d="M133.584 465.811L128.984 463.071C127.444 462.194 125.324 462.329 122.982 463.679C118.275 466.396 114.461 473.002 114.461 478.435C114.461 481.167 115.424 483.086 116.984 483.967L121.584 486.707C123.124 487.58 125.241 487.446 127.578 486.091C132.285 483.375 136.099 476.769 136.099 471.335C136.099 468.611 135.136 466.696 133.584 465.811Z" fill="white" stroke="#57585A" stroke-width="1.42671"/>
<path d="M136.101 471.339C136.101 476.772 132.286 483.378 127.58 486.095C125.242 487.446 123.126 487.58 121.586 486.711C120.026 485.827 119.062 483.912 119.062 481.179C119.062 475.746 122.877 469.14 127.584 466.423C129.925 465.073 132.045 464.939 133.585 465.815C135.137 466.696 136.101 468.611 136.101 471.339Z" fill="#57585A"/>
<path d="M133.118 473.096C133.118 476.476 130.744 480.586 127.815 482.276C124.889 483.966 122.516 482.596 122.516 479.216C122.516 475.836 124.889 471.725 127.815 470.035C130.744 468.341 133.118 469.712 133.118 473.096Z" fill="white"/>
<path d="M127.819 470.443C127.562 470.593 127.313 470.767 127.064 470.952C127.207 470.853 127.353 470.759 127.499 470.676C130.014 469.227 132.052 470.399 132.052 473.306C132.052 476.208 130.014 479.734 127.499 481.187C124.987 482.636 122.95 481.459 122.95 478.561C122.95 478.214 122.982 477.858 123.037 477.499C122.934 478.012 122.875 478.522 122.875 479.011C122.875 482.166 125.09 483.442 127.819 481.866C130.551 480.291 132.766 476.453 132.766 473.302C132.762 470.147 130.551 468.867 127.819 470.443Z" fill="#57585A"/>
<path d="M131.765 473.424C131.765 476.192 129.822 479.56 127.422 480.946C125.021 482.332 123.078 481.207 123.078 478.439C123.078 475.671 125.021 472.303 127.422 470.917C129.822 469.535 131.765 470.656 131.765 473.424Z" fill="#57585A"/>
<path d="M130.079 475.939C130.079 477.021 129.321 478.336 128.381 478.877C127.442 479.418 126.684 478.979 126.684 477.898C126.684 476.816 127.446 475.501 128.381 474.96C129.321 474.419 130.079 474.857 130.079 475.939Z" fill="#57585A"/>
<path d="M144.789 472.27C144.785 472.151 144.781 472.037 144.781 471.918C144.781 466.177 148.813 459.2 153.784 456.325C158.755 453.455 162.787 455.784 162.787 461.522C162.787 461.64 162.783 461.759 162.779 461.881L164.228 461.048C164.232 460.926 164.236 460.807 164.236 460.685C164.236 454.019 159.557 451.319 153.784 454.651C148.011 457.984 143.332 466.086 143.332 472.748C143.332 472.87 143.336 472.981 143.34 473.099L144.789 472.27Z" fill="#57585A"/>
<path d="M139.494 468.765L134.894 466.025C133.354 465.149 131.234 465.283 128.892 466.633C124.185 469.35 120.371 475.956 120.371 481.389C120.371 484.121 121.335 486.04 122.894 486.921L127.494 489.661C129.034 490.534 131.151 490.4 133.488 489.045C138.195 486.329 142.009 479.723 142.009 474.289C142.009 471.565 141.046 469.65 139.494 468.765Z" fill="white" stroke="#57585A" stroke-width="1.42671"/>
<path d="M142.011 474.293C142.011 479.726 138.196 486.332 133.49 489.049C131.152 490.399 129.036 490.533 127.496 489.665C125.936 488.78 124.973 486.865 124.973 484.133C124.973 478.699 128.787 472.093 133.494 469.377C135.835 468.026 137.956 467.892 139.496 468.769C141.047 469.649 142.011 471.564 142.011 474.293Z" fill="#57585A"/>
<path d="M139.028 476.051C139.028 479.431 136.655 483.541 133.725 485.231C130.799 486.921 128.426 485.551 128.426 482.171C128.426 478.791 130.799 474.68 133.725 472.99C136.655 471.296 139.028 472.667 139.028 476.051Z" fill="white"/>
<path d="M133.729 473.397C133.472 473.547 133.223 473.721 132.975 473.906C133.117 473.808 133.263 473.713 133.409 473.63C135.924 472.181 137.962 473.354 137.962 476.26C137.962 479.162 135.924 482.688 133.409 484.141C130.898 485.59 128.86 484.413 128.86 481.515C128.86 481.168 128.892 480.812 128.947 480.453C128.844 480.966 128.785 481.476 128.785 481.965C128.785 485.12 131 486.396 133.729 484.82C136.461 483.245 138.676 479.407 138.676 476.256C138.672 473.101 136.461 471.821 133.729 473.397Z" fill="#57585A"/>
<path d="M137.675 476.378C137.675 479.146 135.732 482.514 133.332 483.9C130.931 485.286 128.988 484.161 128.988 481.393C128.988 478.625 130.931 475.257 133.332 473.871C135.732 472.489 137.675 473.61 137.675 476.378Z" fill="#57585A"/>
<path d="M135.99 478.894C135.99 479.976 135.231 481.291 134.292 481.832C133.352 482.373 132.594 481.935 132.594 480.853C132.594 479.771 133.356 478.456 134.292 477.915C135.231 477.374 135.99 477.812 135.99 478.894Z" fill="#57585A"/>
<path d="M140.439 466.119H140.443L140.388 466.088C140.297 466.036 140.206 465.981 140.116 465.934L130.066 460.141C128.211 459.257 125.739 459.49 123.026 461.057C117.253 464.386 112.574 472.492 112.574 479.154C112.574 479.272 112.582 479.391 112.582 479.505L122.426 485.187L123.875 484.35C123.871 484.236 123.867 484.117 123.867 483.999C123.867 478.257 127.899 471.28 132.87 468.41C137.841 465.539 141.869 467.865 141.869 473.606C141.869 473.724 141.865 473.847 141.861 473.969L143.31 473.132C143.314 473.01 143.318 472.895 143.318 472.773C143.322 469.543 142.224 467.253 140.439 466.119Z" fill="white" stroke="#57585A" stroke-width="1.42671"/>
<path d="M123.879 484.35C123.875 484.235 123.871 484.117 123.871 483.998C123.871 478.257 127.903 471.28 132.874 468.409C137.845 465.539 141.873 467.864 141.873 473.605C141.873 473.724 141.869 473.846 141.865 473.969L143.314 473.132C143.318 473.009 143.322 472.895 143.322 472.772C143.322 466.107 138.643 463.41 132.87 466.739C127.097 470.071 122.422 478.174 122.422 484.839C122.422 484.958 122.426 485.072 122.43 485.191L123.879 484.35Z" fill="#57585A"/>
<path d="M169.244 448.578L156.659 441.313L155.266 442.119L167.85 449.384L169.244 448.578Z" fill="white"/>
<path d="M103.895 475.118C102.632 474.387 100.586 474.387 99.3227 475.118C98.6909 475.481 98.375 475.959 98.375 476.437V484.796C98.375 485.273 98.6909 485.751 99.3227 486.114C100.586 486.841 102.632 486.841 103.895 486.114C104.527 485.751 104.843 485.273 104.843 484.796V476.437C104.843 475.959 104.527 475.481 103.895 475.118Z" fill="white"/>
<path d="M103.895 475.118C105.159 475.844 105.159 477.029 103.895 477.755C102.632 478.486 100.586 478.486 99.3227 477.755C98.0591 477.025 98.0591 475.844 99.3227 475.118C100.586 474.387 102.632 474.387 103.895 475.118Z" fill="white"/>
<path d="M98.5514 477.684C97.2878 476.954 95.2425 476.954 93.9789 477.684C93.3471 478.047 93.0312 478.529 93.0312 479.003V487.362C93.0312 487.84 93.3471 488.318 93.9789 488.681C95.2425 489.407 97.2878 489.407 98.5514 488.681C99.1831 488.318 99.499 487.84 99.499 487.362V479.003C99.499 478.525 99.1831 478.047 98.5514 477.684Z" fill="white"/>
<path d="M98.5514 477.684C99.8149 478.415 99.8149 479.595 98.5514 480.326C97.2878 481.052 95.2425 481.052 93.9789 480.326C92.7154 479.599 92.7154 478.415 93.9789 477.684C95.2425 476.954 97.2878 476.954 98.5514 477.684Z" fill="white"/>
<path d="M100.399 484.958L91.598 479.876C91.3611 479.738 91.1479 479.746 91.0097 479.868V479.864L72.862 490.304C72.7159 490.375 72.6211 490.553 72.6211 490.802V499.019C72.6211 499.497 72.9607 500.085 73.3753 500.326L82.1806 505.408C82.386 505.53 82.5755 505.538 82.7137 505.459L100.925 494.972C100.932 494.964 100.94 494.96 100.948 494.956L100.96 494.952C101.083 494.865 101.161 494.707 101.161 494.482V486.265C101.154 485.783 100.814 485.195 100.399 484.958Z" fill="white" stroke="#57585A" stroke-width="1.42671"/>
<path d="M146.274 352.013L35.7969 415.802V471.596L82.7179 498.545L193.195 434.759V378.958L146.274 352.013Z" fill="#57585A"/>
<path d="M192.134 379.574L145.095 352.7L37.1523 415.021L83.951 441.895V490.964L192.154 428.493V379.558L192.134 379.574Z" fill="white" stroke="#57585A" stroke-width="1.42671"/>
<g opacity="0.2">
<path opacity="0.1" d="M192.152 379.558V435.359L193.195 434.759V378.958L192.152 379.558Z" fill="white"/>
</g>
<path d="M83.9492 441.894V490.963L192.152 428.493L192.133 379.574L83.9492 441.894Z" fill="white" stroke="#57585A" stroke-width="1.42671"/>
<path opacity="0.2" d="M192.152 379.558V435.36L192.425 435.202V379.404L192.152 379.558Z" fill="white"/>
<path d="M76.175 511.768L75.4327 513.044L72.6213 511.768L55.1133 518.43L55.7174 506.193L66.3707 501.214L74.8049 502.225L76.175 511.768Z" fill="#57585A"/>
<path d="M74.5086 516.937C74.5086 517.414 74.1651 517.616 73.7465 517.383L64.266 512.131C63.8474 511.898 63.5039 511.318 63.5039 510.84V495.448C63.5039 494.971 63.8435 494.769 64.262 494.998L73.7426 500.25C74.1611 500.483 74.5047 501.063 74.5047 501.541V516.937H74.5086Z" fill="#57585A"/>
<path d="M70.6269 508.088L66.0268 505.348C64.4869 504.471 62.3665 504.606 60.025 505.956C55.3182 508.673 51.5039 515.279 51.5039 520.712C51.5039 523.444 52.4674 525.363 54.0271 526.244L58.6272 528.984C60.1671 529.857 62.2835 529.722 64.6211 528.368C69.3278 525.651 73.1422 519.046 73.1422 513.612C73.1422 510.888 72.1787 508.973 70.6269 508.088Z" fill="white" stroke="#57585A" stroke-width="1.42671"/>
<path d="M73.1397 513.617C73.1397 519.05 69.3254 525.656 64.6187 528.372C62.2811 529.723 60.1647 529.857 58.6247 528.988C57.065 528.104 56.1016 526.189 56.1016 523.456C56.1016 518.023 59.9159 511.417 64.6226 508.701C66.9641 507.35 69.0845 507.216 70.6245 508.092C72.1763 508.973 73.1397 510.888 73.1397 513.617Z" fill="#57585A"/>
<path d="M70.1606 515.373C70.1606 518.753 67.7875 522.864 64.8576 524.554C61.9317 526.244 59.5586 524.874 59.5586 521.494C59.5586 518.114 61.9317 514.003 64.8576 512.313C67.7875 510.619 70.1606 511.989 70.1606 515.373Z" fill="white"/>
<path d="M64.8616 512.72C64.6049 512.87 64.3562 513.044 64.1074 513.23C64.2496 513.131 64.3957 513.036 64.5418 512.953C67.057 511.504 69.0945 512.677 69.0945 515.583C69.0945 518.485 67.057 522.011 64.5418 523.464C62.0305 524.913 59.993 523.737 59.993 520.838C59.993 520.491 60.0246 520.136 60.0799 519.776C59.9772 520.29 59.918 520.799 59.918 521.289C59.918 524.444 62.1331 525.719 64.8616 524.143C67.594 522.568 69.8092 518.73 69.8092 515.579C69.8052 512.424 67.594 511.145 64.8616 512.72Z" fill="#57585A"/>
<path d="M68.8041 515.701C68.8041 518.469 66.8614 521.837 64.4606 523.223C62.0599 524.609 60.1172 523.484 60.1172 520.716C60.1172 517.948 62.0599 514.58 64.4606 513.194C66.8614 511.812 68.8041 512.933 68.8041 515.701Z" fill="#57585A"/>
<path d="M67.1223 518.216C67.1223 519.298 66.3642 520.613 65.4245 521.154C64.4847 521.695 63.7266 521.257 63.7266 520.175C63.7266 519.093 64.4886 517.778 65.4245 517.237C66.3642 516.696 67.1223 517.134 67.1223 518.216Z" fill="#57585A"/>
<path d="M7.21984 471.686C7.21984 472.164 6.88026 472.362 6.46566 472.121L3.50027 470.407C3.08567 470.166 2.74609 469.582 2.74609 469.104V456.856C2.74609 456.378 3.08567 456.18 3.50027 456.421L6.46566 458.131C6.88026 458.368 7.21984 458.96 7.21984 459.434V471.686Z" fill="#57585A"/>
<path d="M77.5692 512.108C77.5692 512.108 77.2691 504.218 77.1111 502.907C76.9532 501.6 76.7636 500.637 76.4793 500.463C76.1951 500.289 73.5298 498.745 73.5298 498.745L73.1665 497.845L76.1753 495.91L74.4419 493.687L73.3876 492.633V489.885L73.9917 489.585C73.9917 489.585 72.7084 469.329 72.5229 466.73C72.3333 464.132 71.0145 460.855 69.7746 459.765C68.5348 458.671 59.2359 452.95 53.4354 449.372C47.6389 445.795 37.8503 440.374 35.7418 439.284C33.6332 438.19 33.1791 438.68 32.3183 439.284C31.4497 439.884 10.8329 452.928 9.27282 454.539C6.61364 455.425 6.61364 455.425 4.59531 456.46C4.59531 456.46 4.37814 460.128 4.46895 461.151C4.53213 461.842 4.65059 462.651 5.46795 463.587C4.74141 468.243 3.55288 477.285 3.55288 477.285L3.33571 483.259C2.2538 483.784 1.57069 485.794 1.51146 486.323C1.44828 486.848 1.16793 490.003 1.51146 491.583C1.85104 493.162 4.0504 494.864 4.0504 494.864C2.84214 495.204 3.11854 498.268 2.96454 500.341C2.81055 502.414 2.84214 504.799 4.23204 506.193C5.62589 507.586 10.4827 511.27 10.4827 511.27C9.98513 512.538 11.379 513.683 11.379 513.683C11.379 513.683 28.2789 523.866 28.7409 523.866C29.2069 523.866 31.0943 523.278 31.0943 523.278C31.0943 523.278 36.5078 526.125 39.2007 526.99C41.8937 527.854 44.3102 526.37 44.3102 526.37V524.332L49.2736 521.77V521.106L51.9073 519.641L53.3367 520.498L55.5321 519.345C55.5321 519.345 56.9852 513.339 58.2645 509.703C59.5439 506.066 61.9762 503.839 64.0018 502.453C66.0274 501.071 69.5851 499.097 69.9168 499.022C70.2485 498.947 70.6591 498.793 71.3778 498.765L72.8901 501.632L73.7351 502.477C73.7351 502.477 74.7341 504.526 75.1447 507.78C75.5554 511.034 75.4251 513.035 75.4251 513.035L77.5692 512.108Z" fill="white" stroke="#57585A" stroke-width="1.42671"/>
<path d="M70.8753 461.258C71.7045 462.758 72.3915 464.914 72.5258 466.735C72.7153 469.333 73.9947 489.585 73.9907 489.569L73.3866 489.869V492.618L45.2608 508.681V510.868L59.0177 503.239C59.0177 503.239 57.0473 506.608 56.6525 507.216L51.6733 510.153C51.6733 510.153 50.777 513.624 50.311 516.42L44.3131 519.634V522.366L52.7118 517.889V519.148L51.9102 519.626L49.2765 521.091V521.754L44.3131 524.317V526.354C44.3131 526.354 41.8966 527.839 39.2036 526.974C36.5107 526.11 31.0972 523.263 31.0972 523.263C31.0972 523.263 29.2098 523.851 28.7438 523.851C28.2819 523.851 11.3819 513.668 11.3819 513.668C11.3819 513.668 9.98805 512.522 10.4856 511.255C10.4856 511.255 5.62881 507.571 4.23496 506.177C2.9951 504.933 2.83716 502.904 2.92403 501.008C3.23202 502.24 3.76508 502.793 4.87463 503.772C5.96049 504.736 8.06509 506.698 8.456 506.781C8.84691 506.864 8.65343 505.944 8.62184 505.648C8.5863 505.348 7.7413 504.546 7.7413 504.546L4.65351 501.083L3.57949 497.853C3.57949 497.853 3.33468 497.621 3.07802 497.388C3.10566 497.012 3.13725 496.649 3.19253 496.325C3.29914 497.084 3.9783 497.857 5.17867 498.991C6.75811 500.479 8.84691 501.873 8.84691 501.873C9.82221 502.766 11.5991 503.978 13.2417 504.957C14.9712 505.988 27.1644 513.336 28.2976 513.956C28.9492 514.311 30.4299 515.243 31.8751 515.547C35.026 517.186 39.6143 518.769 41.1977 518.769C42.5284 518.769 44.3131 518.062 44.3131 518.062L43.709 516.084C42.4139 516.542 41.1424 516.909 39.9578 516.676C36.3765 515.97 34.6035 514.805 34.6035 514.805C34.6312 514.773 34.6588 514.746 34.6825 514.71L32.4121 513.213C32.1159 513.127 31.804 512.992 31.4842 512.834C30.4575 512.321 22.6235 507.78 19.8793 506.082C17.135 504.388 9.87354 499.986 8.03745 498.584C7.65444 498.292 7.33855 497.925 7.07399 497.53C7.07399 497.53 7.16876 497.976 7.33065 498.58C4.54295 496.503 4.05332 494.86 4.05332 494.86C4.05332 494.86 1.85396 493.159 1.51438 491.579C1.20244 490.134 1.40777 487.362 1.49464 486.509C1.59335 487.042 1.73155 487.496 1.90924 487.485C2.32779 487.453 4.06517 487.552 4.78776 487.777C4.59823 487.587 3.33863 485.802 3.33863 485.475V483.256L3.5558 477.281C3.5558 477.281 3.62293 476.784 3.73349 475.97L4.78776 460.448L32.7082 480.511C33.3439 480.89 33.8217 481.171 34.0942 481.321C36.2935 482.553 40.7554 484.918 42.0664 482.952C43.3734 480.989 43.5234 477.526 43.5234 477.526L70.8753 461.258Z" fill="white" stroke="#57585A" stroke-width="1.42671" stroke-linejoin="round"/>
<g opacity="0.3">
<path opacity="0.3" d="M3.20449 502.537C3.12931 502.387 3.09766 502.292 3.09766 502.292C3.09766 502.292 3.09766 502.355 3.10557 502.49L3.20449 502.537Z" fill="#57585A"/>
</g>
<path opacity="0.2" d="M1.82237 488.204C1.79473 487.576 1.85396 487.477 1.85396 487.477C1.70391 487.406 1.58546 486.991 1.49464 486.51C1.40777 487.367 1.20244 490.135 1.51438 491.584C1.85396 493.163 4.05332 494.865 4.05332 494.865C4.1244 494.908 4.19152 494.952 4.2626 494.991C3.13725 493.85 2.74239 492.792 2.48968 491.9C2.21723 490.936 1.84606 488.832 1.82237 488.204Z" fill="white"/>
<g opacity="0.2">
<path opacity="0.2" d="M44.8834 482.545C44.8558 482.707 44.836 482.873 44.8281 483.043C44.8439 482.873 44.8637 482.707 44.8834 482.545Z" fill="white"/>
</g>
<path d="M38.5833 478.782C32.9407 476.172 12.5068 463.434 9.60458 461.258C7.27886 459.513 5.69943 458.889 4.59777 456.464C4.59777 456.464 4.3806 460.133 4.47142 461.155C4.5346 461.846 4.65305 462.656 5.47041 463.592C5.47041 463.592 6.92349 464.748 11.4288 467.56C15.9302 470.371 31.8944 480.097 34.0937 481.321C36.2931 482.549 40.755 484.914 42.0659 482.951C42.7846 481.873 43.1557 480.341 43.3413 479.181C42.3265 479.552 40.6918 479.757 38.5833 478.782Z" fill="#57585A"/>
<g opacity="0.2">
<path opacity="0.2" d="M44.3919 506.983L44.2379 506.975L44.5459 498.683L43.9062 497.593L43.9102 497.566C43.9299 497.416 45.8647 482.458 45.92 481.775C45.9753 481.045 46.457 479.844 46.9506 479.201L47.073 479.295C46.5952 479.919 46.1293 481.084 46.078 481.787C46.0266 482.466 44.1905 496.646 44.0721 497.562L44.7078 498.644V498.663L44.3919 506.983Z" fill="white"/>
</g>
<g opacity="0.2">
<path opacity="0.2" d="M36.8454 506.998L36.6953 506.963L38.1839 500.842L38.334 500.882L36.8454 506.998Z" fill="white"/>
</g>
<g opacity="0.2">
<path opacity="0.2" d="M4.85159 488.317L4.48438 480.752L4.63442 480.748L5.00559 488.31L4.85159 488.317Z" fill="white"/>
</g>
<g opacity="0.2">
<path opacity="0.2" d="M49.0746 477.297L48.5494 474.505C48.5494 474.505 48.119 473.597 47.3135 473.107C47.1477 473.008 46.6067 472.657 45.7893 472.124C42.4133 469.933 34.1608 465.064 28.9763 462.083C22.5519 458.387 14.098 453.309 14.0111 453.258C13.9993 453.25 12.6962 452.547 12.2461 452.468L12.2698 452.318C12.7436 452.401 14.0309 453.096 14.0822 453.123C14.173 453.175 22.6625 458.272 29.0513 461.948C34.2358 464.934 42.4923 469.802 45.8723 471.998C46.6896 472.527 47.2266 472.874 47.3925 472.977C48.2414 473.49 48.6758 474.418 48.6916 474.458L49.2246 477.269L49.0746 477.297Z" fill="white"/>
</g>
<path d="M50.3391 497.973C50.1402 497.973 49.9293 497.917 49.7185 497.812L47.2479 496.56C47.1007 496.487 47.049 496.32 47.1365 496.191C47.224 496.062 47.411 496.016 47.5582 496.093L50.0288 497.345C50.2038 497.436 50.363 497.457 50.4584 497.408C50.5539 497.359 50.6096 497.23 50.6096 497.052V482.171C50.6096 481.683 50.2038 481.066 49.7185 480.818L47.2479 479.57C47.1007 479.496 47.049 479.329 47.1365 479.2C47.224 479.067 47.411 479.026 47.5582 479.099L50.0288 480.351C50.7011 480.689 51.2303 481.491 51.2303 482.171V497.052C51.2303 497.429 51.0592 497.729 50.7648 497.879C50.6375 497.941 50.4943 497.973 50.3391 497.973Z" fill="#57585A" stroke="#57585A" stroke-width="1.42671"/>
<path d="M54.1834 496.903C54.1834 497.329 53.8694 497.505 53.4861 497.29L50.7442 495.765C50.3609 495.551 50.0469 495.029 50.0469 494.6V483.678C50.0469 483.252 50.3609 483.076 50.7442 483.291L53.4861 484.815C53.8694 485.027 54.1834 485.551 54.1834 485.981V496.903Z" fill="#57585A"/>
<path d="M3.66016 482.903C14.0014 489.699 35.1567 503.231 37.0477 502.994C38.9386 502.758 40.1993 501.911 40.5932 501.517L42.957 480.244" stroke="#57585A" stroke-width="1.42671"/>
<line x1="45.5597" y1="479.622" x2="68.6059" y2="466.622" stroke="#57585A" stroke-width="1.42671"/>
<path d="M45.9134 479.062L44.1406 498.562" stroke="#57585A" stroke-width="1.42671"/>
<line y1="-0.713356" x2="167.103" y2="-0.713356" transform="matrix(0.753233 0.657753 0.657753 -0.753233 144.848 231.462)" stroke="#57585A" stroke-width="1.42671"/>
<line y1="-0.713356" x2="167.103" y2="-0.713356" transform="matrix(0.753233 0.657753 0.657753 -0.753233 160.801 224.372)" stroke="#57585A" stroke-width="1.42671"/>
<line y1="-0.713356" x2="167.103" y2="-0.713356" transform="matrix(0.753233 0.657753 0.657753 -0.753233 172.031 216.098)" stroke="#57585A" stroke-width="1.42671"/>
<line y1="-0.713356" x2="167.103" y2="-0.713356" transform="matrix(0.753233 0.657753 0.657753 -0.753233 186.215 210.78)" stroke="#57585A" stroke-width="1.42671"/>
<line y1="-0.713356" x2="167.103" y2="-0.713356" transform="matrix(0.753233 0.657753 0.657753 -0.753233 277.586 156.704)" stroke="#57585A" stroke-width="1.42671"/>
<line y1="-0.713356" x2="167.103" y2="-0.713356" transform="matrix(0.753233 0.657753 0.657753 -0.753233 368.895 103.44)" stroke="#57585A" stroke-width="1.42671"/>
<line y1="-0.713356" x2="167.103" y2="-0.713356" transform="matrix(0.753233 0.657753 0.657753 -0.753233 198.031 200.734)" stroke="#57585A" stroke-width="1.42671"/>
<line y1="-0.713356" x2="167.103" y2="-0.713356" transform="matrix(0.753233 0.657753 0.657753 -0.753233 289.402 146.659)" stroke="#57585A" stroke-width="1.42671"/>
<line y1="-0.713356" x2="167.103" y2="-0.713356" transform="matrix(0.753233 0.657753 0.657753 -0.753233 380.715 93.3945)" stroke="#57585A" stroke-width="1.42671"/>
<line y1="-0.713356" x2="167.103" y2="-0.713356" transform="matrix(0.753233 0.657753 0.657753 -0.753233 211.625 193.643)" stroke="#57585A" stroke-width="1.42671"/>
<line y1="-0.713356" x2="167.103" y2="-0.713356" transform="matrix(0.753233 0.657753 0.657753 -0.753233 302.996 139.567)" stroke="#57585A" stroke-width="1.42671"/>
<line y1="-0.713356" x2="167.103" y2="-0.713356" transform="matrix(0.753233 0.657753 0.657753 -0.753233 394.305 86.3032)" stroke="#57585A" stroke-width="1.42671"/>
<line y1="-0.713356" x2="167.103" y2="-0.713356" transform="matrix(0.753233 0.657753 0.657753 -0.753233 225.215 185.961)" stroke="#57585A" stroke-width="1.42671"/>
<line y1="-0.713356" x2="167.103" y2="-0.713356" transform="matrix(0.753233 0.657753 0.657753 -0.753233 316.586 131.885)" stroke="#57585A" stroke-width="1.42671"/>
<line y1="-0.713356" x2="167.103" y2="-0.713356" transform="matrix(0.753233 0.657753 0.657753 -0.753233 407.895 78.6216)" stroke="#57585A" stroke-width="1.42671"/>
<line y1="-0.713356" x2="167.103" y2="-0.713356" transform="matrix(0.753233 0.657753 0.657753 -0.753233 238.805 178.87)" stroke="#57585A" stroke-width="1.42671"/>
<line y1="-0.713356" x2="167.103" y2="-0.713356" transform="matrix(0.753233 0.657753 0.657753 -0.753233 330.176 124.794)" stroke="#57585A" stroke-width="1.42671"/>
<line y1="-0.713356" x2="167.103" y2="-0.713356" transform="matrix(0.753233 0.657753 0.657753 -0.753233 421.484 71.5298)" stroke="#57585A" stroke-width="1.42671"/>
<line y1="-0.713356" x2="167.103" y2="-0.713356" transform="matrix(0.753233 0.657753 0.657753 -0.753233 252.395 171.188)" stroke="#57585A" stroke-width="1.42671"/>
<line y1="-0.713356" x2="167.103" y2="-0.713356" transform="matrix(0.753233 0.657753 0.657753 -0.753233 343.77 117.112)" stroke="#57585A" stroke-width="1.42671"/>
<line y1="-0.713356" x2="167.103" y2="-0.713356" transform="matrix(0.753233 0.657753 0.657753 -0.753233 435.078 63.8481)" stroke="#57585A" stroke-width="1.42671"/>
<line y1="-0.713356" x2="167.103" y2="-0.713356" transform="matrix(0.753233 0.657753 0.657753 -0.753233 459.809 47.6787)" stroke="#57585A" stroke-width="1.42671"/>
<line y1="-0.713356" x2="167.103" y2="-0.713356" transform="matrix(0.753233 0.657753 0.657753 -0.753233 264.809 163.506)" stroke="#57585A" stroke-width="1.42671"/>
<line y1="-0.713356" x2="167.103" y2="-0.713356" transform="matrix(0.753233 0.657753 0.657753 -0.753233 356.18 109.43)" stroke="#57585A" stroke-width="1.42671"/>
<line y1="-0.713356" x2="167.103" y2="-0.713356" transform="matrix(0.753233 0.657753 0.657753 -0.753233 447.488 56.166)" stroke="#57585A" stroke-width="1.42671"/>
<line y1="-0.713356" x2="167.103" y2="-0.713356" transform="matrix(0.753233 0.657753 0.657753 -0.753233 472.219 39.9966)" stroke="#57585A" stroke-width="1.42671"/>
</svg>
