<svg width="96" height="75" viewBox="0 0 96 75" fill="none" xmlns="http://www.w3.org/2000/svg">
<path fill-rule="evenodd" clip-rule="evenodd" d="M75.268 1.00039C70.9374 0.531195 65.4789 0.53122 58.5153 0.531251H40.5888C33.6253 0.53122 28.1668 0.531195 23.8362 1.00039C19.4169 1.47919 15.8361 2.47381 12.7788 4.69508C10.9279 6.03982 9.30024 7.66751 7.95549 9.51839C7.36926 10.3253 6.86336 11.1758 6.42831 12.0786C5.02454 14.9919 4.39887 18.3713 4.09409 22.4055C3.79165 26.4089 3.79166 31.3225 3.79167 37.3899V37.5C3.79167 39.0706 5.06486 40.3438 6.63542 40.3438C8.20598 40.3438 9.47917 39.0706 9.47917 37.5C9.47917 31.3 9.48102 26.5987 9.76543 22.834C9.88664 21.2296 10.0567 19.8445 10.2857 18.6303L15.884 24.2286C22.073 30.4177 26.9232 35.2679 31.2163 38.5435C35.6106 41.8962 39.7539 43.866 44.5521 43.866C49.3503 43.866 63.4936 41.8962 67.8878 38.5435C72.1809 35.2679 77.0311 30.4178 83.22 24.2288L88.8185 18.6303C89.0475 19.8445 89.2175 21.2296 89.3387 22.834C89.6232 26.5987 89.625 31.3 89.625 37.5C89.625 44.6722 89.6211 49.8229 89.189 53.8116C88.7626 57.747 87.9468 60.2124 86.5474 62.1386C85.5535 63.5066 84.3504 64.7097 82.9823 65.7036C81.0562 67.1031 78.5908 67.9188 74.6553 68.3452C70.6667 68.7773 65.516 68.7812 58.3438 68.7812H40.7604C39.1899 68.7812 37.9167 70.0544 37.9167 71.625C37.9167 73.1956 39.1899 74.4688 40.7604 74.4688H58.5154C65.4788 74.4688 70.9374 74.4688 75.268 73.9996C79.6873 73.5208 83.2681 72.5262 86.3254 70.3049C88.1762 68.9602 89.8039 67.3325 91.1487 65.4816C93.3699 62.4243 94.3646 58.8435 94.8434 54.4242C95.3126 50.0937 95.3125 44.6353 95.3125 37.6719V37.3901C95.3125 31.3226 95.3125 26.4089 95.0101 22.4055C94.7053 18.3713 94.0796 14.9919 92.6759 12.0786C92.2408 11.1758 91.7349 10.3253 91.1487 9.5184C89.8039 7.66751 88.1762 6.03982 86.3254 4.69508C83.2681 2.47381 79.6873 1.47919 75.268 1.00039ZM19.7518 20.053L12.5582 12.8595C13.5519 11.4922 14.7544 10.2898 16.1218 9.29636C18.048 7.89691 20.5134 7.08117 24.4488 6.6548C28.4375 6.22265 33.5882 6.21875 40.7604 6.21875H58.3438C65.516 6.21875 70.6667 6.22265 74.6553 6.6548C78.5908 7.08117 81.0562 7.89691 82.9823 9.29636C84.3497 10.2898 85.5523 11.4922 86.546 12.8595L79.3524 20.053C72.9761 26.4293 68.3919 31.005 64.4379 34.0218C60.5495 36.9885 47.6067 38.1785 44.5521 38.1785C41.4975 38.1785 38.5546 36.9885 34.6663 34.0218C30.7123 31.005 26.1281 26.4293 19.7518 20.053Z" fill="#1F1111"/>
<path d="M2.84375 49.8229C1.27319 49.8229 0 51.0961 0 52.6667C0 54.2372 1.27319 55.5104 2.84375 55.5104H14.2188C15.7893 55.5104 17.0625 54.2372 17.0625 52.6667C17.0625 51.0961 15.7893 49.8229 14.2188 49.8229H2.84375Z" fill="#1F1111"/>
<path d="M2.84375 61.1979C1.27319 61.1979 0 62.4711 0 64.0417C0 65.6122 1.27319 66.8854 2.84375 66.8854H25.5938C27.1643 66.8854 28.4375 65.6122 28.4375 64.0417C28.4375 62.4711 27.1643 61.1979 25.5938 61.1979H2.84375Z" fill="#1F1111"/>
</svg>
