<svg width="40" height="28" viewBox="0 0 40 28" fill="none" xmlns="http://www.w3.org/2000/svg">
  <path d="M37.65 0H2.35C1.72674 0 1.12901 0.247588 0.688299 0.688299C0.247588 1.12901 0 1.72674 0 2.35V25.15C0 25.7733 0.247588 26.371 0.688299 26.8117C1.12901 27.2524 1.72674 27.5 2.35 27.5H37.65C38.2733 27.5 38.871 27.2524 39.3117 26.8117C39.7524 26.371 40 25.7733 40 25.15V2.35C40 1.72674 39.7524 1.12901 39.3117 0.688299C38.871 0.247588 38.2733 0 37.65 0V0ZM37.5 25H2.5V2.5H37.5V25Z" fill="white"/>
  <path d="M8.2002 11.8125C8.94188 11.8125 9.6669 11.5925 10.2836 11.1805C10.9003 10.7684 11.3809 10.1828 11.6647 9.49754C11.9486 8.81231 12.0228 8.05831 11.8781 7.33088C11.7334 6.60345 11.3763 5.93527 10.8518 5.41082C10.3274 4.88637 9.65921 4.52922 8.93178 4.38453C8.20436 4.23983 7.45036 4.31409 6.76513 4.59792C6.07991 4.88175 5.49424 5.3624 5.08218 5.97908C4.67013 6.59577 4.4502 7.32079 4.4502 8.06247C4.4502 9.05703 4.84528 10.0109 5.54855 10.7141C6.25181 11.4174 7.20563 11.8125 8.2002 11.8125ZM8.2002 6.06247C8.59774 6.05253 8.98922 6.16132 9.32463 6.37496C9.66004 6.58859 9.92415 6.89736 10.0832 7.26182C10.2423 7.62629 10.2891 8.0299 10.2177 8.4211C10.1462 8.81229 9.95981 9.17332 9.6822 9.45805C9.40458 9.74277 9.0484 9.93828 8.65913 10.0196C8.26987 10.1009 7.8652 10.0643 7.49683 9.91453C7.12845 9.76474 6.8131 9.50853 6.59104 9.17863C6.36899 8.84874 6.25032 8.46014 6.2502 8.06247C6.25003 7.54059 6.45387 7.03931 6.81819 6.66565C7.18252 6.29198 7.67848 6.07552 8.2002 6.06247Z" fill="white"/>
  <path d="M7.0105 22.5001C7.24351 22.5001 7.46698 22.4075 7.63174 22.2428L14.8744 15.0001L18.8494 18.9751L16.8333 20.9912C16.2765 21.548 16.6708 22.5001 17.4583 22.5001C17.6927 22.5001 17.9175 22.407 18.0833 22.2412L27.1494 13.1751L33.4866 19.4618C34.0468 20.0176 34.9994 19.6208 34.9994 18.8316C34.9994 18.5954 34.9053 18.3689 34.7378 18.2023L27.7494 11.2501C27.5832 11.0852 27.3585 10.9927 27.1244 10.9927C26.8903 10.9927 26.6656 11.0852 26.4994 11.2501L20.0494 17.7001L15.4619 13.1251C15.2957 12.9602 15.071 12.8677 14.8369 12.8677C14.6028 12.8677 14.3781 12.9602 14.2119 13.1251L6.38717 21.0024C5.83655 21.5567 6.22918 22.5001 7.0105 22.5001Z" fill="white"/>
</svg>
