<svg width="1020" height="492" viewBox="0 0 1020 492" fill="none" xmlns="http://www.w3.org/2000/svg">
<mask id="mask0_303_16913" style="mask-type:alpha" maskUnits="userSpaceOnUse" x="0" y="0" width="1020" height="492">
<path d="M1020 0H0V492H1020V0Z" fill="#C4C4C4"/>
</mask>
<g mask="url(#mask0_303_16913)">
<path d="M236.238 -34.3355L369.117 -71.6172L736.573 140.146V273.333L470.82 426.776L103.363 215.013V81.8253L236.238 -34.3355Z" fill="white"/>
<path d="M103.364 81.8253L236.239 -34.3355L369.117 -71.6172V61.5703L103.364 215.013V81.8253Z" fill="white"/>
<path d="M233.875 -35.718L366.753 -72.9998L369.117 -71.6174L236.239 -34.3357L105.142 80.27L470.23 290.684L601.339 176.066L734.218 138.784L736.573 140.146V273.333L473.698 425.115L473.041 425.495L470.82 426.776L101 213.63V80.447L233.875 -35.718Z" fill="white" stroke="#AB2421" stroke-width="1.5"/>
<path d="M470.821 293.588L603.696 177.427L736.574 140.146V273.333L470.821 426.776V293.588Z" fill="white" stroke="#AB2421" stroke-width="1.5"/>
<path d="M460.28 297.192V420.699L462.054 421.723V298.22L460.28 297.192Z" fill="#AB2421"/>
<path d="M452.038 292.446V415.949L453.816 416.973V293.47L452.038 292.446Z" fill="#AB2421"/>
<path d="M443.798 287.697V411.203L445.577 412.223V288.717L443.798 287.697Z" fill="#AB2421"/>
<path d="M435.562 282.947V406.453L437.34 407.477V283.971L435.562 282.947Z" fill="#AB2421"/>
<path d="M427.321 278.2V401.703L429.099 402.727V279.225L427.321 278.2Z" fill="#AB2421"/>
<path d="M419.084 273.452V396.954L420.858 397.983V274.476L419.084 273.452Z" fill="#AB2421"/>
<path d="M410.84 268.701V392.208L412.619 393.232V269.725L410.84 268.701Z" fill="#AB2421"/>
<path d="M402.601 263.952V387.459L404.375 388.479V264.976L402.601 263.952Z" fill="#AB2421"/>
<path d="M394.358 259.206V382.704L396.137 383.733V260.226L394.358 259.206Z" fill="#AB2421"/>
<path d="M386.12 254.452V377.958L387.899 378.982V255.476L386.12 254.452Z" fill="#AB2421"/>
<path d="M377.881 249.703V373.21L379.655 374.234V250.732L377.881 249.703Z" fill="#AB2421"/>
<path d="M369.639 244.957V368.459L371.421 369.483V245.981L369.639 244.957Z" fill="#AB2421"/>
<path d="M361.405 240.208V363.714L363.183 364.739V241.232L361.405 240.208Z" fill="#AB2421"/>
<path d="M353.165 235.462V358.964L354.939 359.988V236.482L353.165 235.462Z" fill="#AB2421"/>
<path d="M344.923 230.708V354.214L346.701 355.238V231.732L344.923 230.708Z" fill="#AB2421"/>
<path d="M336.685 225.958V349.465L338.459 350.489V226.986L336.685 225.958Z" fill="#AB2421"/>
<path d="M329.595 222.234V345.741L331.37 346.765V223.262L329.595 222.234Z" fill="#AB2421"/>
<path d="M321.353 217.488V340.991L323.131 342.015V218.512L321.353 217.488Z" fill="#AB2421"/>
<path d="M313.114 212.739V336.245L314.892 337.265V213.759L313.114 212.739Z" fill="#AB2421"/>
<path d="M304.877 207.989V331.495L306.656 332.519V209.013L304.877 207.989Z" fill="#AB2421"/>
<path d="M296.636 203.242V326.745L298.414 327.769V204.267L296.636 203.242Z" fill="#AB2421"/>
<path d="M288.399 198.494V321.996L290.174 323.025V199.518L288.399 198.494Z" fill="#AB2421"/>
<path d="M280.156 193.743V317.25L281.934 318.274V194.767L280.156 193.743Z" fill="#AB2421"/>
<path d="M271.916 188.994V312.501L273.69 313.521V190.018L271.916 188.994Z" fill="#AB2421"/>
<path d="M263.674 184.248V307.746L265.452 308.775V185.268L263.674 184.248Z" fill="#AB2421"/>
<path d="M255.436 179.494V303L257.214 304.024V180.518L255.436 179.494Z" fill="#AB2421"/>
<path d="M247.196 174.745V298.252L248.97 299.276V175.774L247.196 174.745Z" fill="#AB2421"/>
<path d="M238.954 169.999V293.501L240.736 294.525V171.023L238.954 169.999Z" fill="#AB2421"/>
<path d="M230.72 165.25V288.756L232.499 289.781V166.274L230.72 165.25Z" fill="#AB2421"/>
<path d="M222.48 160.504V284.006L224.255 285.03V161.524L222.48 160.504Z" fill="#AB2421"/>
<path d="M214.239 155.75V279.256L216.017 280.28V156.774L214.239 155.75Z" fill="#AB2421"/>
<path d="M206 151V274.507L207.774 275.531V152.028L206 151Z" fill="#AB2421"/>
<path d="M199.595 146.234V269.741L201.37 270.765V147.262L199.595 146.234Z" fill="#AB2421"/>
<path d="M191.353 141.488V264.991L193.131 266.015V142.512L191.353 141.488Z" fill="#AB2421"/>
<path d="M183.114 136.739V260.245L184.892 261.265V137.759L183.114 136.739Z" fill="#AB2421"/>
<path d="M174.877 131.989V255.495L176.656 256.519V133.013L174.877 131.989Z" fill="#AB2421"/>
<path d="M166.636 127.242V250.745L168.414 251.769V128.267L166.636 127.242Z" fill="#AB2421"/>
<path d="M158.399 122.494V245.996L160.174 247.025V123.518L158.399 122.494Z" fill="#AB2421"/>
<path d="M150.156 117.743V241.25L151.934 242.274V118.767L150.156 117.743Z" fill="#AB2421"/>
<path d="M141.916 112.994V236.501L143.69 237.521V114.018L141.916 112.994Z" fill="#AB2421"/>
<path d="M133.674 108.248V231.746L135.452 232.775V109.268L133.674 108.248Z" fill="#AB2421"/>
<path d="M125.436 103.494V227L127.214 228.024V104.518L125.436 103.494Z" fill="#AB2421"/>
<path d="M117.196 98.7454V222.252L118.97 223.276V99.7737L117.196 98.7454Z" fill="#AB2421"/>
<path d="M108.954 93.9985V217.501L110.736 218.525V95.0227L108.954 93.9985Z" fill="#AB2421"/>
<path d="M476.955 297.884V423.237L478.619 422.272V296.43L476.955 297.884Z" fill="#AB2421"/>
<path d="M484.663 291.145V418.782L486.327 417.826V289.687L484.663 291.145Z" fill="#AB2421"/>
<path d="M492.378 284.401V414.327L494.043 413.37V282.947L492.378 284.401Z" fill="#AB2421"/>
<path d="M500.095 277.654V409.876L501.76 408.911V276.2L500.095 277.654Z" fill="#AB2421"/>
<path d="M507.803 270.911V405.422L509.468 404.461V269.457L507.803 270.911Z" fill="#AB2421"/>
<path d="M515.518 264.171V400.966L517.183 400.006V262.713L515.518 264.171Z" fill="#AB2421"/>
<path d="M523.234 257.424V396.512L524.898 395.555V255.97L523.234 257.424Z" fill="#AB2421"/>
<path d="M530.942 250.686V392.062L532.606 391.101V249.232L530.942 250.686Z" fill="#AB2421"/>
<path d="M538.659 243.942V387.611L540.323 386.646V242.484L538.659 243.942Z" fill="#AB2421"/>
<path d="M546.373 237.199V383.157L548.037 382.192V235.741L546.373 237.199Z" fill="#AB2421"/>
<path d="M554.081 230.456V378.702L555.745 377.741V229.002L554.081 230.456Z" fill="#AB2421"/>
<path d="M561.799 223.712V374.247L563.464 373.286V222.258L561.799 223.712Z" fill="#AB2421"/>
<path d="M569.514 216.969V369.792L571.179 368.827V215.511L569.514 216.969Z" fill="#AB2421"/>
<path d="M577.222 210.226V365.337L578.887 364.381V208.772L577.222 210.226Z" fill="#AB2421"/>
<path d="M584.936 203.483V360.887L586.601 359.926V202.029L584.936 203.483Z" fill="#AB2421"/>
<path d="M592.65 196.735V356.432L594.319 355.471V195.281L592.65 196.735Z" fill="#AB2421"/>
<path d="M600.362 190V351.981L602.027 351.016V188.546L600.362 190Z" fill="#AB2421"/>
<path d="M608.076 185.858V347.527L609.741 346.562V185.39L608.076 185.858Z" fill="#AB2421"/>
<path d="M615.789 183.691V343.072L617.453 342.111V183.223L615.789 183.691Z" fill="#AB2421"/>
<path d="M623.498 181.525V338.617L625.163 337.661V181.057L623.498 181.525Z" fill="#AB2421"/>
<path d="M631.218 179.362V334.162L632.883 333.205V178.895L631.218 179.362Z" fill="#AB2421"/>
<path d="M638.926 177.197V329.712L640.591 328.751V176.729L638.926 177.197Z" fill="#AB2421"/>
<path d="M646.64 175.035V325.257L648.305 324.296V174.567L646.64 175.035Z" fill="#AB2421"/>
<path d="M654.351 172.868V320.802L656.02 319.846V172.405L654.351 172.868Z" fill="#AB2421"/>
<path d="M662.068 170.702V316.348L663.732 315.391V170.239L662.068 170.702Z" fill="#AB2421"/>
<path d="M669.78 168.544V311.901L671.445 310.936V168.076L669.78 168.544Z" fill="#AB2421"/>
<path d="M677.49 166.378V307.446L679.154 306.481V165.91L677.49 166.378Z" fill="#AB2421"/>
<path d="M685.208 164.216V302.992L686.873 302.027V163.749L685.208 164.216Z" fill="#AB2421"/>
<path d="M692.923 162.05V298.537L694.583 297.581V161.582L692.923 162.05Z" fill="#AB2421"/>
<path d="M700.63 159.887V294.082L702.295 293.125V159.419L700.63 159.887Z" fill="#AB2421"/>
<path d="M708.345 157.721V289.628L710.01 288.671V157.253L708.345 157.721Z" fill="#AB2421"/>
<path d="M716.06 155.554V285.176L717.721 284.216V155.091L716.06 155.554Z" fill="#AB2421"/>
<path d="M723.772 153.393V280.722L725.436 279.762V152.925L723.772 153.393Z" fill="#AB2421"/>
<path d="M731.486 151.226V276.267L733.151 275.306V150.759L731.486 151.226Z" fill="#AB2421"/>
<path d="M233.475 -35.7178L602.87 177.428L735.748 140.146L365.928 -72.9995L233.475 -35.7178Z" fill="white" stroke="#AB2421" stroke-width="1.5" stroke-linejoin="round"/>
<path d="M723.416 132.26L724.996 133.17L592 170.115L590.415 169.204L723.416 132.26Z" fill="#AB2421"/>
<path d="M709.519 124.249L711.104 125.163L578.103 162.108L576.527 161.202L709.519 124.249Z" fill="#AB2421"/>
<path d="M695.63 116.24L697.206 117.151L564.213 154.104L562.629 153.189L695.63 116.24Z" fill="#AB2421"/>
<path d="M681.729 108.232L683.309 109.143L550.309 146.092L548.732 145.185L681.729 108.232Z" fill="#AB2421"/>
<path d="M667.837 100.226L669.413 101.136L536.417 138.08L534.832 137.17L667.837 100.226Z" fill="#AB2421"/>
<path d="M653.937 92.218L655.522 93.1283L522.516 130.073L520.94 129.163L653.937 92.218Z" fill="#AB2421"/>
<path d="M640.045 84.2061L641.625 85.1206L508.629 122.069L507.044 121.155L640.045 84.2061Z" fill="#AB2421"/>
<path d="M626.146 76.1975L627.726 77.1078L494.729 114.057L493.149 113.146L626.146 76.1975Z" fill="#AB2421"/>
<path d="M612.253 68.1909L613.833 69.1013L480.832 106.054L479.252 105.14L612.253 68.1909Z" fill="#AB2421"/>
<path d="M598.359 60.1836L599.936 61.0939L466.939 98.0469L465.359 97.1281L598.359 60.1836Z" fill="#AB2421"/>
<path d="M584.457 52.1709L586.045 53.0855L453.04 90.03L451.46 89.1197L584.457 52.1709Z" fill="#AB2421"/>
<path d="M570.566 44.1638L572.142 45.0742L439.145 82.0229L437.569 81.1126L570.566 44.1638Z" fill="#AB2421"/>
<path d="M556.668 36.1558L558.253 37.0661L425.252 74.0149L423.672 73.1045L556.668 36.1558Z" fill="#AB2421"/>
<path d="M542.775 28.1489L544.355 29.0593L411.359 66.008L409.774 65.0977L542.775 28.1489Z" fill="#AB2421"/>
<path d="M528.878 20.1406L530.462 21.051L397.461 57.9997L395.881 57.0894L528.878 20.1406Z" fill="#AB2421"/>
<path d="M514.987 12.1323L516.563 13.0385L383.566 49.9872L381.982 49.0769L514.987 12.1323Z" fill="#AB2421"/>
<path d="M501.084 4.12158L502.668 5.03192L369.667 41.9807L368.087 41.0703L501.084 4.12158Z" fill="#AB2421"/>
<path d="M487.192 -3.88672L488.772 -2.97638L355.776 33.9724L354.191 33.062L487.192 -3.88672Z" fill="#AB2421"/>
<path d="M473.297 -11.8945L474.878 -10.9842L341.877 25.9646L340.301 25.0542L473.297 -11.8945Z" fill="#AB2421"/>
<path d="M459.4 -19.9055L460.984 -18.991L327.988 17.9578L326.399 17.0433L459.4 -19.9055Z" fill="#AB2421"/>
<path d="M445.505 -27.9131L447.081 -27.0027L314.084 9.94601L312.508 9.03568L445.505 -27.9131Z" fill="#AB2421"/>
<path d="M431.612 -35.9214L433.192 -35.011L300.195 1.93771L298.611 1.02737L431.612 -35.9214Z" fill="#AB2421"/>
<path d="M697.236 217.873V277.438L652.289 303.393V243.828L697.236 217.873Z" fill="white"/>
<path opacity="0.4" d="M652.289 243.828L697.236 217.873V277.438L652.289 253.559V243.828Z" fill="#AB2421"/>
<path d="M648.14 330.152L707.41 295.932V283.312L648.14 317.532V330.152Z" fill="white"/>
<path d="M713.348 185.455L722.489 190.677V292.063L711.558 298.373L707.411 295.932V283.312L697.236 277.438V217.873L652.289 243.828V332.589L641.358 338.899L632.221 333.681V232.295L713.348 185.455Z" fill="white" stroke="#AB2421" stroke-width="1.5"/>
<path d="M641.357 237.518V338.9L632.22 333.681V232.295L641.357 237.518Z" fill="#AB2421" stroke="#AB2421" stroke-width="1.5"/>
<path d="M722.489 190.677V292.063L711.558 298.374V209.608L707.411 212.003L652.289 243.828V332.59L641.358 338.9V237.518L722.489 190.677Z" fill="white" stroke="#AB2421" stroke-width="1.5"/>
<path d="M697.235 277.438L707.41 283.312V295.933L652.287 327.758V315.133V303.393L697.235 277.438Z" fill="#AB2421"/>
<path opacity="0.6" d="M652.287 315.137L707.41 283.312V295.932L652.287 327.757V315.137Z" fill="#AB2421"/>
<path d="M702.882 280.697L652.289 309.911V306.64L700.051 279.062L702.882 280.697Z" fill="white"/>
<path d="M693.15 304.164L702.789 298.601L702.793 298.593L707.41 290.602V283.312L704.084 285.238H704.076L693.15 304.164Z" fill="white"/>
<path d="M674.306 315.045L683.946 309.478H683.95L694.881 290.548L685.241 296.115H685.233L674.306 315.045Z" fill="white"/>
<path d="M655.462 325.926L665.098 320.359H665.106L676.037 301.425L666.393 306.996L666.389 307L655.462 325.926Z" fill="white"/>
<path d="M652.287 315.136V320.799L657.194 312.309L652.287 315.136Z" fill="white"/>
<path d="M652.287 243.833L706.434 212.573V282.765L652.287 314.029V243.833Z" fill="#AB2421"/>
<path opacity="0.4" d="M652.287 243.833L706.434 212.573V215.533L652.287 246.793V243.833Z" fill="#AB2421"/>
<path d="M692.927 281.453L683.266 235.409L675.271 240.026L665.635 297.211L674.552 292.064L676.391 279.962L682.228 276.591L683.968 286.629L692.927 281.453ZM681.601 270.526L676.981 273.195L679.243 252.733L681.601 270.526Z" fill="white"/>
<path d="M581.334 284.731V344.296L536.387 370.251V310.686L581.334 284.731Z" fill="white"/>
<path opacity="0.4" d="M536.387 310.686L581.334 284.731V344.296L536.387 320.417V310.686Z" fill="#AB2421"/>
<path d="M532.238 397.01L591.508 362.79V350.17L532.238 384.39V397.01Z" fill="white"/>
<path d="M597.445 252.313L606.586 257.536V358.922L595.655 365.232L591.508 362.791V350.17L581.333 344.296V284.732L536.385 310.686V399.448L525.455 405.758L516.317 400.54V299.154L597.445 252.313Z" fill="white" stroke="#AB2421" stroke-width="1.5"/>
<path d="M525.455 304.376V405.758L516.318 400.539V299.153L525.455 304.376Z" fill="#AB2421"/>
<path d="M581.333 344.295L591.508 350.17V362.79L536.385 394.615V381.99V370.25L581.333 344.295Z" fill="#AB2421"/>
<path opacity="0.6" d="M536.385 381.994L591.508 350.17V362.79L536.385 394.615V381.994Z" fill="#AB2421"/>
<path d="M586.979 347.555L536.386 376.769V373.497L584.148 345.924L586.979 347.555Z" fill="white"/>
<path d="M590.532 266.802V295.256L536.385 326.516V298.062L590.532 266.802Z" fill="#AB2421"/>
<path d="M577.246 371.022L586.886 365.459L586.89 365.451L591.506 357.46V350.17L588.181 352.096H588.173L577.246 371.022Z" fill="white"/>
<path d="M558.402 381.904L568.042 376.337H568.046L578.977 357.406L569.333 362.974H569.329L558.402 381.904Z" fill="white"/>
<path d="M539.558 392.785L549.193 387.218H549.198L560.132 368.283L550.489 373.854L550.485 373.858L539.558 392.785Z" fill="white"/>
<path d="M536.383 381.995V387.658L541.29 379.168L536.383 381.995Z" fill="white"/>
<g opacity="0.3">
<path opacity="0.3" d="M590.532 294.396V295.255L536.385 326.515V325.656L590.532 294.396Z" fill="#AB2421"/>
<path opacity="0.3" d="M536.385 322.878L590.532 291.622V292.482L536.385 323.742V322.878Z" fill="#AB2421"/>
<path opacity="0.3" d="M536.385 320.106L590.532 288.85V289.709L536.385 320.969V320.106Z" fill="#AB2421"/>
<path opacity="0.3" d="M536.385 317.332L590.532 286.076V286.936L536.385 318.196V317.332Z" fill="#AB2421"/>
<path opacity="0.3" d="M536.385 314.559L590.532 283.299V284.163L536.385 315.423V314.559Z" fill="#AB2421"/>
<path opacity="0.3" d="M536.385 311.79L590.532 280.53V281.389L536.385 312.65V311.79Z" fill="#AB2421"/>
<path opacity="0.3" d="M536.385 309.013L590.532 277.753V278.616L536.385 309.876V309.013Z" fill="#AB2421"/>
<path opacity="0.3" d="M536.385 306.24L590.532 274.98V275.843L536.385 307.103V306.24Z" fill="#AB2421"/>
<path opacity="0.3" d="M536.385 303.467L590.532 272.207V273.071L536.385 304.331V303.467Z" fill="#AB2421"/>
<path opacity="0.3" d="M536.385 300.693L590.532 269.433V270.296L536.385 301.556V300.693Z" fill="#AB2421"/>
<path opacity="0.3" d="M536.385 297.92L590.531 266.66V267.523L536.385 298.784V297.92Z" fill="#AB2421"/>
</g>
<path d="M606.586 257.536V358.922L595.655 365.232V276.466L591.508 278.862L536.385 310.687V399.448L525.455 405.758V304.376L606.586 257.536Z" fill="white"/>
<path d="M606.586 257.536V358.922L595.655 365.232V276.466L591.508 278.862L536.385 310.687V399.448L525.455 405.758V304.376L606.586 257.536Z" fill="white" stroke="#AB2421" stroke-width="1.5"/>
<path d="M538.147 402.557C535.935 403.835 535.935 405.924 538.147 407.198L688.844 492.344C691.056 493.622 694.672 493.622 696.889 492.344L740.097 467.398C742.31 466.119 742.31 464.031 740.097 462.752L589.401 377.607C587.192 376.328 583.568 376.328 581.355 377.607L538.147 402.557Z" fill="#AB2421"/>
<path d="M611.113 419.087L643.834 436.1V432.127L611.113 415.114V419.087Z" fill="white"/>
<path d="M612.968 413.732L645.686 430.744L643.834 432.127L611.113 415.114L612.968 413.732Z" fill="white"/>
<path d="M643.576 436.042L675.259 454.914L675.492 450.95L643.804 432.077L643.576 436.042Z" fill="white"/>
<path d="M644.163 430.691L675.851 449.563L675.494 450.95L643.806 432.077L644.163 430.691Z" fill="white"/>
<path d="M557.8 404.487L555.969 403.428L602.598 376.51L604.429 377.569L557.8 404.487Z" fill="white" stroke="#AB2421" stroke-width="1.5" stroke-linejoin="round"/>
<path d="M557.857 406.59L556.026 405.531V403.526L557.857 404.584V406.59Z" fill="white" stroke="#AB2421" stroke-width="1.5" stroke-linejoin="round"/>
<path d="M557.8 406.492V404.487L604.429 377.569V379.57L557.8 406.492Z" fill="white" stroke="#AB2421" stroke-width="1.5" stroke-linejoin="round"/>
<path d="M606.49 395.86C606.49 396.362 606.851 396.574 607.292 396.333L617.259 390.812C617.699 390.567 618.06 389.956 618.06 389.454V381.458C618.06 380.952 617.699 380.744 617.259 380.985L607.292 386.506C606.851 386.751 606.49 387.366 606.49 387.868V395.86Z" fill="white"/>
<path d="M622.423 380.288L605.937 389.807L607.59 384.908L617.179 378.835L622.423 380.288Z" fill="white"/>
<path d="M610.392 385.719L615.66 382.896C617.267 381.982 619.475 382.119 621.921 383.531C626.828 386.362 630.805 393.253 630.805 398.916C630.805 401.768 629.796 403.765 628.173 404.686L622.905 407.509C621.298 408.418 619.089 408.277 616.653 406.87C611.746 404.039 607.773 397.147 607.773 391.485C607.768 388.637 608.769 386.636 610.392 385.719Z" fill="white"/>
<path d="M607.769 391.479C607.769 397.146 611.746 404.033 616.648 406.865C619.085 408.272 621.294 408.413 622.9 407.504C624.524 406.586 625.532 404.585 625.532 401.738C625.532 396.071 621.555 389.184 616.648 386.352C614.207 384.945 611.995 384.804 610.388 385.717C608.769 386.635 607.769 388.636 607.769 391.479Z" fill="white"/>
<path d="M608.308 392.14C608.308 397.301 611.933 403.582 616.404 406.16C620.875 408.742 624.495 406.65 624.495 401.485C624.495 396.321 620.871 390.048 616.404 387.466C611.937 384.884 608.308 386.976 608.308 392.14Z" fill="white"/>
<path d="M610.967 393.523C610.967 396.993 613.399 401.211 616.409 402.947C619.415 404.678 621.852 403.275 621.848 399.804C621.848 396.333 619.415 392.116 616.409 390.38C613.399 388.649 610.967 390.052 610.967 393.523Z" fill="#AB2421"/>
<path d="M611.455 393.805C611.455 396.96 613.668 400.8 616.403 402.378C619.135 403.956 621.352 402.677 621.352 399.522C621.352 396.367 619.135 392.531 616.403 390.953C613.672 389.372 611.455 390.654 611.455 393.805Z" fill="#AB2421"/>
<path d="M614.037 390.28C614.743 390.243 615.549 390.455 616.408 390.949C619.14 392.526 621.356 396.362 621.356 399.517C621.356 400.518 621.132 401.331 620.742 401.921C620.036 401.958 619.231 401.742 618.376 401.248C615.644 399.671 613.427 395.835 613.427 392.68C613.423 391.683 613.647 390.87 614.037 390.28Z" fill="#AB2421"/>
<path d="M614.681 390.313C615.216 390.392 615.798 390.6 616.408 390.953C619.14 392.53 621.356 396.366 621.356 399.521C621.356 400.231 621.244 400.85 621.037 401.356C620.285 401.547 619.368 401.385 618.376 400.812C615.856 399.355 613.809 395.814 613.809 392.9C613.805 391.745 614.133 390.865 614.681 390.313Z" fill="#AB2421"/>
<path d="M621.352 399.522C621.352 399.779 621.335 400.024 621.306 400.257C620.8 400.236 620.239 400.066 619.646 399.721C617.441 398.451 615.656 395.354 615.656 392.813C615.656 391.979 615.851 391.31 616.183 390.833C616.258 390.87 616.329 390.908 616.403 390.949C619.139 392.531 621.352 396.367 621.352 399.522Z" fill="#AB2421"/>
<path d="M616.527 394.822C616.527 396.006 617.358 397.442 618.379 398.036C619.404 398.625 620.235 398.148 620.235 396.965C620.235 395.781 619.408 394.345 618.379 393.756C617.358 393.158 616.527 393.635 616.527 394.822Z" fill="#AB2421"/>
<path d="M628.803 410.17C628.803 410.673 629.164 410.884 629.604 410.644L639.567 405.122C640.007 404.877 640.369 404.267 640.369 403.765V395.769C640.369 395.267 640.012 395.055 639.567 395.3L629.6 400.821C629.16 401.066 628.799 401.677 628.799 402.179V410.17H628.803Z" fill="white"/>
<path d="M639.266 394.64L644.534 391.817C646.14 390.903 648.349 391.04 650.794 392.452C655.697 395.283 659.678 402.174 659.678 407.837C659.678 410.689 658.669 412.686 657.046 413.603L651.778 416.426C650.171 417.335 647.963 417.194 645.526 415.787C640.619 412.952 636.646 406.064 636.646 400.398C636.642 397.558 637.647 395.561 639.266 394.64Z" fill="white"/>
<path d="M636.642 400.402C636.642 406.068 640.619 412.955 645.522 415.791C647.963 417.194 650.168 417.339 651.774 416.43C653.397 415.509 654.406 413.512 654.406 410.664C654.406 405.001 650.429 398.11 645.522 395.275C643.081 393.867 640.868 393.726 639.262 394.639C637.647 395.561 636.642 397.558 636.642 400.402Z" fill="white"/>
<path d="M637.187 401.062C637.187 406.226 640.811 412.503 645.282 415.081C649.753 417.663 653.378 415.571 653.378 410.407C653.378 405.242 649.753 398.969 645.282 396.387C640.811 393.805 637.187 395.897 637.187 401.062Z" fill="white"/>
<path d="M644.413 392.988L627.923 402.507L629.575 397.608L639.165 391.531L644.413 392.988Z" fill="white"/>
<path d="M608.714 382.534H608.71L608.768 382.501C608.863 382.443 608.954 382.389 609.05 382.335L619.615 376.249C621.566 375.319 624.165 375.564 627.017 377.208C633.083 380.711 638.002 389.23 638.002 396.238C638.002 396.362 637.998 396.483 637.994 396.607L627.644 402.581L626.121 401.701C626.125 401.576 626.129 401.456 626.129 401.331C626.129 395.295 621.89 387.956 616.664 384.942C611.437 381.924 607.203 384.369 607.203 390.405C607.203 390.534 607.207 390.658 607.211 390.787L605.687 389.907C605.683 389.782 605.679 389.654 605.679 389.529C605.687 386.137 606.837 383.725 608.714 382.534Z" fill="white"/>
<path d="M626.125 401.701C626.13 401.577 626.134 401.456 626.134 401.332C626.134 395.295 621.895 387.956 616.669 384.942C611.442 381.924 607.207 384.369 607.207 390.405C607.207 390.534 607.212 390.658 607.216 390.787L605.692 389.907C605.688 389.782 605.684 389.654 605.684 389.529C605.684 382.522 610.603 379.682 616.669 383.186C622.738 386.69 627.657 395.208 627.657 402.216C627.657 402.34 627.653 402.461 627.649 402.585L626.125 401.701Z" fill="white"/>
<path d="M632.379 398.412L637.647 395.589C639.253 394.676 641.466 394.813 643.903 396.225C648.81 399.056 652.787 405.947 652.787 411.614C652.787 414.462 651.778 416.463 650.155 417.384L644.887 420.207C643.28 421.116 641.072 420.975 638.635 419.568C633.732 416.737 629.755 409.849 629.755 404.183C629.755 401.331 630.756 399.338 632.379 398.412Z" fill="white"/>
<path d="M629.756 404.179C629.756 409.846 633.733 416.733 638.636 419.565C641.073 420.972 643.282 421.113 644.888 420.204C646.515 419.282 647.52 417.29 647.52 414.433C647.52 408.771 643.543 401.884 638.636 399.048C636.195 397.637 633.982 397.5 632.376 398.413C630.757 399.339 629.756 401.332 629.756 404.179Z" fill="white"/>
<path d="M630.298 404.839C630.298 409.999 633.922 416.276 638.393 418.858C642.864 421.44 646.489 419.348 646.489 414.184C646.489 409.023 642.864 402.746 638.393 400.164C633.922 397.586 630.298 399.674 630.298 404.839Z" fill="white"/>
<path d="M632.953 406.221C632.953 409.688 635.39 413.91 638.395 415.645C641.401 417.38 643.838 415.973 643.834 412.503C643.834 409.032 641.401 404.81 638.395 403.079C635.39 401.344 632.953 402.751 632.953 406.221Z" fill="#AB2421"/>
<path d="M633.442 406.504C633.442 409.663 635.659 413.495 638.391 415.077C641.122 416.654 643.339 415.375 643.339 412.22C643.339 409.065 641.122 405.225 638.391 403.648C635.659 402.07 633.442 403.349 633.442 406.504Z" fill="#AB2421"/>
<path d="M636.025 402.979C636.726 402.942 637.536 403.154 638.391 403.652C641.122 405.229 643.339 409.065 643.339 412.224C643.339 413.225 643.115 414.035 642.721 414.628C642.019 414.661 641.214 414.454 640.354 413.956C637.623 412.378 635.406 408.542 635.406 405.383C635.41 404.378 635.634 403.569 636.025 402.979Z" fill="#AB2421"/>
<path d="M636.669 403.013C637.208 403.092 637.789 403.299 638.396 403.652C641.127 405.23 643.344 409.066 643.344 412.225C643.344 412.935 643.232 413.549 643.024 414.06C642.273 414.251 641.355 414.093 640.363 413.516C637.839 412.063 635.797 408.518 635.797 405.603C635.793 404.445 636.121 403.565 636.669 403.013Z" fill="#AB2421"/>
<path d="M643.344 412.22C643.344 412.478 643.327 412.723 643.298 412.955C642.792 412.93 642.231 412.76 641.638 412.42C639.438 411.149 637.652 408.057 637.652 405.512C637.652 404.681 637.848 404.013 638.18 403.531C638.25 403.569 638.325 403.61 638.4 403.652C641.127 405.225 643.344 409.065 643.344 412.22Z" fill="#AB2421"/>
<path d="M638.515 407.521C638.515 408.705 639.345 410.141 640.366 410.73C641.392 411.32 642.222 410.843 642.222 409.659C642.222 408.48 641.392 407.04 640.366 406.446C639.345 405.857 638.515 406.338 638.515 407.521Z" fill="#AB2421"/>
<path d="M630.701 395.229H630.697L630.755 395.195C630.85 395.137 630.942 395.083 631.041 395.034L641.602 388.943C643.558 388.013 646.152 388.258 649.004 389.902C655.074 393.406 659.989 401.925 659.989 408.932C659.989 409.061 659.985 409.182 659.985 409.302L649.635 415.276L648.112 414.396C648.116 414.275 648.12 414.155 648.12 414.026C648.12 407.99 643.882 400.65 638.659 397.636C633.432 394.618 629.194 397.064 629.194 403.1C629.194 403.224 629.198 403.353 629.202 403.478L627.679 402.597C627.674 402.473 627.67 402.344 627.67 402.22C627.67 398.836 628.828 396.424 630.701 395.229Z" fill="white"/>
<path d="M648.117 414.4C648.121 414.28 648.125 414.159 648.125 414.031C648.125 407.994 643.887 400.655 638.664 397.641C633.438 394.623 629.199 397.068 629.199 403.104C629.199 403.229 629.203 403.357 629.207 403.482L627.684 402.602C627.679 402.477 627.675 402.348 627.675 402.224C627.675 395.216 632.595 392.377 638.664 395.881C644.729 399.384 649.649 407.903 649.649 414.911C649.649 415.035 649.645 415.156 649.64 415.28L648.117 414.4Z" fill="white"/>
<path d="M594.631 379.354L607.857 371.715L609.327 372.562L596.096 380.201L594.631 379.354Z" fill="white"/>
<path d="M596.096 380.201L609.327 372.562V379.852L596.096 387.491V380.201Z" fill="white"/>
<path d="M686.614 438.147L587.723 381.052L589.782 379.861L688.673 436.959L686.614 438.147Z" fill="white"/>
<path d="M688.673 436.968L589.782 379.869V375.058L688.673 432.156V436.968Z" fill="white"/>
<path d="M582.26 383.697L591.846 378.163V381.526L582.26 387.06V383.697Z" fill="white"/>
<path d="M584.93 385.307L594.516 379.773V383.136L584.93 388.669V385.307Z" fill="white"/>
<path d="M651.909 423.322L661.495 417.788L663.554 418.976L653.968 424.514L651.909 423.322Z" fill="white"/>
<path d="M653.968 424.513L663.554 418.975V422.338L653.968 427.872V424.513Z" fill="white"/>
<path d="M630.783 411.445L640.368 405.907L642.427 407.094L632.842 412.632L630.783 411.445Z" fill="white"/>
<path d="M632.842 412.632L642.427 407.094V410.457L632.842 415.995V412.632Z" fill="white"/>
<path d="M607.791 398.459L617.377 392.925L619.44 394.112L609.85 399.65L607.791 398.459Z" fill="white"/>
<path d="M609.85 399.651L619.44 394.113V397.476L609.85 403.014V399.651Z" fill="white"/>
<path d="M595.864 380.101C596.005 380.035 596.192 380.055 596.391 380.172L607.961 386.851C608.397 387.104 608.754 387.719 608.754 388.225V393.282C608.754 393.576 608.63 393.767 608.443 393.83L598.534 399.447C598.679 399.364 598.766 399.185 598.766 398.932V393.88C598.766 393.377 598.409 392.759 597.973 392.51L586.403 385.826C586.196 385.705 586.005 385.693 585.863 385.764L595.864 380.101Z" fill="#AB2421"/>
<path d="M580.197 382.506L589.787 376.972L591.846 378.163L582.26 383.697L580.197 382.506Z" fill="white"/>
<path d="M672.87 437.507L573.979 380.412L576.038 379.221L674.929 436.315L672.87 437.507Z" fill="white"/>
<path d="M672.87 440.126L573.979 383.032V380.412L672.87 437.507V440.126Z" fill="white"/>
<path d="M575.016 383.626L672.87 440.127V448.417L625.88 421.283L619.54 420.831L587.724 402.461L585.972 401.767L575.016 395.441V383.626Z" fill="white"/>
<path d="M575.016 383.626L672.87 440.127V442.082L575.016 385.585V383.626Z" fill="white"/>
<path d="M689.699 427.747L590.808 370.648L592.871 369.461L691.762 426.559L689.699 427.747Z" fill="white"/>
<path d="M688.673 432.156L589.782 375.058L591.841 373.87L690.732 430.965L688.673 432.156Z" fill="white"/>
<path d="M689.699 430.367L590.808 373.273V370.649L689.699 427.748V430.367Z" fill="white"/>
<path d="M582.871 384.12L592.457 378.586L594.516 379.774L584.93 385.308L582.871 384.12Z" fill="white"/>
<path d="M608.866 413.766L592.377 423.285L594.029 418.386L603.619 412.309L608.866 413.766Z" fill="white"/>
<path d="M573.168 403.308H573.164L573.222 403.275C573.313 403.216 573.408 403.162 573.504 403.109L584.069 397.018C586.025 396.088 588.619 396.333 591.471 397.982C597.541 401.485 602.456 410.004 602.456 417.007C602.456 417.132 602.452 417.252 602.448 417.377L592.098 423.351L590.575 422.475C590.579 422.35 590.583 422.23 590.583 422.105C590.583 416.069 586.344 408.734 581.118 405.711C575.891 402.693 571.652 405.143 571.652 411.175C571.652 411.299 571.657 411.424 571.661 411.552L570.137 410.677C570.133 410.548 570.129 410.423 570.129 410.295C570.137 406.915 571.291 404.503 573.168 403.308Z" fill="white"/>
<path d="M574.404 406.369L579.24 403.487C580.859 402.566 583.089 402.707 585.551 404.127C590.499 406.983 594.509 413.928 594.509 419.641C594.509 422.513 593.496 424.531 591.857 425.457L587.02 428.338C585.401 429.255 583.176 429.114 580.718 427.69C575.77 424.834 571.759 417.889 571.759 412.176C571.759 409.312 572.772 407.298 574.404 406.369Z" fill="white"/>
<path d="M571.76 412.181C571.76 417.894 575.77 424.839 580.719 427.695C583.176 429.115 585.402 429.256 587.021 428.343C588.66 427.413 589.673 425.4 589.673 422.527C589.673 416.814 585.663 409.869 580.715 407.013C578.253 405.593 576.023 405.452 574.404 406.374C572.773 407.299 571.76 409.313 571.76 412.181Z" fill="#AB2421"/>
<path d="M574.894 414.028C574.894 417.582 577.389 421.903 580.47 423.68C583.546 425.457 586.041 424.016 586.041 420.463C586.041 416.909 583.546 412.588 580.47 410.811C577.389 409.03 574.894 410.47 574.894 414.028Z" fill="white"/>
<path d="M580.465 411.238C580.735 411.396 580.996 411.579 581.258 411.774C581.108 411.67 580.955 411.571 580.801 411.483C578.157 409.96 576.015 411.193 576.015 414.248C576.015 417.3 578.157 421.007 580.801 422.534C583.441 424.058 585.584 422.821 585.584 419.774C585.584 419.408 585.55 419.035 585.492 418.657C585.6 419.197 585.662 419.732 585.662 420.247C585.662 423.564 583.334 424.905 580.465 423.249C577.592 421.592 575.263 417.557 575.263 414.244C575.267 410.927 577.592 409.582 580.465 411.238Z" fill="#AB2421"/>
<path d="M576.318 414.373C576.318 417.283 578.36 420.824 580.884 422.281C583.408 423.739 585.451 422.555 585.451 419.645C585.451 416.735 583.408 413.194 580.884 411.737C578.36 410.284 576.318 411.463 576.318 414.373Z" fill="#AB2421"/>
<path d="M578.087 417.017C578.087 418.155 578.884 419.537 579.872 420.106C580.861 420.675 581.658 420.214 581.658 419.076C581.658 417.939 580.856 416.556 579.872 415.988C578.884 415.419 578.087 415.88 578.087 417.017Z" fill="#AB2421"/>
<path d="M602.363 415.688L607.199 412.807C608.818 411.885 611.048 412.026 613.509 413.446C618.458 416.302 622.468 423.248 622.468 428.96C622.468 431.833 621.455 433.85 619.816 434.776L614.979 437.657C613.36 438.575 611.135 438.433 608.677 437.01C603.729 434.153 599.718 427.208 599.718 421.496C599.718 418.631 600.731 416.618 602.363 415.688Z" fill="white" stroke="#AB2421" stroke-width="1.5"/>
<path d="M599.718 421.5C599.718 427.212 603.728 434.158 608.677 437.014C611.134 438.433 613.359 438.575 614.978 437.661C616.618 436.731 617.631 434.718 617.631 431.845C617.631 426.133 613.621 419.188 608.672 416.331C606.211 414.912 603.981 414.77 602.362 415.692C600.731 416.618 599.718 418.631 599.718 421.5Z" fill="#AB2421"/>
<path d="M602.852 423.346C602.852 426.9 605.347 431.222 608.428 432.998C611.504 434.775 613.999 433.335 613.999 429.781C613.999 426.228 611.504 421.906 608.428 420.129C605.347 418.348 602.852 419.789 602.852 423.346Z" fill="white"/>
<path d="M608.425 420.557C608.695 420.715 608.956 420.898 609.218 421.093C609.068 420.989 608.915 420.889 608.761 420.802C606.117 419.279 603.974 420.512 603.974 423.567C603.974 426.618 606.117 430.326 608.761 431.853C611.401 433.377 613.543 432.14 613.543 429.093C613.543 428.727 613.51 428.354 613.452 427.976C613.56 428.516 613.622 429.051 613.622 429.566C613.622 432.883 611.293 434.224 608.425 432.567C605.552 430.911 603.223 426.876 603.223 423.563C603.227 420.246 605.552 418.901 608.425 420.557Z" fill="#AB2421"/>
<path d="M604.276 423.692C604.276 426.602 606.318 430.143 608.842 431.6C611.367 433.057 613.409 431.874 613.409 428.964C613.409 426.054 611.367 422.513 608.842 421.056C606.318 419.603 604.276 420.782 604.276 423.692Z" fill="#AB2421"/>
<path d="M606.046 426.336C606.046 427.473 606.843 428.856 607.831 429.425C608.819 429.993 609.616 429.533 609.616 428.395C609.616 427.258 608.815 425.875 607.831 425.306C606.843 424.738 606.046 425.198 606.046 426.336Z" fill="#AB2421"/>
<path d="M590.581 422.478C590.585 422.354 590.589 422.233 590.589 422.109C590.589 416.073 586.351 408.737 581.124 405.715C575.897 402.697 571.659 405.146 571.659 411.178C571.659 411.303 571.663 411.427 571.667 411.556L570.143 410.68C570.139 410.551 570.135 410.427 570.135 410.298C570.135 403.291 575.054 400.451 581.124 403.955C587.193 407.459 592.113 415.977 592.113 422.981C592.113 423.109 592.109 423.226 592.104 423.35L590.581 422.478Z" fill="#AB2421"/>
<path d="M596.149 418.794L600.986 415.913C602.605 414.991 604.834 415.132 607.296 416.552C612.244 419.408 616.255 426.354 616.255 432.066C616.255 434.939 615.242 436.956 613.602 437.882L608.765 440.763C607.146 441.681 604.921 441.539 602.464 440.115C597.515 437.259 593.505 430.314 593.505 424.602C593.505 421.737 594.518 419.724 596.149 418.794Z" fill="white" stroke="#AB2421" stroke-width="1.5"/>
<path d="M593.506 424.606C593.506 430.318 597.516 437.263 602.464 440.119C604.922 441.539 607.147 441.68 608.766 440.767C610.406 439.837 611.419 437.824 611.419 434.951C611.419 429.239 607.409 422.293 602.46 419.437C599.998 418.017 597.769 417.876 596.15 418.798C594.519 419.723 593.506 421.737 593.506 424.606Z" fill="#AB2421"/>
<path d="M596.64 426.453C596.64 430.007 599.135 434.329 602.215 436.105C605.291 437.882 607.786 436.442 607.786 432.888C607.786 429.334 605.291 425.013 602.215 423.236C599.135 421.455 596.64 422.896 596.64 426.453Z" fill="white"/>
<path d="M602.21 423.663C602.48 423.821 602.742 424.004 603.003 424.199C602.854 424.095 602.7 423.995 602.547 423.908C599.902 422.385 597.76 423.618 597.76 426.673C597.76 429.724 599.902 433.432 602.547 434.959C605.187 436.483 607.329 435.246 607.329 432.199C607.329 431.833 607.296 431.46 607.238 431.082C607.346 431.622 607.408 432.157 607.408 432.672C607.408 435.989 605.079 437.33 602.21 435.673C599.338 434.017 597.009 429.982 597.009 426.669C597.013 423.352 599.338 422.007 602.21 423.663Z" fill="#AB2421"/>
<path d="M598.063 426.798C598.063 429.708 600.106 433.249 602.63 434.706C605.154 436.163 607.196 434.98 607.196 432.07C607.196 429.16 605.154 425.619 602.63 424.162C600.106 422.709 598.063 423.888 598.063 426.798Z" fill="#AB2421"/>
<path d="M599.833 429.443C599.833 430.58 600.63 431.963 601.618 432.532C602.606 433.1 603.403 432.639 603.403 431.502C603.403 430.365 602.602 428.982 601.618 428.413C600.63 427.845 599.833 428.305 599.833 429.443Z" fill="#AB2421"/>
<path d="M595.154 416.012H595.15L595.208 415.978C595.303 415.924 595.399 415.866 595.494 415.817L606.06 409.726C608.011 408.796 610.61 409.041 613.462 410.69C619.531 414.189 624.45 422.712 624.45 429.715C624.45 429.84 624.442 429.965 624.442 430.085L614.093 436.059L612.569 435.179C612.573 435.058 612.577 434.934 612.577 434.809C612.577 428.773 608.339 421.438 603.112 418.419C597.886 415.401 593.651 417.847 593.651 423.883C593.651 424.007 593.655 424.136 593.659 424.265L592.136 423.385C592.132 423.256 592.127 423.135 592.127 423.007C592.123 419.611 593.277 417.203 595.154 416.012Z" fill="white" stroke="#AB2421" stroke-width="1.5"/>
<path d="M612.565 435.178C612.569 435.058 612.573 434.933 612.573 434.809C612.573 428.773 608.335 421.437 603.108 418.419C597.881 415.401 593.647 417.846 593.647 423.882C593.647 424.007 593.651 424.135 593.655 424.264L592.132 423.384C592.127 423.255 592.123 423.135 592.123 423.006C592.123 415.999 597.043 413.163 603.112 416.663C609.181 420.167 614.097 428.685 614.097 435.693C614.097 435.818 614.093 435.938 614.088 436.063L612.565 435.178Z" fill="#AB2421"/>
<path d="M564.868 397.57L578.099 389.931L579.564 390.778L566.334 398.417L564.868 397.57Z" fill="white"/>
<path d="M633.577 425.473C634.905 424.705 637.055 424.705 638.384 425.473C639.048 425.855 639.38 426.357 639.38 426.859V435.648C639.38 436.15 639.048 436.653 638.384 437.034C637.055 437.798 634.905 437.798 633.577 437.034C632.912 436.653 632.58 436.15 632.58 435.648V426.859C632.58 426.357 632.912 425.855 633.577 425.473Z" fill="white"/>
<path d="M633.577 425.473C632.248 426.237 632.248 427.482 633.577 428.246C634.905 429.014 637.055 429.014 638.384 428.246C639.712 427.478 639.712 426.237 638.384 425.473C637.055 424.705 634.905 424.705 633.577 425.473Z" fill="white"/>
<path d="M639.193 428.171C640.521 427.403 642.672 427.403 644 428.171C644.664 428.553 644.996 429.059 644.996 429.558V438.346C644.996 438.848 644.664 439.351 644 439.733C642.672 440.497 640.521 440.497 639.193 439.733C638.529 439.351 638.196 438.848 638.196 438.346V429.558C638.196 429.055 638.529 428.553 639.193 428.171Z" fill="white"/>
<path d="M639.193 428.171C637.864 428.939 637.864 430.18 639.193 430.948C640.521 431.712 642.672 431.712 644 430.948C645.329 430.184 645.329 428.939 644 428.171C642.672 427.403 640.521 427.403 639.193 428.171Z" fill="white"/>
<path d="M637.25 435.818L646.503 430.475C646.752 430.33 646.976 430.338 647.122 430.467V430.463L666.202 441.439C666.355 441.514 666.455 441.7 666.455 441.962V450.601C666.455 451.103 666.098 451.722 665.662 451.975L656.404 457.318C656.188 457.447 655.989 457.455 655.844 457.372L636.697 446.346C636.689 446.338 636.681 446.333 636.673 446.329L636.66 446.325C636.531 446.234 636.448 446.068 636.448 445.831V437.192C636.457 436.686 636.814 436.067 637.25 435.818Z" fill="white" stroke="#AB2421" stroke-width="1.5"/>
<path d="M589.021 296.044L705.173 363.11V421.769L655.842 450.103L539.689 383.041V324.373L589.021 296.044Z" fill="#AB2421"/>
<path d="M540.806 325.021L590.262 296.766L703.749 362.288L654.547 390.543V442.132L540.785 376.453V325.004L540.806 325.021Z" fill="white" stroke="#AB2421" stroke-width="1.5"/>
<g opacity="0.2">
<path opacity="0.1" d="M540.785 325.004V383.672L539.689 383.041V324.373L540.785 325.004Z" fill="white"/>
</g>
<path d="M654.547 390.543V442.132L540.785 376.453L540.806 325.021L654.547 390.543Z" fill="white" stroke="#AB2421" stroke-width="1.5"/>
<path opacity="0.2" d="M540.785 325.004V383.672L540.499 383.506V324.842L540.785 325.004Z" fill="white"/>
<path d="M662.718 464.006L663.498 465.347L666.454 464.006L684.862 471.009L684.226 458.144L673.026 452.909L664.158 453.972L662.718 464.006Z" fill="#AB2421"/>
<path d="M664.469 469.44C664.469 469.942 664.831 470.154 665.271 469.909L675.238 464.388C675.678 464.143 676.039 463.532 676.039 463.03V446.848C676.039 446.345 675.682 446.134 675.242 446.375L665.275 451.896C664.835 452.141 664.474 452.751 664.474 453.253V469.44H664.469Z" fill="#AB2421"/>
<path d="M668.552 460.137L673.389 457.255C675.008 456.334 677.237 456.475 679.699 457.895C684.647 460.751 688.658 467.696 688.658 473.409C688.658 476.281 687.645 478.299 686.005 479.225L681.169 482.106C679.55 483.023 677.324 482.882 674.867 481.458C669.918 478.602 665.908 471.657 665.908 465.944C665.908 463.08 666.921 461.066 668.552 460.137Z" fill="white" stroke="#AB2421" stroke-width="1.5"/>
<path d="M665.909 465.949C665.909 471.661 669.92 478.606 674.868 481.462C677.326 482.882 679.551 483.023 681.17 482.11C682.81 481.18 683.823 479.167 683.823 476.294C683.823 470.582 679.813 463.636 674.864 460.78C672.402 459.36 670.173 459.219 668.554 460.141C666.922 461.067 665.909 463.08 665.909 465.949Z" fill="#AB2421"/>
<path d="M669.042 467.796C669.042 471.349 671.537 475.671 674.618 477.448C677.694 479.224 680.189 477.784 680.189 474.23C680.189 470.677 677.694 466.355 674.618 464.578C671.537 462.797 669.042 464.238 669.042 467.796Z" fill="white"/>
<path d="M674.614 465.006C674.884 465.164 675.145 465.346 675.407 465.542C675.257 465.438 675.104 465.338 674.95 465.251C672.306 463.727 670.164 464.96 670.164 468.016C670.164 471.067 672.306 474.774 674.95 476.302C677.591 477.826 679.733 476.588 679.733 473.541C679.733 473.176 679.699 472.802 679.641 472.425C679.749 472.964 679.812 473.5 679.812 474.015C679.812 477.332 677.483 478.673 674.614 477.016C671.741 475.36 669.412 471.324 669.412 468.012C669.416 464.695 671.741 463.35 674.614 465.006Z" fill="#AB2421"/>
<path d="M670.467 468.14C670.467 471.05 672.509 474.592 675.033 476.049C677.557 477.506 679.6 476.323 679.6 473.413C679.6 470.502 677.557 466.961 675.033 465.504C672.509 464.051 670.467 465.23 670.467 468.14Z" fill="#AB2421"/>
<path d="M672.237 470.785C672.237 471.922 673.034 473.305 674.022 473.874C675.01 474.442 675.807 473.982 675.807 472.844C675.807 471.707 675.006 470.324 674.022 469.755C673.034 469.187 672.237 469.647 672.237 470.785Z" fill="#AB2421"/>
<path d="M735.214 421.865C735.214 422.367 735.571 422.575 736.007 422.321L739.125 420.52C739.561 420.266 739.918 419.652 739.918 419.15V406.272C739.918 405.77 739.561 405.562 739.125 405.815L736.007 407.613C735.571 407.862 735.214 408.485 735.214 408.983V421.865Z" fill="#AB2421"/>
<path d="M661.253 464.362C661.253 464.362 661.569 456.068 661.735 454.69C661.901 453.316 662.1 452.303 662.399 452.12C662.698 451.937 665.5 450.314 665.5 450.314L665.882 449.368L662.719 447.333L664.541 444.996L665.65 443.888V440.998L665.015 440.683C665.015 440.683 666.364 419.386 666.559 416.654C666.758 413.923 668.145 410.477 669.448 409.331C670.752 408.181 680.528 402.166 686.627 398.405C692.721 394.643 703.012 388.944 705.229 387.798C707.446 386.648 707.924 387.163 708.829 387.798C709.742 388.429 731.418 402.143 733.058 403.836C735.854 404.768 735.854 404.768 737.976 405.856C737.976 405.856 738.204 409.713 738.109 410.788C738.042 411.515 737.918 412.366 737.058 413.35C737.822 418.244 739.072 427.751 739.072 427.751L739.3 434.032C740.437 434.584 741.156 436.697 741.218 437.254C741.284 437.806 741.579 441.123 741.218 442.783C740.861 444.444 738.549 446.233 738.549 446.233C739.819 446.59 739.528 449.812 739.69 451.991C739.852 454.171 739.819 456.678 738.358 458.144C736.892 459.609 731.786 463.482 731.786 463.482C732.309 464.815 730.844 466.019 730.844 466.019C730.844 466.019 713.075 476.725 712.59 476.725C712.1 476.725 710.116 476.107 710.116 476.107C710.116 476.107 704.424 479.1 701.593 480.009C698.761 480.918 696.221 479.357 696.221 479.357V477.215L691.002 474.521V473.824L688.233 472.283L686.731 473.184L684.422 471.972C684.422 471.972 682.895 465.658 681.55 461.834C680.205 458.011 677.647 455.669 675.518 454.212C673.388 452.759 669.647 450.684 669.299 450.605C668.95 450.526 668.518 450.364 667.763 450.335L666.173 453.349L665.284 454.237C665.284 454.237 664.234 456.392 663.802 459.812C663.371 463.233 663.508 465.338 663.508 465.338L661.253 464.362Z" fill="white" stroke="#AB2421" stroke-width="1.5"/>
<path d="M668.292 410.901C667.42 412.478 666.697 414.745 666.556 416.659C666.357 419.391 665.012 440.683 665.016 440.667L665.651 440.982V443.872L695.222 460.759V463.059L680.758 455.039C680.758 455.039 682.83 458.58 683.245 459.219L688.48 462.308C688.48 462.308 689.422 465.957 689.912 468.896L696.218 472.276V475.148L687.388 470.441V471.765L688.231 472.267L691 473.807V474.505L696.218 477.199V479.341C696.218 479.341 698.759 480.902 701.59 479.993C704.421 479.084 710.113 476.091 710.113 476.091C710.113 476.091 712.097 476.709 712.587 476.709C713.073 476.709 730.841 466.003 730.841 466.003C730.841 466.003 732.307 464.799 731.783 463.466C731.783 463.466 736.89 459.593 738.355 458.127C739.659 456.82 739.825 454.686 739.733 452.693C739.41 453.989 738.849 454.57 737.683 455.599C736.541 456.612 734.328 458.675 733.917 458.763C733.506 458.85 733.71 457.883 733.743 457.571C733.78 457.256 734.669 456.413 734.669 456.413L737.915 452.772L739.044 449.376C739.044 449.376 739.302 449.131 739.571 448.886C739.542 448.492 739.509 448.11 739.451 447.77C739.339 448.567 738.625 449.38 737.363 450.572C735.702 452.137 733.506 453.602 733.506 453.602C732.481 454.541 730.613 455.815 728.886 456.845C727.067 457.928 714.248 465.654 713.056 466.306C712.371 466.679 710.815 467.659 709.295 467.979C705.982 469.702 701.158 471.366 699.494 471.366C698.095 471.366 696.218 470.623 696.218 470.623L696.853 468.543C698.215 469.025 699.552 469.411 700.797 469.166C704.563 468.423 706.427 467.198 706.427 467.198C706.398 467.165 706.368 467.136 706.344 467.099L708.731 465.525C709.042 465.434 709.37 465.293 709.706 465.127C710.786 464.587 719.022 459.813 721.907 458.028C724.792 456.247 732.427 451.618 734.357 450.144C734.76 449.837 735.092 449.451 735.37 449.036C735.37 449.036 735.271 449.505 735.1 450.14C738.031 447.956 738.546 446.23 738.546 446.23C738.546 446.23 740.858 444.44 741.215 442.78C741.543 441.26 741.328 438.346 741.236 437.449C741.132 438.01 740.987 438.487 740.8 438.475C740.36 438.441 738.534 438.545 737.774 438.782C737.973 438.583 739.298 436.706 739.298 436.362V434.028L739.069 427.747C739.069 427.747 738.999 427.224 738.882 426.369L737.774 410.049L708.419 431.143C707.751 431.542 707.249 431.837 706.962 431.994C704.65 433.29 699.959 435.776 698.58 433.709C697.206 431.646 697.049 428.005 697.049 428.005L668.292 410.901Z" fill="white" stroke="#AB2421" stroke-width="1.5" stroke-linejoin="round"/>
<g opacity="0.3">
<path opacity="0.3" d="M739.437 454.3C739.517 454.142 739.55 454.042 739.55 454.042C739.55 454.042 739.55 454.109 739.541 454.25L739.437 454.3Z" fill="#AB2421"/>
</g>
<path opacity="0.2" d="M740.89 439.23C740.919 438.57 740.857 438.467 740.857 438.467C741.015 438.392 741.139 437.956 741.235 437.449C741.326 438.35 741.542 441.26 741.214 442.784C740.857 444.445 738.545 446.234 738.545 446.234C738.47 446.28 738.399 446.325 738.325 446.367C739.508 445.167 739.923 444.054 740.189 443.116C740.475 442.103 740.865 439.89 740.89 439.23Z" fill="white"/>
<g opacity="0.2">
<path opacity="0.2" d="M695.618 433.282C695.647 433.452 695.668 433.626 695.676 433.805C695.66 433.626 695.639 433.452 695.618 433.282Z" fill="white"/>
</g>
<path d="M702.24 429.325C708.173 426.581 729.656 413.188 732.707 410.901C735.153 409.066 736.813 408.41 737.971 405.861C737.971 405.861 738.2 409.717 738.104 410.793C738.038 411.519 737.913 412.37 737.054 413.354C737.054 413.354 735.526 414.571 730.79 417.526C726.057 420.482 709.273 430.707 706.96 431.994C704.648 433.285 699.957 435.772 698.579 433.709C697.823 432.575 697.433 430.964 697.238 429.744C698.305 430.134 700.023 430.35 702.24 429.325Z" fill="#AB2421"/>
<g opacity="0.2">
<path opacity="0.2" d="M696.134 458.974L696.296 458.966L695.972 450.248L696.645 449.102L696.641 449.073C696.62 448.915 694.586 433.19 694.528 432.472C694.47 431.704 693.963 430.442 693.444 429.765L693.316 429.865C693.818 430.52 694.308 431.745 694.362 432.484C694.416 433.198 696.346 448.106 696.471 449.069L695.802 450.206V450.227L696.134 458.974Z" fill="white"/>
</g>
<g opacity="0.2">
<path opacity="0.2" d="M704.071 458.99L704.228 458.953L702.663 452.518L702.505 452.56L704.071 458.99Z" fill="white"/>
</g>
<g opacity="0.2">
<path opacity="0.2" d="M737.707 439.35L738.093 431.396L737.936 431.392L737.545 439.342L737.707 439.35Z" fill="white"/>
</g>
<g opacity="0.2">
<path opacity="0.2" d="M691.211 427.764L691.764 424.829C691.764 424.829 692.216 423.874 693.063 423.359C693.237 423.255 693.806 422.886 694.665 422.325C698.215 420.021 706.891 414.902 712.342 411.768C719.097 407.882 727.985 402.544 728.076 402.49C728.089 402.481 729.459 401.742 729.932 401.659L729.907 401.502C729.409 401.589 728.055 402.32 728.001 402.349C727.906 402.403 718.98 407.762 712.263 411.627C706.813 414.765 698.132 419.884 694.578 422.192C693.719 422.749 693.154 423.114 692.98 423.222C692.087 423.762 691.631 424.737 691.614 424.779L691.054 427.735L691.211 427.764Z" fill="white"/>
</g>
<path d="M689.883 449.501C690.092 449.501 690.313 449.443 690.535 449.333L693.133 448.016C693.287 447.939 693.342 447.763 693.25 447.628C693.158 447.492 692.961 447.444 692.806 447.525L690.209 448.841C690.025 448.937 689.858 448.959 689.757 448.907C689.657 448.856 689.598 448.72 689.598 448.533V432.888C689.598 432.375 690.025 431.726 690.535 431.465L693.133 430.153C693.287 430.076 693.342 429.9 693.25 429.764C693.158 429.625 692.961 429.581 692.806 429.658L690.209 430.974C689.502 431.33 688.946 432.173 688.946 432.888V448.533C688.946 448.929 689.126 449.245 689.435 449.402C689.569 449.468 689.719 449.501 689.883 449.501Z" fill="#AB2421" stroke="#AB2421" stroke-width="1.5"/>
<path d="M685.84 448.376C685.84 448.824 686.17 449.009 686.573 448.783L689.456 447.181C689.859 446.955 690.189 446.407 690.189 445.955V434.473C690.189 434.025 689.859 433.84 689.456 434.065L686.573 435.668C686.17 435.89 685.84 436.442 685.84 436.894V448.376Z" fill="#AB2421"/>
<path d="M700.13 453.228L699.599 453.758L699.413 453.572L699.384 453.311L700.13 453.228ZM739.372 434.284C733.932 437.859 725.647 443.206 718.47 447.63C714.884 449.841 711.566 451.827 709.017 453.245C707.743 453.954 706.65 454.528 705.805 454.918C705.384 455.113 705.01 455.269 704.699 455.374C704.428 455.465 704.076 455.564 703.764 455.525L703.95 454.037C703.887 454.029 703.942 454.046 704.221 453.952C704.459 453.872 704.777 453.741 705.176 453.557C705.97 453.189 707.026 452.637 708.287 451.935C710.807 450.532 714.102 448.561 717.683 446.353C724.843 441.939 733.115 436.601 738.548 433.031L739.372 434.284ZM703.764 455.525C701.615 455.257 700.135 454.294 699.599 453.758L700.66 452.697C700.953 452.99 702.123 453.808 703.95 454.037L703.764 455.525ZM699.384 453.311L696.899 430.944L698.39 430.779L700.875 453.145L699.384 453.311Z" fill="#AB2421"/>
<line y1="-0.75" x2="27.8194" y2="-0.75" transform="matrix(-0.870978 -0.491321 -0.491321 0.870978 694.538 430.862)" stroke="#AB2421" stroke-width="1.5"/>
<path d="M694.538 429.619L696.402 450.121" stroke="#AB2421" stroke-width="1.5"/>
<line x1="591.013" y1="169.866" x2="458.68" y2="285.425" stroke="#AB2421" stroke-width="1.5"/>
<line x1="574.238" y1="162.411" x2="441.905" y2="277.97" stroke="#AB2421" stroke-width="1.5"/>
<line x1="562.434" y1="153.713" x2="430.1" y2="269.271" stroke="#AB2421" stroke-width="1.5"/>
<line x1="547.523" y1="148.121" x2="415.189" y2="263.68" stroke="#AB2421" stroke-width="1.5"/>
<line x1="451.458" y1="91.2678" x2="319.124" y2="206.827" stroke="#AB2421" stroke-width="1.5"/>
<line x1="355.458" y1="35.2678" x2="223.124" y2="150.827" stroke="#AB2421" stroke-width="1.5"/>
<line x1="535.097" y1="137.559" x2="402.763" y2="253.118" stroke="#AB2421" stroke-width="1.5"/>
<line x1="439.032" y1="80.7058" x2="306.698" y2="196.265" stroke="#AB2421" stroke-width="1.5"/>
<line x1="343.032" y1="24.7058" x2="210.698" y2="140.265" stroke="#AB2421" stroke-width="1.5"/>
<line x1="520.807" y1="130.104" x2="388.474" y2="245.663" stroke="#AB2421" stroke-width="1.5"/>
<line x1="424.742" y1="73.2502" x2="292.408" y2="188.809" stroke="#AB2421" stroke-width="1.5"/>
<line x1="328.742" y1="17.2502" x2="196.408" y2="132.809" stroke="#AB2421" stroke-width="1.5"/>
<line x1="506.517" y1="122.027" x2="374.184" y2="237.586" stroke="#AB2421" stroke-width="1.5"/>
<line x1="410.452" y1="65.1738" x2="278.119" y2="180.733" stroke="#AB2421" stroke-width="1.5"/>
<line x1="314.452" y1="9.17381" x2="182.119" y2="124.733" stroke="#AB2421" stroke-width="1.5"/>
<line x1="492.229" y1="114.572" x2="359.896" y2="230.13" stroke="#AB2421" stroke-width="1.5"/>
<line x1="396.164" y1="57.718" x2="263.831" y2="173.277" stroke="#AB2421" stroke-width="1.5"/>
<line x1="300.164" y1="1.718" x2="167.831" y2="117.277" stroke="#AB2421" stroke-width="1.5"/>
<line x1="477.94" y1="106.495" x2="345.606" y2="222.054" stroke="#AB2421" stroke-width="1.5"/>
<line x1="381.875" y1="49.6413" x2="249.541" y2="165.2" stroke="#AB2421" stroke-width="1.5"/>
<line x1="285.875" y1="-6.35866" x2="153.541" y2="109.2" stroke="#AB2421" stroke-width="1.5"/>
<line x1="259.875" y1="-23.3587" x2="127.541" y2="92.2002" stroke="#AB2421" stroke-width="1.5"/>
<line x1="464.892" y1="98.4184" x2="332.558" y2="213.977" stroke="#AB2421" stroke-width="1.5"/>
<line x1="368.827" y1="41.5649" x2="236.493" y2="157.124" stroke="#AB2421" stroke-width="1.5"/>
<line x1="272.827" y1="-14.4351" x2="140.493" y2="101.124" stroke="#AB2421" stroke-width="1.5"/>
<line x1="246.827" y1="-31.4351" x2="114.493" y2="84.1238" stroke="#AB2421" stroke-width="1.5"/>
</g>
</svg>
