<svg width="181" height="229" viewBox="0 0 190 231" fill="none" xmlns="http://www.w3.org/2000/svg">
<circle cx="94.7821" cy="114.056" r="90.7821" stroke="#888888" stroke-width="7"/>
<circle cx="94.7822" cy="114.055" r="54.6455" stroke="#888888" stroke-width="3"/>
<rect x="17.2207" y="95.5459" width="161.292" height="43.1876" fill="#EEEEEE"/>
<path d="M18.6157 108.401V126.886H14.2866V108.401H18.6157ZM29.1147 121.973C29.1147 121.685 29.0851 121.427 29.0259 121.198C28.9751 120.961 28.8693 120.741 28.7085 120.538C28.5562 120.335 28.3234 120.132 28.0103 119.929C27.6971 119.717 27.2782 119.497 26.7534 119.269C26.0933 118.998 25.4458 118.693 24.811 118.354C24.1763 118.007 23.605 117.605 23.0972 117.148C22.5978 116.683 22.1958 116.141 21.8911 115.523C21.5864 114.897 21.4341 114.169 21.4341 113.34C21.4341 112.544 21.5864 111.829 21.8911 111.194C22.2043 110.551 22.6317 110.005 23.1733 109.557C23.7235 109.1 24.3709 108.753 25.1157 108.516C25.8605 108.27 26.673 108.147 27.5532 108.147C28.7212 108.147 29.7495 108.384 30.6382 108.858C31.5353 109.324 32.2336 109.988 32.7329 110.852C33.2407 111.706 33.4946 112.718 33.4946 113.886H29.1655C29.1655 113.42 29.1063 113.01 28.9878 112.654C28.8693 112.299 28.6831 112.02 28.4292 111.816C28.1838 111.613 27.8579 111.512 27.4517 111.512C27.0877 111.512 26.7788 111.596 26.5249 111.766C26.2795 111.935 26.0933 112.163 25.9663 112.451C25.8394 112.73 25.7759 113.039 25.7759 113.378C25.7759 113.657 25.8394 113.911 25.9663 114.14C26.0933 114.36 26.2668 114.567 26.4868 114.762C26.7153 114.956 26.9777 115.143 27.2739 115.32C27.5786 115.498 27.9045 115.672 28.2515 115.841C29.0894 116.154 29.8299 116.505 30.4731 116.895C31.1248 117.275 31.6707 117.711 32.1108 118.202C32.5509 118.685 32.881 119.235 33.1011 119.853C33.3296 120.47 33.4438 121.169 33.4438 121.947C33.4438 122.777 33.3084 123.513 33.0376 124.156C32.7752 124.799 32.3901 125.345 31.8823 125.794C31.3745 126.234 30.7609 126.568 30.0415 126.797C29.3306 127.025 28.5265 127.14 27.6294 127.14C26.8084 127.14 26.0002 127.021 25.2046 126.784C24.4175 126.539 23.7023 126.166 23.0591 125.667C22.4243 125.159 21.9165 124.512 21.5356 123.725C21.1548 122.929 20.9644 121.985 20.9644 120.894H25.3315C25.3315 121.435 25.3739 121.892 25.4585 122.265C25.5431 122.637 25.6743 122.938 25.8521 123.166C26.0382 123.386 26.2752 123.547 26.563 123.648C26.8507 123.742 27.2062 123.788 27.6294 123.788C28.0187 123.788 28.3192 123.708 28.5308 123.547C28.7508 123.378 28.9032 123.158 28.9878 122.887C29.0724 122.607 29.1147 122.303 29.1147 121.973ZM49.1099 116.26V119.053C49.1099 120.382 48.9448 121.549 48.6147 122.557C48.2847 123.564 47.8149 124.41 47.2056 125.096C46.5962 125.773 45.8726 126.285 45.0347 126.632C44.2052 126.97 43.2827 127.14 42.2671 127.14C41.243 127.14 40.312 126.97 39.4741 126.632C38.6362 126.285 37.9126 125.773 37.3032 125.096C36.6938 124.41 36.2241 123.564 35.894 122.557C35.564 121.549 35.3989 120.382 35.3989 119.053V116.26C35.3989 114.931 35.564 113.759 35.894 112.743C36.2241 111.728 36.6896 110.881 37.2905 110.204C37.8999 109.527 38.6235 109.015 39.4614 108.668C40.2993 108.321 41.2303 108.147 42.2544 108.147C43.27 108.147 44.1968 108.321 45.0347 108.668C45.881 109.015 46.6047 109.527 47.2056 110.204C47.8065 110.881 48.272 111.728 48.6021 112.743C48.9406 113.759 49.1099 114.931 49.1099 116.26ZM44.7046 119.053V116.234C44.7046 115.405 44.6538 114.698 44.5522 114.114C44.4507 113.53 44.2983 113.056 44.0952 112.692C43.8921 112.328 43.6382 112.062 43.3335 111.893C43.0288 111.723 42.6691 111.639 42.2544 111.639C41.8228 111.639 41.4546 111.723 41.1499 111.893C40.8452 112.062 40.5913 112.328 40.3882 112.692C40.1935 113.056 40.0496 113.53 39.9565 114.114C39.8634 114.698 39.8169 115.405 39.8169 116.234V119.053C39.8169 119.874 39.8634 120.576 39.9565 121.16C40.0496 121.736 40.1935 122.21 40.3882 122.582C40.5913 122.954 40.8494 123.229 41.1626 123.407C41.4757 123.576 41.8439 123.661 42.2671 123.661C42.6733 123.661 43.0288 123.576 43.3335 123.407C43.6466 123.229 43.9006 122.954 44.0952 122.582C44.2983 122.21 44.4507 121.736 44.5522 121.16C44.6538 120.576 44.7046 119.874 44.7046 119.053ZM59.5962 123.712H59.7866C60.4214 123.712 61.0011 123.619 61.5259 123.433C62.0506 123.246 62.4992 122.959 62.8716 122.569C63.2524 122.172 63.5487 121.66 63.7603 121.033C63.9718 120.398 64.0776 119.632 64.0776 118.735V114.914C64.0776 114.322 64.0438 113.81 63.9761 113.378C63.9084 112.938 63.8153 112.574 63.6968 112.286C63.5783 111.998 63.4302 111.787 63.2524 111.651C63.0832 111.507 62.897 111.436 62.6938 111.436C62.4653 111.436 62.2707 111.533 62.1099 111.728C61.9491 111.914 61.8094 112.168 61.6909 112.489C61.5809 112.802 61.4963 113.158 61.437 113.556C61.3778 113.945 61.3481 114.339 61.3481 114.736C61.3481 115.185 61.3778 115.604 61.437 115.993C61.5047 116.374 61.6021 116.708 61.729 116.996C61.856 117.275 62.0168 117.495 62.2114 117.656C62.4146 117.817 62.6515 117.897 62.9224 117.897C63.1593 117.897 63.3625 117.83 63.5317 117.694C63.7095 117.55 63.8534 117.364 63.9634 117.136C64.0819 116.899 64.1707 116.645 64.23 116.374C64.2892 116.103 64.3146 115.837 64.3062 115.574L65.4868 116.552C65.4868 117.093 65.3895 117.627 65.1948 118.151C65.0002 118.676 64.7251 119.154 64.3696 119.586C64.0226 120.009 63.6248 120.348 63.1763 120.602C62.7277 120.855 62.2537 120.982 61.7544 120.982C61.0435 120.982 60.4045 120.834 59.8374 120.538C59.2788 120.242 58.8006 119.819 58.4028 119.269C58.005 118.718 57.7004 118.062 57.4888 117.301C57.2772 116.531 57.1714 115.676 57.1714 114.736C57.1714 113.831 57.3068 112.98 57.5776 112.185C57.8485 111.389 58.2293 110.691 58.7202 110.09C59.2196 109.48 59.8078 109.002 60.4849 108.655C61.1704 108.308 61.9194 108.135 62.7319 108.135C63.4683 108.135 64.1707 108.304 64.8394 108.643C65.508 108.973 66.0962 109.459 66.604 110.103C67.1203 110.746 67.5265 111.537 67.8228 112.477C68.119 113.416 68.2671 114.491 68.2671 115.701V117.174C68.2671 118.486 68.1232 119.671 67.8354 120.729C67.5477 121.786 67.1414 122.717 66.6167 123.521C66.092 124.317 65.4784 124.986 64.7759 125.527C64.0819 126.061 63.3159 126.463 62.478 126.733C61.6486 127.004 60.7769 127.14 59.8628 127.14H59.6089L59.5962 123.712ZM81.6099 115.955V119.332C81.6099 120.661 81.4744 121.816 81.2036 122.798C80.9328 123.78 80.5477 124.592 80.0483 125.235C79.5575 125.879 78.9735 126.357 78.2964 126.67C77.6193 126.983 76.8787 127.14 76.0747 127.14C75.4315 127.14 74.8221 127.042 74.2466 126.848C73.6795 126.645 73.1675 126.34 72.7104 125.934C72.2534 125.519 71.8599 125.003 71.5298 124.385C71.1997 123.767 70.9458 123.039 70.7681 122.201C70.5903 121.355 70.5015 120.398 70.5015 119.332V115.955C70.5015 114.618 70.6369 113.463 70.9077 112.489C71.1785 111.507 71.5636 110.695 72.063 110.052C72.5708 109.409 73.1632 108.93 73.8403 108.617C74.5174 108.304 75.258 108.147 76.062 108.147C76.7052 108.147 77.3062 108.249 77.8647 108.452C78.4318 108.647 78.9438 108.951 79.4009 109.366C79.8664 109.772 80.2642 110.285 80.5942 110.902C80.9243 111.52 81.174 112.252 81.3433 113.099C81.521 113.937 81.6099 114.889 81.6099 115.955ZM77.4585 119.853V115.409C77.4585 114.817 77.4373 114.3 77.395 113.86C77.3527 113.42 77.2892 113.048 77.2046 112.743C77.1284 112.438 77.0311 112.193 76.9126 112.007C76.7941 111.812 76.6629 111.673 76.519 111.588C76.3752 111.495 76.2228 111.448 76.062 111.448C75.8504 111.448 75.66 111.52 75.4907 111.664C75.3215 111.799 75.1733 112.02 75.0464 112.324C74.9194 112.629 74.8221 113.035 74.7544 113.543C74.6951 114.051 74.6655 114.673 74.6655 115.409V119.853C74.6655 120.453 74.6867 120.978 74.729 121.427C74.7798 121.867 74.8433 122.243 74.9194 122.557C74.9956 122.861 75.0929 123.111 75.2114 123.306C75.3299 123.492 75.4611 123.627 75.605 123.712C75.7573 123.797 75.9139 123.839 76.0747 123.839C76.2778 123.839 76.4598 123.771 76.6206 123.636C76.7899 123.5 76.938 123.28 77.0649 122.976C77.1919 122.662 77.2892 122.252 77.3569 121.744C77.4246 121.228 77.4585 120.597 77.4585 119.853ZM94.9146 115.955V119.332C94.9146 120.661 94.7791 121.816 94.5083 122.798C94.2375 123.78 93.8524 124.592 93.353 125.235C92.8621 125.879 92.2782 126.357 91.6011 126.67C90.924 126.983 90.1834 127.14 89.3794 127.14C88.7362 127.14 88.1268 127.042 87.5513 126.848C86.9842 126.645 86.4722 126.34 86.0151 125.934C85.5581 125.519 85.1646 125.003 84.8345 124.385C84.5044 123.767 84.2505 123.039 84.0728 122.201C83.895 121.355 83.8062 120.398 83.8062 119.332V115.955C83.8062 114.618 83.9416 113.463 84.2124 112.489C84.4832 111.507 84.8683 110.695 85.3677 110.052C85.8755 109.409 86.4679 108.93 87.145 108.617C87.8221 108.304 88.5627 108.147 89.3667 108.147C90.0099 108.147 90.6108 108.249 91.1694 108.452C91.7365 108.647 92.2485 108.951 92.7056 109.366C93.1711 109.772 93.5688 110.285 93.8989 110.902C94.229 111.52 94.4787 112.252 94.6479 113.099C94.8257 113.937 94.9146 114.889 94.9146 115.955ZM90.7632 119.853V115.409C90.7632 114.817 90.742 114.3 90.6997 113.86C90.6574 113.42 90.5939 113.048 90.5093 112.743C90.4331 112.438 90.3358 112.193 90.2173 112.007C90.0988 111.812 89.9676 111.673 89.8237 111.588C89.6799 111.495 89.5275 111.448 89.3667 111.448C89.1551 111.448 88.9647 111.52 88.7954 111.664C88.6261 111.799 88.478 112.02 88.3511 112.324C88.2241 112.629 88.1268 113.035 88.0591 113.543C87.9998 114.051 87.9702 114.673 87.9702 115.409V119.853C87.9702 120.453 87.9914 120.978 88.0337 121.427C88.0845 121.867 88.1479 122.243 88.2241 122.557C88.3003 122.861 88.3976 123.111 88.5161 123.306C88.6346 123.492 88.7658 123.627 88.9097 123.712C89.062 123.797 89.2186 123.839 89.3794 123.839C89.5825 123.839 89.7645 123.771 89.9253 123.636C90.0946 123.5 90.2427 123.28 90.3696 122.976C90.4966 122.662 90.5939 122.252 90.6616 121.744C90.7293 121.228 90.7632 120.597 90.7632 119.853ZM105.553 108.401V126.886H101.376V113.226L98.0122 114.457V111.207L105.185 108.401H105.553ZM118.058 117.263V120.576H111.38V117.263H118.058ZM132.505 123.585V126.886H121.372V124.093L126.348 117.847C126.754 117.246 127.076 116.708 127.313 116.234C127.558 115.752 127.736 115.316 127.846 114.927C127.956 114.537 128.011 114.186 128.011 113.873C128.011 113.34 127.96 112.896 127.859 112.54C127.757 112.176 127.609 111.901 127.415 111.715C127.228 111.529 126.996 111.436 126.716 111.436C126.412 111.436 126.149 111.562 125.929 111.816C125.709 112.07 125.54 112.417 125.421 112.857C125.311 113.298 125.256 113.793 125.256 114.343H121.067C121.067 113.209 121.308 112.172 121.791 111.232C122.273 110.293 122.946 109.544 123.809 108.985C124.672 108.418 125.675 108.135 126.818 108.135C128.003 108.135 128.993 108.346 129.789 108.77C130.593 109.193 131.194 109.806 131.591 110.61C131.998 111.406 132.201 112.367 132.201 113.492C132.201 114.135 132.116 114.753 131.947 115.346C131.778 115.938 131.532 116.526 131.21 117.11C130.889 117.686 130.491 118.278 130.017 118.888C129.543 119.497 128.997 120.145 128.379 120.83L126.843 123.585H132.505ZM145.797 115.955V119.332C145.797 120.661 145.662 121.816 145.391 122.798C145.12 123.78 144.735 124.592 144.236 125.235C143.745 125.879 143.161 126.357 142.484 126.67C141.807 126.983 141.066 127.14 140.262 127.14C139.619 127.14 139.01 127.042 138.434 126.848C137.867 126.645 137.355 126.34 136.898 125.934C136.441 125.519 136.047 125.003 135.717 124.385C135.387 123.767 135.133 123.039 134.956 122.201C134.778 121.355 134.689 120.398 134.689 119.332V115.955C134.689 114.618 134.824 113.463 135.095 112.489C135.366 111.507 135.751 110.695 136.25 110.052C136.758 109.409 137.351 108.93 138.028 108.617C138.705 108.304 139.445 108.147 140.25 108.147C140.893 108.147 141.494 108.249 142.052 108.452C142.619 108.647 143.131 108.951 143.588 109.366C144.054 109.772 144.452 110.285 144.782 110.902C145.112 111.52 145.361 112.252 145.531 113.099C145.708 113.937 145.797 114.889 145.797 115.955ZM141.646 119.853V115.409C141.646 114.817 141.625 114.3 141.583 113.86C141.54 113.42 141.477 113.048 141.392 112.743C141.316 112.438 141.219 112.193 141.1 112.007C140.982 111.812 140.85 111.673 140.707 111.588C140.563 111.495 140.41 111.448 140.25 111.448C140.038 111.448 139.847 111.52 139.678 111.664C139.509 111.799 139.361 112.02 139.234 112.324C139.107 112.629 139.01 113.035 138.942 113.543C138.883 114.051 138.853 114.673 138.853 115.409V119.853C138.853 120.453 138.874 120.978 138.917 121.427C138.967 121.867 139.031 122.243 139.107 122.557C139.183 122.861 139.28 123.111 139.399 123.306C139.517 123.492 139.649 123.627 139.792 123.712C139.945 123.797 140.101 123.839 140.262 123.839C140.465 123.839 140.647 123.771 140.808 123.636C140.977 123.5 141.125 123.28 141.252 122.976C141.379 122.662 141.477 122.252 141.544 121.744C141.612 121.228 141.646 120.597 141.646 119.853ZM159.102 115.955V119.332C159.102 120.661 158.967 121.816 158.696 122.798C158.425 123.78 158.04 124.592 157.541 125.235C157.05 125.879 156.466 126.357 155.789 126.67C155.111 126.983 154.371 127.14 153.567 127.14C152.924 127.14 152.314 127.042 151.739 126.848C151.172 126.645 150.66 126.34 150.203 125.934C149.746 125.519 149.352 125.003 149.022 124.385C148.692 123.767 148.438 123.039 148.26 122.201C148.083 121.355 147.994 120.398 147.994 119.332V115.955C147.994 114.618 148.129 113.463 148.4 112.489C148.671 111.507 149.056 110.695 149.555 110.052C150.063 109.409 150.655 108.93 151.333 108.617C152.01 108.304 152.75 108.147 153.554 108.147C154.197 108.147 154.798 108.249 155.357 108.452C155.924 108.647 156.436 108.951 156.893 109.366C157.359 109.772 157.756 110.285 158.086 110.902C158.417 111.52 158.666 112.252 158.835 113.099C159.013 113.937 159.102 114.889 159.102 115.955ZM154.951 119.853V115.409C154.951 114.817 154.93 114.3 154.887 113.86C154.845 113.42 154.781 113.048 154.697 112.743C154.621 112.438 154.523 112.193 154.405 112.007C154.286 111.812 154.155 111.673 154.011 111.588C153.867 111.495 153.715 111.448 153.554 111.448C153.343 111.448 153.152 111.52 152.983 111.664C152.814 111.799 152.666 112.02 152.539 112.324C152.412 112.629 152.314 113.035 152.247 113.543C152.187 114.051 152.158 114.673 152.158 115.409V119.853C152.158 120.453 152.179 120.978 152.221 121.427C152.272 121.867 152.335 122.243 152.412 122.557C152.488 122.861 152.585 123.111 152.704 123.306C152.822 123.492 152.953 123.627 153.097 123.712C153.25 123.797 153.406 123.839 153.567 123.839C153.77 123.839 153.952 123.771 154.113 123.636C154.282 123.5 154.43 123.28 154.557 122.976C154.684 122.662 154.781 122.252 154.849 121.744C154.917 121.228 154.951 120.597 154.951 119.853ZM172.343 121.795C172.343 122.971 172.111 123.957 171.645 124.753C171.18 125.549 170.532 126.145 169.703 126.543C168.873 126.941 167.925 127.14 166.859 127.14C165.809 127.14 164.866 126.941 164.028 126.543C163.198 126.145 162.542 125.549 162.06 124.753C161.578 123.957 161.336 122.971 161.336 121.795C161.336 120.991 161.476 120.271 161.755 119.637C162.035 118.993 162.424 118.448 162.923 117.999C163.423 117.55 164.007 117.208 164.675 116.971C165.344 116.734 166.068 116.615 166.846 116.615C167.904 116.615 168.848 116.827 169.677 117.25C170.507 117.665 171.158 118.257 171.632 119.027C172.106 119.798 172.343 120.72 172.343 121.795ZM168.167 121.452C168.167 120.944 168.111 120.517 168.001 120.17C167.9 119.814 167.752 119.544 167.557 119.357C167.362 119.171 167.125 119.078 166.846 119.078C166.584 119.078 166.351 119.171 166.148 119.357C165.945 119.544 165.788 119.814 165.678 120.17C165.568 120.517 165.513 120.944 165.513 121.452C165.513 121.943 165.568 122.37 165.678 122.734C165.797 123.09 165.953 123.365 166.148 123.56C166.351 123.746 166.592 123.839 166.872 123.839C167.142 123.839 167.375 123.746 167.57 123.56C167.764 123.365 167.913 123.09 168.014 122.734C168.116 122.37 168.167 121.943 168.167 121.452ZM172.051 113.34C172.051 114.305 171.831 115.151 171.391 115.879C170.959 116.598 170.354 117.161 169.576 117.567C168.797 117.965 167.896 118.164 166.872 118.164C165.856 118.164 164.955 117.965 164.167 117.567C163.38 117.161 162.763 116.598 162.314 115.879C161.874 115.151 161.654 114.305 161.654 113.34C161.654 112.206 161.874 111.254 162.314 110.483C162.763 109.713 163.38 109.129 164.167 108.731C164.955 108.334 165.852 108.135 166.859 108.135C167.883 108.135 168.784 108.334 169.563 108.731C170.342 109.129 170.951 109.713 171.391 110.483C171.831 111.254 172.051 112.206 172.051 113.34ZM167.875 113.568C167.875 113.128 167.841 112.752 167.773 112.438C167.714 112.117 167.608 111.871 167.456 111.702C167.312 111.524 167.113 111.436 166.859 111.436C166.622 111.436 166.427 111.52 166.275 111.689C166.123 111.859 166.008 112.104 165.932 112.426C165.864 112.739 165.831 113.12 165.831 113.568C165.831 114.008 165.864 114.394 165.932 114.724C166 115.054 166.11 115.312 166.262 115.498C166.423 115.684 166.626 115.777 166.872 115.777C167.125 115.777 167.324 115.684 167.468 115.498C167.621 115.312 167.726 115.054 167.786 114.724C167.845 114.394 167.875 114.008 167.875 113.568Z" fill="black"/>
<g opacity="0.5">
<path d="M56.0358 60.6966C55.8401 60.4035 55.5805 60.2028 55.2569 60.0944C54.9362 59.9715 54.5139 59.9224 53.9901 59.947C53.4663 59.9716 52.8048 60.0628 52.0056 60.2206C51.1745 60.3872 50.4174 60.5046 49.7343 60.5728C49.0512 60.6411 48.4291 60.6314 47.8681 60.5439C47.3014 60.4477 46.7857 60.2491 46.321 59.9482C45.8563 59.6474 45.437 59.2168 45.063 58.6566C44.6775 58.0791 44.4296 57.4724 44.3192 56.8366C44.2088 56.2007 44.2345 55.5616 44.3961 54.9191C44.552 54.2681 44.8481 53.6483 45.2844 53.0597C45.7149 52.4625 46.2914 51.924 47.0137 51.4439C48.0319 50.7673 49.0259 50.3743 49.9956 50.2649C50.9683 50.1411 51.8648 50.2795 52.6849 50.68C53.5081 51.0662 54.2016 51.6816 54.7654 52.5263L51.7238 54.5476C51.4879 54.1942 51.2097 53.9186 50.8893 53.721C50.5632 53.5147 50.2077 53.415 49.8228 53.4219C49.4322 53.4202 49.028 53.5581 48.6103 53.8357C48.2274 54.0902 47.9543 54.3774 47.791 54.6974C47.6307 55.0031 47.5658 55.3199 47.5963 55.648C47.6298 55.9617 47.7444 56.265 47.94 56.5581C48.0838 56.7735 48.2496 56.9371 48.4372 57.0489C48.6249 57.1606 48.8618 57.2333 49.1482 57.267C49.4287 57.292 49.7731 57.2809 50.1813 57.2337C50.5981 57.1806 51.112 57.0941 51.723 56.9743C52.9133 56.7059 53.9512 56.5575 54.8367 56.5289C55.7222 56.5004 56.4942 56.6406 57.1527 56.9495C57.8112 57.2584 58.3965 57.7965 58.9086 58.5635C59.3228 59.1841 59.5793 59.8224 59.678 60.4785C59.7854 61.1287 59.7424 61.7795 59.5489 62.4306C59.3641 63.076 59.0333 63.7002 58.5564 64.3033C58.0825 64.892 57.4757 65.4321 56.7359 65.9237C55.6307 66.6581 54.5513 67.0644 53.4978 67.1424C52.4472 67.2059 51.496 67.0231 50.644 66.5938C49.7921 66.1645 49.1102 65.5664 48.5981 64.7993L51.5353 62.8474C51.9296 63.3817 52.3348 63.7346 52.7508 63.906C53.1755 64.0717 53.5935 64.105 54.0047 64.0059C54.4102 63.8982 54.7914 63.7258 55.1482 63.4887C55.5746 63.2053 55.8897 62.9151 56.0934 62.6179C56.2913 62.3122 56.3823 61.9967 56.3662 61.6715C56.3588 61.3404 56.2486 61.0155 56.0358 60.6966Z" fill="black"/>
<path d="M68.489 59.49C67.4692 59.9189 66.4987 60.1542 65.5775 60.196C64.6523 60.2283 63.7882 60.0676 62.985 59.7139C62.1778 59.3508 61.4454 58.8001 60.7878 58.0618C60.1261 57.314 59.5517 56.3678 59.0647 55.2232L58.4368 53.7475C57.8853 52.4514 57.5609 51.2719 57.4635 50.2087C57.3718 49.132 57.469 48.1765 57.7553 47.3423C58.0416 46.5081 58.4914 45.7891 59.1047 45.1854C59.7278 44.5776 60.4764 44.0898 61.3505 43.7222C62.3411 43.3055 63.267 43.1 64.1283 43.1058C64.9895 43.1116 65.786 43.3286 66.5179 43.7569C67.2594 44.1811 67.9371 44.805 68.5509 45.6286C69.1745 46.4482 69.7398 47.4539 70.247 48.6459L70.9534 50.3061L60.7265 54.6078L59.6639 52.1104L66.5401 49.2181L66.3891 48.8633C66.0719 48.1715 65.7288 47.6075 65.3601 47.1715C64.9874 46.7261 64.5698 46.4444 64.1075 46.3266C63.6508 46.1953 63.1214 46.2562 62.5193 46.5095C62.0822 46.6933 61.728 46.9372 61.4565 47.241C61.185 47.5448 61.014 47.9234 60.9436 48.3768C60.8829 48.8262 60.923 49.3781 61.0641 50.0325C61.2011 50.6775 61.4568 51.4399 61.8312 52.3197L62.4591 53.7954C62.7851 54.5617 63.1288 55.1811 63.4902 55.6536C63.8613 56.1221 64.2601 56.4674 64.6867 56.6895C65.1092 56.9021 65.5538 57.0051 66.0204 56.9984C66.4927 56.9782 66.996 56.8557 67.5301 56.631C68.3168 56.3001 68.9314 55.8743 69.374 55.3536C69.8222 54.8193 70.1565 54.2325 70.3769 53.5933L72.7408 54.9913C72.6162 55.4787 72.3924 56.0023 72.0694 56.5619C71.7424 57.1121 71.2873 57.6437 70.7041 58.1567C70.1306 58.6656 69.3922 59.11 68.489 59.49Z" fill="black"/>
<path d="M75.3845 42.8087L78.5901 55.8079L74.9885 56.6733L71.0154 40.5621L74.447 39.7376L75.3845 42.8087ZM78.6257 38.623L79.4548 42.0515C79.2365 42.0514 79.0076 42.0749 78.7681 42.1219C78.5365 42.1565 78.3073 42.201 78.0806 42.2555C77.586 42.3744 77.1792 42.5615 76.8601 42.8169C76.541 43.0724 76.297 43.3886 76.128 43.7657C75.959 44.1428 75.8575 44.572 75.8234 45.0534C75.7996 45.5323 75.842 46.0584 75.9506 46.6316L75.1851 46.8471C74.9354 45.8346 74.7865 44.8767 74.7384 43.9734C74.6879 43.0603 74.7479 42.2414 74.9185 41.517C75.097 40.7801 75.3935 40.1673 75.8079 39.6787C76.2222 39.1901 76.7643 38.8653 77.4341 38.7043C77.6196 38.6598 77.8358 38.6288 78.0826 38.6116C78.3294 38.5944 78.5104 38.5982 78.6257 38.623Z" fill="black"/>
<path d="M89.1939 37.4233L89.5054 40.1576L81.0827 41.0502L80.7711 38.3159L89.1939 37.4233ZM82.6125 34.0468L86.2925 33.6568L88.1011 49.5306C88.1587 50.0369 88.2608 50.4156 88.4071 50.6665C88.5534 50.9175 88.7375 51.0773 88.9594 51.1461C89.1812 51.2148 89.4349 51.234 89.7205 51.2038C89.932 51.1814 90.1364 51.1443 90.3339 51.0927C90.5408 51.0297 90.6901 50.978 90.7818 50.9376L91.1071 53.7933C90.8437 53.9237 90.5363 54.0434 90.1848 54.1524C89.8334 54.2614 89.4039 54.3428 88.8963 54.3966C88.1455 54.4762 87.4567 54.3954 86.8299 54.1544C86.2031 53.9133 85.6818 53.4715 85.2661 52.8288C84.8504 52.1862 84.578 51.2978 84.4488 50.1636L82.6125 34.0468Z" fill="black"/>
<path d="M96.3918 37.3451L96.5318 53.8609L92.8091 53.8551L92.6691 37.3394L96.3918 37.3451ZM92.4408 33.0193C92.436 32.4495 92.613 31.9766 92.972 31.6006C93.3309 31.2145 93.8352 31.0219 94.4849 31.0229C95.1347 31.0239 95.6422 31.213 96.0075 31.5901C96.3729 31.9671 96.558 32.4406 96.5628 33.0105C96.5675 33.5701 96.3904 34.038 96.0315 34.4139C95.6725 34.7899 95.1682 34.9773 94.5184 34.9763C93.8687 34.9753 93.3611 34.7863 92.9958 34.4092C92.6305 34.0321 92.4455 33.5688 92.4408 33.0193Z" fill="black"/>
<path d="M103.85 54.4835L100.149 54.0637L102.045 36.0858C102.174 34.862 102.494 33.8594 103.005 33.0781C103.528 32.2879 104.204 31.7197 105.033 31.3737C105.873 31.0289 106.833 30.9178 107.914 31.0403C108.242 31.0775 108.562 31.1394 108.874 31.226C109.188 31.3025 109.483 31.4025 109.759 31.526L109.376 34.3995C109.232 34.3422 109.05 34.2909 108.829 34.2454C108.62 34.2012 108.414 34.1676 108.213 34.1448C107.747 34.0919 107.339 34.148 106.99 34.3131C106.64 34.4781 106.36 34.7432 106.15 35.1083C105.941 35.4734 105.806 35.9392 105.746 36.5056L103.85 54.4835ZM108.377 38.3853L108.089 41.1162L99.432 40.1342L99.7199 37.4034L108.377 38.3853Z" fill="black"/>
<path d="M115.845 40.0022L112.2 56.1107L108.574 55.2685L112.219 39.16L115.845 40.0022ZM112.986 34.9034C113.112 34.3476 113.393 33.927 113.828 33.6417C114.266 33.3465 114.802 33.2724 115.435 33.4194C116.067 33.5664 116.519 33.8645 116.788 34.3136C117.058 34.7628 117.13 35.2653 117.004 35.8211C116.88 36.367 116.601 36.7826 116.165 37.0679C115.729 37.3532 115.195 37.4223 114.562 37.2753C113.929 37.1283 113.478 36.8302 113.208 36.3811C112.939 35.9319 112.865 35.4394 112.986 34.9034Z" fill="black"/>
<path d="M120.426 59.2225C119.386 58.8186 118.517 58.3114 117.818 57.7008C117.123 57.0806 116.606 56.3657 116.268 55.556C115.934 54.7367 115.784 53.8361 115.819 52.854C115.858 51.8624 116.098 50.7904 116.54 49.6379L117.109 48.1522C117.609 46.8473 118.194 45.7831 118.862 44.9594C119.544 44.1301 120.279 43.5183 121.067 43.1241C121.855 42.73 122.682 42.5314 123.548 42.5285C124.423 42.5293 125.307 42.7029 126.198 43.049C127.208 43.4413 128.024 43.9388 128.646 44.5416C129.268 45.1443 129.697 45.8523 129.931 46.6655C130.175 47.4825 130.234 48.3972 130.108 49.4095C129.991 50.4257 129.703 51.5338 129.243 52.7338L128.603 54.4053L118.176 50.3555L119.14 47.8411L126.15 50.5641L126.287 50.2069C126.537 49.4944 126.68 48.855 126.715 48.2887C126.754 47.7129 126.646 47.2224 126.392 46.8172C126.151 46.4064 125.724 46.0818 125.11 45.8433C124.664 45.6703 124.237 45.5974 123.828 45.6247C123.42 45.652 123.032 45.8024 122.666 46.0758C122.309 46.3531 121.955 46.7735 121.602 47.3369C121.254 47.8908 120.909 48.6106 120.57 49.4963L120.001 50.9821C119.705 51.7536 119.524 52.4329 119.458 53.0201C119.402 53.6111 119.452 54.1339 119.608 54.5883C119.768 55.0332 120.019 55.4154 120.363 55.735C120.721 56.0489 121.172 56.3116 121.716 56.5232C122.518 56.8347 123.261 56.9591 123.945 56.8965C124.642 56.8281 125.293 56.6433 125.898 56.342L126.645 58.9791C126.215 59.2391 125.689 59.4557 125.065 59.6292C124.445 59.7932 123.744 59.8548 122.963 59.8142C122.193 59.7774 121.347 59.5801 120.426 59.2225Z" fill="black"/>
<path d="M135.874 63.2963L146.593 46.2253L149.713 48.1947L137.146 68.2109L134.312 66.4404L135.874 63.2963ZM130.31 54.8539L131.006 53.7462C131.731 52.5908 132.466 51.6593 133.209 50.9519C133.958 50.2357 134.715 49.7249 135.48 49.4194C136.254 49.1196 137.021 49.021 137.779 49.1236C138.537 49.2262 139.287 49.5113 140.028 49.979C140.751 50.4355 141.276 50.9907 141.601 51.6446C141.931 52.2898 142.096 53.0189 142.097 53.8321C142.098 54.6452 141.952 55.5233 141.659 56.4665C141.38 57.4066 140.97 58.3972 140.428 59.4383L139.463 60.976C138.765 61.8697 138.058 62.6485 137.341 63.3125C136.631 63.9678 135.912 64.4667 135.186 64.809C134.46 65.1514 133.728 65.3142 132.991 65.2975C132.268 65.2778 131.549 65.0425 130.835 64.5917C130.094 64.124 129.519 63.5609 129.109 62.9023C128.709 62.2493 128.476 61.5081 128.411 60.6785C128.355 59.8546 128.481 58.958 128.791 57.9888C129.106 57.0109 129.612 55.9659 130.31 54.8539ZM134.126 55.7157L133.431 56.8233C132.978 57.5444 132.633 58.1937 132.395 58.7713C132.157 59.3489 132.03 59.8691 132.013 60.3319C132.003 60.786 132.106 61.197 132.324 61.565C132.547 61.9242 132.886 62.2475 133.342 62.5349C133.913 62.8955 134.465 63.0496 134.996 62.997C135.537 62.95 136.053 62.7539 136.544 62.4088C137.049 62.0606 137.525 61.6208 137.971 61.0894L139.877 58.0531C140.121 57.5645 140.299 57.0825 140.411 56.607C140.528 56.1229 140.572 55.6655 140.543 55.2349C140.514 54.8042 140.395 54.4078 140.187 54.0455C139.992 53.6802 139.69 53.3679 139.279 53.1087C138.823 52.8213 138.38 52.663 137.95 52.6339C137.525 52.5961 137.105 52.689 136.69 52.9125C136.281 53.1274 135.861 53.4688 135.43 53.9367C135.014 54.4016 134.579 54.9946 134.126 55.7157Z" fill="black"/>
</g>
<g opacity="0.5">
<path d="M134.828 171.018C135.019 171.314 135.276 171.519 135.598 171.633C135.917 171.761 136.338 171.816 136.862 171.8C137.387 171.784 138.05 171.703 138.851 171.558C139.685 171.405 140.444 171.3 141.129 171.242C141.813 171.185 142.435 171.205 142.994 171.301C143.56 171.406 144.072 171.613 144.532 171.921C144.992 172.23 145.405 172.667 145.77 173.233C146.147 173.816 146.385 174.427 146.485 175.064C146.586 175.701 146.55 176.34 146.378 176.98C146.212 177.628 145.906 178.243 145.461 178.824C145.021 179.414 144.436 179.944 143.706 180.412C142.677 181.072 141.677 181.449 140.705 181.543C139.73 181.651 138.836 181.499 138.022 181.085C137.205 180.686 136.521 180.06 135.97 179.206L139.044 177.234C139.274 177.591 139.548 177.871 139.866 178.074C140.189 178.285 140.543 178.391 140.928 178.39C141.318 178.398 141.725 178.266 142.147 177.996C142.534 177.747 142.811 177.464 142.98 177.147C143.145 176.844 143.215 176.528 143.189 176.2C143.161 175.886 143.051 175.581 142.86 175.285C142.719 175.067 142.556 174.901 142.37 174.786C142.184 174.671 141.949 174.595 141.663 174.557C141.383 174.527 141.038 174.533 140.629 174.574C140.211 174.62 139.696 174.698 139.083 174.808C137.888 175.057 136.848 175.189 135.962 175.204C135.076 175.218 134.306 175.066 133.652 174.746C132.999 174.427 132.422 173.88 131.922 173.105C131.517 172.478 131.271 171.836 131.182 171.178C131.085 170.526 131.138 169.877 131.342 169.229C131.537 168.586 131.878 167.968 132.364 167.372C132.847 166.791 133.463 166.261 134.21 165.782C135.327 165.065 136.413 164.676 137.468 164.615C138.52 164.568 139.468 164.766 140.313 165.209C141.159 165.651 141.831 166.26 142.331 167.035L139.363 168.94C138.977 168.399 138.577 168.04 138.164 167.862C137.742 167.69 137.325 167.65 136.912 167.742C136.504 167.843 136.121 168.01 135.76 168.241C135.329 168.518 135.009 168.803 134.801 169.096C134.598 169.399 134.502 169.713 134.513 170.038C134.515 170.369 134.621 170.696 134.828 171.018Z" fill="black"/>
<path d="M122.354 172.026C123.38 171.614 124.354 171.394 125.276 171.368C126.202 171.35 127.064 171.525 127.862 171.892C128.663 172.268 129.387 172.83 130.033 173.579C130.684 174.337 131.243 175.292 131.713 176.444L132.318 177.93C132.849 179.234 133.155 180.419 133.236 181.483C133.311 182.561 133.199 183.515 132.9 184.344C132.601 185.173 132.14 185.885 131.517 186.478C130.884 187.076 130.128 187.551 129.248 187.905C128.251 188.305 127.322 188.496 126.461 188.476C125.599 188.456 124.806 188.227 124.081 187.787C123.346 187.35 122.678 186.716 122.077 185.882C121.466 185.053 120.916 184.038 120.427 182.839L119.746 181.168L130.041 177.033L131.065 179.546L124.143 182.327L124.289 182.684C124.595 183.381 124.93 183.95 125.292 184.392C125.658 184.843 126.071 185.131 126.531 185.257C126.986 185.395 127.516 185.343 128.123 185.099C128.562 184.923 128.921 184.685 129.197 184.385C129.473 184.086 129.65 183.71 129.727 183.258C129.795 182.81 129.763 182.258 129.633 181.601C129.505 180.954 129.262 180.188 128.901 179.302L128.296 177.817C127.982 177.045 127.647 176.421 127.293 175.942C126.929 175.468 126.536 175.116 126.113 174.888C125.694 174.668 125.25 174.558 124.784 174.557C124.311 174.57 123.806 174.684 123.268 174.9C122.476 175.218 121.855 175.634 121.404 176.147C120.948 176.674 120.604 177.255 120.374 177.891L118.031 176.455C118.164 175.97 118.396 175.45 118.727 174.896C119.063 174.351 119.526 173.827 120.117 173.323C120.699 172.824 121.444 172.392 122.354 172.026Z" fill="black"/>
<path d="M115.2 188.595L112.193 175.546L115.808 174.74L119.534 190.913L116.09 191.681L115.2 188.595ZM111.894 192.727L111.118 189.285C111.336 189.289 111.565 189.269 111.805 189.226C112.038 189.195 112.267 189.155 112.495 189.104C112.991 188.993 113.401 188.813 113.724 188.562C114.047 188.312 114.296 188 114.471 187.626C114.645 187.252 114.754 186.824 114.795 186.343C114.826 185.865 114.792 185.338 114.692 184.764L115.461 184.561C115.695 185.577 115.829 186.537 115.864 187.441C115.9 188.355 115.827 189.172 115.646 189.894C115.456 190.628 115.15 191.236 114.728 191.717C114.306 192.199 113.759 192.515 113.087 192.665C112.901 192.706 112.684 192.734 112.437 192.747C112.19 192.76 112.009 192.753 111.894 192.727Z" fill="black"/>
<path d="M101.309 193.758L101.039 191.019L109.474 190.266L109.744 193.005L101.309 193.758ZM107.838 197.243L104.153 197.572L102.585 181.67C102.535 181.163 102.439 180.782 102.296 180.529C102.154 180.276 101.972 180.113 101.751 180.04C101.531 179.968 101.277 179.944 100.991 179.97C100.78 179.989 100.575 180.022 100.376 180.071C100.169 180.13 100.018 180.18 99.9261 180.219L99.6441 177.358C99.9094 177.232 100.219 177.117 100.572 177.014C100.925 176.911 101.355 176.836 101.864 176.791C102.616 176.724 103.303 176.816 103.926 177.068C104.549 177.319 105.064 177.769 105.47 178.419C105.876 179.068 106.135 179.961 106.247 181.097L107.838 197.243Z" fill="black"/>
<path d="M94.2141 193.69L94.3207 177.171L98.0422 177.236L97.9356 193.755L94.2141 193.69ZM98.0994 198.079C98.0958 198.649 97.9117 199.119 97.5472 199.489C97.1827 199.87 96.6757 200.054 96.0261 200.043C95.3766 200.031 94.872 199.834 94.5124 199.451C94.1528 199.068 93.9748 198.592 93.9785 198.022C93.9821 197.462 94.1662 196.997 94.5306 196.627C94.8951 196.257 95.4021 196.077 96.0516 196.089C96.7012 196.1 97.2057 196.297 97.5653 196.68C97.925 197.063 98.103 197.529 98.0994 198.079Z" fill="black"/>
<path d="M86.9279 176.46L90.621 176.94L88.4479 194.89C88.3 196.111 87.9646 197.109 87.4417 197.882C86.907 198.664 86.2223 199.221 85.3878 199.554C84.5427 199.885 83.5813 199.981 82.5034 199.841C82.1759 199.799 81.8566 199.732 81.5457 199.64C81.2336 199.558 80.9404 199.454 80.6661 199.326L81.0938 196.458C81.2368 196.518 81.4181 196.572 81.6375 196.621C81.8464 196.668 82.0513 196.705 82.252 196.731C82.717 196.792 83.1255 196.742 83.4775 196.583C83.8295 196.423 84.1133 196.163 84.3288 195.801C84.5443 195.439 84.6863 194.976 84.7548 194.41L86.9279 176.46ZM82.154 192.488L82.4841 189.761L91.1226 190.883L90.7925 193.609L82.154 192.488Z" fill="black"/>
<path d="M74.7103 190.755L78.6062 174.702L82.2172 175.602L78.3213 191.655L74.7103 190.755ZM77.4883 195.9C77.3539 196.454 77.0666 196.87 76.6265 197.149C76.184 197.437 75.6476 197.502 75.0174 197.345C74.3871 197.188 73.9408 196.883 73.6783 196.429C73.4158 195.976 73.3518 195.472 73.4862 194.918C73.6182 194.374 73.9043 193.963 74.3444 193.685C74.7845 193.406 75.3197 193.346 75.95 193.503C76.5802 193.66 77.0266 193.965 77.289 194.419C77.5515 194.872 77.6179 195.366 77.4883 195.9Z" fill="black"/>
<path d="M70.4345 171.461C71.4675 171.882 72.3284 172.403 73.0173 173.024C73.7024 173.656 74.2076 174.379 74.5328 175.194C74.8542 176.019 74.9896 176.922 74.939 177.903C74.8846 178.895 74.6275 179.963 74.1678 181.109L73.5751 182.585C73.0547 183.883 72.4539 184.938 71.7728 185.751C71.0781 186.569 70.3337 187.17 69.5396 187.551C68.7456 187.933 67.9158 188.119 67.0504 188.108C66.1751 188.093 65.2948 187.906 64.4094 187.545C63.406 187.137 62.598 186.626 61.9856 186.014C61.3731 185.401 60.9562 184.686 60.7347 183.869C60.5034 183.048 60.4589 182.132 60.6012 181.122C60.7336 180.107 61.0391 179.004 61.5178 177.811L62.1846 176.149L72.5436 180.365L71.5406 182.864L64.5756 180.03L64.4331 180.385C64.1716 181.094 64.0189 181.731 63.975 182.297C63.9272 182.872 64.0272 183.364 64.275 183.773C64.5092 184.188 64.9312 184.52 65.5411 184.768C65.9838 184.948 66.4096 185.028 66.8185 185.007C67.2274 184.986 67.6172 184.842 67.9878 184.574C68.3486 184.302 68.7096 183.887 69.0708 183.33C69.4282 182.781 69.7836 182.067 70.1369 181.186L70.7296 179.709C71.0373 178.942 71.2287 178.266 71.3037 177.68C71.3689 177.089 71.3272 176.566 71.1787 176.109C71.0264 175.661 70.7809 175.275 70.4421 174.95C70.0897 174.63 69.643 174.361 69.1019 174.14C68.3051 173.816 67.5644 173.68 66.8798 173.732C66.1816 173.789 65.5279 173.964 64.9187 174.255L64.2137 171.606C64.6472 171.353 65.1771 171.144 65.8036 170.981C66.4262 170.827 67.1274 170.776 67.9072 170.829C68.6772 170.878 69.5196 171.089 70.4345 171.461Z" fill="black"/>
<path d="M55.0539 167.148L44.0666 184.05L40.978 182.031L53.8608 162.213L56.6662 164.029L55.0539 167.148ZM60.4825 175.678L59.7696 176.775C59.0259 177.919 58.2769 178.839 57.5224 179.534C56.7623 180.239 55.9973 180.737 55.2274 181.031C54.4486 181.319 53.6809 181.405 52.9243 181.291C52.1677 181.176 51.4227 180.879 50.6892 180.4C49.9734 179.932 49.4582 179.368 49.1437 178.709C48.8236 178.059 48.6697 177.327 48.682 176.514C48.6943 175.701 48.8545 174.825 49.1624 173.887C49.4559 172.951 49.8816 171.967 50.4394 170.934L51.4291 169.412C52.1414 168.529 52.8608 167.761 53.5873 167.109C54.3082 166.465 55.0344 165.977 55.7657 165.646C56.4971 165.315 57.2313 165.164 57.9684 165.192C58.6911 165.223 59.406 165.47 60.1129 165.932C60.8464 166.411 61.4125 166.984 61.8113 167.649C62.2012 168.308 62.422 169.053 62.4739 169.883C62.517 170.708 62.3762 171.603 62.0515 172.567C61.7212 173.54 61.1982 174.577 60.4825 175.678ZM56.681 174.756L57.3939 173.659C57.858 172.945 58.2136 172.302 58.4607 171.728C58.7079 171.154 58.8432 170.636 58.8669 170.173C58.885 169.719 58.788 169.307 58.5761 168.935C58.3587 168.572 58.0246 168.244 57.5739 167.949C57.0083 167.58 56.4593 167.417 55.9269 167.461C55.3856 167.5 54.8668 167.688 54.3705 168.025C53.8597 168.365 53.3772 168.798 52.923 169.322L50.9688 172.328C50.7166 172.813 50.531 173.292 50.412 173.766C50.2873 174.248 50.236 174.705 50.258 175.136C50.2799 175.567 50.3925 175.965 50.5955 176.331C50.7842 176.699 51.0817 177.016 51.4882 177.282C51.9389 177.576 52.3793 177.742 52.8092 177.778C53.2336 177.822 53.6548 177.736 54.0729 177.519C54.4854 177.31 54.9108 176.976 55.3491 176.514C55.7729 176.056 56.2169 175.47 56.681 174.756Z" fill="black"/>
</g>
</svg>
