<svg width="20" height="20" viewBox="0 0 20 20" fill="none" xmlns="http://www.w3.org/2000/svg">
<path fill-rule="evenodd" clip-rule="evenodd" d="M8.3756 10.3203L0.812201 17.8837C0.363635 18.3323 0.363634 19.0595 0.8122 19.5081V19.5081C1.26077 19.9567 1.98804 19.9567 2.4366 19.5081L10 11.9447L17.5634 19.5081C18.012 19.9567 18.7392 19.9567 19.1878 19.5081V19.5081C19.6364 19.0595 19.6364 18.3323 19.1878 17.8837L11.6244 10.3203L19.1878 2.75692C19.6364 2.30835 19.6364 1.58108 19.1878 1.13251V1.13251C18.7392 0.683947 18.012 0.683947 17.5634 1.13251L10 8.69591L2.4366 1.13251C1.98804 0.683948 1.26077 0.683947 0.812201 1.13251V1.13251C0.363635 1.58108 0.363635 2.30835 0.812201 2.75692L8.3756 10.3203Z" fill="#AB2421"/>
</svg>
