<svg width="109" height="46" viewBox="0 0 109 46" fill="none" xmlns="http://www.w3.org/2000/svg">
<path d="M108.534 15.136L92.8626 6.2033C92.3819 5.93196 91.7832 6.10341 91.5137 6.58284C91.2426 7.06393 91.3757 7.67321 91.8563 7.94289L107.004 16.5892V24.2018L82.2228 9.81731V2.61758L89.2995 6.58284C89.7802 6.85418 90.4088 6.68273 90.6799 6.2033C90.951 5.72221 90.7914 5.11294 90.3107 4.84326L81.9716 0.138883C81.6639 -0.0342429 81.2914 -0.0525588 80.9854 0.123897L80.4315 0.425203H80.227V0.533411L54.1785 15.6087C53.8692 15.7868 53.6995 16.1181 53.7012 16.476L53.7295 25.8265C53.7295 26.1827 53.9257 26.5107 54.2334 26.6888C54.3881 26.7787 54.5627 26.8236 54.7357 26.8236C54.907 26.8236 55.0367 26.7804 55.1897 26.6921L59.6037 24.1435V45.3731H65.0922V21.0073L75.4815 14.9945C75.9605 14.7214 76.1467 14.1105 75.874 13.6311C75.6012 13.1517 75.0008 12.9852 74.5235 13.2599L55.7269 24.1069L55.6737 17.052L80.227 2.84232V10.0504L77.042 11.8965C76.563 12.1695 76.4183 12.7804 76.6911 13.2599C76.9638 13.7393 77.5842 13.9058 78.0632 13.6311L81.461 11.6668L97.5222 21.0106V45.3731H103.51V24.4848L107.541 26.8003C107.696 26.8902 107.89 26.9352 108.063 26.9352C108.236 26.9352 108.376 26.8902 108.531 26.802C108.84 26.6239 109 26.2943 109 25.9364V16.0066C109 15.6453 108.847 15.3124 108.534 15.136ZM63.0964 43.3755H61.5995V23.0049L63.0964 22.1492V43.3755ZM101.515 43.3755H99.5196V22.1675L101.515 23.3262V43.3755Z" fill="#1F1111"/>
<path d="M66.4609 35.4479H74.9684V26.9404H66.4609V35.4479ZM68.4242 28.9422H73.0051V33.4461H68.4242V28.9422Z" fill="#AB2421"/>
<path d="M66.4609 45.3727H74.9684V36.8652H66.4609V45.3727ZM68.4242 38.867H73.0051V43.3709H68.4242V38.867Z" fill="#AB2421"/>
<path d="M76.3867 35.4479H85.6031V26.9404H76.3867V35.4479ZM78.5136 28.9422H83.4763V33.4461H78.5136V28.9422Z" fill="#AB2421"/>
<path d="M86.3125 45.3727H95.5289V36.8652H86.3125V45.3727ZM88.4394 38.867H93.4021V43.3709H88.4394V38.867Z" fill="#AB2421"/>
<path d="M76.3867 45.3727H85.6031V36.8652H76.3867V45.3727ZM78.5136 38.867H83.4763V43.3709H78.5136V38.867Z" fill="#AB2421"/>
<path d="M54.8328 15.136L39.1614 6.2033C38.6807 5.93196 38.082 6.10341 37.8126 6.58284C37.5415 7.06393 37.6745 7.67321 38.1552 7.94289L53.3027 16.5892V24.2018L28.5216 9.81731V2.61758L35.5984 6.58284C36.079 6.85418 36.7077 6.68273 36.9788 6.2033C37.2499 5.72221 37.0902 5.11294 36.6096 4.84326L28.2704 0.138883C27.9628 -0.0342429 27.5902 -0.0525588 27.2842 0.123897L26.7304 0.425203H26.5258V0.533411L0.477339 15.6087C0.167991 15.7868 -0.00165105 16.1181 1.21141e-05 16.476L0.0282932 25.8265C0.0282932 26.1827 0.224531 26.5107 0.532216 26.6888C0.68689 26.7787 0.861526 26.8236 1.03449 26.8236C1.2058 26.8236 1.33552 26.7804 1.48853 26.6921L5.90258 24.1435V45.3731H11.391V21.0073L21.7803 14.9945C22.2593 14.7214 22.4456 14.1105 22.1728 13.6311C21.9001 13.1517 21.2997 12.9852 20.8223 13.2599L2.02573 24.1069L1.97252 17.052L26.5258 2.84232V10.0504L23.3408 11.8965C22.8618 12.1695 22.7171 12.7804 22.9899 13.2599C23.2627 13.7393 23.883 13.9058 24.362 13.6311L27.7599 11.6668L43.821 21.0106V45.3731H49.8084V24.4848L53.8399 26.8003C53.9946 26.8902 54.1892 26.9352 54.3621 26.9352C54.5351 26.9352 54.6748 26.8902 54.8295 26.802C55.1389 26.6239 55.2985 26.2943 55.2985 25.9364V16.0066C55.2985 15.6453 55.1455 15.3124 54.8328 15.136ZM9.39522 43.3755H7.89837V23.0049L9.39522 22.1492V43.3755ZM47.8143 43.3755H45.8185V22.1675L47.8143 23.3262V43.3755Z" fill="#1F1111"/>
<path d="M12.7617 35.4479H21.2692V26.9404H12.7617V35.4479ZM14.725 28.9422H19.3059V33.4461H14.725V28.9422Z" fill="#AB2421"/>
<path d="M12.7617 45.3727H21.2692V36.8652H12.7617V45.3727ZM14.725 38.867H19.3059V43.3709H14.725V38.867Z" fill="#AB2421"/>
<path d="M22.6875 35.4479H31.9039V26.9404H22.6875V35.4479ZM24.8144 28.9422H29.7771V33.4461H24.8144V28.9422Z" fill="#AB2421"/>
<path d="M32.6133 45.3727H41.8297V36.8652H32.6133V45.3727ZM34.7401 38.867H39.7028V43.3709H34.7401V38.867Z" fill="#AB2421"/>
<path d="M22.6875 45.3727H31.9039V36.8652H22.6875V45.3727ZM24.8144 38.867H29.7771V43.3709H24.8144V38.867Z" fill="#AB2421"/>
</svg>
