<svg width="97" height="79" viewBox="0 0 97 79" fill="none" xmlns="http://www.w3.org/2000/svg">
<path d="M75.8418 25.639L59.6158 16.4026C59.1181 16.122 58.4982 16.2993 58.2192 16.795C57.9385 17.2925 58.0763 17.9225 58.5739 18.2013L74.2576 27.1417V35.0131L48.5994 20.1395V12.6949L55.9266 16.795C56.4243 17.0756 57.0752 16.8983 57.3559 16.4026C57.6366 15.9051 57.4713 15.2751 56.9736 14.9963L48.3394 10.1319C48.0208 9.95287 47.6351 9.93393 47.3182 10.1164L46.7448 10.4279H46.533V10.5398L19.5626 26.1278C19.2423 26.312 19.0666 26.6546 19.0684 27.0246L19.0977 36.6931C19.0977 37.0615 19.3008 37.4006 19.6194 37.5848C19.7796 37.6777 19.9604 37.7242 20.1395 37.7242C20.3168 37.7242 20.4512 37.6794 20.6096 37.5882L25.1798 34.9529V56.9045H30.8625V31.71L41.6195 25.4927C42.1155 25.2104 42.3083 24.5787 42.0259 24.083C41.7435 23.5872 41.1219 23.4151 40.6276 23.6991L21.1658 34.915L21.1107 27.6202L46.533 12.9273V20.3805L43.2353 22.2894C42.7393 22.5717 42.5895 23.2034 42.8719 23.6991C43.1544 24.1948 43.7967 24.367 44.2926 24.083L47.8107 22.0518L64.4403 31.7134V56.9045H70.6396V35.3058L74.8138 37.7001C74.9739 37.793 75.1754 37.8395 75.3545 37.8395C75.5336 37.8395 75.6783 37.793 75.8384 37.7018C76.1587 37.5176 76.324 37.1768 76.324 36.8067V26.5392C76.324 26.1657 76.1656 25.8215 75.8418 25.639ZM28.7961 54.839H27.2463V33.7755L28.7961 32.8908V54.839ZM68.5749 54.839H66.5085V32.9097L68.5749 34.1077V54.839Z" fill="#1F1111"/>
<path d="M32.4121 46.5765H41.3666V37.7979H32.4121V46.5765ZM34.4785 39.8634H39.3002V44.5109H34.4785V39.8634Z" fill="#AB2421"/>
<path d="M32.4121 56.9046H41.3666V48.126H32.4121V56.9046ZM34.4785 50.1915H39.3002V54.839H34.4785V50.1915Z" fill="#AB2421"/>
<path d="M42.7422 46.5765H51.6967V37.7979H42.7422V46.5765ZM44.8086 39.8634H49.6303V44.5109H44.8086V39.8634Z" fill="#AB2421"/>
<path d="M53.0762 56.9046H62.0307V48.126H53.0762V56.9046ZM55.1426 50.1915H59.9643V54.839H55.1426V50.1915Z" fill="#AB2421"/>
<path d="M42.7422 56.9046H51.6967V48.126H42.7422V56.9046ZM44.8086 50.1915H49.6303V54.839H44.8086V50.1915Z" fill="#AB2421"/>
<rect x="1" y="1" width="94.2529" height="65.1954" rx="1" stroke="#1F1111" stroke-width="2"/>
<rect x="44.5859" y="66.3789" width="7.98851" height="8.89655" rx="1" stroke="#1F1111" stroke-width="2"/>
<rect x="30.0586" y="75.46" width="36.1379" height="2.54023" rx="1" stroke="#1F1111" stroke-width="2"/>
</svg>
