<svg width="129" height="67" viewBox="0 0 129 67" fill="none" xmlns="http://www.w3.org/2000/svg">
<path d="M127.999 39.2726H124.721C123.689 39.2764 122.852 39.1112 122.206 38.7846C121.56 38.4542 121.087 37.9437 120.791 37.2492C120.49 36.5584 120.344 35.6687 120.348 34.5837C120.348 33.8141 120.434 33.1384 120.603 32.5527C120.772 31.9708 121.031 31.4828 121.376 31.0961C121.744 30.6794 122.214 30.3678 122.788 30.1614C123.359 29.9586 124.034 29.8535 124.811 29.8535H128.002V31.5354H125.052C124.62 31.5354 124.252 31.5842 123.948 31.6818C123.64 31.7794 123.392 31.9258 123.201 32.1135C122.777 32.5527 122.566 33.3148 122.566 34.3998C122.566 34.9854 122.615 35.4847 122.705 35.8939C122.799 36.3069 122.942 36.6297 123.13 36.87C123.512 37.3505 124.173 37.5908 125.119 37.5908H127.999V39.2726Z" fill="#AB2421"/>
<path d="M118.913 39.2726H117.006V32.3688L113.154 39.2726H110.695V29.8535H112.602V36.8737L116.357 29.8535H118.913V39.2726Z" fill="#AB2421"/>
<path d="M109.23 36.7724C109.23 37.1891 109.174 37.5495 109.058 37.8536C108.945 38.1577 108.772 38.4092 108.536 38.6082C108.281 38.8259 107.946 38.9911 107.53 39.1037C107.117 39.2126 106.621 39.2726 106.051 39.2726H100.84V29.8535H106.163C106.7 29.8535 107.166 29.9098 107.56 30.0262C107.954 30.1388 108.281 30.3153 108.536 30.548C108.769 30.7545 108.941 31.0023 109.058 31.2989C109.174 31.5954 109.23 31.9371 109.23 32.3275C109.227 32.6541 109.17 32.9694 109.054 33.266C108.938 33.5664 108.78 33.8291 108.573 34.0581C108.367 34.2834 108.13 34.4598 107.86 34.5725C108.318 34.7752 108.663 35.0605 108.889 35.4284C109.118 35.7963 109.23 36.2431 109.23 36.7724ZM107.012 32.564C107.012 32.3725 106.989 32.2149 106.944 32.0872C106.903 31.9558 106.835 31.8582 106.741 31.7869C106.636 31.7006 106.49 31.6367 106.302 31.5954C106.114 31.5541 105.885 31.5316 105.611 31.5316H102.845V33.7203H105.57C105.852 33.7203 106.092 33.694 106.287 33.6452C106.486 33.5926 106.636 33.5138 106.741 33.4087C106.831 33.3223 106.903 33.2097 106.944 33.0708C106.989 32.9319 107.012 32.763 107.012 32.564ZM107.027 36.4345C107.023 36.0891 106.903 35.8301 106.659 35.6612C106.415 35.4885 106.069 35.4059 105.615 35.4059H102.848V37.5945H105.574C106.084 37.5908 106.456 37.4932 106.689 37.2942C106.918 37.0952 107.03 36.8099 107.027 36.4345Z" fill="#AB2421"/>
<path d="M99.5561 32.9206C99.5561 33.3636 99.496 33.7653 99.3759 34.1182C99.2595 34.4749 99.083 34.7827 98.8503 35.053C98.5762 35.3646 98.2308 35.5973 97.8216 35.7513C97.4087 35.9089 96.9282 35.984 96.3801 35.984H93.159V39.2764H91.1543V29.8535H95.8582C96.5565 29.8535 97.1572 29.9324 97.6602 30.0975C98.1633 30.259 98.565 30.4992 98.869 30.8146C99.1018 31.0623 99.2745 31.3589 99.3909 31.7081C99.4997 32.0572 99.5561 32.4589 99.5561 32.9206ZM97.3524 32.8493C97.3524 32.6166 97.3299 32.4176 97.2848 32.2562C97.2435 32.0947 97.1759 31.9671 97.0821 31.8732C96.977 31.7606 96.8268 31.6743 96.6316 31.618C96.4364 31.5616 96.1999 31.5316 95.9258 31.5316H93.159V34.2984H95.8845C96.2524 34.2984 96.5452 34.2496 96.7592 34.1482C96.977 34.0469 97.1271 33.8855 97.221 33.6715C97.3111 33.4612 97.3561 33.1872 97.3524 32.8493Z" fill="#AB2421"/>
<path d="M89.5724 39.2726H86.9595C86.1599 39.2726 85.4654 39.1938 84.876 39.0436C84.2828 38.886 83.791 38.6607 83.4044 38.3566C82.9388 37.9812 82.5897 37.4744 82.357 36.84C82.1242 36.2018 82.0078 35.4284 82.0078 34.5162C82.0078 33.724 82.1092 33.0333 82.3157 32.4364C82.5184 31.8432 82.8225 31.3439 83.2242 30.9422C83.5846 30.5818 84.0125 30.3115 84.5081 30.1276C85.0036 29.9474 85.563 29.8535 86.1899 29.8535H89.5799V31.5354H86.967C86.4227 31.5354 85.9722 31.5767 85.6193 31.6593C85.2627 31.7418 85.0036 31.8657 84.8347 32.0272C84.6995 32.1623 84.5869 32.3688 84.4968 32.6541C84.403 32.9394 84.3354 33.3036 84.2866 33.7503H89.5837V35.4322H84.2866C84.3204 35.8339 84.3992 36.1755 84.5156 36.457C84.6357 36.7386 84.7934 36.9638 84.9923 37.1253C85.1988 37.2792 85.4691 37.3956 85.8108 37.4744C86.1524 37.5532 86.5653 37.5908 87.0534 37.5908H89.5799V39.2726H89.5724Z" fill="#AB2421"/>
<path d="M81.0844 39.2726H77.807C76.7746 39.2764 75.9374 39.1112 75.2917 38.7846C74.646 38.4542 74.173 37.9437 73.8764 37.2492C73.5761 36.5584 73.4297 35.6687 73.4297 34.5837C73.4297 33.8141 73.516 33.1384 73.685 32.5527C73.8539 31.9708 74.1129 31.4828 74.4583 31.0961C74.8262 30.6794 75.2955 30.3678 75.8661 30.1614C76.4367 29.9586 77.1125 29.8535 77.8896 29.8535H81.0806V31.5354H78.1299C77.6981 31.5354 77.3302 31.5842 77.0261 31.6818C76.7183 31.7794 76.4705 31.9258 76.2791 32.1135C75.8549 32.5527 75.6446 33.3148 75.6446 34.3998C75.6446 34.9854 75.6934 35.4847 75.7835 35.8939C75.8774 36.3069 76.02 36.6297 76.2115 36.87C76.5944 37.3505 77.2551 37.5908 78.2012 37.5908H81.0806V39.2726H81.0844Z" fill="#AB2421"/>
<path d="M73.5613 31.5354H70.5955V39.2726H68.5908V31.5354H65.7227V29.8535H73.5613V31.5354Z" fill="#AB2421"/>
<path d="M65.183 32.9206C65.183 33.3636 65.1229 33.7653 65.0028 34.1182C64.8864 34.4749 64.71 34.7827 64.4772 35.053C64.2032 35.3646 63.8578 35.5973 63.4486 35.7513C63.0356 35.9089 62.5551 35.984 62.007 35.984H58.786V39.2764H56.7812V29.8535H61.4852C62.1834 29.8535 62.7841 29.9324 63.2872 30.0975C63.7902 30.259 64.1919 30.4992 64.496 30.8146C64.7288 31.0623 64.9014 31.3589 65.0141 31.7081C65.1267 32.0572 65.183 32.4589 65.183 32.9206ZM62.9831 32.8493C62.9831 32.6166 62.9606 32.4176 62.9155 32.2562C62.8742 32.0947 62.8066 31.9671 62.7128 31.8732C62.6077 31.7606 62.4575 31.6743 62.2623 31.618C62.0671 31.5616 61.8306 31.5316 61.5565 31.5316H58.7897V34.2984H61.5152C61.8831 34.2984 62.1759 34.2496 62.3899 34.1482C62.6077 34.0469 62.7616 33.8855 62.8517 33.6715C62.938 33.4612 62.9831 33.1872 62.9831 32.8493Z" fill="#AB2421"/>
<path d="M55.3542 34.6954C55.3542 35.4387 55.2641 36.092 55.0801 36.6626C54.8962 37.2332 54.6221 37.7137 54.2542 38.1004C53.8676 38.5096 53.387 38.8137 52.8239 39.0202C52.257 39.2229 51.6001 39.328 50.853 39.328C49.7831 39.3243 48.8971 39.1441 48.1876 38.7799C47.478 38.4195 46.9487 37.8864 46.5958 37.1844C46.2429 36.4824 46.0665 35.6264 46.0665 34.6128C46.0627 33.5204 46.2279 32.6194 46.5545 31.9023C46.8811 31.1891 47.3917 30.656 48.0749 30.3068C48.7619 29.9577 49.6404 29.7812 50.7103 29.7812C51.7803 29.7812 52.6587 29.9614 53.3457 30.3181C54.029 30.6747 54.5395 31.2191 54.8662 31.9474C55.1965 32.6757 55.358 33.5917 55.3542 34.6954ZM53.1543 34.5715C53.1543 33.8395 53.0679 33.2351 52.899 32.762C52.7263 32.2928 52.4598 31.9436 52.1031 31.7184C51.7427 31.4894 51.2847 31.3768 50.7253 31.3805C50.3086 31.3805 49.9482 31.4406 49.6367 31.5607C49.3288 31.6771 49.0773 31.8535 48.8896 32.0863C48.6831 32.3416 48.5292 32.6719 48.4241 33.0811C48.319 33.4903 48.2664 33.9784 48.2664 34.5415C48.2664 35.2735 48.349 35.878 48.5292 36.351C48.7019 36.824 48.9722 37.1769 49.3326 37.4059C49.6967 37.6349 50.1585 37.7513 50.7253 37.7475C51.2847 37.7513 51.7427 37.6387 52.1031 37.4097C52.4598 37.1844 52.7263 36.8353 52.899 36.366C53.0679 35.8967 53.1543 35.2961 53.1543 34.5715Z" fill="#AB2421"/>
<path d="M44.6514 39.2726H42.6467V31.5354H39.0164V39.2726H37.0117V29.8535H44.6514V39.2726Z" fill="#AB2421"/>
<path d="M35.0947 39.2726H33.1876V32.1998L30.7174 39.2726H28.6526L26.3251 32.1998V39.2726H24.418V29.8535H27.3537L29.7 37.2116L32.1703 29.8535H35.0947V39.2726Z" fill="#AB2421"/>
<path d="M22.5108 39.2726H20.6037V32.3688L16.7482 39.2726H14.293V29.8535H16.2001V36.8737L19.9542 29.8535H22.5108V39.2726Z" fill="#AB2421"/>
<path fill-rule="evenodd" clip-rule="evenodd" d="M6.55097 29.0382C6.81751 27.3339 7.24173 25.682 7.81236 24.0978C8.09016 24.1541 8.37923 24.1804 8.67205 24.1804C11.1197 24.1804 13.1057 22.1944 13.1057 19.7467C13.1057 18.5604 12.6402 17.4868 11.8856 16.6909C12.9368 15.3394 14.1118 14.0893 15.3957 12.9593C16.1728 13.6313 17.1864 14.0405 18.2977 14.0405C20.7454 14.0405 22.7313 12.0545 22.7313 9.60683C22.7313 9.19388 22.675 8.79594 22.5699 8.41677C24.1504 7.73727 25.8134 7.20419 27.5328 6.83253C28.141 8.55943 29.7853 9.79454 31.7187 9.79454C33.821 9.79454 35.5817 8.33418 36.0359 6.37077C46.8704 7.48574 55.8052 15.0053 58.9925 25.0814H54.2285C50.9624 16.6796 42.7971 10.7218 33.2391 10.7218C20.8054 10.7218 10.7256 20.8017 10.7256 33.2354C10.7256 45.6691 22.6975 55.7489 33.2391 55.7489C43.7807 55.7489 50.0764 50.8685 53.8493 43.7132H58.8198C55.1182 52.4978 46.2284 58.9136 36.4076 60.0587C35.9308 58.1215 34.1852 56.6837 32.1016 56.6837C30.1457 56.6837 28.4826 57.9526 27.8932 59.7133C26.14 59.3604 24.4469 58.8386 22.8327 58.1628C22.9228 57.8099 22.9716 57.442 22.9716 57.0591C22.9716 54.6114 20.9856 52.6255 18.5379 52.6255C17.4267 52.6255 16.4093 53.0347 15.6322 53.7104C14.322 52.5804 13.1207 51.3303 12.0433 49.9713C12.8091 49.1754 13.2821 48.0905 13.2821 46.8967C13.2821 44.449 11.2962 42.463 8.8485 42.463C8.51813 42.463 8.19903 42.5006 7.88744 42.5681C7.28678 40.9426 6.84379 39.2457 6.56598 37.4888C8.35671 36.9182 9.65188 35.2438 9.65188 33.2654C9.64813 31.287 8.34544 29.6089 6.55097 29.0382ZM0 33.2354C0 14.8814 14.8814 0 33.2354 0C48.7775 0 61.8269 10.6693 65.4609 25.0814H61.061C57.7912 13.9053 47.9741 5.52984 36.0397 4.38108C35.593 2.40265 33.8248 0.927271 31.7149 0.927271C29.4362 0.927271 27.5629 2.64291 27.3113 4.8541C25.3329 5.26705 23.4258 5.87898 21.6163 6.6711C20.8054 5.75134 19.6154 5.1732 18.2939 5.1732C15.8462 5.1732 13.8603 7.15914 13.8603 9.60683C13.8603 10.2263 13.9879 10.8194 14.2169 11.3525C12.749 12.6289 11.4126 14.0517 10.2263 15.5947C9.74198 15.4145 9.2164 15.3131 8.6683 15.3131C6.2206 15.3131 4.23466 17.2991 4.23466 19.7467C4.23466 21.1921 4.92543 22.4723 5.99535 23.2831C5.34213 25.0701 4.85785 26.9434 4.56878 28.8768C2.42517 29.1922 0.777106 31.0354 0.777106 33.2691C0.777106 35.5029 2.42893 37.3536 4.58005 37.6577C4.88413 39.6549 5.39845 41.5846 6.08921 43.4278C5.06808 44.2387 4.41111 45.4926 4.41111 46.9004C4.41111 49.3481 6.39705 51.334 8.84474 51.334C9.38158 51.334 9.89965 51.2364 10.3764 51.0637C11.589 52.618 12.9593 54.0408 14.4572 55.3209C14.2282 55.8578 14.1005 56.4472 14.1005 57.0666C14.1005 59.5143 16.0865 61.5002 18.5342 61.5002C19.8894 61.5002 21.102 60.8921 21.9166 59.9348C23.7562 60.7156 25.6895 61.3088 27.7018 61.6992C27.9833 63.8766 29.8454 65.5585 32.0979 65.5585C34.2265 65.5585 36.0059 64.0568 36.4339 62.0521C47.3509 60.8545 57.1229 53.5978 60.9521 43.7169H65.4646C61.076 56.939 49.7611 66.4745 33.2391 66.4745C16.7172 66.4745 0 51.5931 0 33.2354Z" fill="url(#paint0_radial_225_9793)"/>
<mask id="mask0_225_9793" style="mask-type:alpha" maskUnits="userSpaceOnUse" x="28" y="1" width="8" height="9">
<path fill-rule="evenodd" clip-rule="evenodd" d="M33.6563 8.44286C32.063 9.46717 29.9629 9.06699 28.8542 7.56173C28.8101 7.50299 28.7661 7.44058 28.7257 7.3745C28.3916 6.85683 28.208 6.2841 28.1676 5.7077C28.0759 4.44842 28.6559 3.17813 29.7904 2.44753C29.8344 2.42183 29.8748 2.39613 29.9189 2.37043C31.035 1.71326 32.375 1.73162 33.4434 2.31903C33.9464 2.59439 34.3869 2.99456 34.721 3.51223C35.7894 5.16801 35.3121 7.3745 33.6563 8.44286Z" fill="#C4C4C4"/>
</mask>
<g mask="url(#mask0_225_9793)">
<path d="M35.6514 1.87793H28.1582V9.37117H35.6514V1.87793Z" fill="url(#paint1_radial_225_9793)"/>
</g>
<mask id="mask1_225_9793" style="mask-type:alpha" maskUnits="userSpaceOnUse" x="14" y="6" width="8" height="8">
<path fill-rule="evenodd" clip-rule="evenodd" d="M20.1388 12.5728C18.5454 13.5971 16.4454 13.1969 15.3366 11.6916C15.2926 11.6329 15.2485 11.5705 15.2081 11.5044C14.874 10.9867 14.6905 10.414 14.6501 9.83759C14.5583 8.57831 15.1384 7.30802 16.2728 6.57742C16.3169 6.55172 16.3573 6.52602 16.4013 6.50032C17.5174 5.84314 18.8575 5.8615 19.9258 6.44892C20.4288 6.72427 20.8694 7.12445 21.2035 7.64211C22.2718 9.2979 21.7945 11.5044 20.1388 12.5728Z" fill="#C4C4C4"/>
</mask>
<g mask="url(#mask1_225_9793)">
<path d="M22.1339 6.00781H14.6406V13.5011H22.1339V6.00781Z" fill="url(#paint2_radial_225_9793)"/>
</g>
<mask id="mask2_225_9793" style="mask-type:alpha" maskUnits="userSpaceOnUse" x="4" y="16" width="9" height="8">
<path fill-rule="evenodd" clip-rule="evenodd" d="M10.6684 23.053C8.99114 24.1313 6.78059 23.71 5.61348 22.1255C5.5671 22.0637 5.52073 21.998 5.47822 21.9285C5.12654 21.3835 4.93331 20.7807 4.8908 20.1739C4.79418 18.8484 5.40479 17.5112 6.59895 16.7422C6.64533 16.7151 6.68784 16.6881 6.73421 16.661C7.90905 15.9692 9.31963 15.9886 10.4442 16.6069C10.9737 16.8967 11.4374 17.318 11.7891 17.8629C12.9137 19.6058 12.4113 21.9284 10.6684 23.053Z" fill="#C4C4C4"/>
</mask>
<g mask="url(#mask2_225_9793)">
<path d="M12.7685 16.1426H4.88086V24.0302H12.7685V16.1426Z" fill="url(#paint3_radial_225_9793)"/>
</g>
<mask id="mask3_225_9793" style="mask-type:alpha" maskUnits="userSpaceOnUse" x="1" y="29" width="9" height="9">
<path fill-rule="evenodd" clip-rule="evenodd" d="M7.28725 36.5684C5.61009 37.6465 3.39964 37.2253 2.23259 35.6409C2.18621 35.5791 2.13984 35.5134 2.09733 35.4438C1.74567 34.8989 1.55245 34.2961 1.50994 33.6894C1.41333 32.3639 2.02391 31.0268 3.21801 30.2578C3.26439 30.2307 3.30689 30.2037 3.35327 30.1766C4.52805 29.4849 5.93856 29.5042 7.06311 30.1225C7.59254 30.4123 8.05627 30.8336 8.40793 31.3784C9.53248 33.1213 9.0301 35.4438 7.28725 36.5684Z" fill="#C4C4C4"/>
</mask>
<g mask="url(#mask3_225_9793)">
<path d="M9.38728 29.6582H1.5V37.5455H9.38728V29.6582Z" fill="url(#paint4_radial_225_9793)"/>
</g>
<mask id="mask4_225_9793" style="mask-type:alpha" maskUnits="userSpaceOnUse" x="5" y="43" width="8" height="8">
<path fill-rule="evenodd" clip-rule="evenodd" d="M10.7559 49.7388C9.16257 50.7631 7.06255 50.3629 5.9538 48.8576C5.90974 48.7989 5.86569 48.7365 5.8253 48.6704C5.49121 48.1527 5.30764 47.58 5.26725 47.0036C5.17547 45.7443 5.75555 44.474 6.89 43.7434C6.93405 43.7177 6.97444 43.692 7.0185 43.6663C8.13459 43.0092 9.47464 43.0275 10.543 43.6149C11.046 43.8903 11.4866 44.2905 11.8206 44.8081C12.889 46.4639 12.4117 48.6704 10.7559 49.7388Z" fill="#C4C4C4"/>
</mask>
<g mask="url(#mask4_225_9793)">
<path d="M12.7511 43.1738H5.25781V50.6671H12.7511V43.1738Z" fill="url(#paint5_radial_225_9793)"/>
</g>
<mask id="mask5_225_9793" style="mask-type:alpha" maskUnits="userSpaceOnUse" x="28" y="57" width="8" height="8">
<path fill-rule="evenodd" clip-rule="evenodd" d="M34.0274 64.0034C32.4341 65.0277 30.334 64.6276 29.2253 63.1223C29.1812 63.0636 29.1372 63.0011 29.0968 62.9351C28.7627 62.4174 28.5791 61.8447 28.5387 61.2683C28.447 60.009 29.027 58.7387 30.1615 58.0081C30.2055 57.9824 30.2459 57.9567 30.29 57.931C31.4061 57.2738 32.7461 57.2922 33.8145 57.8796C34.3175 58.1549 34.758 58.5551 35.0921 59.0728C36.1605 60.7286 35.6832 62.9351 34.0274 64.0034Z" fill="#C4C4C4"/>
</mask>
<g mask="url(#mask5_225_9793)">
<path d="M36.0226 57.4385H28.5293V64.9317H36.0226V57.4385Z" fill="url(#paint6_radial_225_9793)"/>
</g>
<mask id="mask6_225_9793" style="mask-type:alpha" maskUnits="userSpaceOnUse" x="15" y="53" width="8" height="8">
<path fill-rule="evenodd" clip-rule="evenodd" d="M20.5138 60.2495C18.9204 61.2738 16.8204 60.8736 15.7116 59.3684C15.6676 59.3096 15.6235 59.2472 15.5831 59.1811C15.249 58.6635 15.0655 58.0908 15.0251 57.5143C14.9333 56.2551 15.5134 54.9848 16.6478 54.2542C16.6919 54.2285 16.7323 54.2028 16.7763 54.1771C17.8924 53.5199 19.2325 53.5383 20.3008 54.1257C20.8038 54.401 21.2444 54.8012 21.5785 55.3189C22.6468 56.9747 22.1695 59.1811 20.5138 60.2495Z" fill="#C4C4C4"/>
</mask>
<g mask="url(#mask6_225_9793)">
<path d="M22.5089 53.6846H15.0156V61.1778H22.5089V53.6846Z" fill="url(#paint7_radial_225_9793)"/>
</g>
<defs>
<radialGradient id="paint0_radial_225_9793" cx="0" cy="0" r="1" gradientUnits="userSpaceOnUse" gradientTransform="translate(50.2216 1.91855) scale(68.087 68.087)">
<stop offset="0.09" stop-color="#E8E4E6"/>
<stop offset="1" stop-color="#050607"/>
</radialGradient>
<radialGradient id="paint1_radial_225_9793" cx="0" cy="0" r="1" gradientUnits="userSpaceOnUse" gradientTransform="translate(30.7012 4.55237) scale(5.55007 5.55007)">
<stop stop-color="white"/>
<stop offset="0.2081" stop-color="white"/>
<stop offset="0.243" stop-color="white"/>
<stop offset="0.3519" stop-color="#C3C1C2"/>
<stop offset="0.5116" stop-color="#717172"/>
<stop offset="0.5687" stop-color="#737374"/>
<stop offset="0.6204" stop-color="#7B7B7C"/>
<stop offset="0.67" stop-color="#888888"/>
<stop offset="0.7181" stop-color="#9A9A99"/>
<stop offset="0.7406" stop-color="#A5A5A4"/>
<stop offset="0.7655" stop-color="#929292"/>
<stop offset="0.8178" stop-color="#717272"/>
<stop offset="0.8687" stop-color="#5A5A5C"/>
<stop offset="0.9171" stop-color="#4A4B4D"/>
<stop offset="0.962" stop-color="#414244"/>
<stop offset="1" stop-color="#3E3F41"/>
</radialGradient>
<radialGradient id="paint2_radial_225_9793" cx="0" cy="0" r="1" gradientUnits="userSpaceOnUse" gradientTransform="translate(17.1836 8.68226) scale(5.55008 5.55008)">
<stop stop-color="white"/>
<stop offset="0.2081" stop-color="white"/>
<stop offset="0.243" stop-color="white"/>
<stop offset="0.3519" stop-color="#C3C1C2"/>
<stop offset="0.5116" stop-color="#717172"/>
<stop offset="0.5687" stop-color="#737374"/>
<stop offset="0.6204" stop-color="#7B7B7C"/>
<stop offset="0.67" stop-color="#888888"/>
<stop offset="0.7181" stop-color="#9A9A99"/>
<stop offset="0.7406" stop-color="#A5A5A4"/>
<stop offset="0.7655" stop-color="#929292"/>
<stop offset="0.8178" stop-color="#717272"/>
<stop offset="0.8687" stop-color="#5A5A5C"/>
<stop offset="0.9171" stop-color="#4A4B4D"/>
<stop offset="0.962" stop-color="#414244"/>
<stop offset="1" stop-color="#3E3F41"/>
</radialGradient>
<radialGradient id="paint3_radial_225_9793" cx="0" cy="0" r="1" gradientUnits="userSpaceOnUse" gradientTransform="translate(7.55771 18.9578) scale(5.84219 5.84219)">
<stop stop-color="white"/>
<stop offset="0.2081" stop-color="white"/>
<stop offset="0.243" stop-color="white"/>
<stop offset="0.3519" stop-color="#C3C1C2"/>
<stop offset="0.5116" stop-color="#717172"/>
<stop offset="0.5687" stop-color="#737374"/>
<stop offset="0.6204" stop-color="#7B7B7C"/>
<stop offset="0.67" stop-color="#888888"/>
<stop offset="0.7181" stop-color="#9A9A99"/>
<stop offset="0.7406" stop-color="#A5A5A4"/>
<stop offset="0.7655" stop-color="#929292"/>
<stop offset="0.8178" stop-color="#717272"/>
<stop offset="0.8687" stop-color="#5A5A5C"/>
<stop offset="0.9171" stop-color="#4A4B4D"/>
<stop offset="0.962" stop-color="#414244"/>
<stop offset="1" stop-color="#3E3F41"/>
</radialGradient>
<radialGradient id="paint4_radial_225_9793" cx="0" cy="0" r="1" gradientUnits="userSpaceOnUse" gradientTransform="translate(4.17673 32.4733) scale(5.84192)">
<stop stop-color="white"/>
<stop offset="0.2081" stop-color="white"/>
<stop offset="0.243" stop-color="white"/>
<stop offset="0.3519" stop-color="#C3C1C2"/>
<stop offset="0.5116" stop-color="#717172"/>
<stop offset="0.5687" stop-color="#737374"/>
<stop offset="0.6204" stop-color="#7B7B7C"/>
<stop offset="0.67" stop-color="#888888"/>
<stop offset="0.7181" stop-color="#9A9A99"/>
<stop offset="0.7406" stop-color="#A5A5A4"/>
<stop offset="0.7655" stop-color="#929292"/>
<stop offset="0.8178" stop-color="#717272"/>
<stop offset="0.8687" stop-color="#5A5A5C"/>
<stop offset="0.9171" stop-color="#4A4B4D"/>
<stop offset="0.962" stop-color="#414244"/>
<stop offset="1" stop-color="#3E3F41"/>
</radialGradient>
<radialGradient id="paint5_radial_225_9793" cx="0" cy="0" r="1" gradientUnits="userSpaceOnUse" gradientTransform="translate(7.80082 45.8483) scale(5.55008 5.55008)">
<stop stop-color="white"/>
<stop offset="0.2081" stop-color="white"/>
<stop offset="0.243" stop-color="white"/>
<stop offset="0.3519" stop-color="#C3C1C2"/>
<stop offset="0.5116" stop-color="#717172"/>
<stop offset="0.5687" stop-color="#737374"/>
<stop offset="0.6204" stop-color="#7B7B7C"/>
<stop offset="0.67" stop-color="#888888"/>
<stop offset="0.7181" stop-color="#9A9A99"/>
<stop offset="0.7406" stop-color="#A5A5A4"/>
<stop offset="0.7655" stop-color="#929292"/>
<stop offset="0.8178" stop-color="#717272"/>
<stop offset="0.8687" stop-color="#5A5A5C"/>
<stop offset="0.9171" stop-color="#4A4B4D"/>
<stop offset="0.962" stop-color="#414244"/>
<stop offset="1" stop-color="#3E3F41"/>
</radialGradient>
<radialGradient id="paint6_radial_225_9793" cx="0" cy="0" r="1" gradientUnits="userSpaceOnUse" gradientTransform="translate(31.0723 60.1129) scale(5.55008 5.55008)">
<stop stop-color="white"/>
<stop offset="0.2081" stop-color="white"/>
<stop offset="0.243" stop-color="white"/>
<stop offset="0.3519" stop-color="#C3C1C2"/>
<stop offset="0.5116" stop-color="#717172"/>
<stop offset="0.5687" stop-color="#737374"/>
<stop offset="0.6204" stop-color="#7B7B7C"/>
<stop offset="0.67" stop-color="#888888"/>
<stop offset="0.7181" stop-color="#9A9A99"/>
<stop offset="0.7406" stop-color="#A5A5A4"/>
<stop offset="0.7655" stop-color="#929292"/>
<stop offset="0.8178" stop-color="#717272"/>
<stop offset="0.8687" stop-color="#5A5A5C"/>
<stop offset="0.9171" stop-color="#4A4B4D"/>
<stop offset="0.962" stop-color="#414244"/>
<stop offset="1" stop-color="#3E3F41"/>
</radialGradient>
<radialGradient id="paint7_radial_225_9793" cx="0" cy="0" r="1" gradientUnits="userSpaceOnUse" gradientTransform="translate(17.5586 56.359) scale(5.55008 5.55008)">
<stop stop-color="white"/>
<stop offset="0.2081" stop-color="white"/>
<stop offset="0.243" stop-color="white"/>
<stop offset="0.3519" stop-color="#C3C1C2"/>
<stop offset="0.5116" stop-color="#717172"/>
<stop offset="0.5687" stop-color="#737374"/>
<stop offset="0.6204" stop-color="#7B7B7C"/>
<stop offset="0.67" stop-color="#888888"/>
<stop offset="0.7181" stop-color="#9A9A99"/>
<stop offset="0.7406" stop-color="#A5A5A4"/>
<stop offset="0.7655" stop-color="#929292"/>
<stop offset="0.8178" stop-color="#717272"/>
<stop offset="0.8687" stop-color="#5A5A5C"/>
<stop offset="0.9171" stop-color="#4A4B4D"/>
<stop offset="0.962" stop-color="#414244"/>
<stop offset="1" stop-color="#3E3F41"/>
</radialGradient>
</defs>
</svg>
