<svg width="78" height="64" viewBox="0 0 78 64" fill="none" xmlns="http://www.w3.org/2000/svg">
<path d="M77.3431 21.3497L55.2382 8.74992C54.5602 8.36718 53.7157 8.60902 53.3356 9.28527C52.9532 9.96386 53.1409 10.8233 53.8189 11.2037L75.1849 23.3995V34.1372L40.2305 13.8476V3.69216L50.2124 9.28527C50.8904 9.668 51.7771 9.42616 52.1595 8.74992C52.5419 8.07132 52.3167 7.21193 51.6387 6.83155L39.8762 0.195899C39.4422 -0.0483005 38.9167 -0.0741356 38.4851 0.17476L37.7039 0.59976H37.4153V0.75239L0.673299 22.0165C0.236955 22.2678 -0.00232885 22.735 1.70872e-05 23.2398L0.0399083 36.429C0.0399083 36.9315 0.316707 37.394 0.750705 37.6453C0.968877 37.7721 1.2152 37.8355 1.45918 37.8355C1.70081 37.8355 1.88379 37.7744 2.09962 37.65L8.32574 34.0551V64H16.0673V29.6313L30.7217 21.1501C31.3973 20.765 31.6601 19.9032 31.2753 19.227C30.8906 18.5508 30.0437 18.316 29.3704 18.7034L2.85735 34.0034L2.78229 24.0523L37.4153 4.00916V14.1763L32.9229 16.7803C32.2472 17.1654 32.0431 18.0271 32.4279 18.7034C32.8126 19.3796 33.6876 19.6144 34.3633 19.227L39.156 16.4563L61.8107 29.636V64H70.2561V34.5364L75.9426 37.8026C76.1608 37.9294 76.4353 37.9928 76.6792 37.9928C76.9232 37.9928 77.1203 37.9294 77.3385 37.8049C77.7748 37.5537 78 37.0888 78 36.5839V22.5777C78 22.0682 77.7842 21.5986 77.3431 21.3497ZM13.2522 61.1823H11.1409V32.449L13.2522 31.2421V61.1823ZM67.4433 61.1823H64.6282V31.2679L67.4433 32.9022V61.1823Z" fill="#1F1111"/>
<path d="M18 50H30V38H18V50ZM20.7692 40.8235H27.2308V47.1765H20.7692V40.8235Z" fill="#AB2421"/>
<path d="M18 64H30V52H18V64ZM20.7692 54.8235H27.2308V61.1765H20.7692V54.8235Z" fill="#AB2421"/>
<path d="M32 50H45V38H32V50ZM35 40.8235H42V47.1765H35V40.8235Z" fill="#AB2421"/>
<path d="M46 64H59V52H46V64ZM49 54.8235H56V61.1765H49V54.8235Z" fill="#AB2421"/>
<path d="M32 64H45V52H32V64ZM35 54.8235H42V61.1765H35V54.8235Z" fill="#AB2421"/>
</svg>
