<svg width="17" height="22" viewBox="0 0 17 22" fill="none" xmlns="http://www.w3.org/2000/svg">
<rect x="0.5" y="4" width="16" height="4" rx="2" stroke="#999999"/>
<path d="M2.5 8H14.5V19.5C14.5 20.3284 13.8284 21 13 21H4C3.17157 21 2.5 20.3284 2.5 19.5V8Z" stroke="#999999"/>
<path d="M5.5 18.243C5.77619 18.243 6 18.0297 6 17.7666V12.4266C6 12.1634 5.77619 11.9502 5.5 11.9502C5.22381 11.9502 5 12.1634 5 12.4266V17.7666C5 18.0297 5.22381 18.243 5.5 18.243Z" fill="#999999"/>
<path d="M8.5 18.243C8.77619 18.243 9 18.0297 9 17.7666V12.4266C9 12.1634 8.77619 11.9502 8.5 11.9502C8.22381 11.9502 8 12.1634 8 12.4266V17.7666C8.00476 18.0297 8.22857 18.243 8.5 18.243Z" fill="#999999"/>
<path d="M11.5 18.243C11.7762 18.243 12 18.0297 12 17.7666V12.4266C12 12.1634 11.7762 11.9502 11.5 11.9502C11.2238 11.9502 11 12.1634 11 12.4266V17.7666C11 18.0297 11.2238 18.243 11.5 18.243Z" fill="#999999"/>
<path d="M11.2716 2.35195C11.3581 2.56077 11.4205 2.77819 11.458 3H8.5L5.54196 3C5.57945 2.77819 5.64187 2.56077 5.72836 2.35195C5.87913 1.98797 6.1001 1.65726 6.37868 1.37868C6.65726 1.1001 6.98797 0.879125 7.35195 0.728361C7.71593 0.577597 8.10603 0.5 8.5 0.5C8.89397 0.5 9.28407 0.577597 9.64805 0.728361C10.012 0.879125 10.3427 1.1001 10.6213 1.37868C10.8999 1.65726 11.1209 1.98797 11.2716 2.35195Z" stroke="#999999"/>
</svg>
