<svg width="32" height="35" viewBox="0 0 32 35" fill="none" xmlns="http://www.w3.org/2000/svg">
<path d="M3.97029 10.7984L4.1252 11.7864H4.1252L3.97029 10.7984ZM10.8974 3.94059L11.8848 4.09856V4.09856L10.8974 3.94059ZM27.5649 32.4244L26.981 31.6126L27.5649 32.4244ZM29.4085 30.5992L30.2147 31.1909L29.4085 30.5992ZM2.59152 30.5992L1.78533 31.1909L2.59152 30.5992ZM4.43512 32.4244L5.01904 31.6126H5.01904L4.43512 32.4244ZM4.43512 2.57561L5.01904 3.38742L4.43512 2.57561ZM2.59152 4.40077L1.78533 3.80912L2.59152 4.40077ZM27.5649 2.57561L26.981 3.38742L27.5649 2.57561ZM29.4085 4.40077L30.2147 3.80912L29.4085 4.40077ZM11 1.04773L10.9661 0.0483066L11 1.04773ZM1.04821 10.9L0.0488129 10.8654L1.04821 10.9ZM17 12.55C17 11.9977 16.5523 11.55 16 11.55C15.4477 11.55 15 11.9977 15 12.55H17ZM23.3734 21.1775C23.7641 20.7872 23.7645 20.154 23.3742 19.7633C22.9839 19.3725 22.3507 19.3722 21.96 19.7625L23.3734 21.1775ZM20.3369 22.7971L21.0436 23.5046L20.3369 22.7971ZM11.6631 22.7971L12.3698 22.0896L11.6631 22.7971ZM10.04 19.7625C9.6493 19.3722 9.01613 19.3725 8.62583 19.7633C8.23552 20.154 8.23588 20.7872 8.62662 21.1775L10.04 19.7625ZM16.4178 25.7237L16.543 26.7159H16.543L16.4178 25.7237ZM15.5822 25.7237L15.457 26.7159H15.457L15.5822 25.7237ZM4.1252 11.7864C8.11329 11.161 11.2507 8.06209 11.8848 4.09856L9.90996 3.78261C9.41454 6.8793 6.95883 9.31761 3.81538 9.8105L4.1252 11.7864ZM0 15.85V19.15H2V15.85H0ZM32 19.15V15.85H30V19.15H32ZM16 35C19.1027 35 21.5093 35.0013 23.4112 34.7973C25.3313 34.5914 26.8551 34.1668 28.1488 33.2362L26.981 31.6126C26.0841 32.2576 24.9503 32.6208 23.1979 32.8088C21.4274 32.9987 19.1468 33 16 33V35ZM30 19.15C30 22.266 29.9986 24.5219 29.807 26.2727C29.6175 28.0042 29.2518 29.1225 28.6023 30.0076L30.2147 31.1909C31.1567 29.9073 31.5867 28.3945 31.7951 26.4903C32.0014 24.6054 32 22.221 32 19.15H30ZM28.1488 33.2362C28.9412 32.6663 29.6384 31.9761 30.2147 31.1909L28.6023 30.0076C28.1506 30.6231 27.6035 31.1648 26.981 31.6126L28.1488 33.2362ZM0 19.15C0 22.221 -0.00140047 24.6054 0.204875 26.4903C0.413264 28.3945 0.843318 29.9073 1.78533 31.1909L3.39772 30.0076C2.7482 29.1225 2.3825 28.0042 2.193 26.2727C2.0014 24.5219 2 22.266 2 19.15H0ZM16 33C12.8532 33 10.5726 32.9987 8.80208 32.8088C7.04972 32.6208 5.91586 32.2576 5.01904 31.6126L3.85121 33.2362C5.14493 34.1668 6.66873 34.5914 8.58879 34.7973C10.4907 35.0013 12.8973 35 16 35V33ZM1.78533 31.1909C2.36161 31.9761 3.05884 32.6663 3.85121 33.2362L5.01904 31.6126C4.3965 31.1648 3.84944 30.6231 3.39772 30.0076L1.78533 31.1909ZM3.85121 1.7638C3.05884 2.33373 2.36161 3.02388 1.78533 3.80912L3.39772 4.99242C3.84944 4.3769 4.3965 3.8352 5.01904 3.38742L3.85121 1.7638ZM16 2C19.1468 2 21.4274 2.00135 23.1979 2.19125C24.9503 2.37921 26.0841 2.74236 26.981 3.38742L28.1488 1.7638C26.8551 0.833248 25.3313 0.408599 23.4112 0.202654C21.5093 -0.00134563 19.1027 0 16 0V2ZM32 15.85C32 12.779 32.0014 10.3946 31.7951 8.50969C31.5867 6.60551 31.1567 5.09272 30.2147 3.80912L28.6023 4.99242C29.2518 5.87746 29.6175 6.99576 29.807 8.72727C29.9986 10.4781 30 12.734 30 15.85H32ZM26.981 3.38742C27.6035 3.8352 28.1506 4.3769 28.6023 4.99242L30.2147 3.80912C29.6384 3.02388 28.9412 2.33373 28.1488 1.7638L26.981 3.38742ZM16 0C14.0573 0 12.3939 -0.000122786 10.9661 0.0483066L11.0339 2.04716C12.4206 2.00012 14.0463 2 16 2V0ZM10.9661 0.0483066C7.84755 0.154084 5.62341 0.489094 3.85121 1.7638L5.01904 3.38742C6.26219 2.49325 7.9385 2.15215 11.0339 2.04716L10.9661 0.0483066ZM10 1.04772C9.99999 2.58584 9.99582 3.24594 9.90996 3.78261L11.8848 4.09856C12.002 3.36602 12 2.51184 12 1.04774L10 1.04772ZM2 15.85C2 13.9157 2.00013 12.3068 2.04762 10.9346L0.0488129 10.8654C-0.000127077 12.2796 0 13.9269 0 15.85H2ZM2.04762 10.9346C2.15361 7.87182 2.49774 6.21875 3.39772 4.99242L1.78533 3.80912C0.494532 5.56798 0.155716 7.77637 0.0488129 10.8654L2.04762 10.9346ZM1.04822 11.9C2.52819 11.9 3.38812 11.9019 4.1252 11.7864L3.81538 9.8105C3.27042 9.89595 2.60078 9.89999 1.04821 9.9L1.04822 11.9ZM15 12.55V24.43H17V12.55H15ZM21.96 19.7625L19.6302 22.0896L21.0436 23.5046L23.3734 21.1775L21.96 19.7625ZM12.3698 22.0896L10.04 19.7625L8.62662 21.1775L10.9564 23.5046L12.3698 22.0896ZM19.6302 22.0896C18.6847 23.0341 18.0341 23.6818 17.4829 24.12C16.9478 24.5455 16.603 24.6924 16.2926 24.7316L16.543 26.7159C17.3648 26.6122 18.0506 26.2238 18.7276 25.6855C19.3884 25.1602 20.1313 24.416 21.0436 23.5046L19.6302 22.0896ZM10.9564 23.5046C11.8687 24.416 12.6116 25.1602 13.2724 25.6855C13.9494 26.2238 14.6352 26.6122 15.457 26.7159L15.7074 24.7316C15.397 24.6924 15.0522 24.5455 14.5171 24.12C13.9659 23.6818 13.3153 23.0341 12.3698 22.0896L10.9564 23.5046ZM16.2926 24.7316C16.1954 24.7439 16.0977 24.75 16 24.75V26.75C16.1814 26.75 16.3627 26.7386 16.543 26.7159L16.2926 24.7316ZM16 24.75C15.9023 24.75 15.8046 24.7439 15.7074 24.7316L15.457 26.7159C15.6373 26.7386 15.8187 26.75 16 26.75V24.75ZM15 24.43V25.75H17V24.43H15Z" fill="#AB2421"/>
</svg>
