<svg width="46" height="76" viewBox="0 0 46 76" fill="none" xmlns="http://www.w3.org/2000/svg">
<circle cx="22.5" cy="71.5" r="4.5" fill="#AB2421"/>
<mask id="path-2-inside-1_472_181" fill="white">
<path fill-rule="evenodd" clip-rule="evenodd" d="M24.3732 63.8227C24.3236 63.8475 24.2242 63.8723 24.1683 63.8723C23.7833 63.8723 22.56 63.2584 19.6663 61.6027C19.3496 61.4166 19.126 61.2926 19.0763 61.2678C18.8466 61.1624 18.6727 60.9639 18.5796 60.7283C18.5423 60.6477 18.5175 60.5609 18.505 60.4926C18.4864 60.3934 18.4678 60.2818 18.4554 60.164L18.4548 60.1593C18.2931 58.88 17.9568 56.2191 6.40229 50.3847C2.33492 48.3259 6.02588e-05 43.489 6.02588e-05 37.1141C6.02588e-05 24.4761 8.92343 9.04754 19.8836 2.72852C23.0319 0.917775 26.0436 0 28.8504 0C29.8378 0 30.7879 0.117822 31.6883 0.353468C31.9181 0.41548 33.1724 1.0232 35.9047 2.36265C36.9355 2.87115 37.9104 3.34864 38.0408 3.39825C41.183 4.63229 40.9532 6.20739 40.5309 9.05994C40.326 10.4366 40.0776 12.1481 40.0776 14.3744C40.0776 20.7802 37.8483 28.0046 33.7996 34.7205C26.7826 46.3601 23.6653 55.7921 24.5285 62.7499L24.5313 62.7736C24.6039 63.3895 24.6369 63.6696 24.3732 63.8227ZM27.6954 21.1523C27.6954 17.8408 26.1244 15.782 23.597 15.782C22.5414 15.782 21.3926 16.1355 20.1941 16.83C15.8845 19.3167 12.3823 25.3753 12.3823 30.3424C12.3823 33.6539 13.9533 35.7127 16.4807 35.7127C17.5363 35.7127 18.6789 35.3592 19.8836 34.6647C24.1931 32.178 27.6954 26.1194 27.6954 21.1523Z"/>
</mask>
<path fill-rule="evenodd" clip-rule="evenodd" d="M24.3732 63.8227C24.3236 63.8475 24.2242 63.8723 24.1683 63.8723C23.7833 63.8723 22.56 63.2584 19.6663 61.6027C19.3496 61.4166 19.126 61.2926 19.0763 61.2678C18.8466 61.1624 18.6727 60.9639 18.5796 60.7283C18.5423 60.6477 18.5175 60.5609 18.505 60.4926C18.4864 60.3934 18.4678 60.2818 18.4554 60.164L18.4548 60.1593C18.2931 58.88 17.9568 56.2191 6.40229 50.3847C2.33492 48.3259 6.02588e-05 43.489 6.02588e-05 37.1141C6.02588e-05 24.4761 8.92343 9.04754 19.8836 2.72852C23.0319 0.917775 26.0436 0 28.8504 0C29.8378 0 30.7879 0.117822 31.6883 0.353468C31.9181 0.41548 33.1724 1.0232 35.9047 2.36265C36.9355 2.87115 37.9104 3.34864 38.0408 3.39825C41.183 4.63229 40.9532 6.20739 40.5309 9.05994C40.326 10.4366 40.0776 12.1481 40.0776 14.3744C40.0776 20.7802 37.8483 28.0046 33.7996 34.7205C26.7826 46.3601 23.6653 55.7921 24.5285 62.7499L24.5313 62.7736C24.6039 63.3895 24.6369 63.6696 24.3732 63.8227ZM27.6954 21.1523C27.6954 17.8408 26.1244 15.782 23.597 15.782C22.5414 15.782 21.3926 16.1355 20.1941 16.83C15.8845 19.3167 12.3823 25.3753 12.3823 30.3424C12.3823 33.6539 13.9533 35.7127 16.4807 35.7127C17.5363 35.7127 18.6789 35.3592 19.8836 34.6647C24.1931 32.178 27.6954 26.1194 27.6954 21.1523Z" fill="#E0E0E0"/>
<path d="M24.3732 63.8227L24.8199 64.7174L24.8481 64.7033L24.8753 64.6875L24.3732 63.8227ZM19.6663 61.6027L19.1597 62.4649L19.1696 62.4706L19.6663 61.6027ZM19.0763 61.2678L19.523 60.3731L19.5083 60.3658L19.4934 60.3589L19.0763 61.2678ZM18.5796 60.7283L19.5095 60.3607L19.4992 60.3344L19.4873 60.3088L18.5796 60.7283ZM18.505 60.4926L19.4889 60.3135L19.4879 60.3081L18.505 60.4926ZM18.4554 60.164L19.4499 60.0592L19.4488 60.0487L19.4474 60.0384L18.4554 60.164ZM18.4548 60.1593L17.4627 60.2847L17.4627 60.2849L18.4548 60.1593ZM6.40229 50.3847L5.95067 51.2769L5.95155 51.2774L6.40229 50.3847ZM19.8836 2.72852L19.385 1.86167L19.3841 1.8622L19.8836 2.72852ZM31.6883 0.353468L31.9489 -0.612014L31.9415 -0.613951L31.6883 0.353468ZM35.9047 2.36265L36.3471 1.46583L36.3449 1.46475L35.9047 2.36265ZM38.0408 3.39825L38.4064 2.46741L38.3964 2.4636L38.0408 3.39825ZM40.5309 9.05994L41.52 9.20717L41.5202 9.20637L40.5309 9.05994ZM33.7996 34.7205L32.9432 34.2042L32.9432 34.2042L33.7996 34.7205ZM24.5285 62.7499L25.5216 62.6328L25.5209 62.6268L24.5285 62.7499ZM24.5313 62.7736L23.5382 62.8906L23.5382 62.8906L24.5313 62.7736ZM20.1941 16.83L20.6939 17.6962L20.6955 17.6952L20.1941 16.83ZM19.8836 34.6647L20.3831 35.531L20.3834 35.5308L19.8836 34.6647ZM24.1683 64.8723C24.3117 64.8723 24.439 64.8457 24.5107 64.8282C24.5847 64.81 24.7017 64.7764 24.8199 64.7174L23.9265 62.928C23.9679 62.9073 23.998 62.8969 24.0075 62.8937C24.0202 62.8894 24.0293 62.8869 24.0355 62.8854C24.0417 62.8839 24.052 62.8816 24.0675 62.8793C24.0791 62.8775 24.1155 62.8723 24.1683 62.8723V64.8723ZM19.1696 62.4706C20.6181 63.2994 21.6671 63.8782 22.4082 64.2515C22.7777 64.4375 23.0893 64.5821 23.3462 64.6822C23.5678 64.7686 23.869 64.8723 24.1683 64.8723V62.8723C24.2751 62.8723 24.279 62.8993 24.0725 62.8188C23.9014 62.752 23.6541 62.6396 23.3079 62.4652C22.6177 62.1176 21.6081 61.5616 20.1629 60.7347L19.1696 62.4706ZM18.6297 62.1625C18.6279 62.1616 18.674 62.186 18.7798 62.2457C18.8761 62.3001 19.0061 62.3746 19.1598 62.4649L20.1728 60.7404C19.8601 60.5568 19.6079 60.4155 19.523 60.3731L18.6297 62.1625ZM17.6496 61.0959C17.8262 61.5428 18.1686 61.9516 18.6593 62.1767L19.4934 60.3589C19.5085 60.3659 19.5157 60.3732 19.5168 60.3743C19.5173 60.375 19.5135 60.3708 19.5095 60.3607L17.6496 61.0959ZM17.5212 60.6718C17.5469 60.8126 17.595 60.9815 17.6718 61.1478L19.4873 60.3088C19.4881 60.3105 19.4886 60.3117 19.4889 60.3125C19.4892 60.3132 19.4894 60.3136 19.4894 60.3136C19.4894 60.3136 19.4893 60.3134 19.4892 60.313C19.489 60.3125 19.4889 60.312 19.4887 60.3114C19.4883 60.31 19.488 60.3091 19.4879 60.3087C19.4878 60.3084 19.4882 60.3099 19.4889 60.3135L17.5212 60.6718ZM17.4609 60.2688C17.4772 60.4236 17.501 60.5641 17.5222 60.6772L19.4879 60.3081C19.4719 60.2228 19.4584 60.1401 19.4499 60.0592L17.4609 60.2688ZM17.4627 60.2849L17.4633 60.2896L19.4474 60.0384L19.4469 60.0337L17.4627 60.2849ZM5.95155 51.2774C11.6971 54.1785 14.5569 56.245 15.9924 57.6859C16.7016 58.3978 17.0417 58.936 17.2167 59.324C17.3875 59.7026 17.4249 59.9857 17.4627 60.2847L19.4469 60.0339C19.4038 59.6932 19.3386 59.164 19.0398 58.5016C18.7452 57.8485 18.2487 57.1169 17.4093 56.2744C15.7477 54.6065 12.662 52.4252 6.85303 49.492L5.95155 51.2774ZM-0.99994 37.1141C-0.99994 43.6942 1.41708 48.9821 5.95067 51.2769L6.8539 49.4925C3.25275 47.6697 1.00006 43.2838 1.00006 37.1141H-0.99994ZM19.3841 1.8622C13.7159 5.13019 8.63128 10.7131 4.96609 17.0511C1.30095 23.389 -0.99994 30.5774 -0.99994 37.1141H1.00006C1.00006 31.0129 3.16086 24.1679 6.69744 18.0523C10.234 11.9368 15.0912 6.64587 20.3831 3.59485L19.3841 1.8622ZM28.8504 -1C25.8241 -1 22.6411 -0.0110328 19.385 1.86167L20.3822 3.59538C23.4228 1.84658 26.2632 1 28.8504 1V-1ZM31.9415 -0.613951C30.953 -0.872635 29.9175 -1 28.8504 -1V1C29.7581 1 30.6227 1.10828 31.4351 1.32089L31.9415 -0.613951ZM36.3449 1.46475C34.9796 0.795428 33.9785 0.306468 33.2896 -0.0230871C32.9457 -0.187593 32.6735 -0.315272 32.47 -0.406801C32.2986 -0.48387 32.099 -0.571471 31.9489 -0.611986L31.4277 1.31892C31.3925 1.30941 31.4358 1.32103 31.6496 1.41721C31.8313 1.49892 32.0866 1.61852 32.4265 1.78112C33.1053 2.10579 34.0975 2.59042 35.4645 3.26056L36.3449 1.46475ZM38.3964 2.4636C38.41 2.46878 38.3677 2.45091 38.2255 2.38349C38.1041 2.32589 37.9412 2.24732 37.7478 2.15326C37.3615 1.96539 36.8621 1.7199 36.3471 1.46583L35.4623 3.25947C35.9781 3.5139 36.4816 3.76141 36.8731 3.95182C37.2307 4.12575 37.5658 4.28746 37.6853 4.3329L38.3964 2.4636ZM41.5202 9.20637C41.6239 8.50571 41.7254 7.82402 41.7603 7.20135C41.7955 6.57375 41.7685 5.93684 41.5771 5.32402C41.1658 4.00716 40.1124 3.13748 38.4064 2.46747L37.6753 4.32904C39.1114 4.89306 39.5142 5.42796 39.668 5.92029C39.7591 6.21207 39.7919 6.58092 39.7634 7.08949C39.7347 7.603 39.6491 8.1879 39.5417 8.91351L41.5202 9.20637ZM41.0776 14.3744C41.0776 12.2258 41.3165 10.5749 41.52 9.20717L39.5418 8.91271C39.3356 10.2983 39.0776 12.0705 39.0776 14.3744H41.0776ZM34.656 35.2368C38.7777 28.4 41.0776 20.999 41.0776 14.3744H39.0776C39.0776 20.5614 36.919 27.6092 32.9432 34.2042L34.656 35.2368ZM25.5209 62.6268C24.7013 56.0204 27.6622 46.838 34.656 35.2368L32.9432 34.2042C25.903 45.8822 22.6293 55.5638 23.5361 62.873L25.5209 62.6268ZM25.5244 62.6565L25.5216 62.6328L23.5354 62.8669L23.5382 62.8906L25.5244 62.6565ZM24.8753 64.6875C25.0721 64.5733 25.2555 64.4078 25.3873 64.1774C25.5129 63.958 25.5577 63.7386 25.574 63.5654C25.602 63.2676 25.5549 62.9155 25.5244 62.6565L23.5382 62.8906C23.557 63.0505 23.5701 63.1628 23.5775 63.2553C23.585 63.3499 23.5825 63.3804 23.5828 63.3781C23.5834 63.371 23.5916 63.2888 23.6514 63.1842C23.6816 63.1314 23.7192 63.0832 23.7617 63.0418C23.8034 63.0013 23.8426 62.9745 23.8711 62.9579L24.8753 64.6875ZM23.597 16.782C24.5584 16.782 25.2852 17.1588 25.799 17.832C26.3355 18.535 26.6954 19.6408 26.6954 21.1523H28.6954C28.6954 19.3523 28.2699 17.773 27.3889 16.6187C26.4854 15.4347 25.163 14.782 23.597 14.782V16.782ZM20.6955 17.6952C21.7876 17.0624 22.7639 16.782 23.597 16.782V14.782C22.3188 14.782 20.9975 15.2086 19.6927 15.9648L20.6955 17.6952ZM13.3823 30.3424C13.3823 28.0764 14.1879 25.4916 15.5378 23.1565C16.8877 20.8216 18.727 18.8311 20.6939 17.6962L19.6943 15.9639C17.3516 17.3156 15.285 19.5978 13.8063 22.1556C12.3277 24.7132 11.3823 27.6413 11.3823 30.3424H13.3823ZM16.4807 34.7127C15.5193 34.7127 14.7925 34.3359 14.2787 33.6627C13.7422 32.9597 13.3823 31.8539 13.3823 30.3424H11.3823C11.3823 32.1424 11.8078 33.7217 12.6888 34.876C13.5923 36.06 14.9147 36.7127 16.4807 36.7127V34.7127ZM19.3841 33.7983C18.2833 34.433 17.3128 34.7127 16.4807 34.7127V36.7127C17.7599 36.7127 19.0746 36.2854 20.3831 35.531L19.3841 33.7983ZM26.6954 21.1523C26.6954 23.4183 25.8898 26.0031 24.5399 28.3382C23.19 30.6731 21.3507 32.6636 19.3838 33.7985L20.3834 35.5308C22.726 34.1791 24.7927 31.8969 26.2713 29.3391C27.75 26.7815 28.6954 23.8534 28.6954 21.1523H26.6954Z" fill="#AB2421" mask="url(#path-2-inside-1_472_181)"/>
<path fill-rule="evenodd" clip-rule="evenodd" d="M25.162 63.7294C24.9136 63.8658 24.6777 63.9403 24.4479 63.9403C24.0318 63.9403 23.6903 63.6984 23.5351 63.3077C23.4978 63.2271 23.473 63.1403 23.4606 63.0721C23.4419 62.9729 23.4233 62.8613 23.4109 62.7434L23.4103 62.7387C23.2486 61.4595 22.9123 58.7985 11.3578 52.9641C7.29042 50.9053 4.95557 46.0684 4.95557 39.6936C4.95557 27.0556 13.8789 11.627 24.8391 5.30797C27.9874 3.49102 30.9992 2.57324 33.806 2.57324C40.7298 2.57324 45.0331 8.0799 45.0331 16.9476C45.0331 23.3534 42.8038 30.5778 38.7551 37.2937C27.0905 56.6379 26.7523 59.7555 26.5907 61.2453L26.5903 61.2489C26.5778 61.3792 26.5654 61.5032 26.5468 61.621L26.5425 61.6466C26.5261 61.7452 26.5138 61.8195 26.4909 61.8939C26.286 62.6628 25.7644 63.3822 25.162 63.7294ZM32.6634 23.7317C32.6634 20.4203 31.0923 18.3615 28.5649 18.3615C27.5093 18.3615 26.3605 18.715 25.162 19.4095C20.8525 21.8962 17.3502 27.9547 17.3502 32.9219C17.3502 36.2333 18.9212 38.2921 21.4486 38.2921C22.5043 38.2921 23.6468 37.9387 24.8515 37.2441C29.1611 34.7574 32.6634 28.6989 32.6634 23.7317Z" fill="#AB2421"/>
</svg>
