<svg width="32" height="45" viewBox="0 0 32 45" fill="none" xmlns="http://www.w3.org/2000/svg">
<path d="M30.825 8.6116L23.8333 1.23902C23.0833 0.448155 22.0667 0 21.0083 0H4C1.79167 0.00878735 0 1.89807 0 4.22671V40.7821C0 43.1107 1.79167 45 4 45H28C30.2083 45 32 43.1107 32 40.7821V11.5993C32 10.4833 31.575 9.40246 30.825 8.6116ZM27.675 11.2566H21.3333V4.56942L27.675 11.2566ZM4 40.7821V4.22671H17.3333V13.3656C17.3333 14.5343 18.225 15.4745 19.3333 15.4745H28V40.7821H4ZM24.85 28.1547C23.8333 27.1002 20.9333 27.3902 19.4833 27.5835C18.05 26.6608 17.0917 25.3866 16.4167 23.5149C16.7417 22.1002 17.2583 19.9473 16.8667 18.594C16.5167 16.2917 13.7167 16.5202 13.3167 18.0756C12.95 19.4903 13.2833 21.4587 13.9 23.9719C13.0667 26.0721 11.825 28.8928 10.95 30.5097C9.28333 31.4148 7.03333 32.812 6.7 34.5694C6.425 35.9578 8.86667 39.42 13.0417 31.8278C14.9083 31.1775 16.9417 30.3779 18.7417 30.0615C20.3167 30.9578 22.1583 31.5554 23.3917 31.5554C25.5167 31.5554 25.725 29.0773 24.85 28.1547ZM8.34167 34.9912C8.76667 33.7873 10.3833 32.3989 10.875 31.9156C9.29167 34.5782 8.34167 35.0527 8.34167 34.9912ZM15.1417 18.2425C15.7583 18.2425 15.7 21.0633 15.2917 21.8278C14.925 20.6063 14.9333 18.2425 15.1417 18.2425ZM13.1083 30.246C13.9167 28.761 14.6083 26.9947 15.1667 25.4394C15.8583 26.7663 16.7417 27.8295 17.675 28.5589C15.9417 28.9367 14.4333 29.71 13.1083 30.246ZM24.075 29.8067C24.075 29.8067 23.6583 30.3339 20.9667 29.1213C23.8917 28.8928 24.375 29.5958 24.075 29.8067Z" fill="#AB2421"/>
</svg>
