<svg width="43" height="30" viewBox="0 0 43 30" fill="none" xmlns="http://www.w3.org/2000/svg">
<path d="M40.1843 0.878906H3.33269C2.68204 0.878906 2.05803 1.13738 1.59795 1.59746C1.13787 2.05754 0.879395 2.68155 0.879395 3.3322V27.1344C0.879395 27.7851 1.13787 28.4091 1.59795 28.8691C2.05803 29.3292 2.68204 29.5877 3.33269 29.5877H40.1843C40.835 29.5877 41.459 29.3292 41.9191 28.8691C42.3792 28.4091 42.6376 27.7851 42.6376 27.1344V3.3322C42.6376 2.68155 42.3792 2.05754 41.9191 1.59746C41.459 1.13738 40.835 0.878906 40.1843 0.878906ZM40.0277 26.9778H3.48928V3.4888H40.0277V26.9778Z" fill="white"/>
<path d="M9.43901 13.2105C10.2133 13.2105 10.9702 12.9809 11.614 12.5508C12.2578 12.1206 12.7595 11.5092 13.0558 10.7938C13.3521 10.0785 13.4297 9.29135 13.2786 8.53195C13.1276 7.77255 12.7547 7.07499 12.2072 6.52749C11.6597 5.97999 10.9622 5.60714 10.2028 5.45608C9.44335 5.30503 8.6562 5.38256 7.94086 5.67886C7.22552 5.97516 6.61411 6.47694 6.18394 7.12073C5.75377 7.76452 5.52417 8.52142 5.52417 9.2957C5.52417 10.334 5.93662 11.3297 6.6708 12.0639C7.40497 12.7981 8.40073 13.2105 9.43901 13.2105ZM9.43901 7.20779C9.85402 7.19741 10.2627 7.31098 10.6129 7.53401C10.963 7.75703 11.2387 8.07937 11.4048 8.45986C11.5709 8.84034 11.6197 9.26169 11.5452 9.67009C11.4706 10.0785 11.276 10.4554 10.9861 10.7526C10.6963 11.0499 10.3245 11.254 9.91812 11.3388C9.51174 11.4237 9.08929 11.3855 8.70472 11.2292C8.32015 11.0728 7.99093 10.8053 7.75912 10.4609C7.52731 10.1165 7.40342 9.71084 7.40329 9.2957C7.40312 8.75088 7.61592 8.22757 7.99626 7.83747C8.3766 7.44738 8.89435 7.22141 9.43901 7.20779Z" fill="white"/>
<path d="M8.19704 24.3687C8.4403 24.3687 8.67359 24.2721 8.8456 24.1L16.4066 16.539L20.5564 20.6887L18.4516 22.7935C17.8703 23.3748 18.282 24.3687 19.1041 24.3687C19.3488 24.3687 19.5835 24.2715 19.7566 24.0984L29.2212 14.6338L35.8369 21.1968C36.4218 21.777 37.4162 21.3628 37.4162 20.539C37.4162 20.2924 37.3179 20.0559 37.1431 19.882L29.8476 12.6242C29.674 12.4521 29.4395 12.3555 29.1951 12.3555C28.9507 12.3555 28.7162 12.4521 28.5426 12.6242L21.8091 19.3577L17.02 14.5816C16.8464 14.4095 16.6119 14.3129 16.3675 14.3129C16.1231 14.3129 15.8885 14.4095 15.715 14.5816L7.54632 22.8051C6.97149 23.3838 7.38138 24.3687 8.19704 24.3687Z" fill="white"/>
</svg>
