<svg width="58" height="58" viewBox="0 0 58 58" fill="none" xmlns="http://www.w3.org/2000/svg">
<path d="M40.0896 27.6865C41.0362 28.3052 41.0362 29.6921 40.0896 30.3108L25.6248 39.765C24.5822 40.4465 23.1996 39.6984 23.1996 38.4529L23.1996 19.5444C23.1996 18.2988 24.5822 17.5508 25.6248 18.2322L40.0896 27.6865Z" fill="white"/>
<path fill-rule="evenodd" clip-rule="evenodd" d="M29 58C45.0163 58 58 45.0163 58 29C58 12.9837 45.0163 0 29 0C12.9837 0 0 12.9837 0 29C0 45.0163 12.9837 58 29 58ZM29 54.036C15.173 54.036 3.96403 42.827 3.96403 29C3.96403 15.173 15.173 3.96403 29 3.96403C42.827 3.96403 54.036 15.173 54.036 29C54.036 42.827 42.827 54.036 29 54.036ZM55.5738 37.6589C56.4576 34.9375 56.9353 32.0331 56.9353 29.0171C56.9353 28.4207 56.9166 27.8286 56.8798 27.2415C57.3134 26.928 57.5954 26.418 57.5954 25.842C57.5954 25.1228 57.1554 24.5063 56.5299 24.247C55.8876 20.5118 54.5042 17.03 52.5363 13.9586C52.6313 13.7447 52.684 13.508 52.684 13.2589C52.684 12.3058 51.9113 11.5331 50.9582 11.5331C50.9045 11.5331 50.8515 11.5355 50.7991 11.5403C48.6269 8.83242 45.9609 6.53759 42.9378 4.79242C42.8941 3.87814 42.139 3.15028 41.214 3.15028C40.8629 3.15028 40.5364 3.25508 40.2639 3.4351C36.8139 1.91159 32.9976 1.06553 28.9837 1.06553C28.3902 1.06553 27.8011 1.08403 27.2168 1.12047C26.9013 0.709116 26.4049 0.443889 25.8464 0.443889C25.1459 0.443889 24.5429 0.861254 24.2724 1.46088C19.7182 2.23392 15.5389 4.10858 12.0184 6.8011C11.8461 6.74338 11.6616 6.71212 11.4699 6.71212C10.5168 6.71212 9.74411 7.48479 9.74411 8.43792C9.74411 8.53366 9.75191 8.62758 9.7669 8.71907C7.24923 11.1034 5.17487 13.9512 3.68036 17.1258C2.83575 17.2381 2.18413 17.9612 2.18413 18.8365C2.18413 19.2385 2.3216 19.6084 2.55209 19.9018C1.56699 22.7588 1.03206 25.8255 1.03206 29.0171C1.03206 29.5784 1.04861 30.1359 1.08124 30.689C0.644012 31.0021 0.3591 31.5143 0.3591 32.0931C0.3591 32.8107 0.797078 33.426 1.4203 33.6863C2.02522 37.2835 3.31722 40.6475 5.15672 43.6387C5.07816 43.836 5.03496 44.0513 5.03496 44.2767C5.03496 45.2298 5.80762 46.0025 6.76076 46.0025L6.78287 46.0023C8.89237 48.7554 11.5024 51.1048 14.477 52.9144C14.5334 53.8166 15.283 54.5308 16.1994 54.5308C16.5113 54.5308 16.8038 54.4481 17.0563 54.3034C20.6738 56.0128 24.7171 56.9687 28.9837 56.9687C29.5606 56.9687 30.1334 56.9513 30.7016 56.9168C31.0599 57.3754 31.6417 57.6418 32.262 57.5697C32.8791 57.498 33.3821 57.1091 33.6271 56.5848C38.2497 55.8119 42.488 53.9045 46.0461 51.1586C46.193 51.1992 46.3478 51.221 46.5077 51.221C47.4609 51.221 48.2335 50.4483 48.2335 49.4952C48.2335 49.4274 48.2296 49.3605 48.222 49.2948C50.8462 46.8043 52.9873 43.8098 54.4904 40.4664C55.3265 40.3466 55.9692 39.6274 55.9692 38.7582C55.9692 38.3405 55.8208 37.9574 55.5738 37.6589ZM51.3472 14.9407C53.1273 17.7628 54.3879 20.9453 54.9949 24.354C54.4856 24.6541 54.1438 25.2081 54.1438 25.842C54.1438 26.6184 54.6565 27.2751 55.3618 27.4919C55.3906 27.9967 55.4051 28.5052 55.4051 29.0171C55.4051 31.812 54.9712 34.5056 54.167 37.034C53.2493 37.074 52.5176 37.8306 52.5176 38.7582C52.5176 39.2376 52.713 39.6713 53.0286 39.9841C51.6495 43.0029 49.7185 45.7169 47.3647 47.9969C47.1122 47.8521 46.8196 47.7694 46.5077 47.7694C45.5546 47.7694 44.7819 48.542 44.7819 49.4952C44.7819 49.7125 44.8221 49.9204 44.8954 50.1119C41.6319 52.5774 37.7783 54.3031 33.584 55.0395C33.259 54.434 32.5876 54.057 31.8635 54.1412C31.1426 54.225 30.5774 54.7417 30.3973 55.4014C29.9292 55.4261 29.4579 55.4386 28.9837 55.4386C25.0305 55.4386 21.28 54.5704 17.9127 53.0143C17.9209 52.9457 17.9252 52.8759 17.9252 52.805C17.9252 51.8519 17.1525 51.0792 16.1994 51.0792C15.7731 51.0792 15.383 51.2338 15.0819 51.4899C12.4247 49.8427 10.0814 47.7373 8.16211 45.2842C8.36629 45.0007 8.48657 44.6527 8.48657 44.2767C8.48657 43.3235 7.7139 42.5509 6.76076 42.5509C6.60871 42.5509 6.46125 42.5705 6.32079 42.6075C4.68221 39.8809 3.52176 36.8343 2.9554 33.5836C3.46706 33.2841 3.81071 32.7288 3.81071 32.0931C3.81071 31.3195 3.30164 30.6647 2.60019 30.4455C2.57499 29.9726 2.56224 29.4964 2.56224 29.0171C2.56224 26.0601 3.048 23.2166 3.94408 20.5619C4.88146 20.5437 5.63574 19.7782 5.63574 18.8365C5.63574 18.3639 5.44579 17.9357 5.13808 17.624C6.51574 14.7458 8.39916 12.1558 10.6732 9.96924C10.9116 10.0935 11.1825 10.1637 11.4699 10.1637C12.4231 10.1637 13.1957 9.39106 13.1957 8.43792C13.1957 8.24818 13.1651 8.06558 13.1085 7.89481C16.3516 5.45348 20.1751 3.74171 24.335 3.00334C24.629 3.53528 25.1956 3.8955 25.8464 3.8955C26.6379 3.8955 27.3049 3.3627 27.5084 2.63619C27.9968 2.60932 28.4886 2.5957 28.9837 2.5957C32.7179 2.5957 36.2711 3.37036 39.4915 4.76775C39.4893 4.80358 39.4882 4.8397 39.4882 4.87609C39.4882 5.82922 40.2608 6.60189 41.214 6.60189C41.634 6.60189 42.0189 6.45186 42.3182 6.20247C45.063 7.8102 47.4918 9.89911 49.4887 12.3534C49.3262 12.6166 49.2324 12.9268 49.2324 13.2589C49.2324 14.212 50.0051 14.9847 50.9582 14.9847C51.092 14.9847 51.2222 14.9695 51.3472 14.9407Z" fill="white"/>
</svg>
