<svg width="294" height="226" viewBox="0 0 294 226" fill="none" xmlns="http://www.w3.org/2000/svg">
  <path d="M199.147 102.961V102.059L214.724 93.8512V94.7531L215.785 94.1929V0L214.724 0.56016V3.6648L199.147 11.8726V8.76799L198.086 9.32815V103.516L199.147 102.961ZM213.517 93.3717L199.147 100.939V88.0122L213.517 93.3717ZM214.724 92.4507L199.584 86.8064L214.724 65.4347V92.4507ZM199.147 86.0658V72.3323L214.672 64.153L199.147 86.0658ZM213.517 63.645L199.147 71.212V58.2855L213.517 63.645ZM214.724 62.7288L199.584 57.0845L214.724 35.7128V62.7288ZM199.147 56.3439V42.5582L214.734 34.3456L199.147 56.3439ZM214.37 33.4199L199.147 41.4379V27.7471L214.37 33.4199ZM214.724 32.1857L199.584 26.5413L214.724 5.16965V32.1857ZM199.147 25.8008V12.9882L213.631 5.35953L199.147 25.8008Z" fill="#D8D8D8"/>
  <path d="M276.039 144.393L198.089 103.326V101.564L276.039 142.632V144.393Z" fill="white"/>
  <path d="M276.038 142.632L198.087 101.565L215.708 92.2793L293.664 133.347L276.038 142.632Z" fill="white"/>
  <path d="M209.594 85.4012V106.64L199.854 101.513V80.2695L209.594 85.4012Z" fill="white" stroke="#D8D8D8"/>
  <path d="M225.865 98.0659L209.591 106.639V85.4005L225.865 76.8271V98.0659Z" fill="white" stroke="#D8D8D8"/>
  <path d="M225.865 76.827L209.591 85.4003L199.852 80.2687L216.126 71.6953L225.865 76.827Z" fill="white" stroke="#D8D8D8"/>
  <path d="M220.609 91.2236V112.467L210.87 107.335V86.0967L220.609 91.2236Z" fill="white" stroke="#D8D8D8"/>
  <path d="M236.881 103.893L220.607 112.466V91.2229L236.881 82.6543V103.893Z" fill="white" stroke="#D8D8D8"/>
  <path d="M236.881 82.6541L220.607 91.2228L210.868 86.0958L227.142 77.5225L236.881 82.6541Z" fill="white" stroke="#D8D8D8"/>
  <path d="M231.617 97.0448V118.288L221.883 113.157V91.9131L231.617 97.0448Z" fill="white" stroke="#D8D8D8"/>
  <path d="M247.891 109.713L231.617 118.287V97.0432L247.891 88.4746V109.713Z" fill="white" stroke="#D8D8D8"/>
  <path d="M247.891 88.4764L231.617 97.045L221.883 91.9133L238.156 83.3447L247.891 88.4764Z" fill="white" stroke="#D8D8D8"/>
  <path d="M242.629 102.871V124.114L232.89 118.983V97.7393L242.629 102.871Z" fill="white" stroke="#D8D8D8"/>
  <path d="M258.902 115.541L242.629 124.115V102.871L258.902 94.2979V115.541Z" fill="white" stroke="#D8D8D8"/>
  <path d="M258.902 94.2968L242.629 102.87L232.889 97.7385L249.163 89.1699L258.902 94.2968Z" fill="white" stroke="#D8D8D8"/>
  <path d="M253.641 108.696V129.935L243.907 124.808V103.564L253.641 108.696Z" fill="white" stroke="#D8D8D8"/>
  <path d="M269.914 121.366L253.64 129.934V108.695L269.914 100.122V121.366Z" fill="white" stroke="#D8D8D8"/>
  <path d="M269.914 100.122L253.64 108.695L243.906 103.564L260.175 94.9951L269.914 100.122Z" fill="white" stroke="#D8D8D8"/>
  <path d="M264.656 114.52V135.759L254.917 130.632V109.389L264.656 114.52Z" fill="white" stroke="#D8D8D8"/>
  <path d="M280.93 127.186L264.656 135.759V114.521L280.93 105.947V127.186Z" fill="white" stroke="#D8D8D8"/>
  <path d="M280.93 105.948L264.656 114.521L254.917 109.39L271.19 100.816L280.93 105.948Z" fill="white" stroke="#D8D8D8"/>
  <path d="M275.668 120.341V141.584L265.929 136.453V115.214L275.668 120.341Z" fill="white" stroke="#D8D8D8"/>
  <path d="M291.941 133.01L275.668 141.584V120.34L291.941 111.771V133.01Z" fill="white" stroke="#D8D8D8"/>
  <path d="M291.941 111.77L275.668 120.339L265.928 115.212L282.202 106.639L291.941 111.77Z" fill="white" stroke="#D8D8D8"/>
  <path d="M276.039 115.928L198.089 74.8608V73.0996L276.039 114.167V115.928Z" fill="white"/>
  <path d="M276.038 114.167L198.087 73.0999L215.708 63.8145L293.664 104.882L276.038 114.167Z" fill="white"/>
  <path d="M209.59 56.9373V78.1761L199.851 73.0444V51.8057L209.59 56.9373Z" fill="white" stroke="#D8D8D8"/>
  <path d="M225.863 69.6068L209.589 78.1754V56.9366L225.863 48.3633V69.6068Z" fill="white" stroke="#D8D8D8"/>
  <path d="M225.863 48.3631L209.59 56.9365L199.85 51.8048L216.124 43.2314L225.863 48.3631Z" fill="white" stroke="#D8D8D8"/>
  <path d="M220.605 62.7568V84.0003L210.866 78.8686V57.6299L220.605 62.7568Z" fill="white" stroke="#D8D8D8"/>
  <path d="M236.879 75.4263L220.605 83.9996V62.7561L236.879 54.1875V75.4263Z" fill="white" stroke="#D8D8D8"/>
  <path d="M236.879 54.1883L220.605 62.7569L210.866 57.63L227.14 49.0566L236.879 54.1883Z" fill="white" stroke="#D8D8D8"/>
  <path d="M231.617 68.581V89.8245L221.883 84.6929V63.4541L231.617 68.581Z" fill="white" stroke="#D8D8D8"/>
  <path d="M247.889 81.2514L231.615 89.8248V68.5813L247.889 60.0127V81.2514Z" fill="white" stroke="#D8D8D8"/>
  <path d="M247.889 60.0125L231.615 68.5812L221.881 63.4542L238.155 54.8809L247.889 60.0125Z" fill="white" stroke="#D8D8D8"/>
  <path d="M242.629 74.4071V95.6506L232.89 90.5189V69.2754L242.629 74.4071Z" fill="white" stroke="#D8D8D8"/>
  <path d="M258.902 87.0775L242.629 95.6508V74.4073L258.902 65.834V87.0775Z" fill="white" stroke="#D8D8D8"/>
  <path d="M258.902 65.833L242.629 74.4063L232.889 69.2747L249.163 60.7061L258.902 65.833Z" fill="white" stroke="#D8D8D8"/>
  <path d="M253.637 80.2293V101.468L243.903 96.3412V75.0977L253.637 80.2293Z" fill="white" stroke="#D8D8D8"/>
  <path d="M269.91 92.8997L253.636 101.468V80.2296L269.91 71.6562V92.8997Z" fill="white" stroke="#D8D8D8"/>
  <path d="M269.91 71.6562L253.636 80.2296L243.902 75.0979L260.171 66.5293L269.91 71.6562Z" fill="white" stroke="#D8D8D8"/>
  <path d="M264.65 86.0555V107.294L254.911 102.167V80.9238L264.65 86.0555Z" fill="white" stroke="#D8D8D8"/>
  <path d="M280.926 98.7212L264.652 107.295V86.0558L280.926 77.4824V98.7212Z" fill="white" stroke="#D8D8D8"/>
  <path d="M280.926 77.4824L264.652 86.0557L254.913 80.9241L271.186 72.3555L280.926 77.4824Z" fill="white" stroke="#D8D8D8"/>
  <path d="M275.664 91.8807V113.119L265.925 107.988V86.749L275.664 91.8807Z" fill="white" stroke="#D8D8D8"/>
  <path d="M291.938 104.545L275.664 113.119V91.88L291.938 83.3066V104.545Z" fill="white" stroke="#D8D8D8"/>
  <path d="M291.938 83.3065L275.664 91.8798L265.925 86.7482L282.198 78.1748L291.938 83.3065Z" fill="white" stroke="#D8D8D8"/>
  <path d="M276.039 84.9176L198.089 43.8501V42.0889L276.039 83.1564V84.9176Z" fill="white"/>
  <path d="M276.038 83.1557L198.087 42.0882L215.708 32.8027L293.664 73.8703L276.038 83.1557Z" fill="white"/>
  <path d="M209.59 26.2889V47.5324L199.851 42.4007V21.1572L209.59 26.2889Z" fill="white" stroke="#D8D8D8"/>
  <path d="M225.863 38.9583L209.589 47.5317V26.2882L225.863 17.7148V38.9583Z" fill="white" stroke="#D8D8D8"/>
  <path d="M225.863 17.7147L209.59 26.288L199.85 21.1564L216.124 12.583L225.863 17.7147Z" fill="white" stroke="#D8D8D8"/>
  <path d="M220.605 32.1131V53.3519L210.866 48.2202V26.9814L220.605 32.1131Z" fill="white" stroke="#D8D8D8"/>
  <path d="M236.879 44.7778L220.605 53.3512V32.1124L236.879 23.5391V44.7778Z" fill="white" stroke="#D8D8D8"/>
  <path d="M236.879 23.5399L220.605 32.1132L210.866 26.9816L227.14 18.4082L236.879 23.5399Z" fill="white" stroke="#D8D8D8"/>
  <path d="M231.617 37.9326V59.1761L221.883 54.0444V32.8057L231.617 37.9326Z" fill="white" stroke="#D8D8D8"/>
  <path d="M247.889 50.604L231.615 59.1773V37.9338L247.889 29.3652V50.604Z" fill="white" stroke="#D8D8D8"/>
  <path d="M247.889 29.3641L231.615 37.9327L221.881 32.8058L238.155 24.2324L247.889 29.3641Z" fill="white" stroke="#D8D8D8"/>
  <path d="M242.629 43.7625V65.0013L232.89 59.8696V38.6309L242.629 43.7625Z" fill="white" stroke="#D8D8D8"/>
  <path d="M258.902 56.4292L242.629 65.0025V43.7638L258.902 35.1904V56.4292Z" fill="white" stroke="#D8D8D8"/>
  <path d="M258.902 35.1903L242.629 43.7636L232.889 38.6319L249.163 30.0586L258.902 35.1903Z" fill="white" stroke="#D8D8D8"/>
  <path d="M253.637 49.582V70.8255L243.903 65.6938V44.4551L253.637 49.582Z" fill="white" stroke="#D8D8D8"/>
  <path d="M269.91 62.2533L253.636 70.8266V49.5831L269.91 41.0098V62.2533Z" fill="white" stroke="#D8D8D8"/>
  <path d="M269.91 41.0097L253.636 49.5831L243.902 44.4562L260.171 35.8828L269.91 41.0097Z" fill="white" stroke="#D8D8D8"/>
  <path d="M264.65 55.4071V76.6506L254.911 71.5189V50.2754L264.65 55.4071Z" fill="white" stroke="#D8D8D8"/>
  <path d="M280.926 68.0785L264.652 76.6518V55.4083L280.926 46.835V68.0785Z" fill="white" stroke="#D8D8D8"/>
  <path d="M280.926 46.834L264.652 55.4073L254.913 50.2756L271.186 41.707L280.926 46.834Z" fill="white" stroke="#D8D8D8"/>
  <path d="M275.664 61.2332V82.472L265.925 77.3451V56.1016L275.664 61.2332Z" fill="white" stroke="#D8D8D8"/>
  <path d="M291.938 73.9027L275.664 82.4713V61.2325L291.938 52.6592V73.9027Z" fill="white" stroke="#D8D8D8"/>
  <path d="M291.938 52.6591L275.664 61.2325L265.925 56.1008L282.198 47.5322L291.938 52.6591Z" fill="white" stroke="#D8D8D8"/>
  <path d="M277.061 144.105V143.203L292.638 134.995V135.897L293.699 135.341V41.1484L292.638 41.7086V44.8132L277.061 53.0211V49.9164L276 50.4766V144.67L277.061 144.105ZM291.431 134.52L277.061 142.087V129.161L291.431 134.52ZM292.638 133.599L277.498 127.955L292.638 106.583V133.599ZM277.061 127.214V113.486L292.586 105.311L277.061 127.214ZM291.431 104.793L277.061 112.365V99.4387L291.431 104.793ZM292.638 103.877L277.498 98.2329L292.638 76.8613V103.877ZM277.061 97.4924V83.7066L292.648 75.4988L277.061 97.4924ZM292.284 74.5684L277.061 82.5863V68.8955L292.284 74.5684ZM292.638 73.3341L277.498 67.6898L292.638 46.3181V73.3341ZM277.061 66.9492V54.1366L291.54 46.508L277.061 66.9492Z" fill="#D8D8D8"/>
  <path d="M179.061 113.023V112.121L194.638 103.914V104.816L195.699 104.255V10.0625L194.638 10.6227V13.7273L179.061 21.9351V18.8305L178 19.3906V113.579L179.061 113.023ZM193.431 103.434L179.061 111.001V98.0747L193.431 103.434ZM194.638 102.513L179.498 96.8689L194.638 75.4972V102.513ZM179.061 96.1283V82.3948L194.586 74.2155L179.061 96.1283ZM193.431 73.7075L179.061 81.2745V68.348L193.431 73.7075ZM194.638 72.7913L179.498 67.147L194.638 45.7753V72.7913ZM179.061 66.4064V52.6207L194.648 44.4081L179.061 66.4064ZM194.284 43.4824L179.061 51.5004V37.8096L194.284 43.4824ZM194.638 42.2482L179.498 36.6038L194.638 15.2321V42.2482ZM179.061 35.8633V23.0507L193.545 15.422L179.061 35.8633Z" fill="#D8D8D8"/>
  <path d="M255.953 154.456L178.003 113.388V111.627L255.953 152.695V154.456Z" fill="white"/>
  <path d="M255.952 152.695L178.001 111.627L195.622 102.342L273.578 143.409L255.952 152.695Z" fill="white"/>
  <path d="M189.506 95.4627V116.701L179.767 111.575V90.3311L189.506 95.4627Z" fill="white" stroke="#D8D8D8"/>
  <path d="M205.781 108.128L189.507 116.702V95.463L205.781 86.8896V108.128Z" fill="white" stroke="#D8D8D8"/>
  <path d="M205.781 86.8895L189.507 95.4628L179.768 90.3312L196.042 81.7578L205.781 86.8895Z" fill="white" stroke="#D8D8D8"/>
  <path d="M200.523 101.282V122.526L190.784 117.394V96.1553L200.523 101.282Z" fill="white" stroke="#D8D8D8"/>
  <path d="M216.797 113.953L200.523 122.526V101.282L216.797 92.7139V113.953Z" fill="white" stroke="#D8D8D8"/>
  <path d="M216.797 92.7147L200.523 101.283L190.784 96.1564L207.058 87.583L216.797 92.7147Z" fill="white" stroke="#D8D8D8"/>
  <path d="M211.529 107.107V128.351L201.795 123.219V101.976L211.529 107.107Z" fill="white" stroke="#D8D8D8"/>
  <path d="M227.805 119.777L211.531 128.35V107.107L227.805 98.5381V119.777Z" fill="white" stroke="#D8D8D8"/>
  <path d="M227.805 98.5389L211.531 107.108L201.797 101.976L218.071 93.4072L227.805 98.5389Z" fill="white" stroke="#D8D8D8"/>
  <path d="M222.543 112.934V134.178L212.804 129.046V107.803L222.543 112.934Z" fill="white" stroke="#D8D8D8"/>
  <path d="M238.814 125.605L222.541 134.178V112.935L238.814 104.361V125.605Z" fill="white" stroke="#D8D8D8"/>
  <path d="M238.814 104.361L222.541 112.935L212.801 107.803L229.075 99.2344L238.814 104.361Z" fill="white" stroke="#D8D8D8"/>
  <path d="M233.551 118.757V139.995L223.817 134.869V113.625L233.551 118.757Z" fill="white" stroke="#D8D8D8"/>
  <path d="M249.824 131.427L233.55 139.996V118.757L249.824 110.184V131.427Z" fill="white" stroke="#D8D8D8"/>
  <path d="M249.824 110.184L233.55 118.757L223.816 113.625L240.085 105.057L249.824 110.184Z" fill="white" stroke="#D8D8D8"/>
  <path d="M244.57 124.584V145.823L234.831 140.696V119.452L244.57 124.584Z" fill="white" stroke="#D8D8D8"/>
  <path d="M260.844 137.248L244.57 145.822V124.583L260.844 116.01V137.248Z" fill="white" stroke="#D8D8D8"/>
  <path d="M260.844 116.009L244.57 124.582L234.831 119.45L251.104 110.877L260.844 116.009Z" fill="white" stroke="#D8D8D8"/>
  <path d="M255.582 130.403V151.647L245.843 146.515V125.276L255.582 130.403Z" fill="white" stroke="#D8D8D8"/>
  <path d="M271.855 143.073L255.582 151.646V130.403L271.855 121.834V143.073Z" fill="white" stroke="#D8D8D8"/>
  <path d="M271.855 121.834L255.582 130.402L245.842 125.276L262.116 116.702L271.855 121.834Z" fill="white" stroke="#D8D8D8"/>
  <path d="M255.953 125.992L178.003 84.9243V83.1631L255.953 124.231V125.992Z" fill="white"/>
  <path d="M255.952 124.231L178.001 83.1634L195.622 73.8779L273.578 114.946L255.952 124.231Z" fill="white"/>
  <path d="M189.5 66.9998V88.2386L179.761 83.1069V61.8682L189.5 66.9998Z" fill="white" stroke="#D8D8D8"/>
  <path d="M205.775 79.6693L189.502 88.2379V66.9991L205.775 58.4258V79.6693Z" fill="white" stroke="#D8D8D8"/>
  <path d="M205.775 58.4256L189.502 66.999L179.762 61.8673L196.036 53.2939L205.775 58.4256Z" fill="white" stroke="#D8D8D8"/>
  <path d="M200.523 72.8193V94.0628L190.784 88.9311V67.6924L200.523 72.8193Z" fill="white" stroke="#D8D8D8"/>
  <path d="M216.797 85.4897L200.523 94.0631V72.8196L216.797 64.251V85.4897Z" fill="white" stroke="#D8D8D8"/>
  <path d="M216.797 64.2508L200.523 72.8194L190.784 67.6925L207.058 59.1191L216.797 64.2508Z" fill="white" stroke="#D8D8D8"/>
  <path d="M211.529 78.6435V99.887L201.795 94.7554V73.5166L211.529 78.6435Z" fill="white" stroke="#D8D8D8"/>
  <path d="M227.805 91.3139L211.531 99.8873V78.6438L227.805 70.0752V91.3139Z" fill="white" stroke="#D8D8D8"/>
  <path d="M227.805 70.075L211.531 78.6437L201.797 73.5167L218.071 64.9434L227.805 70.075Z" fill="white" stroke="#D8D8D8"/>
  <path d="M222.543 84.4696V105.713L212.804 100.581V79.3379L222.543 84.4696Z" fill="white" stroke="#D8D8D8"/>
  <path d="M238.814 97.14L222.541 105.713V84.4698L238.814 75.8965V97.14Z" fill="white" stroke="#D8D8D8"/>
  <path d="M238.814 75.8955L222.541 84.4688L212.801 79.3372L229.075 70.7686L238.814 75.8955Z" fill="white" stroke="#D8D8D8"/>
  <path d="M233.551 90.2928V111.532L223.817 106.405V85.1611L233.551 90.2928Z" fill="white" stroke="#D8D8D8"/>
  <path d="M249.824 102.963L233.55 111.532V90.2931L249.824 81.7197V102.963Z" fill="white" stroke="#D8D8D8"/>
  <path d="M249.824 81.7197L233.55 90.2931L223.816 85.1614L240.085 76.5928L249.824 81.7197Z" fill="white" stroke="#D8D8D8"/>
  <path d="M244.57 96.119V117.358L234.831 112.231V90.9873L244.57 96.119Z" fill="white" stroke="#D8D8D8"/>
  <path d="M260.844 108.784L244.57 117.357V96.1183L260.844 87.5449V108.784Z" fill="white" stroke="#D8D8D8"/>
  <path d="M260.844 87.5449L244.57 96.1182L234.831 90.9866L251.104 82.418L260.844 87.5449Z" fill="white" stroke="#D8D8D8"/>
  <path d="M255.582 101.944V123.183L245.843 118.051V96.8125L255.582 101.944Z" fill="white" stroke="#D8D8D8"/>
  <path d="M271.855 114.609L255.582 123.182V101.943L271.855 93.3701V114.609Z" fill="white" stroke="#D8D8D8"/>
  <path d="M271.855 93.3699L255.582 101.943L245.842 96.8116L262.116 88.2383L271.855 93.3699Z" fill="white" stroke="#D8D8D8"/>
  <path d="M255.953 94.9772L178.003 53.9096V52.1484L255.953 93.216V94.9772Z" fill="white"/>
  <path d="M255.952 93.2173L178.001 52.1497L195.622 42.8643L273.578 83.9318L255.952 93.2173Z" fill="white"/>
  <path d="M189.502 36.3494V57.5929L179.763 52.4613V31.2178L189.502 36.3494Z" fill="white" stroke="#D8D8D8"/>
  <path d="M205.777 49.0199L189.504 57.5932V36.3497L205.777 27.7764V49.0199Z" fill="white" stroke="#D8D8D8"/>
  <path d="M205.777 27.7772L189.504 36.3505L179.764 31.2189L196.038 22.6455L205.777 27.7772Z" fill="white" stroke="#D8D8D8"/>
  <path d="M200.516 42.1746V63.4134L190.776 58.2817V37.043L200.516 42.1746Z" fill="white" stroke="#D8D8D8"/>
  <path d="M216.789 54.8403L200.515 63.4137V42.1749L216.789 33.6016V54.8403Z" fill="white" stroke="#D8D8D8"/>
  <path d="M216.789 33.6014L200.515 42.1747L190.776 37.0431L207.05 28.4697L216.789 33.6014Z" fill="white" stroke="#D8D8D8"/>
  <path d="M211.525 47.9931V69.2366L201.791 64.105V42.8662L211.525 47.9931Z" fill="white" stroke="#D8D8D8"/>
  <path d="M227.801 60.6645L211.527 69.2379V47.9944L227.801 39.4258V60.6645Z" fill="white" stroke="#D8D8D8"/>
  <path d="M227.801 39.4256L211.527 47.9942L201.793 42.8673L218.067 34.2939L227.801 39.4256Z" fill="white" stroke="#D8D8D8"/>
  <path d="M222.539 53.825V75.0638L212.8 69.9321V48.6934L222.539 53.825Z" fill="white" stroke="#D8D8D8"/>
  <path d="M238.812 66.4897L222.539 75.0631V53.8243L238.812 45.251V66.4897Z" fill="white" stroke="#D8D8D8"/>
  <path d="M238.812 45.2508L222.539 53.8241L212.8 48.6925L229.073 40.1191L238.812 45.2508Z" fill="white" stroke="#D8D8D8"/>
  <path d="M233.551 59.6435V80.887L223.817 75.7553V54.5166L233.551 59.6435Z" fill="white" stroke="#D8D8D8"/>
  <path d="M249.824 72.3138L233.55 80.8872V59.6437L249.824 51.0703V72.3138Z" fill="white" stroke="#D8D8D8"/>
  <path d="M249.824 51.0703L233.55 59.6437L223.816 54.5167L240.085 45.9434L249.824 51.0703Z" fill="white" stroke="#D8D8D8"/>
  <path d="M244.566 65.4696V86.7131L234.827 81.5814V60.3379L244.566 65.4696Z" fill="white" stroke="#D8D8D8"/>
  <path d="M260.84 78.139L244.566 86.7124V65.4689L260.84 56.8955V78.139Z" fill="white" stroke="#D8D8D8"/>
  <path d="M260.84 56.8965L244.566 65.4698L234.827 60.3381L251.101 51.7695L260.84 56.8965Z" fill="white" stroke="#D8D8D8"/>
  <path d="M255.578 71.2948V92.5335L245.839 87.4066V66.1631L255.578 71.2948Z" fill="white" stroke="#D8D8D8"/>
  <path d="M271.852 83.9642L255.578 92.5328V71.2941L271.852 62.7207V83.9642Z" fill="white" stroke="#D8D8D8"/>
  <path d="M271.852 62.7207L255.578 71.294L245.839 66.1623L262.112 57.5938L271.852 62.7207Z" fill="white" stroke="#D8D8D8"/>
  <path d="M256.975 154.167V153.265L272.552 145.057V145.959L273.613 145.404V51.2109L272.552 51.7711V54.8757L256.975 63.0836V59.9789L255.914 60.5391V154.732L256.975 154.167ZM271.345 144.583L256.975 152.15V139.223L271.345 144.583ZM272.552 143.662L257.412 138.017L272.552 116.646V143.662ZM256.975 137.277V123.548L272.5 115.373L256.975 137.277ZM271.345 114.856L256.975 122.428V109.501L271.345 114.856ZM272.552 113.94L257.412 108.295L272.552 86.9238V113.94ZM256.975 107.555V93.7691L272.562 85.5613L256.975 107.555ZM272.198 84.6309L256.975 92.6488V78.958L272.198 84.6309ZM272.552 83.3966L257.412 77.7523L272.552 56.3806V83.3966ZM256.975 77.0117V64.1991L271.454 56.5705L256.975 77.0117Z" fill="#D8D8D8"/>
  <path d="M158.147 121.961V121.059L173.724 112.851V113.753L174.785 113.193V19L173.724 19.5602V22.6648L158.147 30.8726V27.768L157.086 28.3281V122.516L158.147 121.961ZM172.517 112.372L158.147 119.939V107.012L172.517 112.372ZM173.724 111.451L158.584 105.806L173.724 84.4347V111.451ZM158.147 105.066V91.3323L173.672 83.153L158.147 105.066ZM172.517 82.645L158.147 90.212V77.2855L172.517 82.645ZM173.724 81.7288L158.584 76.0845L173.724 54.7128V81.7288ZM158.147 75.3439V61.5582L173.734 53.3456L158.147 75.3439ZM173.37 52.4199L158.147 60.4379V46.7471L173.37 52.4199ZM173.724 51.1857L158.584 45.5413L173.724 24.1696V51.1857ZM158.147 44.8008V31.9882L172.631 24.3595L158.147 44.8008Z" fill="#D8D8D8"/>
  <path d="M235.039 163.393L157.089 122.326V120.564L235.039 161.632V163.393Z" fill="white"/>
  <path d="M235.038 161.632L157.087 120.565L174.708 111.279L252.664 152.347L235.038 161.632Z" fill="white"/>
  <path d="M168.594 104.401V125.64L158.854 120.513V99.2695L168.594 104.401Z" fill="white" stroke="#D8D8D8"/>
  <path d="M184.865 117.066L168.591 125.639V104.4L184.865 95.8271V117.066Z" fill="white" stroke="#D8D8D8"/>
  <path d="M184.865 95.827L168.591 104.4L158.852 99.2687L175.126 90.6953L184.865 95.827Z" fill="white" stroke="#D8D8D8"/>
  <path d="M179.609 110.224V131.467L169.87 126.335V105.097L179.609 110.224Z" fill="white" stroke="#D8D8D8"/>
  <path d="M195.881 122.893L179.607 131.466V110.223L195.881 101.654V122.893Z" fill="white" stroke="#D8D8D8"/>
  <path d="M195.881 101.654L179.607 110.223L169.868 105.096L186.142 96.5225L195.881 101.654Z" fill="white" stroke="#D8D8D8"/>
  <path d="M190.617 116.045V137.288L180.883 132.157V110.913L190.617 116.045Z" fill="white" stroke="#D8D8D8"/>
  <path d="M206.891 128.713L190.617 137.287V116.043L206.891 107.475V128.713Z" fill="white" stroke="#D8D8D8"/>
  <path d="M206.891 107.476L190.617 116.045L180.883 110.913L197.156 102.345L206.891 107.476Z" fill="white" stroke="#D8D8D8"/>
  <path d="M201.629 121.871V143.114L191.89 137.983V116.739L201.629 121.871Z" fill="white" stroke="#D8D8D8"/>
  <path d="M217.902 134.541L201.629 143.115V121.871L217.902 113.298V134.541Z" fill="white" stroke="#D8D8D8"/>
  <path d="M217.902 113.297L201.629 121.87L191.889 116.739L208.163 108.17L217.902 113.297Z" fill="white" stroke="#D8D8D8"/>
  <path d="M212.641 127.696V148.935L202.907 143.808V122.564L212.641 127.696Z" fill="white" stroke="#D8D8D8"/>
  <path d="M228.914 140.366L212.64 148.934V127.695L228.914 119.122V140.366Z" fill="white" stroke="#D8D8D8"/>
  <path d="M228.914 119.122L212.64 127.695L202.906 122.564L219.175 113.995L228.914 119.122Z" fill="white" stroke="#D8D8D8"/>
  <path d="M223.656 133.52V154.759L213.917 149.632V128.389L223.656 133.52Z" fill="white" stroke="#D8D8D8"/>
  <path d="M239.93 146.186L223.656 154.759V133.521L239.93 124.947V146.186Z" fill="white" stroke="#D8D8D8"/>
  <path d="M239.93 124.948L223.656 133.521L213.917 128.39L230.19 119.816L239.93 124.948Z" fill="white" stroke="#D8D8D8"/>
  <path d="M234.668 139.341V160.584L224.929 155.453V134.214L234.668 139.341Z" fill="white" stroke="#D8D8D8"/>
  <path d="M250.941 152.01L234.668 160.584V139.34L250.941 130.771V152.01Z" fill="white" stroke="#D8D8D8"/>
  <path d="M250.941 130.77L234.668 139.339L224.928 134.212L241.202 125.639L250.941 130.77Z" fill="white" stroke="#D8D8D8"/>
  <path d="M235.039 134.928L157.089 93.8608V92.0996L235.039 133.167V134.928Z" fill="white"/>
  <path d="M235.038 133.167L157.087 92.0999L174.708 82.8145L252.664 123.882L235.038 133.167Z" fill="white"/>
  <path d="M168.59 75.9373V97.1761L158.851 92.0444V70.8057L168.59 75.9373Z" fill="white" stroke="#D8D8D8"/>
  <path d="M184.863 88.6068L168.589 97.1754V75.9366L184.863 67.3633V88.6068Z" fill="white" stroke="#D8D8D8"/>
  <path d="M184.863 67.3631L168.59 75.9365L158.85 70.8048L175.124 62.2314L184.863 67.3631Z" fill="white" stroke="#D8D8D8"/>
  <path d="M179.605 81.7568V103L169.866 97.8686V76.6299L179.605 81.7568Z" fill="white" stroke="#D8D8D8"/>
  <path d="M195.879 94.4263L179.605 103V81.7561L195.879 73.1875V94.4263Z" fill="white" stroke="#D8D8D8"/>
  <path d="M195.879 73.1883L179.605 81.7569L169.866 76.63L186.14 68.0566L195.879 73.1883Z" fill="white" stroke="#D8D8D8"/>
  <path d="M190.617 87.581V108.825L180.883 103.693V82.4541L190.617 87.581Z" fill="white" stroke="#D8D8D8"/>
  <path d="M206.889 100.251L190.615 108.825V87.5813L206.889 79.0127V100.251Z" fill="white" stroke="#D8D8D8"/>
  <path d="M206.889 79.0125L190.615 87.5812L180.881 82.4542L197.155 73.8809L206.889 79.0125Z" fill="white" stroke="#D8D8D8"/>
  <path d="M201.629 93.4071V114.651L191.89 109.519V88.2754L201.629 93.4071Z" fill="white" stroke="#D8D8D8"/>
  <path d="M217.902 106.077L201.629 114.651V93.4073L217.902 84.834V106.077Z" fill="white" stroke="#D8D8D8"/>
  <path d="M217.902 84.833L201.629 93.4063L191.889 88.2747L208.163 79.7061L217.902 84.833Z" fill="white" stroke="#D8D8D8"/>
  <path d="M212.637 99.2293V120.468L202.903 115.341V94.0977L212.637 99.2293Z" fill="white" stroke="#D8D8D8"/>
  <path d="M228.91 111.9L212.636 120.468V99.2296L228.91 90.6562V111.9Z" fill="white" stroke="#D8D8D8"/>
  <path d="M228.91 90.6562L212.636 99.2296L202.902 94.0979L219.171 85.5293L228.91 90.6562Z" fill="white" stroke="#D8D8D8"/>
  <path d="M223.65 105.055V126.294L213.911 121.167V99.9238L223.65 105.055Z" fill="white" stroke="#D8D8D8"/>
  <path d="M239.926 117.721L223.652 126.295V105.056L239.926 96.4824V117.721Z" fill="white" stroke="#D8D8D8"/>
  <path d="M239.926 96.4824L223.652 105.056L213.913 99.9241L230.186 91.3555L239.926 96.4824Z" fill="white" stroke="#D8D8D8"/>
  <path d="M234.664 110.881V132.119L224.925 126.988V105.749L234.664 110.881Z" fill="white" stroke="#D8D8D8"/>
  <path d="M250.938 123.545L234.664 132.119V110.88L250.938 102.307V123.545Z" fill="white" stroke="#D8D8D8"/>
  <path d="M250.938 102.306L234.664 110.88L224.925 105.748L241.198 97.1748L250.938 102.306Z" fill="white" stroke="#D8D8D8"/>
  <path d="M235.039 103.918L157.089 62.8501V61.0889L235.039 102.156V103.918Z" fill="white"/>
  <path d="M235.038 102.156L157.087 61.0882L174.708 51.8027L252.664 92.8703L235.038 102.156Z" fill="white"/>
  <path d="M168.59 45.2889V66.5324L158.851 61.4007V40.1572L168.59 45.2889Z" fill="white" stroke="#D8D8D8"/>
  <path d="M184.863 57.9583L168.589 66.5317V45.2882L184.863 36.7148V57.9583Z" fill="white" stroke="#D8D8D8"/>
  <path d="M184.863 36.7147L168.59 45.288L158.85 40.1564L175.124 31.583L184.863 36.7147Z" fill="white" stroke="#D8D8D8"/>
  <path d="M179.605 51.1131V72.3519L169.866 67.2202V45.9814L179.605 51.1131Z" fill="white" stroke="#D8D8D8"/>
  <path d="M195.879 63.7778L179.605 72.3512V51.1124L195.879 42.5391V63.7778Z" fill="white" stroke="#D8D8D8"/>
  <path d="M195.879 42.5399L179.605 51.1132L169.866 45.9816L186.14 37.4082L195.879 42.5399Z" fill="white" stroke="#D8D8D8"/>
  <path d="M190.617 56.9326V78.1761L180.883 73.0444V51.8057L190.617 56.9326Z" fill="white" stroke="#D8D8D8"/>
  <path d="M206.889 69.604L190.615 78.1773V56.9338L206.889 48.3652V69.604Z" fill="white" stroke="#D8D8D8"/>
  <path d="M206.889 48.3641L190.615 56.9327L180.881 51.8058L197.155 43.2324L206.889 48.3641Z" fill="white" stroke="#D8D8D8"/>
  <path d="M201.629 62.7625V84.0013L191.89 78.8696V57.6309L201.629 62.7625Z" fill="white" stroke="#D8D8D8"/>
  <path d="M217.902 75.4292L201.629 84.0025V62.7638L217.902 54.1904V75.4292Z" fill="white" stroke="#D8D8D8"/>
  <path d="M217.902 54.1903L201.629 62.7636L191.889 57.6319L208.163 49.0586L217.902 54.1903Z" fill="white" stroke="#D8D8D8"/>
  <path d="M212.637 68.582V89.8255L202.903 84.6938V63.4551L212.637 68.582Z" fill="white" stroke="#D8D8D8"/>
  <path d="M228.91 81.2533L212.636 89.8266V68.5831L228.91 60.0098V81.2533Z" fill="white" stroke="#D8D8D8"/>
  <path d="M228.91 60.0097L212.636 68.5831L202.902 63.4562L219.171 54.8828L228.91 60.0097Z" fill="white" stroke="#D8D8D8"/>
  <path d="M223.65 74.4071V95.6506L213.911 90.5189V69.2754L223.65 74.4071Z" fill="white" stroke="#D8D8D8"/>
  <path d="M239.926 87.0785L223.652 95.6518V74.4083L239.926 65.835V87.0785Z" fill="white" stroke="#D8D8D8"/>
  <path d="M239.926 65.834L223.652 74.4073L213.913 69.2756L230.186 60.707L239.926 65.834Z" fill="white" stroke="#D8D8D8"/>
  <path d="M234.664 80.2332V101.472L224.925 96.3451V75.1016L234.664 80.2332Z" fill="white" stroke="#D8D8D8"/>
  <path d="M250.938 92.9027L234.664 101.471V80.2325L250.938 71.6592V92.9027Z" fill="white" stroke="#D8D8D8"/>
  <path d="M250.938 71.6591L234.664 80.2325L224.925 75.1008L241.198 66.5322L250.938 71.6591Z" fill="white" stroke="#D8D8D8"/>
  <path d="M236.061 163.105V162.203L251.638 153.995V154.897L252.699 154.341V60.1484L251.638 60.7086V63.8132L236.061 72.0211V68.9164L235 69.4766V163.67L236.061 163.105ZM250.431 153.52L236.061 161.087V148.161L250.431 153.52ZM251.638 152.599L236.498 146.955L251.638 125.583V152.599ZM236.061 146.214V132.486L251.586 124.311L236.061 146.214ZM250.431 123.793L236.061 131.365V118.439L250.431 123.793ZM251.638 122.877L236.498 117.233L251.638 95.8613V122.877ZM236.061 116.492V102.707L251.648 94.4988L236.061 116.492ZM251.284 93.5684L236.061 101.586V87.8955L251.284 93.5684ZM251.638 92.3341L236.498 86.6898L251.638 65.3181V92.3341ZM236.061 85.9492V73.1366L250.54 65.508L236.061 85.9492Z" fill="#D8D8D8"/>
  <path d="M138.061 132.023V131.121L153.638 122.914V123.816L154.699 123.255V29.0625L153.638 29.6227V32.7273L138.061 40.9351V37.8305L137 38.3906V132.579L138.061 132.023ZM152.431 122.434L138.061 130.001V117.075L152.431 122.434ZM153.638 121.513L138.498 115.869L153.638 94.4972V121.513ZM138.061 115.128V101.395L153.586 93.2155L138.061 115.128ZM152.431 92.7075L138.061 100.274V87.348L152.431 92.7075ZM153.638 91.7913L138.498 86.147L153.638 64.7753V91.7913ZM138.061 85.4064V71.6207L153.648 63.4081L138.061 85.4064ZM153.284 62.4824L138.061 70.5004V56.8096L153.284 62.4824ZM153.638 61.2482L138.498 55.6038L153.638 34.2321V61.2482ZM138.061 54.8633V42.0507L152.545 34.422L138.061 54.8633Z" fill="#D8D8D8"/>
  <path d="M214.953 173.456L137.003 132.388V130.627L214.953 171.695V173.456Z" fill="white"/>
  <path d="M214.952 171.695L137.001 130.627L154.622 121.342L232.578 162.409L214.952 171.695Z" fill="white"/>
  <path d="M148.506 114.463V135.701L138.767 130.575V109.331L148.506 114.463Z" fill="white" stroke="#D8D8D8"/>
  <path d="M164.781 127.128L148.507 135.702V114.463L164.781 105.89V127.128Z" fill="white" stroke="#D8D8D8"/>
  <path d="M164.781 105.889L148.507 114.463L138.768 109.331L155.042 100.758L164.781 105.889Z" fill="white" stroke="#D8D8D8"/>
  <path d="M159.523 120.282V141.526L149.784 136.394V115.155L159.523 120.282Z" fill="white" stroke="#D8D8D8"/>
  <path d="M175.797 132.953L159.523 141.526V120.282L175.797 111.714V132.953Z" fill="white" stroke="#D8D8D8"/>
  <path d="M175.797 111.715L159.523 120.283L149.784 115.156L166.058 106.583L175.797 111.715Z" fill="white" stroke="#D8D8D8"/>
  <path d="M170.529 126.107V147.351L160.795 142.219V120.976L170.529 126.107Z" fill="white" stroke="#D8D8D8"/>
  <path d="M186.805 138.777L170.531 147.35V126.107L186.805 117.538V138.777Z" fill="white" stroke="#D8D8D8"/>
  <path d="M186.805 117.539L170.531 126.108L160.797 120.976L177.071 112.407L186.805 117.539Z" fill="white" stroke="#D8D8D8"/>
  <path d="M181.543 131.934V153.178L171.804 148.046V126.803L181.543 131.934Z" fill="white" stroke="#D8D8D8"/>
  <path d="M197.814 144.605L181.541 153.178V131.935L197.814 123.361V144.605Z" fill="white" stroke="#D8D8D8"/>
  <path d="M197.814 123.361L181.541 131.935L171.801 126.803L188.075 118.234L197.814 123.361Z" fill="white" stroke="#D8D8D8"/>
  <path d="M192.551 137.757V158.995L182.817 153.869V132.625L192.551 137.757Z" fill="white" stroke="#D8D8D8"/>
  <path d="M208.824 150.427L192.55 158.996V137.757L208.824 129.184V150.427Z" fill="white" stroke="#D8D8D8"/>
  <path d="M208.824 129.184L192.55 137.757L182.816 132.625L199.085 124.057L208.824 129.184Z" fill="white" stroke="#D8D8D8"/>
  <path d="M203.57 143.584V164.823L193.831 159.696V138.452L203.57 143.584Z" fill="white" stroke="#D8D8D8"/>
  <path d="M219.844 156.248L203.57 164.822V143.583L219.844 135.01V156.248Z" fill="white" stroke="#D8D8D8"/>
  <path d="M219.844 135.009L203.57 143.582L193.831 138.45L210.104 129.877L219.844 135.009Z" fill="white" stroke="#D8D8D8"/>
  <path d="M214.582 149.403V170.647L204.843 165.515V144.276L214.582 149.403Z" fill="white" stroke="#D8D8D8"/>
  <path d="M230.855 162.073L214.582 170.646V149.403L230.855 140.834V162.073Z" fill="white" stroke="#D8D8D8"/>
  <path d="M230.855 140.834L214.582 149.402L204.842 144.276L221.116 135.702L230.855 140.834Z" fill="white" stroke="#D8D8D8"/>
  <path d="M214.953 144.992L137.003 103.924V102.163L214.953 143.231V144.992Z" fill="white"/>
  <path d="M214.952 143.231L137.001 102.163L154.622 92.8779L232.578 133.946L214.952 143.231Z" fill="white"/>
  <path d="M148.5 85.9998V107.239L138.761 102.107V80.8682L148.5 85.9998Z" fill="white" stroke="#D8D8D8"/>
  <path d="M164.775 98.6693L148.502 107.238V85.9991L164.775 77.4258V98.6693Z" fill="white" stroke="#D8D8D8"/>
  <path d="M164.775 77.4256L148.502 85.999L138.762 80.8673L155.036 72.2939L164.775 77.4256Z" fill="white" stroke="#D8D8D8"/>
  <path d="M159.523 91.8193V113.063L149.784 107.931V86.6924L159.523 91.8193Z" fill="white" stroke="#D8D8D8"/>
  <path d="M175.797 104.49L159.523 113.063V91.8196L175.797 83.251V104.49Z" fill="white" stroke="#D8D8D8"/>
  <path d="M175.797 83.2508L159.523 91.8194L149.784 86.6925L166.058 78.1191L175.797 83.2508Z" fill="white" stroke="#D8D8D8"/>
  <path d="M170.529 97.6435V118.887L160.795 113.755V92.5166L170.529 97.6435Z" fill="white" stroke="#D8D8D8"/>
  <path d="M186.805 110.314L170.531 118.887V97.6438L186.805 89.0752V110.314Z" fill="white" stroke="#D8D8D8"/>
  <path d="M186.805 89.075L170.531 97.6437L160.797 92.5167L177.071 83.9434L186.805 89.075Z" fill="white" stroke="#D8D8D8"/>
  <path d="M181.543 103.47V124.713L171.804 119.581V98.3379L181.543 103.47Z" fill="white" stroke="#D8D8D8"/>
  <path d="M197.814 116.14L181.541 124.713V103.47L197.814 94.8965V116.14Z" fill="white" stroke="#D8D8D8"/>
  <path d="M197.814 94.8955L181.541 103.469L171.801 98.3372L188.075 89.7686L197.814 94.8955Z" fill="white" stroke="#D8D8D8"/>
  <path d="M192.551 109.293V130.532L182.817 125.405V104.161L192.551 109.293Z" fill="white" stroke="#D8D8D8"/>
  <path d="M208.824 121.963L192.55 130.532V109.293L208.824 100.72V121.963Z" fill="white" stroke="#D8D8D8"/>
  <path d="M208.824 100.72L192.55 109.293L182.816 104.161L199.085 95.5928L208.824 100.72Z" fill="white" stroke="#D8D8D8"/>
  <path d="M203.57 115.119V136.358L193.831 131.231V109.987L203.57 115.119Z" fill="white" stroke="#D8D8D8"/>
  <path d="M219.844 127.784L203.57 136.357V115.118L219.844 106.545V127.784Z" fill="white" stroke="#D8D8D8"/>
  <path d="M219.844 106.545L203.57 115.118L193.831 109.987L210.104 101.418L219.844 106.545Z" fill="white" stroke="#D8D8D8"/>
  <path d="M214.582 120.944V142.183L204.843 137.051V115.812L214.582 120.944Z" fill="white" stroke="#D8D8D8"/>
  <path d="M230.855 133.609L214.582 142.182V120.943L230.855 112.37V133.609Z" fill="white" stroke="#D8D8D8"/>
  <path d="M230.855 112.37L214.582 120.943L204.842 115.812L221.116 107.238L230.855 112.37Z" fill="white" stroke="#D8D8D8"/>
  <path d="M214.953 113.977L137.003 72.9096V71.1484L214.953 112.216V113.977Z" fill="white"/>
  <path d="M214.952 112.217L137.001 71.1497L154.622 61.8643L232.578 102.932L214.952 112.217Z" fill="white"/>
  <path d="M148.502 55.3494V76.5929L138.763 71.4613V50.2178L148.502 55.3494Z" fill="white" stroke="#D8D8D8"/>
  <path d="M164.777 68.0199L148.504 76.5932V55.3497L164.777 46.7764V68.0199Z" fill="white" stroke="#D8D8D8"/>
  <path d="M164.777 46.7772L148.504 55.3505L138.764 50.2189L155.038 41.6455L164.777 46.7772Z" fill="white" stroke="#D8D8D8"/>
  <path d="M159.516 61.1746V82.4134L149.776 77.2817V56.043L159.516 61.1746Z" fill="white" stroke="#D8D8D8"/>
  <path d="M175.789 73.8403L159.515 82.4137V61.1749L175.789 52.6016V73.8403Z" fill="white" stroke="#D8D8D8"/>
  <path d="M175.789 52.6014L159.515 61.1747L149.776 56.0431L166.05 47.4697L175.789 52.6014Z" fill="white" stroke="#D8D8D8"/>
  <path d="M170.525 66.9931V88.2366L160.791 83.105V61.8662L170.525 66.9931Z" fill="white" stroke="#D8D8D8"/>
  <path d="M186.801 79.6645L170.527 88.2379V66.9944L186.801 58.4258V79.6645Z" fill="white" stroke="#D8D8D8"/>
  <path d="M186.801 58.4256L170.527 66.9942L160.793 61.8673L177.067 53.2939L186.801 58.4256Z" fill="white" stroke="#D8D8D8"/>
  <path d="M181.539 72.825V94.0638L171.8 88.9321V67.6934L181.539 72.825Z" fill="white" stroke="#D8D8D8"/>
  <path d="M197.812 85.4897L181.539 94.0631V72.8243L197.812 64.251V85.4897Z" fill="white" stroke="#D8D8D8"/>
  <path d="M197.812 64.2508L181.539 72.8241L171.8 67.6925L188.073 59.1191L197.812 64.2508Z" fill="white" stroke="#D8D8D8"/>
  <path d="M192.551 78.6435V99.887L182.817 94.7553V73.5166L192.551 78.6435Z" fill="white" stroke="#D8D8D8"/>
  <path d="M208.824 91.3138L192.55 99.8872V78.6437L208.824 70.0703V91.3138Z" fill="white" stroke="#D8D8D8"/>
  <path d="M208.824 70.0703L192.55 78.6437L182.816 73.5167L199.085 64.9434L208.824 70.0703Z" fill="white" stroke="#D8D8D8"/>
  <path d="M203.566 84.4696V105.713L193.827 100.581V79.3379L203.566 84.4696Z" fill="white" stroke="#D8D8D8"/>
  <path d="M219.84 97.139L203.566 105.712V84.4689L219.84 75.8955V97.139Z" fill="white" stroke="#D8D8D8"/>
  <path d="M219.84 75.8965L203.566 84.4698L193.827 79.3381L210.101 70.7695L219.84 75.8965Z" fill="white" stroke="#D8D8D8"/>
  <path d="M214.578 90.2948V111.534L204.839 106.407V85.1631L214.578 90.2948Z" fill="white" stroke="#D8D8D8"/>
  <path d="M230.852 102.964L214.578 111.533V90.2941L230.852 81.7207V102.964Z" fill="white" stroke="#D8D8D8"/>
  <path d="M230.852 81.7207L214.578 90.294L204.839 85.1623L221.112 76.5938L230.852 81.7207Z" fill="white" stroke="#D8D8D8"/>
  <path d="M215.975 173.167V172.265L231.552 164.057V164.959L232.613 164.404V70.2109L231.552 70.7711V73.8757L215.975 82.0836V78.9789L214.914 79.5391V173.732L215.975 173.167ZM230.345 163.583L215.975 171.15V158.223L230.345 163.583ZM231.552 162.662L216.412 157.017L231.552 135.646V162.662ZM215.975 156.277V142.548L231.5 134.373L215.975 156.277ZM230.345 133.856L215.975 141.428V128.501L230.345 133.856ZM231.552 132.94L216.412 127.295L231.552 105.924V132.94ZM215.975 126.555V112.769L231.562 104.561L215.975 126.555ZM231.198 103.631L215.975 111.649V97.958L231.198 103.631ZM231.552 102.397L216.412 96.7523L231.552 75.3806V102.397ZM215.975 96.0117V83.1991L230.454 75.5705L215.975 96.0117Z" fill="#D8D8D8"/>
  <path d="M62.1472 154.961V154.059L77.7239 145.851V146.753L78.7852 146.193V52L77.7239 52.5602V55.6648L62.1472 63.8726V60.768L61.0859 61.3281V155.516L62.1472 154.961ZM76.5168 145.372L62.1472 152.939V140.012L76.5168 145.372ZM77.7239 144.451L62.5842 138.806L77.7239 117.435V144.451ZM62.1472 138.066V124.332L77.6718 116.153L62.1472 138.066ZM76.5168 115.645L62.1472 123.212V110.286L76.5168 115.645ZM77.7239 114.729L62.5842 109.084L77.7239 87.7128V114.729ZM62.1472 108.344V94.5582L77.7342 86.3456L62.1472 108.344ZM77.3701 85.4199L62.1472 93.4379V79.7471L77.3701 85.4199ZM77.7239 84.1857L62.5842 78.5413L77.7239 57.1696V84.1857ZM62.1472 77.8008V64.9882L76.6313 57.3595L62.1472 77.8008Z" fill="#D8D8D8"/>
  <path d="M139.039 196.393L61.0885 155.326V153.564L139.039 194.632V196.393Z" fill="white"/>
  <path d="M139.038 194.632L61.0871 153.565L78.7083 144.279L156.664 185.347L139.038 194.632Z" fill="white"/>
  <path d="M72.5938 137.401V158.64L62.8545 153.513V132.27L72.5938 137.401Z" fill="white" stroke="#D8D8D8"/>
  <path d="M88.8652 150.066L72.5914 158.639V137.4L88.8652 128.827V150.066Z" fill="white" stroke="#D8D8D8"/>
  <path d="M88.8652 128.827L72.5915 137.4L62.8522 132.269L79.126 123.695L88.8652 128.827Z" fill="white" stroke="#D8D8D8"/>
  <path d="M83.6094 143.224V164.467L73.8701 159.335V138.097L83.6094 143.224Z" fill="white" stroke="#D8D8D8"/>
  <path d="M99.8809 155.893L83.6071 164.466V143.223L99.8809 134.654V155.893Z" fill="white" stroke="#D8D8D8"/>
  <path d="M99.8809 134.654L83.6071 143.223L73.8679 138.096L90.1416 129.522L99.8809 134.654Z" fill="white" stroke="#D8D8D8"/>
  <path d="M94.6172 149.045V170.288L84.8831 165.157V143.913L94.6172 149.045Z" fill="white" stroke="#D8D8D8"/>
  <path d="M110.891 161.713L94.6169 170.287V149.043L110.891 140.475V161.713Z" fill="white" stroke="#D8D8D8"/>
  <path d="M110.891 140.476L94.6168 149.045L84.8828 143.913L101.156 135.345L110.891 140.476Z" fill="white" stroke="#D8D8D8"/>
  <path d="M105.629 154.871V176.114L95.8897 170.983V149.739L105.629 154.871Z" fill="white" stroke="#D8D8D8"/>
  <path d="M121.902 167.541L105.629 176.115V154.871L121.902 146.298V167.541Z" fill="white" stroke="#D8D8D8"/>
  <path d="M121.902 146.297L105.629 154.87L95.8894 149.739L112.163 141.17L121.902 146.297Z" fill="white" stroke="#D8D8D8"/>
  <path d="M116.641 160.696V181.935L106.907 176.808V155.564L116.641 160.696Z" fill="white" stroke="#D8D8D8"/>
  <path d="M132.914 173.366L116.64 181.934V160.695L132.914 152.122V173.366Z" fill="white" stroke="#D8D8D8"/>
  <path d="M132.914 152.122L116.64 160.695L106.906 155.564L123.175 146.995L132.914 152.122Z" fill="white" stroke="#D8D8D8"/>
  <path d="M127.656 166.52V187.759L117.917 182.632V161.389L127.656 166.52Z" fill="white" stroke="#D8D8D8"/>
  <path d="M143.93 179.186L127.656 187.759V166.521L143.93 157.947V179.186Z" fill="white" stroke="#D8D8D8"/>
  <path d="M143.93 157.948L127.656 166.521L117.917 161.39L134.19 152.816L143.93 157.948Z" fill="white" stroke="#D8D8D8"/>
  <path d="M138.668 172.341V193.584L128.929 188.453V167.214L138.668 172.341Z" fill="white" stroke="#D8D8D8"/>
  <path d="M154.941 185.01L138.668 193.584V172.34L154.941 163.771V185.01Z" fill="white" stroke="#D8D8D8"/>
  <path d="M154.941 163.77L138.668 172.339L128.928 167.212L145.202 158.639L154.941 163.77Z" fill="white" stroke="#D8D8D8"/>
  <path d="M139.039 167.928L61.0885 126.861V125.1L139.039 166.167V167.928Z" fill="white"/>
  <path d="M139.038 166.167L61.0871 125.1L78.7083 115.814L156.664 156.882L139.038 166.167Z" fill="white"/>
  <path d="M72.5898 108.937V130.176L62.8506 125.044V103.806L72.5898 108.937Z" fill="white" stroke="#D8D8D8"/>
  <path d="M88.8633 121.607L72.5895 130.175V108.937L88.8633 100.363V121.607Z" fill="white" stroke="#D8D8D8"/>
  <path d="M88.8633 100.363L72.5895 108.936L62.8502 103.805L79.124 95.2314L88.8633 100.363Z" fill="white" stroke="#D8D8D8"/>
  <path d="M83.6055 114.757V136L73.8662 130.869V109.63L83.6055 114.757Z" fill="white" stroke="#D8D8D8"/>
  <path d="M99.8789 127.426L83.6052 136V114.756L99.8789 106.188V127.426Z" fill="white" stroke="#D8D8D8"/>
  <path d="M99.8789 106.188L83.6052 114.757L73.8659 109.63L90.1397 101.057L99.8789 106.188Z" fill="white" stroke="#D8D8D8"/>
  <path d="M94.6172 120.581V141.825L84.8831 136.693V115.454L94.6172 120.581Z" fill="white" stroke="#D8D8D8"/>
  <path d="M110.889 133.251L94.6149 141.825V120.581L110.889 112.013V133.251Z" fill="white" stroke="#D8D8D8"/>
  <path d="M110.889 112.013L94.6149 120.581L84.8808 115.454L101.155 106.881L110.889 112.013Z" fill="white" stroke="#D8D8D8"/>
  <path d="M105.629 126.407V147.651L95.8897 142.519V121.275L105.629 126.407Z" fill="white" stroke="#D8D8D8"/>
  <path d="M121.902 139.077L105.629 147.651V126.407L121.902 117.834V139.077Z" fill="white" stroke="#D8D8D8"/>
  <path d="M121.902 117.833L105.629 126.406L95.8894 121.275L112.163 112.706L121.902 117.833Z" fill="white" stroke="#D8D8D8"/>
  <path d="M116.637 132.229V153.468L106.903 148.341V127.098L116.637 132.229Z" fill="white" stroke="#D8D8D8"/>
  <path d="M132.91 144.9L116.636 153.468V132.23L132.91 123.656V144.9Z" fill="white" stroke="#D8D8D8"/>
  <path d="M132.91 123.656L116.636 132.23L106.902 127.098L123.171 118.529L132.91 123.656Z" fill="white" stroke="#D8D8D8"/>
  <path d="M127.65 138.055V159.294L117.911 154.167V132.924L127.65 138.055Z" fill="white" stroke="#D8D8D8"/>
  <path d="M143.926 150.721L127.652 159.295V138.056L143.926 129.482V150.721Z" fill="white" stroke="#D8D8D8"/>
  <path d="M143.926 129.482L127.652 138.056L117.913 132.924L134.186 124.355L143.926 129.482Z" fill="white" stroke="#D8D8D8"/>
  <path d="M138.664 143.881V165.119L128.925 159.988V138.749L138.664 143.881Z" fill="white" stroke="#D8D8D8"/>
  <path d="M154.938 156.545L138.664 165.119V143.88L154.938 135.307V156.545Z" fill="white" stroke="#D8D8D8"/>
  <path d="M154.938 135.306L138.664 143.88L128.925 138.748L145.198 130.175L154.938 135.306Z" fill="white" stroke="#D8D8D8"/>
  <path d="M139.039 136.918L61.0885 95.8501V94.0889L139.039 135.156V136.918Z" fill="white"/>
  <path d="M139.038 135.156L61.0871 94.0882L78.7083 84.8027L156.664 125.87L139.038 135.156Z" fill="white"/>
  <path d="M72.5898 78.2889V99.5324L62.8506 94.4007V73.1572L72.5898 78.2889Z" fill="white" stroke="#D8D8D8"/>
  <path d="M88.8633 90.9583L72.5895 99.5317V78.2882L88.8633 69.7148V90.9583Z" fill="white" stroke="#D8D8D8"/>
  <path d="M88.8633 69.7147L72.5895 78.288L62.8502 73.1564L79.124 64.583L88.8633 69.7147Z" fill="white" stroke="#D8D8D8"/>
  <path d="M83.6055 84.1131V105.352L73.8662 100.22V78.9814L83.6055 84.1131Z" fill="white" stroke="#D8D8D8"/>
  <path d="M99.8789 96.7778L83.6052 105.351V84.1124L99.8789 75.5391V96.7778Z" fill="white" stroke="#D8D8D8"/>
  <path d="M99.8789 75.5399L83.6052 84.1132L73.8659 78.9816L90.1397 70.4082L99.8789 75.5399Z" fill="white" stroke="#D8D8D8"/>
  <path d="M94.6172 89.9326V111.176L84.8831 106.044V84.8057L94.6172 89.9326Z" fill="white" stroke="#D8D8D8"/>
  <path d="M110.889 102.604L94.6149 111.177V89.9338L110.889 81.3652V102.604Z" fill="white" stroke="#D8D8D8"/>
  <path d="M110.889 81.3641L94.6149 89.9327L84.8808 84.8058L101.155 76.2324L110.889 81.3641Z" fill="white" stroke="#D8D8D8"/>
  <path d="M105.629 95.7625V117.001L95.8897 111.87V90.6309L105.629 95.7625Z" fill="white" stroke="#D8D8D8"/>
  <path d="M121.902 108.429L105.629 117.003V95.7638L121.902 87.1904V108.429Z" fill="white" stroke="#D8D8D8"/>
  <path d="M121.902 87.1903L105.629 95.7636L95.8894 90.6319L112.163 82.0586L121.902 87.1903Z" fill="white" stroke="#D8D8D8"/>
  <path d="M116.637 101.582V122.826L106.903 117.694V96.4551L116.637 101.582Z" fill="white" stroke="#D8D8D8"/>
  <path d="M132.91 114.253L116.636 122.827V101.583L132.91 93.0098V114.253Z" fill="white" stroke="#D8D8D8"/>
  <path d="M132.91 93.0097L116.636 101.583L106.902 96.4562L123.171 87.8828L132.91 93.0097Z" fill="white" stroke="#D8D8D8"/>
  <path d="M127.65 107.407V128.651L117.911 123.519V102.275L127.65 107.407Z" fill="white" stroke="#D8D8D8"/>
  <path d="M143.926 120.078L127.652 128.652V107.408L143.926 98.835V120.078Z" fill="white" stroke="#D8D8D8"/>
  <path d="M143.926 98.834L127.652 107.407L117.913 102.276L134.186 93.707L143.926 98.834Z" fill="white" stroke="#D8D8D8"/>
  <path d="M138.664 113.233V134.472L128.925 129.345V108.102L138.664 113.233Z" fill="white" stroke="#D8D8D8"/>
  <path d="M154.938 125.903L138.664 134.471V113.233L154.938 104.659V125.903Z" fill="white" stroke="#D8D8D8"/>
  <path d="M154.938 104.659L138.664 113.232L128.925 108.101L145.198 99.5322L154.938 104.659Z" fill="white" stroke="#D8D8D8"/>
  <path d="M140.061 196.105V195.203L155.638 186.995V187.897L156.699 187.341V93.1484L155.638 93.7086V96.8132L140.061 105.021V101.916L139 102.477V196.67L140.061 196.105ZM154.431 186.52L140.061 194.087V181.161L154.431 186.52ZM155.638 185.599L140.498 179.955L155.638 158.583V185.599ZM140.061 179.214V165.486L155.586 157.311L140.061 179.214ZM154.431 156.793L140.061 164.365V151.439L154.431 156.793ZM155.638 155.877L140.498 150.233L155.638 128.861V155.877ZM140.061 149.492V135.707L155.648 127.499L140.061 149.492ZM155.284 126.568L140.061 134.586V120.896L155.284 126.568ZM155.638 125.334L140.498 119.69L155.638 98.3181V125.334ZM140.061 118.949V106.137L154.54 98.508L140.061 118.949Z" fill="#D8D8D8"/>
  <path d="M42.0613 165.023V164.121L57.6379 155.914V156.816L58.6992 156.255V62.0625L57.6379 62.6227V65.7273L42.0613 73.9351V70.8305L40.9999 71.3906V165.579L42.0613 165.023ZM56.4309 155.434L42.0613 163.001V150.075L56.4309 155.434ZM57.6379 154.513L42.4983 148.869L57.6379 127.497V154.513ZM42.0613 148.128V134.395L57.5859 126.215L42.0613 148.128ZM56.4309 125.708L42.0613 133.274V120.348L56.4309 125.708ZM57.6379 124.791L42.4983 119.147L57.6379 97.7753V124.791ZM42.0613 118.406V104.621L57.6483 96.4081L42.0613 118.406ZM57.2841 95.4824L42.0613 103.5V89.8096L57.2841 95.4824ZM57.6379 94.2482L42.4983 88.6038L57.6379 67.2321V94.2482ZM42.0613 87.8633V75.0507L56.5453 67.422L42.0613 87.8633Z" fill="#D8D8D8"/>
  <path d="M118.953 206.456L41.0026 165.388V163.627L118.953 204.695V206.456Z" fill="white"/>
  <path d="M118.952 204.695L41.0012 163.627L58.6224 154.342L136.578 195.409L118.952 204.695Z" fill="white"/>
  <path d="M52.5059 147.463V168.701L42.7666 163.575V142.331L52.5059 147.463Z" fill="white" stroke="#D8D8D8"/>
  <path d="M68.7812 160.128L52.5075 168.702V147.463L68.7812 138.89V160.128Z" fill="white" stroke="#D8D8D8"/>
  <path d="M68.7812 138.889L52.5075 147.463L42.7682 142.331L59.042 133.758L68.7812 138.889Z" fill="white" stroke="#D8D8D8"/>
  <path d="M63.5234 153.282V174.526L53.7842 169.394V148.155L63.5234 153.282Z" fill="white" stroke="#D8D8D8"/>
  <path d="M79.7969 165.953L63.5231 174.526V153.282L79.7969 144.714V165.953Z" fill="white" stroke="#D8D8D8"/>
  <path d="M79.7969 144.715L63.5231 153.283L53.7839 148.156L70.0576 139.583L79.7969 144.715Z" fill="white" stroke="#D8D8D8"/>
  <path d="M74.5293 159.107V180.351L64.7953 175.219V153.976L74.5293 159.107Z" fill="white" stroke="#D8D8D8"/>
  <path d="M90.8047 171.777L74.531 180.35V159.107L90.8047 150.538V171.777Z" fill="white" stroke="#D8D8D8"/>
  <path d="M90.8047 150.539L74.5309 159.108L64.7968 153.976L81.0706 145.407L90.8047 150.539Z" fill="white" stroke="#D8D8D8"/>
  <path d="M85.543 164.934V186.178L75.8037 181.046V159.803L85.543 164.934Z" fill="white" stroke="#D8D8D8"/>
  <path d="M101.814 177.605L85.5407 186.178V164.935L101.814 156.361V177.605Z" fill="white" stroke="#D8D8D8"/>
  <path d="M101.814 156.361L85.5407 164.935L75.8015 159.803L92.0752 151.234L101.814 156.361Z" fill="white" stroke="#D8D8D8"/>
  <path d="M96.5508 170.757V191.995L86.8167 186.869V165.625L96.5508 170.757Z" fill="white" stroke="#D8D8D8"/>
  <path d="M112.824 183.427L96.5505 191.996V170.757L112.824 162.184V183.427Z" fill="white" stroke="#D8D8D8"/>
  <path d="M112.824 162.184L96.5504 170.757L86.8164 165.625L103.085 157.057L112.824 162.184Z" fill="white" stroke="#D8D8D8"/>
  <path d="M107.57 176.584V197.823L97.8311 192.696V171.452L107.57 176.584Z" fill="white" stroke="#D8D8D8"/>
  <path d="M123.844 189.248L107.57 197.822V176.583L123.844 168.01V189.248Z" fill="white" stroke="#D8D8D8"/>
  <path d="M123.844 168.009L107.57 176.582L97.8308 171.45L114.104 162.877L123.844 168.009Z" fill="white" stroke="#D8D8D8"/>
  <path d="M118.582 182.403V203.647L108.843 198.515V177.276L118.582 182.403Z" fill="white" stroke="#D8D8D8"/>
  <path d="M134.855 195.073L118.582 203.646V182.403L134.855 173.834V195.073Z" fill="white" stroke="#D8D8D8"/>
  <path d="M134.855 173.834L118.582 182.402L108.842 177.276L125.116 168.702L134.855 173.834Z" fill="white" stroke="#D8D8D8"/>
  <path d="M118.953 177.992L41.0026 136.924V135.163L118.953 176.231V177.992Z" fill="white"/>
  <path d="M118.952 176.231L41.0012 135.163L58.6224 125.878L136.578 166.946L118.952 176.231Z" fill="white"/>
  <path d="M52.5 119V140.239L42.7607 135.107V113.868L52.5 119Z" fill="white" stroke="#D8D8D8"/>
  <path d="M68.7754 131.669L52.5016 140.238V118.999L68.7754 110.426V131.669Z" fill="white" stroke="#D8D8D8"/>
  <path d="M68.7754 110.426L52.5016 118.999L42.7623 113.867L59.0361 105.294L68.7754 110.426Z" fill="white" stroke="#D8D8D8"/>
  <path d="M63.5234 124.819V146.063L53.7842 140.931V119.692L63.5234 124.819Z" fill="white" stroke="#D8D8D8"/>
  <path d="M79.7969 137.49L63.5231 146.063V124.82L79.7969 116.251V137.49Z" fill="white" stroke="#D8D8D8"/>
  <path d="M79.7969 116.251L63.5231 124.819L53.7839 119.693L70.0576 111.119L79.7969 116.251Z" fill="white" stroke="#D8D8D8"/>
  <path d="M74.5293 130.644V151.887L64.7953 146.755V125.517L74.5293 130.644Z" fill="white" stroke="#D8D8D8"/>
  <path d="M90.8047 143.314L74.531 151.887V130.644L90.8047 122.075V143.314Z" fill="white" stroke="#D8D8D8"/>
  <path d="M90.8047 122.075L74.5309 130.644L64.7968 125.517L81.0706 116.943L90.8047 122.075Z" fill="white" stroke="#D8D8D8"/>
  <path d="M85.543 136.47V157.713L75.8037 152.581V131.338L85.543 136.47Z" fill="white" stroke="#D8D8D8"/>
  <path d="M101.814 149.14L85.5407 157.713V136.47L101.814 127.896V149.14Z" fill="white" stroke="#D8D8D8"/>
  <path d="M101.814 127.895L85.5407 136.469L75.8015 131.337L92.0752 122.769L101.814 127.895Z" fill="white" stroke="#D8D8D8"/>
  <path d="M96.5508 142.293V163.532L86.8167 158.405V137.161L96.5508 142.293Z" fill="white" stroke="#D8D8D8"/>
  <path d="M112.824 154.963L96.5505 163.532V142.293L112.824 133.72V154.963Z" fill="white" stroke="#D8D8D8"/>
  <path d="M112.824 133.72L96.5504 142.293L86.8164 137.161L103.085 128.593L112.824 133.72Z" fill="white" stroke="#D8D8D8"/>
  <path d="M107.57 148.119V169.358L97.8311 164.231V142.987L107.57 148.119Z" fill="white" stroke="#D8D8D8"/>
  <path d="M123.844 160.784L107.57 169.357V148.118L123.844 139.545V160.784Z" fill="white" stroke="#D8D8D8"/>
  <path d="M123.844 139.545L107.57 148.118L97.8308 142.987L114.104 134.418L123.844 139.545Z" fill="white" stroke="#D8D8D8"/>
  <path d="M118.582 153.944V175.183L108.843 170.051V148.812L118.582 153.944Z" fill="white" stroke="#D8D8D8"/>
  <path d="M134.855 166.609L118.582 175.182V153.943L134.855 145.37V166.609Z" fill="white" stroke="#D8D8D8"/>
  <path d="M134.855 145.37L118.582 153.943L108.842 148.812L125.116 140.238L134.855 145.37Z" fill="white" stroke="#D8D8D8"/>
  <path d="M118.953 146.977L41.0026 105.91V104.148L118.953 145.216V146.977Z" fill="white"/>
  <path d="M118.952 145.217L41.0012 104.15L58.6224 94.8643L136.578 135.932L118.952 145.217Z" fill="white"/>
  <path d="M52.502 88.3494V109.593L42.7627 104.461V83.2178L52.502 88.3494Z" fill="white" stroke="#D8D8D8"/>
  <path d="M68.7773 101.02L52.5035 109.593V88.3497L68.7773 79.7764V101.02Z" fill="white" stroke="#D8D8D8"/>
  <path d="M68.7773 79.7772L52.5036 88.3505L42.7643 83.2189L59.0381 74.6455L68.7773 79.7772Z" fill="white" stroke="#D8D8D8"/>
  <path d="M63.5156 94.1746V115.413L53.7764 110.282V89.043L63.5156 94.1746Z" fill="white" stroke="#D8D8D8"/>
  <path d="M79.7891 106.84L63.5153 115.414V94.1749L79.7891 85.6016V106.84Z" fill="white" stroke="#D8D8D8"/>
  <path d="M79.7891 85.6014L63.5153 94.1747L53.7761 89.0431L70.0498 80.4697L79.7891 85.6014Z" fill="white" stroke="#D8D8D8"/>
  <path d="M74.5254 99.9931V121.237L64.7913 116.105V94.8662L74.5254 99.9931Z" fill="white" stroke="#D8D8D8"/>
  <path d="M90.8008 112.665L74.5271 121.238V99.9944L90.8008 91.4258V112.665Z" fill="white" stroke="#D8D8D8"/>
  <path d="M90.8008 91.4256L74.527 99.9942L64.7929 94.8673L81.0667 86.2939L90.8008 91.4256Z" fill="white" stroke="#D8D8D8"/>
  <path d="M85.5391 105.825V127.064L75.7998 121.932V100.693L85.5391 105.825Z" fill="white" stroke="#D8D8D8"/>
  <path d="M101.812 118.49L85.5388 127.063V105.824L101.812 97.251V118.49Z" fill="white" stroke="#D8D8D8"/>
  <path d="M101.812 97.2508L85.5388 105.824L75.7995 100.692L92.0733 92.1191L101.812 97.2508Z" fill="white" stroke="#D8D8D8"/>
  <path d="M96.5508 111.644V132.887L86.8167 127.755V106.517L96.5508 111.644Z" fill="white" stroke="#D8D8D8"/>
  <path d="M112.824 124.314L96.5505 132.887V111.644L112.824 103.07V124.314Z" fill="white" stroke="#D8D8D8"/>
  <path d="M112.824 103.07L96.5504 111.644L86.8164 106.517L103.085 97.9434L112.824 103.07Z" fill="white" stroke="#D8D8D8"/>
  <path d="M107.566 117.47V138.713L97.8272 133.581V112.338L107.566 117.47Z" fill="white" stroke="#D8D8D8"/>
  <path d="M123.84 130.139L107.566 138.712V117.469L123.84 108.896V130.139Z" fill="white" stroke="#D8D8D8"/>
  <path d="M123.84 108.896L107.566 117.47L97.8269 112.338L114.101 103.77L123.84 108.896Z" fill="white" stroke="#D8D8D8"/>
  <path d="M118.578 123.295V144.534L108.839 139.407V118.163L118.578 123.295Z" fill="white" stroke="#D8D8D8"/>
  <path d="M134.852 135.964L118.578 144.533V123.294L134.852 114.721V135.964Z" fill="white" stroke="#D8D8D8"/>
  <path d="M134.852 114.721L118.578 123.294L108.839 118.162L125.112 109.594L134.852 114.721Z" fill="white" stroke="#D8D8D8"/>
  <path d="M119.975 206.167V205.265L135.552 197.057V197.959L136.613 197.404V103.211L135.552 103.771V106.876L119.975 115.084V111.979L118.914 112.539V206.732L119.975 206.167ZM134.345 196.583L119.975 204.15V191.223L134.345 196.583ZM135.552 195.662L120.412 190.017L135.552 168.646V195.662ZM119.975 189.277V175.548L135.5 167.373L119.975 189.277ZM134.345 166.856L119.975 174.428V161.501L134.345 166.856ZM135.552 165.94L120.412 160.295L135.552 138.924V165.94ZM119.975 159.555V145.769L135.562 137.561L119.975 159.555ZM135.198 136.631L119.975 144.649V130.958L135.198 136.631ZM135.552 135.397L120.412 129.752L135.552 108.381V135.397ZM119.975 129.012V116.199L134.454 108.57L119.975 129.012Z" fill="#D8D8D8"/>
  <path d="M21.1472 173.961V173.059L36.7239 164.851V165.753L37.7852 165.193V71L36.7239 71.5602V74.6648L21.1472 82.8726V79.768L20.0859 80.3281V174.516L21.1472 173.961ZM35.5168 164.372L21.1472 171.939V159.012L35.5168 164.372ZM36.7239 163.451L21.5842 157.806L36.7239 136.435V163.451ZM21.1472 157.066V143.332L36.6718 135.153L21.1472 157.066ZM35.5168 134.645L21.1472 142.212V129.286L35.5168 134.645ZM36.7239 133.729L21.5842 128.084L36.7239 106.713V133.729ZM21.1472 127.344V113.558L36.7342 105.346L21.1472 127.344ZM36.3701 104.42L21.1472 112.438V98.7471L36.3701 104.42ZM36.7239 103.186L21.5842 97.5413L36.7239 76.1696V103.186ZM21.1472 96.8008V83.9882L35.6313 76.3595L21.1472 96.8008Z" fill="#D8D8D8"/>
  <path d="M98.0391 215.393L20.0885 174.326V172.564L98.0391 213.632V215.393Z" fill="white"/>
  <path d="M98.0377 213.632L20.0871 172.565L37.7083 163.279L115.664 204.347L98.0377 213.632Z" fill="white"/>
  <path d="M31.5938 156.401V177.64L21.8545 172.513V151.27L31.5938 156.401Z" fill="white" stroke="#D8D8D8"/>
  <path d="M47.8652 169.066L31.5914 177.639V156.4L47.8652 147.827V169.066Z" fill="white" stroke="#D8D8D8"/>
  <path d="M47.8652 147.827L31.5915 156.4L21.8522 151.269L38.126 142.695L47.8652 147.827Z" fill="white" stroke="#D8D8D8"/>
  <path d="M42.6094 162.224V183.467L32.8701 178.335V157.097L42.6094 162.224Z" fill="white" stroke="#D8D8D8"/>
  <path d="M58.8809 174.893L42.6071 183.466V162.223L58.8809 153.654V174.893Z" fill="white" stroke="#D8D8D8"/>
  <path d="M58.8809 153.654L42.6071 162.223L32.8679 157.096L49.1416 148.522L58.8809 153.654Z" fill="white" stroke="#D8D8D8"/>
  <path d="M53.6172 168.045V189.288L43.8831 184.157V162.913L53.6172 168.045Z" fill="white" stroke="#D8D8D8"/>
  <path d="M69.8906 180.713L53.6169 189.287V168.043L69.8906 159.475V180.713Z" fill="white" stroke="#D8D8D8"/>
  <path d="M69.8906 159.476L53.6168 168.045L43.8828 162.913L60.1565 154.345L69.8906 159.476Z" fill="white" stroke="#D8D8D8"/>
  <path d="M64.6289 173.871V195.114L54.8897 189.983V168.739L64.6289 173.871Z" fill="white" stroke="#D8D8D8"/>
  <path d="M80.9023 186.541L64.6286 195.115V173.871L80.9023 165.298V186.541Z" fill="white" stroke="#D8D8D8"/>
  <path d="M80.9023 165.297L64.6286 173.87L54.8894 168.739L71.1631 160.17L80.9023 165.297Z" fill="white" stroke="#D8D8D8"/>
  <path d="M75.6406 179.696V200.935L65.9066 195.808V174.564L75.6406 179.696Z" fill="white" stroke="#D8D8D8"/>
  <path d="M91.9141 192.366L75.6403 200.934V179.695L91.9141 171.122V192.366Z" fill="white" stroke="#D8D8D8"/>
  <path d="M91.9141 171.122L75.6403 179.695L65.9062 174.564L82.1748 165.995L91.9141 171.122Z" fill="white" stroke="#D8D8D8"/>
  <path d="M86.6562 185.52V206.759L76.917 201.632V180.389L86.6562 185.52Z" fill="white" stroke="#D8D8D8"/>
  <path d="M102.93 198.186L86.656 206.759V185.521L102.93 176.947V198.186Z" fill="white" stroke="#D8D8D8"/>
  <path d="M102.93 176.948L86.656 185.521L76.9167 180.39L93.1904 171.816L102.93 176.948Z" fill="white" stroke="#D8D8D8"/>
  <path d="M97.668 191.341V212.584L87.9287 207.453V186.214L97.668 191.341Z" fill="white" stroke="#D8D8D8"/>
  <path d="M113.941 204.01L97.6677 212.584V191.34L113.941 182.771V204.01Z" fill="white" stroke="#D8D8D8"/>
  <path d="M113.941 182.77L97.6677 191.339L87.9284 186.212L104.202 177.639L113.941 182.77Z" fill="white" stroke="#D8D8D8"/>
  <path d="M98.0391 186.928L20.0885 145.861V144.1L98.0391 185.167V186.928Z" fill="white"/>
  <path d="M98.0377 185.167L20.0871 144.1L37.7083 134.814L115.664 175.882L98.0377 185.167Z" fill="white"/>
  <path d="M31.5898 127.937V149.176L21.8506 144.044V122.806L31.5898 127.937Z" fill="white" stroke="#D8D8D8"/>
  <path d="M47.8633 140.607L31.5895 149.175V127.937L47.8633 119.363V140.607Z" fill="white" stroke="#D8D8D8"/>
  <path d="M47.8633 119.363L31.5895 127.936L21.8502 122.805L38.124 114.231L47.8633 119.363Z" fill="white" stroke="#D8D8D8"/>
  <path d="M42.6055 133.757V155L32.8662 149.869V128.63L42.6055 133.757Z" fill="white" stroke="#D8D8D8"/>
  <path d="M58.8789 146.426L42.6052 155V133.756L58.8789 125.188V146.426Z" fill="white" stroke="#D8D8D8"/>
  <path d="M58.8789 125.188L42.6052 133.757L32.8659 128.63L49.1397 120.057L58.8789 125.188Z" fill="white" stroke="#D8D8D8"/>
  <path d="M53.6172 139.581V160.825L43.8831 155.693V134.454L53.6172 139.581Z" fill="white" stroke="#D8D8D8"/>
  <path d="M69.8887 152.251L53.6149 160.825V139.581L69.8887 131.013V152.251Z" fill="white" stroke="#D8D8D8"/>
  <path d="M69.8887 131.013L53.6149 139.581L43.8808 134.454L60.1545 125.881L69.8887 131.013Z" fill="white" stroke="#D8D8D8"/>
  <path d="M64.6289 145.407V166.651L54.8897 161.519V140.275L64.6289 145.407Z" fill="white" stroke="#D8D8D8"/>
  <path d="M80.9023 158.077L64.6286 166.651V145.407L80.9023 136.834V158.077Z" fill="white" stroke="#D8D8D8"/>
  <path d="M80.9023 136.833L64.6286 145.406L54.8894 140.275L71.1631 131.706L80.9023 136.833Z" fill="white" stroke="#D8D8D8"/>
  <path d="M75.6367 151.229V172.468L65.9027 167.341V146.098L75.6367 151.229Z" fill="white" stroke="#D8D8D8"/>
  <path d="M91.9102 163.9L75.6364 172.468V151.23L91.9102 142.656V163.9Z" fill="white" stroke="#D8D8D8"/>
  <path d="M91.9102 142.656L75.6364 151.23L65.9023 146.098L82.1709 137.529L91.9102 142.656Z" fill="white" stroke="#D8D8D8"/>
  <path d="M86.6504 157.055V178.294L76.9111 173.167V151.924L86.6504 157.055Z" fill="white" stroke="#D8D8D8"/>
  <path d="M102.926 169.721L86.6521 178.295V157.056L102.926 148.482V169.721Z" fill="white" stroke="#D8D8D8"/>
  <path d="M102.926 148.482L86.652 157.056L76.9128 151.924L93.1865 143.355L102.926 148.482Z" fill="white" stroke="#D8D8D8"/>
  <path d="M97.6641 162.881V184.119L87.9248 178.988V157.749L97.6641 162.881Z" fill="white" stroke="#D8D8D8"/>
  <path d="M113.938 175.545L97.6638 184.119V162.88L113.938 154.307V175.545Z" fill="white" stroke="#D8D8D8"/>
  <path d="M113.938 154.306L97.6638 162.88L87.9245 157.748L104.198 149.175L113.938 154.306Z" fill="white" stroke="#D8D8D8"/>
  <path d="M98.0391 155.918L20.0885 114.85V113.089L98.0391 154.156V155.918Z" fill="white"/>
  <path d="M98.0377 154.156L20.0871 113.088L37.7083 103.803L115.664 144.87L98.0377 154.156Z" fill="white"/>
  <path d="M31.5898 97.2889V118.532L21.8506 113.401V92.1572L31.5898 97.2889Z" fill="white" stroke="#D8D8D8"/>
  <path d="M47.8633 109.958L31.5895 118.532V97.2882L47.8633 88.7148V109.958Z" fill="white" stroke="#D8D8D8"/>
  <path d="M47.8633 88.7147L31.5895 97.288L21.8502 92.1564L38.124 83.583L47.8633 88.7147Z" fill="white" stroke="#D8D8D8"/>
  <path d="M42.6055 103.113V124.352L32.8662 119.22V97.9814L42.6055 103.113Z" fill="white" stroke="#D8D8D8"/>
  <path d="M58.8789 115.778L42.6052 124.351V103.112L58.8789 94.5391V115.778Z" fill="white" stroke="#D8D8D8"/>
  <path d="M58.8789 94.5399L42.6052 103.113L32.8659 97.9816L49.1397 89.4082L58.8789 94.5399Z" fill="white" stroke="#D8D8D8"/>
  <path d="M53.6172 108.933V130.176L43.8831 125.044V103.806L53.6172 108.933Z" fill="white" stroke="#D8D8D8"/>
  <path d="M69.8887 121.604L53.6149 130.177V108.934L69.8887 100.365V121.604Z" fill="white" stroke="#D8D8D8"/>
  <path d="M69.8887 100.364L53.6149 108.933L43.8808 103.806L60.1545 95.2324L69.8887 100.364Z" fill="white" stroke="#D8D8D8"/>
  <path d="M64.6289 114.763V136.001L54.8897 130.87V109.631L64.6289 114.763Z" fill="white" stroke="#D8D8D8"/>
  <path d="M80.9023 127.429L64.6286 136.003V114.764L80.9023 106.19V127.429Z" fill="white" stroke="#D8D8D8"/>
  <path d="M80.9023 106.19L64.6286 114.764L54.8894 109.632L71.1631 101.059L80.9023 106.19Z" fill="white" stroke="#D8D8D8"/>
  <path d="M75.6367 120.582V141.826L65.9027 136.694V115.455L75.6367 120.582Z" fill="white" stroke="#D8D8D8"/>
  <path d="M91.9102 133.253L75.6364 141.827V120.583L91.9102 112.01V133.253Z" fill="white" stroke="#D8D8D8"/>
  <path d="M91.9102 112.01L75.6364 120.583L65.9023 115.456L82.1709 106.883L91.9102 112.01Z" fill="white" stroke="#D8D8D8"/>
  <path d="M86.6504 126.407V147.651L76.9111 142.519V121.275L86.6504 126.407Z" fill="white" stroke="#D8D8D8"/>
  <path d="M102.926 139.078L86.6521 147.652V126.408L102.926 117.835V139.078Z" fill="white" stroke="#D8D8D8"/>
  <path d="M102.926 117.834L86.652 126.407L76.9128 121.276L93.1865 112.707L102.926 117.834Z" fill="white" stroke="#D8D8D8"/>
  <path d="M97.6641 132.233V153.472L87.9248 148.345V127.102L97.6641 132.233Z" fill="white" stroke="#D8D8D8"/>
  <path d="M113.938 144.903L97.6638 153.471V132.233L113.938 123.659V144.903Z" fill="white" stroke="#D8D8D8"/>
  <path d="M113.938 123.659L97.6638 132.232L87.9245 127.101L104.198 118.532L113.938 123.659Z" fill="white" stroke="#D8D8D8"/>
  <path d="M99.0613 215.105V214.203L114.638 205.995V206.897L115.699 206.341V112.148L114.638 112.709V115.813L99.0613 124.021V120.916L98 121.477V215.67L99.0613 215.105ZM113.431 205.52L99.0613 213.087V200.161L113.431 205.52ZM114.638 204.599L99.4983 198.955L114.638 177.583V204.599ZM99.0613 198.214V184.486L114.586 176.311L99.0613 198.214ZM113.431 175.793L99.0613 183.365V170.439L113.431 175.793ZM114.638 174.877L99.4983 169.233L114.638 147.861V174.877ZM99.0613 168.492V154.707L114.648 146.499L99.0613 168.492ZM114.284 145.568L99.0613 153.586V139.896L114.284 145.568ZM114.638 144.334L99.4983 138.69L114.638 117.318V144.334ZM99.0613 137.949V125.137L113.54 117.508L99.0613 137.949Z" fill="#D8D8D8"/>
  <path d="M1.06128 184.023V183.121L16.6379 174.914V175.816L17.6992 175.255V81.0625L16.6379 81.6227V84.7273L1.06128 92.9351V89.8305L-7.05719e-05 90.3906V184.579L1.06128 184.023ZM15.4309 174.434L1.06128 182.001V169.075L15.4309 174.434ZM16.6379 173.513L1.49828 167.869L16.6379 146.497V173.513ZM1.06128 167.128V153.395L16.5859 145.215L1.06128 167.128ZM15.4309 144.708L1.06128 152.274V139.348L15.4309 144.708ZM16.6379 143.791L1.49828 138.147L16.6379 116.775V143.791ZM1.06128 137.406V123.621L16.6483 115.408L1.06128 137.406ZM16.2841 114.482L1.06128 122.5V108.81L16.2841 114.482ZM16.6379 113.248L1.49828 107.604L16.6379 86.2321V113.248ZM1.06128 106.863V94.0507L15.5453 86.422L1.06128 106.863Z" fill="#D8D8D8"/>
  <path d="M77.9531 225.456L0.00258636 184.388V182.627L77.9531 223.695V225.456Z" fill="white"/>
  <path d="M77.9517 223.695L0.00115204 182.627L17.6224 173.342L95.5781 214.409L77.9517 223.695Z" fill="white"/>
  <path d="M11.5059 166.463V187.701L1.76661 182.575V161.331L11.5059 166.463Z" fill="white" stroke="#D8D8D8"/>
  <path d="M27.7812 179.128L11.5075 187.702V166.463L27.7812 157.89V179.128Z" fill="white" stroke="#D8D8D8"/>
  <path d="M27.7812 157.889L11.5075 166.463L1.76821 161.331L18.042 152.758L27.7812 157.889Z" fill="white" stroke="#D8D8D8"/>
  <path d="M22.5234 172.282V193.526L12.7842 188.394V167.155L22.5234 172.282Z" fill="white" stroke="#D8D8D8"/>
  <path d="M38.7969 184.953L22.5231 193.526V172.282L38.7969 163.714V184.953Z" fill="white" stroke="#D8D8D8"/>
  <path d="M38.7969 163.715L22.5231 172.283L12.7839 167.156L29.0576 158.583L38.7969 163.715Z" fill="white" stroke="#D8D8D8"/>
  <path d="M33.5293 178.107V199.351L23.7953 194.219V172.976L33.5293 178.107Z" fill="white" stroke="#D8D8D8"/>
  <path d="M49.8047 190.777L33.531 199.35V178.107L49.8047 169.538V190.777Z" fill="white" stroke="#D8D8D8"/>
  <path d="M49.8047 169.539L33.5309 178.108L23.7968 172.976L40.0706 164.407L49.8047 169.539Z" fill="white" stroke="#D8D8D8"/>
  <path d="M44.543 183.933V205.177L34.8037 200.045V178.802L44.543 183.933Z" fill="white" stroke="#D8D8D8"/>
  <path d="M60.8145 196.605L44.5407 205.178V183.935L60.8145 175.361V196.605Z" fill="white" stroke="#D8D8D8"/>
  <path d="M60.8145 175.36L44.5407 183.934L34.8015 178.802L51.0752 170.233L60.8145 175.36Z" fill="white" stroke="#D8D8D8"/>
  <path d="M55.5508 189.757V210.995L45.8167 205.869V184.625L55.5508 189.757Z" fill="white" stroke="#D8D8D8"/>
  <path d="M71.8242 202.427L55.5505 210.996V189.757L71.8242 181.184V202.427Z" fill="white" stroke="#D8D8D8"/>
  <path d="M71.8242 181.184L55.5504 189.757L45.8164 184.625L62.0849 176.057L71.8242 181.184Z" fill="white" stroke="#D8D8D8"/>
  <path d="M66.5703 195.584V216.823L56.8311 211.696V190.452L66.5703 195.584Z" fill="white" stroke="#D8D8D8"/>
  <path d="M82.8438 208.248L66.57 216.821V195.582L82.8438 187.009V208.248Z" fill="white" stroke="#D8D8D8"/>
  <path d="M82.8438 187.009L66.57 195.582L56.8308 190.45L73.1044 181.877L82.8438 187.009Z" fill="white" stroke="#D8D8D8"/>
  <path d="M77.582 201.403V222.647L67.8428 217.515V196.276L77.582 201.403Z" fill="white" stroke="#D8D8D8"/>
  <path d="M93.8555 214.073L77.5817 222.646V201.403L93.8555 192.834V214.073Z" fill="white" stroke="#D8D8D8"/>
  <path d="M93.8555 192.834L77.5817 201.402L67.8425 196.276L84.1162 187.702L93.8555 192.834Z" fill="white" stroke="#D8D8D8"/>
  <path d="M77.9531 196.991L0.00258636 155.923V154.162L77.9531 195.23V196.991Z" fill="white"/>
  <path d="M77.9517 195.231L0.00115204 154.163L17.6224 144.878L95.5781 185.946L77.9517 195.231Z" fill="white"/>
  <path d="M11.5 138V159.239L1.76075 154.107V132.868L11.5 138Z" fill="white" stroke="#D8D8D8"/>
  <path d="M27.7754 150.669L11.5016 159.238V137.999L27.7754 129.426V150.669Z" fill="white" stroke="#D8D8D8"/>
  <path d="M27.7754 129.426L11.5016 137.999L1.76235 132.867L18.0361 124.294L27.7754 129.426Z" fill="white" stroke="#D8D8D8"/>
  <path d="M22.5234 143.819V165.063L12.7842 159.931V138.692L22.5234 143.819Z" fill="white" stroke="#D8D8D8"/>
  <path d="M38.7969 156.49L22.5231 165.063V143.82L38.7969 135.251V156.49Z" fill="white" stroke="#D8D8D8"/>
  <path d="M38.7969 135.251L22.5231 143.819L12.7839 138.693L29.0576 130.119L38.7969 135.251Z" fill="white" stroke="#D8D8D8"/>
  <path d="M33.5293 149.644V170.887L23.7953 165.755V144.517L33.5293 149.644Z" fill="white" stroke="#D8D8D8"/>
  <path d="M49.8047 162.315L33.531 170.888V149.645L49.8047 141.076V162.315Z" fill="white" stroke="#D8D8D8"/>
  <path d="M49.8047 141.075L33.5309 149.644L23.7968 144.517L40.0706 135.943L49.8047 141.075Z" fill="white" stroke="#D8D8D8"/>
  <path d="M44.543 155.47V176.713L34.8037 171.581V150.338L44.543 155.47Z" fill="white" stroke="#D8D8D8"/>
  <path d="M60.8145 168.14L44.5407 176.713V155.47L60.8145 146.896V168.14Z" fill="white" stroke="#D8D8D8"/>
  <path d="M60.8145 146.895L44.5407 155.469L34.8015 150.337L51.0752 141.769L60.8145 146.895Z" fill="white" stroke="#D8D8D8"/>
  <path d="M55.5508 161.293V182.532L45.8167 177.405V156.161L55.5508 161.293Z" fill="white" stroke="#D8D8D8"/>
  <path d="M71.8242 173.963L55.5505 182.532V161.293L71.8242 152.72V173.963Z" fill="white" stroke="#D8D8D8"/>
  <path d="M71.8242 152.72L55.5504 161.293L45.8164 156.161L62.0849 147.593L71.8242 152.72Z" fill="white" stroke="#D8D8D8"/>
  <path d="M66.5703 167.119V188.358L56.8311 183.231V161.987L66.5703 167.119Z" fill="white" stroke="#D8D8D8"/>
  <path d="M82.8438 179.784L66.57 188.357V167.118L82.8438 158.545V179.784Z" fill="white" stroke="#D8D8D8"/>
  <path d="M82.8438 158.545L66.57 167.118L56.8308 161.987L73.1044 153.418L82.8438 158.545Z" fill="white" stroke="#D8D8D8"/>
  <path d="M77.582 172.944V194.183L67.8428 189.051V167.812L77.582 172.944Z" fill="white" stroke="#D8D8D8"/>
  <path d="M93.8555 185.609L77.5817 194.182V172.943L93.8555 164.37V185.609Z" fill="white" stroke="#D8D8D8"/>
  <path d="M93.8555 164.37L77.5817 172.943L67.8425 167.812L84.1162 159.238L93.8555 164.37Z" fill="white" stroke="#D8D8D8"/>
  <path d="M77.9531 165.978L0.00258636 124.911V123.149L77.9531 164.217V165.978Z" fill="white"/>
  <path d="M77.9517 164.217L0.00115204 123.15L17.6224 113.864L95.5781 154.932L77.9517 164.217Z" fill="white"/>
  <path d="M11.502 107.349V128.593L1.7627 123.461V102.218L11.502 107.349Z" fill="white" stroke="#D8D8D8"/>
  <path d="M27.7773 120.02L11.5035 128.593V107.35L27.7773 98.7764V120.02Z" fill="white" stroke="#D8D8D8"/>
  <path d="M27.7773 98.7772L11.5036 107.351L1.7643 102.219L18.0381 93.6455L27.7773 98.7772Z" fill="white" stroke="#D8D8D8"/>
  <path d="M22.5156 113.176V134.414L12.7764 129.283V108.044L22.5156 113.176Z" fill="white" stroke="#D8D8D8"/>
  <path d="M38.7891 125.841L22.5153 134.415V113.176L38.7891 104.603V125.841Z" fill="white" stroke="#D8D8D8"/>
  <path d="M38.7891 104.602L22.5153 113.176L12.7761 108.044L29.0498 99.4707L38.7891 104.602Z" fill="white" stroke="#D8D8D8"/>
  <path d="M33.5254 118.993V140.237L23.7913 135.105V113.866L33.5254 118.993Z" fill="white" stroke="#D8D8D8"/>
  <path d="M49.8008 131.665L33.5271 140.238V118.994L49.8008 110.426V131.665Z" fill="white" stroke="#D8D8D8"/>
  <path d="M49.8008 110.426L33.527 118.994L23.7929 113.867L40.0667 105.294L49.8008 110.426Z" fill="white" stroke="#D8D8D8"/>
  <path d="M44.5391 124.825V146.064L34.7998 140.932V119.693L44.5391 124.825Z" fill="white" stroke="#D8D8D8"/>
  <path d="M60.8125 137.491L44.5388 146.064V124.825L60.8125 116.252V137.491Z" fill="white" stroke="#D8D8D8"/>
  <path d="M60.8125 116.251L44.5388 124.824L34.7995 119.692L51.0733 111.119L60.8125 116.251Z" fill="white" stroke="#D8D8D8"/>
  <path d="M55.5508 130.644V151.887L45.8167 146.755V125.517L55.5508 130.644Z" fill="white" stroke="#D8D8D8"/>
  <path d="M71.8242 143.314L55.5505 151.887V130.644L71.8242 122.07V143.314Z" fill="white" stroke="#D8D8D8"/>
  <path d="M71.8242 122.07L55.5504 130.644L45.8164 125.517L62.0849 116.943L71.8242 122.07Z" fill="white" stroke="#D8D8D8"/>
  <path d="M66.5664 136.47V157.713L56.8272 152.581V131.338L66.5664 136.47Z" fill="white" stroke="#D8D8D8"/>
  <path d="M82.8398 149.139L66.5661 157.712V136.469L82.8398 127.896V149.139Z" fill="white" stroke="#D8D8D8"/>
  <path d="M82.8398 127.896L66.5661 136.47L56.8269 131.338L73.1005 122.77L82.8398 127.896Z" fill="white" stroke="#D8D8D8"/>
  <path d="M77.5781 142.295V163.534L67.8389 158.407V137.163L77.5781 142.295Z" fill="white" stroke="#D8D8D8"/>
  <path d="M93.8516 154.964L77.5778 163.533V142.294L93.8516 133.721V154.964Z" fill="white" stroke="#D8D8D8"/>
  <path d="M93.8516 133.721L77.5778 142.294L67.8386 137.162L84.1123 128.594L93.8516 133.721Z" fill="white" stroke="#D8D8D8"/>
  <path d="M78.9754 225.167V224.265L94.5519 216.057V216.959L95.6133 216.404V122.211L94.5519 122.771V125.876L78.9754 134.084V130.979L77.9141 131.539V225.732L78.9754 225.167ZM93.345 215.583L78.9754 223.15V210.223L93.345 215.583ZM94.5519 214.662L79.4124 209.017L94.5519 187.646V214.662ZM78.9754 208.277V194.548L94.4999 186.373L78.9754 208.277ZM93.345 185.856L78.9754 193.428V180.501L93.345 185.856ZM94.5519 184.94L79.4124 179.295L94.5519 157.924V184.94ZM78.9754 178.555V164.769L94.5623 156.561L78.9754 178.555ZM94.1982 155.631L78.9754 163.649V149.958L94.1982 155.631ZM94.5519 154.397L79.4124 148.752L94.5519 127.381V154.397ZM78.9754 148.012V135.199L93.4542 127.57L78.9754 148.012Z" fill="#D8D8D8"/>
</svg>
