<svg width="180" height="142" viewBox="0 0 180 142" fill="none" xmlns="http://www.w3.org/2000/svg">
  <path d="M38.9515 11.8487L76.2399 1.38672L179.355 60.8117V98.1868L104.78 141.246L1.66423 81.8208V44.4458L38.9515 11.8487Z" fill="white"/>
  <path d="M1.66457 44.4458L38.9518 11.8487L76.2402 1.38672V38.7618L1.66457 81.8208V44.4458Z" fill="white"/>
  <path d="M38.2881 11.462L75.5765 1L76.2399 1.38792L38.9515 11.8499L2.16327 44.0105L104.614 103.057L141.406 70.8929L178.694 60.4309L179.355 60.8129V98.188L105.587 140.781L105.403 140.887L104.78 141.247L1.00084 81.4341V44.0602L38.2881 11.462Z" fill="white" stroke="#D8D8D8"/>
  <path d="M101.822 104.883V139.541L102.32 139.829V105.171L101.822 104.883Z" fill="#D8D8D8"/>
  <path d="M99.5088 103.551V138.208L100.008 138.495V103.838L99.5088 103.551Z" fill="#D8D8D8"/>
  <path d="M97.1963 102.219V136.877L97.6953 137.163V102.505L97.1963 102.219Z" fill="#D8D8D8"/>
  <path d="M94.8877 100.887V135.545L95.3867 135.833V101.174L94.8877 100.887Z" fill="#D8D8D8"/>
  <path d="M92.5732 99.5547V134.212L93.0723 134.499V99.8421L92.5732 99.5547Z" fill="#D8D8D8"/>
  <path d="M90.2619 98.2227V132.88L90.7598 133.169V98.51L90.2619 98.2227Z" fill="#D8D8D8"/>
  <path d="M87.9502 96.8906V131.549L88.4492 131.836V97.178L87.9502 96.8906Z" fill="#D8D8D8"/>
  <path d="M85.6369 95.5566V130.215L86.1348 130.501V95.844L85.6369 95.5566Z" fill="#D8D8D8"/>
  <path d="M83.3232 94.2246V128.881L83.8223 129.169V94.5108L83.3232 94.2246Z" fill="#D8D8D8"/>
  <path d="M81.0127 92.8906V127.549L81.5117 127.836V93.178L81.0127 92.8906Z" fill="#D8D8D8"/>
  <path d="M78.6994 91.5586V126.217L79.1973 126.504V91.8472L78.6994 91.5586Z" fill="#D8D8D8"/>
  <path d="M76.3865 90.2266V124.884L76.8867 125.171V90.514L76.3865 90.2266Z" fill="#D8D8D8"/>
  <path d="M74.0771 88.8945V123.553L74.5762 123.84V89.1819L74.0771 88.8945Z" fill="#D8D8D8"/>
  <path d="M71.7639 87.5625V122.22L72.2617 122.507V87.8487L71.7639 87.5625Z" fill="#D8D8D8"/>
  <path d="M69.4502 86.2266V120.885L69.9492 121.172V86.514L69.4502 86.2266Z" fill="#D8D8D8"/>
  <path d="M67.1389 84.8945V119.553L67.6367 119.84V85.1831L67.1389 84.8945Z" fill="#D8D8D8"/>
  <path d="M64.7014 83.2695V117.928L65.1992 118.215V83.5581L64.7014 83.2695Z" fill="#D8D8D8"/>
  <path d="M62.3877 81.9375V116.595L62.8867 116.882V82.2249L62.3877 81.9375Z" fill="#D8D8D8"/>
  <path d="M60.0752 80.6055V115.264L60.5742 115.55V80.8917L60.0752 80.6055Z" fill="#D8D8D8"/>
  <path d="M57.7666 79.2734V113.932L58.2656 114.219V79.5608L57.7666 79.2734Z" fill="#D8D8D8"/>
  <path d="M55.4521 77.9414V112.599L55.9512 112.886V78.2288L55.4521 77.9414Z" fill="#D8D8D8"/>
  <path d="M53.1408 76.6094V111.267L53.6387 111.555V76.8968L53.1408 76.6094Z" fill="#D8D8D8"/>
  <path d="M50.8291 75.2773V109.936L51.3281 110.223V75.5647L50.8291 75.2773Z" fill="#D8D8D8"/>
  <path d="M48.5158 73.9434V108.602L49.0137 108.888V74.2307L48.5158 73.9434Z" fill="#D8D8D8"/>
  <path d="M46.2021 72.6113V107.267L46.7012 107.556V72.8975L46.2021 72.6113Z" fill="#D8D8D8"/>
  <path d="M43.8916 71.2773V105.936L44.3906 106.223V71.5647L43.8916 71.2773Z" fill="#D8D8D8"/>
  <path d="M41.5783 69.9453V104.604L42.0762 104.891V70.2339L41.5783 69.9453Z" fill="#D8D8D8"/>
  <path d="M39.2654 68.6133V103.271L39.7656 103.558V68.9007L39.2654 68.6133Z" fill="#D8D8D8"/>
  <path d="M36.9541 67.2812V101.94L37.4531 102.227V67.5686L36.9541 67.2812Z" fill="#D8D8D8"/>
  <path d="M34.6428 65.9492V100.606L35.1406 100.894V66.2354L34.6428 65.9492Z" fill="#D8D8D8"/>
  <path d="M32.3291 64.6133V99.2717L32.8281 99.5591V64.9007L32.3291 64.6133Z" fill="#D8D8D8"/>
  <path d="M30.0178 63.2812V97.9397L30.5156 98.2271V63.5698L30.0178 63.2812Z" fill="#D8D8D8"/>
  <path d="M27.8986 62.0391V96.6975L28.3965 96.9849V62.3276L27.8986 62.0391Z" fill="#D8D8D8"/>
  <path d="M25.5869 60.707V95.3643L26.0859 95.6517V60.9944L25.5869 60.707Z" fill="#D8D8D8"/>
  <path d="M23.2744 59.375V94.0334L23.7734 94.3197V59.6612L23.2744 59.375Z" fill="#D8D8D8"/>
  <path d="M20.9619 58.043V92.7014L21.4609 92.9888V58.3304L20.9619 58.043Z" fill="#D8D8D8"/>
  <path d="M18.6494 56.7109V91.3682L19.1484 91.6556V56.9983L18.6494 56.7109Z" fill="#D8D8D8"/>
  <path d="M16.3381 55.377V90.0342L16.8359 90.3228V55.6643L16.3381 55.377Z" fill="#D8D8D8"/>
  <path d="M14.0244 54.043V88.7014L14.5234 88.9888V54.3304L14.0244 54.043Z" fill="#D8D8D8"/>
  <path d="M11.7131 52.7109V87.3694L12.2109 87.6556V52.9983L11.7131 52.7109Z" fill="#D8D8D8"/>
  <path d="M9.3994 51.3789V86.035L9.89844 86.3236V51.6651L9.3994 51.3789Z" fill="#D8D8D8"/>
  <path d="M7.08689 50.0449V84.7034L7.58594 84.9908V50.3323L7.08689 50.0449Z" fill="#D8D8D8"/>
  <path d="M4.77558 48.7129V83.3713L5.27344 83.6587V49.0015L4.77558 48.7129Z" fill="#D8D8D8"/>
  <path d="M2.46464 47.3809V82.0381L2.96484 82.3255V47.6682L2.46464 47.3809Z" fill="#D8D8D8"/>
  <path d="M106.502 105.076V140.252L106.969 139.982V104.668L106.502 105.076Z" fill="#D8D8D8"/>
  <path d="M104.334 106.156V141.333L104.801 141.062V105.748L104.334 106.156Z" fill="#D8D8D8"/>
  <path d="M108.662 103.187V139.004L109.129 138.736V102.777L108.662 103.187Z" fill="#D8D8D8"/>
  <path d="M110.83 101.295V137.754L111.297 137.486V100.887L110.83 101.295Z" fill="#D8D8D8"/>
  <path d="M112.994 99.4002V136.504L113.461 136.234V98.9922L112.994 99.4002Z" fill="#D8D8D8"/>
  <path d="M115.158 97.5096V135.256L115.625 134.986V97.1016L115.158 97.5096Z" fill="#D8D8D8"/>
  <path d="M117.322 95.6162V134.004L117.789 133.734V95.207L117.322 95.6162Z" fill="#D8D8D8"/>
  <path d="M119.488 93.7244V132.755L119.955 132.487V93.3164L119.488 93.7244Z" fill="#D8D8D8"/>
  <path d="M121.65 91.8338V131.507L122.117 131.237V91.4258L121.65 91.8338Z" fill="#D8D8D8"/>
  <path d="M123.818 89.9405V130.257L124.285 129.986V89.5312L123.818 89.9405Z" fill="#D8D8D8"/>
  <path d="M125.98 88.0479V129.006L126.447 128.736V87.6387L125.98 88.0479Z" fill="#D8D8D8"/>
  <path d="M128.144 86.1561V127.757L128.611 127.487V85.748L128.144 86.1561Z" fill="#D8D8D8"/>
  <path d="M130.31 84.2635V126.506L130.777 126.237V83.8555L130.31 84.2635Z" fill="#D8D8D8"/>
  <path d="M132.474 82.3701V125.255L132.941 124.985V81.9609L132.474 82.3701Z" fill="#D8D8D8"/>
  <path d="M134.638 80.4783V124.006L135.105 123.737V80.0703L134.638 80.4783Z" fill="#D8D8D8"/>
  <path d="M136.802 78.5877V122.758L137.27 122.489V78.1797L136.802 78.5877Z" fill="#D8D8D8"/>
  <path d="M138.967 76.6932V121.507L139.436 121.238V76.2852L138.967 76.6932Z" fill="#D8D8D8"/>
  <path d="M141.131 74.8026V120.258L141.598 119.987V74.3945L141.131 74.8026Z" fill="#D8D8D8"/>
  <path d="M143.297 73.641V119.009L143.764 118.738V73.5098L143.297 73.641Z" fill="#D8D8D8"/>
  <path d="M145.461 73.0336V117.759L145.928 117.489V72.9023L145.461 73.0336Z" fill="#D8D8D8"/>
  <path d="M147.623 72.4242V116.507L148.09 116.239V72.293L147.623 72.4242Z" fill="#D8D8D8"/>
  <path d="M149.791 71.8188V115.259L150.258 114.99V71.6875L149.791 71.8188Z" fill="#D8D8D8"/>
  <path d="M151.955 71.2094V114.008L152.422 113.739V71.0781L151.955 71.2094Z" fill="#D8D8D8"/>
  <path d="M154.119 70.6039V112.759L154.586 112.49V70.4727L154.119 70.6039Z" fill="#D8D8D8"/>
  <path d="M156.282 69.9953V111.509L156.75 111.24V69.8652L156.282 69.9953Z" fill="#D8D8D8"/>
  <path d="M158.447 69.3879V110.259L158.914 109.991V69.2578L158.447 69.3879Z" fill="#D8D8D8"/>
  <path d="M160.611 68.7817V109.011L161.078 108.74V68.6504L160.611 68.7817Z" fill="#D8D8D8"/>
  <path d="M162.775 68.1742V107.761L163.242 107.49V68.043L162.775 68.1742Z" fill="#D8D8D8"/>
  <path d="M164.941 67.5688V106.512L165.408 106.241V67.4375L164.941 67.5688Z" fill="#D8D8D8"/>
  <path d="M167.106 66.9594V105.261L167.572 104.992V66.8281L167.106 66.9594Z" fill="#D8D8D8"/>
  <path d="M169.267 66.3539V104.012L169.734 103.743V66.2227L169.267 66.3539Z" fill="#D8D8D8"/>
  <path d="M171.433 65.7446V102.76L171.9 102.492V65.6133L171.433 65.7446Z" fill="#D8D8D8"/>
  <path d="M173.599 65.1379V101.512L174.064 101.243V65.0078L173.599 65.1379Z" fill="#D8D8D8"/>
  <path d="M175.763 64.5297V100.261L176.23 99.9912V64.3984L175.763 64.5297Z" fill="#D8D8D8"/>
  <path d="M177.927 63.9223V99.0112L178.395 98.7416V63.791L177.927 63.9223Z" fill="#D8D8D8"/>
  <path d="M38.1751 11.462L141.835 71.2749L179.123 60.8129L75.3441 1L38.1751 11.462Z" fill="white" stroke="#D8D8D8" stroke-linejoin="round"/>
  <path d="M175.662 58.6016L176.105 58.857L138.784 69.2244L138.339 68.9689L175.662 58.6016Z" fill="#D8D8D8"/>
  <path d="M171.762 56.3516L172.207 56.6082L134.884 66.9756L134.442 66.7213L171.762 56.3516Z" fill="#D8D8D8"/>
  <path d="M167.866 54.1055L168.309 54.3609L130.988 64.7307L130.544 64.474L167.866 54.1055Z" fill="#D8D8D8"/>
  <path d="M163.963 51.8594L164.406 52.1148L127.084 62.4834L126.641 62.2291L163.963 51.8594Z" fill="#D8D8D8"/>
  <path d="M160.066 49.6113L160.508 49.8668L123.186 60.2342L122.742 59.9787L160.066 49.6113Z" fill="#D8D8D8"/>
  <path d="M156.165 47.3633L156.609 47.6187L119.285 57.9861L118.843 57.7306L156.165 47.3633Z" fill="#D8D8D8"/>
  <path d="M152.267 45.1152L152.711 45.3719L115.389 55.7404L114.945 55.4838L152.267 45.1152Z" fill="#D8D8D8"/>
  <path d="M148.365 42.8672L148.809 43.1226L111.487 53.4912L111.044 53.2357L148.365 42.8672Z" fill="#D8D8D8"/>
  <path d="M144.467 40.6211L144.91 40.8766L107.587 51.2463L107.144 50.9896L144.467 40.6211Z" fill="#D8D8D8"/>
  <path d="M140.569 38.375L141.012 38.6305L103.69 49.0002L103.247 48.7424L140.569 38.375Z" fill="#D8D8D8"/>
  <path d="M136.667 36.125L137.113 36.3816L99.7894 46.749L99.3459 46.4936L136.667 36.125Z" fill="#D8D8D8"/>
  <path d="M132.769 33.8789L133.211 34.1344L95.8894 44.5029L95.4471 44.2475L132.769 33.8789Z" fill="#D8D8D8"/>
  <path d="M128.87 31.6328L129.314 31.8883L91.9917 42.2568L91.5483 42.0014L128.87 31.6328Z" fill="#D8D8D8"/>
  <path d="M124.971 29.3848L125.414 29.6402L88.0925 40.0088L87.6479 39.7533L124.971 29.3848Z" fill="#D8D8D8"/>
  <path d="M121.071 27.1367L121.516 27.3922L84.1929 37.7607L83.7494 37.5053L121.071 27.1367Z" fill="#D8D8D8"/>
  <path d="M117.173 24.8906L117.615 25.1449L80.2937 35.5135L79.8491 35.258L117.173 24.8906Z" fill="#D8D8D8"/>
  <path d="M113.27 22.6426L113.715 22.898L76.3921 33.2666L75.9487 33.0111L113.27 22.6426Z" fill="#D8D8D8"/>
  <path d="M109.373 20.3945L109.816 20.65L72.4949 31.0186L72.0502 30.7631L109.373 20.3945Z" fill="#D8D8D8"/>
  <path d="M105.475 18.1484L105.918 18.4039L68.5952 28.7725L68.153 28.517L105.475 18.1484Z" fill="#D8D8D8"/>
  <path d="M101.575 15.9004L102.02 16.157L64.698 26.5256L64.2522 26.269L101.575 15.9004Z" fill="#D8D8D8"/>
  <path d="M97.6749 13.6523L98.1172 13.9078L60.7957 24.2764L60.3534 24.0209L97.6749 13.6523Z" fill="#D8D8D8"/>
  <path d="M93.7753 11.4062L94.2188 11.6617L56.8972 22.0303L56.4526 21.7748L93.7753 11.4062Z" fill="#D8D8D8"/>
  <path d="M89.8757 9.1582L90.3203 9.41366L52.9976 19.7822L52.5541 19.5268L89.8757 9.1582Z" fill="#D8D8D8"/>
  <path d="M85.9765 6.91016L86.4199 7.16798L49.0984 17.5365L48.6537 17.2811L85.9765 6.91016Z" fill="#D8D8D8"/>
  <path d="M82.0773 4.66211L82.5195 4.91875L45.198 15.2885L44.7545 15.033L82.0773 4.66211Z" fill="#D8D8D8"/>
  <path d="M78.6632 2.41602L79.1055 2.67266L41.7839 13.0424L41.3405 12.7869L78.6632 2.41602Z" fill="#D8D8D8"/>
  <path d="M168.32 82.625V99.34L155.707 106.623V89.9084L168.32 82.625Z" fill="white"/>
  <path opacity="0.4" d="M155.707 89.9084L168.32 82.625V99.34L155.707 92.6391V89.9084Z" fill="#D8D8D8"/>
  <path d="M154.543 114.133L171.176 104.53V100.988L154.543 110.591V114.133Z" fill="white"/>
  <path d="M172.841 73.5273L175.406 74.9929V103.444L172.339 105.215L171.175 104.53V100.988L168.32 99.3396V82.6246L155.707 89.908V114.816L152.639 116.587L150.075 115.123V86.6717L172.841 73.5273Z" fill="white" stroke="#D8D8D8"/>
  <path d="M152.639 88.1374V116.587L150.075 115.123V86.6719L152.639 88.1374Z" fill="#D8D8D8" stroke="#D8D8D8"/>
  <path d="M175.406 74.9922V103.443L172.339 105.214V80.3045L171.175 80.9766L155.707 89.9073V114.816L152.639 116.586V88.1366L175.406 74.9922Z" fill="white" stroke="#D8D8D8"/>
  <path d="M168.32 99.3398L171.176 100.988V104.53L155.707 113.46V109.918V106.623L168.32 99.3398Z" fill="#D8D8D8"/>
  <path opacity="0.6" d="M155.707 109.919L171.176 100.988V104.53L155.707 113.46V109.919Z" fill="#D8D8D8"/>
  <path d="M169.904 100.254L155.707 108.452V107.534L169.11 99.7949L169.904 100.254Z" fill="white"/>
  <path d="M167.174 106.84L169.879 105.279L169.88 105.277L171.176 103.034V100.988L170.243 101.529H170.24L167.174 106.84Z" fill="white"/>
  <path d="M161.887 109.894L164.592 108.332H164.593L167.66 103.02L164.955 104.582H164.953L161.887 109.894Z" fill="white"/>
  <path d="M156.597 112.946L159.301 111.384H159.304L162.371 106.07L159.665 107.634L159.664 107.635L156.597 112.946Z" fill="white"/>
  <path d="M155.707 109.918V111.507L157.084 109.125L155.707 109.918Z" fill="white"/>
  <path d="M155.706 89.909L170.9 81.1367V100.834L155.706 109.607V89.909Z" fill="#D8D8D8"/>
  <path opacity="0.4" d="M155.706 89.909L170.9 81.1367V81.9673L155.706 90.7396V89.909Z" fill="#D8D8D8"/>
  <path d="M167.109 100.468L164.398 87.5469L162.155 88.8423L159.451 104.89L161.953 103.445L162.469 100.049L164.107 99.1034L164.595 101.92L167.109 100.468ZM163.931 97.4014L162.635 98.1504L163.27 92.4083L163.931 97.4014Z" fill="white"/>
  <path d="M135.793 101.387V118.102L123.18 125.385V108.67L135.793 101.387Z" fill="white"/>
  <path d="M122.016 132.894L138.648 123.292V119.75L122.016 129.353V132.894Z" fill="white"/>
  <path d="M140.314 92.2891L142.879 93.7546V122.206L139.812 123.976L138.648 123.291V119.75L135.792 118.101V101.386L123.179 108.67V133.578L120.112 135.349L117.548 133.884V105.433L140.314 92.2891Z" fill="white" stroke="#D8D8D8"/>
  <path d="M120.113 106.899V135.349L117.549 133.885V105.434L120.113 106.899Z" fill="#D8D8D8"/>
  <path d="M135.793 118.102L138.648 119.75V123.292L123.18 132.222V128.68V125.385L135.793 118.102Z" fill="#D8D8D8"/>
  <path opacity="0.6" d="M123.18 128.681L138.648 119.75V123.292L123.18 132.222V128.681Z" fill="#D8D8D8"/>
  <path d="M137.375 119.016L123.177 127.214V126.296L136.58 118.559L137.375 119.016Z" fill="white"/>
  <path d="M138.375 96.3555V104.34L123.18 113.112V105.128L138.375 96.3555Z" fill="#D8D8D8"/>
  <path d="M134.647 125.602L137.352 124.041L137.353 124.038L138.648 121.796V119.75L137.715 120.291H137.713L134.647 125.602Z" fill="white"/>
  <path d="M129.359 128.656L132.064 127.094H132.065L135.133 121.781L132.427 123.343H132.425L129.359 128.656Z" fill="white"/>
  <path d="M124.07 131.708L126.774 130.145H126.775L129.844 124.832L127.138 126.395L127.136 126.397L124.07 131.708Z" fill="white"/>
  <path d="M123.18 128.68V130.269L124.557 127.887L123.18 128.68Z" fill="white"/>
  <g opacity="0.3">
    <path opacity="0.3" d="M138.373 104.1V104.341L123.178 113.113V112.872L138.373 104.1Z" fill="#D8D8D8"/>
    <path opacity="0.3" d="M123.178 112.091L138.373 103.32V103.561L123.178 112.334V112.091Z" fill="#D8D8D8"/>
    <path opacity="0.3" d="M123.178 111.314L138.373 102.543V102.784L123.178 111.556V111.314Z" fill="#D8D8D8"/>
    <path opacity="0.3" d="M123.178 110.537L138.373 101.766V102.007L123.178 110.779V110.537Z" fill="#D8D8D8"/>
    <path opacity="0.3" d="M123.178 109.757L138.373 100.984V101.227L123.178 109.999V109.757Z" fill="#D8D8D8"/>
    <path opacity="0.3" d="M123.178 108.979L138.373 100.207V100.448L123.178 109.22V108.979Z" fill="#D8D8D8"/>
    <path opacity="0.3" d="M123.178 108.202L138.373 99.4297V99.672L123.178 108.444V108.202Z" fill="#D8D8D8"/>
    <path opacity="0.3" d="M123.178 107.425L138.373 98.6523V98.8947L123.178 107.667V107.425Z" fill="#D8D8D8"/>
    <path opacity="0.3" d="M123.178 106.645L138.373 97.873V98.1154L123.178 106.888V106.645Z" fill="#D8D8D8"/>
    <path opacity="0.3" d="M123.178 105.866L138.373 97.0938V97.3361L123.178 106.108V105.866Z" fill="#D8D8D8"/>
    <path opacity="0.3" d="M123.176 105.089L138.371 96.3164V96.5587L123.176 105.331V105.089Z" fill="#D8D8D8"/>
  </g>
  <path d="M142.879 93.7539V122.205L139.812 123.976V99.0662L138.648 99.7384L123.179 108.669V133.577L120.112 135.348V106.898L142.879 93.7539Z" fill="white"/>
  <path d="M142.879 93.7539V122.205L139.812 123.976V99.0662L138.648 99.7384L123.179 108.669V133.577L120.112 135.348V106.898L142.879 93.7539Z" fill="white" stroke="#D8D8D8"/>
  <line x1="138.634" y1="69.2954" x2="101.499" y2="101.724" stroke="#D8D8D8" stroke-width="0.8"/>
  <line x1="99.9779" y1="46.8286" x2="62.8425" y2="79.2568" stroke="#D8D8D8" stroke-width="0.8"/>
  <line x1="61.0522" y1="24.1822" x2="23.9167" y2="56.6103" stroke="#D8D8D8" stroke-width="0.8"/>
  <line x1="134.634" y1="67.2036" x2="97.4988" y2="99.6318" stroke="#D8D8D8" stroke-width="0.8"/>
  <line y1="-0.4" x2="48.6544" y2="-0.4" transform="matrix(-0.751977 0.659189 -0.656316 -0.754486 95.3574 44.1445)" stroke="#D8D8D8" stroke-width="0.8"/>
  <line x1="56.3451" y1="22.0904" x2="19.2097" y2="54.5185" stroke="#D8D8D8" stroke-width="0.8"/>
  <line x1="130.615" y1="64.7622" x2="93.4792" y2="97.1904" stroke="#D8D8D8" stroke-width="0.8"/>
  <line x1="91.9584" y1="42.2974" x2="54.823" y2="74.7255" stroke="#D8D8D8" stroke-width="0.8"/>
  <line x1="53.0326" y1="19.6489" x2="15.8972" y2="52.0771" stroke="#D8D8D8" stroke-width="0.8"/>
  <line x1="127.136" y1="63.1939" x2="90.0007" y2="95.622" stroke="#D8D8D8" stroke-width="0.8"/>
  <line y1="-0.4" x2="48.6544" y2="-0.4" transform="matrix(-0.751977 0.659189 -0.656316 -0.754486 87.9727 40.1797)" stroke="#D8D8D8" stroke-width="0.8"/>
  <line y1="-0.4" x2="48.6544" y2="-0.4" transform="matrix(-0.751977 0.659189 -0.656316 -0.754486 48.9121 17.0703)" stroke="#D8D8D8" stroke-width="0.8"/>
  <line x1="122.943" y1="60.231" x2="85.8074" y2="92.6591" stroke="#D8D8D8" stroke-width="0.8"/>
  <line x1="84.2865" y1="37.7642" x2="47.1511" y2="70.1923" stroke="#D8D8D8" stroke-width="0.8"/>
  <line x1="45.3608" y1="15.1157" x2="8.22532" y2="47.5439" stroke="#D8D8D8" stroke-width="0.8"/>
  <line y1="-0.4" x2="48.6544" y2="-0.4" transform="matrix(-0.751977 0.659189 -0.656316 -0.754486 118.668 57.3984)" stroke="#D8D8D8" stroke-width="0.8"/>
  <line x1="80.2768" y1="35.6724" x2="43.1413" y2="68.1005" stroke="#D8D8D8" stroke-width="0.8"/>
  <line x1="41.349" y1="13.0239" x2="4.21361" y2="45.4521" stroke="#D8D8D8" stroke-width="0.8"/>
  <line y1="-0.4" x2="48.6544" y2="-0.4" transform="matrix(-0.751977 0.659189 -0.656316 -0.754486 114.719 55.1562)" stroke="#D8D8D8" stroke-width="0.8"/>
  <line x1="76.267" y1="33.4068" x2="39.1316" y2="65.8349" stroke="#D8D8D8" stroke-width="0.8"/>
  <line y1="-0.4" x2="48.6544" y2="-0.4" transform="matrix(-0.751977 0.659189 -0.656316 -0.754486 110.768 53.0859)" stroke="#D8D8D8" stroke-width="0.8"/>
  <line y1="-0.4" x2="48.6544" y2="-0.4" transform="matrix(-0.751977 0.659189 -0.656316 -0.754486 72.6836 30.8672)" stroke="#D8D8D8" stroke-width="0.8"/>
  <line y1="-0.4" x2="48.6544" y2="-0.4" transform="matrix(-0.751977 0.659189 -0.656316 -0.754486 106.816 50.8438)" stroke="#D8D8D8" stroke-width="0.8"/>
  <line y1="-0.4" x2="48.6544" y2="-0.4" transform="matrix(-0.751977 0.659189 -0.656316 -0.754486 68.7344 28.625)" stroke="#D8D8D8" stroke-width="0.8"/>
  <line y1="-0.4" x2="48.6544" y2="-0.4" transform="matrix(-0.751977 0.659189 -0.656316 -0.754486 103.211 48.6035)" stroke="#D8D8D8" stroke-width="0.8"/>
  <line x1="64.5873" y1="26.7818" x2="27.4519" y2="59.2099" stroke="#D8D8D8" stroke-width="0.8"/>
</svg>
