<svg width="187" height="171" viewBox="0 0 187 171" fill="none" xmlns="http://www.w3.org/2000/svg">
  <path d="M62.6568 85.4659C62.6568 85.4659 62.5491 85.4524 62.4952 85.4254L60.2872 84.1311C60.1391 84.0367 60.0853 83.848 60.1661 83.6997C60.2603 83.5514 60.4488 83.4974 60.5969 83.5783L62.8049 84.8727C62.9529 84.967 63.0068 85.1558 62.926 85.3041C62.8722 85.412 62.7645 85.4659 62.6433 85.4659H62.6568ZM13.2603 84.6704C13.2603 84.6704 13.1526 84.6569 13.0987 84.63L11.7255 83.8345C11.5774 83.7401 11.5235 83.5514 11.6043 83.4031C11.6985 83.2547 11.887 83.2008 12.0351 83.2817L13.2468 83.9828L13.92 83.5918C14.0681 83.4974 14.27 83.5514 14.3508 83.7132C14.445 83.8615 14.3912 84.0637 14.2296 84.1446L13.3949 84.63C13.3949 84.63 13.2872 84.6704 13.2333 84.6704H13.2603ZM16.303 82.8907C16.1952 82.8907 16.0875 82.8368 16.0337 82.7289C15.9394 82.5806 15.9933 82.3784 16.1549 82.2975L18.3628 81.0032C18.5109 80.9088 18.7129 80.9627 18.7936 81.1245C18.8879 81.2728 18.834 81.4751 18.6725 81.556L16.4645 82.8503C16.4645 82.8503 16.3568 82.8907 16.303 82.8907ZM58.2408 82.8907C58.2408 82.8907 58.1331 82.8772 58.0793 82.8503L55.8713 81.556C55.7232 81.4616 55.6694 81.2728 55.7501 81.1245C55.8444 80.9762 56.0329 80.9223 56.181 81.0032L58.3889 82.2975C58.537 82.3919 58.5909 82.5806 58.5101 82.7289C58.4562 82.8368 58.3485 82.8907 58.2274 82.8907H58.2408ZM9.66559 82.6076C9.66559 82.6076 9.55789 82.5941 9.50403 82.5671L7.28261 81.2998C7.13451 81.2054 7.08066 81.0167 7.16144 80.8683C7.24222 80.72 7.44416 80.6661 7.59226 80.747L9.81369 82.0144C9.96179 82.1087 10.0156 82.2975 9.93486 82.4458C9.88101 82.5537 9.7733 82.6076 9.65213 82.6076H9.66559ZM53.8249 80.3156C53.8249 80.3156 53.7172 80.3021 53.6633 80.2751L51.4554 78.9808C51.3073 78.8864 51.2534 78.6977 51.3342 78.5494C51.4284 78.401 51.6169 78.3471 51.765 78.428L53.973 79.7223C54.1211 79.8167 54.1749 80.0055 54.0942 80.1538C54.0403 80.2616 53.9326 80.3156 53.8114 80.3156H53.8249ZM20.7189 80.3156C20.6112 80.3156 20.5035 80.2616 20.4362 80.1538C20.3419 80.0055 20.3958 79.8032 20.5573 79.7223L22.7653 78.428C22.9134 78.3336 23.1153 78.3876 23.1961 78.5494C23.2904 78.6977 23.2365 78.8999 23.0749 78.9808L20.867 80.2751C20.867 80.2751 20.7593 80.3156 20.7054 80.3156H20.7189ZM5.2362 80.0729C5.2362 80.0729 5.12849 80.0594 5.07464 80.0324L2.85321 78.7651C2.70512 78.6707 2.65127 78.4819 2.73205 78.3336C2.82629 78.1853 3.01477 78.1314 3.16287 78.2123L5.3843 79.4796C5.53239 79.574 5.58624 79.7628 5.50546 79.9111C5.45161 80.019 5.34391 80.0729 5.22274 80.0729H5.2362ZM49.409 77.7404C49.409 77.7404 49.3013 77.7269 49.2474 77.7L47.0394 76.4056C46.8913 76.3113 46.8375 76.1225 46.9183 75.9742C47.0125 75.8259 47.201 75.772 47.3491 75.8528L49.5571 77.1472C49.7052 77.2415 49.759 77.4303 49.6782 77.5786C49.6244 77.6865 49.5167 77.7404 49.3955 77.7404H49.409ZM25.1348 77.7404C25.0271 77.7404 24.9194 77.6865 24.8655 77.5786C24.7713 77.4303 24.8252 77.2281 24.9867 77.1472L27.1947 75.8528C27.3428 75.7585 27.5447 75.8124 27.6255 75.9742C27.7197 76.1225 27.6659 76.3247 27.5043 76.4056L25.2964 77.7C25.2964 77.7 25.1887 77.7404 25.1348 77.7404ZM1.76269 77.5247C1.65499 77.5247 1.54728 77.4708 1.47997 77.3629C1.38572 77.2146 1.43958 77.0124 1.60114 76.9315L3.8091 75.6506C3.9572 75.5562 4.15914 75.6102 4.23992 75.772C4.33416 75.9203 4.28031 76.1225 4.11875 76.2034L1.91079 77.4842C1.91079 77.4842 1.80308 77.5247 1.74923 77.5247H1.76269ZM44.993 75.1652C44.993 75.1652 44.8853 75.1518 44.8315 75.1248L42.6235 73.8305C42.4754 73.7361 42.4216 73.5473 42.5023 73.399C42.5966 73.2507 42.7851 73.1968 42.9332 73.2777L45.1411 74.572C45.2892 74.6664 45.3431 74.8551 45.2623 75.0035C45.2084 75.1113 45.1007 75.1652 44.9796 75.1652H44.993ZM29.5373 75.1652C29.4296 75.1652 29.3219 75.1113 29.2546 75.0035C29.1603 74.8551 29.2142 74.6529 29.3757 74.572L31.5837 73.2777C31.7318 73.1833 31.9337 73.2372 32.0145 73.399C32.1088 73.5473 32.0549 73.7496 31.8933 73.8305L29.6854 75.1248C29.6854 75.1248 29.5777 75.1652 29.5238 75.1652H29.5373ZM6.17862 74.963C6.07092 74.963 5.96321 74.9091 5.8959 74.8012C5.80166 74.6529 5.85551 74.4507 6.01706 74.3698L8.22503 73.0889C8.37313 72.9946 8.57507 73.0485 8.65585 73.2103C8.7501 73.3586 8.69624 73.5608 8.53468 73.6417L6.32672 74.9226C6.32672 74.9226 6.21901 74.963 6.16516 74.963H6.17862ZM40.5771 72.6036C40.5771 72.6036 40.4694 72.5901 40.4155 72.5631L38.2076 71.2688C38.0595 71.1744 38.0056 70.9857 38.0864 70.8374C38.1807 70.6891 38.3691 70.6351 38.5172 70.716L40.7252 72.0103C40.8733 72.1047 40.9272 72.2935 40.8464 72.4418C40.7925 72.5496 40.6848 72.6036 40.5636 72.6036H40.5771ZM33.9532 72.5901C33.8455 72.5901 33.7378 72.5362 33.6839 72.4283C33.5897 72.28 33.6436 72.0777 33.8051 71.9968L36.0131 70.7025C36.1612 70.6082 36.3631 70.6621 36.4439 70.8239C36.5382 70.9722 36.4843 71.1744 36.3227 71.2553L34.1148 72.5496C34.1148 72.5496 34.0071 72.5901 33.9532 72.5901ZM10.5946 72.3878C10.4868 72.3878 10.3791 72.3339 10.3118 72.2261C10.2176 72.0777 10.2714 71.8755 10.433 71.7946L12.641 70.5138C12.7891 70.4194 12.991 70.4733 13.0718 70.6351C13.166 70.7834 13.1122 70.9857 12.9506 71.0666L10.7426 72.3474C10.7426 72.3474 10.6349 72.3878 10.5811 72.3878H10.5946ZM15.0105 69.8127C14.9028 69.8127 14.7951 69.7588 14.7278 69.6509C14.6335 69.5026 14.6874 69.3004 14.8489 69.2195L17.0569 67.9386C17.205 67.8442 17.4069 67.8982 17.4877 68.06C17.582 68.2083 17.5281 68.4105 17.3665 68.4914L15.1586 69.7722C15.1586 69.7722 15.0509 69.8127 14.997 69.8127H15.0105ZM19.4264 67.2375C19.3187 67.2375 19.211 67.1836 19.1437 67.0757C19.0494 66.9274 19.1033 66.7252 19.2649 66.6443L21.4728 65.3635C21.6209 65.2691 21.8229 65.323 21.9036 65.4848C21.9979 65.6331 21.944 65.8353 21.7825 65.9162L19.5745 67.1971C19.5745 67.1971 19.4668 67.2375 19.413 67.2375H19.4264ZM23.8423 64.6624C23.7346 64.6624 23.6269 64.6084 23.5596 64.5006C23.4654 64.3523 23.5192 64.15 23.6808 64.0691L24.6636 63.4894L24.3943 63.3411C24.2462 63.2602 24.1924 63.0579 24.2732 62.9096C24.3539 62.7613 24.5559 62.7074 24.704 62.7883L25.4579 63.2063C25.5522 63.2602 25.6195 63.368 25.6195 63.4759C25.6195 63.5838 25.5656 63.6916 25.4579 63.759L23.9904 64.6084C23.9904 64.6084 23.8827 64.6489 23.8289 64.6489L23.8423 64.6624ZM22.3345 62.1276C22.3345 62.1276 22.2268 62.1277 22.1729 62.0872L19.9515 60.8333C19.8034 60.7524 19.7495 60.5502 19.8303 60.4019C19.9111 60.2536 20.113 60.1997 20.2611 60.2805L22.4826 61.5344C22.6307 61.6153 22.6845 61.8176 22.6037 61.9659C22.5499 62.0737 22.4422 62.1276 22.321 62.1276H22.3345ZM17.8916 59.6064C17.8916 59.6064 17.7839 59.6064 17.7301 59.566L15.5086 58.3121C15.3605 58.2312 15.3067 58.029 15.3875 57.8807C15.4682 57.7324 15.6702 57.6784 15.8183 57.7593L18.0397 59.0132C18.1878 59.0941 18.2417 59.2963 18.1609 59.4446C18.107 59.5525 17.9993 59.6064 17.8781 59.6064H17.8916ZM13.4488 57.0852C13.4488 57.0852 13.3411 57.0717 13.2872 57.0447L13.0179 56.8964C12.9237 56.8425 12.8564 56.7346 12.8564 56.6133C12.8564 56.492 12.9237 56.3976 13.0179 56.3302L14.9566 55.2111C15.1047 55.1167 15.3067 55.1707 15.3875 55.3325C15.4817 55.4808 15.4278 55.683 15.2663 55.7639L13.7315 56.6538C13.7584 56.7346 13.7584 56.8425 13.7046 56.9234C13.6507 57.0313 13.543 57.0852 13.4218 57.0852H13.4488ZM17.3396 54.5235C17.2319 54.5235 17.1242 54.4696 17.0569 54.3617C16.9627 54.2134 17.0165 54.0112 17.1781 53.9303L19.386 52.6494C19.5341 52.5551 19.7361 52.609 19.8168 52.7708C19.9111 52.9191 19.8572 53.1213 19.6957 53.2022L17.4877 54.4831C17.4877 54.4831 17.38 54.5235 17.3262 54.5235H17.3396ZM21.769 51.9618C21.6613 51.9618 21.5536 51.9079 21.4863 51.8C21.392 51.6517 21.4459 51.4495 21.6075 51.3686L23.8154 50.0878C23.9635 49.9934 24.1655 50.0473 24.2462 50.2091C24.3405 50.3574 24.2866 50.5597 24.1251 50.6406L21.9171 51.9214C21.9171 51.9214 21.8094 51.9618 21.7556 51.9618H21.769ZM26.1984 49.4002C26.0907 49.4002 25.983 49.3462 25.9157 49.2384C25.8214 49.0901 25.8753 48.8878 26.0369 48.8069L28.2448 47.5261C28.3929 47.4317 28.5949 47.4856 28.6756 47.6474C28.7699 47.7957 28.716 47.998 28.5545 48.0789L26.3465 49.3597C26.3465 49.3597 26.2388 49.4002 26.1849 49.4002H26.1984ZM30.6278 46.8385C30.5201 46.8385 30.4124 46.7845 30.3451 46.6767C30.2508 46.5284 30.3047 46.3261 30.4662 46.2452L32.6742 44.9644C32.8223 44.87 33.0243 44.924 33.105 45.0858C33.1993 45.2341 33.1454 45.4363 32.9839 45.5172L30.7759 46.798C30.7759 46.798 30.6682 46.8385 30.6143 46.8385H30.6278Z" fill="white" stroke="white"/>
  <path d="M93.501 24.3761C93.3933 24.3761 93.2856 24.3222 93.2182 24.2143C93.124 24.066 93.1779 23.8638 93.3394 23.7829L95.5474 22.5021C95.6955 22.4077 95.8974 22.4616 95.9782 22.6234C96.0724 22.7717 96.0186 22.974 95.857 23.0549L93.6491 24.3357C93.6491 24.3357 93.5414 24.3761 93.4875 24.3761H93.501ZM97.9304 21.8145C97.8227 21.8145 97.715 21.7605 97.6476 21.6527C97.5534 21.5044 97.6072 21.3021 97.7688 21.2212L99.9768 19.9404C100.125 19.846 100.327 19.8999 100.408 20.0617C100.502 20.21 100.448 20.4123 100.286 20.4932L98.0785 21.774C98.0785 21.774 97.9708 21.8145 97.9169 21.8145H97.9304ZM102.36 19.2528C102.252 19.2528 102.144 19.1989 102.077 19.091C101.983 18.9427 102.037 18.7405 102.198 18.6596L104.406 17.3787C104.554 17.2843 104.756 17.3383 104.837 17.5001C104.931 17.6484 104.877 17.8506 104.716 17.9315L102.508 19.2123C102.508 19.2123 102.4 19.2528 102.346 19.2528H102.36ZM106.789 16.6911C106.681 16.6911 106.574 16.6372 106.506 16.5293C106.412 16.381 106.466 16.1788 106.628 16.0979L108.836 14.817C108.984 14.7227 109.186 14.7766 109.266 14.9384C109.361 15.0867 109.307 15.2889 109.145 15.3698L106.937 16.6507C106.937 16.6507 106.83 16.6911 106.776 16.6911H106.789ZM157.276 15.2889C157.276 15.2889 157.168 15.2754 157.115 15.2485L155.243 14.1564C155.095 14.062 155.041 13.8733 155.122 13.725C155.216 13.5766 155.405 13.5227 155.553 13.6036L157.424 14.6957C157.572 14.7901 157.626 14.9788 157.545 15.1271C157.492 15.235 157.384 15.2889 157.263 15.2889H157.276ZM133.339 15.235C133.231 15.235 133.123 15.1811 133.069 15.0732C132.975 14.9249 133.029 14.7227 133.19 14.6418L135.398 13.3474C135.547 13.2531 135.748 13.307 135.829 13.4688C135.924 13.6171 135.87 13.8193 135.708 13.9002L133.5 15.1946C133.5 15.1946 133.392 15.235 133.339 15.235ZM111.219 14.1159C111.111 14.1159 111.003 14.062 110.936 13.9542C110.842 13.8059 110.895 13.6036 111.057 13.5227L113.265 12.2419C113.413 12.1475 113.615 12.2014 113.696 12.3632C113.79 12.5115 113.736 12.7138 113.575 12.7947L111.367 14.0755C111.367 14.0755 111.259 14.1159 111.205 14.1159H111.219ZM131.131 13.9811C131.131 13.9811 131.023 13.9676 130.969 13.9407L128.761 12.6598C128.613 12.5655 128.559 12.3767 128.64 12.2284C128.734 12.0801 128.923 12.0262 129.071 12.1071L131.279 13.3879C131.427 13.4823 131.481 13.671 131.4 13.8193C131.346 13.9272 131.238 13.9811 131.117 13.9811H131.131ZM153.197 12.889C153.197 12.889 153.089 12.8756 153.035 12.8486L150.827 11.5543C150.679 11.4599 150.625 11.2711 150.706 11.1228C150.8 10.9745 150.989 10.9206 151.137 11.0015L153.345 12.2958C153.493 12.3902 153.547 12.5789 153.466 12.7272C153.412 12.8351 153.305 12.889 153.197 12.889ZM137.755 12.6329C137.647 12.6329 137.539 12.5789 137.485 12.4711C137.391 12.3228 137.445 12.1205 137.606 12.0396L139.814 10.7453C139.962 10.6509 140.164 10.7049 140.245 10.8667C140.339 11.015 140.286 11.2172 140.124 11.2981L137.916 12.5924C137.916 12.5924 137.808 12.6329 137.755 12.6329ZM115.648 11.5408C115.54 11.5408 115.433 11.4869 115.365 11.379C115.271 11.2307 115.325 11.0285 115.486 10.9476L117.694 9.66672C117.842 9.57234 118.044 9.62627 118.125 9.78806C118.219 9.93637 118.166 10.1386 118.004 10.2195L115.796 11.5003C115.796 11.5003 115.688 11.5408 115.634 11.5408H115.648ZM126.715 11.406C126.715 11.406 126.607 11.3925 126.553 11.3655L124.345 10.0847C124.197 9.9903 124.143 9.80154 124.224 9.65324C124.318 9.50493 124.507 9.451 124.655 9.53189L126.863 10.8127C127.011 10.9071 127.065 11.0959 126.984 11.2442C126.93 11.352 126.822 11.406 126.701 11.406H126.715ZM148.794 10.3004C148.794 10.3004 148.687 10.2869 148.633 10.2599L146.425 8.96563C146.277 8.87125 146.223 8.6825 146.304 8.53419C146.398 8.38588 146.586 8.33195 146.734 8.41285L148.942 9.70717C149.091 9.80154 149.144 9.9903 149.064 10.1386C149.01 10.2465 148.902 10.3004 148.781 10.3004H148.794ZM142.17 10.0442C142.063 10.0442 141.955 9.9903 141.901 9.88244C141.807 9.73413 141.861 9.53189 142.022 9.451L144.23 8.15668C144.378 8.0623 144.58 8.11623 144.661 8.27802C144.755 8.42633 144.702 8.62856 144.54 8.70946L142.332 10.0038C142.332 10.0038 142.224 10.0442 142.17 10.0442ZM120.064 8.96563C119.956 8.96563 119.848 8.9117 119.781 8.80384C119.687 8.65553 119.741 8.45329 119.902 8.3724L121.114 7.67131C121.208 7.61738 121.329 7.61738 121.437 7.67131L122.433 8.25106C122.581 8.34543 122.635 8.53419 122.555 8.6825C122.46 8.8308 122.272 8.88473 122.124 8.80384L121.289 8.31847L120.239 8.92518C120.239 8.92518 120.131 8.96563 120.077 8.96563H120.064Z" fill="#D8D8D8"/>
  <path d="M162.917 81.3132C162.809 81.3132 162.702 81.2593 162.634 81.1514C162.54 81.0031 162.594 80.8009 162.755 80.72L164.317 79.8167C164.465 79.7223 164.667 79.7762 164.748 79.938C164.842 80.0863 164.788 80.2885 164.627 80.3694L163.065 81.2728C163.065 81.2728 162.957 81.3132 162.904 81.3132H162.917ZM166.7 79.129C166.592 79.129 166.485 79.0751 166.417 78.9672C166.323 78.8189 166.377 78.6167 166.539 78.5358L168.747 77.255C168.895 77.1606 169.097 77.2145 169.177 77.3763C169.272 77.5246 169.218 77.7269 169.056 77.8078L166.835 79.0886C166.835 79.0886 166.727 79.129 166.673 79.129H166.7ZM171.13 76.5808C171.022 76.5808 170.914 76.5269 170.847 76.4191C170.753 76.2707 170.806 76.0685 170.968 75.9876L173.176 74.7068C173.324 74.6259 173.526 74.6663 173.607 74.8281C173.701 74.9764 173.647 75.1787 173.486 75.2596L171.278 76.5404C171.278 76.5404 171.17 76.5808 171.116 76.5808H171.13ZM175.559 74.0327C175.451 74.0327 175.344 73.9787 175.276 73.8709C175.182 73.7226 175.236 73.5203 175.397 73.4394L177.605 72.1586C177.753 72.0777 177.955 72.1181 178.036 72.2799C178.13 72.4282 178.077 72.6305 177.915 72.7114L175.707 73.9922C175.707 73.9922 175.599 74.0327 175.545 74.0327H175.559ZM179.988 71.4845C179.881 71.4845 179.773 71.4305 179.706 71.3227C179.611 71.1744 179.665 70.9721 179.827 70.8912L180.594 70.4463L180.11 70.1632C179.961 70.0823 179.908 69.88 179.988 69.7317C180.069 69.5834 180.271 69.5295 180.419 69.6104L181.389 70.1632C181.483 70.2171 181.55 70.325 181.55 70.4463C181.55 70.5676 181.483 70.662 181.389 70.7294L180.136 71.444C180.136 71.444 180.029 71.4845 179.975 71.4845H179.988ZM178.036 68.9497C178.036 68.9497 177.928 68.9497 177.875 68.9093L175.653 67.6419C175.505 67.561 175.451 67.3588 175.532 67.2105C175.613 67.0622 175.815 67.0083 175.963 67.0892L178.184 68.3565C178.332 68.4374 178.386 68.6396 178.305 68.788C178.252 68.8958 178.144 68.9497 178.023 68.9497H178.036ZM173.593 66.415C173.593 66.415 173.486 66.4015 173.432 66.3746L171.21 65.1072C171.062 65.0263 171.008 64.8241 171.089 64.6758C171.17 64.5275 171.372 64.4736 171.52 64.5544L173.741 65.8218C173.889 65.9027 173.943 66.1049 173.863 66.2532C173.809 66.3611 173.701 66.415 173.58 66.415H173.593ZM169.15 63.8803C169.15 63.8803 169.043 63.8803 169.002 63.8399C168.908 63.7859 168.841 63.6781 168.827 63.5567C168.827 63.4354 168.881 63.3275 168.989 63.2736L171.197 62.0062C171.345 61.9119 171.547 61.9658 171.628 62.1276C171.722 62.2759 171.668 62.4781 171.507 62.559L169.352 63.7859C169.352 63.7859 169.218 63.8668 169.15 63.8668V63.8803ZM173.566 61.3456C173.459 61.3456 173.351 61.2917 173.284 61.1838C173.189 61.0355 173.243 60.8333 173.405 60.7524L175.626 59.485C175.774 59.3906 175.976 59.4446 176.057 59.6064C176.151 59.7547 176.097 59.9569 175.936 60.0378L173.714 61.3052C173.714 61.3052 173.607 61.3456 173.553 61.3456H173.566ZM178.009 58.8109C177.902 58.8109 177.794 58.757 177.727 58.6491C177.632 58.5008 177.686 58.2986 177.848 58.2177L180.069 56.9503C180.217 56.8559 180.419 56.9099 180.5 57.0716C180.594 57.22 180.54 57.4222 180.379 57.5031L178.157 58.7704C178.157 58.7704 178.05 58.8109 177.996 58.8109H178.009ZM180.244 56.2762C180.244 56.2762 180.136 56.2762 180.083 56.2357L177.861 54.9684C177.713 54.8875 177.659 54.6852 177.74 54.5369C177.821 54.3886 178.023 54.3347 178.171 54.4156L180.392 55.683C180.54 55.7638 180.594 55.9661 180.513 56.1144C180.46 56.2223 180.352 56.2762 180.231 56.2762H180.244ZM175.801 53.7415C175.801 53.7415 175.694 53.728 175.64 53.701L173.418 52.4337C173.27 52.3528 173.216 52.1505 173.297 52.0022C173.378 51.8539 173.58 51.8 173.728 51.8809L175.949 53.1482C176.097 53.2291 176.151 53.4314 176.071 53.5797C176.017 53.6875 175.909 53.7415 175.788 53.7415H175.801ZM171.358 51.2068C171.358 51.2068 171.251 51.1933 171.197 51.1663L168.975 49.899C168.827 49.8181 168.773 49.6158 168.854 49.4675C168.935 49.3192 169.137 49.2653 169.285 49.3462L171.507 50.6135C171.655 50.6944 171.708 50.8967 171.628 51.045C171.574 51.1528 171.466 51.2068 171.345 51.2068H171.358Z" fill="#E2E2E2"/>
  <path d="M70.5451 171C68.7659 171 67.1071 170.596 65.8764 169.843C65.2744 169.481 5.08913 133.148 4.63429 132.869C2.56078 131.503 2.03906 130.625 2.03906 128.366C2.03906 125.647 5.78476 123.64 8.25959 122.301C8.29972 122.287 8.33985 122.273 8.37999 122.273C8.40674 122.273 8.4335 122.273 8.46025 122.287C8.52714 122.315 8.58065 122.357 8.6074 122.427L10.2395 126.219L114.891 62.8388C116.122 62.086 117.781 61.6816 119.547 61.6816C121.313 61.6816 122.971 62.086 124.216 62.8388L180.869 96.9269C180.869 96.9269 185.993 95.2817 186.019 95.2817C186.073 95.2817 186.381 100.594 186.381 100.594C186.381 102.002 185.551 103.02 184.106 103.884L75.2005 169.843C73.9697 170.582 72.3109 171 70.5451 171Z" fill="white"/>
  <path d="M185.468 98.0844C185.468 98.9069 184.943 99.7293 183.879 100.35L183.031 100.835L74.5039 164L73.6692 164.486C72.5922 165.106 71.192 165.416 69.7784 165.416C68.3647 165.416 66.9511 165.106 65.874 164.486L5.30309 129.472C4.22603 128.852 3.70096 128.029 3.6875 127.22C3.6875 126.398 4.21257 125.575 5.27616 124.955L7.06676 123.917L114.409 61.439L115.499 60.8053C116.563 60.1851 117.963 59.875 119.39 59.875C120.817 59.875 122.218 60.1851 123.295 60.8053L183.866 95.8194C184.943 96.4396 185.481 97.262 185.481 98.0844H185.468Z" fill="white"/>
  <path d="M183.03 100.835L74.5036 163.987L7.06641 123.904L114.409 61.4395L183.03 100.835Z" fill="white"/>
  <path d="M74.5034 164.756C74.3688 164.756 74.2342 164.716 74.113 164.648L6.6758 124.565C6.44692 124.43 6.29883 124.174 6.29883 123.904C6.29883 123.634 6.44692 123.378 6.6758 123.243L114.018 60.7789C114.26 60.644 114.543 60.644 114.785 60.7789L183.407 100.161C183.65 100.296 183.784 100.552 183.798 100.822C183.798 101.092 183.65 101.348 183.421 101.483L74.8939 164.648C74.7727 164.716 74.638 164.756 74.5034 164.756ZM8.57411 123.904L74.5034 163.098L181.495 100.835L114.408 62.3293L8.57411 123.917V123.904Z" fill="#E2E2E2"/>
  <path d="M184.93 95.1993C187.676 96.7902 187.69 99.3789 184.97 100.97L74.7604 165.106C72.0274 166.697 67.5576 166.697 64.8111 165.106L4.24019 130.092C1.49369 128.501 1.48023 125.912 4.21326 124.322L114.41 60.1717C117.143 58.5808 121.612 58.5808 124.359 60.1717L184.93 95.1858V95.1993ZM69.7791 165.416C71.1927 165.416 72.5929 165.106 73.6699 164.486L183.88 100.35C184.943 99.7294 185.482 98.9205 185.468 98.098C185.468 97.2756 184.93 96.4532 183.853 95.833L123.282 60.8189C122.205 60.1987 120.805 59.8886 119.378 59.8886C117.964 59.8886 116.55 60.1987 115.487 60.8189L5.27685 124.942C4.21326 125.562 3.67473 126.384 3.6882 127.207C3.6882 128.029 4.22672 128.838 5.30378 129.458L65.8747 164.472C66.9518 165.093 68.3654 165.403 69.7791 165.403V165.416Z" fill="#E2E2E2"/>
  <path d="M184.93 95.1993C187.676 96.7902 187.69 99.3789 184.97 100.97L74.7604 165.106C72.0274 166.697 67.5576 166.697 64.8111 165.106L4.24019 130.092C1.49369 128.501 1.48023 125.912 4.21326 124.322L114.41 60.1717C117.143 58.5808 121.612 58.5808 124.359 60.1717L184.93 95.1858V95.1993ZM69.7791 165.416C71.1927 165.416 72.5929 165.106 73.6699 164.486L183.88 100.35C184.943 99.7294 185.482 98.9205 185.468 98.098C185.468 97.2756 184.93 96.4532 183.853 95.833L123.282 60.8189C122.205 60.1987 120.805 59.8886 119.378 59.8886C117.964 59.8886 116.55 60.1987 115.487 60.8189L5.27685 124.942C4.21326 125.562 3.67473 126.384 3.6882 127.207C3.6882 128.029 4.22672 128.838 5.30378 129.458L65.8747 164.472C66.9518 165.093 68.3654 165.403 69.7791 165.403V165.416Z" fill="#E2E2E2"/>
  <path d="M95.5747 155.442L94.8477 155.024L96.9748 153.797L97.7018 154.215L95.5747 155.442Z" fill="#E2E2E2"/>
  <path d="M95.5612 154.793L94.8477 154.375L96.9748 153.148L97.7018 153.566L95.5612 154.793Z" fill="white"/>
  <path d="M97.7016 154.214L96.9746 153.796V153.148L97.7016 153.566V154.214Z" fill="#E2E2E2"/>
  <path d="M97.2036 152.744L97.9172 153.162C97.9172 153.162 97.8633 153.162 97.8229 153.162L97.1094 152.744C97.1094 152.744 97.1767 152.717 97.2036 152.744Z" fill="#E2E2E2"/>
  <path d="M95.3321 155.844L94.6185 155.426C94.6185 155.426 94.5781 155.372 94.5781 155.332L95.2917 155.75C95.2917 155.75 95.3051 155.817 95.3321 155.844Z" fill="#E2E2E2"/>
  <path d="M95.5747 155.44L94.8477 155.022V154.375L95.5612 154.793L95.5747 155.44Z" fill="white"/>
  <path d="M97.7012 153.566V154.214L95.574 155.44L95.5605 154.793L97.7012 153.566Z" fill="white"/>
  <path d="M95.2917 155.75L94.5781 155.332V154.375L95.2917 154.793V155.75Z" fill="#E2E2E2"/>
  <path d="M95.4264 154.563L94.7129 154.145L97.1093 152.756L97.8364 153.174L95.4264 154.563Z" fill="#E2E2E2"/>
  <path d="M95.2917 154.793L94.5781 154.375C94.5781 154.375 94.5916 154.281 94.6185 154.24L95.3321 154.658C95.3321 154.658 95.2917 154.753 95.2917 154.793Z" fill="#E2E2E2"/>
  <path d="M95.3327 154.659L94.6191 154.241C94.6191 154.241 94.6865 154.16 94.7134 154.133L95.4269 154.551C95.4269 154.551 95.3596 154.605 95.3327 154.659Z" fill="#E2E2E2"/>
  <path d="M102.413 151.462L101.699 151.044L109.266 146.676L109.979 147.094L102.413 151.462Z" fill="#E2E2E2"/>
  <path d="M102.413 150.829L101.699 150.411L109.252 146.043L109.979 146.461L102.413 150.829Z" fill="white"/>
  <path d="M109.979 147.095L109.265 146.677L109.252 146.043L109.979 146.461V147.095Z" fill="#E2E2E2"/>
  <path d="M110.114 146.057L109.4 145.639C109.4 145.639 109.468 145.612 109.495 145.639L110.208 146.057C110.208 146.057 110.141 146.057 110.114 146.057Z" fill="#E2E2E2"/>
  <path d="M102.184 151.868L101.47 151.45C101.47 151.45 101.43 151.396 101.43 151.355L102.143 151.773C102.143 151.773 102.143 151.854 102.184 151.868Z" fill="#E2E2E2"/>
  <path d="M102.413 151.464L101.699 151.046V150.412L102.413 150.83V151.464Z" fill="white"/>
  <path d="M109.978 146.461V147.095L102.412 151.463V150.829L109.978 146.461Z" fill="white"/>
  <path d="M102.143 151.787L101.43 151.369V150.412L102.143 150.83V151.787Z" fill="#E2E2E2"/>
  <path d="M102.278 150.587L101.551 150.169L109.386 145.639L110.113 146.057L102.278 150.587Z" fill="#E2E2E2"/>
  <path d="M102.184 150.694L101.471 150.276C101.471 150.276 101.525 150.195 101.565 150.168L102.278 150.586C102.278 150.586 102.211 150.64 102.184 150.694Z" fill="#E2E2E2"/>
  <path d="M102.143 150.83L101.43 150.412C101.43 150.412 101.43 150.318 101.47 150.277L102.184 150.695C102.184 150.695 102.143 150.79 102.143 150.83Z" fill="#E2E2E2"/>
  <path d="M48.2384 151.071C48.6019 151.287 48.6019 151.624 48.2384 151.84C47.8749 152.055 47.2825 152.055 46.919 151.84L26.1183 139.813C25.7548 139.597 25.7548 139.26 26.1183 139.045C26.4818 138.829 27.0742 138.829 27.4377 139.045L48.2384 151.071Z" fill="white"/>
  <path d="M49.3143 150.437C50.2836 150.99 50.2836 151.907 49.3143 152.459C48.3584 153.012 46.7967 153.012 45.8273 152.459L25.0267 140.433C24.0708 139.88 24.0573 138.963 25.0267 138.411C25.9825 137.858 27.5443 137.858 28.5136 138.411L49.3143 150.437ZM46.9178 151.826C47.2813 152.041 47.8737 152.041 48.2372 151.826C48.6007 151.61 48.6007 151.273 48.2372 151.057L27.4366 139.031C27.0731 138.815 26.4807 138.815 26.1172 139.031C25.7537 139.247 25.7537 139.584 26.1172 139.799L46.9178 151.826Z" fill="#E2E2E2"/>
  <path d="M121.248 77.1875L146.29 91.7621C147.245 92.3149 147.824 93.4879 147.838 95.1597C147.838 95.2541 147.838 95.3484 147.838 95.4563L122.796 80.8817C122.796 80.7873 122.796 80.6795 122.796 80.5851C122.796 78.9133 122.204 77.7403 121.248 77.1875Z" fill="#E2E2E2"/>
  <path d="M147.825 95.6844C147.825 95.6844 147.744 95.6844 147.704 95.6574L122.662 81.0828C122.581 81.0424 122.541 80.9615 122.541 80.8671C122.541 80.7727 122.541 80.6783 122.541 80.584C122.541 79.0604 122.029 77.9279 121.114 77.3886C121.006 77.3212 120.966 77.1729 121.033 77.065C121.1 76.9572 121.248 76.9167 121.356 76.9841L146.398 91.5587C147.461 92.1789 148.054 93.4598 148.054 95.1585C148.054 95.2529 148.054 95.3608 148.054 95.4552C148.054 95.5361 148 95.617 147.932 95.6574C147.892 95.6844 147.852 95.6844 147.811 95.6844H147.825ZM123.025 80.7458L147.596 95.0372C147.569 93.5676 147.057 92.4755 146.169 91.9632L122.5 78.1975C122.837 78.8447 123.025 79.6537 123.025 80.5974C123.025 80.6514 123.025 80.7053 123.025 80.7592V80.7458Z" fill="#E2E2E2"/>
  <path d="M51.6973 117.406L76.7388 131.981C77.6947 132.534 78.2736 133.707 78.2871 135.378C78.2871 135.446 78.2871 135.527 78.2871 135.594L53.2455 121.02C53.2455 120.952 53.2455 120.871 53.2455 120.804C53.2455 119.132 52.6532 117.959 51.6973 117.406Z" fill="#E2E2E2"/>
  <path d="M78.2739 135.822C78.2739 135.822 78.1931 135.822 78.1527 135.795L53.1112 121.22C53.0304 121.18 52.99 121.099 52.99 121.005V120.937C52.99 120.937 52.99 120.843 52.99 120.789C52.99 119.266 52.4784 118.133 51.5629 117.594C51.4552 117.526 51.4148 117.378 51.4821 117.27C51.5494 117.162 51.6975 117.122 51.8052 117.189L76.8468 131.764C77.9104 132.384 78.5028 133.665 78.5028 135.364C78.5028 135.418 78.5028 135.458 78.5028 135.512V135.593C78.5028 135.674 78.4489 135.755 78.3816 135.795C78.3412 135.822 78.3008 135.822 78.2604 135.822H78.2739ZM53.4747 120.883L78.0316 135.175C77.9912 133.746 77.4796 132.681 76.6045 132.182L52.9362 118.416C53.2727 119.063 53.4612 119.872 53.4612 120.816V120.897L53.4747 120.883Z" fill="#E2E2E2"/>
  <path d="M108.93 84.3066L133.971 98.8812C134.927 99.434 135.506 100.607 135.52 102.279C135.52 102.373 135.52 102.468 135.52 102.575L110.478 88.0008C110.478 87.9065 110.478 87.7986 110.478 87.7042C110.478 86.0324 109.886 84.8594 108.93 84.3066Z" fill="#E2E2E2"/>
  <path d="M135.506 102.805C135.506 102.805 135.426 102.805 135.385 102.778L110.344 88.2039C110.263 88.1635 110.222 88.0826 110.222 87.9882C110.222 87.8938 110.222 87.7994 110.222 87.7051C110.222 86.1815 109.711 85.049 108.795 84.5097C108.688 84.4423 108.647 84.294 108.715 84.1861C108.782 84.0783 108.93 84.0378 109.038 84.1052L134.079 98.6798C135.143 99.3 135.735 100.581 135.735 102.28C135.735 102.374 135.735 102.482 135.735 102.576C135.735 102.657 135.681 102.738 135.614 102.778C135.574 102.805 135.533 102.805 135.493 102.805H135.506ZM110.707 87.8668L135.277 102.158C135.251 100.689 134.739 99.5966 133.85 99.0843L110.182 85.3187C110.519 85.9658 110.707 86.7748 110.707 87.7185C110.707 87.7725 110.707 87.8264 110.707 87.8803V87.8668Z" fill="#E2E2E2"/>
  <path d="M133.716 100.957L132.45 100.216C133.043 100.121 133.568 100.216 133.998 100.458L128.007 96.9663C127.24 96.5214 126.176 96.5753 125.005 97.2629C122.676 98.6112 120.791 101.887 120.791 104.57C120.791 105.905 121.262 106.836 122.03 107.28L128.021 110.772C127.59 110.516 127.253 110.098 127.038 109.545L128.303 110.287C129.004 110.692 129.959 110.638 131.023 110.017C133.123 108.804 134.833 105.838 134.833 103.411C134.833 102.211 134.402 101.362 133.716 100.957Z" fill="white"/>
  <path d="M128.019 111.002C128.019 111.002 127.938 111.002 127.898 110.975L121.907 107.483C121.045 106.984 120.561 105.946 120.561 104.571C120.561 101.821 122.499 98.45 124.896 97.0613C126.107 96.3602 127.252 96.2523 128.127 96.7647L134.118 100.257C134.226 100.324 134.266 100.472 134.199 100.58C134.131 100.688 133.983 100.729 133.876 100.661C133.714 100.567 133.539 100.499 133.337 100.459L133.822 100.742C134.616 101.2 135.047 102.144 135.06 103.398C135.06 105.906 133.31 108.953 131.129 110.207C130.025 110.84 128.975 110.935 128.181 110.476L127.696 110.193C127.831 110.342 127.979 110.463 128.14 110.557C128.248 110.625 128.288 110.773 128.221 110.881C128.181 110.962 128.1 111.002 128.019 111.002ZM128.423 110.072C129.069 110.449 129.958 110.355 130.9 109.802C132.947 108.629 134.589 105.757 134.589 103.398C134.589 102.319 134.226 101.524 133.593 101.146L132.327 100.405C132.247 100.351 132.193 100.257 132.22 100.162C132.233 100.068 132.314 99.987 132.422 99.9735C132.502 99.9735 132.583 99.9465 132.664 99.9465L127.898 97.1691C127.171 96.7512 126.188 96.8456 125.138 97.4657C122.876 98.7736 121.045 101.955 121.045 104.558C121.045 105.757 121.449 106.647 122.163 107.065L126.929 109.843C126.888 109.775 126.861 109.694 126.834 109.613C126.794 109.519 126.834 109.411 126.902 109.344C126.982 109.276 127.09 109.263 127.171 109.317L128.437 110.058L128.423 110.072Z" fill="#E2E2E2"/>
  <path d="M130.995 100.754C128.666 102.102 126.781 105.378 126.781 108.061C126.781 110.744 128.693 111.823 131.022 110.474C133.351 109.126 135.236 105.85 135.223 103.167C135.223 100.484 133.311 99.4053 130.982 100.74L130.995 100.754Z" fill="white"/>
  <path d="M129.124 111.299C128.68 111.299 128.262 111.191 127.899 110.989C127.024 110.49 126.539 109.452 126.539 108.063C126.539 105.313 128.478 101.942 130.874 100.554C132.072 99.8525 133.23 99.7581 134.105 100.257C134.98 100.756 135.465 101.794 135.465 103.183C135.465 105.933 133.526 109.304 131.143 110.692C130.443 111.097 129.757 111.299 129.137 111.299H129.124ZM131.103 100.972C128.841 102.279 127.01 105.461 127.01 108.063C127.01 109.263 127.414 110.153 128.128 110.571C128.855 110.989 129.838 110.881 130.888 110.274C133.149 108.967 134.98 105.785 134.98 103.183C134.98 101.983 134.577 101.093 133.863 100.675C133.136 100.257 132.153 100.365 131.103 100.972Z" fill="#E2E2E2"/>
  <path d="M129.123 109.356C128.571 109.356 128.477 108.547 128.477 108.062C128.477 105.999 130.038 103.275 131.842 102.237C132.367 101.941 132.717 101.887 132.879 101.887C133.444 101.887 133.525 102.696 133.525 103.181C133.525 105.244 131.964 107.967 130.173 109.005C129.648 109.316 129.298 109.356 129.136 109.356H129.123Z" fill="#E2E2E2"/>
  <path d="M129.125 109.586C128.802 109.586 128.25 109.383 128.236 108.049C128.236 105.905 129.852 103.087 131.71 102.022C132.289 101.685 132.679 101.645 132.868 101.645C133.191 101.645 133.743 101.847 133.756 103.182C133.756 105.325 132.141 108.13 130.283 109.208C129.704 109.545 129.313 109.586 129.125 109.586ZM132.881 102.116C132.773 102.116 132.464 102.143 131.966 102.44C130.229 103.438 128.721 106.067 128.721 108.062C128.721 108.305 128.748 109.127 129.125 109.127C129.233 109.127 129.556 109.1 130.054 108.804C131.791 107.806 133.298 105.177 133.298 103.195C133.298 102.952 133.272 102.13 132.895 102.13L132.881 102.116Z" fill="#E2E2E2"/>
  <path d="M76.7528 133.559L75.4873 132.817C76.0796 132.723 76.6047 132.817 77.0355 133.06L71.0444 129.568C70.277 129.123 69.2134 129.177 68.0421 129.864C65.713 131.213 63.8281 134.489 63.8281 137.172C63.8281 138.507 64.2993 139.437 65.0667 139.882L71.0579 143.374C70.627 143.118 70.2905 142.7 70.0751 142.147L71.3406 142.889C72.0407 143.293 72.9966 143.239 74.0602 142.619C76.1604 141.406 77.8702 138.439 77.8702 136.013C77.8702 134.813 77.4394 133.963 76.7528 133.559Z" fill="white"/>
  <path d="M71.0699 143.615C71.0699 143.615 70.9892 143.615 70.9488 143.589L64.9576 140.097C64.096 139.598 63.6113 138.56 63.6113 137.184C63.6113 134.434 65.55 131.063 67.9465 129.675C69.1582 128.973 70.3025 128.866 71.1776 129.378L77.1688 132.87C77.2765 132.937 77.3169 133.086 77.2496 133.193C77.1822 133.301 77.0341 133.342 76.9264 133.274C76.7649 133.18 76.5899 133.113 76.3879 133.072L76.8726 133.355C77.6669 133.814 78.0977 134.757 78.1112 136.011C78.1112 138.506 76.361 141.566 74.1799 142.82C73.076 143.454 72.0258 143.548 71.218 143.09L70.7334 142.807C70.868 142.955 71.0161 143.076 71.1776 143.171C71.2854 143.238 71.3257 143.386 71.2584 143.494C71.218 143.575 71.1373 143.615 71.0565 143.615H71.0699ZM70.0871 141.917C70.0871 141.917 70.1679 141.917 70.2083 141.944L71.4738 142.685C72.1201 143.063 73.0086 142.968 73.9511 142.416C75.9975 141.243 77.64 138.371 77.64 136.011C77.64 134.933 77.2765 134.137 76.6437 133.76L75.3782 133.018C75.2974 132.964 75.2435 132.87 75.2705 132.776C75.2839 132.681 75.3647 132.6 75.4724 132.587C75.5532 132.587 75.634 132.56 75.7148 132.56L70.9488 129.782C70.2218 129.364 69.2389 129.459 68.1888 130.079C65.927 131.387 64.096 134.569 64.096 137.171C64.096 138.371 64.4999 139.261 65.2134 139.679L69.9794 142.456C69.939 142.389 69.9121 142.308 69.8852 142.227C69.8448 142.132 69.8852 142.025 69.9525 141.957C69.9929 141.917 70.0467 141.903 70.1006 141.903L70.0871 141.917Z" fill="#E2E2E2"/>
  <path d="M74.046 133.369C71.7169 134.717 69.832 137.993 69.832 140.676C69.832 143.359 71.7438 144.438 74.0729 143.09C76.4021 141.741 78.2869 138.465 78.2734 135.782C78.26 133.099 76.3617 132.021 74.0326 133.355L74.046 133.369Z" fill="white"/>
  <path d="M72.1748 143.901C71.7305 143.901 71.3131 143.793 70.9496 143.591C70.0745 143.092 69.5898 142.054 69.5898 140.665C69.5898 137.914 71.5285 134.544 73.925 133.155C75.1232 132.454 76.2811 132.36 77.1562 132.859C78.0313 133.357 78.5159 134.396 78.5159 135.784C78.5159 138.535 76.5772 141.905 74.1943 143.294C73.4942 143.698 72.8075 143.901 72.1882 143.901H72.1748ZM74.1539 133.573C71.8921 134.881 70.0611 138.063 70.0611 140.665C70.0611 141.865 70.465 142.755 71.1785 143.173C71.9055 143.591 72.8883 143.483 73.9385 142.876C76.2003 141.568 78.0313 138.386 78.0313 135.784C78.0313 134.584 77.6274 133.694 76.9138 133.277C76.1868 132.859 75.204 132.966 74.1539 133.573Z" fill="#E2E2E2"/>
  <path d="M72.1755 141.958C71.6235 141.958 71.5293 141.149 71.5293 140.663C71.5293 138.6 73.091 135.877 74.8951 134.839C75.4202 134.529 75.7702 134.488 75.9318 134.488C76.4972 134.488 76.578 135.297 76.578 135.783C76.578 137.845 75.0163 140.569 73.2257 141.607C72.7006 141.917 72.3506 141.958 72.189 141.958H72.1755Z" fill="#E2E2E2"/>
  <path d="M72.1737 142.199C71.8506 142.199 71.2986 141.997 71.2852 140.662C71.2852 138.518 72.9007 135.714 74.7587 134.635C75.3376 134.298 75.728 134.258 75.9165 134.258C76.2396 134.258 76.7916 134.46 76.8051 135.795C76.8051 137.939 75.1895 140.743 73.3316 141.821C72.7526 142.159 72.3622 142.199 72.1737 142.199ZM75.93 134.73C75.8223 134.73 75.5126 134.757 75.0145 135.053C73.2777 136.051 71.7698 138.68 71.7698 140.675C71.7698 140.918 71.7968 141.741 72.1737 141.741C72.2814 141.741 72.6045 141.714 73.1027 141.417C74.8394 140.419 76.3473 137.79 76.3473 135.808C76.3473 135.566 76.3204 134.743 75.9434 134.743L75.93 134.73Z" fill="#E2E2E2"/>
  <path d="M146.21 93.6896L144.944 92.948C145.537 92.8536 146.062 92.948 146.493 93.1907L140.501 89.6987C139.734 89.2538 138.67 89.3077 137.499 89.9953C135.17 91.3436 133.285 94.6199 133.285 97.3029C133.285 98.6376 133.756 99.5679 134.524 100.013L140.515 103.505C140.084 103.249 139.747 102.831 139.532 102.278L140.798 103.019C141.498 103.424 142.454 103.37 143.517 102.75C145.617 101.536 147.327 98.5702 147.327 96.1434C147.327 94.9434 146.896 94.094 146.21 93.6896Z" fill="white"/>
  <path d="M140.513 103.735C140.513 103.735 140.433 103.735 140.392 103.708L134.401 100.216C133.539 99.7168 133.055 98.6787 133.055 97.3035C133.055 94.553 134.993 91.1824 137.39 89.7937C138.602 89.0926 139.746 88.9847 140.621 89.4971L146.612 92.9891C146.72 93.0565 146.76 93.2048 146.693 93.3126C146.626 93.4205 146.477 93.4609 146.37 93.3935C146.208 93.2992 146.033 93.2317 145.831 93.1913L146.316 93.4744C147.11 93.9328 147.541 94.8766 147.555 96.1305C147.555 98.6382 145.804 101.685 143.623 102.939C142.519 103.573 141.469 103.667 140.675 103.209L140.19 102.926C140.325 103.074 140.473 103.195 140.634 103.29C140.742 103.357 140.783 103.505 140.715 103.613C140.675 103.694 140.594 103.735 140.513 103.735ZM139.53 102.036C139.53 102.036 139.611 102.036 139.652 102.063L140.917 102.804C141.563 103.182 142.452 103.087 143.394 102.535C145.441 101.362 147.083 98.4899 147.083 96.1305C147.083 95.0519 146.72 94.2564 146.087 93.8789L144.822 93.1374C144.741 93.0834 144.687 92.9891 144.714 92.8947C144.727 92.8003 144.808 92.7194 144.916 92.7059C144.997 92.7059 145.077 92.679 145.158 92.679L140.392 89.9016C139.665 89.4836 138.682 89.578 137.632 90.1982C135.37 91.506 133.539 94.6879 133.539 97.29C133.539 98.4899 133.943 99.3798 134.657 99.7977L139.423 102.575C139.382 102.508 139.355 102.427 139.329 102.346C139.288 102.252 139.329 102.144 139.396 102.076C139.436 102.036 139.49 102.022 139.544 102.022L139.53 102.036Z" fill="#E2E2E2"/>
  <path d="M143.489 93.4879C141.16 94.8362 139.275 98.1124 139.275 100.795C139.275 103.478 141.187 104.557 143.516 103.209C145.845 101.861 147.73 98.5843 147.717 95.9013C147.703 93.2183 145.805 92.1397 143.476 93.4744L143.489 93.4879Z" fill="white"/>
  <path d="M141.632 104.032C141.188 104.032 140.77 103.924 140.407 103.721C139.532 103.223 139.047 102.184 139.047 100.796C139.047 98.0453 140.986 94.6747 143.382 93.286C144.58 92.5849 145.738 92.4906 146.613 92.9894C147.488 93.4883 147.973 94.5264 147.973 95.9151C147.973 98.6655 146.034 102.036 143.651 103.425C142.951 103.829 142.265 104.032 141.645 104.032H141.632ZM143.611 93.704C141.349 95.0118 139.518 98.1937 139.518 100.796C139.518 101.996 139.922 102.886 140.636 103.304C141.363 103.721 142.345 103.614 143.395 103.007C145.657 101.699 147.488 98.5172 147.488 95.9151C147.488 94.7152 147.084 93.8253 146.371 93.4074C145.644 92.9894 144.661 93.0973 143.611 93.704Z" fill="#E2E2E2"/>
  <path d="M141.633 102.09C141.067 102.09 140.986 101.281 140.986 100.796C140.986 98.7333 142.548 96.0098 144.352 94.9716C144.877 94.6615 145.227 94.6211 145.389 94.6211C145.954 94.6211 146.035 95.4301 146.035 95.9154C146.035 97.9782 144.473 100.702 142.683 101.74C142.158 102.05 141.808 102.09 141.646 102.09H141.633Z" fill="#E2E2E2"/>
  <path d="M141.631 102.318C141.308 102.318 140.756 102.116 140.742 100.781C140.742 98.6374 142.358 95.8196 144.216 94.7545C144.795 94.4174 145.185 94.377 145.374 94.377C145.697 94.377 146.249 94.5792 146.262 95.914C146.262 98.0577 144.647 100.862 142.789 101.941C142.21 102.278 141.819 102.318 141.631 102.318ZM145.387 94.8488C145.279 94.8488 144.97 94.8758 144.471 95.1724C142.735 96.1701 141.227 98.7992 141.227 100.795C141.227 101.037 141.254 101.86 141.631 101.86C141.738 101.86 142.062 101.833 142.56 101.536C144.296 100.538 145.804 97.9094 145.804 95.9274C145.804 95.6848 145.777 94.8623 145.4 94.8623L145.387 94.8488Z" fill="#E2E2E2"/>
  <path d="M95.0755 125.953L70.0339 111.379L69.9531 79.0879L94.9812 93.6625L95.0755 125.953Z" fill="#E2E2E2"/>
  <path d="M95.0754 126.196C95.0754 126.196 94.9946 126.196 94.9542 126.169L69.9127 111.595C69.8454 111.554 69.7915 111.473 69.7915 111.392L69.6973 79.1017C69.6973 79.0208 69.7377 78.9399 69.8184 78.8995C69.8857 78.859 69.98 78.859 70.0608 78.8995L95.1023 93.4741C95.1696 93.5145 95.2235 93.5954 95.2235 93.6763L95.3177 125.967C95.3177 126.048 95.2773 126.129 95.1966 126.169C95.1562 126.196 95.1158 126.196 95.0754 126.196ZM70.2762 111.244L94.8465 125.535L94.7523 93.7976L70.1819 79.5062L70.2762 111.244Z" fill="#E2E2E2"/>
  <path d="M76.0113 84.1991C75.217 83.7272 74.2207 84.2935 74.2207 85.2238L74.3015 114.737C74.3015 115.155 74.5304 115.546 74.8939 115.762C75.6882 116.22 76.671 115.654 76.671 114.737L76.5902 85.2238C76.5902 84.8058 76.3748 84.4283 76.0113 84.2126V84.1991Z" fill="white"/>
  <path d="M75.4866 116.153C75.2443 116.153 75.0019 116.085 74.7731 115.964C74.3422 115.708 74.073 115.236 74.073 114.737L73.9922 85.2238C73.9922 84.698 74.2615 84.2396 74.7057 83.9834C75.15 83.7273 75.6886 83.7273 76.1328 83.9969C76.5502 84.2531 76.8195 84.7115 76.8195 85.2104L76.9002 114.724C76.9002 115.236 76.631 115.694 76.1867 115.964C75.9578 116.099 75.7155 116.153 75.4732 116.153H75.4866ZM75.4058 84.2666C75.2443 84.2666 75.0827 84.307 74.9346 84.3879C74.6384 84.5632 74.4499 84.8733 74.4499 85.2104L74.5307 114.724C74.5307 115.061 74.7057 115.371 75.0019 115.546C75.2981 115.721 75.6482 115.721 75.9444 115.546C76.2406 115.371 76.4156 115.061 76.4156 114.724L76.3348 85.2104C76.3348 84.8868 76.1598 84.5767 75.877 84.4014C75.7289 84.307 75.5539 84.2666 75.3924 84.2666H75.4058Z" fill="#E2E2E2"/>
  <path d="M88.0875 91.0878C87.2932 90.6159 86.2969 91.1822 86.2969 92.1125L86.3777 121.626C86.3777 122.044 86.6065 122.435 86.97 122.65C87.7644 123.109 88.7472 122.542 88.7472 121.626L88.6664 92.1125C88.6664 91.6945 88.451 91.317 88.0875 91.1013V91.0878Z" fill="white"/>
  <path d="M87.5628 123.028C87.3204 123.028 87.0781 122.96 86.8492 122.839C86.4184 122.583 86.1491 122.111 86.1491 121.612L86.0684 92.0988C86.0684 91.573 86.3376 91.1146 86.7819 90.8584C87.2397 90.6023 87.7647 90.6023 88.209 90.8719C88.6264 91.1281 88.8956 91.5865 88.8956 92.0853L88.9764 121.599C88.9764 122.111 88.7072 122.569 88.2629 122.839C88.034 122.974 87.7917 123.028 87.5493 123.028H87.5628ZM87.482 91.1416C87.3204 91.1416 87.1589 91.182 87.0108 91.2629C86.7146 91.4382 86.5261 91.7483 86.5261 92.0853L86.6069 121.599C86.6069 121.936 86.7819 122.246 87.0781 122.421C87.3743 122.596 87.7243 122.596 88.0205 122.421C88.3167 122.246 88.4917 121.936 88.4917 121.599L88.411 92.0853C88.411 91.7618 88.2359 91.4517 87.9532 91.2764C87.8051 91.182 87.6301 91.1416 87.4685 91.1416H87.482Z" fill="#E2E2E2"/>
  <path d="M94.9812 93.6627L69.9531 79.0881L129.084 44.8965L154.125 59.4711L94.9812 93.6627Z" fill="white"/>
  <path d="M94.9812 93.9058C94.9812 93.9058 94.9004 93.9058 94.86 93.8788L69.8184 79.3042C69.7511 79.2637 69.6973 79.1829 69.6973 79.102C69.6973 79.0211 69.7377 78.9402 69.8184 78.8997L128.962 44.7081C129.03 44.6676 129.124 44.6676 129.205 44.7081L154.246 59.2827C154.313 59.3231 154.367 59.404 154.367 59.4849C154.367 59.5658 154.327 59.6467 154.246 59.6871L95.1023 93.8788C95.1023 93.8788 95.0215 93.9058 94.9812 93.9058ZM70.4108 79.102L94.9812 93.3934L153.654 59.4714L129.083 45.18L70.4108 79.102Z" fill="#E2E2E2"/>
  <path d="M154.126 75.3673V68.0059L94.9824 102.198L95.0093 109.545L154.126 75.3673Z" fill="#E2E2E2"/>
  <path d="M95.0075 109.775C95.0075 109.775 94.9268 109.775 94.8864 109.748C94.8191 109.708 94.7652 109.627 94.7652 109.546L94.7383 102.211C94.7383 102.13 94.7787 102.05 94.8594 102.009L154.003 67.8174C154.071 67.777 154.165 67.777 154.246 67.8174C154.313 67.8579 154.367 67.9388 154.367 68.0197V75.3677C154.367 75.4485 154.326 75.5294 154.246 75.5699L95.1287 109.748C95.1287 109.748 95.0479 109.775 95.0075 109.775ZM95.223 102.333V109.128L153.896 75.2193V68.4107L95.223 102.333Z" fill="#E2E2E2"/>
  <path d="M154.126 81.7715V77.7402L94.9824 111.932L94.9959 115.95L154.126 81.7715Z" fill="#E2E2E2"/>
  <path d="M94.9943 116.193C94.9943 116.193 94.9135 116.193 94.8731 116.166C94.8058 116.125 94.752 116.044 94.752 115.963V111.932C94.752 111.851 94.7789 111.77 94.8597 111.73L154.004 77.5381C154.071 77.4977 154.165 77.4977 154.246 77.5381C154.313 77.5786 154.367 77.6595 154.367 77.7404V81.7717C154.367 81.8526 154.327 81.9334 154.246 81.9739L95.1155 116.166C95.1155 116.166 95.0347 116.193 94.9943 116.193ZM95.2232 112.067V115.545L153.896 81.6368V78.1583L95.2232 112.08V112.067Z" fill="#E2E2E2"/>
  <path d="M61.3093 144.614L59.8687 143.778L36.2947 130.066C35.9042 129.837 35.6619 129.351 35.6484 128.65V125.172L60.6765 139.746V143.225C60.6765 143.292 60.6765 143.36 60.69 143.427C60.69 143.481 60.69 143.535 60.7035 143.576C60.7035 143.629 60.7169 143.67 60.7304 143.71C60.7304 143.737 60.7304 143.764 60.7438 143.791C60.7438 143.832 60.7573 143.859 60.7708 143.899C60.7708 143.94 60.7977 143.98 60.8112 144.007C60.8112 144.007 60.8381 144.101 60.865 144.128C60.8919 144.182 60.9189 144.223 60.9458 144.263C60.9727 144.304 60.9996 144.331 61.0266 144.371C61.1074 144.465 61.2016 144.56 61.2958 144.614H61.3093Z" fill="#E2E2E2"/>
  <path d="M61.3097 144.857C61.3097 144.857 61.2289 144.857 61.1885 144.83L36.1739 130.268C35.6892 129.985 35.4199 129.419 35.4199 128.651V125.172C35.4199 125.091 35.4603 125.01 35.5276 124.97C35.5949 124.929 35.6892 124.929 35.77 124.97L60.8115 139.544C60.8788 139.585 60.9327 139.666 60.9327 139.747V143.225C60.9327 143.225 60.9327 143.346 60.9462 143.4C60.9462 143.454 60.9462 143.495 60.9462 143.535C60.9462 143.589 60.9462 143.616 60.9731 143.657C60.9731 143.684 60.9731 143.71 60.9865 143.724C60.9865 143.764 61 143.791 61.0135 143.818C61.0135 143.859 61.0404 143.886 61.0539 143.926C61.0673 143.98 61.0808 144.007 61.0943 144.034C61.1212 144.075 61.1346 144.115 61.1616 144.142C61.175 144.169 61.202 144.196 61.2154 144.223C61.2827 144.304 61.3501 144.371 61.4308 144.412C61.5385 144.479 61.5789 144.627 61.5116 144.735C61.4712 144.816 61.3904 144.857 61.3097 144.857ZM35.8777 125.59V128.664C35.8777 129.244 36.0796 129.675 36.4027 129.864L60.5288 143.899C60.5288 143.899 60.5288 143.859 60.5153 143.845C60.5153 143.818 60.5019 143.778 60.5019 143.751C60.5019 143.71 60.4749 143.657 60.4749 143.603C60.4749 143.562 60.4749 143.508 60.4615 143.441C60.4615 143.387 60.4615 143.306 60.4615 143.239V139.895L35.8911 125.603L35.8777 125.59Z" fill="#E2E2E2"/>
  <path d="M46.9846 109.504C46.7019 110.704 46.0422 111.917 45.1671 112.821L37.52 120.843C36.3756 122.043 35.6352 123.741 35.6486 125.157L60.6902 139.732C60.6902 138.316 61.4306 136.604 62.5616 135.417L70.2087 127.395C71.0703 126.492 71.7435 125.265 72.0262 124.079L46.9846 109.504Z" fill="#E2E2E2"/>
  <path d="M60.6921 139.976C60.6921 139.976 60.6113 139.976 60.5709 139.949L35.5294 125.375C35.4621 125.334 35.4082 125.253 35.4082 125.172C35.4082 123.689 36.1621 121.937 37.3469 120.696L44.994 112.674C45.8422 111.798 46.475 110.625 46.7442 109.465C46.7577 109.398 46.8115 109.33 46.8789 109.303C46.9462 109.276 47.0269 109.276 47.0943 109.303L72.1358 123.878C72.2301 123.932 72.2705 124.04 72.2435 124.134C71.9473 125.375 71.2742 126.628 70.3721 127.559L62.725 135.581C61.6211 136.74 60.9075 138.372 60.9075 139.733C60.9075 139.814 60.8671 139.895 60.7863 139.936C60.7459 139.963 60.7056 139.963 60.6652 139.963L60.6921 139.976ZM35.8929 125.038L60.4767 139.342C60.5979 137.954 61.3249 136.39 62.4019 135.257L70.049 127.235C70.8568 126.399 71.4627 125.294 71.7588 124.188L47.1481 109.87C46.825 111.002 46.1788 112.135 45.3575 112.998L37.7104 121.02C36.6468 122.139 35.9467 123.703 35.9063 125.038H35.8929Z" fill="#E2E2E2"/>
  <path d="M78.2738 135.593C78.2738 135.526 78.2738 135.445 78.2738 135.378C78.2738 135.297 78.2738 135.216 78.2738 135.135V135.014C78.2738 135.014 78.2604 134.892 78.2604 134.838C78.2604 134.798 78.2604 134.771 78.2604 134.73C78.2604 134.649 78.2469 134.569 78.2334 134.488C78.2334 134.42 78.2065 134.353 78.2065 134.285C78.2065 134.232 78.193 134.191 78.1796 134.151C78.1527 134.029 78.1257 133.908 78.0853 133.787C78.0853 133.746 78.0584 133.706 78.045 133.665C77.9911 133.503 77.9373 133.355 77.8699 133.22C77.843 133.166 77.8161 133.112 77.7891 133.059C77.7622 132.991 77.7218 132.937 77.6949 132.883C77.6545 132.829 77.6276 132.775 77.5872 132.722C77.5737 132.695 77.5468 132.668 77.5334 132.641C77.5064 132.6 77.466 132.56 77.4391 132.519C77.3449 132.398 77.2372 132.304 77.116 132.209C77.0621 132.169 77.0218 132.128 76.9679 132.101C76.9679 132.101 76.8602 132.02 76.8063 131.993C76.7794 131.98 76.7525 131.966 76.7256 131.953C75.7697 131.441 74.4637 131.535 73.0366 132.357C72.9962 132.384 72.9424 132.411 72.902 132.438C70.0478 134.178 67.7456 138.195 67.7591 141.512C67.7591 141.58 67.7591 141.66 67.7591 141.728L66.3724 142.523L62.9662 144.492C62.3469 144.856 61.7814 144.883 61.3775 144.627C61.2698 144.559 61.189 144.478 61.1082 144.384C61.0813 144.357 61.0544 144.316 61.0275 144.276C61.0005 144.236 60.9736 144.195 60.9467 144.141C60.9332 144.114 60.9198 144.074 60.8928 144.033C60.8928 144.033 60.8659 143.939 60.8524 143.899C60.8524 143.858 60.8255 143.831 60.8255 143.791C60.8255 143.764 60.8121 143.737 60.8121 143.71C60.8121 143.669 60.7986 143.615 60.7851 143.575C60.7851 143.521 60.7851 143.481 60.7717 143.427C60.7717 143.359 60.7717 143.305 60.7717 143.224V139.746C60.7582 138.33 61.4987 136.631 62.643 135.431L68.136 129.661L69.8055 127.908L70.2901 127.396C71.1518 126.493 71.825 125.266 72.1077 124.079L74.383 114.426L74.4907 113.94L75.4196 109.99L76.7256 109.235L86.4056 103.64L88.7617 102.278L92.0467 100.377L92.114 124.201V127.639L78.3411 135.607L78.2738 135.593Z" fill="#E2E2E2"/>
  <path d="M61.9151 145.018C61.6459 145.018 61.4035 144.95 61.1881 144.816C61.067 144.735 60.9458 144.64 60.8515 144.519C60.8246 144.479 60.7842 144.438 60.7573 144.398C60.7304 144.357 60.69 144.303 60.6631 144.236C60.6496 144.209 60.6227 144.155 60.6092 144.115V144.088C60.6092 144.088 60.5688 144.007 60.5554 143.966C60.5419 143.926 60.5284 143.885 60.515 143.831C60.515 143.804 60.5015 143.764 60.5015 143.737C60.5015 143.697 60.4746 143.643 60.4746 143.589C60.4746 143.548 60.4746 143.494 60.4611 143.427C60.4611 143.373 60.4611 143.292 60.4611 143.225V139.746C60.4476 138.263 61.2151 136.51 62.3864 135.27L70.0334 127.248C70.8816 126.372 71.5144 125.199 71.7837 124.039L75.0956 109.95C75.0956 109.95 75.1495 109.829 75.2033 109.802L91.8304 100.189C91.8977 100.148 91.9919 100.148 92.0727 100.189C92.14 100.229 92.1939 100.31 92.1939 100.391L92.2747 127.652C92.2747 127.733 92.2343 127.814 92.1535 127.855L78.3672 135.823C78.2864 135.863 78.2056 135.863 78.1248 135.823C78.0575 135.782 78.0037 135.701 78.0037 135.607C78.0037 135.54 78.0037 135.472 78.0037 135.405C78.0037 135.324 78.0037 135.257 78.0037 135.176V135.054C78.0037 135.054 77.9902 134.946 77.9902 134.893C77.9902 134.852 77.9902 134.825 77.9902 134.798C77.9902 134.704 77.9767 134.636 77.9633 134.555C77.9633 134.488 77.9363 134.421 77.9363 134.353L77.9094 134.218C77.8825 134.084 77.8556 133.976 77.8152 133.881C77.8017 133.827 77.7883 133.8 77.7748 133.76C77.7209 133.598 77.6671 133.463 77.5998 133.342C77.5728 133.288 77.5594 133.248 77.5325 133.207V133.18C77.5325 133.18 77.4651 133.086 77.4382 133.032C77.3978 132.965 77.3709 132.924 77.3305 132.87C77.317 132.843 77.3036 132.83 77.2766 132.803C77.2497 132.762 77.2093 132.735 77.1824 132.695C77.0882 132.587 76.9939 132.493 76.8862 132.412C76.8458 132.385 76.8054 132.344 76.7651 132.317H76.7516C76.7516 132.317 76.6573 132.236 76.6035 132.21H76.5766L76.5362 132.169C75.6072 131.67 74.3821 131.805 73.0627 132.574C73.0223 132.6 72.9819 132.627 72.9415 132.654C70.1546 134.34 67.9063 138.317 67.9063 141.526C67.9063 141.593 67.9063 141.661 67.9063 141.728C67.9063 141.823 67.8659 141.903 67.7851 141.944L62.9922 144.708C62.6152 144.924 62.2383 145.045 61.8882 145.045L61.9151 145.018ZM75.5534 110.139L72.2549 124.133C71.9587 125.374 71.2855 126.628 70.3835 127.558L62.7364 135.58C61.6324 136.74 60.9189 138.371 60.9323 139.733V143.211C60.9323 143.211 60.9323 143.333 60.9458 143.387C60.9458 143.44 60.9458 143.481 60.9458 143.521C60.9458 143.575 60.9458 143.602 60.9727 143.643C60.9727 143.67 60.9727 143.697 60.9862 143.71C60.9862 143.751 60.9996 143.778 61.0131 143.804C61.0131 143.845 61.04 143.872 61.0535 143.912C61.067 143.966 61.0804 143.993 61.0939 144.02C61.1208 144.061 61.1343 144.101 61.1612 144.128C61.1881 144.155 61.2016 144.182 61.2285 144.209C61.2824 144.276 61.3631 144.344 61.4439 144.398C61.7805 144.6 62.2786 144.559 62.7902 144.249L67.462 141.553V141.472C67.462 138.061 69.7642 133.989 72.7126 132.196C72.753 132.169 72.8069 132.142 72.8473 132.115C74.3013 131.266 75.7014 131.131 76.7785 131.711C76.792 131.711 76.8189 131.724 76.8324 131.738H76.8593C76.8593 131.738 76.9805 131.819 77.0343 131.859H77.0478C77.0478 131.859 77.1555 131.953 77.2093 131.994C77.344 132.102 77.4651 132.223 77.5594 132.344C77.5863 132.385 77.6267 132.425 77.6671 132.466C77.694 132.493 77.7075 132.52 77.7344 132.547C77.7748 132.6 77.8152 132.668 77.8556 132.735C77.8825 132.776 77.9229 132.843 77.9633 132.911V132.938H77.9902C77.9902 132.938 78.0441 133.045 78.071 133.099C78.1383 133.234 78.2056 133.382 78.2595 133.558C78.2729 133.598 78.2864 133.652 78.2999 133.693C78.3402 133.8 78.3672 133.922 78.3941 134.07L78.421 134.218C78.421 134.299 78.4479 134.367 78.4614 134.434C78.4614 134.515 78.4883 134.596 78.4883 134.69C78.4883 134.717 78.4883 134.758 78.4883 134.798C78.4883 134.852 78.4883 134.919 78.4883 134.973V135.149L91.8034 127.45L91.7227 100.741L75.5264 110.098L75.5534 110.139Z" fill="#E2E2E2"/>
  <path d="M70.2352 78.0234H69.6697C69.2459 78.0234 68.9023 78.3675 68.9023 78.7919V94.0946C68.9023 94.519 69.2459 94.8631 69.6697 94.8631H70.2352C70.659 94.8631 71.0026 94.519 71.0026 94.0946V78.7919C71.0026 78.3675 70.659 78.0234 70.2352 78.0234Z" fill="#E2E2E2"/>
  <path d="M70.7619 79.1835C70.7619 79.3318 70.4926 79.4396 70.1695 79.4396H69.7252C69.4021 79.4396 69.1328 79.3183 69.1328 79.1835V74.0062C69.1328 73.8579 69.4021 73.75 69.7252 73.75H70.1695C70.4926 73.75 70.7619 73.8713 70.7619 74.0062V79.1835Z" fill="#E2E2E2"/>
  <path d="M80.0101 131.293C79.3235 130.228 78.5561 129.769 77.8156 129.244H77.6271C76.6712 128.812 75.648 128.691 74.6248 128.812C73.8709 128.893 73.3324 128.098 73.7093 127.437C74.8402 125.455 75.2441 122.772 77.0617 115.06L77.1694 114.561L77.654 112.512C77.7617 112.08 78.031 111.703 78.4214 111.474L86.7013 106.687C87.7918 106.054 89.1382 106.836 89.1516 108.103L89.2055 125.981L80.0101 131.293Z" fill="white"/>
  <path d="M80.0102 131.536C79.9295 131.536 79.8622 131.495 79.8083 131.428C79.2294 130.525 78.6101 130.093 77.9504 129.635C77.8831 129.581 77.8158 129.54 77.735 129.486H77.6138C77.6138 129.486 77.5465 129.486 77.5196 129.459C76.631 129.068 75.6751 128.934 74.6519 129.041C74.2076 129.095 73.7903 128.893 73.5479 128.516C73.3056 128.152 73.2921 127.693 73.5075 127.316C74.3557 125.819 74.8 123.864 75.7828 119.577C76.079 118.269 76.4156 116.772 76.8329 115.006L77.4253 112.458C77.5465 111.959 77.8696 111.528 78.3139 111.272L86.5938 106.485C87.1727 106.148 87.8728 106.148 88.4517 106.485C89.0306 106.822 89.3806 107.429 89.3806 108.103L89.4345 125.981C89.4345 126.062 89.3941 126.143 89.3133 126.183L80.118 131.495C80.118 131.495 80.0372 131.522 79.9968 131.522L80.0102 131.536ZM77.6677 129.015H77.8023C77.8023 129.015 77.8965 129.028 77.9369 129.055C78.0312 129.122 78.1119 129.176 78.2062 129.244C78.8255 129.675 79.4717 130.134 80.0641 130.983L88.9498 125.846L88.896 108.103C88.896 107.604 88.6402 107.146 88.1959 106.903C87.7651 106.647 87.24 106.647 86.8092 106.903L78.5293 111.689C78.1927 111.878 77.9638 112.202 77.8696 112.579L77.2772 115.128C76.8599 116.894 76.5233 118.39 76.2271 119.698C75.2443 124.026 74.7865 126.008 73.898 127.572C73.7633 127.801 73.7768 128.057 73.9249 128.286C74.073 128.516 74.3153 128.624 74.5846 128.597C75.6751 128.475 76.7118 128.624 77.6542 129.028L77.6677 129.015Z" fill="#E2E2E2"/>
  <path d="M87.5229 118.297C87.9402 118.054 88.2768 118.243 88.2768 118.728C88.2768 119.214 87.9402 119.794 87.5229 120.036L85.3418 121.304C84.9245 121.546 84.5879 121.358 84.5879 120.872C84.5879 120.387 84.9245 119.807 85.3418 119.564L87.5229 118.297ZM87.5229 119.645C87.7517 119.51 87.9402 119.187 87.9402 118.917C87.9402 118.648 87.7517 118.54 87.5229 118.675L85.3418 119.942C85.113 120.077 84.9245 120.4 84.9245 120.67C84.9245 120.94 85.113 121.047 85.3418 120.913L87.5229 119.645Z" fill="#E2E2E2"/>
  <path d="M87.5359 118.673C87.7648 118.538 87.9533 118.646 87.9533 118.916C87.9533 119.186 87.7648 119.509 87.5359 119.644L85.3549 120.911C85.126 121.046 84.9375 120.938 84.9375 120.669C84.9375 120.399 85.126 120.075 85.3549 119.941L87.5359 118.673Z" fill="#E2E2E2"/>
  <path d="M42.1381 128.88C42.8786 129.527 43.4037 130.605 43.4037 131.482C43.4037 132.547 42.6497 132.978 41.7208 132.439L37.3452 129.904C36.4163 129.365 35.6758 128.071 35.6758 127.005V125.752C35.6758 125.212 35.8777 124.835 36.1874 124.66C36.497 124.484 36.9144 124.525 37.3587 124.781C37.4933 124.862 37.6279 124.956 37.7626 125.077L42.1381 128.866V128.88ZM42.6766 132.156C42.919 132.021 43.0671 131.724 43.0671 131.293C43.0671 130.578 42.6497 129.729 42.0573 129.203L37.6818 125.415C37.5741 125.32 37.4664 125.239 37.3587 125.172C36.9952 124.97 36.6586 124.943 36.4163 125.077C36.1739 125.212 36.0124 125.509 36.0124 125.94V127.194C36.0124 127.626 36.1605 128.098 36.4028 128.516C36.6451 128.933 36.9817 129.298 37.3452 129.513L41.7208 132.048C42.0977 132.264 42.4208 132.277 42.6766 132.142V132.156Z" fill="#E2E2E2"/>
  <path d="M37.358 125.186C37.4657 125.253 37.5734 125.321 37.6812 125.428L42.0567 129.217C42.6491 129.729 43.0664 130.592 43.0664 131.307C43.0664 131.738 42.9183 132.035 42.676 132.17C42.4337 132.304 42.0971 132.291 41.7201 132.075L37.3446 129.541C36.9676 129.325 36.6445 128.961 36.4021 128.543C36.1598 128.125 36.0117 127.653 36.0117 127.222V125.968C36.0117 125.523 36.1733 125.24 36.4156 125.105C36.658 124.97 36.9945 124.997 37.358 125.199V125.186Z" fill="white"/>
  <path d="M42.4067 131.589L38.0312 129.055C37.6542 128.839 37.3311 128.475 37.0888 128.057C36.8464 127.639 36.6983 127.167 36.6983 126.736V125.482C36.6983 125.293 36.7253 125.145 36.7791 125.01C36.6445 125.01 36.5233 125.037 36.4156 125.091C36.1733 125.225 36.0117 125.522 36.0117 125.954V127.207C36.0117 127.639 36.1598 128.111 36.4021 128.529C36.6445 128.947 36.9811 129.311 37.3446 129.526L41.7201 132.061C42.0971 132.277 42.4202 132.29 42.676 132.156C42.8106 132.075 42.9183 131.94 42.9857 131.765C42.8106 131.765 42.6222 131.697 42.4067 131.589Z" fill="#E2E2E2"/>
  <path d="M59.0342 137.926C59.3977 138.128 59.7342 138.492 59.9766 138.91C60.2189 139.328 60.3805 139.8 60.367 140.245L60.5286 140.339L60.367 140.245V141.499C60.367 141.93 60.2054 142.227 59.9631 142.362C59.7208 142.497 59.3842 142.483 59.0072 142.267L54.6317 139.733C54.2547 139.517 53.9316 139.153 53.6893 138.735C53.4469 138.317 53.2988 137.845 53.2988 137.414C53.2988 136.699 53.7162 136.335 54.322 136.497L58.6976 137.764C58.8053 137.791 58.913 137.845 59.0207 137.913L59.0342 137.926Z" fill="white"/>
  <path d="M60.2063 138.761C60.516 139.287 60.7044 139.88 60.7044 140.433V141.687C60.7044 142.752 59.9505 143.183 59.0215 142.644L54.646 140.109C53.717 139.57 52.9766 138.276 52.9766 137.211C52.9766 136.321 53.5016 135.862 54.2556 136.078L58.6311 137.346C58.7657 137.386 58.9004 137.453 59.035 137.521C59.4793 137.777 59.9101 138.235 60.2063 138.761ZM60.3679 141.485V140.231C60.3679 139.786 60.2198 139.314 59.9774 138.896C59.7351 138.478 59.3985 138.114 59.035 137.912C58.9273 137.844 58.8196 137.804 58.7119 137.764L54.3363 136.496C53.744 136.321 53.3131 136.698 53.3131 137.413C53.3131 137.844 53.4612 138.316 53.7036 138.734C53.9459 139.152 54.2825 139.516 54.646 139.732L59.0215 142.267C59.3985 142.482 59.7216 142.509 59.9774 142.361C60.2198 142.226 60.3679 141.93 60.3679 141.498V141.485Z" fill="#E2E2E2"/>
  <path d="M72.0259 124.066L46.9844 109.505L50.3098 95.416L75.3379 109.977L72.0259 124.066Z" fill="white"/>
  <path d="M72.0267 124.309C72.0267 124.309 71.9459 124.309 71.9055 124.282L46.8639 109.707C46.7697 109.653 46.7293 109.545 46.7562 109.451L50.0682 95.3617C50.0816 95.2943 50.1355 95.2269 50.2028 95.1999C50.2701 95.1729 50.3509 95.1729 50.4182 95.1999L75.4598 109.775C75.554 109.828 75.5944 109.936 75.5675 110.031L72.2555 124.12C72.2421 124.187 72.1882 124.255 72.1209 124.282C72.094 124.282 72.0536 124.295 72.0267 124.295V124.309ZM47.2544 109.384L71.8651 123.702L75.0694 110.098L50.4586 95.7797L47.2544 109.384Z" fill="#E2E2E2"/>
  <path d="M75.3386 109.977L50.3105 95.4156L66.9376 85.7891L91.9792 100.364L75.3386 109.977Z" fill="white"/>
  <path d="M75.3386 110.22C75.3386 110.22 75.2578 110.22 75.2174 110.193L50.1759 95.6182C50.1085 95.5777 50.0547 95.4968 50.0547 95.4159C50.0547 95.335 50.0951 95.2541 50.1759 95.2137L66.8029 85.6006C66.8702 85.5602 66.9645 85.5602 67.0453 85.6006L92.0868 100.175C92.1541 100.216 92.208 100.297 92.208 100.377C92.208 100.458 92.1676 100.539 92.0868 100.58L75.4598 110.193C75.4598 110.193 75.379 110.22 75.3386 110.22ZM50.7682 95.4159L75.3386 109.707L91.4944 100.364L66.9241 86.0725L50.7682 95.4159Z" fill="#E2E2E2"/>
  <path d="M59.5587 138.358C59.626 138.587 59.6664 138.83 59.6664 139.059V140.313C59.6664 140.744 59.5049 141.041 59.2625 141.176C59.0202 141.311 58.6836 141.297 58.3066 141.081L53.9311 138.547C53.7426 138.439 53.5541 138.291 53.3926 138.115C53.4599 138.331 53.5541 138.533 53.6618 138.735C53.9042 139.153 54.2408 139.517 54.6043 139.733L58.9798 142.268C59.3568 142.484 59.6799 142.511 59.9357 142.362C60.178 142.227 60.3261 141.931 60.3261 141.499V140.245C60.3261 139.801 60.178 139.329 59.9357 138.911C59.8145 138.708 59.6799 138.52 59.5318 138.358H59.5587Z" fill="#E2E2E2"/>
  <path d="M92.6395 90.0234H92.074C91.6502 90.0234 91.3066 90.3675 91.3066 90.7919V106.095C91.3066 106.519 91.6502 106.863 92.074 106.863H92.6395C93.0633 106.863 93.4069 106.519 93.4069 106.095V90.7919C93.4069 90.3675 93.0633 90.0234 92.6395 90.0234Z" fill="#E2E2E2"/>
  <path d="M93.1759 91.1952C93.1759 91.3435 92.9067 91.4513 92.5836 91.4513H92.1393C91.8161 91.4513 91.5469 91.33 91.5469 91.1952V86.0179C91.5469 85.8696 91.8161 85.7617 92.1393 85.7617H92.5836C92.9067 85.7617 93.1759 85.8831 93.1759 86.0179V91.1952Z" fill="#E2E2E2"/>
  <path d="M147.825 95.4573C147.825 95.3629 147.825 95.2551 147.825 95.1607C147.825 91.8035 145.442 90.4418 142.521 92.1271C139.599 93.8124 137.23 97.9111 137.243 101.282C137.243 101.376 137.243 101.471 137.243 101.565L135.587 102.522C135.587 102.522 135.587 102.441 135.587 102.401C135.587 98.9358 133.123 97.5336 130.108 99.2729C127.092 101.012 124.655 105.246 124.668 108.711C124.668 108.751 124.668 108.792 124.668 108.832L95.0628 125.941V119.187L95.0359 118.876V112.499L95.0089 111.003V105.637L94.9551 93.6507L154.099 59.459L154.126 71.3236V76.6896L154.153 78.1862V84.8735L154.193 91.7631L147.798 95.4573H147.825Z" fill="#E2E2E2"/>
  <path d="M95.0749 126.196C95.0749 126.196 94.9941 126.196 94.9537 126.169C94.8864 126.129 94.8325 126.048 94.8325 125.967L94.7383 93.6762C94.7383 93.5953 94.7787 93.5144 94.8594 93.4739L154.003 59.2823C154.071 59.2418 154.165 59.2418 154.246 59.2823C154.313 59.3227 154.367 59.4036 154.367 59.4845L154.461 91.7751C154.461 91.856 154.421 91.9369 154.34 91.9774L147.945 95.6716C147.878 95.712 147.783 95.712 147.703 95.6716C147.635 95.6311 147.581 95.5502 147.581 95.4559V95.4289C147.581 95.348 147.581 95.2536 147.581 95.1727C147.581 93.6357 147.07 92.5032 146.141 91.9774C145.212 91.4381 143.96 91.5729 142.627 92.3549C139.773 93.9997 137.457 98.0175 137.47 101.294V101.388C137.47 101.388 137.47 101.51 137.47 101.577C137.47 101.671 137.43 101.752 137.349 101.793L135.693 102.75C135.626 102.79 135.532 102.79 135.451 102.75C135.384 102.709 135.33 102.629 135.33 102.548V102.426C135.33 100.849 134.805 99.6624 133.849 99.1231C132.893 98.5703 131.601 98.7052 130.214 99.5141C127.265 101.213 124.882 105.352 124.882 108.75C124.882 108.777 124.882 108.817 124.882 108.844C124.882 108.938 124.842 109.033 124.761 109.073L95.1556 126.183C95.1556 126.183 95.0749 126.209 95.0345 126.209L95.0749 126.196ZM95.223 93.811L95.3172 125.549L124.438 108.709C124.438 105.177 126.929 100.849 129.998 99.0827C131.533 98.1928 133.001 98.058 134.105 98.6917C135.155 99.2984 135.747 100.512 135.815 102.13L136.999 101.442V101.294C136.999 97.8558 139.409 93.6627 142.398 91.9369C143.892 91.074 145.306 90.9392 146.397 91.5594C147.447 92.1661 148.039 93.4065 148.066 95.0514L153.976 91.6268L153.882 59.889L95.2095 93.811H95.223Z" fill="#E2E2E2"/>
  <path d="M89.3801 31.0224V24.6048L85.3276 27.9889L71.0028 19.7106C69.1718 18.659 66.2233 18.659 64.4058 19.7106L38.368 34.8649L36.1869 33.6111L34.6387 31.8314V38.4783H34.6791C34.8002 39.058 35.2445 39.6243 36.0254 40.0692L53.1102 49.9519C54.9412 51.0035 57.8896 51.0035 59.7072 49.9519L88.101 33.4223C89.2185 32.7752 89.6358 31.8718 89.3801 31.0359V31.0224Z" fill="white"/>
  <path d="M56.4081 51.2748C55.1291 51.2748 53.8367 50.9782 52.8404 50.3984L35.7556 40.5157C34.9343 40.0439 34.3958 39.4237 34.1939 38.7361C34.14 38.6552 34.0996 38.5608 34.0996 38.4529V31.806C34.0996 31.5768 34.2342 31.3746 34.4497 31.2937C34.6651 31.2128 34.8939 31.2802 35.0555 31.442L36.5365 33.1543L38.3674 34.2059L64.136 19.2134C66.1286 18.0539 69.2655 18.0539 71.2715 19.2134L85.2732 27.3029L89.0429 24.1615C89.2045 24.0266 89.4334 23.9997 89.6218 24.0806C89.8103 24.1749 89.9315 24.3637 89.9315 24.5659V30.9162C90.2277 32.0218 89.6488 33.1004 88.3832 33.8419L59.9893 50.3715C58.9931 50.9512 57.7006 51.2478 56.4216 51.2478L56.4081 51.2748ZM35.1901 38.2642C35.1901 38.2642 35.2036 38.3181 35.2171 38.3451C35.3113 38.79 35.6883 39.2349 36.2941 39.5855L53.3789 49.4681C55.0214 50.4254 57.7948 50.4254 59.4374 49.4681L87.8313 32.9386C88.6794 32.4397 89.0564 31.806 88.8679 31.1858C88.8545 31.1319 88.841 31.078 88.841 31.0241V25.7659L85.6771 28.4084C85.5021 28.5568 85.2598 28.5702 85.0578 28.4624L70.733 20.1841C69.0905 19.2269 66.3171 19.2269 64.6745 20.1841L38.6367 35.3385C38.4751 35.4328 38.2597 35.4328 38.0982 35.3385L35.9171 34.0846C35.9171 34.0846 35.8229 34.0172 35.7825 33.9767L35.1901 33.2891V38.2776V38.2642Z" fill="#E2E2E2"/>
  <path d="M88.075 23.1226L70.9902 13.2399C69.1592 12.1883 66.2107 12.1883 64.3932 13.2399L35.9993 29.7695C34.1818 30.8211 34.1952 32.5334 36.0262 33.5985L53.111 43.4812C54.942 44.5328 57.8905 44.5328 59.708 43.4812L88.1019 26.9516C89.9194 25.9 89.906 24.1877 88.075 23.1226Z" fill="white"/>
  <path d="M56.4103 44.816C55.1313 44.816 53.8388 44.5194 52.8425 43.9396L35.7577 34.0569C34.6941 33.4502 34.1152 32.6008 34.1152 31.6705C34.1152 30.7537 34.6942 29.9043 35.7443 29.2976L64.1382 12.7681C66.1307 11.6086 69.2677 11.6086 71.2737 12.7681L88.3585 22.6507C89.4221 23.2709 90.001 24.1069 90.001 25.0371C90.001 25.954 89.4221 26.8034 88.3719 27.4101L59.978 43.9396C58.9818 44.5194 57.6893 44.816 56.4103 44.816ZM67.6925 12.9973C66.5885 12.9973 65.4845 13.2399 64.6767 13.7118L36.2828 30.2414C35.5827 30.6459 35.1923 31.1582 35.1923 31.684C35.1923 32.2098 35.5827 32.7222 36.2963 33.1401L53.3811 43.0228C55.0236 43.9801 57.797 43.9801 59.4395 43.0228L87.8334 26.4933C88.5335 26.0888 88.9239 25.5765 88.9239 25.0506C88.9239 24.5248 88.5335 24.0125 87.8199 23.5945L70.7351 13.7118C69.9139 13.2399 68.8099 12.9973 67.7059 12.9973H67.6925Z" fill="#E2E2E2"/>
  <path d="M61.9029 29.9731L57.9043 27.6541V27.6406L61.8894 29.9731H61.9029Z" fill="#E2E2E2"/>
  <path d="M62.0512 4.35511C58.0123 6.68758 54.7542 12.3368 54.7676 16.9882C54.7676 18.9702 55.2254 20.7498 55.8985 22.3408C56.9083 24.7137 58.4027 26.6147 59.6413 27.9225C60.8934 29.2438 61.8762 29.9584 61.8897 29.9719C61.9435 30.0123 62.0243 30.0123 62.1185 29.9584C62.1993 29.9045 62.2936 29.8236 62.3474 29.7157C62.3474 29.7022 64.1111 26.3721 65.8613 22.0846C66.7364 19.9409 67.6115 17.541 68.2712 15.195C68.9309 12.8491 69.3752 10.5301 69.3752 8.56165C69.3752 3.92367 66.0767 2.0496 62.0512 4.38207V4.35511Z" fill="white"/>
  <path d="M61.9835 30.4163C61.8623 30.4163 61.7412 30.3758 61.6469 30.3084C61.3911 30.1062 60.4756 29.3916 59.3582 28.2051C57.6753 26.4254 56.3828 24.4974 55.5212 22.4885C54.7538 20.6819 54.3633 18.8213 54.3633 16.9742C54.3499 12.2014 57.7157 6.37694 61.8489 3.97706C63.9491 2.76363 65.9417 2.58836 67.463 3.46472C68.9709 4.34109 69.8191 6.13426 69.8191 8.53415C69.8191 10.3678 69.4556 12.6328 68.7016 15.2889C68.1227 17.3652 67.3015 19.7111 66.2648 22.2324C64.5954 26.3176 62.9259 29.5399 62.7374 29.9039C62.6432 30.0927 62.5086 30.241 62.347 30.3354C62.2258 30.4028 62.1181 30.4297 61.997 30.4297L61.9835 30.4163ZM62.2662 4.7186C58.3619 6.98366 55.1846 12.471 55.198 16.9742C55.198 18.7 55.575 20.4527 56.2886 22.1515C57.0964 24.066 58.335 25.8996 59.9506 27.6119C60.8526 28.5692 61.62 29.2028 61.97 29.4725C62.1989 29.041 63.828 25.8861 65.457 21.8818C66.4802 19.3876 67.2745 17.0821 67.8535 15.0327C68.5805 12.4576 68.944 10.2599 68.9305 8.50718C68.9305 6.43087 68.2439 4.89387 67.0053 4.17929C65.7532 3.46472 64.0703 3.63999 62.2393 4.69163L62.2662 4.7186Z" fill="#E2E2E2"/>
  <path d="M65.9542 10.274C65.9542 11.5144 65.5234 12.8761 64.8233 14.0895C64.1232 15.303 63.1538 16.3681 62.0768 16.9883C60.9997 17.6085 60.0304 17.6624 59.3303 17.2579L57.7282 16.3276C57.6339 15.9636 57.5801 15.5591 57.5801 15.1007C57.5801 15.0333 57.5801 14.9659 57.5801 14.8985C57.7416 14.8311 57.9032 14.7502 58.0782 14.6423C58.1186 14.6288 58.1455 14.6019 58.1859 14.5749C59.2226 13.9547 60.1515 12.9165 60.8247 11.7436C61.4979 10.5841 61.9152 9.27627 61.9556 8.08981C61.9556 8.03588 61.9556 7.98195 61.9556 7.92802C61.9556 7.75275 61.9556 7.57748 61.9287 7.41569L62.0499 7.33479C62.4538 7.10559 62.8577 6.93032 63.2346 6.83594L64.8098 7.75275C65.5099 8.15722 65.9542 9.0201 65.9542 10.2605V10.274Z" fill="#E2E2E2"/>
  <path d="M63.25 1.52376C61.9171 0.755259 60.0861 0.863119 58.0532 2.0361C54.0142 4.36857 50.7561 10.0177 50.7696 14.6692C50.7696 16.6511 51.2273 18.4308 51.9005 20.0218C52.9102 22.3947 54.4046 24.2957 55.6432 25.6035C56.8953 26.9248 57.8781 27.6394 57.8916 27.6529L61.8902 29.9853C61.8902 29.9853 60.8939 29.2573 59.6418 27.936C58.3897 26.6147 56.8953 24.7137 55.899 22.3542C55.2259 20.7768 54.7681 18.9836 54.7681 17.0017C54.7681 12.3637 58.0128 6.70105 62.0517 4.36857C64.0847 3.19559 65.9157 3.08773 67.2485 3.85624L63.25 1.52376Z" fill="#E2E2E2"/>
  <path d="M61.8895 30.3898C61.8222 30.3898 61.7414 30.3763 61.6741 30.3359L57.6755 28.0034C57.6755 28.0034 57.6486 27.9899 57.6352 27.9764C57.3794 27.7742 56.4639 27.0596 55.3464 25.8866C53.6635 24.107 52.371 22.179 51.5094 20.1701C50.742 18.3634 50.3516 16.5028 50.3516 14.6557C50.3516 9.8829 53.7039 4.05846 57.8371 1.65857C59.9374 0.445144 61.9299 0.256388 63.4647 1.14623L67.4633 3.47871C67.6652 3.60005 67.7326 3.85622 67.6114 4.05846C67.4902 4.26069 67.2344 4.32811 67.0325 4.20677C65.7804 3.47871 64.084 3.66746 62.2665 4.7191C58.3622 6.98416 55.1849 12.4715 55.1983 16.9747C55.1983 18.7005 55.5753 20.4532 56.2888 22.152C57.0966 24.0665 58.3352 25.9001 59.9508 27.6124C61.0548 28.7719 61.9568 29.473 62.1319 29.6078C62.1319 29.6078 62.1723 29.6348 62.1723 29.6483C62.3338 29.7966 62.3473 30.0393 62.2261 30.2145C62.1453 30.3224 62.0107 30.3898 61.8895 30.3898ZM58.1333 27.2888L58.9007 27.7337C57.4332 26.0889 56.2888 24.3362 55.5214 22.5025C54.754 20.6959 54.3636 18.8353 54.3636 16.9882C54.3501 12.2154 57.7159 6.39093 61.8491 3.99104C62.8993 3.38433 63.909 3.03379 64.8649 2.95289L63.0474 1.90126C61.7953 1.1732 60.0989 1.36195 58.2814 2.41359C54.3771 4.67865 51.1997 10.166 51.2132 14.6692C51.2132 16.395 51.5902 18.1477 52.3037 19.8465C53.1115 21.761 54.3501 23.5946 55.9657 25.3069C57.0428 26.4529 57.9448 27.1405 58.1333 27.2888Z" fill="#E2E2E2"/>
  <path d="M63.2348 6.86313C62.8579 6.95751 62.4674 7.13278 62.0501 7.36198L61.9289 7.44288C59.5728 8.88551 57.6745 12.1618 57.5938 14.9257C57.5938 14.9931 57.5938 15.0605 57.5938 15.1279C57.5938 15.5728 57.6476 15.9908 57.7418 16.3548C58.2534 18.2828 60.0037 18.9165 62.0905 17.7031C64.5677 16.2739 66.5737 12.7954 66.5602 9.93714C66.5602 7.56422 65.1466 6.36428 63.2348 6.87661V6.86313ZM62.077 17.002C60.9999 17.6222 60.0306 17.6761 59.3305 17.2716C58.6304 16.8672 58.1861 16.0043 58.1861 14.7639C58.1861 14.71 58.1861 14.656 58.1861 14.6021C58.2265 13.4156 58.6439 12.1078 59.317 10.9483C59.9902 9.77535 60.9192 8.7372 61.9558 8.117C61.9962 8.09004 62.0231 8.07656 62.0635 8.04959C63.1406 7.42939 64.1099 7.36198 64.81 7.76646C65.5101 8.17093 65.9544 9.03381 65.9544 10.2742C65.9544 11.5146 65.5236 12.8763 64.8235 14.0898C64.1234 15.3032 63.1541 16.3683 62.077 16.9885V17.002Z" fill="#E2E2E2"/>
  <path d="M185.359 36.8059L158.877 51.9198C158.702 52.0142 158.5 52.0142 158.325 51.9198L137.175 40.4732C136.784 40.2575 136.771 39.7047 137.161 39.489L163.711 24.1189C163.886 24.0245 164.101 24.011 164.263 24.1189L185.346 35.8217C185.736 36.0374 185.736 36.5902 185.346 36.8059H185.359Z" fill="#E2E2E2"/>
  <path d="M182.168 7.52344L182.101 34.0301L171.465 40.2185L171.546 13.7119L182.168 7.52344Z" fill="#E2E2E2"/>
  <path d="M171.467 40.4612C171.467 40.4612 171.386 40.4612 171.346 40.4342C171.265 40.3938 171.225 40.3129 171.225 40.2185L171.305 13.7119C171.305 13.631 171.346 13.5501 171.427 13.4962L182.062 7.30768C182.143 7.26723 182.237 7.26723 182.305 7.30768C182.372 7.34813 182.426 7.42902 182.426 7.5234L182.345 34.03C182.345 34.1109 182.305 34.1918 182.224 34.2457L171.588 40.4342C171.588 40.4342 171.507 40.4612 171.467 40.4612ZM171.79 13.8602L171.723 39.8005L181.874 33.8952L181.941 7.95484L171.79 13.8602Z" fill="#E2E2E2"/>
  <path d="M171.548 13.7119L171.467 40.2185L160.764 34.0301L160.831 7.52344L171.548 13.7119Z" fill="white"/>
  <path d="M171.465 40.4625C171.465 40.4625 171.384 40.4625 171.344 40.4355L160.641 34.2471C160.56 34.2066 160.52 34.1257 160.52 34.0313L160.6 7.52473C160.6 7.44383 160.641 7.36294 160.721 7.30901C160.802 7.25508 160.883 7.26856 160.964 7.30901L171.667 13.4975C171.748 13.5379 171.788 13.6188 171.788 13.7132L171.707 40.2198C171.707 40.3007 171.667 40.3816 171.586 40.4355C171.546 40.4625 171.506 40.4625 171.465 40.4625ZM161.004 33.883L171.223 39.7884L171.29 13.848L161.072 7.94269L161.004 33.883Z" fill="#E2E2E2"/>
  <path d="M182.169 7.52246L171.547 13.7109L160.83 7.52246L171.466 1.33398L182.169 7.52246Z" fill="white"/>
  <path d="M171.545 13.9555C171.545 13.9555 171.464 13.9555 171.424 13.9286L160.721 7.74009C160.64 7.69965 160.6 7.61875 160.6 7.52437C160.6 7.44348 160.64 7.36258 160.721 7.30865L171.357 1.12018C171.437 1.07973 171.532 1.07973 171.599 1.12018L182.302 7.30865C182.383 7.3491 182.423 7.43 182.423 7.52437C182.423 7.60527 182.383 7.68616 182.302 7.74009L171.666 13.9286C171.666 13.9286 171.586 13.9555 171.545 13.9555ZM161.327 7.52437L171.545 13.4297L181.696 7.52437L171.478 1.61903L161.327 7.52437Z" fill="#E2E2E2"/>
  <path d="M176.851 10.8258C176.851 10.8258 176.771 10.8258 176.73 10.7989L166.027 4.6104C165.906 4.54299 165.866 4.39468 165.933 4.27334C166 4.15199 166.148 4.11155 166.269 4.17896L176.973 10.3674C177.094 10.4348 177.134 10.5832 177.067 10.7045C177.026 10.7854 176.946 10.8258 176.851 10.8258Z" fill="#E2E2E2"/>
  <path d="M173.054 32.6953C173.148 32.6413 173.229 32.6953 173.229 32.7896V37.7647C173.242 37.8725 173.161 38.0074 173.067 38.0613C172.973 38.1152 172.892 38.0613 172.892 37.9669V32.9919C172.879 32.884 172.959 32.7492 173.054 32.6953Z" fill="#E2E2E2"/>
  <path d="M173.554 32.5469C173.554 32.5469 173.608 32.5469 173.608 32.5738V37.5489C173.608 37.5489 173.608 37.6298 173.568 37.6433C173.541 37.6567 173.514 37.6433 173.514 37.6163V32.6413C173.514 32.6413 173.514 32.5604 173.554 32.5469Z" fill="#E2E2E2"/>
  <path d="M174.589 31.9551C174.589 31.9551 174.643 31.9551 174.643 31.982V36.9571C174.643 36.9571 174.643 37.038 174.603 37.0515C174.576 37.065 174.549 37.0515 174.549 37.0245V32.0495C174.549 32.0495 174.549 31.9686 174.589 31.9551Z" fill="#E2E2E2"/>
  <path d="M174.9 31.7654C174.9 31.7654 174.954 31.7654 174.954 31.7924V36.7675C174.954 36.7675 174.954 36.8483 174.913 36.8618C174.886 36.8753 174.859 36.8618 174.859 36.8214V31.8463C174.859 31.8463 174.859 31.7654 174.9 31.752V31.7654Z" fill="#E2E2E2"/>
  <path d="M175.195 31.5897C175.195 31.5897 175.249 31.5897 175.249 31.6166V36.5917C175.249 36.5917 175.249 36.6726 175.208 36.686C175.181 36.6995 175.154 36.686 175.154 36.6456V31.6705C175.154 31.6705 175.154 31.5897 175.195 31.5762V31.5897Z" fill="#E2E2E2"/>
  <path d="M175.505 31.416C175.505 31.416 175.559 31.416 175.559 31.443V36.418C175.559 36.418 175.559 36.4989 175.519 36.5124C175.492 36.5259 175.465 36.5124 175.465 36.4854V31.5104C175.465 31.5104 175.465 31.4295 175.505 31.416Z" fill="#E2E2E2"/>
  <path d="M174.05 32.1288C174.144 32.0749 174.225 32.1288 174.225 32.2232V37.1983C174.238 37.3061 174.157 37.441 174.063 37.4949C173.969 37.5488 173.888 37.4949 173.888 37.4005V32.4255C173.875 32.3176 173.956 32.1828 174.05 32.1288Z" fill="#E2E2E2"/>
  <path d="M169.31 32.0078L169.283 41.3377L157.449 47.9981L157.476 38.6682L169.31 32.0078Z" fill="#E2E2E2"/>
  <path d="M157.452 48.2C157.452 48.2 157.371 48.2 157.344 48.173C157.277 48.1326 157.236 48.0652 157.236 47.9843L157.263 38.6544C157.263 38.5735 157.304 38.5061 157.371 38.4791L169.219 31.8188C169.219 31.8188 169.367 31.7783 169.434 31.8188C169.501 31.8592 169.542 31.9266 169.542 32.0075L169.515 41.3374C169.515 41.4183 169.474 41.4857 169.407 41.5127L157.559 48.173C157.559 48.173 157.492 48.2 157.452 48.2ZM157.694 38.7757L157.667 47.6203L169.07 41.2161L169.097 32.3715L157.694 38.7757Z" fill="#E2E2E2"/>
  <path d="M157.479 38.6685L157.452 47.9984L139.344 37.8865L139.371 28.5566L157.479 38.6685Z" fill="white"/>
  <path d="M157.451 48.201C157.451 48.201 157.37 48.201 157.343 48.174L139.248 38.0622C139.248 38.0622 139.141 37.9543 139.141 37.8734L139.168 28.5435C139.168 28.4626 139.208 28.3952 139.275 28.3682C139.343 28.3278 139.423 28.3278 139.491 28.3682L157.585 38.4801C157.653 38.5206 157.693 38.588 157.693 38.6689L157.666 47.9988C157.666 48.0797 157.626 48.1471 157.558 48.174C157.531 48.1875 157.491 48.201 157.451 48.201ZM139.571 37.7655L157.235 47.6347L157.262 38.7902L139.598 28.921L139.571 37.7655Z" fill="#E2E2E2"/>
  <path d="M169.311 32.0084L157.477 38.6687L139.369 28.5568L151.217 21.8965L169.311 32.0084Z" fill="white"/>
  <path d="M157.478 38.8709C157.478 38.8709 157.397 38.8709 157.37 38.8439L139.276 28.732C139.276 28.732 139.168 28.6242 139.168 28.5567C139.168 28.4893 139.208 28.4084 139.276 28.3815L151.123 21.7211C151.123 21.7211 151.271 21.6807 151.339 21.7211L169.433 31.833C169.433 31.833 169.541 31.9408 169.541 32.0083C169.541 32.0757 169.501 32.1566 169.433 32.1835L157.586 38.8439C157.586 38.8439 157.518 38.8709 157.478 38.8709ZM139.814 28.5567L157.478 38.4259L168.881 32.0083L151.218 22.1391L139.814 28.5567Z" fill="#E2E2E2"/>
  <path d="M163.496 35.5407C163.496 35.5407 163.415 35.5407 163.388 35.5137L145.293 25.4019C145.186 25.3479 145.159 25.2131 145.212 25.1187C145.266 25.0243 145.401 24.9839 145.509 25.0378L163.603 35.1497C163.711 35.2036 163.738 35.3385 163.684 35.4328C163.644 35.5003 163.576 35.5407 163.496 35.5407Z" fill="#E2E2E2"/>
  <path d="M164.426 40.6498C164.561 40.5689 164.682 40.6364 164.682 40.7847V42.6453C164.682 42.7936 164.574 42.9823 164.439 43.0632C164.305 43.1441 164.184 43.0767 164.184 42.9284V41.0678C164.184 40.9195 164.291 40.7307 164.426 40.6498Z" fill="#E2E2E2"/>
  <path d="M165.151 40.4336C165.151 40.4336 165.232 40.4336 165.232 40.474V42.3346C165.232 42.3346 165.205 42.4425 165.151 42.4695C165.097 42.4964 165.07 42.4695 165.07 42.429V40.5684C165.07 40.5684 165.097 40.4606 165.151 40.4336Z" fill="#E2E2E2"/>
  <path d="M166.659 39.5996C166.659 39.5996 166.74 39.5996 166.74 39.6401V41.5006C166.74 41.5006 166.713 41.6085 166.659 41.6355C166.605 41.6624 166.578 41.6355 166.578 41.595V39.7344C166.578 39.7344 166.605 39.6266 166.659 39.5996Z" fill="#E2E2E2"/>
  <path d="M167.104 39.3418C167.104 39.3418 167.185 39.3418 167.185 39.3822V41.2428C167.185 41.2428 167.158 41.3507 167.104 41.3777C167.064 41.4046 167.023 41.3777 167.023 41.3372V39.4766C167.023 39.4766 167.05 39.3553 167.104 39.3418Z" fill="#E2E2E2"/>
  <path d="M167.561 39.0996C167.561 39.0996 167.642 39.0996 167.642 39.1535V41.0141C167.642 41.0141 167.615 41.122 167.561 41.149C167.521 41.1759 167.48 41.149 167.48 41.1085V39.2479C167.48 39.2479 167.507 39.1266 167.561 39.1131V39.0996Z" fill="#E2E2E2"/>
  <path d="M168.007 38.8438C168.007 38.8438 168.087 38.8437 168.087 38.8842V40.7448C168.087 40.7448 168.06 40.8526 168.007 40.8796C167.953 40.9066 167.926 40.8796 167.926 40.8392V38.9786C167.926 38.9786 167.953 38.8572 168.007 38.8438Z" fill="#E2E2E2"/>
  <path d="M165.879 39.8412C166.014 39.7604 166.135 39.8278 166.135 39.9761V41.8367C166.135 41.985 166.027 42.1737 165.893 42.2546C165.758 42.3355 165.637 42.2681 165.637 42.1198V40.2592C165.637 40.1109 165.744 39.9221 165.879 39.8412Z" fill="#E2E2E2"/>
  <path d="M162.095 26.1016L162.082 32.4518L154.004 36.982L154.031 30.6317L162.095 26.1016Z" fill="#E2E2E2"/>
  <path d="M154.003 37.1574C154.003 37.1574 153.95 37.1574 153.923 37.1304C153.869 37.1034 153.842 37.0495 153.842 36.9821V30.6318C153.842 30.6318 153.896 30.5105 153.95 30.4835L162.014 25.9534C162.014 25.9534 162.135 25.9264 162.189 25.9534C162.243 25.9804 162.27 26.0343 162.27 26.1017V32.452C162.27 32.452 162.216 32.5733 162.162 32.6003L154.098 37.1304C154.098 37.1304 154.044 37.1574 154.003 37.1574ZM154.192 30.7262V36.6855L161.893 32.3441V26.3848L154.192 30.7262Z" fill="#E2E2E2"/>
  <path d="M154.032 30.6317L154.005 36.982L145.887 32.4518L145.914 26.1016L154.032 30.6317Z" fill="white"/>
  <path d="M154.003 37.1578C154.003 37.1578 153.949 37.1578 153.922 37.1308L145.803 32.6007C145.803 32.6007 145.723 32.5198 145.723 32.4524V26.1021C145.723 26.1021 145.777 25.9808 145.83 25.9538C145.884 25.9269 145.952 25.9269 146.005 25.9538L154.124 30.4839C154.124 30.4839 154.204 30.5648 154.204 30.6323V36.9825C154.204 36.9825 154.151 37.1039 154.097 37.1308C154.07 37.1443 154.043 37.1578 154.016 37.1578H154.003ZM146.059 32.358L153.827 36.6994V30.7266L146.073 26.3853V32.358H146.059Z" fill="#E2E2E2"/>
  <path d="M162.095 26.1022L154.03 30.6323L145.912 26.1022L153.977 21.5586L162.095 26.1022Z" fill="white"/>
  <path d="M154.032 30.7943C154.032 30.7943 153.978 30.7943 153.951 30.7673L145.833 26.2372C145.833 26.2372 145.752 26.1563 145.752 26.0889C145.752 26.0349 145.779 25.9675 145.833 25.9405L153.897 21.4104C153.897 21.4104 154.018 21.3835 154.072 21.4104L162.191 25.9405C162.191 25.9405 162.271 26.0214 162.271 26.0889C162.271 26.1428 162.244 26.2102 162.191 26.2372L154.126 30.7673C154.126 30.7673 154.072 30.7943 154.032 30.7943ZM146.264 26.0889L154.032 30.4302L161.746 26.0889L153.978 21.7475L146.264 26.0889Z" fill="#E2E2E2"/>
  <path d="M158.084 28.5305C158.084 28.5305 158.03 28.5305 158.003 28.5035L149.885 23.9734C149.804 23.933 149.777 23.8251 149.817 23.7442C149.871 23.6633 149.965 23.6363 150.06 23.6768L158.178 28.2069C158.259 28.2474 158.286 28.3552 158.245 28.4361C158.218 28.49 158.151 28.517 158.097 28.517L158.084 28.5305Z" fill="#E2E2E2"/>
  <path d="M158.972 31.8339C159.066 31.78 159.147 31.8339 159.147 31.9283V33.1957C159.147 33.3035 159.08 33.4249 158.986 33.4788C158.891 33.5327 158.811 33.4788 158.811 33.3844V32.1171C158.811 32.0092 158.878 31.8879 158.972 31.8339Z" fill="#E2E2E2"/>
  <path d="M159.47 31.6836C159.47 31.6836 159.524 31.6836 159.524 31.7106V32.9779C159.524 32.9779 159.497 33.0588 159.47 33.0723C159.443 33.0858 159.416 33.0723 159.416 33.0453V31.778C159.416 31.778 159.443 31.6971 159.47 31.6836Z" fill="#E2E2E2"/>
  <path d="M160.493 31.1035C160.493 31.1035 160.547 31.1035 160.547 31.1305V32.3978C160.547 32.3978 160.52 32.4787 160.493 32.4922C160.466 32.5057 160.439 32.4922 160.439 32.4653V31.1979C160.439 31.1979 160.466 31.117 160.493 31.1035Z" fill="#E2E2E2"/>
  <path d="M160.804 30.9414C160.804 30.9414 160.858 30.9414 160.858 30.9684V32.2357C160.858 32.2357 160.831 32.3166 160.804 32.3301C160.777 32.3436 160.75 32.3301 160.75 32.3031V31.0358C160.75 31.0358 160.777 30.9549 160.804 30.9414Z" fill="#E2E2E2"/>
  <path d="M161.099 30.7676C161.099 30.7676 161.153 30.7676 161.153 30.7945V32.0619C161.153 32.0619 161.126 32.1428 161.099 32.1563C161.072 32.1698 161.045 32.1563 161.045 32.1293V30.862C161.045 30.862 161.072 30.7811 161.099 30.7676Z" fill="#E2E2E2"/>
  <path d="M161.409 30.5918C161.409 30.5918 161.463 30.5918 161.463 30.6188V31.8861C161.463 31.8861 161.436 31.967 161.409 31.9805C161.382 31.994 161.355 31.9805 161.355 31.9535V30.6862C161.355 30.6862 161.382 30.6053 161.409 30.5918Z" fill="#E2E2E2"/>
  <path d="M159.955 31.2792C160.049 31.2253 160.13 31.2792 160.13 31.3736V32.641C160.13 32.7488 160.062 32.8702 159.968 32.9241C159.874 32.978 159.793 32.9241 159.793 32.8297V31.5624C159.793 31.4545 159.86 31.3332 159.955 31.2792Z" fill="#E2E2E2"/>
  <path d="M158.608 23.2578V26.6015L154.354 29.0014L154.367 25.6442L158.608 23.2578Z" fill="#E2E2E2"/>
  <path d="M154.354 29.0813C154.354 29.0813 154.327 29.0813 154.314 29.0813C154.287 29.0678 154.273 29.0408 154.273 29.0004V25.6432C154.273 25.6432 154.3 25.5758 154.327 25.5623L158.582 23.1759C158.582 23.1759 158.649 23.1624 158.676 23.1759C158.703 23.1894 158.716 23.2164 158.716 23.2568V26.6005C158.716 26.6005 158.689 26.6679 158.662 26.6814L154.408 29.0678C154.408 29.0678 154.381 29.0678 154.368 29.0678L154.354 29.0813ZM154.462 25.6971V28.8386L158.514 26.5465V23.4051L154.462 25.6971Z" fill="#E2E2E2"/>
  <path d="M154.369 25.6442L154.356 29.0014L150.074 26.6015L150.088 23.2578L154.369 25.6442Z" fill="white"/>
  <path d="M154.354 29.0815C154.354 29.0815 154.327 29.0815 154.314 29.0815L150.033 26.6951C150.033 26.6951 149.992 26.6546 149.992 26.6142V23.257C149.992 23.257 150.019 23.1896 150.046 23.1761C150.073 23.1626 150.113 23.1626 150.14 23.1761L154.422 25.5625C154.422 25.5625 154.462 25.603 154.462 25.6434V29.0006C154.462 29.0006 154.435 29.068 154.408 29.0815C154.395 29.0815 154.381 29.0815 154.368 29.0815H154.354ZM150.167 26.5468L154.26 28.8388V25.6974L150.167 23.4053V26.5468Z" fill="#E2E2E2"/>
  <path d="M158.61 23.2575L154.369 25.6439L150.088 23.2575L154.342 20.8711L158.61 23.2575Z" fill="white"/>
  <path d="M154.368 25.7394C154.368 25.7394 154.341 25.7394 154.328 25.7394L150.046 23.353C150.046 23.353 150.006 23.3126 150.006 23.2721C150.006 23.2452 150.019 23.2047 150.046 23.1912L154.301 20.8048C154.301 20.8048 154.368 20.7913 154.395 20.8048L158.676 23.1912C158.676 23.1912 158.717 23.2317 158.717 23.2721C158.717 23.2991 158.703 23.3395 158.676 23.353L154.422 25.7394C154.422 25.7394 154.395 25.7394 154.381 25.7394H154.368ZM150.275 23.2586L154.368 25.5507L158.434 23.2586L154.341 20.9666L150.275 23.2586Z" fill="#E2E2E2"/>
  <path d="M156.508 24.537C156.508 24.537 156.482 24.537 156.468 24.537L152.187 22.1506C152.187 22.1506 152.133 22.0697 152.16 22.0293C152.187 21.9888 152.241 21.9753 152.281 22.0023L156.562 24.3887C156.562 24.3887 156.616 24.4696 156.589 24.5101C156.576 24.537 156.535 24.5505 156.508 24.5505V24.537Z" fill="#E2E2E2"/>
  <path d="M156.965 26.2773C156.965 26.2773 157.06 26.2773 157.06 26.3313V27.0054C157.06 27.0054 157.019 27.1267 156.965 27.1537C156.911 27.1807 156.871 27.1537 156.871 27.0998V26.4257C156.871 26.4257 156.911 26.3043 156.965 26.2773Z" fill="#E2E2E2"/>
  <path d="M157.222 26.1973C157.222 26.1973 157.249 26.1973 157.249 26.2107V26.8849C157.249 26.8849 157.249 26.9253 157.222 26.9388C157.195 26.9523 157.195 26.9388 157.195 26.9253V26.2512C157.195 26.2512 157.195 26.2107 157.222 26.1973Z" fill="#E2E2E2"/>
  <path d="M157.773 25.9004C157.773 25.9004 157.8 25.9004 157.8 25.9139V26.588C157.8 26.588 157.8 26.6284 157.773 26.6419C157.76 26.6419 157.746 26.6419 157.746 26.6284V25.9543C157.746 25.9543 157.746 25.9139 157.773 25.9004Z" fill="#E2E2E2"/>
  <path d="M157.935 25.8047C157.935 25.8047 157.962 25.8047 157.962 25.8182V26.4923C157.962 26.4923 157.962 26.5327 157.935 26.5462C157.922 26.5462 157.908 26.5462 157.908 26.5327V25.8586C157.908 25.8586 157.908 25.8182 157.935 25.8047Z" fill="#E2E2E2"/>
  <path d="M158.097 25.7109C158.097 25.7109 158.124 25.7109 158.124 25.7244V26.3985C158.124 26.3985 158.124 26.439 158.097 26.4525C158.084 26.4525 158.07 26.4525 158.07 26.439V25.7649C158.07 25.7649 158.07 25.7244 158.097 25.7109Z" fill="#E2E2E2"/>
  <path d="M158.259 25.6309C158.259 25.6309 158.286 25.6309 158.286 25.6443V26.3185C158.286 26.3185 158.286 26.3589 158.259 26.3724C158.246 26.3724 158.232 26.3724 158.232 26.3589V25.6848C158.232 25.6848 158.232 25.6443 158.259 25.6309Z" fill="#E2E2E2"/>
  <path d="M157.491 25.9941C157.491 25.9941 157.585 25.9941 157.585 26.0481V26.7222C157.585 26.7222 157.545 26.8435 157.491 26.8705C157.437 26.8975 157.396 26.8705 157.396 26.8166V26.1424C157.396 26.1424 157.437 26.0211 157.491 25.9941Z" fill="#E2E2E2"/>
</svg>
