<svg width="173" height="146" viewBox="0 0 173 146" fill="none" xmlns="http://www.w3.org/2000/svg">
  <g opacity="0.8">
    <line x1="9.78711" y1="123.578" x2="21.3673" y2="123.578" stroke="#1F1111" stroke-linecap="round" stroke-dasharray="2 2"/>
    <line x1="7.5" y1="120.147" x2="21.3675" y2="120.147" stroke="#1F1111" stroke-linecap="round" stroke-dasharray="2 2"/>
    <line x1="13.2183" y1="127.009" x2="24.7984" y2="127.009" stroke="#1F1111" stroke-linecap="round" stroke-dasharray="2 2"/>
    <line x1="46.3843" y1="120.147" x2="95.7049" y2="120.147" stroke="#1F1111" stroke-linecap="round" stroke-dasharray="2 2"/>
    <line x1="53.2461" y1="123.578" x2="102.567" y2="123.578" stroke="#1F1111" stroke-linecap="round" stroke-dasharray="2 2"/>
    <line x1="66.9697" y1="127.009" x2="127.727" y2="127.009" stroke="#1F1111" stroke-linecap="round" stroke-dasharray="2 2"/>
    <line x1="40.666" y1="116.716" x2="64.8263" y2="116.716" stroke="#1F1111" stroke-linecap="round" stroke-dasharray="2 2"/>
    <line x1="39.5225" y1="113.285" x2="49.959" y2="113.285" stroke="#1F1111" stroke-linecap="round" stroke-dasharray="2 2"/>
    <line x1="38.3784" y1="109.854" x2="45.384" y2="109.854" stroke="#1F1111" stroke-linecap="round" stroke-dasharray="2 2"/>
    <line x1="38.3784" y1="106.423" x2="43.0967" y2="106.423" stroke="#1F1111" stroke-linecap="round" stroke-dasharray="2 2"/>
    <line x1="38.3784" y1="102.992" x2="45.384" y2="102.992" stroke="#1F1111" stroke-linecap="round" stroke-dasharray="2 2"/>
    <line x1="52.1025" y1="23.9368" x2="52.1025" y2="109.854" stroke="#1F1111" stroke-linecap="round" stroke-linejoin="round"/>
    <line x1="54.3896" y1="23.9368" x2="54.3896" y2="110.998" stroke="#1F1111" stroke-linecap="round" stroke-linejoin="round"/>
    <line x1="49.8149" y1="22.793" x2="49.8149" y2="108.71" stroke="#1F1111" stroke-linecap="round" stroke-linejoin="round"/>
    <line x1="47.5278" y1="22.793" x2="47.5278" y2="106.423" stroke="#1F1111" stroke-linecap="round" stroke-linejoin="round"/>
    <line x1="46.3843" y1="21.6487" x2="46.3843" y2="106.423" stroke="#1F1111" stroke-linecap="round" stroke-linejoin="round"/>
    <line x1="60.1079" y1="25.0803" x2="60.1079" y2="112.141" stroke="#1F1111" stroke-linecap="round" stroke-linejoin="round"/>
    <line x1="84.1245" y1="26.2241" x2="84.1245" y2="114.429" stroke="#1F1111" stroke-linecap="round" stroke-linejoin="round"/>
    <line x1="86.4121" y1="26.2241" x2="86.4121" y2="114.429" stroke="#1F1111" stroke-linecap="round" stroke-linejoin="round"/>
    <line x1="88.6992" y1="26.2241" x2="88.6992" y2="114.429" stroke="#1F1111" stroke-linecap="round" stroke-linejoin="round"/>
    <line x1="90.9863" y1="26.2241" x2="90.9863" y2="114.429" stroke="#1F1111" stroke-linecap="round" stroke-linejoin="round"/>
    <line x1="93.2739" y1="25.0803" x2="93.2739" y2="113.285" stroke="#1F1111" stroke-linecap="round" stroke-linejoin="round"/>
    <line x1="95.561" y1="25.0803" x2="95.561" y2="54.9589" stroke="#1F1111" stroke-linecap="round" stroke-linejoin="round"/>
    <line x1="97.8486" y1="25.0803" x2="97.8486" y2="49.2406" stroke="#1F1111" stroke-linecap="round" stroke-linejoin="round"/>
    <line x1="100.136" y1="25.0803" x2="100.136" y2="48.097" stroke="#1F1111" stroke-linecap="round" stroke-linejoin="round"/>
    <line x1="111.572" y1="22.793" x2="111.572" y2="46.9533" stroke="#1F1111" stroke-linecap="round" stroke-linejoin="round"/>
    <line x1="112.716" y1="21.6487" x2="112.716" y2="45.809" stroke="#1F1111" stroke-linecap="round" stroke-linejoin="round"/>
    <line x1="109.285" y1="22.793" x2="109.285" y2="46.9533" stroke="#1F1111" stroke-linecap="round" stroke-linejoin="round"/>
    <line x1="106.998" y1="23.9368" x2="106.998" y2="46.9534" stroke="#1F1111" stroke-linecap="round" stroke-linejoin="round"/>
    <line x1="95.561" y1="61.677" x2="95.561" y2="112.141" stroke="#1F1111" stroke-linecap="round" stroke-linejoin="round"/>
    <path d="M41.8816 27.4392H40.1496C39.5501 27.4392 39.0853 27.9631 39.1568 28.5584L40.6624 41.1057C40.7085 41.4898 40.9721 41.8129 41.3391 41.9352L45.8844 43.4503" stroke="#1F1111" stroke-linecap="round" stroke-linejoin="round"/>
    <path d="M117.362 27.4392H119.094C119.694 27.4392 120.159 27.9631 120.087 28.5584L118.578 41.1312C118.534 41.502 118.286 41.8172 117.937 41.9483L113.931 43.4503" stroke="#1F1111" stroke-linecap="round" stroke-linejoin="round"/>
    <path d="M44.9824 103.492C44.0801 104.439 43.5967 105.44 43.5967 106.476C43.5967 112.407 59.4696 117.216 79.0499 117.216C85.9853 117.216 92.4556 116.613 97.9201 115.57" stroke="#1F1111" stroke-linecap="round" stroke-linejoin="round"/>
    <ellipse cx="79.6217" cy="17.7183" rx="36.025" ry="5.71825" stroke="#1F1111" stroke-linecap="round" stroke-linejoin="round"/>
    <path d="M115.647 18.8618C115.647 22.6515 99.5177 25.7237 79.6217 25.7237C59.7256 25.7237 43.5967 22.6515 43.5967 18.8618" stroke="#1F1111" stroke-linecap="round" stroke-linejoin="round"/>
    <path d="M44.7407 103.492C44.7407 109.808 60.1016 114.929 79.0503 114.929C85.7776 114.929 92.0526 114.283 97.3487 113.168" stroke="#1F1111" stroke-linecap="round" stroke-linejoin="round"/>
    <path d="M44.7407 52.0278C44.7407 55.8176 60.3576 58.8897 79.6221 58.8897C84.0575 58.8897 88.2996 58.7269 92.2022 58.4299" stroke="#1F1111" stroke-linecap="round" stroke-linejoin="round"/>
    <path d="M114.503 34.8728C114.503 38.0309 98.8865 40.5911 79.6221 40.5911C60.3576 40.5911 44.7407 38.0309 44.7407 34.8728" stroke="#1F1111" stroke-linecap="round" stroke-linejoin="round"/>
    <path d="M111.644 17.1465C111.644 18.7256 97.367 20.5775 79.05 20.5775C60.733 20.5775 47.5996 18.7256 47.5996 17.1465C53.8897 12.5719 105.354 12.5719 111.644 17.1465Z" stroke="#1F1111" stroke-linecap="round" stroke-linejoin="round"/>
    <line x1="45.3843" y1="104.136" x2="45.3843" y2="21.6495" stroke="#1F1111" stroke-linecap="round" stroke-linejoin="round"/>
    <line x1="114.003" y1="45.8096" x2="114.003" y2="21.6493" stroke="#1F1111" stroke-linecap="round" stroke-linejoin="round"/>
    <path d="M114.503 24.5803H116.791C117.992 27.2604 117.887 28.7609 116.791 31.4422H114.503V24.5803Z" stroke="#1F1111" stroke-linecap="round" stroke-linejoin="round"/>
    <path d="M44.459 24.5803H42.1717C40.9709 27.2604 41.0751 28.7609 42.1717 31.4422H44.459V24.5803Z" stroke="#1F1111" stroke-linecap="round" stroke-linejoin="round"/>
    <line x1="104.077" y1="55.5115" x2="104.077" y2="120.644" stroke="#1F1111" stroke-linecap="round" stroke-linejoin="round"/>
    <line x1="106.041" y1="55.5115" x2="106.041" y2="121.515" stroke="#1F1111" stroke-linecap="round" stroke-linejoin="round"/>
    <line x1="102.112" y1="54.6411" x2="102.112" y2="119.774" stroke="#1F1111" stroke-linecap="round" stroke-linejoin="round"/>
    <line x1="109.807" y1="56.3809" x2="109.807" y2="122.384" stroke="#1F1111" stroke-linecap="round" stroke-linejoin="round"/>
    <line x1="115.861" y1="57.2517" x2="115.861" y2="123.255" stroke="#1F1111" stroke-linecap="round" stroke-linejoin="round"/>
    <line x1="148.169" y1="55.959" x2="148.169" y2="121.291" stroke="#1F1111" stroke-linecap="round" stroke-linejoin="round"/>
    <line x1="150.457" y1="55.959" x2="150.457" y2="120.147" stroke="#1F1111" stroke-linecap="round" stroke-linejoin="round"/>
    <line x1="152.744" y1="54.8152" x2="152.744" y2="119.003" stroke="#1F1111" stroke-linecap="round" stroke-linejoin="round"/>
    <line x1="155.031" y1="54.8152" x2="155.031" y2="117.86" stroke="#1F1111" stroke-linecap="round" stroke-linejoin="round"/>
    <path d="M95.229 58.0569H93.9185C93.3129 58.0569 92.8463 58.591 92.9275 59.1911L94.1601 68.2925C94.213 68.6829 94.4901 69.0058 94.8678 69.1174L98.6662 70.2393" stroke="#1F1111" stroke-linecap="round" stroke-linejoin="round"/>
    <path d="M160.044 58.0569H161.355C161.96 58.0569 162.427 58.591 162.346 59.1911L161.11 68.3159C161.059 68.6942 160.797 69.0103 160.434 69.1307L157.098 70.2393" stroke="#1F1111" stroke-linecap="round" stroke-linejoin="round"/>
    <path d="M97.892 115.923C97.1173 116.644 96.7021 117.405 96.7021 118.193C96.7021 122.706 110.332 126.365 127.146 126.365C143.959 126.365 157.589 122.706 157.589 118.193C157.589 117.57 157.329 116.963 156.837 116.38" stroke="#1F1111" stroke-linecap="round" stroke-linejoin="round"/>
    <ellipse cx="127.637" cy="50.6604" rx="30.9345" ry="4.35085" stroke="#1F1111" stroke-linecap="round" stroke-linejoin="round"/>
    <path d="M158.571 51.53C158.571 54.4135 144.721 56.751 127.637 56.751C110.552 56.751 96.7021 54.4135 96.7021 51.53" stroke="#1F1111" stroke-linecap="round" stroke-linejoin="round"/>
    <path d="M156.607 115.923C156.607 120.729 143.417 124.625 127.146 124.625C110.874 124.625 97.6841 120.729 97.6841 115.923" stroke="#1F1111" stroke-linecap="round" stroke-linejoin="round"/>
    <path d="M157.589 76.7656C157.589 79.6491 144.179 81.9866 127.637 81.9866C111.094 81.9866 97.6841 79.6491 97.6841 76.7656" stroke="#1F1111" stroke-linecap="round" stroke-linejoin="round"/>
    <path d="M157.589 63.7126C157.589 66.1156 144.179 68.0635 127.637 68.0635C111.094 68.0635 97.6841 66.1156 97.6841 63.7126" stroke="#1F1111" stroke-linecap="round" stroke-linejoin="round"/>
    <path d="M155.134 50.2253C155.134 51.4267 142.874 52.8358 127.145 52.8358C111.417 52.8358 100.139 51.4267 100.139 50.2253C105.54 46.7445 149.733 46.7446 155.134 50.2253Z" stroke="#1F1111" stroke-linecap="round" stroke-linejoin="round"/>
    <line x1="98.1665" y1="116.293" x2="98.1665" y2="53.7711" stroke="#1F1111" stroke-linecap="round" stroke-linejoin="round"/>
    <line x1="157.089" y1="116.293" x2="157.089" y2="53.7711" stroke="#1F1111" stroke-linecap="round" stroke-linejoin="round"/>
    <path d="M157.589 55.8818H159.553C160.584 57.921 160.495 59.0627 159.553 61.1029H157.589V55.8818Z" stroke="#1F1111" stroke-linecap="round" stroke-linejoin="round"/>
    <path d="M97.4424 55.8818H95.4783C94.4471 57.921 94.5367 59.0627 95.4783 61.1029H97.4424V55.8818Z" stroke="#1F1111" stroke-linecap="round" stroke-linejoin="round"/>
    <line x1="36.0913" y1="98.2737" x2="36.0913" y2="125.865" stroke="#1F1111" stroke-linecap="round" stroke-linejoin="round"/>
    <line x1="33.8037" y1="99.4177" x2="33.8037" y2="127.009" stroke="#1F1111" stroke-linecap="round" stroke-linejoin="round"/>
    <line x1="23.5107" y1="98.2737" x2="23.5107" y2="125.865" stroke="#1F1111" stroke-linecap="round" stroke-linejoin="round"/>
    <line x1="31.5166" y1="99.4177" x2="31.5166" y2="127.009" stroke="#1F1111" stroke-linecap="round" stroke-linejoin="round"/>
    <ellipse cx="29.8728" cy="92.0554" rx="9.14921" ry="2.2873" stroke="#1F1111"/>
    <ellipse cx="29.8726" cy="92.0555" rx="6.86191" ry="1.14365" stroke="#1F1111"/>
    <path d="M39.022 92.0554V96.63C39.022 97.8933 34.9258 98.9173 29.8728 98.9173C24.8199 98.9173 20.7236 97.8933 20.7236 96.63V92.6272" stroke="#1F1111"/>
    <path d="M37.8783 97.7737V124.84C37.8783 126.314 34.2941 127.509 29.8727 127.509C25.4514 127.509 21.8672 126.314 21.8672 124.84V97.7737" stroke="#1F1111"/>
    <line x1="24.2985" y1="90.433" x2="35.735" y2="93.8639" stroke="#1F1111"/>
    <path d="M21.8672 102.92C28.8705 104.784 32.4024 104.868 37.8783 102.92" stroke="#1F1111"/>
    <path d="M21.8672 110.354C28.8705 112.217 32.4024 112.301 37.8783 110.354" stroke="#1F1111"/>
    <path d="M21.8672 120.647C28.8705 122.511 32.4024 122.595 37.8783 120.647" stroke="#1F1111"/>
  </g>
</svg>
