<svg width="173" height="146" viewBox="0 0 173 146" fill="none" xmlns="http://www.w3.org/2000/svg">
  <g opacity="0.8">
    <line x1="20.7212" y1="87.3962" x2="34.621" y2="87.3962" stroke="#1F1111" stroke-linecap="round" stroke-dasharray="2 2"/>
    <line x1="11.1428" y1="90.5891" x2="26.1069" y2="90.5891" stroke="#1F1111" stroke-linecap="round" stroke-dasharray="2 2"/>
    <line x1="6.8855" y1="93.7817" x2="22.9138" y2="93.7817" stroke="#1F1111" stroke-linecap="round" stroke-dasharray="2 2"/>
    <line x1="2.62842" y1="96.9746" x2="14.3997" y2="96.9746" stroke="#1F1111" stroke-linecap="round" stroke-dasharray="2 2"/>
    <line x1="49.5" y1="90.5" x2="53.5" y2="90.5" stroke="#1F1111" stroke-linecap="round" stroke-dasharray="2 2"/>
    <line x1="1.56421" y1="100.167" x2="15.464" y2="100.167" stroke="#1F1111" stroke-linecap="round" stroke-dasharray="2 2"/>
    <line x1="47.5" y1="93.5" x2="59.5" y2="93.5" stroke="#1F1111" stroke-linecap="round" stroke-dasharray="2 2"/>
    <line x1="0.5" y1="103.36" x2="14.3998" y2="103.36" stroke="#1F1111" stroke-linecap="round" stroke-dasharray="2 2"/>
    <line x1="38.5" y1="96.5" x2="73.5" y2="96.5" stroke="#1F1111" stroke-linecap="round" stroke-dasharray="2 2"/>
    <line x1="0.5" y1="106.553" x2="14.3998" y2="106.553" stroke="#1F1111" stroke-linecap="round" stroke-dasharray="2 2"/>
    <line x1="126.5" y1="109.5" x2="131.5" y2="109.5" stroke="#1F1111" stroke-linecap="round" stroke-dasharray="2 2"/>
    <line x1="130.5" y1="106.5" x2="138.5" y2="106.5" stroke="#1F1111" stroke-linecap="round" stroke-dasharray="2 2"/>
    <line x1="134.598" y1="103.36" x2="146.37" y2="103.36" stroke="#1F1111" stroke-linecap="round" stroke-dasharray="2 2"/>
    <line x1="143.785" y1="114.5" x2="149.171" y2="114.5" stroke="#1F1111" stroke-linecap="round" stroke-dasharray="2 2"/>
    <line x1="133.143" y1="117.693" x2="147.042" y2="117.693" stroke="#1F1111" stroke-linecap="round" stroke-dasharray="2 2"/>
    <line x1="122.5" y1="120.886" x2="140.657" y2="120.886" stroke="#1F1111" stroke-linecap="round" stroke-dasharray="2 2"/>
    <line x1="1.56421" y1="109.746" x2="17.5926" y2="109.746" stroke="#1F1111" stroke-linecap="round" stroke-dasharray="2 2"/>
    <line x1="2.62842" y1="112.939" x2="16.5282" y2="112.939" stroke="#1F1111" stroke-linecap="round" stroke-dasharray="2 2"/>
    <line x1="4.75708" y1="116.132" x2="16.5283" y2="116.132" stroke="#1F1111" stroke-linecap="round" stroke-dasharray="2 2"/>
    <line x1="6.8855" y1="119.324" x2="16.5282" y2="119.324" stroke="#1F1111" stroke-linecap="round" stroke-dasharray="2 2"/>
    <line x1="10.0784" y1="122.517" x2="27.171" y2="122.517" stroke="#1F1111" stroke-linecap="round" stroke-dasharray="2 2"/>
    <line x1="14.3354" y1="125.71" x2="30.3638" y2="125.71" stroke="#1F1111" stroke-linecap="round" stroke-dasharray="2 2"/>
    <line x1="19.657" y1="128.903" x2="39.9424" y2="128.903" stroke="#1F1111" stroke-linecap="round" stroke-dasharray="2 2"/>
    <line x1="107.5" y1="130.5" x2="117.143" y2="130.5" stroke="#1F1111" stroke-linecap="round" stroke-dasharray="2 2"/>
    <line x1="92.5" y1="124.5" x2="102.143" y2="124.5" stroke="#1F1111" stroke-linecap="round" stroke-dasharray="2 2"/>
    <line x1="88.8345" y1="121.453" x2="98.4772" y2="121.453" stroke="#1F1111" stroke-linecap="round" stroke-dasharray="2 2"/>
    <line x1="86.5" y1="118.5" x2="89.5" y2="118.5" stroke="#1F1111" stroke-linecap="round" stroke-dasharray="2 2"/>
    <line x1="24.9783" y1="132.095" x2="42.0709" y2="132.095" stroke="#1F1111" stroke-linecap="round" stroke-dasharray="2 2"/>
    <line x1="30.2996" y1="135.288" x2="47.3922" y2="135.288" stroke="#1F1111" stroke-linecap="round" stroke-dasharray="2 2"/>
    <line x1="36.6853" y1="138.481" x2="68.6777" y2="138.481" stroke="#1F1111" stroke-linecap="round" stroke-dasharray="2 2"/>
    <path d="M68.7344 137.054C69.3375 138.315 71.8705 140.266 78.0549 139.959C85.7854 139.576 88.6912 140.398 93.3515 141.933C98.0117 143.468 102.398 144.181 105.578 141.714C107.168 140.782 107.168 136.725 106.565 134.861" stroke="#1F1111" stroke-linecap="round" stroke-linejoin="round"/>
    <path d="M47.2974 91.4928C48.1198 90.7435 50.0277 89.2011 51.0804 89.0256" stroke="#1F1111" stroke-linecap="round" stroke-linejoin="round"/>
    <path d="M37.8123 93.3025C38.4519 92.5349 40.093 90.8243 41.5405 90.1225C42.9879 89.4208 45.689 88.5508 46.8586 88.2036" stroke="#1F1111" stroke-linecap="round" stroke-linejoin="round"/>
    <path d="M33.6455 89.5739C34.212 89.2267 35.3451 88.28 35.5644 87.4905" stroke="#1F1111" stroke-linecap="round" stroke-linejoin="round"/>
    <path d="M46.804 85.4073C47.206 85.2063 48.0869 84.8042 48.3939 84.8042" stroke="#1F1111" stroke-linecap="round" stroke-linejoin="round"/>
    <path d="M46.9137 85.9011C46.9137 86.4311 46.9137 88.1929 46.9137 88.5876C46.9137 89.0811 45.9816 89.9035 45.1592 90.1228C44.3368 90.3421 40.2248 91.7127 37.5383 94.5637" stroke="#1F1111" stroke-linecap="round" stroke-linejoin="round"/>
    <path d="M37.5382 91.8218C37.5382 92.5893 37.5382 94.2122 37.5382 94.5631C37.5382 95.0017 36.1127 96.811 30.8494 96.811" stroke="#1F1111" stroke-linecap="round" stroke-linejoin="round"/>
    <path d="M28.1082 98.7853C29.223 97.835 31.7157 95.8686 32.7684 95.6054C34.0842 95.2764 36.5514 94.6185 37.7576 93.9058" stroke="#1F1111" stroke-linecap="round" stroke-linejoin="round"/>
    <path d="M37.2639 95.3313V97.5792" stroke="#1F1111" stroke-linecap="round" stroke-linejoin="round"/>
    <path d="M37.9768 99.7166C38.1778 99.5156 38.2509 99.3438 38.2509 98.949C38.2509 98.4556 37.8672 96.098 40.2795 95.2208C41.1933 95.1843 43.602 95.3195 44.8301 95.0563C46.0582 94.7932 46.877 93.9963 47.1328 93.6308V91.3281" stroke="#1F1111" stroke-linecap="round" stroke-linejoin="round"/>
    <path d="M40.7729 106.9V109.477" stroke="#1F1111" stroke-linecap="round" stroke-linejoin="round"/>
    <path d="M35.1807 113.369C36.0579 112.894 38.1074 112.007 39.0733 111.614C40.8278 110.902 42.5822 110.134 42.034 108.215" stroke="#1F1111" stroke-linecap="round" stroke-linejoin="round"/>
    <path d="M38.251 113.095C38.9454 112.821 40.1151 112.503 40.5537 112.327C41.102 112.108 42.6371 111.121 42.0888 109.915" stroke="#1F1111" stroke-linecap="round" stroke-linejoin="round"/>
    <path d="M44.4999 79C42.7455 79.0548 40.1149 79.5955 40.3342 80.9113C40.6083 82.5561 39.9504 83.9268 37.8122 84.804C35.6739 85.6812 34.8515 86.1747 35.3998 87.1067C35.948 88.0388 40.2793 88.6419 42.6917 88.2581C45.1041 87.8743 47.0778 86.8874 46.8037 85.8457C46.5296 84.804 46.694 83.9268 47.4616 83.4882" stroke="#1F1111" stroke-linecap="round" stroke-linejoin="round"/>
    <path d="M14.8399 97.7433C14.182 99.1907 15.772 100.064 16.6492 100.32C19.9936 101.8 26.2439 100.156 26.9018 99.0043C27.5597 97.8529 28.6014 96.6468 30.8493 95.2213C33.0972 93.7958 36.4964 93.6861 37.264 92.5896C38.0316 91.4931 36.9899 90.4513 34.6323 89.8483C32.2748 89.2452 27.1211 89.7386 26.4632 91.1641C25.8053 92.5896 23.667 94.1247 21.3643 95.0568C19.0616 95.9888 15.6623 95.934 14.8399 97.7433Z" stroke="#1F1111" stroke-linecap="round" stroke-linejoin="round"/>
    <path d="M46.6394 86.7229C46.7125 86.9788 47.6044 87.6769 50.1483 87.7646" stroke="#1F1111" stroke-linecap="round" stroke-linejoin="round"/>
    <path d="M49.8194 87.7649C49.2345 88.0939 47.9772 88.8505 47.6263 89.2452C47.1877 89.7386 46.8587 90.2321 46.9684 90.6707C47.078 91.1093 47.6263 91.8221 45.3236 92.5348C43.0209 93.2475 40.7182 93.9055 39.512 94.9472C38.3058 95.9889 38.3058 96.592 38.0317 97.1402C37.7575 97.6885 33.5907 100.046 28.437 98.9495" stroke="#1F1111" stroke-linecap="round" stroke-linejoin="round"/>
    <path d="M27.3405 98.4562C28.4735 98.9679 30.9261 100.057 31.6718 100.32C33.28 99.8816 37.0557 99.2676 39.2926 100.32C42.0888 101.636 42.7467 103.281 39.2926 104.542C35.8386 105.803 33.3714 106.625 32.3297 108.544C31.288 110.463 30.3559 113.259 24.8184 113.588C19.281 113.917 16.0462 112.382 16.8686 110.299C17.691 108.215 22.0771 107.612 24.1605 106.516C25.8273 105.638 26.975 104.652 27.3405 104.268C26.1708 103.701 22.9496 102.533 20.2302 102.226C16.831 101.842 15.4979 101.362 14.6755 100.594V98.1272" stroke="#1F1111" stroke-linecap="round" stroke-linejoin="round"/>
    <path d="M14.6755 100.594C14.8035 101.142 15.476 102.699 16.9234 103.006C18.7327 103.39 23.5574 103.774 26.1891 105.199" stroke="#1F1111" stroke-linecap="round" stroke-linejoin="round"/>
    <path d="M15.231 102.781C15.231 103.256 15.3074 104.799 15.7864 105.003C16.5035 105.308 18.8594 105.535 20.5968 105.802C22.0223 106.022 22.8995 106.351 23.6671 106.57" stroke="#1F1111" stroke-linecap="round" stroke-linejoin="round"/>
    <path d="M15.3882 102.239C15.2055 102.312 14.9606 103.478 15.0044 104.268C15.0593 105.254 15.3334 107.228 16.2106 107.667C16.9124 108.018 18.1844 108.343 18.8423 108.489" stroke="#1F1111" stroke-linecap="round" stroke-linejoin="round"/>
    <path d="M41.6502 102.513C41.6502 103.134 41.6502 104.969 41.6502 105.364C41.6502 105.857 41.3213 106.515 39.4572 107.173C37.9659 107.7 34.6324 108.434 31.5073 110.243" stroke="#1F1111" stroke-linecap="round" stroke-linejoin="round"/>
    <path d="M32.0007 110.682C33.3166 110.791 36.4855 110.879 38.6347 110.353C41.3212 109.695 41.9243 108.598 41.9792 107.995C42.034 107.392 41.4309 106.625 41.1568 106.57" stroke="#1F1111" stroke-linecap="round" stroke-linejoin="round"/>
    <path d="M42.9901 85.7364C42.9901 85.769 42.975 85.8236 42.898 85.8984C42.8202 85.9738 42.6946 86.0533 42.5189 86.1254C42.1689 86.269 41.668 86.3636 41.1019 86.3636C40.5357 86.3636 40.0349 86.269 39.6848 86.1254C39.5091 86.0533 39.3835 85.9738 39.3057 85.8984C39.2287 85.8236 39.2136 85.769 39.2136 85.7364C39.2136 85.7038 39.2287 85.6491 39.3057 85.5744C39.3835 85.4989 39.5091 85.4194 39.6848 85.3474C40.0349 85.2037 40.5357 85.1091 41.1019 85.1091C41.668 85.1091 42.1689 85.2037 42.5189 85.3474C42.6946 85.4194 42.8202 85.4989 42.898 85.5744C42.975 85.6491 42.9901 85.7038 42.9901 85.7364Z" stroke="#1F1111" stroke-width="0.5" stroke-linecap="round" stroke-linejoin="round"/>
    <path d="M39.2925 85.7363V86.3353V86.7159C39.8519 86.9697 41.3587 87.3249 42.911 86.7159V85.7363" stroke="#1F1111" stroke-width="0.5" stroke-linecap="round" stroke-linejoin="round"/>
    <mask id="mask0_145_211" style="mask-type:alpha" maskUnits="userSpaceOnUse" x="42" y="79" width="5" height="5">
      <path d="M46.9683 83.1045L45.0036 79.0474L42.2532 80.0083L42.4988 82.6241L46.9683 83.1045Z" fill="#C4C4C4"/>
    </mask>
    <g mask="url(#mask0_145_211)">
      <path d="M47.8148 80.4729C47.8148 80.5055 47.7997 80.5602 47.7227 80.6349C47.6449 80.7104 47.5193 80.7899 47.3436 80.8619C46.9936 81.0055 46.4927 81.1002 45.9266 81.1002C45.3604 81.1002 44.8596 81.0055 44.5095 80.8619C44.3339 80.7899 44.2082 80.7104 44.1304 80.6349C44.0534 80.5602 44.0383 80.5055 44.0383 80.4729C44.0383 80.4403 44.0534 80.3856 44.1304 80.3109C44.2082 80.2355 44.3339 80.156 44.5095 80.0839C44.8596 79.9403 45.3604 79.8457 45.9266 79.8457C46.4927 79.8457 46.9936 79.9403 47.3436 80.0839C47.5193 80.156 47.6449 80.2355 47.7227 80.3109C47.7997 80.3856 47.8148 80.4403 47.8148 80.4729Z" stroke="#1F1111" stroke-width="0.5" stroke-linecap="round" stroke-linejoin="round"/>
      <path d="M44.1172 80.4729V81.0719V81.4525C44.6766 81.7062 46.1834 82.0615 47.7357 81.4525V80.4729" stroke="#1F1111" stroke-width="0.5" stroke-linecap="round" stroke-linejoin="round"/>
    </g>
    <path d="M33.4503 91.2195C33.4503 91.2521 33.4352 91.3068 33.3582 91.3815C33.2804 91.457 33.1548 91.5365 32.9791 91.6085C32.6291 91.7521 32.1282 91.8467 31.5621 91.8467C30.9959 91.8467 30.4951 91.7521 30.145 91.6085C29.9694 91.5365 29.8437 91.457 29.7659 91.3815C29.6889 91.3068 29.6738 91.2521 29.6738 91.2195C29.6738 91.1869 29.6889 91.1322 29.7659 91.0575C29.8437 90.982 29.9694 90.9026 30.145 90.8305C30.4951 90.6869 30.9959 90.5923 31.5621 90.5923C32.1282 90.5923 32.6291 90.6869 32.9791 90.8305C33.1548 90.9026 33.2804 90.982 33.3582 91.0575C33.4352 91.1322 33.4503 91.1869 33.4503 91.2195Z" stroke="#1F1111" stroke-width="0.5" stroke-linecap="round" stroke-linejoin="round"/>
    <path d="M29.7529 91.2195V91.8185V92.1991C30.3123 92.4528 31.8192 92.808 33.3715 92.1991V91.2195" stroke="#1F1111" stroke-width="0.5" stroke-linecap="round" stroke-linejoin="round"/>
    <path d="M22.9237 97.3592C22.9237 97.3918 22.9086 97.4464 22.8316 97.5212C22.7538 97.5966 22.6282 97.6761 22.4525 97.7482C22.1025 97.8918 21.6016 97.9864 21.0355 97.9864C20.4693 97.9864 19.9684 97.8918 19.6184 97.7482C19.4427 97.6761 19.3171 97.5966 19.2393 97.5212C19.1623 97.4464 19.1472 97.3918 19.1472 97.3592C19.1472 97.3266 19.1623 97.2719 19.2393 97.1972C19.3171 97.1217 19.4427 97.0422 19.6184 96.9702C19.9684 96.8265 20.4693 96.7319 21.0355 96.7319C21.6016 96.7319 22.1025 96.8265 22.4525 96.9702C22.6282 97.0422 22.7538 97.1217 22.8316 97.1972C22.9086 97.2719 22.9237 97.3266 22.9237 97.3592Z" stroke="#1F1111" stroke-width="0.5" stroke-linecap="round" stroke-linejoin="round"/>
    <path d="M19.2261 97.3591V97.9581V98.3387C19.7855 98.5925 21.2923 98.9477 22.8446 98.3387V97.3591" stroke="#1F1111" stroke-width="0.5" stroke-linecap="round" stroke-linejoin="round"/>
    <path d="M37.0579 101.833C37.0579 101.878 37.0368 101.944 36.949 102.029C36.8604 102.115 36.7191 102.204 36.5241 102.284C36.1353 102.444 35.581 102.548 34.9558 102.548C34.3307 102.548 33.7763 102.444 33.3876 102.284C33.1926 102.204 33.0513 102.115 32.9627 102.029C32.8748 101.944 32.8538 101.878 32.8538 101.833C32.8538 101.788 32.8748 101.722 32.9627 101.637C33.0513 101.551 33.1926 101.462 33.3876 101.382C33.7763 101.223 34.3307 101.118 34.9558 101.118C35.581 101.118 36.1353 101.223 36.5241 101.382C36.7191 101.462 36.8604 101.551 36.949 101.637C37.0368 101.722 37.0579 101.788 37.0579 101.833Z" stroke="#1F1111" stroke-width="0.5" stroke-linecap="round" stroke-linejoin="round"/>
    <path d="M32.9656 101.833V102.492V102.911C33.5809 103.19 35.2384 103.58 36.946 102.911V101.833" stroke="#1F1111" stroke-width="0.5" stroke-linecap="round" stroke-linejoin="round"/>
    <path d="M56.5872 122.69C56.5872 122.938 56.3797 123.229 55.8904 123.474C55.416 123.711 54.7431 123.865 53.9862 123.865C53.2294 123.865 52.5565 123.711 52.0821 123.474C51.5927 123.229 51.3853 122.938 51.3853 122.69C51.3853 122.442 51.5927 122.15 52.0821 121.905C52.5565 121.668 53.2294 121.514 53.9862 121.514C54.7431 121.514 55.416 121.668 55.8904 121.905C56.3797 122.15 56.5872 122.442 56.5872 122.69Z" stroke="#1F1111" stroke-width="0.5" stroke-linecap="round" stroke-linejoin="round"/>
    <path d="M51.4861 122.931V123.77V124.303C52.2692 124.658 54.3788 125.155 56.5521 124.303V122.931" stroke="#1F1111" stroke-width="0.5" stroke-linecap="round" stroke-linejoin="round"/>
    <path d="M40.7286 115.912C40.7286 116.135 40.5411 116.404 40.084 116.633C39.6418 116.854 39.0135 116.998 38.3058 116.998C37.5982 116.998 36.9699 116.854 36.5277 116.633C36.0706 116.404 35.8831 116.135 35.8831 115.912C35.8831 115.688 36.0706 115.419 36.5277 115.19C36.9699 114.969 37.5982 114.825 38.3058 114.825C39.0135 114.825 39.6418 114.969 40.084 115.19C40.5411 115.419 40.7286 115.688 40.7286 115.912Z" stroke="#1F1111" stroke-width="0.5" stroke-linecap="round" stroke-linejoin="round"/>
    <path d="M35.9619 116.137V116.923V117.423C36.6961 117.756 38.6739 118.222 40.7113 117.423V116.137" stroke="#1F1111" stroke-width="0.5" stroke-linecap="round" stroke-linejoin="round"/>
    <path d="M78.7096 125.67C78.7096 125.893 78.5221 126.163 78.065 126.392C77.6228 126.613 76.9945 126.757 76.2868 126.757C75.5791 126.757 74.9508 126.613 74.5087 126.392C74.0516 126.163 73.864 125.893 73.864 125.67C73.864 125.447 74.0516 125.177 74.5087 124.949C74.9508 124.728 75.5791 124.584 76.2868 124.584C76.9945 124.584 77.6228 124.728 78.065 124.949C78.5221 125.177 78.7096 125.447 78.7096 125.67Z" stroke="#1F1111" stroke-width="0.5" stroke-linecap="round" stroke-linejoin="round"/>
    <path d="M73.9429 125.896V126.682V127.181C74.6771 127.514 76.6548 127.981 78.6922 127.181V125.896" stroke="#1F1111" stroke-width="0.5" stroke-linecap="round" stroke-linejoin="round"/>
    <path d="M102.004 128.545C102.004 128.806 101.786 129.109 101.281 129.361C100.79 129.607 100.095 129.766 99.3139 129.766C98.5324 129.766 97.8372 129.607 97.3467 129.361C96.8412 129.109 96.6238 128.806 96.6238 128.545C96.6238 128.285 96.8412 127.982 97.3467 127.73C97.8372 127.484 98.5324 127.325 99.3139 127.325C100.095 127.325 100.79 127.484 101.281 127.73C101.786 127.982 102.004 128.285 102.004 128.545Z" stroke="#1F1111" stroke-width="0.5" stroke-linecap="round" stroke-linejoin="round"/>
    <path d="M96.7356 128.794V129.659V130.209C97.5432 130.575 99.7187 131.088 101.96 130.209V128.794" stroke="#1F1111" stroke-width="0.5" stroke-linecap="round" stroke-linejoin="round"/>
    <path d="M26.7369 109.619C26.7369 109.694 26.7009 109.789 26.586 109.9C26.4703 110.012 26.2898 110.125 26.0465 110.225C25.561 110.424 24.873 110.553 24.1002 110.553C23.3275 110.553 22.6395 110.424 22.154 110.225C21.9106 110.125 21.7302 110.012 21.6145 109.9C21.4996 109.789 21.4636 109.694 21.4636 109.619C21.4636 109.544 21.4996 109.449 21.6145 109.337C21.7302 109.225 21.9106 109.112 22.154 109.012C22.6395 108.813 23.3275 108.684 24.1002 108.684C24.873 108.684 25.561 108.813 26.0465 109.012C26.2898 109.112 26.4703 109.225 26.586 109.337C26.7009 109.449 26.7369 109.544 26.7369 109.619Z" stroke="#1F1111" stroke-width="0.5" stroke-linecap="round" stroke-linejoin="round"/>
    <path d="M21.6577 109.619V110.428V110.941C22.4129 111.284 24.4471 111.763 26.5428 110.941V109.619" stroke="#1F1111" stroke-width="0.5" stroke-linecap="round" stroke-linejoin="round"/>
    <path d="M31.6169 110.517C31.9641 111.449 33.1191 113.346 34.9613 113.478M34.9613 113.478C37.264 113.642 41.5405 111.614 44.5011 114.355C47.4617 117.097 47.1328 118.303 53.1089 119.399C59.085 120.496 64.8966 122.579 59.5784 126.307C54.2602 130.036 48.1745 126.91 45.488 124.114C42.8015 121.318 37.2092 120.441 34.9613 120.057C32.7134 119.673 30.0817 118.522 31.1783 116C32.0555 113.982 34.0658 113.478 34.9613 113.478Z" stroke="#1F1111" stroke-linecap="round" stroke-linejoin="round"/>
    <path d="M16.759 110.792C16.7041 111.249 16.9496 112.836 17.1976 114.027C17.4717 115.342 22.8447 115.452 25.4215 113.588" stroke="#1F1111" stroke-linecap="round" stroke-linejoin="round"/>
    <path d="M17.2524 114.191C17.3804 114.684 18.5025 116.132 22.1868 116.658C26.7923 117.316 30.1915 120.002 30.9591 121.099" stroke="#1F1111" stroke-linecap="round" stroke-linejoin="round"/>
    <path d="M21.3645 114.958C23.5576 115.196 28.9306 117.316 30.7947 120.002" stroke="#1F1111" stroke-linecap="round" stroke-linejoin="round"/>
    <path d="M30.959 117.261C30.9955 118.394 30.959 120.583 30.959 120.934C30.959 121.373 32.8231 122.634 35.2903 122.963C37.6916 123.283 38.5867 122.98 40.1493 122.964C40.2356 122.963 40.3209 122.974 40.4038 122.998C41.5117 123.318 44.1335 124.36 45.9266 126.417C47.7907 128.555 50.861 130.255 57.5498 129.158" stroke="#1F1111" stroke-linecap="round" stroke-linejoin="round"/>
    <path d="M46.3105 127.02C46.3105 127.312 46.3105 127.733 46.3105 128.171C46.3105 128.72 48.5036 130.2 50.7515 130.529C52.9994 130.858 56.3438 130.693 59.8527 130.529C63.3616 130.364 67.1446 131.187 71.4211 132.996C75.6976 134.805 80.8513 134.147 83.2636 132.009" stroke="#1F1111" stroke-linecap="round" stroke-linejoin="round"/>
    <path d="M17.5267 114.904C17.3622 115.343 17.1868 116.724 17.8008 117.865C18.5684 119.29 24.4348 119.674 26.3538 120.442C28.2727 121.209 30.2464 122.58 31.5623 124.17C32.8781 125.76 37.2094 128.172 44.1724 124.882" stroke="#1F1111" stroke-linecap="round" stroke-linejoin="round"/>
    <path d="M17.4717 116.823C17.49 117.316 17.5594 119.499 17.691 120.113C17.8555 120.88 19.6099 122.251 22.7899 122.306C25.3338 122.35 26.4815 122.068 26.7374 121.922C27.8522 122.488 30.323 124.038 31.288 125.705C31.4524 126.144 31.7814 126.582 31.8911 127.076C32.0007 127.569 32.4941 128.666 36.7158 129.159C40.9374 129.652 44.0077 131.736 46.5297 133.929C49.0518 136.122 50.3128 137.218 54.5892 136.89C58.0104 136.626 59.8526 135.61 60.346 135.135" stroke="#1F1111" stroke-linecap="round" stroke-linejoin="round"/>
    <path d="M40.0602 126.308C39.4023 126.619 38.5799 127.24 36.332 127.788C38.5799 128.172 42.977 128.633 46.7491 132.668C49.8194 135.826 53.2102 135.179 57.2758 135.08C61.7715 134.97 64.4361 134.883 68.7345 136.944C73.0329 139.006 77.0133 138.589 79.316 138.26" stroke="#1F1111" stroke-linecap="round" stroke-linejoin="round"/>
    <path d="M46.6393 128.994C46.5114 129.104 46.2774 129.608 46.3652 130.749C46.4748 132.174 48.2293 133.49 51.4092 133.655C54.5891 133.819 59.1397 133.106 63.5259 133.819C67.912 134.532 70.6533 136.506 75.0943 136.999C79.5352 137.492 83.8665 135.738 84.3051 132.229" stroke="#1F1111" stroke-linecap="round" stroke-linejoin="round"/>
    <path d="M61.333 122.579C62.2468 123.109 65.6424 124.465 69.7215 124.334" stroke="#1F1111" stroke-linecap="round" stroke-linejoin="round"/>
    <path d="M72.6273 123.073C68.8991 123.775 68.1864 126.143 68.296 127.24C68.424 127.989 69.4693 129.663 72.6273 130.365C76.5748 131.242 84.0312 129.323 90.3363 131.516C96.6413 133.71 103.166 134.861 106.072 132.449C108.977 130.036 106.236 125.65 101.137 125.595C96.0383 125.54 90.6104 126.253 85.5116 124.937C80.4127 123.621 77.2876 122.196 72.6273 123.073Z" stroke="#1F1111" stroke-linecap="round" stroke-linejoin="round"/>
    <path d="M81.0706 136.231C80.5406 136.834 79.371 138.095 78.9324 138.315C80.6503 138.15 84.744 137.997 87.3757 138.698C90.6653 139.576 95.9286 141.933 99.4923 141.824C103.056 141.714 106.126 140.562 106.839 139.247" stroke="#1F1111" stroke-linecap="round" stroke-linejoin="round"/>
    <path d="M77.9453 132.12C83.4828 131.407 88.2527 131.955 93.7902 133.929" stroke="#1F1111" stroke-linecap="round" stroke-linejoin="round"/>
    <path d="M91.5422 133.216C91.5971 134.13 92.7046 136.133 96.6959 136.835C101.685 137.712 106.291 135.464 106.839 134.477C107.277 133.688 107.15 131.827 107.223 130.639" stroke="#1F1111" stroke-linecap="round" stroke-linejoin="round"/>
    <path d="M91.8164 133.764C91.8164 134.767 91.8164 136.918 91.8164 137.492" stroke="#1F1111" stroke-linecap="round" stroke-linejoin="round"/>
    <path d="M91.6394 134.094C91.1587 134.35 90.3415 135.173 90.9184 136.406C91.6394 137.948 96.2122 139.789 100.15 139.686C104.088 139.583 106.562 137.829 106.839 137.109" stroke="#1F1111" stroke-linecap="round" stroke-linejoin="round"/>
    <path d="M91.4875 137.273C91.5241 138.004 91.6959 139.62 92.0906 140.234" stroke="#1F1111" stroke-linecap="round" stroke-linejoin="round"/>
    <path d="M71.2117 8.60302C75.2506 8.54819 92.8572 8.39465 97.4187 9.97366C103.121 11.9474 121.268 20.6648 123.735 48.6812C125.435 67.9801 113.373 91.5556 101.037 93.4807L88.2353 95.095L75.4333 96.7093" stroke="#1F1111" stroke-linecap="round" stroke-linejoin="round"/>
    <path d="M73.679 44.405C72.4729 47.3108 70.7184 54.0655 74.008 59.592" stroke="#1F1111" stroke-linecap="round" stroke-linejoin="round"/>
    <path d="M79.5937 52.6285C79.5937 64.8362 71.996 74.4977 62.8781 74.4977C53.7602 74.4977 46.1626 64.8362 46.1626 52.6285C46.1626 40.4209 53.7602 30.7593 62.8781 30.7593C71.996 30.7593 79.5937 40.4209 79.5937 52.6285Z" stroke="#1F1111" stroke-linecap="round" stroke-linejoin="round"/>
    <path d="M97.5768 52.7932C97.5768 62.5789 94.527 71.4199 89.6192 77.8041C84.7117 84.1877 77.9668 88.0949 70.5539 88.0949C63.1411 88.0949 56.3962 84.1877 51.4887 77.8041C46.5808 71.4199 43.531 62.5789 43.531 52.7932C43.531 43.0075 46.5808 34.1664 51.4887 27.7823C56.3962 21.3986 63.1411 17.4915 70.5539 17.4915C77.9668 17.4915 84.7117 21.3986 89.6192 27.7823C94.527 34.1664 97.5768 43.0075 97.5768 52.7932Z" stroke="#1F1111" stroke-linecap="round" stroke-linejoin="round"/>
    <path d="M65.0724 36.148C65.027 36.4017 65.1819 36.6482 65.43 36.7176C68.3473 37.5324 71.0339 39.4979 72.8717 42.6659C74.7203 45.8526 75.6245 49.8201 75.3905 53.8329C75.1564 57.8464 73.8028 61.5823 71.6198 64.36C69.4399 67.1338 66.6049 68.7406 63.6634 68.9834C60.7268 69.2258 57.7771 68.1017 55.36 65.7294C52.9358 63.35 51.2257 59.8829 50.5952 55.9441C49.965 52.007 50.4652 47.9162 51.9888 44.4363C53.5129 40.9549 55.9347 38.3668 58.7508 37.0772C58.9444 36.9886 59.0606 36.7872 59.0404 36.5753L58.7637 33.6692L65.5155 33.6692L65.0724 36.148Z" stroke="#1F1111" stroke-linecap="round" stroke-linejoin="round"/>
    <path d="M110.16 50.8806C110.344 56.6761 109.582 62.4575 107.92 67.8939C106.257 73.3303 103.728 78.3123 100.478 82.5569C97.2294 86.8013 93.326 90.2237 88.9945 92.6337C84.6635 95.0434 79.9876 96.395 75.233 96.6157C70.4785 96.8364 65.7323 95.9223 61.2639 93.9224C56.795 91.9222 52.6888 88.8736 49.1823 84.945C45.6758 81.0162 42.8389 76.2854 40.8376 71.0205C38.8362 65.7557 37.7107 60.0628 37.5268 54.2673C37.343 48.4718 38.1046 42.6905 39.7671 37.2541C41.4295 31.8176 43.9593 26.8357 47.2084 22.5911C50.4575 18.3466 54.3608 14.9243 58.6923 12.5143C63.0233 10.1045 67.6993 8.75297 72.4539 8.53224C77.2084 8.31152 81.9546 9.2256 86.423 11.2256C90.8918 13.2258 94.9981 16.2744 98.5045 20.203C102.011 24.1317 104.848 28.8625 106.849 34.1274C108.851 39.3922 109.976 45.0852 110.16 50.8807L110.16 50.8806Z" stroke="#1F1111" stroke-linecap="round" stroke-linejoin="round"/>
    <path d="M62.9877 30.534C68.3607 29.5289 80.4664 30.2709 85.9052 41.28C92.7037 55.0415 85.5214 80.2069 60.9043 74.4501" stroke="#1F1111" stroke-linecap="round" stroke-linejoin="round"/>
    <line x1="90.4661" y1="13.3155" x2="104.16" y2="13.4177" stroke="#1F1111" stroke-linecap="round"/>
    <line x1="83.8967" y1="10.1456" x2="99.0161" y2="10.557" stroke="#1F1111" stroke-linecap="round"/>
    <line x1="98.1382" y1="19.6714" x2="111.503" y2="19.6714" stroke="#1F1111" stroke-linecap="round"/>
    <line x1="110.2" y1="46.2078" x2="123.345" y2="46.2078" stroke="#1F1111" stroke-linecap="round"/>
    <line x1="109.652" y1="63.094" x2="122.797" y2="63.094" stroke="#1F1111" stroke-linecap="round"/>
    <line x1="107.239" y1="70.9893" x2="120.384" y2="70.9893" stroke="#1F1111" stroke-linecap="round"/>
    <line x1="104.056" y1="77.8936" x2="117.311" y2="77.7917" stroke="#1F1111" stroke-linecap="round"/>
    <line x1="100.214" y1="83.1539" x2="114.346" y2="82.9491" stroke="#1F1111" stroke-linecap="round"/>
    <line x1="95.1568" y1="88.2941" x2="110.386" y2="87.6767" stroke="#1F1111" stroke-linecap="round"/>
    <line x1="88.4347" y1="92.9807" x2="106.52" y2="91.1099" stroke="#1F1111" stroke-linecap="round"/>
    <line x1="56.8156" y1="38.5297" x2="69.0853" y2="39.2395" stroke="#1F1111" stroke-linecap="round"/>
    <line x1="53.9642" y1="41.5992" x2="72.1551" y2="42.6386" stroke="#1F1111" stroke-linecap="round"/>
    <line x1="51.5815" y1="46.1282" x2="72.4031" y2="46.8607" stroke="#1F1111" stroke-linecap="round"/>
    <line x1="50.4901" y1="57.1821" x2="71.7498" y2="56.7632" stroke="#1F1111" stroke-linecap="round"/>
    <line x1="52.7041" y1="61.94" x2="73.1974" y2="60.8944" stroke="#1F1111" stroke-linecap="round"/>
    <path d="M54.3137 64.9116L71.7782 63.9527" stroke="#1F1111" stroke-linecap="round"/>
    <line x1="56.7433" y1="67.2982" x2="69.8922" y2="66.177" stroke="#1F1111" stroke-linecap="round"/>
    <path d="M102.112 108.787L102.441 111.474L96.465 106.485L90.7083 105.936L92.0241 104.621L96.7392 101.276L103.647 96.6707L109.952 93.4359L118.505 89.5432L122.343 97.822L119.821 98.0413L113.132 99.3572L107.321 101.934L103.647 105.169L102.112 108.787Z" fill="#EEEEEE"/>
    <path d="M151.534 110.941C151.439 114.293 148.739 117.376 144.177 119.597C139.639 121.806 133.385 123.09 126.496 122.895C119.607 122.699 113.436 121.063 109.031 118.601C104.602 116.125 102.08 112.894 102.175 109.542C102.27 106.189 104.971 103.107 109.533 100.886C114.071 98.6764 120.324 97.3927 127.213 97.588C134.103 97.7833 140.273 99.4191 144.679 101.882C149.108 104.358 151.629 107.589 151.534 110.941Z" stroke="#1F1111" stroke-linecap="round" stroke-linejoin="round"/>
    <path d="M156.582 110.447C156.467 114.5 153.125 118.207 147.521 120.865C141.946 123.511 134.268 125.042 125.816 124.802C117.37 124.563 109.808 122.44 104.404 119.324C98.9735 116.192 95.8485 112.141 95.9636 108.08C96.0802 103.966 98.3603 100.565 103.317 98.1648C108.301 95.7506 115.956 94.3737 126.685 94.373C135.135 94.6135 142.711 96.5766 148.126 99.5326C153.57 102.504 156.697 106.394 156.582 110.447Z" stroke="#1F1111" stroke-linecap="round" stroke-linejoin="round"/>
    <path d="M156 107.5C156.127 108.902 157.137 114.023 156.832 117.882C156.341 120.575 151.71 130.223 131.062 130.952C109.253 131.722 99.3535 122.987 97.5556 119.116C96.6476 117.602 95.1802 113.058 96.575 107" stroke="#1F1111" stroke-linecap="round" stroke-linejoin="round"/>
    <path d="M89.8858 117.091L88.4055 109.69L89.0634 111.17L90.8179 113.034L95.0944 113.802L102.66 114.295L111.707 113.802L121.74 112.322L131.39 109.69L144.329 104.865L155.349 98.9439L160.612 94.5577L161.818 91.8164L163.408 96.9701V99.8759L162.202 101.904L156.719 106.4L150.031 110.622L141.094 114.844L127.223 118.517L117.902 120.436L109.952 121.313H105.347L97.8905 120.765L93.7785 119.778L91.3661 118.517L89.8858 117.091Z" fill="#EEEEEE" stroke="#1F1111"/>
    <path fill-rule="evenodd" clip-rule="evenodd" d="M162.29 91.3302C162.27 89.5106 161.014 87.7357 158.752 86.4162C155.854 84.7257 151.206 83.6943 144.904 84.0812C132.354 84.8519 119.896 87.4414 106.229 94.9914C99.4281 98.7481 94.4706 101.879 91.471 104.504C89.9739 105.814 88.9292 107.027 88.4004 108.161C88.0266 108.962 87.907 109.735 88.0734 110.463C88.0691 110.503 88.0701 110.543 88.0769 110.584C88.2143 111.408 88.4339 112.691 88.6469 113.861C88.8572 115.018 89.0675 116.102 89.1855 116.503C89.3552 117.08 89.8686 118.188 91.7303 119.239C93.5717 120.278 96.7292 121.259 102.19 121.646C113.127 122.419 128.157 119.605 140.581 115.317C153.054 111.012 161.067 103.672 163.084 101.374C163.575 100.815 163.776 100.009 163.832 99.1636C163.889 98.3064 163.8 97.3369 163.644 96.3809C163.331 94.467 162.735 92.5328 162.405 91.514C162.382 91.4416 162.341 91.3793 162.29 91.3302ZM161.943 93.0272C161.492 94.0923 160.553 95.2799 159.163 96.5463C157.689 97.8898 155.675 99.3497 153.108 100.875C147.974 103.925 140.595 107.254 130.814 110.441C115.12 115.555 99.4467 114.926 93.5427 113.966C91.4388 113.624 90.1092 112.981 89.2668 112.275C89.3487 112.744 89.4354 113.232 89.5209 113.702C89.7354 114.882 89.9364 115.908 90.0377 116.252C90.1421 116.607 90.5059 117.528 92.1668 118.465C93.848 119.414 96.8586 120.378 102.253 120.759C113.028 121.521 127.933 118.743 140.291 114.478C152.599 110.23 160.486 102.987 162.416 100.788C162.715 100.448 162.895 99.8796 162.946 99.1051C162.996 98.3425 162.918 97.4472 162.767 96.5241C162.564 95.283 162.236 94.025 161.943 93.0272ZM144.959 84.9679C151.157 84.5873 155.61 85.6119 158.305 87.1835C161.005 88.7589 161.842 90.7963 161.183 92.5365C160.836 93.4554 159.99 94.5914 158.565 95.8897C157.148 97.1814 155.187 98.6067 152.655 100.111C147.591 103.119 140.276 106.424 130.539 109.597C115.004 114.659 99.4775 114.031 93.6852 113.089C90.9285 112.641 89.745 111.677 89.2148 110.925C88.7952 110.245 88.7672 109.475 89.2054 108.536C89.6567 107.569 90.5925 106.453 92.056 105.172C94.9777 102.616 99.8615 99.5236 106.658 95.769C120.185 88.2965 132.508 85.7324 144.959 84.9679Z" fill="#1F1111"/>
    <path d="M155.129 99.1075C160.74 94.1 165.853 84.1947 138.791 85.072" stroke="#1F1111" stroke-linecap="round" stroke-linejoin="round"/>
    <path d="M158.403 95.3542C159.719 90.036 135.94 88.5813 123.878 94.2284" stroke="#1F1111" stroke-linecap="round" stroke-linejoin="round"/>
    <path d="M96.1362 107.113C94.7655 107.771 93.0439 109.766 95.5879 113.582" stroke="#1F1111" stroke-linecap="round" stroke-linejoin="round"/>
    <line x1="90.8495" y1="106.495" x2="93.8279" y2="109.123" stroke="#1F1111" stroke-linecap="round"/>
    <line x1="94.246" y1="102.998" x2="96.253" y2="105.507" stroke="#1F1111" stroke-linecap="round"/>
    <line x1="97.9768" y1="100.448" x2="98.7474" y2="101.337" stroke="#1F1111" stroke-linecap="round"/>
    <line x1="107.4" y1="95.3524" x2="108.015" y2="96.1908" stroke="#1F1111" stroke-linecap="round"/>
    <line x1="111.527" y1="93.0888" x2="112.331" y2="94.9148" stroke="#1F1111" stroke-linecap="round"/>
    <line x1="118.209" y1="90.0352" x2="119.804" y2="93.9344" stroke="#1F1111" stroke-linecap="round"/>
    <line x1="139.403" y1="85.4612" x2="140.231" y2="90.6144" stroke="#1F1111" stroke-linecap="round"/>
    <line x1="147.006" y1="85.2175" x2="147.006" y2="90.1388" stroke="#1F1111" stroke-linecap="round"/>
    <line x1="152.838" y1="86.4995" x2="152.125" y2="90.7764" stroke="#1F1111" stroke-linecap="round"/>
    <line x1="155.948" y1="87.5298" x2="154.8" y2="91.5034" stroke="#1F1111" stroke-linecap="round"/>
    <line x1="158.52" y1="89.4243" x2="157.242" y2="92.661" stroke="#1F1111" stroke-linecap="round"/>
    <path d="M101.164 114.16C98.0754 111.4 93.5979 103.414 107.14 96.6704" stroke="#1F1111" stroke-linecap="round"/>
    <line x1="155.449" y1="115.153" x2="155.449" y2="120.842" stroke="#1F1111" stroke-linecap="round"/>
    <line x1="152.489" y1="118.114" x2="152.489" y2="123.584" stroke="#1F1111" stroke-linecap="round"/>
    <line x1="145.8" y1="122.281" x2="145.8" y2="127.75" stroke="#1F1111" stroke-linecap="round"/>
    <line x1="122.199" y1="125.001" x2="122.199" y2="130.471" stroke="#1F1111" stroke-linecap="round"/>
    <line x1="113.123" y1="123.048" x2="113.123" y2="128.518" stroke="#1F1111" stroke-linecap="round"/>
    <line x1="110.053" y1="121.622" x2="110.053" y2="127.75" stroke="#1F1111" stroke-linecap="round"/>
    <line x1="107.64" y1="121.513" x2="107.64" y2="126.763" stroke="#1F1111" stroke-linecap="round"/>
    <line x1="105.337" y1="121.622" x2="105.337" y2="125.556" stroke="#1F1111" stroke-linecap="round"/>
    <line x1="103.035" y1="121.513" x2="103.035" y2="124.461" stroke="#1F1111" stroke-linecap="round"/>
    <line x1="91.3288" y1="113.301" x2="91.2634" y2="118.249" stroke="#1F1111" stroke-linecap="round"/>
    <line x1="93.4639" y1="114.359" x2="93.4639" y2="119.745" stroke="#1F1111" stroke-linecap="round"/>
    <line x1="95.5925" y1="114.359" x2="95.5925" y2="119.745" stroke="#1F1111" stroke-linecap="round"/>
    <line x1="98.7852" y1="114.359" x2="98.7852" y2="120.809" stroke="#1F1111" stroke-linecap="round"/>
    <line x1="105.171" y1="114.359" x2="105.171" y2="120.809" stroke="#1F1111" stroke-linecap="round"/>
    <line x1="139.356" y1="107.798" x2="141.464" y2="114.411" stroke="#1F1111" stroke-linecap="round"/>
    <line x1="149.796" y1="102.298" x2="152.682" y2="108.84" stroke="#1F1111" stroke-linecap="round"/>
    <line x1="156.409" y1="98.166" x2="158.878" y2="104.15" stroke="#1F1111" stroke-linecap="round"/>
    <line x1="158.533" y1="97.1128" x2="160.798" y2="102.871" stroke="#1F1111" stroke-linecap="round"/>
    <line x1="160.655" y1="94.9975" x2="162.941" y2="101.187" stroke="#1F1111" stroke-linecap="round"/>
  </g>
</svg>
