<svg width="173" height="146" viewBox="0 0 173 146" fill="none" xmlns="http://www.w3.org/2000/svg">
  <g opacity="0.8">
    <line x1="32.2073" y1="125.932" x2="63.7928" y2="125.932" stroke="#1F1111" stroke-linecap="round" stroke-dasharray="2.34 2.34"/>
    <path d="M35.5539 79.2443L43.1481 78.2707L44.641 85.2158L47.432 92.6802L40.7465 97.2887L36.7871 103.195L40.7465 110.27L45.6795 116.501L50.937 112.672L55.8051 105.013L61.3871 109.751L67.6183 112.996L65.4114 122.992L66.1903 131.82L73.6547 134.156L81.3787 135L82.7417 126.627L81.3787 115.528L88.194 114.359L95.1391 111.439L100.267 121.629L106.628 128.25L113.768 123.122L119.739 116.826L114.871 108.323L106.628 100.859L110.717 93.3293L113.378 85.2807L123.763 88.6559L132.85 88.2016L134.019 78.2707L133.694 68.5346L124.867 66.133L114.222 67.8855L112.275 58.9931L108.705 50.9446L117.922 44.5836L123.244 37.1842L117.662 29.9145L111.301 23.5536L104.161 29.1356L98.2547 38.4823L91.6341 34.3282L84.8188 31.8617L87.1555 21.0222L86.5064 12.3894L78.6526 12L70.9286 13.0385L69.6304 21.6063L70.9286 31.8617L64.5676 34.1335L58.5312 38.1578L54.3122 29.3953L49.1845 24.5921L43.7322 30.1092L39.3834 36.4053L42.6937 42.896L49.1845 48.8026L46.004 55.4232L43.9919 62.6929L37.2415 60.3562L30.4911 60.9404L29.7771 68.8591V77.4269L35.5539 79.2443Z" stroke="#1F1111" stroke-linecap="round" stroke-linejoin="round"/>
    <path d="M103.337 73.4674C103.337 90.4811 91.7149 104.123 77.5491 104.123C63.3832 104.123 51.7615 90.4811 51.7615 73.4674C51.7615 56.4538 63.3832 42.8118 77.5491 42.8118C91.7149 42.8118 103.337 56.4538 103.337 73.4674Z" stroke="#1F1111" stroke-linecap="round" stroke-linejoin="round"/>
    <path d="M94.5417 95.8474C90.548 94.7464 86.8956 91.9788 84.1416 87.9085C81.3873 83.8376 79.6897 78.6945 79.3152 73.234C78.9408 67.7739 79.9107 62.3067 82.0727 57.6407C84.2352 52.9738 87.0586 49.6014 90.855 47.5698" stroke="#1F1111" stroke-linecap="round" stroke-linejoin="round"/>
    <path d="M37.3711 60.3562H44.446" stroke="#1F1111" stroke-linecap="round" stroke-linejoin="round"/>
    <path d="M49.3794 24.3972L70.4095 27.9671" stroke="#1F1111" stroke-linecap="round" stroke-linejoin="round"/>
    <path d="M86.5713 12.3896L110.263 18.6208L110.847 23.8783" stroke="#1F1111" stroke-linecap="round" stroke-linejoin="round"/>
    <path d="M111.236 23.5535L132.656 28.5514L138.497 34.0036L143.236 40.4295L138.497 46.8553L130.514 52.2427L109.029 51.1392" stroke="#1F1111" stroke-linecap="round" stroke-linejoin="round"/>
    <path d="M123.179 37.1191L142.781 40.2996" stroke="#1F1111" stroke-linecap="round" stroke-linejoin="round"/>
    <path d="M130.708 52.4375L133.434 59.0581L135.057 65.3541" stroke="#1F1111" stroke-linecap="round" stroke-linejoin="round"/>
    <path d="M124.997 66.1329L145.248 64.9646L152.582 66.782L152.907 75.934L152.063 84.1124L132.526 88.2664" stroke="#1F1111" stroke-linecap="round" stroke-linejoin="round"/>
    <path d="M133.629 68.4694L152.453 66.8467" stroke="#1F1111" stroke-linecap="round" stroke-linejoin="round"/>
    <path d="M132.526 88.1365L128.567 94.9518" stroke="#1F1111" stroke-linecap="round" stroke-linejoin="round"/>
    <path d="M106.822 100.729L128.501 95.082L136.031 101.443L140.25 108.388L134.603 114.36L128.501 118.708L106.887 128.25" stroke="#1F1111" stroke-linecap="round" stroke-linejoin="round"/>
    <path d="M119.609 117.021L139.86 108.453" stroke="#1F1111" stroke-linecap="round" stroke-linejoin="round"/>
    <path d="M81.314 135L103.772 125.718" stroke="#1F1111" stroke-linecap="round" stroke-linejoin="round"/>
    <path d="M46.0039 116.372L64.4377 111.568" stroke="#1F1111" stroke-linecap="round" stroke-linejoin="round"/>
    <line x1="52.0899" y1="27.093" x2="70.0541" y2="29.8" stroke="#1F1111" stroke-linecap="round"/>
    <line x1="87.1668" y1="16.3572" x2="110.465" y2="21.4655" stroke="#1F1111" stroke-linecap="round"/>
    <line x1="87.2781" y1="21.3922" x2="109.14" y2="25.1186" stroke="#1F1111" stroke-linecap="round"/>
    <line x1="86.2226" y1="26.5619" x2="104.314" y2="28.9002" stroke="#1F1111" stroke-linecap="round"/>
    <line x1="85.4295" y1="31.0877" x2="101.829" y2="32.6788" stroke="#1F1111" stroke-linecap="round"/>
    <line x1="110.458" y1="54.5548" x2="131.398" y2="55.4221" stroke="#1F1111" stroke-linecap="round"/>
    <line x1="112.651" y1="59.4726" x2="133.2" y2="59.7202" stroke="#1F1111" stroke-linecap="round"/>
    <line x1="114.048" y1="64.7654" x2="134.209" y2="63.7759" stroke="#1F1111" stroke-linecap="round"/>
    <line x1="111.49" y1="91.0253" x2="130.222" y2="91.5182" stroke="#1F1111" stroke-linecap="round"/>
    <line x1="108.834" y1="96.6809" x2="128.089" y2="94.9529" stroke="#1F1111" stroke-linecap="round"/>
    <line x1="82.2776" y1="119.085" x2="96.4898" y2="115.927" stroke="#1F1111" stroke-linecap="round"/>
    <line x1="51.258" y1="112.598" x2="61.963" y2="110.338" stroke="#1F1111" stroke-linecap="round"/>
    <line x1="70.5649" y1="44.4204" x2="88.5502" y2="49.1015" stroke="#1F1111" stroke-linecap="round"/>
    <line x1="63.2881" y1="48.1733" x2="84.5141" y2="53.2626" stroke="#1F1111" stroke-linecap="round"/>
    <line x1="56.7758" y1="56.3187" x2="80.8462" y2="60.6838" stroke="#1F1111" stroke-linecap="round"/>
    <line x1="52.4577" y1="68.8655" x2="78.8537" y2="71.4925" stroke="#1F1111" stroke-linecap="round"/>
    <line x1="53.3369" y1="82.2025" x2="81.4161" y2="83.2053" stroke="#1F1111" stroke-linecap="round"/>
    <line x1="56.679" y1="90.8667" x2="85.2774" y2="89.9887" stroke="#1F1111" stroke-linecap="round"/>
    <line x1="60.0272" y1="95.7759" x2="89.0179" y2="93.3914" stroke="#1F1111" stroke-linecap="round"/>
    <line x1="64.2841" y1="99.7785" x2="93.9291" y2="95.8845" stroke="#1F1111" stroke-linecap="round"/>
    <line x1="70.8637" y1="102.995" x2="92.0824" y2="98.6516" stroke="#1F1111" stroke-linecap="round"/>
    <line x1="53.2159" y1="109.36" x2="58.9843" y2="108.251" stroke="#1F1111" stroke-linecap="round"/>
    <line x1="83.0171" y1="125.683" x2="99.4522" y2="120.899" stroke="#1F1111" stroke-linecap="round"/>
    <line x1="82.1992" y1="132.024" x2="102.548" y2="124.703" stroke="#1F1111" stroke-linecap="round"/>
    <line x1="92.9461" y1="35.227" x2="99.4777" y2="35.6775" stroke="#1F1111" stroke-linecap="round"/>
    <line x1="54.9185" y1="30.4336" x2="70.2791" y2="31.7746" stroke="#1F1111" stroke-linecap="round"/>
    <line x1="56.6875" y1="34.1456" x2="64.9045" y2="34.0299" stroke="#1F1111" stroke-linecap="round"/>
    <line x1="29.1736" y1="122.427" x2="63.2237" y2="122.427" stroke="#1F1111" stroke-linecap="round" stroke-dasharray="2.34 2.34"/>
    <line x1="26.1875" y1="118.922" x2="64.7812" y2="118.922" stroke="#1F1111" stroke-linecap="round" stroke-dasharray="2.34 2.34"/>
    <line x1="64.0024" y1="115.249" x2="55.7856" y2="115.249" stroke="#1F1111" stroke-linecap="round" stroke-dasharray="2.34 2.34"/>
    <line x1="24.5" y1="115.547" x2="41.4145" y2="115.547" stroke="#1F1111" stroke-linecap="round" stroke-dasharray="2.34 2.34"/>
    <line x1="37.4817" y1="129.437" x2="63.8727" y2="129.437" stroke="#1F1111" stroke-linecap="round" stroke-dasharray="2.34 2.34"/>
    <line x1="40.5" y1="132.5" x2="68.5" y2="132.5" stroke="#1F1111" stroke-linecap="round" stroke-dasharray="2.34 2.34"/>
  </g>
</svg>
