<svg width="84" height="63" viewBox="0 0 84 63" fill="none" xmlns="http://www.w3.org/2000/svg">
<path d="M69.9751 44.1064C69.6768 44.1064 69.3848 44.191 69.131 44.3497C68.6613 44.6415 68.3799 45.1448 68.3799 45.7074C68.3799 45.9273 68.4265 46.1409 68.5153 46.3397C68.619 46.5766 68.7819 46.788 68.985 46.9551C69.2875 47.2025 69.6472 47.3336 70.0259 47.3336C70.9018 47.3336 71.6127 46.6231 71.6127 45.7475C71.6127 45.3309 71.4519 44.9376 71.1642 44.6436C70.8616 44.301 70.43 44.1064 69.9751 44.1064Z" fill="#1F1111"/>
<path d="M42.0474 44.3896C41.6243 44.3896 41.2117 44.561 40.9155 44.8591C40.8034 44.9712 40.7082 45.1002 40.6341 45.244C40.5156 45.4703 40.4521 45.7241 40.4521 45.9948C40.4564 46.3522 40.5812 46.7033 40.8055 46.9803C41.1207 47.3779 41.6031 47.6147 42.0982 47.6147C42.5213 47.6147 42.9212 47.4498 43.2195 47.1495C43.5178 46.8492 43.6849 46.4516 43.6828 46.0286C43.6828 45.6099 43.5221 45.2165 43.2322 44.9226C42.9339 44.5821 42.5002 44.3896 42.0474 44.3896Z" fill="#1F1111"/>
<path d="M14.3466 29.8376H21.5929C22.3397 29.8376 22.9766 29.3364 23.1395 28.6089L23.1437 28.5962L23.0887 28.5814C23.0718 28.3488 23.0125 28.1034 23.0125 27.8497L23.2241 27.8327L23.167 27.8095C22.9702 27.1391 22.2911 26.6611 21.5929 26.6611H14.3466C13.4706 26.6611 12.7598 27.3738 12.7598 28.2472C12.7598 29.127 13.4706 29.8376 14.3466 29.8376Z" fill="#AB2421"/>
<path d="M9.20297 29.7533C9.62187 29.7533 10.0323 29.5841 10.3243 29.288C10.6205 28.992 10.7897 28.5838 10.7897 28.1672C10.7897 27.7527 10.6205 27.3424 10.3243 27.0463C10.026 26.7524 9.61764 26.5811 9.20297 26.5811C8.78618 26.5811 8.37573 26.7502 8.08165 27.0463C7.78757 27.3403 7.61621 27.7506 7.61621 28.1672C7.61621 28.588 7.78545 28.9962 8.07953 29.288C8.37361 29.5841 8.78406 29.7533 9.20297 29.7533Z" fill="#AB2421"/>
<path d="M5.45813 26.9741C5.15981 26.678 4.75147 26.5088 4.33679 26.5088C3.91999 26.5088 3.50953 26.678 3.21545 26.9741C2.92136 27.2701 2.75 27.6783 2.75 28.0949C2.75 28.5157 2.91924 28.9239 3.21333 29.2157C3.50741 29.5118 3.91576 29.681 4.33679 29.681C4.75781 29.681 5.16616 29.5118 5.45813 29.2157C5.75433 28.9218 5.92357 28.5115 5.92357 28.0949C5.92357 27.6804 5.75433 27.2722 5.45813 26.9741Z" fill="#AB2421"/>
<path d="M1.58676 34.1943C1.16997 34.1943 0.759517 34.3635 0.465438 34.6596C0.171359 34.9557 0 35.3638 0 35.7804C0 36.2013 0.169242 36.6095 0.46332 36.9013C0.757399 37.1974 1.16574 37.3665 1.58676 37.3665C2.00777 37.3665 2.41611 37.1974 2.70807 36.9013C3.00427 36.6052 3.17351 36.1971 3.17351 35.7804C3.17351 35.3659 3.00427 34.9557 2.70807 34.6596C2.41188 34.3635 2.00354 34.1943 1.58676 34.1943Z" fill="#AB2421"/>
<path d="M17.8908 36.0763C17.8908 35.2029 17.1799 34.4902 16.304 34.4902H7.36511C6.4892 34.4902 5.77832 35.2029 5.77832 36.0763C5.77832 36.9519 6.4892 37.6625 7.36511 37.6625H16.304C17.1778 37.6625 17.8908 36.9519 17.8908 36.0763Z" fill="#AB2421"/>
<path d="M55.698 57.1038C56.5718 57.1038 57.2848 56.3933 57.2848 55.5177C57.2848 54.6422 56.5718 53.9316 55.698 53.9316C54.8242 53.9316 54.1133 54.6422 54.1133 55.5177C54.1133 56.3933 54.8242 57.1038 55.698 57.1038Z" fill="#1F1111"/>
<path d="M50.411 57.1038C51.2874 57.1038 51.9978 56.3937 51.9978 55.5177C51.9978 54.6418 51.2874 53.9316 50.411 53.9316C49.5346 53.9316 48.8242 54.6418 48.8242 55.5177C48.8242 56.3937 49.5346 57.1038 50.411 57.1038Z" fill="#1F1111"/>
<path d="M66.2792 57.1038C67.1529 57.1038 67.8638 56.3933 67.8638 55.5177C67.8638 54.6422 67.1529 53.9316 66.2792 53.9316C65.4054 53.9316 64.6924 54.6422 64.6924 55.5177C64.6924 56.3933 65.4054 57.1038 66.2792 57.1038Z" fill="#1F1111"/>
<path d="M60.9893 57.1038C61.8652 57.1038 62.5761 56.3933 62.5761 55.5177C62.5761 54.6422 61.8652 53.9316 60.9893 53.9316C60.1134 53.9316 59.4004 54.6422 59.4004 55.5177C59.4004 56.3933 60.1134 57.1038 60.9893 57.1038Z" fill="#1F1111"/>
<path d="M76.8573 57.1038C77.7337 57.1038 78.4441 56.3937 78.4441 55.5177C78.4441 54.6418 77.7337 53.9316 76.8573 53.9316C75.9809 53.9316 75.2705 54.6418 75.2705 55.5177C75.2705 56.3937 75.9809 57.1038 76.8573 57.1038Z" fill="#1F1111"/>
<path d="M71.5663 57.1038C72.4422 57.1038 73.1552 56.3933 73.1552 55.5177C73.1552 54.6422 72.4422 53.9316 71.5663 53.9316C70.6904 53.9316 69.9795 54.6422 69.9795 55.5177C69.9795 56.3933 70.6925 57.1038 71.5663 57.1038Z" fill="#1F1111"/>
<path d="M23.9647 57.1038C24.8411 57.1038 25.5515 56.3937 25.5515 55.5177C25.5515 54.6418 24.8411 53.9316 23.9647 53.9316C23.0884 53.9316 22.3779 54.6418 22.3779 55.5177C22.3779 56.3937 23.0884 57.1038 23.9647 57.1038Z" fill="#1F1111"/>
<path d="M82.1444 57.1038C83.0208 57.1038 83.7312 56.3937 83.7312 55.5177C83.7312 54.6418 83.0208 53.9316 82.1444 53.9316C81.268 53.9316 80.5576 54.6418 80.5576 55.5177C80.5576 56.3937 81.268 57.1038 82.1444 57.1038Z" fill="#1F1111"/>
<path d="M13.3856 57.1038C14.262 57.1038 14.9724 56.3937 14.9724 55.5177C14.9724 54.6418 14.262 53.9316 13.3856 53.9316C12.5093 53.9316 11.7988 54.6418 11.7988 55.5177C11.7988 56.3937 12.5093 57.1038 13.3856 57.1038Z" fill="#1F1111"/>
<path d="M29.2538 57.1038C30.1275 57.1038 30.8384 56.3933 30.8384 55.5177C30.8384 54.6422 30.1275 53.9316 29.2538 53.9316C28.38 53.9316 27.667 54.6422 27.667 55.5177C27.667 56.3933 28.38 57.1038 29.2538 57.1038Z" fill="#1F1111"/>
<path d="M45.1198 57.1038C45.9936 57.1038 46.7066 56.3933 46.7066 55.5177C46.7066 54.6422 45.9936 53.9316 45.1198 53.9316C44.246 53.9316 43.5352 54.6422 43.5352 55.5177C43.5352 56.3933 44.246 57.1038 45.1198 57.1038Z" fill="#1F1111"/>
<path d="M34.5409 57.1038C35.4168 57.1038 36.1298 56.3933 36.1298 55.5177C36.1298 54.6422 35.4168 53.9316 34.5409 53.9316C33.665 53.9316 32.9541 54.6422 32.9541 55.5177C32.9541 56.3933 33.6671 57.1038 34.5409 57.1038Z" fill="#1F1111"/>
<path d="M39.8329 57.1038C40.7092 57.1038 41.4197 56.3937 41.4197 55.5177C41.4197 54.6418 40.7092 53.9316 39.8329 53.9316C38.9565 53.9316 38.2461 54.6418 38.2461 55.5177C38.2461 56.3937 38.9565 57.1038 39.8329 57.1038Z" fill="#1F1111"/>
<path d="M18.6735 57.1038C19.5473 57.1038 20.2603 56.3933 20.2603 55.5177C20.2603 54.6422 19.5473 53.9316 18.6735 53.9316C17.7997 53.9316 17.0889 54.6422 17.0889 55.5177C17.0889 56.3933 17.7997 57.1038 18.6735 57.1038Z" fill="#1F1111"/>
<path d="M18.9422 62.9788C19.8186 62.9788 20.529 62.2687 20.529 61.3927C20.529 60.5168 19.8186 59.8066 18.9422 59.8066C18.0659 59.8066 17.3555 60.5168 17.3555 61.3927C17.3555 62.2687 18.0659 62.9788 18.9422 62.9788Z" fill="#1F1111"/>
<path d="M29.5203 62.9788C30.3967 62.9788 31.1071 62.2687 31.1071 61.3927C31.1071 60.5168 30.3967 59.8066 29.5203 59.8066C28.644 59.8066 27.9336 60.5168 27.9336 61.3927C27.9336 62.2687 28.644 62.9788 29.5203 62.9788Z" fill="#1F1111"/>
<path d="M24.2313 62.9788C25.1077 62.9788 25.8181 62.2687 25.8181 61.3927C25.8181 60.5168 25.1077 59.8066 24.2313 59.8066C23.355 59.8066 22.6445 60.5168 22.6445 61.3927C22.6445 62.2687 23.355 62.9788 24.2313 62.9788Z" fill="#1F1111"/>
<path d="M77.1239 62.9788C78.0003 62.9788 78.7107 62.2687 78.7107 61.3927C78.7107 60.5168 78.0003 59.8066 77.1239 59.8066C76.2475 59.8066 75.5371 60.5168 75.5371 61.3927C75.5371 62.2687 76.2475 62.9788 77.1239 62.9788Z" fill="#1F1111"/>
<path d="M71.8348 62.9788C72.7112 62.9788 73.4216 62.2687 73.4216 61.3927C73.4216 60.5168 72.7112 59.8066 71.8348 59.8066C70.9585 59.8066 70.248 60.5168 70.248 61.3927C70.248 62.2687 70.9585 62.9788 71.8348 62.9788Z" fill="#1F1111"/>
<path d="M82.413 62.9788C83.2893 62.9788 83.9997 62.2687 83.9997 61.3927C83.9997 60.5168 83.2893 59.8066 82.413 59.8066C81.5366 59.8066 80.8262 60.5168 80.8262 61.3927C80.8262 62.2687 81.5366 62.9788 82.413 62.9788Z" fill="#1F1111"/>
<path d="M55.9646 59.8066C55.0908 59.8066 54.3799 60.5172 54.3799 61.3927C54.3799 62.2683 55.0908 62.9788 55.9646 62.9788C56.8405 62.9788 57.5535 62.2683 57.5535 61.3927C57.5535 60.5172 56.8405 59.8066 55.9646 59.8066Z" fill="#1F1111"/>
<path d="M50.6776 59.8066C49.8017 59.8066 49.0908 60.5172 49.0908 61.3927C49.0908 62.2683 49.8017 62.9788 50.6776 62.9788C51.5514 62.9788 52.2622 62.2683 52.2622 61.3927C52.2622 60.5172 51.5514 59.8066 50.6776 59.8066Z" fill="#1F1111"/>
<path d="M66.5458 59.8066C65.6699 59.8066 64.959 60.5172 64.959 61.3927C64.959 62.2683 65.6699 62.9788 66.5458 62.9788C67.4195 62.9788 68.1304 62.2683 68.1304 61.3927C68.1304 60.5172 67.4195 59.8066 66.5458 59.8066Z" fill="#1F1111"/>
<path d="M45.3887 59.8066C44.5128 59.8066 43.7998 60.5172 43.7998 61.3927C43.7998 62.2683 44.5128 62.9788 45.3887 62.9788C46.2646 62.9788 46.9755 62.2683 46.9755 61.3927C46.9755 60.5172 46.2646 59.8066 45.3887 59.8066Z" fill="#1F1111"/>
<path d="M61.2559 59.8066C60.38 59.8066 59.667 60.5172 59.667 61.3927C59.667 62.2683 60.38 62.9788 61.2559 62.9788C62.1318 62.9788 62.8427 62.2683 62.8427 61.3927C62.8427 60.5172 62.1318 59.8066 61.2559 59.8066Z" fill="#1F1111"/>
<path d="M40.0995 62.9788C40.9758 62.9788 41.6862 62.2687 41.6862 61.3927C41.6862 60.5168 40.9758 59.8066 40.0995 59.8066C39.2231 59.8066 38.5127 60.5168 38.5127 61.3927C38.5127 62.2687 39.2231 62.9788 40.0995 62.9788Z" fill="#1F1111"/>
<path d="M34.8094 62.9788C35.6858 62.9788 36.3962 62.2687 36.3962 61.3927C36.3962 60.5168 35.6858 59.8066 34.8094 59.8066C33.9331 59.8066 33.2227 60.5168 33.2227 61.3927C33.2227 62.2687 33.9331 62.9788 34.8094 62.9788Z" fill="#1F1111"/>
<path d="M31.8225 26.3209C39.0836 26.3209 44.9886 20.4164 44.9886 13.1605C44.9886 5.90244 39.0815 0 31.8225 0C24.5614 0 18.6543 5.90455 18.6543 13.1605C18.6564 20.4164 24.5635 26.3209 31.8225 26.3209ZM31.8225 2.53566C37.683 2.53566 42.4498 7.30244 42.4498 13.1583C42.4498 19.0142 37.683 23.781 31.8225 23.781C25.962 23.781 21.1932 19.0142 21.1932 13.1583C21.1932 7.30244 25.962 2.53566 31.8225 2.53566Z" fill="#1F1111"/>
<path d="M31.7382 14.8228H37.201C37.9013 14.8228 38.4704 14.2539 38.4704 13.5539C38.4704 12.8539 37.9013 12.285 37.201 12.285H32.9568V5.90463C32.9568 5.20463 32.3877 4.63574 31.6874 4.63574C30.9871 4.63574 30.418 5.20463 30.418 5.90463V13.6512C30.418 14.3533 31.0379 14.8228 31.7382 14.8228Z" fill="#AB2421"/>
<path d="M31.6874 23.2879C32.3877 23.2879 32.9568 22.719 32.9568 22.019V21.9915C32.9568 21.2915 32.3877 20.7227 31.6874 20.7227C30.9871 20.7227 30.418 21.2915 30.418 21.9915V22.019C30.418 22.719 30.9871 23.2879 31.6874 23.2879Z" fill="#AB2421"/>
<path d="M22.9151 12.2852H22.8876C22.1873 12.2852 21.6182 12.854 21.6182 13.554C21.6182 14.254 22.1873 14.8229 22.8876 14.8229H22.9151C23.6154 14.8229 24.1845 14.254 24.1845 13.554C24.1845 12.854 23.6154 12.2852 22.9151 12.2852Z" fill="#AB2421"/>
<path d="M40.7587 14.8229H40.7862C41.4865 14.8229 42.0556 14.254 42.0556 13.554C42.0556 12.854 41.4865 12.2852 40.7862 12.2852H40.7587C40.0584 12.2852 39.4893 12.854 39.4893 13.554C39.4893 14.254 40.0584 14.8229 40.7587 14.8229Z" fill="#AB2421"/>
<path d="M31.8987 43.1611H21.3202C20.6199 43.1611 20.0508 43.73 20.0508 44.43C20.0508 45.13 20.6199 45.6989 21.3202 45.6989H31.8987C32.599 45.6989 33.1681 45.13 33.1681 44.43C33.1681 43.73 32.599 43.1611 31.8987 43.1611Z" fill="#1F1111"/>
<path d="M83.7332 44.4296C83.7332 44.3936 83.7311 44.3598 83.7268 44.3238C83.729 44.2879 83.7332 44.2541 83.7332 44.2181V28.8583C83.7332 28.1604 83.1683 27.5915 82.468 27.5894L79.2437 27.5788L72.5686 15.683C72.3443 15.2833 71.9212 15.0359 71.4621 15.0359H60.672C60.5239 15.0359 60.3821 15.0634 60.2488 15.1099V12.2845C60.2488 11.5845 59.6797 11.0156 58.9794 11.0156H47.5546C46.8543 11.0156 46.2852 11.5845 46.2852 12.2845C46.2852 12.9845 46.8543 13.5534 47.5546 13.5534H57.71V43.1607H51.3629C50.6626 43.1607 50.0934 43.7296 50.0934 44.4296C50.0934 45.1296 50.6626 45.6985 51.3629 45.6985H58.7678H58.9794H60.8835C61.5838 45.6985 62.153 45.1296 62.153 44.4296C62.153 43.7296 61.5838 43.1607 60.8835 43.1607H60.2488V17.4975C60.3821 17.544 60.5239 17.5715 60.672 17.5715H70.7195L77.3924 29.4652C77.6167 29.8649 78.0377 30.1123 78.4947 30.1123L81.1944 30.1208V43.1607H79.2902C78.5899 43.1607 78.0208 43.7296 78.0208 44.4296C78.0208 45.1296 78.5899 45.6985 79.2902 45.6985H82.4638C83.1641 45.6985 83.7332 45.1296 83.7332 44.4296Z" fill="#1F1111"/>
<path d="M64.0575 29.6265H72.3934C72.3934 29.6265 72.3955 29.6265 72.3976 29.6265C73.0979 29.6265 73.6671 29.0577 73.6671 28.3577C73.6671 28.1039 73.593 27.8691 73.464 27.6703L69.6303 20.5646C69.4082 20.1543 68.9787 19.8984 68.5132 19.8984H64.0575C63.3572 19.8984 62.7881 20.4673 62.7881 21.1673V28.3577C62.7881 29.0577 63.3572 29.6265 64.0575 29.6265ZM65.3269 22.4362H67.7579L70.2671 27.0888H65.3269V22.4362Z" fill="#1F1111"/>
<path d="M69.8269 38.8682C66.0948 38.8682 63.0566 41.905 63.0566 45.6355C63.0566 49.3661 66.0948 52.4029 69.8269 52.4029C73.559 52.4029 76.5971 49.3661 76.5971 45.6355C76.5971 41.905 73.559 38.8682 69.8269 38.8682ZM69.8269 49.8651C67.4933 49.8651 65.5955 47.9682 65.5955 45.6355C65.5955 43.3029 67.4933 41.4059 69.8269 41.4059C72.1605 41.4059 74.0583 43.3029 74.0583 45.6355C74.0583 47.9682 72.1584 49.8651 69.8269 49.8651Z" fill="#1F1111"/>
<path d="M41.8992 39.291C38.1671 39.291 35.1289 42.3279 35.1289 46.0584C35.1289 49.7889 38.1671 52.8257 41.8992 52.8257C45.6313 52.8257 48.6695 49.7889 48.6695 46.0584C48.6695 42.3279 45.6313 39.291 41.8992 39.291ZM41.8992 50.288C39.5656 50.288 37.6678 48.391 37.6678 46.0584C37.6678 43.7258 39.5656 41.8288 41.8992 41.8288C44.2328 41.8288 46.1306 43.7258 46.1306 46.0584C46.1306 48.391 44.2307 50.288 41.8992 50.288Z" fill="#1F1111"/>
</svg>
