<svg width="67" height="66" viewBox="0 0 67 66" fill="none" xmlns="http://www.w3.org/2000/svg">
<path d="M11.2303 10.7632L35.4866 22.3435C31.6316 26.4033 26.8923 32.2099 22.9763 37.6875C19.633 37.2606 13.5477 37.265 13.2711 37.265C12.7027 37.265 12.1996 37.6353 12.0275 38.1776C11.8554 38.7199 12.0558 39.3123 12.5197 39.639L20.6567 45.3758C20.7961 45.4738 20.9486 45.537 21.1054 45.574C21.1424 45.7308 21.2055 45.8854 21.3036 46.027L26.9794 54.2076C27.2277 54.5669 27.6328 54.7695 28.0532 54.7695C28.1817 54.7695 28.3102 54.7499 28.4365 54.7107C28.981 54.543 29.3534 54.0421 29.36 53.4736C29.3621 53.1926 29.4144 47.1139 29.0115 43.7663C32.0759 41.6166 39.4136 36.3437 44.5776 31.6131L55.8879 55.7561C56.0687 56.1416 56.4237 56.4139 56.844 56.4879C56.9202 56.501 56.9965 56.5075 57.0727 56.5075C57.4147 56.5075 57.7457 56.3725 57.994 56.1286L60.625 53.5172C60.919 53.2253 61.0584 52.8093 60.9975 52.3998L56.4084 21.2197C56.3801 21.0215 56.3061 20.8407 56.1993 20.6839C58.1029 19.1114 68.7119 9.89417 66.7626 1.46752C66.6929 1.1626 66.5208 0.909954 66.2921 0.731359C66.1157 0.500492 65.8631 0.326239 65.5582 0.254365C57.1424 -1.76028 47.8359 8.79647 46.259 10.6761C46.1087 10.5781 45.9366 10.5105 45.7472 10.48L14.6237 5.67539C14.2142 5.61223 13.7982 5.74727 13.5042 6.03912L10.8732 8.65053C10.5704 8.95109 10.4332 9.37798 10.5051 9.79616C10.577 10.2209 10.847 10.5802 11.2303 10.7632ZM14.8785 8.36302L45.3508 13.0675C45.7036 13.122 46.0455 13.0283 46.3134 12.8344C46.5399 12.9913 46.797 13.0719 47.0561 13.0719C47.4373 13.0719 47.8162 12.9063 48.0732 12.5862C48.1647 12.4729 57.0074 1.65046 64.3276 2.68283C65.3055 10.0031 54.4395 18.752 54.3001 18.8609C53.7513 19.2965 53.6467 20.085 54.054 20.6491C53.8624 20.9148 53.7687 21.2524 53.821 21.603L58.3142 52.1297L57.4669 52.9705L46.2982 29.1302C46.2851 29.0997 46.2677 29.0714 46.2524 29.043C46.1936 28.847 46.0935 28.6597 45.941 28.5029C45.4379 27.9867 44.6103 27.9759 44.0919 28.479C40.4568 32.0247 34.0121 37.1103 26.8553 42.0849C26.4371 42.3746 26.2258 42.882 26.313 43.383C26.5504 44.7377 26.6592 47.1269 26.7072 49.2352L23.4489 44.5373C23.2572 44.2629 22.9806 44.0842 22.68 44.0124C22.6104 43.7096 22.4339 43.4309 22.1617 43.2392L17.4877 39.9439C19.596 40.0092 21.9831 40.1356 23.3378 40.3839C23.8387 40.4753 24.3462 40.2684 24.6402 39.8524C28.8677 33.8695 34.402 27.1242 38.416 23.071C38.917 22.5657 38.917 21.7577 38.4269 21.2481C38.3115 20.9475 38.085 20.6883 37.7714 20.538L14.0269 9.20157L14.8785 8.36302Z" fill="#1F1111"/>
<path d="M50.8518 56.7538L42.4609 63.6641L44.1224 65.6815L52.5132 58.7712L50.8518 56.7538Z" fill="#AB2421"/>
<path d="M47.539 51.526L42.1016 55.7559L43.7063 57.8188L49.1438 53.5889L47.539 51.526Z" fill="#AB2421"/>
<path d="M7.32388 13.9329L0 21.0537L1.8219 22.9277L9.14578 15.8068L7.32388 13.9329Z" fill="#AB2421"/>
<path d="M11.7406 17.534L7.17383 22.2285L9.04725 24.051L13.614 19.3565L11.7406 17.534Z" fill="#AB2421"/>
</svg>
