<svg width="64" height="74" viewBox="0 0 64 74" fill="none" xmlns="http://www.w3.org/2000/svg">
<path d="M63.2397 0.122633C63.1059 0.0668892 62.9788 0.0379019 62.8405 0.0312127C62.7514 0.0111451 62.6644 0 62.5685 0L19.0977 0.129321C18.8212 0.129321 18.5536 0.222973 18.3329 0.390203L1.14831 13.5813C0.898581 13.7731 0.769256 14.0384 0.709053 14.3238C0.278715 14.5245 0 14.9615 0 15.4677V59.7613C0 60.4592 0.521758 60.9497 1.21966 60.9497H26.1793C26.8772 60.9497 27.4435 60.4213 27.4435 59.7234C27.4435 59.0255 26.8772 58.497 26.1793 58.497H2.45271V16.801H16.1566C16.1544 16.801 16.0541 16.801 16.0541 16.8367V25.1179C16.0541 25.5639 16.3372 25.9764 16.7208 26.2038C17.1043 26.4312 17.6037 26.4402 17.9962 26.2261L21.12 24.5271L23.1312 26.4669C23.3765 26.7033 23.6954 26.8215 24.0142 26.8215C24.3353 26.8215 24.6564 26.701 24.9016 26.458L27.1158 24.2818L30.4046 26.3599C30.7971 26.6074 31.2921 26.6208 31.6979 26.3933C32.1015 26.1659 32.3512 25.7712 32.3445 25.3097L32.2308 16.801H47.0518V27.7624C47.0518 28.4603 47.6917 29.0267 48.3897 29.0267C49.0876 29.0267 49.7275 28.4603 49.7275 27.7624V15.9381C49.9505 15.8824 50.0998 15.7798 50.2626 15.617L61.5451 4.33237V43.569C61.3221 44.0149 61.5941 44.4943 61.9709 44.802C62.2051 44.9938 62.4816 45.0874 62.7647 45.0874C63.1304 45.0874 63.4916 44.9291 63.7414 44.6236L63.7503 44.5813C63.9286 44.3583 64 44.0773 64 43.7919V1.29102C63.9933 0.778178 63.7101 0.318849 63.2397 0.122633ZM20.9751 14.1276L34.6322 2.57088L42.8956 2.52628L30.3756 14.1254H20.9751V14.1276ZM19.5347 2.61548L30.7123 2.60209L17.4566 13.8266C17.3451 13.9225 17.2581 14.1254 17.1868 14.1254H4.48622L19.5347 2.61548ZM29.7825 23.0153L27.6175 21.6306C27.1202 21.3162 26.4758 21.3787 26.0566 21.7889L24.0075 23.7979L22.2215 22.0677C21.8246 21.6841 21.2493 21.5994 20.7633 21.8648L18.7298 22.9885V16.8367C18.7298 16.801 18.6762 16.801 18.6718 16.801H29.6978L29.7825 23.0153ZM48.4186 13.7909C48.3072 13.9024 48.2247 14.1254 48.1644 14.1254H34.0948L46.2982 2.83845C46.3963 2.74703 46.4699 2.6623 46.5323 2.55305L59.7457 2.50399L48.4186 13.7909Z" fill="#1F1111"/>
<path d="M36.3879 22.8235L43.7928 22.8012C44.4907 22.799 45.0548 22.2794 45.0526 21.5815C45.0504 20.8836 44.484 20.3708 43.7883 20.3708C43.7883 20.3708 43.7861 20.3708 43.7839 20.3708L36.379 20.3418C35.681 20.344 35.1169 20.8881 35.1191 21.586C35.1214 22.2839 35.6855 22.8235 36.3834 22.8235C36.3856 22.8235 36.3856 22.8235 36.3879 22.8235Z" fill="#1F1111"/>
<path d="M59.5432 36.2981L44.6998 29.1139C44.2249 28.8842 43.6786 28.9779 43.3085 29.3079L28.8509 36.3962C28.425 36.6058 28.1508 37.0361 28.1441 37.511C28.1151 39.3238 27.8698 55.282 28.2578 57.4225C28.6502 59.5809 33.3572 69.0372 43.0833 73.2915C43.2483 73.3629 43.42 73.3986 43.5894 73.3986C43.6407 73.3986 43.692 73.3941 43.7433 73.3874C43.9016 73.4566 44.071 73.4922 44.245 73.4922C44.4144 73.4922 44.5861 73.4588 44.7511 73.3852C54.2253 69.2401 59.6992 59.7682 60.143 57.3267C60.5332 55.1861 60.2879 39.2279 60.2567 37.4152C60.25 36.938 59.9735 36.5077 59.5432 36.2981ZM57.6546 56.8763C57.329 58.6623 52.3456 67.1575 44.0198 70.9414C35.3929 67.1263 31.0293 58.5307 30.7462 56.9699C30.4964 55.5964 30.5589 45.1278 30.6592 38.3249L44.2048 31.6825L57.7415 38.2335C57.8441 45.0364 57.9043 55.5027 57.6546 56.8763Z" fill="#AB2421"/>
<path d="M55.1974 39.2574L44.6151 34.2137C44.2717 34.051 43.8726 34.0487 43.527 34.2137L33.19 39.1325C32.7507 39.3421 32.4698 39.7858 32.4698 40.2741C32.4698 40.399 32.4631 52.7874 32.4698 55.5277C32.4809 60.0028 41.6585 67.0555 43.5003 68.4245C43.7255 68.5917 43.9908 68.6742 44.2539 68.6742C44.5326 68.6742 44.8113 68.5828 45.0432 68.3978C47.4001 66.5181 55.1216 60.1321 55.5319 56.85C55.9154 53.7819 55.9199 40.9453 55.9199 40.399C55.9176 39.9129 55.6367 39.467 55.1974 39.2574ZM53.0279 56.5356C52.8629 57.8556 49.2775 61.5168 45.4869 64.7611V55.9915C45.4869 55.2936 44.9585 54.7273 44.2606 54.7273C43.5627 54.7273 43.0342 55.2936 43.0342 55.9915V64.7789C39.2437 61.6707 35.0473 57.5167 35.0429 55.5211C35.0384 53.191 35.0184 43.8707 35.0206 41.0724L44.0822 36.7556L53.398 41.1973C53.3891 44.0981 53.3401 54.0427 53.0279 56.5356Z" fill="#AB2421"/>
</svg>
