<svg width="76" height="86" viewBox="0 0 76 86" fill="none" xmlns="http://www.w3.org/2000/svg">
<path d="M74.2628 82.9467H72.0568C72.0797 82.9467 72.0161 82.8043 72.0161 82.6923V50.6382C72.0161 50.6331 72.0899 50.6306 72.0899 50.6306H74.2628C75.105 50.6306 75.7894 49.9462 75.7894 49.104C75.7894 48.2618 75.105 47.5773 74.2628 47.5773H66.0343C65.9325 47.3229 65.7951 47.2389 65.6221 47.1117L61.5282 44.0712C60.8513 43.5699 59.8947 43.7099 59.3934 44.3867C58.8922 45.0635 59.0321 46.0227 59.7089 46.5265L61.1236 47.5799H15.7293C18.3679 45.5444 23.4643 42.0001 28.665 38.4608C28.8151 38.359 28.9398 38.2318 29.0415 38.0919C29.1586 38.0486 29.2731 37.9952 29.3799 37.9214C29.6954 37.7051 31.2373 36.7154 33.1532 35.4915C34.1455 35.891 35.2269 36.1124 36.3617 36.1124C38.7 36.1124 40.8245 35.176 42.3792 33.6596L47.4425 37.4176C48.1193 37.9214 49.076 37.7789 49.5772 37.1021C50.0785 36.4253 49.9385 35.4686 49.2617 34.9674L44.1551 31.1788C44.6869 30.0593 44.9846 28.81 44.9846 27.4895C44.9846 23.6602 42.2061 20.7214 39.9722 18.3602C39.5422 17.9048 39.1376 17.4417 38.7611 17.0219C37.9876 16.1543 37.583 15.0118 37.4583 13.4852H42.827C43.6692 13.4852 44.3536 12.8008 44.3536 11.9586C44.3536 11.1164 43.6692 10.4319 42.827 10.4319H37.4024C37.3744 7.37869 37.3006 1.7887 37.298 1.50373C37.2879 0.666628 36.606 0 35.7714 0C35.7638 0 35.7587 0 35.7511 0C34.9089 0 34.2346 0.699702 34.2448 1.54444C34.2448 1.61313 34.3186 7.37869 34.3491 10.4319H31.1152C30.273 10.4319 29.5886 11.1164 29.5886 11.9586C29.5886 12.8008 30.273 13.4852 31.1152 13.4852H34.3974C34.5119 15.2663 34.9598 17.3425 36.4838 19.0523C36.8884 19.5077 37.3286 19.9886 37.756 20.439C39.8094 22.6093 41.9339 24.8637 41.9339 27.4767C41.9339 28.1103 41.827 28.726 41.6286 29.2934L40.4225 28.4004C39.9137 28.0238 39.2267 28.0009 38.6949 28.3393C38.4786 28.4767 35.7358 30.2221 33.0286 31.9472C31.6699 30.9295 30.7895 29.3087 30.7895 27.4844C30.7895 27.1154 30.8251 26.749 30.8964 26.3903C31.0618 25.5634 30.5249 24.7593 29.698 24.5965C28.8736 24.4337 28.067 24.968 27.9042 25.7975C27.7948 26.3496 27.7388 26.9195 27.7388 27.4869C27.7388 29.9066 28.7413 32.0948 30.3494 33.6621C28.9932 34.5298 27.9347 35.2117 27.6625 35.3974C27.5149 35.4992 27.3902 35.6213 27.291 35.7587C27.174 35.802 27.0594 35.8579 26.95 35.9317C19.4365 41.0459 12.1392 46.4171 12.0654 46.4705C11.6965 46.7428 11.4853 47.071 11.4497 47.5799H1.52917C0.686985 47.5799 0.00254686 48.2643 0.00254686 49.1065C0.00254686 49.9487 0.686985 50.6331 1.52917 50.6331H4.62566C4.62566 50.6331 4.59258 50.6357 4.59258 50.6408V82.6923C4.59258 82.8043 4.63839 82.9467 4.65874 82.9467H1.52663C0.684438 82.9467 0 83.6312 0 84.4734C0 85.3156 0.684438 86 1.52663 86H74.2628C75.105 86 75.7894 85.3156 75.7894 84.4734C75.7894 83.6286 75.105 82.9467 74.2628 82.9467ZM39.443 31.4816L39.8755 31.8022C39.0791 32.451 38.102 32.8861 37.0309 33.0159C37.8858 32.4739 38.7102 31.9498 39.443 31.4816ZM69.0722 82.9467H59.625C59.7115 82.9467 59.8031 82.6109 59.8031 82.3844V50.6331H69.0366C69.0366 50.6331 68.9628 50.6357 68.9628 50.6408V82.6923C68.9628 82.8043 69.0493 82.9467 69.0722 82.9467ZM20.1107 50.6331H30.0338V82.3844C30.0338 82.6109 29.9448 82.9467 30.0338 82.9467H19.8665C19.953 82.9467 20.1107 82.6109 20.1107 82.3844V50.6331ZM33.0871 82.3844V50.6331H43.2646V82.3844C43.2646 82.6109 43.1985 82.9467 43.285 82.9467H32.8097C32.8988 82.9467 33.0871 82.6084 33.0871 82.3844ZM46.3178 82.3844V50.6331H56.7498V82.3844C56.7498 82.6109 56.76 82.9467 56.8465 82.9467H46.0634C46.1525 82.9467 46.3178 82.6084 46.3178 82.3844ZM7.67637 50.6331H17.06V82.3844C17.06 82.6109 17.0041 82.9467 17.0906 82.9467H7.64329C7.66619 82.9467 7.64584 82.8043 7.64584 82.6923V50.6382C7.64329 50.6331 7.67637 50.6331 7.67637 50.6331Z" fill="#1F1111"/>
<path d="M54.078 42.3416L57.1974 44.657C57.4696 44.8605 57.7902 44.9572 58.1057 44.9572C58.5713 44.9572 59.0344 44.7435 59.3321 44.3415C59.8359 43.6647 59.6934 42.708 59.0166 42.2068L55.8972 39.8914C55.2204 39.3876 54.2637 39.5301 53.7625 40.2069C53.2587 40.8837 53.4012 41.8378 54.078 42.3416Z" fill="#1F1111"/>
<path d="M50.5311 39.9189C50.9127 40.2014 51.2715 40.2904 51.5692 40.2904C51.704 40.2904 51.8262 40.2726 51.933 40.2472C52.3401 40.2014 52.7269 39.9953 52.9915 39.639C53.4953 38.9622 53.3528 38.0056 52.676 37.5043C52.1213 37.0921 51.6125 37.0921 51.269 37.1786C50.8644 37.2244 50.4777 37.4331 50.2156 37.7867C49.7118 38.4585 49.8543 39.4151 50.5311 39.9189Z" fill="#1F1111"/>
<path d="M4 50.6252L8 50.625V82.9991H4V50.6252Z" fill="#AB2421"/>
<path d="M17 50.6252L21 50.625V82.9991H17V50.6252Z" fill="#AB2421"/>
<path d="M30 50.6252L34 50.625V82.9991H30V50.6252Z" fill="#AB2421"/>
<path d="M43 50.6252L47 50.625V82.9991H43V50.6252Z" fill="#AB2421"/>
<path d="M56 50.6252L60 50.625V82.9991H56V50.6252Z" fill="#AB2421"/>
<path d="M69 50.6252L73 50.625V82.9991H69V50.6252Z" fill="#AB2421"/>
</svg>
