<svg width="106" height="60" viewBox="0 0 106 60" fill="none" xmlns="http://www.w3.org/2000/svg">
<path d="M23.4432 32.9839C23.6476 32.9839 23.841 32.9508 24.0206 32.8762C24.8549 32.7215 25.4351 31.9977 25.4351 31.1164C25.4351 30.8069 25.4406 30.5196 25.1643 30.2654V27.0966C25.1643 26.0883 24.377 25.2705 23.3686 25.2705C22.3602 25.2705 21.5728 26.091 21.5728 27.0966V29.2875H21.327C20.3352 29.2875 19.5312 30.0914 19.5312 31.0832C19.5312 32.075 20.3352 32.879 21.327 32.879H22.8907C23.0647 32.879 23.2526 32.9839 23.4432 32.9839Z" fill="#1F1111"/>
<path d="M96.6637 37.2979H93.7215C92.7131 37.2979 91.8926 38.0852 91.8926 39.0936C91.8926 40.102 92.7131 40.8893 93.7215 40.8893H96.6637C97.6721 40.8893 98.4899 40.102 98.4899 39.0936C98.4899 38.0852 97.6721 37.2979 96.6637 37.2979Z" fill="#1F1111"/>
<path d="M88.8153 37.3545C88.3346 37.3545 87.8648 37.5479 87.5195 37.8877C87.1797 38.2275 86.9863 38.6972 86.9863 39.1806C86.9863 39.6641 87.1797 40.1338 87.5195 40.4708C87.8648 40.8106 88.3345 41.0068 88.8125 41.0068C89.2904 41.0068 89.7601 40.8106 90.1054 40.4708C90.4452 40.131 90.6386 39.6613 90.6386 39.1806C90.6386 38.6972 90.4425 38.2275 90.1026 37.8877C89.7656 37.5479 89.296 37.3545 88.8153 37.3545Z" fill="#1F1111"/>
<path d="M105.263 38.4041L104.169 32.619C104.017 31.8151 103.343 31.2045 102.528 31.1382L100.152 30.9393C98.9306 27.6407 95.3308 17.9354 95.0048 17.0596C94.2312 14.9682 92.3968 14.9323 89.6175 14.8826C89.2639 14.8771 88.8799 14.8688 88.46 14.8577C87.4599 14.8328 86.1227 14.8191 84.4817 14.8191C82.965 14.8191 81.4815 14.8301 80.3874 14.8411L80.4095 3.04722C80.4095 1.08295 78.1524 0 76.5224 0H24.9265C23.0893 0 21.8488 1.29844 21.8488 2.98645V9.39313H8.01059C7.01879 9.39313 6.21484 10.1971 6.21484 11.1889C6.21484 12.1807 7.01879 12.9846 8.01059 12.9846H23.1003C23.7883 12.9846 24.4044 12.6282 24.7055 12.0591C25.142 11.7248 25.4403 11.2331 25.4403 10.6419V3.59149H76.5224C76.5749 3.59149 76.6605 3.67435 76.7545 3.70197L76.7296 16.3662C76.7296 16.5319 76.7545 16.6838 76.7959 16.8358V37.2963H72.138H52.5174H50.556H26.2691H25.4376C25.4376 37.2963 25.4376 37.0448 25.4376 36.8708V36.415C25.4376 35.9342 25.3547 35.3983 24.8712 35.0944C24.6281 34.9397 24.2717 34.8651 23.8076 34.8651H23.7441C22.7744 34.8789 21.7771 35.3873 21.755 36.3321C21.7439 36.7686 21.7467 37.2106 21.7494 37.6361C21.7522 37.8516 21.7522 38.0698 21.7522 38.2853C21.7522 39.034 22.0229 39.8517 22.7578 40.396C22.7274 40.5645 22.6776 40.7303 22.6776 40.8988V48.9714C22.6776 50.6318 24.1888 51.6595 26.2719 51.6595H30.3773C30.6618 56.356 34.5296 60 39.2455 60C43.9614 60 47.8292 56.356 48.1137 51.6595H82.1749C82.4594 56.356 86.3272 60 91.0458 60C95.7617 60 99.6295 56.356 99.9141 51.6595H102.459C104.456 51.6595 105.837 50.6318 105.837 48.9714V40.8988C105.837 40.291 105.627 39.6363 105.26 39.0589C105.296 38.8489 105.304 38.6279 105.263 38.4041ZM39.2455 56.4803C36.3612 56.4803 34.013 54.1321 34.013 51.2478C34.013 48.3636 36.3612 46.0153 39.2455 46.0153C42.1297 46.0153 44.478 48.3636 44.478 51.2478C44.478 54.1348 42.1297 56.4803 39.2455 56.4803ZM91.0458 46.0181C93.9301 46.0181 96.2784 48.3664 96.2784 51.2506C96.2784 54.1348 93.9328 56.4831 91.0458 56.4831C88.1588 56.4831 85.8133 54.1348 85.8133 51.2506C85.8106 48.3636 88.1588 46.0181 91.0458 46.0181ZM91.0458 42.2912C87.2361 42.2912 83.9817 44.7555 82.7191 48.0707H47.6164C47.6026 48.0707 47.5888 48.1094 47.5722 48.1094C46.3097 44.7362 43.0552 42.3078 39.2455 42.3078C35.4385 42.3078 32.1841 44.7555 30.9215 48.0707H26.2719V41.1005C26.5482 41.0673 26.4515 41.164 26.4819 40.8878H50.5615H52.523H72.1436H83.9154C84.9238 40.8878 85.7415 40.1004 85.7415 39.092C85.7415 38.0836 84.921 37.2963 83.9154 37.2963H80.4565V18.4658C81.6638 18.4547 82.8435 18.4603 83.9099 18.4603L84.1502 32.8483C84.1667 33.8456 84.9597 34.6385 85.957 34.6496L100.87 34.7822L101.351 37.299H100.594C99.5853 37.299 98.7648 38.0864 98.7648 39.0948C98.7648 40.1032 99.5853 40.8905 100.594 40.8905H102.182C102.188 40.8905 102.249 41.0259 102.249 41.0342V48.0735H99.3754C98.1073 44.7583 94.8528 42.2912 91.0458 42.2912ZM87.7666 31.0194L87.5594 18.4962C87.8522 18.5017 88.1229 18.5072 88.3688 18.5128C88.6451 18.5211 88.9076 18.5238 89.1562 18.5293L89.5512 18.5376C90.3441 18.5514 91.2392 18.568 91.6896 18.6315C92.3139 20.3168 94.9606 27.4473 96.3171 31.1078L87.7666 31.0194Z" fill="#1F1111"/>
<path d="M39.5449 49.1274C38.8128 48.9589 38.0337 49.271 37.6248 49.8816C37.4674 50.0833 37.3486 50.3181 37.2878 50.5612C37.0972 51.2989 37.3927 52.0862 38.0143 52.5144C38.3376 52.7686 38.7271 52.9012 39.1388 52.9012C39.6803 52.9012 40.1886 52.6636 40.5367 52.252C40.8351 51.8956 40.987 51.448 40.9649 51.0005C41.0063 50.1137 40.4124 49.3263 39.5449 49.1274Z" fill="#AB2421"/>
<path d="M90.9294 52.9028C91.4267 52.9028 91.8936 52.7067 92.2389 52.3503C92.3301 52.2564 92.4157 52.1486 92.4875 52.0326C92.8854 51.4303 92.8992 50.6761 92.5263 50.0158C92.203 49.4412 91.5925 49.082 90.9322 49.082C90.62 49.082 90.3106 49.1622 90.0371 49.3169C89.6835 49.5158 89.4127 49.8169 89.258 50.1788C88.9568 50.7673 88.9016 51.6541 89.6613 52.389C90.0039 52.7205 90.4542 52.9028 90.9294 52.9028Z" fill="#AB2421"/>
<path d="M1.79575 9.33691C1.32333 9.33691 0.859171 9.53031 0.527649 9.8646C0.193364 10.1989 0 10.6602 0 11.1354C0 11.6078 0.193364 12.0692 0.527649 12.4035C0.859171 12.7378 1.32333 12.9312 1.79575 12.9312C2.26817 12.9312 2.73226 12.7378 3.06654 12.4035C3.40083 12.0692 3.59149 11.6078 3.59149 11.1354C3.59149 10.6602 3.40083 10.1989 3.06654 9.8646C2.73226 9.53031 2.26817 9.33691 1.79575 9.33691Z" fill="#AB2421"/>
<path d="M23.3563 23.4256C23.4309 23.4339 23.5194 23.4228 23.5967 23.4228C24.6438 23.4228 25.4394 22.3012 25.4394 21.3149V17.4941C25.4394 16.4857 24.652 15.668 23.6437 15.668C22.6353 15.668 21.8479 16.4885 21.8479 17.4941V19.8949H13.6317C12.6399 19.8949 11.8359 20.6988 11.8359 21.6906C11.8359 22.6824 12.6399 23.4864 13.6317 23.4864H23.0994C23.1878 23.4864 23.2734 23.4394 23.3563 23.4256Z" fill="#1F1111"/>
<path d="M7.35043 19.7588C6.87801 19.7588 6.41662 19.9494 6.08234 20.2837C5.74805 20.618 5.55469 21.0794 5.55469 21.5545C5.55469 22.027 5.74805 22.4883 6.08234 22.8226C6.41662 23.1569 6.87801 23.3503 7.35043 23.3503C7.82562 23.3503 8.28701 23.1569 8.6213 22.8226C8.95558 22.4883 9.14618 22.027 9.14618 21.5545C9.14618 21.0794 8.95558 20.618 8.6213 20.2837C8.28701 19.9494 7.82285 19.7588 7.35043 19.7588Z" fill="#AB2421"/>
<path d="M15.6864 29.5566C15.214 29.5566 14.7526 29.7473 14.4183 30.0816C14.0841 30.4158 13.8906 30.88 13.8906 31.3524C13.8906 31.8248 14.0841 32.2862 14.4183 32.6205C14.7526 32.9547 15.214 33.1481 15.6864 33.1481C16.1588 33.1481 16.6229 32.9547 16.9572 32.6205C17.2915 32.2862 17.4821 31.8248 17.4821 31.3524C17.4821 30.88 17.2915 30.4158 16.9572 30.0816C16.6229 29.7473 16.1588 29.5566 15.6864 29.5566Z" fill="#AB2421"/>
</svg>
