<svg width="82" height="67" viewBox="0 0 82 67" fill="none" xmlns="http://www.w3.org/2000/svg">
<path d="M23.0011 27.3376C23.2543 27.3376 23.5222 27.2712 23.7901 27.1188C23.9917 27.0033 24.1564 26.846 24.2793 26.6641C24.6849 26.1184 24.6308 25.44 24.3186 24.9705C23.9376 24.4027 23.1289 24.0684 22.3129 24.5354C22.1088 24.651 21.9442 24.8083 21.8237 24.9902C21.4181 25.5359 21.4722 26.2143 21.7868 26.6838C22.04 27.0623 22.4898 27.3376 23.0011 27.3376Z" fill="#1F1111"/>
<path d="M31.162 19.3707C30.25 19.8918 29.6011 20.2949 28.9129 20.7201C28.1951 21.165 27.4528 21.6247 26.3491 22.2564C25.6412 22.6595 25.3954 23.5616 25.801 24.2695C26.0738 24.7464 26.5704 25.0119 27.0816 25.0119C27.3299 25.0119 27.5806 24.9504 27.8117 24.8177C28.962 24.1589 29.7265 23.687 30.4664 23.2273C31.13 22.8144 31.7593 22.426 32.6245 21.9319C33.3324 21.5288 33.5782 20.6267 33.1727 19.9188C32.772 19.2134 31.8699 18.9676 31.162 19.3707Z" fill="#1F1111"/>
<path d="M81.0367 22.3496L72.7335 17.6547C72.0231 17.254 71.1382 17.5072 70.74 18.2151C70.3418 18.9231 70.536 19.8252 71.2464 20.2234L78.7753 24.4954V35.7361L42.1505 14.4961V3.8651L52.6095 9.72016C53.3199 10.1208 54.249 9.86763 54.6497 9.15972C55.0503 8.44934 54.8143 7.5497 54.104 7.1515L41.7794 0.205074C41.3246 -0.0505627 40.774 -0.0776077 40.3217 0.182945L39.5032 0.627864H39.2033V0.787628L0.705474 23.0476C0.248279 23.3107 -0.00244014 23.7998 1.79038e-05 24.3283L0.0418154 38.1351C0.0418154 38.6611 0.331871 39.1454 0.786609 39.4084C1.01521 39.5411 1.27331 39.6075 1.52894 39.6075C1.78212 39.6075 1.97384 39.5435 2.19998 39.4133L8.7236 35.65V66.9925H16.8351V31.0142L19.9962 29.2419C20.7041 28.8388 20.9794 27.9367 20.5763 27.2288C20.1732 26.5209 19.2858 26.2751 18.5804 26.6806L2.99392 35.591L2.91525 25.1739L39.2033 4.19202V14.8353L34.4962 17.5613C33.7883 17.9644 33.5744 18.8665 33.9775 19.5744C34.3806 20.2824 35.2975 20.5282 36.0054 20.1226L41.0272 17.2221L64.7645 31.0191V66.995H73.6134V36.1515L79.5717 39.5706C79.8003 39.7033 80.0879 39.7697 80.3435 39.7697C80.5992 39.7697 80.8057 39.7033 81.0343 39.5731C81.4915 39.31 81.7274 38.8234 81.7274 38.2949V23.6327C81.725 23.1017 81.4988 22.6126 81.0367 22.3496ZM13.883 64.0502H11.6708V33.9712L13.883 32.7077V64.0502ZM70.6638 64.0502H67.7141V32.7348L70.6638 34.4456V64.0502Z" fill="#1F1111"/>
<path d="M60.3732 14.0603L68.0275 18.3716C68.2561 18.4995 68.5044 18.5609 68.7502 18.5609C69.2664 18.5609 69.7654 18.2905 70.0358 17.8088C70.4364 17.0984 70.1857 16.1988 69.4753 15.8005L61.821 11.4891C61.1106 11.0885 60.211 11.3417 59.8128 12.0496C59.4146 12.7575 59.6628 13.662 60.3732 14.0603Z" fill="#1F1111"/>
<path d="M56.4895 11.8581C56.5584 11.9073 56.6297 11.954 56.7108 11.9982C56.9394 12.126 57.1876 12.1875 57.4334 12.1875C57.9496 12.1875 58.4486 11.9171 58.719 11.4353C59.1196 10.7249 58.8689 9.8253 58.1586 9.4271H58.1561C58.0897 9.37794 58.016 9.33123 57.9373 9.28699C57.227 8.88633 56.3298 9.1395 55.9291 9.84741C55.5284 10.5553 55.7792 11.4574 56.4895 11.8581Z" fill="#1F1111"/>
<path d="M19.0469 52.2518H31.8287V39.7158H19.0469V52.2518ZM21.9965 42.6655H28.879V49.3022H21.9965V42.6655Z" fill="#AB2421"/>
<path d="M19.0469 67.0009H31.8287V54.4648H19.0469V67.0009ZM21.9965 57.4145H28.879V64.0512H21.9965V57.4145Z" fill="#AB2421"/>
<path d="M33.793 52.2518H46.5748V39.7158H33.793V52.2518ZM36.7426 42.6655H43.6251V49.3022H36.7426V42.6655Z" fill="#AB2421"/>
<path d="M48.543 67.0009H61.3248V54.4648H48.543V67.0009ZM51.4926 57.4145H58.3751V64.0512H51.4926V57.4145Z" fill="#AB2421"/>
<path d="M33.793 67.0009H46.5748V54.4648H33.793V67.0009ZM36.7426 57.4145H43.6251V64.0512H36.7426V57.4145Z" fill="#AB2421"/>
</svg>
